<?xml version="1.0" encoding="UTF-8" standalone="no"?>
<!DOCTYPE svg PUBLIC "-//W3C//DTD SVG 1.1//EN"
 "http://www.w3.org/Graphics/SVG/1.1/DTD/svg11.dtd">
<!-- Generated by graphviz version 7.1.0 (0)
 -->
<!-- Title: Containers Pages: 1 -->
<svg width="226pt" height="98pt"
 viewBox="0.00 0.00 226.00 98.00" xmlns="http://www.w3.org/2000/svg" xmlns:xlink="http://www.w3.org/1999/xlink">
<g id="graph0" class="graph" transform="scale(1 1) rotate(0) translate(4 94)">
<title>Containers</title>
<!-- Node2 -->
<g id="Node000002" class="node">
<title>Node2</title>
<g id="a_Node000002"><a xlink:href="a01571.html" target="_top" xlink:title=" ">
<polygon fill="white" stroke="#666666" points="192.5,-90 126.5,-90 126.5,-72 192.5,-72 192.5,-90"/>
<text text-anchor="middle" x="159.5" y="-78.8" font-family="Helvetica,sans-Serif" font-size="9.00">Associative</text>
</a>
</g>
</g>
<!-- Node1 -->
<g id="Node000001" class="node">
<title>Node1</title>
<g id="a_Node000001"><a xlink:title=" ">
<polygon fill="#999999" stroke="#666666" points="65,-54 0,-54 0,-36 65,-36 65,-54"/>
<text text-anchor="middle" x="32.5" y="-42.8" font-family="Helvetica,sans-Serif" font-size="9.00">Containers</text>
</a>
</g>
</g>
<!-- Node1&#45;&gt;Node2 -->
<g id="edge1" class="edge">
<title>Node1&#45;&gt;Node2</title>
<path fill="none" stroke="black" d="M76.31,-57.33C92.67,-62.04 111.04,-67.33 126.26,-71.71"/>
<polygon fill="black" stroke="black" points="77.4,-54 66.82,-54.6 75.46,-60.73 77.4,-54"/>
</g>
<!-- Node3 -->
<g id="Node000003" class="node">
<title>Node3</title>
<g id="a_Node000003"><a xlink:href="a01570.html" target="_top" xlink:title=" ">
<polygon fill="white" stroke="#666666" points="192.5,-54 126.5,-54 126.5,-36 192.5,-36 192.5,-54"/>
<text text-anchor="middle" x="159.5" y="-42.8" font-family="Helvetica,sans-Serif" font-size="9.00">Sequences</text>
</a>
</g>
</g>
<!-- Node1&#45;&gt;Node3 -->
<g id="edge2" class="edge">
<title>Node1&#45;&gt;Node3</title>
<path fill="none" stroke="black" d="M76.78,-45C93.03,-45 111.19,-45 126.26,-45"/>
<polygon fill="black" stroke="black" points="76.88,-41.5 66.88,-45 76.88,-48.5 76.88,-41.5"/>
</g>
<!-- Node4 -->
<g id="Node000004" class="node">
<title>Node4</title>
<g id="a_Node000004"><a xlink:href="a01572.html" target="_top" xlink:title=" ">
<polygon fill="white" stroke="#666666" points="218,-18 101,-18 101,0 218,0 218,-18"/>
<text text-anchor="middle" x="159.5" y="-6.8" font-family="Helvetica,sans-Serif" font-size="9.00">Unordered Associative</text>
</a>
</g>
</g>
<!-- Node1&#45;&gt;Node4 -->
<g id="edge3" class="edge">
<title>Node1&#45;&gt;Node4</title>
<path fill="none" stroke="black" d="M76.22,-32.7C92.45,-28.02 110.66,-22.78 125.82,-18.41"/>
<polygon fill="black" stroke="black" points="75.46,-29.27 66.82,-35.4 77.4,-36 75.46,-29.27"/>
</g>
</g>
</svg>
