<?xml version="1.0" encoding="UTF-8" standalone="no"?>
<!DOCTYPE svg PUBLIC "-//W3C//DTD SVG 1.1//EN"
 "http://www.w3.org/Graphics/SVG/1.1/DTD/svg11.dtd">
<!-- Generated by graphviz version 7.1.0 (0)
 -->
<!-- Title: Metaprogramming Pages: 1 -->
<svg width="332pt" height="36pt"
 viewBox="0.00 0.00 332.00 36.00" xmlns="http://www.w3.org/2000/svg" xmlns:xlink="http://www.w3.org/1999/xlink">
<g id="graph0" class="graph" transform="scale(1 1) rotate(0) translate(4 32)">
<title>Metaprogramming</title>
<!-- Node1 -->
<g id="Node000001" class="node">
<title>Node1</title>
<g id="a_Node000001"><a xlink:title=" ">
<polygon fill="#999999" stroke="#666666" points="187,-23 86,-23 86,-5 187,-5 187,-23"/>
<text text-anchor="middle" x="136.5" y="-11.8" font-family="Helvetica,sans-Serif" font-size="9.00">Metaprogramming</text>
</a>
</g>
</g>
<!-- Node3 -->
<g id="Node000003" class="node">
<title>Node3</title>
<g id="a_Node000003"><a xlink:href="a01594.html" target="_top" xlink:title=" ">
<polygon fill="white" stroke="#666666" points="324,-28 223,-28 223,0 324,0 324,-28"/>
<text text-anchor="start" x="231" y="-16.8" font-family="Helvetica,sans-Serif" font-size="9.00">Variable templates</text>
<text text-anchor="middle" x="273.5" y="-6.8" font-family="Helvetica,sans-Serif" font-size="9.00"> for type traits</text>
</a>
</g>
</g>
<!-- Node1&#45;&gt;Node3 -->
<g id="edge2" class="edge">
<title>Node1&#45;&gt;Node3</title>
<path fill="none" stroke="black" d="M198.68,-14C206.76,-14 214.96,-14 222.82,-14"/>
<polygon fill="black" stroke="black" points="198.9,-10.5 188.9,-14 198.9,-17.5 198.9,-10.5"/>
</g>
<!-- Node2 -->
<g id="Node000002" class="node">
<title>Node2</title>
<g id="a_Node000002"><a xlink:href="a01595.html" target="_top" xlink:title=" ">
<polygon fill="white" stroke="#666666" points="50,-23 0,-23 0,-5 50,-5 50,-23"/>
<text text-anchor="middle" x="25" y="-11.8" font-family="Helvetica,sans-Serif" font-size="9.00">Utilities</text>
</a>
</g>
</g>
<!-- Node2&#45;&gt;Node1 -->
<g id="edge1" class="edge">
<title>Node2&#45;&gt;Node1</title>
<path fill="none" stroke="black" d="M61.76,-14C69.41,-14 77.62,-14 85.69,-14"/>
<polygon fill="black" stroke="black" points="61.82,-10.5 51.82,-14 61.82,-17.5 61.82,-10.5"/>
</g>
</g>
</svg>
