<?xml version="1.0" encoding="UTF-8" standalone="no"?>
<!DOCTYPE svg PUBLIC "-//W3C//DTD SVG 1.1//EN"
 "http://www.w3.org/Graphics/SVG/1.1/DTD/svg11.dtd">
<!-- Generated by graphviz version 7.1.0 (0)
 -->
<!-- Title: Utilities Pages: 1 -->
<svg width="310pt" height="278pt"
 viewBox="0.00 0.00 310.00 278.00" xmlns="http://www.w3.org/2000/svg" xmlns:xlink="http://www.w3.org/1999/xlink">

<svg id="main" version="1.1" xmlns="http://www.w3.org/2000/svg" xmlns:xlink="http://www.w3.org/1999/xlink" xml:space="preserve" onload="init(evt)">
<style type="text/css"><![CDATA[
.node, .edge {opacity: 0.7;}
.node.selected, .edge.selected {opacity: 1;}
.edge:hover path { stroke: red; }
.edge:hover polygon { stroke: red; fill: red; }
]]></style>
<script xlink:href="svg.min.js"/>
<svg id="graph" class="graph">
<g id="graph0" class="graph" transform="scale(1 1) rotate(0) translate(4 274)">
<title>Utilities</title>
<!-- Node7 -->
<g id="Node000007" class="node">
<title>Node7</title>
<g id="a_Node000007"><a xlink:href="a01577.html" target="_top" xlink:title=" ">
<polygon fill="white" stroke="#666666" points="269.5,-270 231.5,-270 231.5,-252 269.5,-252 269.5,-270"/>
<text text-anchor="middle" x="250.5" y="-258.8" font-family="Helvetica,sans-Serif" font-size="9.00">Time</text>
</a>
</g>
</g>
<!-- Node2 -->
<g id="Node000002" class="node">
<title>Node2</title>
<g id="a_Node000002"><a xlink:href="a01579.html" target="_top" xlink:title=" ">
<polygon fill="white" stroke="#666666" points="280,-234 221,-234 221,-216 280,-216 280,-234"/>
<text text-anchor="middle" x="250.5" y="-222.8" font-family="Helvetica,sans-Serif" font-size="9.00">Concepts</text>
</a>
</g>
</g>
<!-- Node9 -->
<g id="Node000009" class="node">
<title>Node9</title>
<g id="a_Node000009"><a xlink:href="a01604.html" target="_top" xlink:title=" ">
<polygon fill="white" stroke="#666666" points="283,-198 218,-198 218,-180 283,-180 283,-198"/>
<text text-anchor="middle" x="250.5" y="-186.8" font-family="Helvetica,sans-Serif" font-size="9.00">Exceptions</text>
</a>
</g>
</g>
<!-- Node3 -->
<g id="Node000003" class="node">
<title>Node3</title>
<g id="a_Node000003"><a xlink:href="a01614.html" target="_top" xlink:title=" ">
<polygon fill="white" stroke="#666666" points="296.5,-162 204.5,-162 204.5,-144 296.5,-144 296.5,-162"/>
<text text-anchor="middle" x="250.5" y="-150.8" font-family="Helvetica,sans-Serif" font-size="9.00">Function Objects</text>
</a>
</g>
</g>
<!-- Node4 -->
<g id="Node000004" class="node">
<title>Node4</title>
<g id="a_Node000004"><a xlink:href="a01584.html" target="_top" xlink:title=" ">
<polygon fill="white" stroke="#666666" points="277,-126 224,-126 224,-108 277,-108 277,-126"/>
<text text-anchor="middle" x="250.5" y="-114.8" font-family="Helvetica,sans-Serif" font-size="9.00">Memory</text>
</a>
</g>
</g>
<!-- Node5 -->
<g id="Node000005" class="node">
<title>Node5</title>
<g id="a_Node000005"><a xlink:href="a01593.html" target="_top" xlink:title=" ">
<polygon fill="white" stroke="#666666" points="301,-90 200,-90 200,-72 301,-72 301,-90"/>
<text text-anchor="middle" x="250.5" y="-78.8" font-family="Helvetica,sans-Serif" font-size="9.00">Metaprogramming</text>
</a>
</g>
</g>
<!-- Node6 -->
<g id="Node000006" class="node">
<title>Node6</title>
<g id="a_Node000006"><a xlink:href="a01591.html" target="_top" xlink:title=" ">
<polygon fill="white" stroke="#666666" points="302,-54 199,-54 199,-36 302,-36 302,-54"/>
<text text-anchor="middle" x="250.5" y="-42.8" font-family="Helvetica,sans-Serif" font-size="9.00">Rational Arithmetic</text>
</a>
</g>
</g>
<!-- Node8 -->
<g id="Node000008" class="node">
<title>Node8</title>
<g id="a_Node000008"><a xlink:href="a01570.html" target="_top" xlink:title=" ">
<polygon fill="white" stroke="#666666" points="283.5,-18 217.5,-18 217.5,0 283.5,0 283.5,-18"/>
<text text-anchor="middle" x="250.5" y="-6.8" font-family="Helvetica,sans-Serif" font-size="9.00">Sequences</text>
</a>
</g>
</g>
<!-- Node1 -->
<g id="Node000001" class="node">
<title>Node1</title>
<g id="a_Node000001"><a xlink:title=" ">
<polygon fill="#999999" stroke="#666666" points="50,-144 0,-144 0,-126 50,-126 50,-144"/>
<text text-anchor="middle" x="25" y="-132.8" font-family="Helvetica,sans-Serif" font-size="9.00">Utilities</text>
</a>
</g>
</g>
<!-- Node1&#45;&gt;Node7 -->
<g id="edge6" class="edge">
<title>Node1&#45;&gt;Node7</title>
<path fill="none" stroke="black" d="M29.13,-155.6C33.65,-177.83 44.24,-212.52 68,-231 116.78,-268.94 195.51,-266.67 231.05,-263.29"/>
<polygon fill="black" stroke="black" points="32.61,-155.17 27.42,-145.93 25.72,-156.39 32.61,-155.17"/>
</g>
<!-- Node1&#45;&gt;Node2 -->
<g id="edge1" class="edge">
<title>Node1&#45;&gt;Node2</title>
<path fill="none" stroke="black" d="M32.37,-154.45C38.72,-170.54 50.13,-192.56 68,-204 114.75,-233.94 182.4,-232.76 220.53,-229.01"/>
<polygon fill="black" stroke="black" points="35.8,-153.66 29.13,-145.43 29.21,-156.03 35.8,-153.66"/>
</g>
<!-- Node1&#45;&gt;Node9 -->
<g id="edge8" class="edge">
<title>Node1&#45;&gt;Node9</title>
<path fill="none" stroke="orange" stroke-dasharray="5,2" d="M41.9,-144.29C49.56,-148.42 59.03,-153.01 68,-156 118.89,-172.96 180.89,-181.86 217.67,-185.98"/>
<text text-anchor="middle" x="124.5" y="-192.8" font-family="Helvetica,sans-Serif" font-size="9.00">std::bad_any_cast</text>
<text text-anchor="middle" x="124.5" y="-182.8" font-family="Helvetica,sans-Serif" font-size="9.00">std::bad_optional_access</text>
</g>
<!-- Node1&#45;&gt;Node3 -->
<g id="edge2" class="edge">
<title>Node1&#45;&gt;Node3</title>
<path fill="none" stroke="black" d="M61.81,-137.88C100.53,-141 162.33,-145.98 204.35,-149.36"/>
<polygon fill="black" stroke="black" points="62.1,-134.4 51.85,-137.08 61.54,-141.37 62.1,-134.4"/>
</g>
<!-- Node1&#45;&gt;Node4 -->
<g id="edge3" class="edge">
<title>Node1&#45;&gt;Node4</title>
<path fill="none" stroke="black" d="M61.67,-132.13C106.94,-128.48 183.91,-122.28 223.81,-119.07"/>
<polygon fill="black" stroke="black" points="61.54,-128.63 51.85,-132.92 62.1,-135.6 61.54,-128.63"/>
</g>
<!-- Node1&#45;&gt;Node5 -->
<g id="edge4" class="edge">
<title>Node1&#45;&gt;Node5</title>
<path fill="none" stroke="black" d="M57.76,-121.44C61.18,-120.19 64.64,-119.01 68,-118 111.72,-104.82 162.78,-94.87 199.59,-88.63"/>
<polygon fill="black" stroke="black" points="56.56,-118.15 48.51,-125.03 59.09,-124.67 56.56,-118.15"/>
</g>
<!-- Node1&#45;&gt;Node6 -->
<g id="edge5" class="edge">
<title>Node1&#45;&gt;Node6</title>
<path fill="none" stroke="black" d="M38.06,-116.76C45.55,-106.82 56.01,-95.14 68,-88 108.07,-64.14 160.49,-53.52 198.68,-48.79"/>
<polygon fill="black" stroke="black" points="35.41,-114.45 32.5,-124.64 41.12,-118.49 35.41,-114.45"/>
</g>
<!-- Node1&#45;&gt;Node8 -->
<g id="edge7" class="edge">
<title>Node1&#45;&gt;Node8</title>
<path fill="none" stroke="orange" stroke-dasharray="5,2" d="M27.07,-125.75C29.87,-106.12 39.3,-60.29 68,-38 111.1,-4.53 177.6,-2.84 217.01,-5.4"/>
<text text-anchor="middle" x="124.5" y="-40.8" font-family="Helvetica,sans-Serif" font-size="9.00">std::array</text>
</g>
</g>
</svg>

<style type='text/css'>
<![CDATA[
[data-mouse-over-selected='false'] { opacity: 0.7; }
[data-mouse-over-selected='true']  { opacity: 1.0; }
]]>
</style>
<script><![CDATA[
document.addEventListener('DOMContentLoaded', (event) => {
  highlightEdges();
  highlightAdjacentNodes();
});
]]></script>
</svg>
