<?xml version="1.0" encoding="UTF-8" standalone="no"?>
<!DOCTYPE svg PUBLIC "-//W3C//DTD SVG 1.1//EN"
 "http://www.w3.org/Graphics/SVG/1.1/DTD/svg11.dtd">
<!-- Generated by graphviz version 7.1.0 (0)
 -->
<!-- Title: Numerics Pages: 1 -->
<svg width="249pt" height="308pt"
 viewBox="0.00 0.00 249.00 308.00" xmlns="http://www.w3.org/2000/svg" xmlns:xlink="http://www.w3.org/1999/xlink">

<svg id="main" version="1.1" xmlns="http://www.w3.org/2000/svg" xmlns:xlink="http://www.w3.org/1999/xlink" xml:space="preserve" onload="init(evt)">
<style type="text/css"><![CDATA[
.node, .edge {opacity: 0.7;}
.node.selected, .edge.selected {opacity: 1;}
.edge:hover path { stroke: red; }
.edge:hover polygon { stroke: red; fill: red; }
]]></style>
<script xlink:href="svg.min.js"/>
<svg id="graph" class="graph">
<g id="graph0" class="graph" transform="scale(1 1) rotate(0) translate(4 304)">
<title>Numerics</title>
<!-- Node2 -->
<g id="Node000002" class="node">
<title>Node2</title>
<g id="a_Node000002"><a xlink:href="a01576.html" target="_top" xlink:title=" ">
<polygon fill="white" stroke="#666666" points="213.5,-300 122.5,-300 122.5,-282 213.5,-282 213.5,-300"/>
<text text-anchor="middle" x="168" y="-288.8" font-family="Helvetica,sans-Serif" font-size="9.00">Bit manipulation</text>
</a>
</g>
</g>
<!-- Node3 -->
<g id="Node000003" class="node">
<title>Node3</title>
<g id="a_Node000003"><a xlink:href="a01578.html" target="_top" xlink:title=" ">
<polygon fill="white" stroke="#666666" points="218,-264 118,-264 118,-246 218,-246 218,-264"/>
<text text-anchor="middle" x="168" y="-252.8" font-family="Helvetica,sans-Serif" font-size="9.00">Complex Numbers</text>
</a>
</g>
</g>
<!-- Node4 -->
<g id="Node000004" class="node">
<title>Node4</title>
<g id="a_Node000004"><a xlink:href="a01629.html" target="_top" xlink:title=" ">
<polygon fill="white" stroke="#666666" points="226.5,-228 109.5,-228 109.5,-200 226.5,-200 226.5,-228"/>
<text text-anchor="start" x="117.5" y="-216.8" font-family="Helvetica,sans-Serif" font-size="9.00">Decimal Floating&#45;Point</text>
<text text-anchor="middle" x="168" y="-206.8" font-family="Helvetica,sans-Serif" font-size="9.00"> Arithmetic</text>
</a>
</g>
</g>
<!-- Node6 -->
<g id="Node000006" class="node">
<title>Node6</title>
<g id="a_Node000006"><a xlink:href="a01589.html" target="_top" xlink:title=" ">
<polygon fill="white" stroke="#666666" points="230.5,-182 105.5,-182 105.5,-164 230.5,-164 230.5,-182"/>
<text text-anchor="middle" x="168" y="-170.8" font-family="Helvetica,sans-Serif" font-size="9.00">Mathematical constants</text>
</a>
</g>
</g>
<!-- Node5 -->
<g id="Node000005" class="node">
<title>Node5</title>
<g id="a_Node000005"><a xlink:href="a01612.html" target="_top" xlink:title=" ">
<polygon fill="white" stroke="#666666" points="224.5,-146 111.5,-146 111.5,-118 224.5,-118 224.5,-146"/>
<text text-anchor="start" x="119.5" y="-134.8" font-family="Helvetica,sans-Serif" font-size="9.00">Mathematical Special</text>
<text text-anchor="middle" x="168" y="-124.8" font-family="Helvetica,sans-Serif" font-size="9.00"> Functions</text>
</a>
</g>
</g>
<!-- Node7 -->
<g id="Node000007" class="node">
<title>Node7</title>
<g id="a_Node000007"><a xlink:href="a01596.html" target="_top" xlink:title=" ">
<polygon fill="white" stroke="#666666" points="211,-100 125,-100 125,-82 211,-82 211,-100"/>
<text text-anchor="middle" x="168" y="-88.8" font-family="Helvetica,sans-Serif" font-size="9.00">Numeric Arrays</text>
</a>
</g>
</g>
<!-- Node1 -->
<g id="Node000001" class="node">
<title>Node1</title>
<g id="a_Node000001"><a xlink:title=" ">
<polygon fill="#999999" stroke="#666666" points="59,-161 0,-161 0,-143 59,-143 59,-161"/>
<text text-anchor="middle" x="29.5" y="-149.8" font-family="Helvetica,sans-Serif" font-size="9.00">Numerics</text>
</a>
</g>
</g>
<!-- Node1&#45;&gt;Node2 -->
<g id="edge1" class="edge">
<title>Node1&#45;&gt;Node2</title>
<path fill="none" stroke="black" d="M35.66,-172.09C43.69,-199.2 61.81,-247.08 95,-273 102.82,-279.11 112.45,-283.17 122.09,-285.86"/>
<polygon fill="black" stroke="black" points="39.11,-171.41 33.07,-162.71 32.36,-173.28 39.11,-171.41"/>
</g>
<!-- Node1&#45;&gt;Node3 -->
<g id="edge2" class="edge">
<title>Node1&#45;&gt;Node3</title>
<path fill="none" stroke="black" d="M40.2,-171.52C50.93,-191.07 70.06,-220.54 95,-237 101.88,-241.54 109.82,-244.94 117.86,-247.48"/>
<polygon fill="black" stroke="black" points="43.31,-169.91 35.58,-162.67 37.11,-173.16 43.31,-169.91"/>
</g>
<!-- Node1&#45;&gt;Node4 -->
<g id="edge3" class="edge">
<title>Node1&#45;&gt;Node4</title>
<path fill="none" stroke="black" d="M53.11,-167.47C65.17,-175.25 80.48,-184.4 95,-191 101.81,-194.09 109.16,-196.95 116.46,-199.52"/>
<polygon fill="black" stroke="black" points="55.37,-164.76 45.09,-162.17 51.51,-170.6 55.37,-164.76"/>
</g>
<!-- Node1&#45;&gt;Node6 -->
<g id="edge5" class="edge">
<title>Node1&#45;&gt;Node6</title>
<path fill="none" stroke="black" d="M70.76,-158.19C81.67,-159.87 93.73,-161.73 105.51,-163.54"/>
<polygon fill="black" stroke="black" points="71.36,-154.75 60.94,-156.68 70.3,-161.66 71.36,-154.75"/>
</g>
<!-- Node1&#45;&gt;Node5 -->
<g id="edge4" class="edge">
<title>Node1&#45;&gt;Node5</title>
<path fill="none" stroke="black" d="M70.58,-146.13C83.26,-144.27 97.51,-142.18 111.09,-140.19"/>
<polygon fill="black" stroke="black" points="70.33,-142.63 60.95,-147.54 71.35,-149.55 70.33,-142.63"/>
</g>
<!-- Node1&#45;&gt;Node7 -->
<g id="edge6" class="edge">
<title>Node1&#45;&gt;Node7</title>
<path fill="none" stroke="black" d="M50.53,-136.02C62.77,-126.96 79.07,-116.05 95,-109 104.31,-104.88 114.73,-101.59 124.69,-99.01"/>
<polygon fill="black" stroke="black" points="48.7,-133.02 42.89,-141.87 52.96,-138.58 48.7,-133.02"/>
</g>
<!-- Node8 -->
<g id="Node000008" class="node">
<title>Node8</title>
<g id="a_Node000008"><a xlink:href="a01609.html" target="_top" xlink:title=" ">
<polygon fill="white" stroke="#666666" points="241,-64 95,-64 95,-46 241,-46 241,-64"/>
<text text-anchor="middle" x="168" y="-52.8" font-family="Helvetica,sans-Serif" font-size="9.00">Random Number Generation</text>
</a>
</g>
</g>
<!-- Node1&#45;&gt;Node8 -->
<g id="edge7" class="edge">
<title>Node1&#45;&gt;Node8</title>
<path fill="none" stroke="black" d="M41.22,-132.75C52.33,-114.6 71.37,-88 95,-73 100.55,-69.48 106.74,-66.65 113.11,-64.37"/>
<polygon fill="black" stroke="black" points="38.28,-130.84 36.25,-141.24 44.32,-134.38 38.28,-130.84"/>
</g>
<!-- Node9 -->
<g id="Node000009" class="node">
<title>Node9</title>
<g id="a_Node000009"><a xlink:href="a01627.html" target="_top" xlink:title=" ">
<polygon fill="white" stroke="#666666" points="234.5,-28 101.5,-28 101.5,0 234.5,0 234.5,-28"/>
<text text-anchor="start" x="109.5" y="-16.8" font-family="Helvetica,sans-Serif" font-size="9.00">TR1 Mathematical Special</text>
<text text-anchor="middle" x="168" y="-6.8" font-family="Helvetica,sans-Serif" font-size="9.00"> Functions</text>
</a>
</g>
</g>
<!-- Node1&#45;&gt;Node9 -->
<g id="edge8" class="edge">
<title>Node1&#45;&gt;Node9</title>
<path fill="none" stroke="black" d="M36.56,-132.08C45.35,-106.45 64.07,-62.24 95,-37 99.07,-33.68 103.62,-30.84 108.41,-28.4"/>
<polygon fill="black" stroke="black" points="33.33,-130.68 33.58,-141.27 39.99,-132.83 33.33,-130.68"/>
</g>
</g>
</svg>

<style type='text/css'>
<![CDATA[
[data-mouse-over-selected='false'] { opacity: 0.7; }
[data-mouse-over-selected='true']  { opacity: 1.0; }
]]>
</style>
<script><![CDATA[
document.addEventListener('DOMContentLoaded', (event) => {
  highlightEdges();
  highlightAdjacentNodes();
});
]]></script>
</svg>
