<?xml version="1.0" encoding="UTF-8" standalone="no"?>
<!DOCTYPE svg PUBLIC "-//W3C//DTD SVG 1.1//EN"
 "http://www.w3.org/Graphics/SVG/1.1/DTD/svg11.dtd">
<!-- Generated by graphviz version 7.1.0 (0)
 -->
<!-- Title: Technical Specifications Pages: 1 -->
<svg width="296pt" height="98pt"
 viewBox="0.00 0.00 296.00 98.00" xmlns="http://www.w3.org/2000/svg" xmlns:xlink="http://www.w3.org/1999/xlink">

<svg id="main" version="1.1" xmlns="http://www.w3.org/2000/svg" xmlns:xlink="http://www.w3.org/1999/xlink" xml:space="preserve" onload="init(evt)">
<style type="text/css"><![CDATA[
.node, .edge {opacity: 0.7;}
.node.selected, .edge.selected {opacity: 1;}
.edge:hover path { stroke: red; }
.edge:hover polygon { stroke: red; fill: red; }
]]></style>
<script xlink:href="svg.min.js"/>
<svg id="graph" class="graph">
<g id="graph0" class="graph" transform="scale(1 1) rotate(0) translate(4 94)">
<title>Technical Specifications</title>
<!-- Node1 -->
<g id="Node000001" class="node">
<title>Node1</title>
<g id="a_Node000001"><a xlink:title=" ">
<polygon fill="#999999" stroke="#666666" points="123,-54 0,-54 0,-36 123,-36 123,-54"/>
<text text-anchor="middle" x="61.5" y="-42.8" font-family="Helvetica,sans-Serif" font-size="9.00">Technical Specifications</text>
</a>
</g>
</g>
<!-- Node2 -->
<g id="Node000002" class="node">
<title>Node2</title>
<g id="a_Node000002"><a xlink:href="a01630.html" target="_top" xlink:title=" ">
<polygon fill="white" stroke="#666666" points="262,-90 185,-90 185,-72 262,-72 262,-90"/>
<text text-anchor="middle" x="223.5" y="-78.8" font-family="Helvetica,sans-Serif" font-size="9.00">Filesystem TS</text>
</a>
</g>
</g>
<!-- Node1&#45;&gt;Node2 -->
<g id="edge1" class="edge">
<title>Node1&#45;&gt;Node2</title>
<path fill="none" stroke="black" d="M115.65,-56.96C138.21,-62.03 163.99,-67.83 184.57,-72.47"/>
<polygon fill="black" stroke="black" points="116.54,-53.57 106.01,-54.79 115,-60.4 116.54,-53.57"/>
</g>
<!-- Node3 -->
<g id="Node000003" class="node">
<title>Node3</title>
<g id="a_Node000003"><a xlink:href="a01631.html" target="_top" xlink:title=" ">
<polygon fill="white" stroke="#666666" points="288,-54 159,-54 159,-36 288,-36 288,-54"/>
<text text-anchor="middle" x="223.5" y="-42.8" font-family="Helvetica,sans-Serif" font-size="9.00">Library Fundamentals TS</text>
</a>
</g>
</g>
<!-- Node1&#45;&gt;Node3 -->
<g id="edge2" class="edge">
<title>Node1&#45;&gt;Node3</title>
<path fill="none" stroke="black" d="M134.89,-45C142.77,-45 150.76,-45 158.53,-45"/>
<polygon fill="black" stroke="black" points="134.96,-41.5 124.96,-45 134.96,-48.5 134.96,-41.5"/>
</g>
<!-- Node4 -->
<g id="Node000004" class="node">
<title>Node4</title>
<g id="a_Node000004"><a xlink:href="a01636.html" target="_top" xlink:title=" ">
<polygon fill="white" stroke="#666666" points="262.5,-18 184.5,-18 184.5,0 262.5,0 262.5,-18"/>
<text text-anchor="middle" x="223.5" y="-6.8" font-family="Helvetica,sans-Serif" font-size="9.00">Parallelism TS</text>
</a>
</g>
</g>
<!-- Node1&#45;&gt;Node4 -->
<g id="edge3" class="edge">
<title>Node1&#45;&gt;Node4</title>
<path fill="none" stroke="black" d="M115.57,-33.06C137.95,-28.02 163.51,-22.27 184.03,-17.66"/>
<polygon fill="black" stroke="black" points="115,-29.6 106.01,-35.21 116.54,-36.43 115,-29.6"/>
</g>
</g>
</svg>

<style type='text/css'>
<![CDATA[
[data-mouse-over-selected='false'] { opacity: 0.7; }
[data-mouse-over-selected='true']  { opacity: 1.0; }
]]>
</style>
<script><![CDATA[
document.addEventListener('DOMContentLoaded', (event) => {
  highlightEdges();
  highlightAdjacentNodes();
});
]]></script>
</svg>
