<?xml version="1.0" encoding="UTF-8" standalone="no"?>
<!DOCTYPE svg PUBLIC "-//W3C//DTD SVG 1.1//EN"
 "http://www.w3.org/Graphics/SVG/1.1/DTD/svg11.dtd">
<!-- Generated by graphviz version 7.1.0 (0)
 -->
<!-- Title: Extensions Pages: 1 -->
<svg width="256pt" height="98pt"
 viewBox="0.00 0.00 256.00 98.00" xmlns="http://www.w3.org/2000/svg" xmlns:xlink="http://www.w3.org/1999/xlink">

<svg id="main" version="1.1" xmlns="http://www.w3.org/2000/svg" xmlns:xlink="http://www.w3.org/1999/xlink" xml:space="preserve" onload="init(evt)">
<style type="text/css"><![CDATA[
.node, .edge {opacity: 0.7;}
.node.selected, .edge.selected {opacity: 1;}
.edge:hover path { stroke: red; }
.edge:hover polygon { stroke: red; fill: red; }
]]></style>
<script xlink:href="svg.min.js"/>
<svg id="graph" class="graph">
<g id="graph0" class="graph" transform="scale(1 1) rotate(0) translate(4 94)">
<title>Extensions</title>
<!-- Node4 -->
<g id="Node000004" class="node">
<title>Node4</title>
<g id="a_Node000004"><a xlink:href="a01568.html" target="_top" xlink:title=" ">
<polygon fill="white" stroke="#666666" points="190.5,-90 158.5,-90 158.5,-72 190.5,-72 190.5,-90"/>
<text text-anchor="middle" x="174.5" y="-78.8" font-family="Helvetica,sans-Serif" font-size="9.00">SGI</text>
</a>
</g>
</g>
<!-- Node2 -->
<g id="Node000002" class="node">
<title>Node2</title>
<g id="a_Node000002"><a xlink:href="a01628.html" target="_top" xlink:title=" ">
<polygon fill="white" stroke="#666666" points="218.5,-54 130.5,-54 130.5,-36 218.5,-36 218.5,-54"/>
<text text-anchor="middle" x="174.5" y="-42.8" font-family="Helvetica,sans-Serif" font-size="9.00">Dynamic Bitset.</text>
</a>
</g>
</g>
<!-- Node1 -->
<g id="Node000001" class="node">
<title>Node1</title>
<g id="a_Node000001"><a xlink:title=" ">
<polygon fill="#999999" stroke="#666666" points="65,-54 0,-54 0,-36 65,-36 65,-54"/>
<text text-anchor="middle" x="32.5" y="-42.8" font-family="Helvetica,sans-Serif" font-size="9.00">Extensions</text>
</a>
</g>
</g>
<!-- Node1&#45;&gt;Node4 -->
<g id="edge3" class="edge">
<title>Node1&#45;&gt;Node4</title>
<path fill="none" stroke="black" d="M76.3,-56.53C84.49,-58.71 93.01,-60.94 101,-63 120.72,-68.08 143.52,-73.7 158.21,-77.28"/>
<polygon fill="black" stroke="black" points="77.43,-53.21 66.87,-54.02 75.63,-59.98 77.43,-53.21"/>
</g>
<!-- Node1&#45;&gt;Node2 -->
<g id="edge1" class="edge">
<title>Node1&#45;&gt;Node2</title>
<path fill="none" stroke="black" d="M76.59,-45C93.61,-45 113.14,-45 130.18,-45"/>
<polygon fill="black" stroke="black" points="76.78,-41.5 66.78,-45 76.78,-48.5 76.78,-41.5"/>
</g>
<!-- Node3 -->
<g id="Node000003" class="node">
<title>Node3</title>
<g id="a_Node000003"><a xlink:href="a01650.html" target="_top" xlink:title=" ">
<polygon fill="white" stroke="#666666" points="248,-18 101,-18 101,0 248,0 248,-18"/>
<text text-anchor="middle" x="174.5" y="-6.8" font-family="Helvetica,sans-Serif" font-size="9.00">Policy&#45;Based Data Structures</text>
</a>
</g>
</g>
<!-- Node1&#45;&gt;Node3 -->
<g id="edge2" class="edge">
<title>Node1&#45;&gt;Node3</title>
<path fill="none" stroke="black" d="M76.3,-33.47C84.49,-31.29 93.01,-29.06 101,-27 111.93,-24.19 123.8,-21.21 134.71,-18.5"/>
<polygon fill="black" stroke="black" points="75.63,-30.02 66.87,-35.98 77.43,-36.79 75.63,-30.02"/>
</g>
</g>
</svg>

<style type='text/css'>
<![CDATA[
[data-mouse-over-selected='false'] { opacity: 0.7; }
[data-mouse-over-selected='true']  { opacity: 1.0; }
]]>
</style>
<script><![CDATA[
document.addEventListener('DOMContentLoaded', (event) => {
  highlightEdges();
  highlightAdjacentNodes();
});
]]></script>
</svg>
