<?xml version="1.0" encoding="UTF-8" standalone="no"?>
<!DOCTYPE svg PUBLIC "-//W3C//DTD SVG 1.1//EN"
 "http://www.w3.org/Graphics/SVG/1.1/DTD/svg11.dtd">
<!-- Generated by graphviz version 7.1.0 (0)
 -->
<!-- Title: Algorithms Pages: 1 -->
<svg width="219pt" height="144pt"
 viewBox="0.00 0.00 219.00 144.00" xmlns="http://www.w3.org/2000/svg" xmlns:xlink="http://www.w3.org/1999/xlink">
<g id="graph0" class="graph" transform="scale(1 1) rotate(0) translate(4 140)">
<title>Algorithms</title>
<!-- Node1 -->
<g id="Node000001" class="node">
<title>Node1</title>
<g id="a_Node000001"><a xlink:title=" ">
<polygon fill="#999999" stroke="#666666" points="65,-79 0,-79 0,-61 65,-61 65,-79"/>
<text text-anchor="middle" x="32.5" y="-67.8" font-family="Helvetica,sans-Serif" font-size="9.00">Algorithms</text>
</a>
</g>
</g>
<!-- Node3 -->
<g id="Node000003" class="node">
<title>Node3</title>
<g id="a_Node000003"><a xlink:href="a01598.html" target="_top" xlink:title=" ">
<polygon fill="white" stroke="#666666" points="184.5,-136 127.5,-136 127.5,-118 184.5,-118 184.5,-136"/>
<text text-anchor="middle" x="156" y="-124.8" font-family="Helvetica,sans-Serif" font-size="9.00">Mutating</text>
</a>
</g>
</g>
<!-- Node1&#45;&gt;Node3 -->
<g id="edge2" class="edge">
<title>Node1&#45;&gt;Node3</title>
<path fill="none" stroke="black" d="M57.53,-85.47C70.14,-93.19 86.05,-102.27 101,-109 109.29,-112.73 118.6,-116.1 127.12,-118.9"/>
<polygon fill="black" stroke="black" points="59.42,-82.53 49.08,-80.2 55.71,-88.47 59.42,-82.53"/>
</g>
<!-- Node4 -->
<g id="Node000004" class="node">
<title>Node4</title>
<g id="a_Node000004"><a xlink:href="a01599.html" target="_top" xlink:title=" ">
<polygon fill="white" stroke="#666666" points="195,-100 117,-100 117,-82 195,-82 195,-100"/>
<text text-anchor="middle" x="156" y="-88.8" font-family="Helvetica,sans-Serif" font-size="9.00">Non&#45;Mutating</text>
</a>
</g>
</g>
<!-- Node1&#45;&gt;Node4 -->
<g id="edge3" class="edge">
<title>Node1&#45;&gt;Node4</title>
<path fill="none" stroke="black" d="M76.58,-77.45C89.7,-79.71 104.03,-82.19 116.81,-84.4"/>
<polygon fill="black" stroke="black" points="77.36,-74.03 66.91,-75.78 76.17,-80.93 77.36,-74.03"/>
</g>
<!-- Node2 -->
<g id="Node000002" class="node">
<title>Node2</title>
<g id="a_Node000002"><a xlink:href="a01624.html" target="_top" xlink:title=" ">
<polygon fill="white" stroke="#666666" points="211,-64 101,-64 101,-36 211,-36 211,-64"/>
<text text-anchor="start" x="109" y="-52.8" font-family="Helvetica,sans-Serif" font-size="9.00">Generalized Numeric</text>
<text text-anchor="middle" x="156" y="-42.8" font-family="Helvetica,sans-Serif" font-size="9.00"> operations</text>
</a>
</g>
</g>
<!-- Node1&#45;&gt;Node2 -->
<g id="edge1" class="edge">
<title>Node1&#45;&gt;Node2</title>
<path fill="none" stroke="black" d="M76.53,-62.92C84.36,-61.63 92.63,-60.27 100.74,-58.93"/>
<polygon fill="black" stroke="black" points="76.21,-59.42 66.92,-64.5 77.35,-66.33 76.21,-59.42"/>
</g>
<!-- Node5 -->
<g id="Node000005" class="node">
<title>Node5</title>
<g id="a_Node000005"><a xlink:href="a01600.html" target="_top" xlink:title=" ">
<polygon fill="white" stroke="#666666" points="181,-18 131,-18 131,0 181,0 181,-18"/>
<text text-anchor="middle" x="156" y="-6.8" font-family="Helvetica,sans-Serif" font-size="9.00">Sorting</text>
</a>
</g>
</g>
<!-- Node1&#45;&gt;Node5 -->
<g id="edge4" class="edge">
<title>Node1&#45;&gt;Node5</title>
<path fill="none" stroke="black" d="M55.26,-54.2C68.11,-45.37 84.96,-34.64 101,-27 110.37,-22.54 121.14,-18.71 130.58,-15.74"/>
<polygon fill="black" stroke="black" points="53.31,-51.3 47.14,-59.91 57.33,-57.02 53.31,-51.3"/>
</g>
</g>
</svg>
