<?xml version="1.0" encoding="UTF-8" standalone="no"?>
<!DOCTYPE svg PUBLIC "-//W3C//DTD SVG 1.1//EN"
 "http://www.w3.org/Graphics/SVG/1.1/DTD/svg11.dtd">
<!-- Generated by graphviz version 7.1.0 (0)
 -->
<!-- Title: Concurrency Pages: 1 -->
<svg width="221pt" height="134pt"
 viewBox="0.00 0.00 221.00 134.00" xmlns="http://www.w3.org/2000/svg" xmlns:xlink="http://www.w3.org/1999/xlink">

<svg id="main" version="1.1" xmlns="http://www.w3.org/2000/svg" xmlns:xlink="http://www.w3.org/1999/xlink" xml:space="preserve" onload="init(evt)">
<style type="text/css"><![CDATA[
.node, .edge {opacity: 0.7;}
.node.selected, .edge.selected {opacity: 1;}
.edge:hover path { stroke: red; }
.edge:hover polygon { stroke: red; fill: red; }
]]></style>
<script xlink:href="svg.min.js"/>
<svg id="graph" class="graph">
<g id="graph0" class="graph" transform="scale(1 1) rotate(0) translate(4 130)">
<title>Concurrency</title>
<!-- Node1 -->
<g id="Node000001" class="node">
<title>Node1</title>
<g id="a_Node000001"><a xlink:title=" ">
<polygon fill="#999999" stroke="#666666" points="74,-72 0,-72 0,-54 74,-54 74,-72"/>
<text text-anchor="middle" x="37" y="-60.8" font-family="Helvetica,sans-Serif" font-size="9.00">Concurrency</text>
</a>
</g>
</g>
<!-- Node2 -->
<g id="Node000002" class="node">
<title>Node2</title>
<g id="a_Node000002"><a xlink:href="a01580.html" target="_top" xlink:title=" ">
<polygon fill="white" stroke="#666666" points="213,-126 110,-126 110,-108 213,-108 213,-126"/>
<text text-anchor="middle" x="161.5" y="-114.8" font-family="Helvetica,sans-Serif" font-size="9.00">Condition Variables</text>
</a>
</g>
</g>
<!-- Node1&#45;&gt;Node2 -->
<g id="edge1" class="edge">
<title>Node1&#45;&gt;Node2</title>
<path fill="none" stroke="black" d="M65.4,-77.68C78.69,-84.55 94.99,-92.6 110,-99 117.02,-101.99 124.73,-104.92 131.95,-107.51"/>
<polygon fill="black" stroke="black" points="67.3,-74.72 56.81,-73.19 64.05,-80.92 67.3,-74.72"/>
</g>
<!-- Node3 -->
<g id="Node000003" class="node">
<title>Node3</title>
<g id="a_Node000003"><a xlink:href="a01582.html" target="_top" xlink:title=" ">
<polygon fill="white" stroke="#666666" points="186.5,-90 136.5,-90 136.5,-72 186.5,-72 186.5,-90"/>
<text text-anchor="middle" x="161.5" y="-78.8" font-family="Helvetica,sans-Serif" font-size="9.00">Futures</text>
</a>
</g>
</g>
<!-- Node1&#45;&gt;Node3 -->
<g id="edge2" class="edge">
<title>Node1&#45;&gt;Node3</title>
<path fill="none" stroke="black" d="M85.49,-69.98C102.76,-72.52 121.57,-75.28 136.04,-77.41"/>
<polygon fill="black" stroke="black" points="86.32,-66.56 75.92,-68.57 85.3,-73.49 86.32,-66.56"/>
</g>
<!-- Node4 -->
<g id="Node000004" class="node">
<title>Node4</title>
<g id="a_Node000004"><a xlink:href="a01613.html" target="_top" xlink:title=" ">
<polygon fill="white" stroke="#666666" points="188.5,-54 134.5,-54 134.5,-36 188.5,-36 188.5,-54"/>
<text text-anchor="middle" x="161.5" y="-42.8" font-family="Helvetica,sans-Serif" font-size="9.00">Mutexes</text>
</a>
</g>
</g>
<!-- Node1&#45;&gt;Node4 -->
<g id="edge3" class="edge">
<title>Node1&#45;&gt;Node4</title>
<path fill="none" stroke="black" d="M85.56,-56.01C102.07,-53.59 119.97,-50.96 134.14,-48.87"/>
<polygon fill="black" stroke="black" points="85.3,-52.51 75.92,-57.43 86.32,-59.44 85.3,-52.51"/>
</g>
<!-- Node5 -->
<g id="Node000005" class="node">
<title>Node5</title>
<g id="a_Node000005"><a xlink:href="a01592.html" target="_top" xlink:title=" ">
<polygon fill="white" stroke="#666666" points="188,-18 135,-18 135,0 188,0 188,-18"/>
<text text-anchor="middle" x="161.5" y="-6.8" font-family="Helvetica,sans-Serif" font-size="9.00">Threads</text>
</a>
</g>
</g>
<!-- Node1&#45;&gt;Node5 -->
<g id="edge4" class="edge">
<title>Node1&#45;&gt;Node5</title>
<path fill="none" stroke="black" d="M65.4,-48.32C78.69,-41.45 94.99,-33.4 110,-27 117.88,-23.64 126.61,-20.37 134.58,-17.56"/>
<polygon fill="black" stroke="black" points="64.05,-45.08 56.81,-52.81 67.3,-51.28 64.05,-45.08"/>
</g>
</g>
</svg>

<style type='text/css'>
<![CDATA[
[data-mouse-over-selected='false'] { opacity: 0.7; }
[data-mouse-over-selected='true']  { opacity: 1.0; }
]]>
</style>
<script><![CDATA[
document.addEventListener('DOMContentLoaded', (event) => {
  highlightEdges();
  highlightAdjacentNodes();
});
]]></script>
</svg>
