<?xml version="1.0" encoding="UTF-8" standalone="no"?>
<!DOCTYPE svg PUBLIC "-//W3C//DTD SVG 1.1//EN"
 "http://www.w3.org/Graphics/SVG/1.1/DTD/svg11.dtd">
<!-- Generated by graphviz version 7.1.0 (0)
 -->
<!-- Title: Memory Pages: 1 -->
<svg width="296pt" height="154pt"
 viewBox="0.00 0.00 296.00 154.00" xmlns="http://www.w3.org/2000/svg" xmlns:xlink="http://www.w3.org/1999/xlink">
<g id="graph0" class="graph" transform="scale(1 1) rotate(0) translate(4 150)">
<title>Memory</title>
<!-- Node3 -->
<g id="Node000003" class="node">
<title>Node3</title>
<g id="a_Node000003"><a xlink:href="a01607.html" target="_top" xlink:title=" ">
<polygon fill="white" stroke="#666666" points="261.5,-146 201.5,-146 201.5,-128 261.5,-128 261.5,-146"/>
<text text-anchor="middle" x="231.5" y="-134.8" font-family="Helvetica,sans-Serif" font-size="9.00">Allocators</text>
</a>
</g>
</g>
<!-- Node1 -->
<g id="Node000001" class="node">
<title>Node1</title>
<g id="a_Node000001"><a xlink:title=" ">
<polygon fill="#999999" stroke="#666666" points="139,-84 86,-84 86,-66 139,-66 139,-84"/>
<text text-anchor="middle" x="112.5" y="-72.8" font-family="Helvetica,sans-Serif" font-size="9.00">Memory</text>
</a>
</g>
</g>
<!-- Node1&#45;&gt;Node3 -->
<g id="edge2" class="edge">
<title>Node1&#45;&gt;Node3</title>
<path fill="none" stroke="black" d="M132.96,-91.3C144.59,-100.41 159.98,-111.42 175,-119 183.14,-123.11 192.41,-126.55 201.02,-129.29"/>
<polygon fill="black" stroke="black" points="135.33,-88.71 125.35,-85.16 130.94,-94.16 135.33,-88.71"/>
</g>
<!-- Node6 -->
<g id="Node000006" class="node">
<title>Node6</title>
<g id="a_Node000006"><a xlink:href="a01587.html" target="_top" xlink:title=" ">
<polygon fill="white" stroke="#666666" points="288,-110 175,-110 175,-82 288,-82 288,-110"/>
<text text-anchor="start" x="183" y="-98.8" font-family="Helvetica,sans-Serif" font-size="9.00">Polymorphic memory</text>
<text text-anchor="middle" x="231.5" y="-88.8" font-family="Helvetica,sans-Serif" font-size="9.00"> resources</text>
</a>
</g>
</g>
<!-- Node1&#45;&gt;Node6 -->
<g id="edge5" class="edge">
<title>Node1&#45;&gt;Node6</title>
<path fill="none" stroke="black" d="M150.66,-81.67C158.38,-83.06 166.68,-84.55 174.9,-86.02"/>
<polygon fill="black" stroke="black" points="151.42,-78.25 140.96,-79.93 150.18,-85.14 151.42,-78.25"/>
</g>
<!-- Node4 -->
<g id="Node000004" class="node">
<title>Node4</title>
<g id="a_Node000004"><a xlink:href="a01585.html" target="_top" xlink:title=" ">
<polygon fill="white" stroke="#666666" points="285,-64 178,-64 178,-46 285,-46 285,-64"/>
<text text-anchor="middle" x="231.5" y="-52.8" font-family="Helvetica,sans-Serif" font-size="9.00">Pointer Abstractions</text>
</a>
</g>
</g>
<!-- Node1&#45;&gt;Node4 -->
<g id="edge3" class="edge">
<title>Node1&#45;&gt;Node4</title>
<path fill="none" stroke="black" d="M150.68,-68.64C159.29,-67.17 168.62,-65.58 177.75,-64.02"/>
<polygon fill="black" stroke="black" points="150.23,-65.17 140.96,-70.31 151.4,-72.07 150.23,-65.17"/>
</g>
<!-- Node5 -->
<g id="Node000005" class="node">
<title>Node5</title>
<g id="a_Node000005"><a xlink:href="a01586.html" target="_top" xlink:title=" ">
<polygon fill="white" stroke="#666666" points="283.5,-28 179.5,-28 179.5,0 283.5,0 283.5,-28"/>
<text text-anchor="start" x="187.5" y="-16.8" font-family="Helvetica,sans-Serif" font-size="9.00">Pointer Safety and</text>
<text text-anchor="middle" x="231.5" y="-6.8" font-family="Helvetica,sans-Serif" font-size="9.00"> Garbage Collection</text>
</a>
</g>
</g>
<!-- Node1&#45;&gt;Node5 -->
<g id="edge4" class="edge">
<title>Node1&#45;&gt;Node5</title>
<path fill="none" stroke="black" d="M136.83,-59.36C148.11,-52.11 162,-43.66 175,-37 180.85,-34.01 187.18,-31.09 193.4,-28.4"/>
<polygon fill="black" stroke="black" points="135.02,-56.36 128.56,-64.76 138.85,-62.22 135.02,-56.36"/>
</g>
<!-- Node2 -->
<g id="Node000002" class="node">
<title>Node2</title>
<g id="a_Node000002"><a xlink:href="a01595.html" target="_top" xlink:title=" ">
<polygon fill="white" stroke="#666666" points="50,-84 0,-84 0,-66 50,-66 50,-84"/>
<text text-anchor="middle" x="25" y="-72.8" font-family="Helvetica,sans-Serif" font-size="9.00">Utilities</text>
</a>
</g>
</g>
<!-- Node2&#45;&gt;Node1 -->
<g id="edge1" class="edge">
<title>Node2&#45;&gt;Node1</title>
<path fill="none" stroke="black" d="M61.68,-75C69.73,-75 78.12,-75 85.67,-75"/>
<polygon fill="black" stroke="black" points="61.79,-71.5 51.79,-75 61.79,-78.5 61.79,-71.5"/>
</g>
</g>
</svg>
