<?xml version="1.0" encoding="UTF-8" standalone="no"?>
<!DOCTYPE svg PUBLIC "-//W3C//DTD SVG 1.1//EN"
 "http://www.w3.org/Graphics/SVG/1.1/DTD/svg11.dtd">
<!-- Generated by graphviz version 7.1.0 (0)
 -->
<!-- Title: Exceptions Pages: 1 -->
<svg width="434pt" height="218pt"
 viewBox="0.00 0.00 434.00 218.00" xmlns="http://www.w3.org/2000/svg" xmlns:xlink="http://www.w3.org/1999/xlink">
<g id="graph0" class="graph" transform="scale(1 1) rotate(0) translate(4 214)">
<title>Exceptions</title>
<!-- Node4 -->
<g id="Node000004" class="node">
<title>Node4</title>
<g id="a_Node000004"><a xlink:href="a01632.html" target="_top" xlink:title=" ">
<polygon fill="white" stroke="#666666" points="424.5,-194 320.5,-194 320.5,-166 424.5,-166 424.5,-194"/>
<text text-anchor="start" x="328.5" y="-182.8" font-family="Helvetica,sans-Serif" font-size="9.00">Type&#45;safe container</text>
<text text-anchor="middle" x="372.5" y="-172.8" font-family="Helvetica,sans-Serif" font-size="9.00"> of any type</text>
</a>
</g>
</g>
<!-- Node2 -->
<g id="Node000002" class="node">
<title>Node2</title>
<g id="a_Node000002"><a xlink:href="a01573.html" target="_top" xlink:title=" ">
<polygon fill="white" stroke="#666666" points="68,-95 0,-95 0,-77 68,-77 68,-95"/>
<text text-anchor="middle" x="34" y="-83.8" font-family="Helvetica,sans-Serif" font-size="9.00">Diagnostics</text>
</a>
</g>
</g>
<!-- Node1 -->
<g id="Node000001" class="node">
<title>Node1</title>
<g id="a_Node000001"><a xlink:title=" ">
<polygon fill="#999999" stroke="#666666" points="170,-95 105,-95 105,-77 170,-77 170,-95"/>
<text text-anchor="middle" x="137.5" y="-83.8" font-family="Helvetica,sans-Serif" font-size="9.00">Exceptions</text>
</a>
</g>
</g>
<!-- Node2&#45;&gt;Node1 -->
<g id="edge1" class="edge">
<title>Node2&#45;&gt;Node1</title>
<path fill="none" stroke="black" d="M79.51,-86C87.95,-86 96.62,-86 104.57,-86"/>
<polygon fill="black" stroke="black" points="79.75,-82.5 69.75,-86 79.75,-89.5 79.75,-82.5"/>
</g>
<!-- Node1&#45;&gt;Node4 -->
<g id="edge3" class="edge">
<title>Node1&#45;&gt;Node4</title>
<path fill="none" stroke="orange" stroke-dasharray="5,2" d="M142.73,-95.36C149.82,-109.89 165.59,-137.62 188,-151 228.01,-174.9 281.32,-181.05 320.16,-181.89"/>
<text text-anchor="start" x="193.5" y="-202.8" font-family="Helvetica,sans-Serif" font-size="9.00">std::experimental::</text>
<text text-anchor="start" x="193.5" y="-192.8" font-family="Helvetica,sans-Serif" font-size="9.00">fundamentals_v1::bad</text>
<text text-anchor="middle" x="244.5" y="-182.8" font-family="Helvetica,sans-Serif" font-size="9.00">_any_cast</text>
</g>
<!-- Node6 -->
<g id="Node000006" class="node">
<title>Node6</title>
<g id="a_Node000006"><a xlink:href="a01582.html" target="_top" xlink:title=" ">
<polygon fill="white" stroke="#666666" points="397.5,-148 347.5,-148 347.5,-130 397.5,-130 397.5,-148"/>
<text text-anchor="middle" x="372.5" y="-136.8" font-family="Helvetica,sans-Serif" font-size="9.00">Futures</text>
</a>
</g>
</g>
<!-- Node1&#45;&gt;Node6 -->
<g id="edge5" class="edge">
<title>Node1&#45;&gt;Node6</title>
<path fill="none" stroke="orange" stroke-dasharray="5,2" d="M149.94,-95.23C159.52,-102.42 173.85,-112 188,-117 242.61,-136.28 311.44,-139.31 347.28,-139.42"/>
<text text-anchor="middle" x="244.5" y="-139.8" font-family="Helvetica,sans-Serif" font-size="9.00">std::future_error</text>
</g>
<!-- Node5 -->
<g id="Node000005" class="node">
<title>Node5</title>
<g id="a_Node000005"><a xlink:href="a01634.html" target="_top" xlink:title=" ">
<polygon fill="white" stroke="#666666" points="415.5,-96 329.5,-96 329.5,-78 415.5,-78 415.5,-96"/>
<text text-anchor="middle" x="372.5" y="-84.8" font-family="Helvetica,sans-Serif" font-size="9.00">Optional values</text>
</a>
</g>
</g>
<!-- Node1&#45;&gt;Node5 -->
<g id="edge4" class="edge">
<title>Node1&#45;&gt;Node5</title>
<path fill="none" stroke="orange" stroke-dasharray="5,2" d="M170.41,-86.14C211.66,-86.31 283.62,-86.62 329.34,-86.82"/>
<text text-anchor="start" x="193.5" y="-108.8" font-family="Helvetica,sans-Serif" font-size="9.00">std::experimental::</text>
<text text-anchor="start" x="193.5" y="-98.8" font-family="Helvetica,sans-Serif" font-size="9.00">fundamentals_v1::bad</text>
<text text-anchor="middle" x="244.5" y="-88.8" font-family="Helvetica,sans-Serif" font-size="9.00">_optional_access</text>
</g>
<!-- Node7 -->
<g id="Node000007" class="node">
<title>Node7</title>
<g id="a_Node000007"><a xlink:href="a01611.html" target="_top" xlink:title=" ">
<polygon fill="white" stroke="#666666" points="426,-60 319,-60 319,-42 426,-42 426,-60"/>
<text text-anchor="middle" x="372.5" y="-48.8" font-family="Helvetica,sans-Serif" font-size="9.00">Regular Expressions</text>
</a>
</g>
</g>
<!-- Node1&#45;&gt;Node7 -->
<g id="edge6" class="edge">
<title>Node1&#45;&gt;Node7</title>
<path fill="none" stroke="orange" stroke-dasharray="5,2" d="M168.94,-76.56C175.2,-74.85 181.78,-73.23 188,-72 231.57,-63.4 281.71,-57.96 318.55,-54.78"/>
<text text-anchor="middle" x="244.5" y="-74.8" font-family="Helvetica,sans-Serif" font-size="9.00">std::regex_error</text>
</g>
<!-- Node3 -->
<g id="Node000003" class="node">
<title>Node3</title>
<g id="a_Node000003"><a xlink:href="a01595.html" target="_top" xlink:title=" ">
<polygon fill="white" stroke="#666666" points="397.5,-18 347.5,-18 347.5,0 397.5,0 397.5,-18"/>
<text text-anchor="middle" x="372.5" y="-6.8" font-family="Helvetica,sans-Serif" font-size="9.00">Utilities</text>
</a>
</g>
</g>
<!-- Node1&#45;&gt;Node3 -->
<g id="edge2" class="edge">
<title>Node1&#45;&gt;Node3</title>
<path fill="none" stroke="orange" stroke-dasharray="5,2" d="M144.21,-76.68C152.29,-64.38 168.29,-43.13 188,-33 239.86,-6.34 310.42,-5.42 347.1,-7.14"/>
<text text-anchor="middle" x="244.5" y="-45.8" font-family="Helvetica,sans-Serif" font-size="9.00">std::bad_any_cast</text>
<text text-anchor="middle" x="244.5" y="-35.8" font-family="Helvetica,sans-Serif" font-size="9.00">std::bad_optional_access</text>
</g>
</g>
</svg>
