<?xml version="1.0" encoding="UTF-8" standalone="no"?>
<!DOCTYPE svg PUBLIC "-//W3C//DTD SVG 1.1//EN"
 "http://www.w3.org/Graphics/SVG/1.1/DTD/svg11.dtd">
<!-- Generated by graphviz version 7.1.0 (0)
 -->
<!-- Title: Policy&#45;Based Data Structures Pages: 1 -->
<svg width="357pt" height="134pt"
 viewBox="0.00 0.00 357.00 134.00" xmlns="http://www.w3.org/2000/svg" xmlns:xlink="http://www.w3.org/1999/xlink">
<g id="graph0" class="graph" transform="scale(1 1) rotate(0) translate(4 130)">
<title>Policy&#45;Based Data Structures</title>
<!-- Node3 -->
<g id="Node000003" class="node">
<title>Node3</title>
<g id="a_Node000003"><a xlink:href="a01641.html" target="_top" xlink:title=" ">
<polygon fill="white" stroke="#666666" points="349,-126 284,-126 284,-108 349,-108 349,-126"/>
<text text-anchor="middle" x="316.5" y="-114.8" font-family="Helvetica,sans-Serif" font-size="9.00">Containers</text>
</a>
</g>
</g>
<!-- Node4 -->
<g id="Node000004" class="node">
<title>Node4</title>
<g id="a_Node000004"><a xlink:href="a01647.html" target="_top" xlink:title=" ">
<polygon fill="white" stroke="#666666" points="349,-90 284,-90 284,-72 349,-72 349,-90"/>
<text text-anchor="middle" x="316.5" y="-78.8" font-family="Helvetica,sans-Serif" font-size="9.00">Exceptions</text>
</a>
</g>
</g>
<!-- Node2 -->
<g id="Node000002" class="node">
<title>Node2</title>
<g id="a_Node000002"><a xlink:href="a01567.html" target="_top" xlink:title=" ">
<polygon fill="white" stroke="#666666" points="65,-72 0,-72 0,-54 65,-54 65,-72"/>
<text text-anchor="middle" x="32.5" y="-60.8" font-family="Helvetica,sans-Serif" font-size="9.00">Extensions</text>
</a>
</g>
</g>
<!-- Node1 -->
<g id="Node000001" class="node">
<title>Node1</title>
<g id="a_Node000001"><a xlink:title=" ">
<polygon fill="#999999" stroke="#666666" points="248,-72 101,-72 101,-54 248,-54 248,-72"/>
<text text-anchor="middle" x="174.5" y="-60.8" font-family="Helvetica,sans-Serif" font-size="9.00">Policy&#45;Based Data Structures</text>
</a>
</g>
</g>
<!-- Node2&#45;&gt;Node1 -->
<g id="edge1" class="edge">
<title>Node2&#45;&gt;Node1</title>
<path fill="none" stroke="black" d="M76.52,-63C84.23,-63 92.46,-63 100.74,-63"/>
<polygon fill="black" stroke="black" points="76.78,-59.5 66.78,-63 76.78,-66.5 76.78,-59.5"/>
</g>
<!-- Node1&#45;&gt;Node3 -->
<g id="edge2" class="edge">
<title>Node1&#45;&gt;Node3</title>
<path fill="none" stroke="black" d="M210.42,-76.47C235.47,-86.13 268.61,-98.92 290.92,-107.52"/>
<polygon fill="black" stroke="black" points="211.89,-73.28 201.3,-72.95 209.37,-79.82 211.89,-73.28"/>
</g>
<!-- Node1&#45;&gt;Node4 -->
<g id="edge3" class="edge">
<title>Node1&#45;&gt;Node4</title>
<path fill="none" stroke="black" d="M259.59,-73.81C268.03,-74.9 276.19,-75.95 283.54,-76.89"/>
<polygon fill="black" stroke="black" points="260.24,-70.37 249.87,-72.56 259.34,-77.31 260.24,-70.37"/>
</g>
<!-- Node5 -->
<g id="Node000005" class="node">
<title>Node5</title>
<g id="a_Node000005"><a xlink:href="a01651.html" target="_top" xlink:title=" ">
<polygon fill="white" stroke="#666666" points="334.5,-54 298.5,-54 298.5,-36 334.5,-36 334.5,-54"/>
<text text-anchor="middle" x="316.5" y="-42.8" font-family="Helvetica,sans-Serif" font-size="9.00">Tags</text>
</a>
</g>
</g>
<!-- Node1&#45;&gt;Node5 -->
<g id="edge4" class="edge">
<title>Node1&#45;&gt;Node5</title>
<path fill="none" stroke="black" d="M259.63,-52.18C274.19,-50.31 287.91,-48.55 298.1,-47.24"/>
<polygon fill="black" stroke="black" points="259.34,-48.69 249.87,-53.44 260.24,-55.63 259.34,-48.69"/>
</g>
<!-- Node6 -->
<g id="Node000006" class="node">
<title>Node6</title>
<g id="a_Node000006"><a xlink:href="a01654.html" target="_top" xlink:title=" ">
<polygon fill="white" stroke="#666666" points="336.5,-18 296.5,-18 296.5,0 336.5,0 336.5,-18"/>
<text text-anchor="middle" x="316.5" y="-6.8" font-family="Helvetica,sans-Serif" font-size="9.00">Traits</text>
</a>
</g>
</g>
<!-- Node1&#45;&gt;Node6 -->
<g id="edge5" class="edge">
<title>Node1&#45;&gt;Node6</title>
<path fill="none" stroke="black" d="M210.51,-49.5C237.67,-39.02 274.3,-24.89 296.34,-16.39"/>
<polygon fill="black" stroke="black" points="209.37,-46.18 201.3,-53.05 211.89,-52.72 209.37,-46.18"/>
</g>
</g>
</svg>
