<?xml version="1.0" encoding="UTF-8" standalone="no"?>
<!DOCTYPE svg PUBLIC "-//W3C//DTD SVG 1.1//EN"
 "http://www.w3.org/Graphics/SVG/1.1/DTD/svg11.dtd">
<!-- Generated by graphviz version 7.1.0 (0)
 -->
<!-- Title: Containers Pages: 1 -->
<svg width="371pt" height="134pt"
 viewBox="0.00 0.00 371.00 134.00" xmlns="http://www.w3.org/2000/svg" xmlns:xlink="http://www.w3.org/1999/xlink">

<svg id="main" version="1.1" xmlns="http://www.w3.org/2000/svg" xmlns:xlink="http://www.w3.org/1999/xlink" xml:space="preserve" onload="init(evt)">
<style type="text/css"><![CDATA[
.node, .edge {opacity: 0.7;}
.node.selected, .edge.selected {opacity: 1;}
.edge:hover path { stroke: red; }
.edge:hover polygon { stroke: red; fill: red; }
]]></style>
<script xlink:href="svg.min.js"/>
<svg id="graph" class="graph">
<g id="graph0" class="graph" transform="scale(1 1) rotate(0) translate(4 130)">
<title>Containers</title>
<!-- Node3 -->
<g id="Node000003" class="node">
<title>Node3</title>
<g id="a_Node000003"><a xlink:href="a01644.html" target="_top" xlink:title=" ">
<polygon fill="white" stroke="#666666" points="363,-126 284,-126 284,-108 363,-108 363,-126"/>
<text text-anchor="middle" x="323.5" y="-114.8" font-family="Helvetica,sans-Serif" font-size="9.00">Branch&#45;Based</text>
</a>
</g>
</g>
<!-- Node1 -->
<g id="Node000001" class="node">
<title>Node1</title>
<g id="a_Node000001"><a xlink:title=" ">
<polygon fill="#999999" stroke="#666666" points="248,-72 183,-72 183,-54 248,-54 248,-72"/>
<text text-anchor="middle" x="215.5" y="-60.8" font-family="Helvetica,sans-Serif" font-size="9.00">Containers</text>
</a>
</g>
</g>
<!-- Node1&#45;&gt;Node3 -->
<g id="edge2" class="edge">
<title>Node1&#45;&gt;Node3</title>
<path fill="none" stroke="black" d="M243.62,-77.88C255.87,-84.5 270.59,-92.29 284,-99 289.81,-101.9 296.17,-104.94 302.02,-107.67"/>
<polygon fill="black" stroke="black" points="245.36,-74.84 234.9,-73.15 242.02,-81 245.36,-74.84"/>
</g>
<!-- Node4 -->
<g id="Node000004" class="node">
<title>Node4</title>
<g id="a_Node000004"><a xlink:href="a01642.html" target="_top" xlink:title=" ">
<polygon fill="white" stroke="#666666" points="358,-90 289,-90 289,-72 358,-72 358,-90"/>
<text text-anchor="middle" x="323.5" y="-78.8" font-family="Helvetica,sans-Serif" font-size="9.00">Hash&#45;Based</text>
</a>
</g>
</g>
<!-- Node1&#45;&gt;Node4 -->
<g id="edge3" class="edge">
<title>Node1&#45;&gt;Node4</title>
<path fill="none" stroke="black" d="M259.38,-70.28C269.08,-71.93 279.24,-73.65 288.51,-75.23"/>
<polygon fill="black" stroke="black" points="260.24,-66.88 249.8,-68.65 259.07,-73.78 260.24,-66.88"/>
</g>
<!-- Node5 -->
<g id="Node000005" class="node">
<title>Node5</title>
<g id="a_Node000005"><a xlink:href="a01648.html" target="_top" xlink:title=" ">
<polygon fill="white" stroke="#666666" points="358.5,-54 288.5,-54 288.5,-36 358.5,-36 358.5,-54"/>
<text text-anchor="middle" x="323.5" y="-42.8" font-family="Helvetica,sans-Serif" font-size="9.00">Heap&#45;Based</text>
</a>
</g>
</g>
<!-- Node1&#45;&gt;Node5 -->
<g id="edge4" class="edge">
<title>Node1&#45;&gt;Node5</title>
<path fill="none" stroke="black" d="M259.59,-55.68C269.09,-54.07 279.03,-52.38 288.13,-50.84"/>
<polygon fill="black" stroke="black" points="259.07,-52.22 249.8,-57.35 260.24,-59.12 259.07,-52.22"/>
</g>
<!-- Node6 -->
<g id="Node000006" class="node">
<title>Node6</title>
<g id="a_Node000006"><a xlink:href="a01646.html" target="_top" xlink:title=" ">
<polygon fill="white" stroke="#666666" points="354.5,-18 292.5,-18 292.5,0 354.5,0 354.5,-18"/>
<text text-anchor="middle" x="323.5" y="-6.8" font-family="Helvetica,sans-Serif" font-size="9.00">List&#45;Based</text>
</a>
</g>
</g>
<!-- Node1&#45;&gt;Node6 -->
<g id="edge5" class="edge">
<title>Node1&#45;&gt;Node6</title>
<path fill="none" stroke="black" d="M243.62,-48.12C255.87,-41.5 270.59,-33.71 284,-27 289.81,-24.1 296.17,-21.06 302.02,-18.33"/>
<polygon fill="black" stroke="black" points="242.02,-45 234.9,-52.85 245.36,-51.16 242.02,-45"/>
</g>
<!-- Node2 -->
<g id="Node000002" class="node">
<title>Node2</title>
<g id="a_Node000002"><a xlink:href="a01650.html" target="_top" xlink:title=" ">
<polygon fill="white" stroke="#666666" points="147,-72 0,-72 0,-54 147,-54 147,-72"/>
<text text-anchor="middle" x="73.5" y="-60.8" font-family="Helvetica,sans-Serif" font-size="9.00">Policy&#45;Based Data Structures</text>
</a>
</g>
</g>
<!-- Node2&#45;&gt;Node1 -->
<g id="edge1" class="edge">
<title>Node2&#45;&gt;Node1</title>
<path fill="none" stroke="black" d="M158.87,-63C167.21,-63 175.27,-63 182.54,-63"/>
<polygon fill="black" stroke="black" points="158.88,-59.5 148.88,-63 158.88,-66.5 158.88,-59.5"/>
</g>
</g>
</svg>

<style type='text/css'>
<![CDATA[
[data-mouse-over-selected='false'] { opacity: 0.7; }
[data-mouse-over-selected='true']  { opacity: 1.0; }
]]>
</style>
<script><![CDATA[
document.addEventListener('DOMContentLoaded', (event) => {
  highlightEdges();
  highlightAdjacentNodes();
});
]]></script>
</svg>
