<?xml version="1.0" encoding="UTF-8" standalone="no"?>
<!DOCTYPE svg PUBLIC "-//W3C//DTD SVG 1.1//EN"
 "http://www.w3.org/Graphics/SVG/1.1/DTD/svg11.dtd">
<!-- Generated by graphviz version 7.1.0 (0)
 -->
<!-- Title: Random Number Distributions Pages: 1 -->
<svg width="499pt" height="170pt"
 viewBox="0.00 0.00 499.00 170.00" xmlns="http://www.w3.org/2000/svg" xmlns:xlink="http://www.w3.org/1999/xlink">
<g id="graph0" class="graph" transform="scale(1 1) rotate(0) translate(4 166)">
<title>Random Number Distributions</title>
<!-- Node2 -->
<g id="Node000002" class="node">
<title>Node2</title>
<g id="a_Node000002"><a xlink:href="a01609.html" target="_top" xlink:title=" ">
<polygon fill="white" stroke="#666666" points="146,-90 0,-90 0,-72 146,-72 146,-90"/>
<text text-anchor="middle" x="73" y="-78.8" font-family="Helvetica,sans-Serif" font-size="9.00">Random Number Generation</text>
</a>
</g>
</g>
<!-- Node1 -->
<g id="Node000001" class="node">
<title>Node1</title>
<g id="a_Node000001"><a xlink:title=" ">
<polygon fill="#999999" stroke="#666666" points="336,-90 182,-90 182,-72 336,-72 336,-90"/>
<text text-anchor="middle" x="259" y="-78.8" font-family="Helvetica,sans-Serif" font-size="9.00">Random Number Distributions</text>
</a>
</g>
</g>
<!-- Node2&#45;&gt;Node1 -->
<g id="edge1" class="edge">
<title>Node2&#45;&gt;Node1</title>
<path fill="none" stroke="black" d="M157.95,-81C165.86,-81 173.84,-81 181.67,-81"/>
<polygon fill="black" stroke="black" points="157.97,-77.5 147.97,-81 157.97,-84.5 157.97,-77.5"/>
</g>
<!-- Node3 -->
<g id="Node000003" class="node">
<title>Node3</title>
<g id="a_Node000003"><a xlink:href="a01660.html" target="_top" xlink:title=" ">
<polygon fill="white" stroke="#666666" points="489.5,-162 373.5,-162 373.5,-144 489.5,-144 489.5,-162"/>
<text text-anchor="middle" x="431.5" y="-150.8" font-family="Helvetica,sans-Serif" font-size="9.00">Bernoulli Distributions</text>
</a>
</g>
</g>
<!-- Node1&#45;&gt;Node3 -->
<g id="edge2" class="edge">
<title>Node1&#45;&gt;Node3</title>
<path fill="none" stroke="black" d="M287.58,-95.74C309.94,-107.34 342.47,-123.41 372,-135 379.91,-138.1 388.59,-141.03 396.79,-143.58"/>
<polygon fill="black" stroke="black" points="289.3,-92.69 278.82,-91.15 286.05,-98.89 289.3,-92.69"/>
</g>
<!-- Node4 -->
<g id="Node000004" class="node">
<title>Node4</title>
<g id="a_Node000004"><a xlink:href="a01658.html" target="_top" xlink:title=" ">
<polygon fill="white" stroke="#666666" points="486,-126 377,-126 377,-108 486,-108 486,-126"/>
<text text-anchor="middle" x="431.5" y="-114.8" font-family="Helvetica,sans-Serif" font-size="9.00">Normal Distributions</text>
</a>
</g>
</g>
<!-- Node1&#45;&gt;Node4 -->
<g id="edge3" class="edge">
<title>Node1&#45;&gt;Node4</title>
<path fill="none" stroke="black" d="M315.96,-92.82C338.59,-97.59 364.35,-103.03 385.71,-107.54"/>
<polygon fill="black" stroke="black" points="316.79,-89.41 306.28,-90.77 315.34,-96.26 316.79,-89.41"/>
</g>
<!-- Node5 -->
<g id="Node000005" class="node">
<title>Node5</title>
<g id="a_Node000005"><a xlink:href="a01659.html" target="_top" xlink:title=" ">
<polygon fill="white" stroke="#666666" points="486.5,-90 376.5,-90 376.5,-72 486.5,-72 486.5,-90"/>
<text text-anchor="middle" x="431.5" y="-78.8" font-family="Helvetica,sans-Serif" font-size="9.00">Poisson Distributions</text>
</a>
</g>
</g>
<!-- Node1&#45;&gt;Node5 -->
<g id="edge4" class="edge">
<title>Node1&#45;&gt;Node5</title>
<path fill="none" stroke="black" d="M347.69,-81C357.42,-81 367.11,-81 376.25,-81"/>
<polygon fill="black" stroke="black" points="347.79,-77.5 337.79,-81 347.79,-84.5 347.79,-77.5"/>
</g>
<!-- Node6 -->
<g id="Node000006" class="node">
<title>Node6</title>
<g id="a_Node000006"><a xlink:href="a01661.html" target="_top" xlink:title=" ">
<polygon fill="white" stroke="#666666" points="491,-54 372,-54 372,-36 491,-36 491,-54"/>
<text text-anchor="middle" x="431.5" y="-42.8" font-family="Helvetica,sans-Serif" font-size="9.00">Sampling Distributions</text>
</a>
</g>
</g>
<!-- Node1&#45;&gt;Node6 -->
<g id="edge5" class="edge">
<title>Node1&#45;&gt;Node6</title>
<path fill="none" stroke="black" d="M315.96,-69.18C338.59,-64.41 364.35,-58.97 385.71,-54.46"/>
<polygon fill="black" stroke="black" points="315.34,-65.74 306.28,-71.23 316.79,-72.59 315.34,-65.74"/>
</g>
<!-- Node7 -->
<g id="Node000007" class="node">
<title>Node7</title>
<g id="a_Node000007"><a xlink:href="a01657.html" target="_top" xlink:title=" ">
<polygon fill="white" stroke="#666666" points="488,-18 375,-18 375,0 488,0 488,-18"/>
<text text-anchor="middle" x="431.5" y="-6.8" font-family="Helvetica,sans-Serif" font-size="9.00">Uniform Distributions</text>
</a>
</g>
</g>
<!-- Node1&#45;&gt;Node7 -->
<g id="edge6" class="edge">
<title>Node1&#45;&gt;Node7</title>
<path fill="none" stroke="black" d="M287.58,-66.26C309.94,-54.66 342.47,-38.59 372,-27 379.91,-23.9 388.59,-20.97 396.79,-18.42"/>
<polygon fill="black" stroke="black" points="286.05,-63.11 278.82,-70.85 289.3,-69.31 286.05,-63.11"/>
</g>
</g>
</svg>
