<?xml version="1.0" encoding="UTF-8" standalone="no"?>
<!DOCTYPE svg PUBLIC "-//W3C//DTD SVG 1.1//EN"
 "http://www.w3.org/Graphics/SVG/1.1/DTD/svg11.dtd">
<!-- Generated by graphviz version 7.1.0 (0)
 -->
<!-- Title: Sorting Pages: 1 -->
<svg width="278pt" height="98pt"
 viewBox="0.00 0.00 278.00 98.00" xmlns="http://www.w3.org/2000/svg" xmlns:xlink="http://www.w3.org/1999/xlink">

<svg id="main" version="1.1" xmlns="http://www.w3.org/2000/svg" xmlns:xlink="http://www.w3.org/1999/xlink" xml:space="preserve" onload="init(evt)">
<style type="text/css"><![CDATA[
.node, .edge {opacity: 0.7;}
.node.selected, .edge.selected {opacity: 1;}
.edge:hover path { stroke: red; }
.edge:hover polygon { stroke: red; fill: red; }
]]></style>
<script xlink:href="svg.min.js"/>
<svg id="graph" class="graph">
<g id="graph0" class="graph" transform="scale(1 1) rotate(0) translate(4 94)">
<title>Sorting</title>
<!-- Node2 -->
<g id="Node000002" class="node">
<title>Node2</title>
<g id="a_Node000002"><a xlink:href="a01597.html" target="_top" xlink:title=" ">
<polygon fill="white" stroke="#666666" points="65,-54 0,-54 0,-36 65,-36 65,-54"/>
<text text-anchor="middle" x="32.5" y="-42.8" font-family="Helvetica,sans-Serif" font-size="9.00">Algorithms</text>
</a>
</g>
</g>
<!-- Node1 -->
<g id="Node000001" class="node">
<title>Node1</title>
<g id="a_Node000001"><a xlink:title=" ">
<polygon fill="#999999" stroke="#666666" points="151,-54 101,-54 101,-36 151,-36 151,-54"/>
<text text-anchor="middle" x="126" y="-42.8" font-family="Helvetica,sans-Serif" font-size="9.00">Sorting</text>
</a>
</g>
</g>
<!-- Node2&#45;&gt;Node1 -->
<g id="edge1" class="edge">
<title>Node2&#45;&gt;Node1</title>
<path fill="none" stroke="black" d="M76.65,-45C84.85,-45 93.16,-45 100.52,-45"/>
<polygon fill="black" stroke="black" points="76.76,-41.5 66.76,-45 76.76,-48.5 76.76,-41.5"/>
</g>
<!-- Node3 -->
<g id="Node000003" class="node">
<title>Node3</title>
<g id="a_Node000003"><a xlink:href="a01602.html" target="_top" xlink:title=" ">
<polygon fill="white" stroke="#666666" points="268,-90 189,-90 189,-72 268,-72 268,-90"/>
<text text-anchor="middle" x="228.5" y="-78.8" font-family="Helvetica,sans-Serif" font-size="9.00">Binary Search</text>
</a>
</g>
</g>
<!-- Node4 -->
<g id="Node000004" class="node">
<title>Node4</title>
<g id="a_Node000004"><a xlink:href="a01621.html" target="_top" xlink:title=" ">
<polygon fill="white" stroke="#666666" points="248.5,-54 208.5,-54 208.5,-36 248.5,-36 248.5,-54"/>
<text text-anchor="middle" x="228.5" y="-42.8" font-family="Helvetica,sans-Serif" font-size="9.00">Heap</text>
</a>
</g>
</g>
<!-- Node5 -->
<g id="Node000005" class="node">
<title>Node5</title>
<g id="a_Node000005"><a xlink:href="a01601.html" target="_top" xlink:title=" ">
<polygon fill="white" stroke="#666666" points="270,-18 187,-18 187,0 270,0 270,-18"/>
<text text-anchor="middle" x="228.5" y="-6.8" font-family="Helvetica,sans-Serif" font-size="9.00">Set Operations</text>
</a>
</g>
</g>
<!-- Node1&#45;&gt;Node3 -->
<g id="edge2" class="edge">
<title>Node1&#45;&gt;Node3</title>
<path fill="none" stroke="black" d="M162.16,-57.59C175.02,-62.2 189.34,-67.33 201.28,-71.61"/>
<polygon fill="black" stroke="black" points="163.35,-54.3 152.75,-54.23 160.99,-60.89 163.35,-54.3"/>
</g>
<!-- Node1&#45;&gt;Node4 -->
<g id="edge3" class="edge">
<title>Node1&#45;&gt;Node4</title>
<path fill="none" stroke="black" d="M162.55,-45C177.88,-45 195.2,-45 208.1,-45"/>
<polygon fill="black" stroke="black" points="162.84,-41.5 152.84,-45 162.84,-48.5 162.84,-41.5"/>
</g>
<!-- Node1&#45;&gt;Node5 -->
<g id="edge4" class="edge">
<title>Node1&#45;&gt;Node5</title>
<path fill="none" stroke="black" d="M162.16,-32.41C175.02,-27.8 189.34,-22.67 201.28,-18.39"/>
<polygon fill="black" stroke="black" points="160.99,-29.11 152.75,-35.77 163.35,-35.7 160.99,-29.11"/>
</g>
</g>
</svg>

<style type='text/css'>
<![CDATA[
[data-mouse-over-selected='false'] { opacity: 0.7; }
[data-mouse-over-selected='true']  { opacity: 1.0; }
]]>
</style>
<script><![CDATA[
document.addEventListener('DOMContentLoaded', (event) => {
  highlightEdges();
  highlightAdjacentNodes();
});
]]></script>
</svg>
