<?xml version="1.0" encoding="UTF-8" standalone="no"?>
<!DOCTYPE svg PUBLIC "-//W3C//DTD SVG 1.1//EN"
 "http://www.w3.org/Graphics/SVG/1.1/DTD/svg11.dtd">
<!-- Generated by graphviz version 7.1.0 (0)
 -->
<!-- Title: Random Number Generation Pages: 1 -->
<svg width="439pt" height="98pt"
 viewBox="0.00 0.00 439.00 98.00" xmlns="http://www.w3.org/2000/svg" xmlns:xlink="http://www.w3.org/1999/xlink">

<svg id="main" version="1.1" xmlns="http://www.w3.org/2000/svg" xmlns:xlink="http://www.w3.org/1999/xlink" xml:space="preserve" onload="init(evt)">
<style type="text/css"><![CDATA[
.node, .edge {opacity: 0.7;}
.node.selected, .edge.selected {opacity: 1;}
.edge:hover path { stroke: red; }
.edge:hover polygon { stroke: red; fill: red; }
]]></style>
<script xlink:href="svg.min.js"/>
<svg id="graph" class="graph">
<g id="graph0" class="graph" transform="scale(1 1) rotate(0) translate(4 94)">
<title>Random Number Generation</title>
<!-- Node2 -->
<g id="Node000002" class="node">
<title>Node2</title>
<g id="a_Node000002"><a xlink:href="a01588.html" target="_top" xlink:title=" ">
<polygon fill="white" stroke="#666666" points="59,-54 0,-54 0,-36 59,-36 59,-54"/>
<text text-anchor="middle" x="29.5" y="-42.8" font-family="Helvetica,sans-Serif" font-size="9.00">Numerics</text>
</a>
</g>
</g>
<!-- Node1 -->
<g id="Node000001" class="node">
<title>Node1</title>
<g id="a_Node000001"><a xlink:title=" ">
<polygon fill="#999999" stroke="#666666" points="241,-54 95,-54 95,-36 241,-36 241,-54"/>
<text text-anchor="middle" x="168" y="-42.8" font-family="Helvetica,sans-Serif" font-size="9.00">Random Number Generation</text>
</a>
</g>
</g>
<!-- Node2&#45;&gt;Node1 -->
<g id="edge1" class="edge">
<title>Node2&#45;&gt;Node1</title>
<path fill="none" stroke="black" d="M70.77,-45C78.31,-45 86.39,-45 94.56,-45"/>
<polygon fill="black" stroke="black" points="70.96,-41.5 60.96,-45 70.96,-48.5 70.96,-41.5"/>
</g>
<!-- Node3 -->
<g id="Node000003" class="node">
<title>Node3</title>
<g id="a_Node000003"><a xlink:href="a01656.html" target="_top" xlink:title=" ">
<polygon fill="white" stroke="#666666" points="431,-90 277,-90 277,-72 431,-72 431,-90"/>
<text text-anchor="middle" x="354" y="-78.8" font-family="Helvetica,sans-Serif" font-size="9.00">Random Number Distributions</text>
</a>
</g>
</g>
<!-- Node1&#45;&gt;Node3 -->
<g id="edge2" class="edge">
<title>Node1&#45;&gt;Node3</title>
<path fill="none" stroke="black" d="M228.39,-56.62C253.05,-61.44 281.3,-66.97 304.66,-71.54"/>
<polygon fill="black" stroke="black" points="229.32,-53.23 218.83,-54.75 227.97,-60.1 229.32,-53.23"/>
</g>
<!-- Node4 -->
<g id="Node000004" class="node">
<title>Node4</title>
<g id="a_Node000004"><a xlink:href="a01655.html" target="_top" xlink:title=" ">
<polygon fill="white" stroke="#666666" points="427,-54 281,-54 281,-36 427,-36 427,-54"/>
<text text-anchor="middle" x="354" y="-42.8" font-family="Helvetica,sans-Serif" font-size="9.00">Random Number Generators</text>
</a>
</g>
</g>
<!-- Node1&#45;&gt;Node4 -->
<g id="edge3" class="edge">
<title>Node1&#45;&gt;Node4</title>
<path fill="none" stroke="black" d="M252.73,-45C262.04,-45 271.46,-45 280.61,-45"/>
<polygon fill="black" stroke="black" points="252.97,-41.5 242.97,-45 252.97,-48.5 252.97,-41.5"/>
</g>
<!-- Node5 -->
<g id="Node000005" class="node">
<title>Node5</title>
<g id="a_Node000005"><a xlink:href="a01662.html" target="_top" xlink:title=" ">
<polygon fill="white" stroke="#666666" points="419,-18 289,-18 289,0 419,0 419,-18"/>
<text text-anchor="middle" x="354" y="-6.8" font-family="Helvetica,sans-Serif" font-size="9.00">Random Number Utilities</text>
</a>
</g>
</g>
<!-- Node1&#45;&gt;Node5 -->
<g id="edge4" class="edge">
<title>Node1&#45;&gt;Node5</title>
<path fill="none" stroke="black" d="M228.39,-33.38C253.05,-28.56 281.3,-23.03 304.66,-18.46"/>
<polygon fill="black" stroke="black" points="227.97,-29.9 218.83,-35.25 229.32,-36.77 227.97,-29.9"/>
</g>
</g>
</svg>

<style type='text/css'>
<![CDATA[
[data-mouse-over-selected='false'] { opacity: 0.7; }
[data-mouse-over-selected='true']  { opacity: 1.0; }
]]>
</style>
<script><![CDATA[
document.addEventListener('DOMContentLoaded', (event) => {
  highlightEdges();
  highlightAdjacentNodes();
});
]]></script>
</svg>
