<?xml version="1.0" encoding="UTF-8" standalone="no"?>
<!DOCTYPE svg PUBLIC "-//W3C//DTD SVG 1.1//EN"
 "http://www.w3.org/Graphics/SVG/1.1/DTD/svg11.dtd">
<!-- Generated by graphviz version 7.1.0 (0)
 -->
<!-- Title: Function Objects Pages: 1 -->
<svg width="334pt" height="318pt"
 viewBox="0.00 0.00 334.00 318.00" xmlns="http://www.w3.org/2000/svg" xmlns:xlink="http://www.w3.org/1999/xlink">
<g id="graph0" class="graph" transform="scale(1 1) rotate(0) translate(4 314)">
<title>Function Objects</title>
<!-- Node5 -->
<g id="Node000005" class="node">
<title>Node5</title>
<g id="a_Node000005"><a xlink:href="a01615.html" target="_top" xlink:title=" ">
<polygon fill="white" stroke="#666666" points="323,-310 217,-310 217,-282 323,-282 323,-310"/>
<text text-anchor="start" x="225" y="-298.8" font-family="Helvetica,sans-Serif" font-size="9.00">Arithmetic Function</text>
<text text-anchor="middle" x="270" y="-288.8" font-family="Helvetica,sans-Serif" font-size="9.00"> Object Classes</text>
</a>
</g>
</g>
<!-- Node6 -->
<g id="Node000006" class="node">
<title>Node6</title>
<g id="a_Node000006"><a xlink:href="a01626.html" target="_top" xlink:title=" ">
<polygon fill="white" stroke="#666666" points="310.5,-264 229.5,-264 229.5,-246 310.5,-246 310.5,-264"/>
<text text-anchor="middle" x="270" y="-252.8" font-family="Helvetica,sans-Serif" font-size="9.00">Binder Classes</text>
</a>
</g>
</g>
<!-- Node8 -->
<g id="Node000008" class="node">
<title>Node8</title>
<g id="a_Node000008"><a xlink:href="a01616.html" target="_top" xlink:title=" ">
<polygon fill="white" stroke="#666666" points="322.5,-228 217.5,-228 217.5,-210 322.5,-210 322.5,-228"/>
<text text-anchor="middle" x="270" y="-216.8" font-family="Helvetica,sans-Serif" font-size="9.00">Comparison Classes</text>
</a>
</g>
</g>
<!-- Node1 -->
<g id="Node000001" class="node">
<title>Node1</title>
<g id="a_Node000001"><a xlink:title=" ">
<polygon fill="#999999" stroke="#666666" points="178,-171 86,-171 86,-153 178,-153 178,-171"/>
<text text-anchor="middle" x="132" y="-159.8" font-family="Helvetica,sans-Serif" font-size="9.00">Function Objects</text>
</a>
</g>
</g>
<!-- Node1&#45;&gt;Node5 -->
<g id="edge4" class="edge">
<title>Node1&#45;&gt;Node5</title>
<path fill="none" stroke="black" d="M142.89,-181.52C156.1,-205.89 181.67,-247.48 214,-273 218.06,-276.21 222.64,-279.04 227.37,-281.52"/>
<polygon fill="black" stroke="black" points="146.01,-179.93 138.26,-172.71 139.81,-183.19 146.01,-179.93"/>
</g>
<!-- Node1&#45;&gt;Node6 -->
<g id="edge5" class="edge">
<title>Node1&#45;&gt;Node6</title>
<path fill="none" stroke="black" d="M148.11,-179.88C163.23,-196.75 187.93,-221.67 214,-237 219.72,-240.36 226.14,-243.19 232.53,-245.53"/>
<polygon fill="black" stroke="black" points="150.96,-177.82 141.74,-172.59 145.69,-182.42 150.96,-177.82"/>
</g>
<!-- Node1&#45;&gt;Node8 -->
<g id="edge7" class="edge">
<title>Node1&#45;&gt;Node8</title>
<path fill="none" stroke="black" d="M160.66,-176.44C176.12,-184.23 195.88,-193.71 214,-201 221.55,-204.04 229.83,-206.95 237.62,-209.52"/>
<polygon fill="black" stroke="black" points="162.56,-173.48 152.06,-172.06 159.38,-179.72 162.56,-173.48"/>
</g>
<!-- Node9 -->
<g id="Node000009" class="node">
<title>Node9</title>
<g id="a_Node000009"><a xlink:href="a01605.html" target="_top" xlink:title=" ">
<polygon fill="white" stroke="#666666" points="294.5,-192 245.5,-192 245.5,-174 294.5,-174 294.5,-192"/>
<text text-anchor="middle" x="270" y="-180.8" font-family="Helvetica,sans-Serif" font-size="9.00">Hashes</text>
</a>
</g>
</g>
<!-- Node1&#45;&gt;Node9 -->
<g id="edge8" class="edge">
<title>Node1&#45;&gt;Node9</title>
<path fill="none" stroke="black" d="M189.57,-170.73C209.06,-173.74 229.85,-176.95 245.26,-179.33"/>
<polygon fill="black" stroke="black" points="190.2,-167.29 179.78,-169.22 189.13,-174.21 190.2,-167.29"/>
</g>
<!-- Node7 -->
<g id="Node000007" class="node">
<title>Node7</title>
<g id="a_Node000007"><a xlink:href="a01617.html" target="_top" xlink:title=" ">
<polygon fill="white" stroke="#666666" points="322,-156 218,-156 218,-128 322,-128 322,-156"/>
<text text-anchor="start" x="226" y="-144.8" font-family="Helvetica,sans-Serif" font-size="9.00">Boolean Operations</text>
<text text-anchor="middle" x="270" y="-134.8" font-family="Helvetica,sans-Serif" font-size="9.00"> Classes</text>
</a>
</g>
</g>
<!-- Node1&#45;&gt;Node7 -->
<g id="edge6" class="edge">
<title>Node1&#45;&gt;Node7</title>
<path fill="none" stroke="black" d="M189.52,-153.69C198.9,-152.31 208.57,-150.89 217.81,-149.53"/>
<polygon fill="black" stroke="black" points="189.17,-150.2 179.78,-155.12 190.19,-157.13 189.17,-150.2"/>
</g>
<!-- Node10 -->
<g id="Node000010" class="node">
<title>Node10</title>
<g id="a_Node000010"><a xlink:href="a01618.html" target="_top" xlink:title=" ">
<polygon fill="white" stroke="#666666" points="298.5,-110 241.5,-110 241.5,-92 298.5,-92 298.5,-110"/>
<text text-anchor="middle" x="270" y="-98.8" font-family="Helvetica,sans-Serif" font-size="9.00">Negators</text>
</a>
</g>
</g>
<!-- Node1&#45;&gt;Node10 -->
<g id="edge9" class="edge">
<title>Node1&#45;&gt;Node10</title>
<path fill="none" stroke="black" d="M158.71,-146.89C174.36,-138.06 194.95,-127.1 214,-119 222.69,-115.3 232.41,-111.89 241.24,-109.06"/>
<polygon fill="black" stroke="black" points="156.99,-143.84 150.05,-151.85 160.47,-149.92 156.99,-143.84"/>
</g>
<!-- Node3 -->
<g id="Node000003" class="node">
<title>Node3</title>
<g id="a_Node000003"><a xlink:href="a01619.html" target="_top" xlink:title=" ">
<polygon fill="white" stroke="#666666" points="326,-74 214,-74 214,-46 326,-46 326,-74"/>
<text text-anchor="start" x="222" y="-62.8" font-family="Helvetica,sans-Serif" font-size="9.00">Adaptors for pointers</text>
<text text-anchor="middle" x="270" y="-52.8" font-family="Helvetica,sans-Serif" font-size="9.00"> to functions</text>
</a>
</g>
</g>
<!-- Node1&#45;&gt;Node3 -->
<g id="edge2" class="edge">
<title>Node1&#45;&gt;Node3</title>
<path fill="none" stroke="black" d="M147.96,-143.87C163.13,-126.41 188.01,-100.19 214,-83 218.75,-79.86 223.99,-77.01 229.31,-74.46"/>
<polygon fill="black" stroke="black" points="145.37,-141.51 141.57,-151.4 150.71,-146.04 145.37,-141.51"/>
</g>
<!-- Node4 -->
<g id="Node000004" class="node">
<title>Node4</title>
<g id="a_Node000004"><a xlink:href="a01620.html" target="_top" xlink:title=" ">
<polygon fill="white" stroke="#666666" points="326,-28 214,-28 214,0 326,0 326,-28"/>
<text text-anchor="start" x="222" y="-16.8" font-family="Helvetica,sans-Serif" font-size="9.00">Adaptors for pointers</text>
<text text-anchor="middle" x="270" y="-6.8" font-family="Helvetica,sans-Serif" font-size="9.00"> to members</text>
</a>
</g>
</g>
<!-- Node1&#45;&gt;Node4 -->
<g id="edge3" class="edge">
<title>Node1&#45;&gt;Node4</title>
<path fill="none" stroke="black" d="M141.2,-142.34C153.4,-115.25 178.73,-66.46 214,-37 217.89,-33.75 222.31,-30.9 226.91,-28.42"/>
<polygon fill="black" stroke="black" points="138.03,-140.85 137.26,-151.42 144.45,-143.64 138.03,-140.85"/>
</g>
<!-- Node2 -->
<g id="Node000002" class="node">
<title>Node2</title>
<g id="a_Node000002"><a xlink:href="a01595.html" target="_top" xlink:title=" ">
<polygon fill="white" stroke="#666666" points="50,-171 0,-171 0,-153 50,-153 50,-171"/>
<text text-anchor="middle" x="25" y="-159.8" font-family="Helvetica,sans-Serif" font-size="9.00">Utilities</text>
</a>
</g>
</g>
<!-- Node2&#45;&gt;Node1 -->
<g id="edge1" class="edge">
<title>Node2&#45;&gt;Node1</title>
<path fill="none" stroke="black" d="M61.6,-162C69.36,-162 77.67,-162 85.75,-162"/>
<polygon fill="black" stroke="black" points="61.87,-158.5 51.87,-162 61.87,-165.5 61.87,-158.5"/>
</g>
</g>
</svg>
