<?xml version="1.0" encoding="UTF-8" standalone="no"?>
<!DOCTYPE svg PUBLIC "-//W3C//DTD SVG 1.1//EN"
 "http://www.w3.org/Graphics/SVG/1.1/DTD/svg11.dtd">
<!-- Generated by graphviz version 7.1.0 (0)
 -->
<!-- Title: Library Fundamentals TS Pages: 1 -->
<svg width="582pt" height="352pt"
 viewBox="0.00 0.00 582.00 352.45" xmlns="http://www.w3.org/2000/svg" xmlns:xlink="http://www.w3.org/1999/xlink">
<g id="graph0" class="graph" transform="scale(1 1) rotate(0) translate(4 348.45)">
<title>Library Fundamentals TS</title>
<!-- Node8 -->
<g id="Node000008" class="node">
<title>Node8</title>
<g id="a_Node000008"><a xlink:href="a01632.html" target="_top" xlink:title=" ">
<polygon fill="white" stroke="#666666" points="555.5,-344.45 451.5,-344.45 451.5,-316.45 555.5,-316.45 555.5,-344.45"/>
<text text-anchor="start" x="459.5" y="-333.25" font-family="Helvetica,sans-Serif" font-size="9.00">Type&#45;safe container</text>
<text text-anchor="middle" x="503.5" y="-323.25" font-family="Helvetica,sans-Serif" font-size="9.00"> of any type</text>
</a>
</g>
</g>
<!-- Node2 -->
<g id="Node000002" class="node">
<title>Node2</title>
<g id="a_Node000002"><a xlink:href="a01575.html" target="_top" xlink:title=" ">
<polygon fill="white" stroke="#666666" points="123,-180.45 0,-180.45 0,-162.45 123,-162.45 123,-180.45"/>
<text text-anchor="middle" x="61.5" y="-169.25" font-family="Helvetica,sans-Serif" font-size="9.00">Technical Specifications</text>
</a>
</g>
</g>
<!-- Node1 -->
<g id="Node000001" class="node">
<title>Node1</title>
<g id="a_Node000001"><a xlink:title=" ">
<polygon fill="#999999" stroke="#666666" points="289,-180.45 160,-180.45 160,-162.45 289,-162.45 289,-180.45"/>
<text text-anchor="middle" x="224.5" y="-169.25" font-family="Helvetica,sans-Serif" font-size="9.00">Library Fundamentals TS</text>
</a>
</g>
</g>
<!-- Node2&#45;&gt;Node1 -->
<g id="edge1" class="edge">
<title>Node2&#45;&gt;Node1</title>
<path fill="none" stroke="black" d="M134.61,-171.45C142.94,-171.45 151.39,-171.45 159.6,-171.45"/>
<polygon fill="black" stroke="black" points="134.88,-167.95 124.88,-171.45 134.88,-174.95 134.88,-167.95"/>
</g>
<!-- Node5 -->
<g id="Node000005" class="node">
<title>Node5</title>
<g id="a_Node000005"><a xlink:href="a01639.html" target="_top" xlink:title=" ">
<polygon fill="white" stroke="#666666" points="547.5,-298.45 459.5,-298.45 459.5,-280.45 547.5,-280.45 547.5,-298.45"/>
<text text-anchor="middle" x="503.5" y="-287.25" font-family="Helvetica,sans-Serif" font-size="9.00">Detection idiom</text>
</a>
</g>
</g>
<!-- Node6 -->
<g id="Node000006" class="node">
<title>Node6</title>
<g id="a_Node000006"><a xlink:href="a01640.html" target="_top" xlink:title=" ">
<polygon fill="white" stroke="#666666" points="561.5,-262.45 445.5,-262.45 445.5,-244.45 561.5,-244.45 561.5,-262.45"/>
<text text-anchor="middle" x="503.5" y="-251.25" font-family="Helvetica,sans-Serif" font-size="9.00">Logical operator traits</text>
</a>
</g>
</g>
<!-- Node9 -->
<g id="Node000009" class="node">
<title>Node9</title>
<g id="a_Node000009"><a xlink:href="a01638.html" target="_top" xlink:title=" ">
<polygon fill="white" stroke="#666666" points="559,-226.45 448,-226.45 448,-198.45 559,-198.45 559,-226.45"/>
<text text-anchor="start" x="456" y="-215.25" font-family="Helvetica,sans-Serif" font-size="9.00">Variable template for</text>
<text text-anchor="middle" x="503.5" y="-205.25" font-family="Helvetica,sans-Serif" font-size="9.00"> type traits</text>
</a>
</g>
</g>
<!-- Node1&#45;&gt;Node8 -->
<g id="edge7" class="edge">
<title>Node1&#45;&gt;Node8</title>
<path fill="none" stroke="black" d="M237.09,-190.34C251.13,-211.73 276.7,-246.21 307,-266.45 351.1,-295.91 409.82,-312.73 451.36,-321.66"/>
<polygon fill="black" stroke="black" points="240.13,-188.6 231.81,-182.04 234.22,-192.35 240.13,-188.6"/>
</g>
<!-- Node1&#45;&gt;Node5 -->
<g id="edge4" class="edge">
<title>Node1&#45;&gt;Node5</title>
<path fill="none" stroke="black" d="M243.41,-188.5C259.08,-202.6 283.03,-222.22 307,-234.45 356.15,-259.53 418.27,-274.5 459.13,-282.35"/>
<polygon fill="black" stroke="black" points="246.04,-186.17 236.32,-181.97 241.3,-191.32 246.04,-186.17"/>
</g>
<!-- Node1&#45;&gt;Node6 -->
<g id="edge5" class="edge">
<title>Node1&#45;&gt;Node6</title>
<path fill="none" stroke="black" d="M255.26,-185.67C270.49,-192.58 289.48,-200.63 307,-206.45 355.86,-222.68 413.32,-235.81 453.25,-244.03"/>
<polygon fill="black" stroke="black" points="256.82,-182.54 246.27,-181.52 253.89,-188.89 256.82,-182.54"/>
</g>
<!-- Node1&#45;&gt;Node9 -->
<g id="edge8" class="edge">
<title>Node1&#45;&gt;Node9</title>
<path fill="none" stroke="black" d="M289.97,-182.73C295.73,-183.67 301.47,-184.59 307,-185.45 354.4,-192.79 408.43,-200.18 447.65,-205.36"/>
<polygon fill="black" stroke="black" points="290.88,-179.33 280.44,-181.14 289.73,-186.23 290.88,-179.33"/>
</g>
<!-- Node3 -->
<g id="Node000003" class="node">
<title>Node3</title>
<g id="a_Node000003"><a xlink:href="a01633.html" target="_top" xlink:title=" ">
<polygon fill="white" stroke="#666666" points="566,-180.45 441,-180.45 441,-162.45 566,-162.45 566,-180.45"/>
<text text-anchor="middle" x="503.5" y="-169.25" font-family="Helvetica,sans-Serif" font-size="9.00">Array creation functions</text>
</a>
</g>
</g>
<!-- Node1&#45;&gt;Node3 -->
<g id="edge2" class="edge">
<title>Node1&#45;&gt;Node3</title>
<path fill="none" stroke="black" d="M300.9,-171.45C344.81,-171.45 399.5,-171.45 440.83,-171.45"/>
<polygon fill="black" stroke="black" points="300.91,-167.95 290.91,-171.45 300.91,-174.95 300.91,-167.95"/>
</g>
<!-- Node7 -->
<g id="Node000007" class="node">
<title>Node7</title>
<g id="a_Node000007"><a xlink:href="a01634.html" target="_top" xlink:title=" ">
<polygon fill="white" stroke="#666666" points="546.5,-144.45 460.5,-144.45 460.5,-126.45 546.5,-126.45 546.5,-144.45"/>
<text text-anchor="middle" x="503.5" y="-133.25" font-family="Helvetica,sans-Serif" font-size="9.00">Optional values</text>
</a>
</g>
</g>
<!-- Node1&#45;&gt;Node7 -->
<g id="edge6" class="edge">
<title>Node1&#45;&gt;Node7</title>
<path fill="none" stroke="black" d="M300.74,-161.67C351.89,-155.02 417.72,-146.47 460.02,-140.97"/>
<polygon fill="black" stroke="black" points="300.36,-158.19 290.9,-162.95 301.27,-165.13 300.36,-158.19"/>
</g>
<!-- Node4 -->
<g id="Node000004" class="node">
<title>Node4</title>
<g id="a_Node000004"><a xlink:href="a01635.html" target="_top" xlink:title=" ">
<polygon fill="white" stroke="#666666" points="574,-108.45 433,-108.45 433,-90.45 574,-90.45 574,-108.45"/>
<text text-anchor="middle" x="503.5" y="-97.25" font-family="Helvetica,sans-Serif" font-size="9.00">Const&#45;propagating wrapper</text>
</a>
</g>
</g>
<!-- Node1&#45;&gt;Node4 -->
<g id="edge3" class="edge">
<title>Node1&#45;&gt;Node4</title>
<path fill="none" stroke="black" d="M261.36,-158.18C275.48,-153.21 291.89,-147.73 307,-143.45 356.37,-129.46 413.75,-116.98 453.52,-108.92"/>
<polygon fill="black" stroke="black" points="260.27,-154.85 252.03,-161.52 262.62,-161.44 260.27,-154.85"/>
</g>
<!-- Node11 -->
<g id="Node000011" class="node">
<title>Node11</title>
<g id="a_Node000011"><a xlink:href="a01570.html" target="_top" xlink:title=" ">
<polygon fill="white" stroke="#666666" points="536.5,-72.45 470.5,-72.45 470.5,-54.45 536.5,-54.45 536.5,-72.45"/>
<text text-anchor="middle" x="503.5" y="-61.25" font-family="Helvetica,sans-Serif" font-size="9.00">Sequences</text>
</a>
</g>
</g>
<!-- Node1&#45;&gt;Node11 -->
<g id="edge10" class="edge">
<title>Node1&#45;&gt;Node11</title>
<path fill="none" stroke="orange" stroke-dasharray="5,2" d="M231.02,-162.05C242.5,-143.51 270.88,-102.46 307,-84.45 359.55,-58.25 429.73,-57.78 470.14,-60.29"/>
<text text-anchor="start" x="307" y="-107.25" font-family="Helvetica,sans-Serif" font-size="9.00">std::experimental::</text>
<text text-anchor="start" x="307" y="-97.25" font-family="Helvetica,sans-Serif" font-size="9.00">fundamentals_v1::basic</text>
<text text-anchor="middle" x="361" y="-87.25" font-family="Helvetica,sans-Serif" font-size="9.00">_string_view</text>
</g>
<!-- Node10 -->
<g id="Node000010" class="node">
<title>Node10</title>
<g id="a_Node000010"><a xlink:href="a01625.html" target="_top" xlink:title=" ">
<polygon fill="white" stroke="#666666" points="528,-19.45 479,-19.45 479,-1.45 528,-1.45 528,-19.45"/>
<text text-anchor="middle" x="503.5" y="-8.25" font-family="Helvetica,sans-Serif" font-size="9.00">Strings</text>
</a>
</g>
</g>
<!-- Node1&#45;&gt;Node10 -->
<g id="edge9" class="edge">
<title>Node1&#45;&gt;Node10</title>
<path fill="none" stroke="orange" stroke-dasharray="5,2" d="M227.5,-162.26C233.81,-135.78 255.95,-59.18 307,-26.45 360.32,7.74 439.36,0.7 478.6,-5.71"/>
<text text-anchor="start" x="307" y="-49.25" font-family="Helvetica,sans-Serif" font-size="9.00">std::experimental::</text>
<text text-anchor="start" x="307" y="-39.25" font-family="Helvetica,sans-Serif" font-size="9.00">fundamentals_v1::basic</text>
<text text-anchor="middle" x="361" y="-29.25" font-family="Helvetica,sans-Serif" font-size="9.00">_string_view</text>
</g>
</g>
</svg>
