<?xml version="1.0" encoding="UTF-8" standalone="no"?>
<!DOCTYPE svg PUBLIC "-//W3C//DTD SVG 1.1//EN"
 "http://www.w3.org/Graphics/SVG/1.1/DTD/svg11.dtd">
<!-- Generated by graphviz version 7.1.0 (0)
 -->
<!-- Title: Strings Pages: 1 -->
<svg width="330pt" height="117pt"
 viewBox="0.00 0.00 330.00 117.29" xmlns="http://www.w3.org/2000/svg" xmlns:xlink="http://www.w3.org/1999/xlink">
<g id="graph0" class="graph" transform="scale(1 1) rotate(0) translate(4 113.29)">
<title>Strings</title>
<!-- Node3 -->
<g id="Node000003" class="node">
<title>Node3</title>
<g id="a_Node000003"><a xlink:href="a01631.html" target="_top" xlink:title=" ">
<polygon fill="white" stroke="#666666" points="322,-94.29 193,-94.29 193,-76.29 322,-76.29 322,-94.29"/>
<text text-anchor="middle" x="257.5" y="-83.09" font-family="Helvetica,sans-Serif" font-size="9.00">Library Fundamentals TS</text>
</a>
</g>
</g>
<!-- Node2 -->
<g id="Node000002" class="node">
<title>Node2</title>
<g id="a_Node000002"><a xlink:href="a01570.html" target="_top" xlink:title=" ">
<polygon fill="white" stroke="#666666" points="290.5,-21.29 224.5,-21.29 224.5,-3.29 290.5,-3.29 290.5,-21.29"/>
<text text-anchor="middle" x="257.5" y="-10.09" font-family="Helvetica,sans-Serif" font-size="9.00">Sequences</text>
</a>
</g>
</g>
<!-- Node1 -->
<g id="Node000001" class="node">
<title>Node1</title>
<g id="a_Node000001"><a xlink:title=" ">
<polygon fill="#999999" stroke="#666666" points="49,-57.29 0,-57.29 0,-39.29 49,-39.29 49,-57.29"/>
<text text-anchor="middle" x="24.5" y="-46.09" font-family="Helvetica,sans-Serif" font-size="9.00">Strings</text>
</a>
</g>
</g>
<!-- Node1&#45;&gt;Node3 -->
<g id="edge2" class="edge">
<title>Node1&#45;&gt;Node3</title>
<path fill="none" stroke="orange" stroke-dasharray="5,2" d="M48.48,-57.66C54.43,-59.79 60.89,-61.85 67,-63.29 108.27,-73.01 155.64,-78.51 192.7,-81.58"/>
<text text-anchor="start" x="67" y="-102.09" font-family="Helvetica,sans-Serif" font-size="9.00">std::experimental::</text>
<text text-anchor="start" x="67" y="-92.09" font-family="Helvetica,sans-Serif" font-size="9.00">fundamentals_v1::basic</text>
<text text-anchor="middle" x="121" y="-82.09" font-family="Helvetica,sans-Serif" font-size="9.00">_string_view</text>
</g>
<!-- Node1&#45;&gt;Node2 -->
<g id="edge1" class="edge">
<title>Node1&#45;&gt;Node2</title>
<path fill="none" stroke="orange" stroke-dasharray="5,2" d="M32.95,-39.09C40.49,-30.56 53.03,-18.44 67,-13.29 119.33,5.99 185.44,0.17 224.14,-5.95"/>
<text text-anchor="middle" x="121" y="-56.09" font-family="Helvetica,sans-Serif" font-size="9.00">std::basic_string</text>
<text text-anchor="middle" x="121" y="-46.09" font-family="Helvetica,sans-Serif" font-size="9.00">std::basic_string_view</text>
<text text-anchor="start" x="67" y="-36.09" font-family="Helvetica,sans-Serif" font-size="9.00">std::experimental::</text>
<text text-anchor="start" x="67" y="-26.09" font-family="Helvetica,sans-Serif" font-size="9.00">fundamentals_v1::basic</text>
<text text-anchor="middle" x="121" y="-16.09" font-family="Helvetica,sans-Serif" font-size="9.00">_string_view</text>
</g>
</g>
</svg>
