<?xml version="1.0" encoding="UTF-8" standalone="no"?>
<!DOCTYPE svg PUBLIC "-//W3C//DTD SVG 1.1//EN"
 "http://www.w3.org/Graphics/SVG/1.1/DTD/svg11.dtd">
<!-- Generated by graphviz version 7.1.0 (0)
 -->
<!-- Title: Tags Pages: 1 -->
<svg width="387pt" height="62pt"
 viewBox="0.00 0.00 387.00 62.00" xmlns="http://www.w3.org/2000/svg" xmlns:xlink="http://www.w3.org/1999/xlink">
<g id="graph0" class="graph" transform="scale(1 1) rotate(0) translate(4 58)">
<title>Tags</title>
<!-- Node3 -->
<g id="Node000003" class="node">
<title>Node3</title>
<g id="a_Node000003"><a xlink:href="a01653.html" target="_top" xlink:title=" ">
<polygon fill="white" stroke="#666666" points="370.5,-54 263.5,-54 263.5,-36 370.5,-36 370.5,-54"/>
<text text-anchor="middle" x="317" y="-42.8" font-family="Helvetica,sans-Serif" font-size="9.00">Data Structure Type</text>
</a>
</g>
</g>
<!-- Node4 -->
<g id="Node000004" class="node">
<title>Node4</title>
<g id="a_Node000004"><a xlink:href="a01652.html" target="_top" xlink:title=" ">
<polygon fill="white" stroke="#666666" points="379,-18 255,-18 255,0 379,0 379,-18"/>
<text text-anchor="middle" x="317" y="-6.8" font-family="Helvetica,sans-Serif" font-size="9.00">Invalidation Guarantees</text>
</a>
</g>
</g>
<!-- Node2 -->
<g id="Node000002" class="node">
<title>Node2</title>
<g id="a_Node000002"><a xlink:href="a01650.html" target="_top" xlink:title=" ">
<polygon fill="white" stroke="#666666" points="147,-36 0,-36 0,-18 147,-18 147,-36"/>
<text text-anchor="middle" x="73.5" y="-24.8" font-family="Helvetica,sans-Serif" font-size="9.00">Policy&#45;Based Data Structures</text>
</a>
</g>
</g>
<!-- Node1 -->
<g id="Node000001" class="node">
<title>Node1</title>
<g id="a_Node000001"><a xlink:title=" ">
<polygon fill="#999999" stroke="#666666" points="219,-36 183,-36 183,-18 219,-18 219,-36"/>
<text text-anchor="middle" x="201" y="-24.8" font-family="Helvetica,sans-Serif" font-size="9.00">Tags</text>
</a>
</g>
</g>
<!-- Node2&#45;&gt;Node1 -->
<g id="edge1" class="edge">
<title>Node2&#45;&gt;Node1</title>
<path fill="none" stroke="black" d="M158.4,-27C167.41,-27 175.76,-27 182.58,-27"/>
<polygon fill="black" stroke="black" points="158.65,-23.5 148.65,-27 158.65,-30.5 158.65,-23.5"/>
</g>
<!-- Node1&#45;&gt;Node3 -->
<g id="edge2" class="edge">
<title>Node1&#45;&gt;Node3</title>
<path fill="none" stroke="black" d="M230.53,-31.5C240.45,-33.07 251.92,-34.88 263.17,-36.66"/>
<polygon fill="black" stroke="black" points="231.23,-28.07 220.81,-29.97 230.14,-34.99 231.23,-28.07"/>
</g>
<!-- Node1&#45;&gt;Node4 -->
<g id="edge3" class="edge">
<title>Node1&#45;&gt;Node4</title>
<path fill="none" stroke="black" d="M230.61,-22.48C238.37,-21.26 247.07,-19.88 255.87,-18.49"/>
<polygon fill="black" stroke="black" points="230.14,-19.01 220.81,-24.03 231.23,-25.93 230.14,-19.01"/>
</g>
</g>
</svg>
