<?xml version="1.0" encoding="UTF-8" standalone="no"?>
<!DOCTYPE svg PUBLIC "-//W3C//DTD SVG 1.1//EN"
 "http://www.w3.org/Graphics/SVG/1.1/DTD/svg11.dtd">
<!-- Generated by graphviz version 7.1.0 (0)
 -->
<!-- Title: __gnu_parallel::__parallel_sort Pages: 1 -->
<!--zoomable 258 -->

<svg id="main" version="1.1" xmlns="http://www.w3.org/2000/svg" xmlns:xlink="http://www.w3.org/1999/xlink" xml:space="preserve" onload="init(evt)">
<style type="text/css"><![CDATA[
.node, .edge {opacity: 0.7;}
.node.selected, .edge.selected {opacity: 1;}
.edge:hover path { stroke: red; }
.edge:hover polygon { stroke: red; fill: red; }
]]></style>

<defs>
  <circle id="rim" cx="0" cy="0" r="7"/>
  <circle id="rim2" cx="0" cy="0" r="3.5"/>
  <g id="zoomPlus">
    <use xlink:href="#rim" fill="#404040"><set attributeName="fill" to="#808080" begin="zoomplus.mouseover" end="zoomplus.mouseout"/></use>
    <path d="M-4,0h8M0,-4v8" fill="none" stroke="white" stroke-width="1.5" pointer-events="none"/>
  </g>
  <g id="zoomMin">
    <use xlink:href="#rim" fill="#404040"><set attributeName="fill" to="#808080" begin="zoomminus.mouseover" end="zoomminus.mouseout"/></use>
    <path d="M-4,0h8" fill="none" stroke="white" stroke-width="1.5" pointer-events="none"/>
  </g>
  <g id="dirArrow">
    <path fill="none" stroke="white" stroke-width="1.5" d="M0,-3.0v7 M-2.5,-0.5L0,-3.0L2.5,-0.5"/>
  </g>
 <g id="resetDef">
    <use xlink:href="#rim2" fill="#404040"><set attributeName="fill" to="#808080" begin="reset.mouseover" end="reset.mouseout"/></use>
 </g>
</defs>
<script type="text/javascript">
var viewWidth = 1003;
var viewHeight = 258;
var sectionId = 'dynsection-5';
</script>
<script xlink:href="svg.min.js"/>
<svg id="graph" class="graph">
<g id="viewport">
<title>__gnu_parallel::__parallel_sort</title>
<!-- Node1 -->
<g id="Node000001" class="node">
<title>Node1</title>
<g id="a_Node000001"><a xlink:title="Choose a parallel sorting algorithm.">
<polygon fill="#999999" stroke="#666666" points="149,-80.05 0,-80.05 0,-62.05 149,-62.05 149,-80.05"/>
<text text-anchor="middle" x="74.5" y="-68.85" font-family="Helvetica,sans-Serif" font-size="9.00">__gnu_parallel::__parallel_sort</text>
</a>
</g>
</g>
<!-- Node2 -->
<g id="Node000002" class="node">
<title>Node2</title>
<g id="a_Node000002"><a xlink:href="a10261.html#a18b32829b31b902699690b750e190e59" target="_top" xlink:title="Find out desired number of threads.">
<polygon fill="white" stroke="#666666" points="316,-154.05 185,-154.05 185,-126.05 316,-126.05 316,-154.05"/>
<text text-anchor="start" x="193" y="-142.85" font-family="Helvetica,sans-Serif" font-size="9.00">__gnu_parallel::parallel</text>
<text text-anchor="middle" x="250.5" y="-132.85" font-family="Helvetica,sans-Serif" font-size="9.00">_tag::__get_num_threads</text>
</a>
</g>
</g>
<!-- Node1&#45;&gt;Node2 -->
<g id="edge1_Node000001_Node000002" class="edge">
<title>Node1&#45;&gt;Node2</title>
<g id="a_edge1_Node000001_Node000002"><a xlink:title=" ">
<path fill="none" stroke="#63b8ff" d="M96.76,-80.39C118.72,-89.94 154.05,-105.04 185,-117.05 189.06,-118.62 193.28,-120.22 197.53,-121.8"/>
<polygon fill="#63b8ff" stroke="#63b8ff" points="196.07,-124.99 206.66,-125.14 198.48,-118.42 196.07,-124.99"/>
</a>
</g>
</g>
<!-- Node3 -->
<g id="Node000003" class="node">
<title>Node3</title>
<g id="a_Node000003"><a xlink:href="a01715.html#ac416a1c7e347b429bbf7a8fb17e847b2" target="_top" xlink:title="Unbalanced quicksort main call.">
<polygon fill="white" stroke="#666666" points="314.5,-108.05 186.5,-108.05 186.5,-80.05 314.5,-80.05 314.5,-108.05"/>
<text text-anchor="start" x="194.5" y="-96.85" font-family="Helvetica,sans-Serif" font-size="9.00">__gnu_parallel::__parallel</text>
<text text-anchor="middle" x="250.5" y="-86.85" font-family="Helvetica,sans-Serif" font-size="9.00">_sort_qs</text>
</a>
</g>
</g>
<!-- Node1&#45;&gt;Node3 -->
<g id="edge2_Node000001_Node000003" class="edge">
<title>Node1&#45;&gt;Node3</title>
<g id="a_edge2_Node000001_Node000003"><a xlink:title=" ">
<path fill="none" stroke="#63b8ff" d="M147.28,-80.54C156.46,-81.75 165.88,-83 175.1,-84.21"/>
<polygon fill="#63b8ff" stroke="#63b8ff" points="174.36,-87.65 184.73,-85.49 175.28,-80.71 174.36,-87.65"/>
</a>
</g>
</g>
<!-- Node9 -->
<g id="Node000009" class="node">
<title>Node9</title>
<g id="a_Node000009"><a xlink:href="a10253.html#afe774b372d0f1591ad992224ecd084c3" target="_top" xlink:title="Get the global settings.">
<polygon fill="white" stroke="#666666" points="995,-108.05 846,-108.05 846,-90.05 995,-90.05 995,-108.05"/>
<text text-anchor="middle" x="920.5" y="-96.85" font-family="Helvetica,sans-Serif" font-size="9.00">__gnu_parallel::_Settings::get</text>
</a>
</g>
</g>
<!-- Node1&#45;&gt;Node9 -->
<g id="edge22_Node000001_Node000009" class="edge">
<title>Node1&#45;&gt;Node9</title>
<g id="a_edge22_Node000001_Node000009"><a xlink:title=" ">
<path fill="none" stroke="#63b8ff" d="M93.53,-61.55C114.78,-50.82 151.46,-33.72 185,-25.05 284.77,0.73 312.45,-0.05 415.5,-0.05 415.5,-0.05 415.5,-0.05 582,-0.05 685.46,-0.05 711.9,-14.18 810,-47.05 839.36,-56.89 871.15,-72.59 892.87,-84.17"/>
<polygon fill="#63b8ff" stroke="#63b8ff" points="891.16,-87.23 901.62,-88.92 894.5,-81.08 891.16,-87.23"/>
</a>
</g>
</g>
<!-- Node11 -->
<g id="Node000011" class="node">
<title>Node11</title>
<g id="a_Node000011"><a xlink:href="a01715.html#a4093dd098b32542e3d3f43ebd4c6f940" target="_top" xlink:title="Top&#45;level quicksort routine.">
<polygon fill="white" stroke="#666666" points="314.5,-62.05 186.5,-62.05 186.5,-34.05 314.5,-34.05 314.5,-62.05"/>
<text text-anchor="start" x="194.5" y="-50.85" font-family="Helvetica,sans-Serif" font-size="9.00">__gnu_parallel::__parallel</text>
<text text-anchor="middle" x="250.5" y="-40.85" font-family="Helvetica,sans-Serif" font-size="9.00">_sort_qsb</text>
</a>
</g>
</g>
<!-- Node1&#45;&gt;Node11 -->
<g id="edge12_Node000001_Node000011" class="edge">
<title>Node1&#45;&gt;Node11</title>
<g id="a_edge12_Node000001_Node000011"><a xlink:title=" ">
<path fill="none" stroke="#63b8ff" d="M147.28,-61.56C156.46,-60.35 165.88,-59.1 175.1,-57.88"/>
<polygon fill="#63b8ff" stroke="#63b8ff" points="175.28,-61.39 184.73,-56.61 174.36,-54.45 175.28,-61.39"/>
</a>
</g>
</g>
<!-- Node4 -->
<g id="Node000004" class="node">
<title>Node4</title>
<g id="a_Node000004"><a xlink:href="a01715.html#a06c506308856b684737d24944a93a42e" target="_top" xlink:title="Unbalanced quicksort conquer step.">
<polygon fill="white" stroke="#666666" points="480.5,-172.05 352.5,-172.05 352.5,-144.05 480.5,-144.05 480.5,-172.05"/>
<text text-anchor="start" x="360.5" y="-160.85" font-family="Helvetica,sans-Serif" font-size="9.00">__gnu_parallel::__parallel</text>
<text text-anchor="middle" x="416.5" y="-150.85" font-family="Helvetica,sans-Serif" font-size="9.00">_sort_qs_conquer</text>
</a>
</g>
</g>
<!-- Node3&#45;&gt;Node4 -->
<g id="edge3_Node000003_Node000004" class="edge">
<title>Node3&#45;&gt;Node4</title>
<g id="a_edge3_Node000003_Node000004"><a xlink:title=" ">
<path fill="none" stroke="#63b8ff" d="M292.9,-108.48C300.6,-111.26 308.56,-114.19 316,-117.05 334.2,-124.04 354.09,-132.14 371.28,-139.29"/>
<polygon fill="#63b8ff" stroke="#63b8ff" points="369.61,-142.39 380.19,-143.01 372.31,-135.93 369.61,-142.39"/>
</a>
</g>
</g>
<!-- Node4&#45;&gt;Node4 -->
<g id="edge4_Node000004_Node000004" class="edge">
<title>Node4&#45;&gt;Node4</title>
<g id="a_edge4_Node000004_Node000004"><a xlink:title=" ">
<path fill="none" stroke="#63b8ff" d="M387.83,-172.53C380.92,-181.51 390.48,-190.05 416.5,-190.05 430.73,-190.05 440.04,-187.49 444.42,-183.71"/>
<polygon fill="#63b8ff" stroke="#63b8ff" points="447.89,-184.25 445.07,-174.04 440.91,-183.78 447.89,-184.25"/>
</a>
</g>
</g>
<!-- Node5 -->
<g id="Node000005" class="node">
<title>Node5</title>
<g id="a_Node000005"><a xlink:href="a01715.html#a67cbf5b9027d7c9c4f80f80ba104cf99" target="_top" xlink:title="Unbalanced quicksort divide step.">
<polygon fill="white" stroke="#666666" points="645,-214.05 517,-214.05 517,-186.05 645,-186.05 645,-214.05"/>
<text text-anchor="start" x="525" y="-202.85" font-family="Helvetica,sans-Serif" font-size="9.00">__gnu_parallel::__parallel</text>
<text text-anchor="middle" x="581" y="-192.85" font-family="Helvetica,sans-Serif" font-size="9.00">_sort_qs_divide</text>
</a>
</g>
</g>
<!-- Node4&#45;&gt;Node5 -->
<g id="edge5_Node000004_Node000005" class="edge">
<title>Node4&#45;&gt;Node5</title>
<g id="a_edge5_Node000004_Node000005"><a xlink:title=" ">
<path fill="none" stroke="#63b8ff" d="M473.42,-172.5C486.19,-175.8 499.88,-179.34 513.06,-182.75"/>
<polygon fill="#63b8ff" stroke="#63b8ff" points="511.95,-186.08 522.51,-185.19 513.7,-179.3 511.95,-186.08"/>
</a>
</g>
</g>
<!-- Node4&#45;&gt;Node9 -->
<g id="edge11_Node000004_Node000009" class="edge">
<title>Node4&#45;&gt;Node9</title>
<g id="a_edge11_Node000004_Node000009"><a xlink:title=" ">
<path fill="none" stroke="#63b8ff" d="M480.76,-160.79C558.94,-162.86 695.65,-162.15 810,-139.05 837.54,-133.49 867.4,-122.2 888.98,-113.03"/>
<polygon fill="#63b8ff" stroke="#63b8ff" points="890.29,-116.27 898.06,-109.07 887.5,-109.85 890.29,-116.27"/>
</a>
</g>
</g>
<!-- Node6 -->
<g id="Node000006" class="node">
<title>Node6</title>
<g id="a_Node000006"><a xlink:href="a01715.html#ac870af1d69405f2f53cd7a96e1d92348" target="_top" xlink:title="Parallel implementation of std::partition.">
<polygon fill="white" stroke="#666666" points="809.5,-214.05 681.5,-214.05 681.5,-186.05 809.5,-186.05 809.5,-214.05"/>
<text text-anchor="start" x="689.5" y="-202.85" font-family="Helvetica,sans-Serif" font-size="9.00">__gnu_parallel::__parallel</text>
<text text-anchor="middle" x="745.5" y="-192.85" font-family="Helvetica,sans-Serif" font-size="9.00">_partition</text>
</a>
</g>
</g>
<!-- Node5&#45;&gt;Node6 -->
<g id="edge6_Node000005_Node000006" class="edge">
<title>Node5&#45;&gt;Node6</title>
<g id="a_edge6_Node000005_Node000006"><a xlink:title=" ">
<path fill="none" stroke="#63b8ff" d="M645.29,-200.05C653.29,-200.05 661.53,-200.05 669.68,-200.05"/>
<polygon fill="#63b8ff" stroke="#63b8ff" points="669.6,-203.55 679.6,-200.05 669.6,-196.55 669.6,-203.55"/>
</a>
</g>
</g>
<!-- Node10 -->
<g id="Node000010" class="node">
<title>Node10</title>
<g id="a_Node000010"><a xlink:href="a01600.html#gae9cf068dc91c8779040669efa4a8cf65" target="_top" xlink:title="This does what you think it does.">
<polygon fill="white" stroke="#666666" points="772.5,-250.05 718.5,-250.05 718.5,-232.05 772.5,-232.05 772.5,-250.05"/>
<text text-anchor="middle" x="745.5" y="-238.85" font-family="Helvetica,sans-Serif" font-size="9.00">std::min</text>
</a>
</g>
</g>
<!-- Node5&#45;&gt;Node10 -->
<g id="edge10_Node000005_Node000010" class="edge">
<title>Node5&#45;&gt;Node10</title>
<g id="a_edge10_Node000005_Node000010"><a xlink:title=" ">
<path fill="none" stroke="#63b8ff" d="M639.29,-214.5C661.85,-220.2 687.12,-226.57 707.24,-231.65"/>
<polygon fill="#63b8ff" stroke="#63b8ff" points="706.11,-234.97 716.67,-234.03 707.83,-228.19 706.11,-234.97"/>
</a>
</g>
</g>
<!-- Node7 -->
<g id="Node000007" class="node">
<title>Node7</title>
<g id="a_Node000007"><a xlink:href="a01715.html#accd4441e0f846fee44966195a91e9e68" target="_top" xlink:title="Compare&#45;and&#45;swap.">
<polygon fill="white" stroke="#666666" points="988,-191.05 853,-191.05 853,-163.05 988,-163.05 988,-191.05"/>
<text text-anchor="start" x="861" y="-179.85" font-family="Helvetica,sans-Serif" font-size="9.00">__gnu_parallel::__compare</text>
<text text-anchor="middle" x="920.5" y="-169.85" font-family="Helvetica,sans-Serif" font-size="9.00">_and_swap</text>
</a>
</g>
</g>
<!-- Node6&#45;&gt;Node7 -->
<g id="edge7_Node000006_Node000007" class="edge">
<title>Node6&#45;&gt;Node7</title>
<g id="a_edge7_Node000006_Node000007"><a xlink:title=" ">
<path fill="none" stroke="#63b8ff" d="M809.94,-191.62C820.13,-190.26 830.79,-188.84 841.29,-187.45"/>
<polygon fill="#63b8ff" stroke="#63b8ff" points="841.63,-190.93 851.08,-186.14 840.71,-183.99 841.63,-190.93"/>
</a>
</g>
</g>
<!-- Node8 -->
<g id="Node000008" class="node">
<title>Node8</title>
<g id="a_Node000008"><a xlink:href="a01715.html#a56a5a84c8a6049cd3cc83968c6eae088" target="_top" xlink:title="Add a value to a variable, atomically.">
<polygon fill="white" stroke="#666666" points="980,-237.05 861,-237.05 861,-209.05 980,-209.05 980,-237.05"/>
<text text-anchor="start" x="869" y="-225.85" font-family="Helvetica,sans-Serif" font-size="9.00">__gnu_parallel::__fetch</text>
<text text-anchor="middle" x="920.5" y="-215.85" font-family="Helvetica,sans-Serif" font-size="9.00">_and_add</text>
</a>
</g>
</g>
<!-- Node6&#45;&gt;Node8 -->
<g id="edge8_Node000006_Node000008" class="edge">
<title>Node6&#45;&gt;Node8</title>
<g id="a_edge8_Node000006_Node000008"><a xlink:title=" ">
<path fill="none" stroke="#63b8ff" d="M809.94,-208.48C822.77,-210.19 836.32,-211.99 849.37,-213.72"/>
<polygon fill="#63b8ff" stroke="#63b8ff" points="848.79,-217.18 859.17,-215.03 849.71,-210.24 848.79,-217.18"/>
</a>
</g>
</g>
<!-- Node6&#45;&gt;Node9 -->
<g id="edge9_Node000006_Node000009" class="edge">
<title>Node6&#45;&gt;Node9</title>
<g id="a_edge9_Node000006_Node000009"><a xlink:title=" ">
<path fill="none" stroke="#63b8ff" d="M782.29,-185.56C791.47,-181.49 801.23,-176.86 810,-172.05 841.82,-154.6 876.31,-130.7 897.91,-115.07"/>
<polygon fill="#63b8ff" stroke="#63b8ff" points="899.9,-117.95 905.91,-109.22 895.77,-112.29 899.9,-117.95"/>
</a>
</g>
</g>
<!-- Node12 -->
<g id="Node000012" class="node">
<title>Node12</title>
<g id="a_Node000012"><a xlink:href="a01715.html#a8d9c5686c4621822c7c3cdd015f7e693" target="_top" xlink:title="Quicksort conquer step.">
<polygon fill="white" stroke="#666666" points="472.5,-101.05 360.5,-101.05 360.5,-73.05 472.5,-73.05 472.5,-101.05"/>
<text text-anchor="start" x="368.5" y="-89.85" font-family="Helvetica,sans-Serif" font-size="9.00">__gnu_parallel::__qsb</text>
<text text-anchor="middle" x="416.5" y="-79.85" font-family="Helvetica,sans-Serif" font-size="9.00">_conquer</text>
</a>
</g>
</g>
<!-- Node11&#45;&gt;Node12 -->
<g id="edge13_Node000011_Node000012" class="edge">
<title>Node11&#45;&gt;Node12</title>
<g id="a_edge13_Node000011_Node000012"><a xlink:title=" ">
<path fill="none" stroke="#63b8ff" d="M312.1,-62.46C324.12,-65.32 336.79,-68.33 348.99,-71.23"/>
<polygon fill="#63b8ff" stroke="#63b8ff" points="348.02,-74.6 358.56,-73.51 349.64,-67.79 348.02,-74.6"/>
</a>
</g>
</g>
<!-- Node17 -->
<g id="Node000017" class="node">
<title>Node17</title>
<g id="a_Node000017"><a xlink:href="a01715.html#ae8e1f6dc07de01f28bf591339cf8aa9c" target="_top" xlink:title="Calculates the rounded&#45;down logarithm of __n for base 2.">
<polygon fill="white" stroke="#666666" points="481,-55.05 352,-55.05 352,-37.05 481,-37.05 481,-55.05"/>
<text text-anchor="middle" x="416.5" y="-43.85" font-family="Helvetica,sans-Serif" font-size="9.00">__gnu_parallel::__rd_log2</text>
</a>
</g>
</g>
<!-- Node11&#45;&gt;Node17 -->
<g id="edge21_Node000011_Node000017" class="edge">
<title>Node11&#45;&gt;Node17</title>
<g id="a_edge21_Node000011_Node000017"><a xlink:title=" ">
<path fill="none" stroke="#63b8ff" d="M314.91,-47.28C323.21,-47.17 331.78,-47.07 340.26,-46.97"/>
<polygon fill="#63b8ff" stroke="#63b8ff" points="340.25,-50.47 350.21,-46.85 340.17,-43.47 340.25,-50.47"/>
</a>
</g>
</g>
<!-- Node12&#45;&gt;Node12 -->
<g id="edge14_Node000012_Node000012" class="edge">
<title>Node12&#45;&gt;Node12</title>
<g id="a_edge14_Node000012_Node000012"><a xlink:title=" ">
<path fill="none" stroke="#63b8ff" d="M387.83,-101.53C380.92,-110.51 390.48,-119.05 416.5,-119.05 430.73,-119.05 440.04,-116.49 444.42,-112.71"/>
<polygon fill="#63b8ff" stroke="#63b8ff" points="447.89,-113.25 445.07,-103.04 440.91,-112.78 447.89,-113.25"/>
</a>
</g>
</g>
<!-- Node13 -->
<g id="Node000013" class="node">
<title>Node13</title>
<g id="a_Node000013"><a xlink:href="a01715.html#af5df990f9c6b42ec71b0b3245efd8e56" target="_top" xlink:title="Balanced quicksort divide step.">
<polygon fill="white" stroke="#666666" points="637,-130.05 525,-130.05 525,-102.05 637,-102.05 637,-130.05"/>
<text text-anchor="start" x="533" y="-118.85" font-family="Helvetica,sans-Serif" font-size="9.00">__gnu_parallel::__qsb</text>
<text text-anchor="middle" x="581" y="-108.85" font-family="Helvetica,sans-Serif" font-size="9.00">_divide</text>
</a>
</g>
</g>
<!-- Node12&#45;&gt;Node13 -->
<g id="edge15_Node000012_Node000013" class="edge">
<title>Node12&#45;&gt;Node13</title>
<g id="a_edge15_Node000012_Node000013"><a xlink:title=" ">
<path fill="none" stroke="#63b8ff" d="M472.97,-96.95C485.97,-99.27 499.95,-101.76 513.39,-104.16"/>
<polygon fill="#63b8ff" stroke="#63b8ff" points="512.56,-107.57 523.02,-105.88 513.79,-100.68 512.56,-107.57"/>
</a>
</g>
</g>
<!-- Node15 -->
<g id="Node000015" class="node">
<title>Node15</title>
<g id="a_Node000015"><a xlink:href="a01715.html#a7565d258aacb02328cef6eb2781ab711" target="_top" xlink:title="Quicksort step doing load&#45;balanced local sort.">
<polygon fill="white" stroke="#666666" points="643.5,-84.05 518.5,-84.05 518.5,-56.05 643.5,-56.05 643.5,-84.05"/>
<text text-anchor="start" x="526.5" y="-72.85" font-family="Helvetica,sans-Serif" font-size="9.00">__gnu_parallel::__qsb</text>
<text text-anchor="middle" x="581" y="-62.85" font-family="Helvetica,sans-Serif" font-size="9.00">_local_sort_with_helping</text>
</a>
</g>
</g>
<!-- Node12&#45;&gt;Node15 -->
<g id="edge18_Node000012_Node000015" class="edge">
<title>Node12&#45;&gt;Node15</title>
<g id="a_edge18_Node000012_Node000015"><a xlink:title=" ">
<path fill="none" stroke="#63b8ff" d="M472.97,-81.25C483.86,-80.11 495.45,-78.89 506.82,-77.7"/>
<polygon fill="#63b8ff" stroke="#63b8ff" points="507,-81.2 516.58,-76.68 506.27,-74.24 507,-81.2"/>
</a>
</g>
</g>
<!-- Node13&#45;&gt;Node6 -->
<g id="edge17_Node000013_Node000006" class="edge">
<title>Node13&#45;&gt;Node6</title>
<g id="a_edge17_Node000013_Node000006"><a xlink:title=" ">
<path fill="none" stroke="#63b8ff" d="M609.93,-130.49C636.64,-144.29 677.11,-165.21 706.69,-180.5"/>
<polygon fill="#63b8ff" stroke="#63b8ff" points="704.82,-183.48 715.31,-184.96 708.04,-177.26 704.82,-183.48"/>
</a>
</g>
</g>
<!-- Node14 -->
<g id="Node000014" class="node">
<title>Node14</title>
<g id="a_Node000014"><a xlink:href="a01715.html#a74914ea59d68887b517e12c90189dbcd" target="_top" xlink:title="Compute the median of three referenced elements, according to __comp.">
<polygon fill="white" stroke="#666666" points="810,-130.05 681,-130.05 681,-102.05 810,-102.05 810,-130.05"/>
<text text-anchor="start" x="689" y="-118.85" font-family="Helvetica,sans-Serif" font-size="9.00">__gnu_parallel::__median</text>
<text text-anchor="middle" x="745.5" y="-108.85" font-family="Helvetica,sans-Serif" font-size="9.00">_of_three_iterators</text>
</a>
</g>
</g>
<!-- Node13&#45;&gt;Node14 -->
<g id="edge16_Node000013_Node000014" class="edge">
<title>Node13&#45;&gt;Node14</title>
<g id="a_edge16_Node000013_Node000014"><a xlink:title=" ">
<path fill="none" stroke="#63b8ff" d="M637.47,-116.05C647.66,-116.05 658.46,-116.05 669.13,-116.05"/>
<polygon fill="#63b8ff" stroke="#63b8ff" points="669.1,-119.55 679.1,-116.05 669.1,-112.55 669.1,-119.55"/>
</a>
</g>
</g>
<!-- Node15&#45;&gt;Node9 -->
<g id="edge20_Node000015_Node000009" class="edge">
<title>Node15&#45;&gt;Node9</title>
<g id="a_edge20_Node000015_Node000009"><a xlink:title=" ">
<path fill="none" stroke="#63b8ff" d="M643.95,-58.58C690.09,-51.95 754.45,-46.76 810,-57.05 838.6,-62.35 869.38,-74.81 891,-84.79"/>
<polygon fill="#63b8ff" stroke="#63b8ff" points="889.22,-87.82 899.75,-88.95 892.22,-81.5 889.22,-87.82"/>
</a>
</g>
</g>
<!-- Node16 -->
<g id="Node000016" class="node">
<title>Node16</title>
<g id="a_Node000016"><a xlink:href="a01715.html#aaa76236af73146ae89f726921bc3f2cb" target="_top" xlink:title="Yield control to another thread, without waiting for the end of the time slice.">
<polygon fill="white" stroke="#666666" points="803.5,-84.05 687.5,-84.05 687.5,-66.05 803.5,-66.05 803.5,-84.05"/>
<text text-anchor="middle" x="745.5" y="-72.85" font-family="Helvetica,sans-Serif" font-size="9.00">__gnu_parallel::__yield</text>
</a>
</g>
</g>
<!-- Node15&#45;&gt;Node16 -->
<g id="edge19_Node000015_Node000016" class="edge">
<title>Node15&#45;&gt;Node16</title>
<g id="a_edge19_Node000015_Node000016"><a xlink:title=" ">
<path fill="none" stroke="#63b8ff" d="M643.9,-71.95C654.3,-72.27 665.16,-72.61 675.73,-72.93"/>
<polygon fill="#63b8ff" stroke="#63b8ff" points="675.43,-76.43 685.54,-73.23 675.65,-69.43 675.43,-76.43"/>
</a>
</g>
</g>
</g>
</svg>

<g id="navigator" transform="translate(0 0)" fill="#404254">
  <rect fill="#f2f5e9" fill-opacity="0.5" stroke="#606060" stroke-width=".5" x="0" y="0" width="60" height="60"/>
  <use id="zoomplus" xlink:href="#zoomPlus" x="17" y="9" onmousedown="handleZoom(evt,'in')"/>
  <use id="zoomminus" xlink:href="#zoomMin" x="42" y="9" onmousedown="handleZoom(evt,'out')"/>
  <use id="reset" xlink:href="#resetDef" x="30" y="36" onmousedown="handleReset()"/>
  <g id="arrowUp" xlink:href="#dirArrow" transform="translate(30 24)" onmousedown="handlePan(0,-1)">
    <use xlink:href="#rim" fill="#404040">
          <set attributeName="fill" to="#808080" begin="arrowUp.mouseover" end="arrowUp.mouseout"/>
    </use>
    <path fill="none" stroke="white" stroke-width="1.5" d="M0,-3.0v7 M-2.5,-0.5L0,-3.0L2.5,-0.5"/>
  </g>
  <g id="arrowRight" xlink:href="#dirArrow" transform="rotate(90) translate(36 -43)" onmousedown="handlePan(1,0)">
    <use xlink:href="#rim" fill="#404040">
          <set attributeName="fill" to="#808080" begin="arrowRight.mouseover" end="arrowRight.mouseout"/>
    </use>
    <path fill="none" stroke="white" stroke-width="1.5" d="M0,-3.0v7 M-2.5,-0.5L0,-3.0L2.5,-0.5"/>
  </g>
  <g id="arrowDown" xlink:href="#dirArrow" transform="rotate(180) translate(-30 -48)" onmousedown="handlePan(0,1)">
    <use xlink:href="#rim" fill="#404040">
          <set attributeName="fill" to="#808080" begin="arrowDown.mouseover" end="arrowDown.mouseout"/>
    </use>
    <path fill="none" stroke="white" stroke-width="1.5" d="M0,-3.0v7 M-2.5,-0.5L0,-3.0L2.5,-0.5"/>
  </g>
  <g id="arrowLeft" xlink:href="#dirArrow" transform="rotate(270) translate(-36 17)" onmousedown="handlePan(-1,0)">
    <use xlink:href="#rim" fill="#404040">
          <set attributeName="fill" to="#808080" begin="arrowLeft.mouseover" end="arrowLeft.mouseout"/>
    </use>
    <path fill="none" stroke="white" stroke-width="1.5" d="M0,-3.0v7 M-2.5,-0.5L0,-3.0L2.5,-0.5"/>
  </g>
</g>
<svg viewBox="0 0 15 15" width="100%" height="30px" preserveAspectRatio="xMaxYMin meet">
 <g id="arrow_out" transform="scale(0.3 0.3)">
  <a xlink:href="a01715_aa47b469dd82347dd63c3996eda2e237b_cgraph_org.svg" target="_base">
   <rect id="button" ry="5" rx="5" y="6" x="6" height="38" width="38"
        fill="#f2f5e9" fill-opacity="0.5" stroke="#606060" stroke-width="1.0"/>
   <path id="arrow"
     d="M 11.500037,31.436501 C 11.940474,20.09759 22.043105,11.32322 32.158766,21.979434 L 37.068811,17.246167 C 37.068811,17.246167 37.088388,32 37.088388,32 L 22.160133,31.978069 C 22.160133,31.978069 26.997745,27.140456 26.997745,27.140456 C 18.528582,18.264221 13.291696,25.230495 11.500037,31.436501 z"
     style="fill:#404040;"/>
  </a>
 </g>
</svg>

<style type='text/css'>
<![CDATA[
[data-mouse-over-selected='false'] { opacity: 0.7; }
[data-mouse-over-selected='true']  { opacity: 1.0; }
]]>
</style>
<script><![CDATA[
document.addEventListener('DOMContentLoaded', (event) => {
  highlightEdges();
  highlightAdjacentNodes();
});
]]></script>
</svg>
