<?xml version="1.0" encoding="UTF-8" standalone="no"?>
<!DOCTYPE svg PUBLIC "-//W3C//DTD SVG 1.1//EN"
 "http://www.w3.org/Graphics/SVG/1.1/DTD/svg11.dtd">
<!-- Generated by graphviz version 7.1.0 (0)
 -->
<!-- Title: __gnu_parallel::__parallel_sort Pages: 1 -->
<svg width="342pt" height="72pt"
 viewBox="0.00 0.00 342.00 72.00" xmlns="http://www.w3.org/2000/svg" xmlns:xlink="http://www.w3.org/1999/xlink">
<g id="graph0" class="graph" transform="scale(1 1) rotate(0) translate(4 68)">
<title>__gnu_parallel::__parallel_sort</title>
<!-- Node1 -->
<g id="Node000001" class="node">
<title>Node1</title>
<g id="a_Node000001"><a xlink:title="Choose multiway mergesort, splitting variant at run&#45;time, for parallel sorting.">
<polygon fill="#999999" stroke="#666666" points="149,-38 0,-38 0,-20 149,-20 149,-38"/>
<text text-anchor="middle" x="74.5" y="-26.8" font-family="Helvetica,sans-Serif" font-size="9.00">__gnu_parallel::__parallel_sort</text>
</a>
</g>
</g>
<!-- Node2 -->
<g id="Node000002" class="node">
<title>Node2</title>
<g id="a_Node000002"><a xlink:href="a10261.html#a18b32829b31b902699690b750e190e59" target="_top" xlink:title="Find out desired number of threads.">
<polygon fill="white" stroke="#666666" points="325,-64 194,-64 194,-36 325,-36 325,-64"/>
<text text-anchor="start" x="202" y="-52.8" font-family="Helvetica,sans-Serif" font-size="9.00">__gnu_parallel::parallel</text>
<text text-anchor="middle" x="259.5" y="-42.8" font-family="Helvetica,sans-Serif" font-size="9.00">_tag::__get_num_threads</text>
</a>
</g>
</g>
<!-- Node1&#45;&gt;Node2 -->
<g id="edge1_Node000001_Node000002" class="edge">
<title>Node1&#45;&gt;Node2</title>
<g id="a_edge1_Node000001_Node000002"><a xlink:title=" ">
<path fill="none" stroke="#63b8ff" d="M149.41,-37.48C160.3,-38.73 171.54,-40.02 182.48,-41.28"/>
<polygon fill="#63b8ff" stroke="#63b8ff" points="181.91,-44.73 192.24,-42.4 182.7,-37.78 181.91,-44.73"/>
</a>
</g>
</g>
<!-- Node3 -->
<g id="Node000003" class="node">
<title>Node3</title>
<g id="a_Node000003"><a xlink:href="a10253.html#afe774b372d0f1591ad992224ecd084c3" target="_top" xlink:title="Get the global settings.">
<polygon fill="white" stroke="#666666" points="334,-18 185,-18 185,0 334,0 334,-18"/>
<text text-anchor="middle" x="259.5" y="-6.8" font-family="Helvetica,sans-Serif" font-size="9.00">__gnu_parallel::_Settings::get</text>
</a>
</g>
</g>
<!-- Node1&#45;&gt;Node3 -->
<g id="edge2_Node000001_Node000003" class="edge">
<title>Node1&#45;&gt;Node3</title>
<g id="a_edge2_Node000001_Node000003"><a xlink:title=" ">
<path fill="none" stroke="#63b8ff" d="M149.41,-20.92C157.29,-20.06 165.36,-19.18 173.37,-18.3"/>
<polygon fill="#63b8ff" stroke="#63b8ff" points="173.55,-21.8 183.11,-17.24 172.79,-14.85 173.55,-21.8"/>
</a>
</g>
</g>
</g>
</svg>
