<?xml version="1.0" encoding="UTF-8" standalone="no"?>
<!DOCTYPE svg PUBLIC "-//W3C//DTD SVG 1.1//EN"
 "http://www.w3.org/Graphics/SVG/1.1/DTD/svg11.dtd">
<!-- Generated by graphviz version 7.1.0 (0)
 -->
<!-- Title: std::bad_cast Pages: 1 -->
<svg width="242pt" height="154pt"
 viewBox="0.00 0.00 242.00 154.00" xmlns="http://www.w3.org/2000/svg" xmlns:xlink="http://www.w3.org/1999/xlink">

<svg id="main" version="1.1" xmlns="http://www.w3.org/2000/svg" xmlns:xlink="http://www.w3.org/1999/xlink" xml:space="preserve" onload="init(evt)">
<style type="text/css"><![CDATA[
.node, .edge {opacity: 0.7;}
.node.selected, .edge.selected {opacity: 1;}
.edge:hover path { stroke: red; }
.edge:hover polygon { stroke: red; fill: red; }
]]></style>
<script xlink:href="svg.min.js"/>
<svg id="graph" class="graph">
<g id="graph0" class="graph" transform="scale(1 1) rotate(0) translate(4 150)">
<title>std::bad_cast</title>
<!-- Node1 -->
<g id="Node000001" class="node">
<title>Node1</title>
<g id="a_Node000001"><a xlink:title="Thrown during incorrect typecasting.">
<polygon fill="#999999" stroke="#666666" points="150.5,-92 73.5,-92 73.5,-74 150.5,-74 150.5,-92"/>
<text text-anchor="middle" x="112" y="-80.8" font-family="Helvetica,sans-Serif" font-size="9.00">std::bad_cast</text>
</a>
</g>
</g>
<!-- Node3 -->
<g id="Node000003" class="node">
<title>Node3</title>
<g id="a_Node000003"><a xlink:href="a01917.html" target="_top" xlink:title="Exception class thrown by a failed any_cast.">
<polygon fill="white" stroke="#666666" points="98,-28 0,-28 0,-10 98,-10 98,-28"/>
<text text-anchor="middle" x="49" y="-16.8" font-family="Helvetica,sans-Serif" font-size="9.00">std::bad_any_cast</text>
</a>
</g>
</g>
<!-- Node1&#45;&gt;Node3 -->
<g id="edge2_Node000001_Node000003" class="edge">
<title>Node1&#45;&gt;Node3</title>
<g id="a_edge2_Node000001_Node000003"><a xlink:title=" ">
<path fill="none" stroke="#63b8ff" d="M95.43,-65.69C83.19,-53.64 67.03,-37.75 57.36,-28.23"/>
<polygon fill="#63b8ff" stroke="#63b8ff" points="92.84,-68.06 102.42,-72.58 97.75,-63.07 92.84,-68.06"/>
</a>
</g>
</g>
<!-- Node4 -->
<g id="Node000004" class="node">
<title>Node4</title>
<g id="a_Node000004"><a xlink:href="a11593.html" target="_top" xlink:title="Exception class thrown by a failed any_cast.">
<polygon fill="white" stroke="#666666" points="234,-38 116,-38 116,0 234,0 234,-38"/>
<text text-anchor="start" x="124" y="-26.8" font-family="Helvetica,sans-Serif" font-size="9.00">std::experimental::</text>
<text text-anchor="start" x="124" y="-16.8" font-family="Helvetica,sans-Serif" font-size="9.00">fundamentals_v1::bad</text>
<text text-anchor="middle" x="175" y="-6.8" font-family="Helvetica,sans-Serif" font-size="9.00">_any_cast</text>
</a>
</g>
</g>
<!-- Node1&#45;&gt;Node4 -->
<g id="edge3_Node000001_Node000004" class="edge">
<title>Node1&#45;&gt;Node4</title>
<g id="a_edge3_Node000001_Node000004"><a xlink:title=" ">
<path fill="none" stroke="#63b8ff" d="M128.55,-65.72C137.07,-57.32 147.51,-47.06 156.32,-38.38"/>
<polygon fill="#63b8ff" stroke="#63b8ff" points="126.25,-63.07 121.58,-72.58 131.16,-68.06 126.25,-63.07"/>
</a>
</g>
</g>
<!-- Node2 -->
<g id="Node000002" class="node">
<title>Node2</title>
<g id="a_Node000002"><a xlink:href="a05761.html" target="_top" xlink:title="Base class for all library exceptions.">
<polygon fill="white" stroke="#666666" points="152,-146 72,-146 72,-128 152,-128 152,-146"/>
<text text-anchor="middle" x="112" y="-134.8" font-family="Helvetica,sans-Serif" font-size="9.00">std::exception</text>
</a>
</g>
</g>
<!-- Node2&#45;&gt;Node1 -->
<g id="edge1_Node000001_Node000002" class="edge">
<title>Node2&#45;&gt;Node1</title>
<g id="a_edge1_Node000001_Node000002"><a xlink:title=" ">
<path fill="none" stroke="#63b8ff" d="M112,-116.39C112,-108.03 112,-98.72 112,-92.24"/>
<polygon fill="#63b8ff" stroke="#63b8ff" points="108.5,-116.36 112,-126.36 115.5,-116.36 108.5,-116.36"/>
</a>
</g>
</g>
</g>
</svg>

<style type='text/css'>
<![CDATA[
[data-mouse-over-selected='false'] { opacity: 0.7; }
[data-mouse-over-selected='true']  { opacity: 1.0; }
]]>
</style>
<script><![CDATA[
document.addEventListener('DOMContentLoaded', (event) => {
  highlightEdges();
  highlightAdjacentNodes();
});
]]></script>
</svg>
