<?xml version="1.0" encoding="UTF-8" standalone="no"?>
<!DOCTYPE svg PUBLIC "-//W3C//DTD SVG 1.1//EN"
 "http://www.w3.org/Graphics/SVG/1.1/DTD/svg11.dtd">
<!-- Generated by graphviz version 7.1.0 (0)
 -->
<!-- Title: std::basic_ofstream&lt; _CharT, _Traits &gt; Pages: 1 -->
<svg width="129pt" height="218pt"
 viewBox="0.00 0.00 129.00 218.00" xmlns="http://www.w3.org/2000/svg" xmlns:xlink="http://www.w3.org/1999/xlink">
<g id="graph0" class="graph" transform="scale(1 1) rotate(0) translate(4 214)">
<title>std::basic_ofstream&lt; _CharT, _Traits &gt;</title>
<!-- Node1 -->
<g id="Node000001" class="node">
<title>Node1</title>
<g id="a_Node000001"><a xlink:title="Controlling output for files.">
<polygon fill="#999999" stroke="#666666" points="112.5,-28 8.5,-28 8.5,0 112.5,0 112.5,-28"/>
<text text-anchor="start" x="16.5" y="-16.8" font-family="Helvetica,sans-Serif" font-size="9.00">std::basic_ofstream</text>
<text text-anchor="middle" x="60.5" y="-6.8" font-family="Helvetica,sans-Serif" font-size="9.00">&lt; _CharT, _Traits &gt;</text>
</a>
</g>
</g>
<!-- Node2 -->
<g id="Node000002" class="node">
<title>Node2</title>
<g id="a_Node000002"><a xlink:href="a02769.html" target="_top" xlink:title="Template class basic_ostream.">
<polygon fill="white" stroke="#666666" points="111.5,-92 9.5,-92 9.5,-64 111.5,-64 111.5,-92"/>
<text text-anchor="start" x="17.5" y="-80.8" font-family="Helvetica,sans-Serif" font-size="9.00">std::basic_ostream</text>
<text text-anchor="middle" x="60.5" y="-70.8" font-family="Helvetica,sans-Serif" font-size="9.00">&lt; _CharT, _Traits &gt;</text>
</a>
</g>
</g>
<!-- Node2&#45;&gt;Node1 -->
<g id="edge1_Node000001_Node000002" class="edge">
<title>Node2&#45;&gt;Node1</title>
<g id="a_edge1_Node000001_Node000002"><a xlink:title=" ">
<path fill="none" stroke="#63b8ff" d="M60.5,-52.03C60.5,-43.97 60.5,-35.33 60.5,-28.43"/>
<polygon fill="#63b8ff" stroke="#63b8ff" points="57,-52.03 60.5,-62.03 64,-52.03 57,-52.03"/>
</a>
</g>
</g>
<!-- Node3 -->
<g id="Node000003" class="node">
<title>Node3</title>
<g id="a_Node000003"><a xlink:href="a02757.html" target="_top" xlink:title="Template class basic_ios, virtual base class for all stream classes.">
<polygon fill="white" stroke="#666666" points="121,-156 0,-156 0,-128 121,-128 121,-156"/>
<text text-anchor="start" x="8" y="-144.8" font-family="Helvetica,sans-Serif" font-size="9.00">std::basic_ios&lt; _CharT,</text>
<text text-anchor="middle" x="60.5" y="-134.8" font-family="Helvetica,sans-Serif" font-size="9.00"> _Traits &gt;</text>
</a>
</g>
</g>
<!-- Node3&#45;&gt;Node2 -->
<g id="edge2_Node000002_Node000003" class="edge">
<title>Node3&#45;&gt;Node2</title>
<g id="a_edge2_Node000002_Node000003"><a xlink:title=" ">
<path fill="none" stroke="#63b8ff" d="M60.5,-116.03C60.5,-107.97 60.5,-99.33 60.5,-92.43"/>
<polygon fill="#63b8ff" stroke="#63b8ff" points="57,-116.03 60.5,-126.03 64,-116.03 57,-116.03"/>
</a>
</g>
</g>
<!-- Node4 -->
<g id="Node000004" class="node">
<title>Node4</title>
<g id="a_Node000004"><a xlink:href="a05973.html" target="_top" xlink:title="The base of the I/O class hierarchy.">
<polygon fill="white" stroke="#666666" points="97.5,-210 23.5,-210 23.5,-192 97.5,-192 97.5,-210"/>
<text text-anchor="middle" x="60.5" y="-198.8" font-family="Helvetica,sans-Serif" font-size="9.00">std::ios_base</text>
</a>
</g>
</g>
<!-- Node4&#45;&gt;Node3 -->
<g id="edge3_Node000003_Node000004" class="edge">
<title>Node4&#45;&gt;Node3</title>
<g id="a_edge3_Node000003_Node000004"><a xlink:title=" ">
<path fill="none" stroke="#63b8ff" d="M60.5,-180.08C60.5,-172.21 60.5,-163.38 60.5,-156.31"/>
<polygon fill="#63b8ff" stroke="#63b8ff" points="57,-180.08 60.5,-190.08 64,-180.08 57,-180.08"/>
</a>
</g>
</g>
</g>
</svg>
