<?xml version="1.0" encoding="UTF-8" standalone="no"?>
<!DOCTYPE svg PUBLIC "-//W3C//DTD SVG 1.1//EN"
 "http://www.w3.org/Graphics/SVG/1.1/DTD/svg11.dtd">
<!-- Generated by graphviz version 7.1.0 (0)
 -->
<!-- Title: std::basic_stringstream&lt; _CharT, _Traits, _Alloc &gt; Pages: 1 -->
<svg width="230pt" height="282pt"
 viewBox="0.00 0.00 230.00 282.00" xmlns="http://www.w3.org/2000/svg" xmlns:xlink="http://www.w3.org/1999/xlink">
<g id="graph0" class="graph" transform="scale(1 1) rotate(0) translate(4 278)">
<title>std::basic_stringstream&lt; _CharT, _Traits, _Alloc &gt;</title>
<!-- Node1 -->
<g id="Node000001" class="node">
<title>Node1</title>
<g id="a_Node000001"><a xlink:title="Controlling input and output for std::string.">
<polygon fill="#999999" stroke="#666666" points="178,-28 44,-28 44,0 178,0 178,-28"/>
<text text-anchor="start" x="52" y="-16.8" font-family="Helvetica,sans-Serif" font-size="9.00">std::basic_stringstream</text>
<text text-anchor="middle" x="111" y="-6.8" font-family="Helvetica,sans-Serif" font-size="9.00">&lt; _CharT, _Traits, _Alloc &gt;</text>
</a>
</g>
</g>
<!-- Node2 -->
<g id="Node000002" class="node">
<title>Node2</title>
<g id="a_Node000002"><a xlink:href="a02773.html" target="_top" xlink:title="Template class basic_iostream.">
<polygon fill="white" stroke="#666666" points="163,-92 59,-92 59,-64 163,-64 163,-92"/>
<text text-anchor="start" x="67" y="-80.8" font-family="Helvetica,sans-Serif" font-size="9.00">std::basic_iostream</text>
<text text-anchor="middle" x="111" y="-70.8" font-family="Helvetica,sans-Serif" font-size="9.00">&lt; _CharT, _Traits &gt;</text>
</a>
</g>
</g>
<!-- Node2&#45;&gt;Node1 -->
<g id="edge1_Node000001_Node000002" class="edge">
<title>Node2&#45;&gt;Node1</title>
<g id="a_edge1_Node000001_Node000002"><a xlink:title=" ">
<path fill="none" stroke="#63b8ff" d="M111,-52.03C111,-43.97 111,-35.33 111,-28.43"/>
<polygon fill="#63b8ff" stroke="#63b8ff" points="107.5,-52.03 111,-62.03 114.5,-52.03 107.5,-52.03"/>
</a>
</g>
</g>
<!-- Node3 -->
<g id="Node000003" class="node">
<title>Node3</title>
<g id="a_Node000003"><a xlink:href="a02765.html" target="_top" xlink:title="Template class basic_istream.">
<polygon fill="white" stroke="#666666" points="102,-156 0,-156 0,-128 102,-128 102,-156"/>
<text text-anchor="start" x="8" y="-144.8" font-family="Helvetica,sans-Serif" font-size="9.00">std::basic_istream</text>
<text text-anchor="middle" x="51" y="-134.8" font-family="Helvetica,sans-Serif" font-size="9.00">&lt; _CharT, _Traits &gt;</text>
</a>
</g>
</g>
<!-- Node3&#45;&gt;Node2 -->
<g id="edge2_Node000002_Node000003" class="edge">
<title>Node3&#45;&gt;Node2</title>
<g id="a_edge2_Node000002_Node000003"><a xlink:title=" ">
<path fill="none" stroke="#63b8ff" d="M71.89,-119.41C80.58,-110.44 90.38,-100.3 98.01,-92.43"/>
<polygon fill="#63b8ff" stroke="#63b8ff" points="69.51,-116.84 65.07,-126.46 74.54,-121.71 69.51,-116.84"/>
</a>
</g>
</g>
<!-- Node4 -->
<g id="Node000004" class="node">
<title>Node4</title>
<g id="a_Node000004"><a xlink:href="a02757.html" target="_top" xlink:title="Template class basic_ios, virtual base class for all stream classes.">
<polygon fill="white" stroke="#666666" points="171.5,-220 50.5,-220 50.5,-192 171.5,-192 171.5,-220"/>
<text text-anchor="start" x="58.5" y="-208.8" font-family="Helvetica,sans-Serif" font-size="9.00">std::basic_ios&lt; _CharT,</text>
<text text-anchor="middle" x="111" y="-198.8" font-family="Helvetica,sans-Serif" font-size="9.00"> _Traits &gt;</text>
</a>
</g>
</g>
<!-- Node4&#45;&gt;Node3 -->
<g id="edge3_Node000003_Node000004" class="edge">
<title>Node4&#45;&gt;Node3</title>
<g id="a_edge3_Node000003_Node000004"><a xlink:title=" ">
<path fill="none" stroke="#63b8ff" d="M90.11,-183.41C81.42,-174.44 71.62,-164.3 63.99,-156.43"/>
<polygon fill="#63b8ff" stroke="#63b8ff" points="87.46,-185.71 96.93,-190.46 92.49,-180.84 87.46,-185.71"/>
</a>
</g>
</g>
<!-- Node6 -->
<g id="Node000006" class="node">
<title>Node6</title>
<g id="a_Node000006"><a xlink:href="a02769.html" target="_top" xlink:title="Template class basic_ostream.">
<polygon fill="white" stroke="#666666" points="222,-156 120,-156 120,-128 222,-128 222,-156"/>
<text text-anchor="start" x="128" y="-144.8" font-family="Helvetica,sans-Serif" font-size="9.00">std::basic_ostream</text>
<text text-anchor="middle" x="171" y="-134.8" font-family="Helvetica,sans-Serif" font-size="9.00">&lt; _CharT, _Traits &gt;</text>
</a>
</g>
</g>
<!-- Node4&#45;&gt;Node6 -->
<g id="edge6_Node000006_Node000004" class="edge">
<title>Node4&#45;&gt;Node6</title>
<g id="a_edge6_Node000006_Node000004"><a xlink:title=" ">
<path fill="none" stroke="#63b8ff" d="M131.89,-183.41C140.58,-174.44 150.38,-164.3 158.01,-156.43"/>
<polygon fill="#63b8ff" stroke="#63b8ff" points="129.51,-180.84 125.07,-190.46 134.54,-185.71 129.51,-180.84"/>
</a>
</g>
</g>
<!-- Node5 -->
<g id="Node000005" class="node">
<title>Node5</title>
<g id="a_Node000005"><a xlink:href="a05973.html" target="_top" xlink:title="The base of the I/O class hierarchy.">
<polygon fill="white" stroke="#666666" points="148,-274 74,-274 74,-256 148,-256 148,-274"/>
<text text-anchor="middle" x="111" y="-262.8" font-family="Helvetica,sans-Serif" font-size="9.00">std::ios_base</text>
</a>
</g>
</g>
<!-- Node5&#45;&gt;Node4 -->
<g id="edge4_Node000004_Node000005" class="edge">
<title>Node5&#45;&gt;Node4</title>
<g id="a_edge4_Node000004_Node000005"><a xlink:title=" ">
<path fill="none" stroke="#63b8ff" d="M111,-244.08C111,-236.21 111,-227.38 111,-220.31"/>
<polygon fill="#63b8ff" stroke="#63b8ff" points="107.5,-244.08 111,-254.08 114.5,-244.08 107.5,-244.08"/>
</a>
</g>
</g>
<!-- Node6&#45;&gt;Node2 -->
<g id="edge5_Node000002_Node000006" class="edge">
<title>Node6&#45;&gt;Node2</title>
<g id="a_edge5_Node000002_Node000006"><a xlink:title=" ">
<path fill="none" stroke="#63b8ff" d="M150.11,-119.41C141.42,-110.44 131.62,-100.3 123.99,-92.43"/>
<polygon fill="#63b8ff" stroke="#63b8ff" points="147.46,-121.71 156.93,-126.46 152.49,-116.84 147.46,-121.71"/>
</a>
</g>
</g>
</g>
</svg>
