<?xml version="1.0" encoding="UTF-8" standalone="no"?>
<!DOCTYPE svg PUBLIC "-//W3C//DTD SVG 1.1//EN"
 "http://www.w3.org/Graphics/SVG/1.1/DTD/svg11.dtd">
<!-- Generated by graphviz version 7.1.0 (0)
 -->
<!-- Title: std::basic_ios&lt; _CharT, _Traits &gt; Pages: 1 -->
<!--zoomable 470 -->

<svg id="main" version="1.1" xmlns="http://www.w3.org/2000/svg" xmlns:xlink="http://www.w3.org/1999/xlink" xml:space="preserve" onload="init(evt)">
<style type="text/css"><![CDATA[
.node, .edge {opacity: 0.7;}
.node.selected, .edge.selected {opacity: 1;}
.edge:hover path { stroke: red; }
.edge:hover polygon { stroke: red; fill: red; }
]]></style>

<defs>
  <circle id="rim" cx="0" cy="0" r="7"/>
  <circle id="rim2" cx="0" cy="0" r="3.5"/>
  <g id="zoomPlus">
    <use xlink:href="#rim" fill="#404040"><set attributeName="fill" to="#808080" begin="zoomplus.mouseover" end="zoomplus.mouseout"/></use>
    <path d="M-4,0h8M0,-4v8" fill="none" stroke="white" stroke-width="1.5" pointer-events="none"/>
  </g>
  <g id="zoomMin">
    <use xlink:href="#rim" fill="#404040"><set attributeName="fill" to="#808080" begin="zoomminus.mouseover" end="zoomminus.mouseout"/></use>
    <path d="M-4,0h8" fill="none" stroke="white" stroke-width="1.5" pointer-events="none"/>
  </g>
  <g id="dirArrow">
    <path fill="none" stroke="white" stroke-width="1.5" d="M0,-3.0v7 M-2.5,-0.5L0,-3.0L2.5,-0.5"/>
  </g>
 <g id="resetDef">
    <use xlink:href="#rim2" fill="#404040"><set attributeName="fill" to="#808080" begin="reset.mouseover" end="reset.mouseout"/></use>
 </g>
</defs>
<script type="text/javascript">
var viewWidth = 727;
var viewHeight = 470;
var sectionId = 'dynsection-0';
</script>
<script xlink:href="svg.min.js"/>
<svg id="graph" class="graph">
<g id="viewport">
<title>std::basic_ios&lt; _CharT, _Traits &gt;</title>
<!-- Node1 -->
<g id="Node000001" class="node">
<title>Node1</title>
<g id="a_Node000001"><a xlink:title="Template class basic_ios, virtual base class for all stream classes.">
<polygon fill="#999999" stroke="#666666" points="231,-291 110,-291 110,-263 231,-263 231,-291"/>
<text text-anchor="start" x="118" y="-279.8" font-family="Helvetica,sans-Serif" font-size="9.00">std::basic_ios&lt; _CharT,</text>
<text text-anchor="middle" x="170.5" y="-269.8" font-family="Helvetica,sans-Serif" font-size="9.00"> _Traits &gt;</text>
</a>
</g>
</g>
<!-- Node3 -->
<g id="Node000003" class="node">
<title>Node3</title>
<g id="a_Node000003"><a xlink:href="a02765.html" target="_top" xlink:title=" ">
<polygon fill="white" stroke="#666666" points="372,-462 274,-462 274,-434 372,-434 372,-462"/>
<text text-anchor="start" x="282" y="-450.8" font-family="Helvetica,sans-Serif" font-size="9.00">std::basic_istream</text>
<text text-anchor="middle" x="323" y="-440.8" font-family="Helvetica,sans-Serif" font-size="9.00">&lt; char &gt;</text>
</a>
</g>
</g>
<!-- Node1&#45;&gt;Node3 -->
<g id="edge2_Node000001_Node000003" class="edge">
<title>Node1&#45;&gt;Node3</title>
<g id="a_edge2_Node000001_Node000003"><a xlink:title=" ">
<path fill="none" stroke="#63b8ff" d="M181.73,-301.58C196.29,-333.89 225.89,-390.59 267,-425 270.89,-428.26 275.3,-431.11 279.9,-433.59"/>
<polygon fill="#63b8ff" stroke="#63b8ff" points="185.03,-300.39 177.81,-292.63 178.61,-303.19 185.03,-300.39"/>
</a>
</g>
</g>
<!-- Node4 -->
<g id="Node000004" class="node">
<title>Node4</title>
<g id="a_Node000004"><a xlink:href="a02765.html" target="_top" xlink:title=" ">
<polygon fill="white" stroke="#666666" points="372,-416 274,-416 274,-388 372,-388 372,-416"/>
<text text-anchor="start" x="282" y="-404.8" font-family="Helvetica,sans-Serif" font-size="9.00">std::basic_istream</text>
<text text-anchor="middle" x="323" y="-394.8" font-family="Helvetica,sans-Serif" font-size="9.00">&lt; char, _Traits &gt;</text>
</a>
</g>
</g>
<!-- Node1&#45;&gt;Node4 -->
<g id="edge3_Node000001_Node000004" class="edge">
<title>Node1&#45;&gt;Node4</title>
<g id="a_edge3_Node000001_Node000004"><a xlink:title=" ">
<path fill="none" stroke="#63b8ff" d="M188.52,-300.25C206.06,-322.87 235.27,-356.96 267,-379 271.59,-382.19 276.69,-385.06 281.88,-387.59"/>
<polygon fill="#63b8ff" stroke="#63b8ff" points="191.49,-298.38 182.65,-292.53 185.92,-302.61 191.49,-298.38"/>
</a>
</g>
</g>
<!-- Node5 -->
<g id="Node000005" class="node">
<title>Node5</title>
<g id="a_Node000005"><a xlink:href="a02765.html" target="_top" xlink:title=" ">
<polygon fill="white" stroke="#666666" points="379,-370 267,-370 267,-332 379,-332 379,-370"/>
<text text-anchor="start" x="275" y="-358.8" font-family="Helvetica,sans-Serif" font-size="9.00">std::basic_istream</text>
<text text-anchor="start" x="275" y="-348.8" font-family="Helvetica,sans-Serif" font-size="9.00">&lt; _CharT, char_traits</text>
<text text-anchor="middle" x="323" y="-338.8" font-family="Helvetica,sans-Serif" font-size="9.00">&lt; _CharT &gt; &gt;</text>
</a>
</g>
</g>
<!-- Node1&#45;&gt;Node5 -->
<g id="edge4_Node000001_Node000005" class="edge">
<title>Node1&#45;&gt;Node5</title>
<g id="a_edge4_Node000001_Node000005"><a xlink:title=" ">
<path fill="none" stroke="#63b8ff" d="M211.21,-296.52C233.21,-307.34 260.47,-320.75 282.45,-331.55"/>
<polygon fill="#63b8ff" stroke="#63b8ff" points="212.75,-293.38 202.23,-292.11 209.66,-299.66 212.75,-293.38"/>
</a>
</g>
</g>
<!-- Node6 -->
<g id="Node000006" class="node">
<title>Node6</title>
<g id="a_Node000006"><a xlink:href="a02769.html" target="_top" xlink:title=" ">
<polygon fill="white" stroke="#666666" points="373.5,-314 272.5,-314 272.5,-286 373.5,-286 373.5,-314"/>
<text text-anchor="start" x="280.5" y="-302.8" font-family="Helvetica,sans-Serif" font-size="9.00">std::basic_ostream</text>
<text text-anchor="middle" x="323" y="-292.8" font-family="Helvetica,sans-Serif" font-size="9.00">&lt; char, _Traits &gt;</text>
</a>
</g>
</g>
<!-- Node1&#45;&gt;Node6 -->
<g id="edge5_Node000001_Node000006" class="edge">
<title>Node1&#45;&gt;Node6</title>
<g id="a_edge5_Node000001_Node000006"><a xlink:title=" ">
<path fill="none" stroke="#63b8ff" d="M242.69,-287.88C252.76,-289.42 262.92,-290.97 272.45,-292.43"/>
<polygon fill="#63b8ff" stroke="#63b8ff" points="243.32,-284.44 232.91,-286.38 242.27,-291.36 243.32,-284.44"/>
</a>
</g>
</g>
<!-- Node7 -->
<g id="Node000007" class="node">
<title>Node7</title>
<g id="a_Node000007"><a xlink:href="a02769.html" target="_top" xlink:title=" ">
<polygon fill="white" stroke="#666666" points="373.5,-268 272.5,-268 272.5,-240 373.5,-240 373.5,-268"/>
<text text-anchor="start" x="280.5" y="-256.8" font-family="Helvetica,sans-Serif" font-size="9.00">std::basic_ostream</text>
<text text-anchor="middle" x="323" y="-246.8" font-family="Helvetica,sans-Serif" font-size="9.00">&lt; char &gt;</text>
</a>
</g>
</g>
<!-- Node1&#45;&gt;Node7 -->
<g id="edge6_Node000001_Node000007" class="edge">
<title>Node1&#45;&gt;Node7</title>
<g id="a_edge6_Node000001_Node000007"><a xlink:title=" ">
<path fill="none" stroke="#63b8ff" d="M242.69,-266.12C252.76,-264.58 262.92,-263.03 272.45,-261.57"/>
<polygon fill="#63b8ff" stroke="#63b8ff" points="242.27,-262.64 232.91,-267.62 243.32,-269.56 242.27,-262.64"/>
</a>
</g>
</g>
<!-- Node8 -->
<g id="Node000008" class="node">
<title>Node8</title>
<g id="a_Node000008"><a xlink:href="a02769.html" target="_top" xlink:title=" ">
<polygon fill="white" stroke="#666666" points="379,-222 267,-222 267,-184 379,-184 379,-222"/>
<text text-anchor="start" x="275" y="-210.8" font-family="Helvetica,sans-Serif" font-size="9.00">std::basic_ostream</text>
<text text-anchor="start" x="275" y="-200.8" font-family="Helvetica,sans-Serif" font-size="9.00">&lt; _CharT, char_traits</text>
<text text-anchor="middle" x="323" y="-190.8" font-family="Helvetica,sans-Serif" font-size="9.00">&lt; _CharT &gt; &gt;</text>
</a>
</g>
</g>
<!-- Node1&#45;&gt;Node8 -->
<g id="edge7_Node000001_Node000008" class="edge">
<title>Node1&#45;&gt;Node8</title>
<g id="a_edge7_Node000001_Node000008"><a xlink:title=" ">
<path fill="none" stroke="#63b8ff" d="M211.21,-257.48C233.21,-246.66 260.47,-233.25 282.45,-222.45"/>
<polygon fill="#63b8ff" stroke="#63b8ff" points="209.66,-254.34 202.23,-261.89 212.75,-260.62 209.66,-254.34"/>
</a>
</g>
</g>
<!-- Node9 -->
<g id="Node000009" class="node">
<title>Node9</title>
<g id="a_Node000009"><a xlink:href="a02765.html" target="_top" xlink:title="Template class basic_istream.">
<polygon fill="white" stroke="#666666" points="374,-120 272,-120 272,-92 374,-92 374,-120"/>
<text text-anchor="start" x="280" y="-108.8" font-family="Helvetica,sans-Serif" font-size="9.00">std::basic_istream</text>
<text text-anchor="middle" x="323" y="-98.8" font-family="Helvetica,sans-Serif" font-size="9.00">&lt; _CharT, _Traits &gt;</text>
</a>
</g>
</g>
<!-- Node1&#45;&gt;Node9 -->
<g id="edge8_Node000001_Node000009" class="edge">
<title>Node1&#45;&gt;Node9</title>
<g id="a_edge8_Node000001_Node000009"><a xlink:title=" ">
<path fill="none" stroke="#63b8ff" d="M181.73,-252.42C196.29,-220.11 225.89,-163.41 267,-129 270.89,-125.74 275.3,-122.89 279.9,-120.41"/>
<polygon fill="#63b8ff" stroke="#63b8ff" points="178.61,-250.81 177.81,-261.37 185.03,-253.61 178.61,-250.81"/>
</a>
</g>
</g>
<!-- Node16 -->
<g id="Node000016" class="node">
<title>Node16</title>
<g id="a_Node000016"><a xlink:href="a02769.html" target="_top" xlink:title="Template class basic_ostream.">
<polygon fill="white" stroke="#666666" points="374,-166 272,-166 272,-138 374,-138 374,-166"/>
<text text-anchor="start" x="280" y="-154.8" font-family="Helvetica,sans-Serif" font-size="9.00">std::basic_ostream</text>
<text text-anchor="middle" x="323" y="-144.8" font-family="Helvetica,sans-Serif" font-size="9.00">&lt; _CharT, _Traits &gt;</text>
</a>
</g>
</g>
<!-- Node1&#45;&gt;Node16 -->
<g id="edge15_Node000001_Node000016" class="edge">
<title>Node1&#45;&gt;Node16</title>
<g id="a_edge15_Node000001_Node000016"><a xlink:title=" ">
<path fill="none" stroke="#63b8ff" d="M188.52,-253.75C206.06,-231.13 235.27,-197.04 267,-175 271.59,-171.81 276.69,-168.94 281.88,-166.41"/>
<polygon fill="#63b8ff" stroke="#63b8ff" points="185.92,-251.39 182.65,-261.47 191.49,-255.62 185.92,-251.39"/>
</a>
</g>
</g>
<!-- Node2 -->
<g id="Node000002" class="node">
<title>Node2</title>
<g id="a_Node000002"><a xlink:href="a05973.html" target="_top" xlink:title="The base of the I/O class hierarchy.">
<polygon fill="white" stroke="#666666" points="74,-286 0,-286 0,-268 74,-268 74,-286"/>
<text text-anchor="middle" x="37" y="-274.8" font-family="Helvetica,sans-Serif" font-size="9.00">std::ios_base</text>
</a>
</g>
</g>
<!-- Node2&#45;&gt;Node1 -->
<g id="edge1_Node000001_Node000002" class="edge">
<title>Node2&#45;&gt;Node1</title>
<g id="a_edge1_Node000001_Node000002"><a xlink:title=" ">
<path fill="none" stroke="#63b8ff" d="M85.72,-277C93.48,-277 101.6,-277 109.61,-277"/>
<polygon fill="#63b8ff" stroke="#63b8ff" points="85.79,-273.5 75.79,-277 85.79,-280.5 85.79,-273.5"/>
</a>
</g>
</g>
<!-- Node10 -->
<g id="Node000010" class="node">
<title>Node10</title>
<g id="a_Node000010"><a xlink:href="a02773.html" target="_top" xlink:title=" ">
<polygon fill="white" stroke="#666666" points="534,-166 430,-166 430,-138 534,-138 534,-166"/>
<text text-anchor="start" x="438" y="-154.8" font-family="Helvetica,sans-Serif" font-size="9.00">std::basic_iostream</text>
<text text-anchor="middle" x="482" y="-144.8" font-family="Helvetica,sans-Serif" font-size="9.00">&lt; char &gt;</text>
</a>
</g>
</g>
<!-- Node9&#45;&gt;Node10 -->
<g id="edge9_Node000009_Node000010" class="edge">
<title>Node9&#45;&gt;Node10</title>
<g id="a_edge9_Node000009_Node000010"><a xlink:title=" ">
<path fill="none" stroke="#63b8ff" d="M383.95,-123.57C399.71,-128.18 416.53,-133.11 431.66,-137.54"/>
<polygon fill="#63b8ff" stroke="#63b8ff" points="385.28,-120.31 374.7,-120.85 383.31,-127.02 385.28,-120.31"/>
</a>
</g>
</g>
<!-- Node11 -->
<g id="Node000011" class="node">
<title>Node11</title>
<g id="a_Node000011"><a xlink:href="a02493.html" target="_top" xlink:title="Controlling input for files.">
<polygon fill="white" stroke="#666666" points="533,-74 431,-74 431,-46 533,-46 533,-74"/>
<text text-anchor="start" x="439" y="-62.8" font-family="Helvetica,sans-Serif" font-size="9.00">std::basic_ifstream</text>
<text text-anchor="middle" x="482" y="-52.8" font-family="Helvetica,sans-Serif" font-size="9.00">&lt; _CharT, _Traits &gt;</text>
</a>
</g>
</g>
<!-- Node9&#45;&gt;Node11 -->
<g id="edge10_Node000009_Node000011" class="edge">
<title>Node9&#45;&gt;Node11</title>
<g id="a_edge10_Node000009_Node000011"><a xlink:title=" ">
<path fill="none" stroke="#63b8ff" d="M383.95,-88.43C399.71,-83.82 416.53,-78.89 431.66,-74.46"/>
<polygon fill="#63b8ff" stroke="#63b8ff" points="383.31,-84.98 374.7,-91.15 385.28,-91.69 383.31,-84.98"/>
</a>
</g>
</g>
<!-- Node12 -->
<g id="Node000012" class="node">
<title>Node12</title>
<g id="a_Node000012"><a xlink:href="a02773.html" target="_top" xlink:title="Template class basic_iostream.">
<polygon fill="white" stroke="#666666" points="534,-120 430,-120 430,-92 534,-92 534,-120"/>
<text text-anchor="start" x="438" y="-108.8" font-family="Helvetica,sans-Serif" font-size="9.00">std::basic_iostream</text>
<text text-anchor="middle" x="482" y="-98.8" font-family="Helvetica,sans-Serif" font-size="9.00">&lt; _CharT, _Traits &gt;</text>
</a>
</g>
</g>
<!-- Node9&#45;&gt;Node12 -->
<g id="edge11_Node000009_Node000012" class="edge">
<title>Node9&#45;&gt;Node12</title>
<g id="a_edge11_Node000009_Node000012"><a xlink:title=" ">
<path fill="none" stroke="#63b8ff" d="M385.61,-106C400.22,-106 415.66,-106 429.75,-106"/>
<polygon fill="#63b8ff" stroke="#63b8ff" points="385.62,-102.5 375.62,-106 385.62,-109.5 385.62,-102.5"/>
</a>
</g>
</g>
<!-- Node15 -->
<g id="Node000015" class="node">
<title>Node15</title>
<g id="a_Node000015"><a xlink:href="a02781.html" target="_top" xlink:title="Controlling input for std::string.">
<polygon fill="white" stroke="#666666" points="549,-28 415,-28 415,0 549,0 549,-28"/>
<text text-anchor="start" x="423" y="-16.8" font-family="Helvetica,sans-Serif" font-size="9.00">std::basic_istringstream</text>
<text text-anchor="middle" x="482" y="-6.8" font-family="Helvetica,sans-Serif" font-size="9.00">&lt; _CharT, _Traits, _Alloc &gt;</text>
</a>
</g>
</g>
<!-- Node9&#45;&gt;Node15 -->
<g id="edge14_Node000009_Node000015" class="edge">
<title>Node9&#45;&gt;Node15</title>
<g id="a_edge14_Node000009_Node000015"><a xlink:title=" ">
<path fill="none" stroke="#63b8ff" d="M348.18,-84.3C365.74,-69.42 390.6,-50.08 415,-37 420.88,-33.85 427.28,-30.99 433.71,-28.44"/>
<polygon fill="#63b8ff" stroke="#63b8ff" points="346.13,-81.45 340.85,-90.63 350.71,-86.75 346.13,-81.45"/>
</a>
</g>
</g>
<!-- Node13 -->
<g id="Node000013" class="node">
<title>Node13</title>
<g id="a_Node000013"><a xlink:href="a02501.html" target="_top" xlink:title="Controlling input and output for files.">
<polygon fill="white" stroke="#666666" points="703,-143 601,-143 601,-115 703,-115 703,-143"/>
<text text-anchor="start" x="609" y="-131.8" font-family="Helvetica,sans-Serif" font-size="9.00">std::basic_fstream</text>
<text text-anchor="middle" x="652" y="-121.8" font-family="Helvetica,sans-Serif" font-size="9.00">&lt; _CharT, _Traits &gt;</text>
</a>
</g>
</g>
<!-- Node12&#45;&gt;Node13 -->
<g id="edge12_Node000012_Node000013" class="edge">
<title>Node12&#45;&gt;Node13</title>
<g id="a_edge12_Node000012_Node000013"><a xlink:title=" ">
<path fill="none" stroke="#63b8ff" d="M545.68,-114.58C563.79,-117.06 583.31,-119.73 600.57,-122.1"/>
<polygon fill="#63b8ff" stroke="#63b8ff" points="546.2,-111.12 535.82,-113.23 545.25,-118.06 546.2,-111.12"/>
</a>
</g>
</g>
<!-- Node14 -->
<g id="Node000014" class="node">
<title>Node14</title>
<g id="a_Node000014"><a xlink:href="a02789.html" target="_top" xlink:title="Controlling input and output for std::string.">
<polygon fill="white" stroke="#666666" points="719,-97 585,-97 585,-69 719,-69 719,-97"/>
<text text-anchor="start" x="593" y="-85.8" font-family="Helvetica,sans-Serif" font-size="9.00">std::basic_stringstream</text>
<text text-anchor="middle" x="652" y="-75.8" font-family="Helvetica,sans-Serif" font-size="9.00">&lt; _CharT, _Traits, _Alloc &gt;</text>
</a>
</g>
</g>
<!-- Node12&#45;&gt;Node14 -->
<g id="edge13_Node000012_Node000014" class="edge">
<title>Node12&#45;&gt;Node14</title>
<g id="a_edge13_Node000012_Node000014"><a xlink:title=" ">
<path fill="none" stroke="#63b8ff" d="M545.39,-97.46C558.24,-95.7 571.82,-93.84 584.8,-92.06"/>
<polygon fill="#63b8ff" stroke="#63b8ff" points="545.25,-93.94 535.82,-98.77 546.2,-100.88 545.25,-93.94"/>
</a>
</g>
</g>
<!-- Node16&#45;&gt;Node10 -->
<g id="edge16_Node000016_Node000010" class="edge">
<title>Node16&#45;&gt;Node10</title>
<g id="a_edge16_Node000016_Node000010"><a xlink:title=" ">
<path fill="none" stroke="#63b8ff" d="M385.61,-152C400.22,-152 415.66,-152 429.75,-152"/>
<polygon fill="#63b8ff" stroke="#63b8ff" points="385.62,-148.5 375.62,-152 385.62,-155.5 385.62,-148.5"/>
</a>
</g>
</g>
<!-- Node16&#45;&gt;Node12 -->
<g id="edge17_Node000016_Node000012" class="edge">
<title>Node16&#45;&gt;Node12</title>
<g id="a_edge17_Node000016_Node000012"><a xlink:title=" ">
<path fill="none" stroke="#63b8ff" d="M383.95,-134.43C399.71,-129.82 416.53,-124.89 431.66,-120.46"/>
<polygon fill="#63b8ff" stroke="#63b8ff" points="383.31,-130.98 374.7,-137.15 385.28,-137.69 383.31,-130.98"/>
</a>
</g>
</g>
<!-- Node17 -->
<g id="Node000017" class="node">
<title>Node17</title>
<g id="a_Node000017"><a xlink:href="a02497.html" target="_top" xlink:title="Controlling output for files.">
<polygon fill="white" stroke="#666666" points="534,-258 430,-258 430,-230 534,-230 534,-258"/>
<text text-anchor="start" x="438" y="-246.8" font-family="Helvetica,sans-Serif" font-size="9.00">std::basic_ofstream</text>
<text text-anchor="middle" x="482" y="-236.8" font-family="Helvetica,sans-Serif" font-size="9.00">&lt; _CharT, _Traits &gt;</text>
</a>
</g>
</g>
<!-- Node16&#45;&gt;Node17 -->
<g id="edge18_Node000016_Node000017" class="edge">
<title>Node16&#45;&gt;Node17</title>
<g id="a_edge18_Node000016_Node000017"><a xlink:title=" ">
<path fill="none" stroke="#63b8ff" d="M374.93,-172.11C376.33,-173.04 377.69,-174 379,-175 399.64,-190.74 393.89,-205.89 415,-221 419.54,-224.25 424.58,-227.07 429.79,-229.52"/>
<polygon fill="#63b8ff" stroke="#63b8ff" points="376.96,-169.24 366.55,-167.23 373.43,-175.29 376.96,-169.24"/>
</a>
</g>
</g>
<!-- Node18 -->
<g id="Node000018" class="node">
<title>Node18</title>
<g id="a_Node000018"><a xlink:href="a02785.html" target="_top" xlink:title="Controlling output for std::string.">
<polygon fill="white" stroke="#666666" points="549,-212 415,-212 415,-184 549,-184 549,-212"/>
<text text-anchor="start" x="423" y="-200.8" font-family="Helvetica,sans-Serif" font-size="9.00">std::basic_ostringstream</text>
<text text-anchor="middle" x="482" y="-190.8" font-family="Helvetica,sans-Serif" font-size="9.00">&lt; _CharT, _Traits, _Alloc &gt;</text>
</a>
</g>
</g>
<!-- Node16&#45;&gt;Node18 -->
<g id="edge19_Node000016_Node000018" class="edge">
<title>Node16&#45;&gt;Node18</title>
<g id="a_edge19_Node000016_Node000018"><a xlink:title=" ">
<path fill="none" stroke="#63b8ff" d="M383.95,-169.57C399.71,-174.18 416.53,-179.11 431.66,-183.54"/>
<polygon fill="#63b8ff" stroke="#63b8ff" points="385.28,-166.31 374.7,-166.85 383.31,-173.02 385.28,-166.31"/>
</a>
</g>
</g>
</g>
</svg>

<g id="navigator" transform="translate(0 0)" fill="#404254">
  <rect fill="#f2f5e9" fill-opacity="0.5" stroke="#606060" stroke-width=".5" x="0" y="0" width="60" height="60"/>
  <use id="zoomplus" xlink:href="#zoomPlus" x="17" y="9" onmousedown="handleZoom(evt,'in')"/>
  <use id="zoomminus" xlink:href="#zoomMin" x="42" y="9" onmousedown="handleZoom(evt,'out')"/>
  <use id="reset" xlink:href="#resetDef" x="30" y="36" onmousedown="handleReset()"/>
  <g id="arrowUp" xlink:href="#dirArrow" transform="translate(30 24)" onmousedown="handlePan(0,-1)">
    <use xlink:href="#rim" fill="#404040">
          <set attributeName="fill" to="#808080" begin="arrowUp.mouseover" end="arrowUp.mouseout"/>
    </use>
    <path fill="none" stroke="white" stroke-width="1.5" d="M0,-3.0v7 M-2.5,-0.5L0,-3.0L2.5,-0.5"/>
  </g>
  <g id="arrowRight" xlink:href="#dirArrow" transform="rotate(90) translate(36 -43)" onmousedown="handlePan(1,0)">
    <use xlink:href="#rim" fill="#404040">
          <set attributeName="fill" to="#808080" begin="arrowRight.mouseover" end="arrowRight.mouseout"/>
    </use>
    <path fill="none" stroke="white" stroke-width="1.5" d="M0,-3.0v7 M-2.5,-0.5L0,-3.0L2.5,-0.5"/>
  </g>
  <g id="arrowDown" xlink:href="#dirArrow" transform="rotate(180) translate(-30 -48)" onmousedown="handlePan(0,1)">
    <use xlink:href="#rim" fill="#404040">
          <set attributeName="fill" to="#808080" begin="arrowDown.mouseover" end="arrowDown.mouseout"/>
    </use>
    <path fill="none" stroke="white" stroke-width="1.5" d="M0,-3.0v7 M-2.5,-0.5L0,-3.0L2.5,-0.5"/>
  </g>
  <g id="arrowLeft" xlink:href="#dirArrow" transform="rotate(270) translate(-36 17)" onmousedown="handlePan(-1,0)">
    <use xlink:href="#rim" fill="#404040">
          <set attributeName="fill" to="#808080" begin="arrowLeft.mouseover" end="arrowLeft.mouseout"/>
    </use>
    <path fill="none" stroke="white" stroke-width="1.5" d="M0,-3.0v7 M-2.5,-0.5L0,-3.0L2.5,-0.5"/>
  </g>
</g>
<svg viewBox="0 0 15 15" width="100%" height="30px" preserveAspectRatio="xMaxYMin meet">
 <g id="arrow_out" transform="scale(0.3 0.3)">
  <a xlink:href="a02756_org.svg" target="_base">
   <rect id="button" ry="5" rx="5" y="6" x="6" height="38" width="38"
        fill="#f2f5e9" fill-opacity="0.5" stroke="#606060" stroke-width="1.0"/>
   <path id="arrow"
     d="M 11.500037,31.436501 C 11.940474,20.09759 22.043105,11.32322 32.158766,21.979434 L 37.068811,17.246167 C 37.068811,17.246167 37.088388,32 37.088388,32 L 22.160133,31.978069 C 22.160133,31.978069 26.997745,27.140456 26.997745,27.140456 C 18.528582,18.264221 13.291696,25.230495 11.500037,31.436501 z"
     style="fill:#404040;"/>
  </a>
 </g>
</svg>

<style type='text/css'>
<![CDATA[
[data-mouse-over-selected='false'] { opacity: 0.7; }
[data-mouse-over-selected='true']  { opacity: 1.0; }
]]>
</style>
<script><![CDATA[
document.addEventListener('DOMContentLoaded', (event) => {
  highlightEdges();
  highlightAdjacentNodes();
});
]]></script>
</svg>
