<?xml version="1.0" encoding="UTF-8" standalone="no"?>
<!DOCTYPE svg PUBLIC "-//W3C//DTD SVG 1.1//EN"
 "http://www.w3.org/Graphics/SVG/1.1/DTD/svg11.dtd">
<!-- Generated by graphviz version 7.1.0 (0)
 -->
<!-- Title: std::basic_iostream&lt; _CharT, _Traits &gt; Pages: 1 -->
<!--zoomable 82 -->

<svg id="main" version="1.1" xmlns="http://www.w3.org/2000/svg" xmlns:xlink="http://www.w3.org/1999/xlink" xml:space="preserve" onload="init(evt)">
<style type="text/css"><![CDATA[
.node, .edge {opacity: 0.7;}
.node.selected, .edge.selected {opacity: 1;}
.edge:hover path { stroke: red; }
.edge:hover polygon { stroke: red; fill: red; }
]]></style>

<defs>
  <circle id="rim" cx="0" cy="0" r="7"/>
  <circle id="rim2" cx="0" cy="0" r="3.5"/>
  <g id="zoomPlus">
    <use xlink:href="#rim" fill="#404040"><set attributeName="fill" to="#808080" begin="zoomplus.mouseover" end="zoomplus.mouseout"/></use>
    <path d="M-4,0h8M0,-4v8" fill="none" stroke="white" stroke-width="1.5" pointer-events="none"/>
  </g>
  <g id="zoomMin">
    <use xlink:href="#rim" fill="#404040"><set attributeName="fill" to="#808080" begin="zoomminus.mouseover" end="zoomminus.mouseout"/></use>
    <path d="M-4,0h8" fill="none" stroke="white" stroke-width="1.5" pointer-events="none"/>
  </g>
  <g id="dirArrow">
    <path fill="none" stroke="white" stroke-width="1.5" d="M0,-3.0v7 M-2.5,-0.5L0,-3.0L2.5,-0.5"/>
  </g>
 <g id="resetDef">
    <use xlink:href="#rim2" fill="#404040"><set attributeName="fill" to="#808080" begin="reset.mouseover" end="reset.mouseout"/></use>
 </g>
</defs>
<script type="text/javascript">
var viewWidth = 687;
var viewHeight = 82;
var sectionId = 'dynsection-0';
</script>
<script xlink:href="svg.min.js"/>
<svg id="graph" class="graph">
<g id="viewport">
<title>std::basic_iostream&lt; _CharT, _Traits &gt;</title>
<!-- Node1 -->
<g id="Node000001" class="node">
<title>Node1</title>
<g id="a_Node000001"><a xlink:title="Template class basic_iostream.">
<polygon fill="#999999" stroke="#666666" points="509,-51 405,-51 405,-23 509,-23 509,-51"/>
<text text-anchor="start" x="413" y="-39.8" font-family="Helvetica,sans-Serif" font-size="9.00">std::basic_iostream</text>
<text text-anchor="middle" x="457" y="-29.8" font-family="Helvetica,sans-Serif" font-size="9.00">&lt; _CharT, _Traits &gt;</text>
</a>
</g>
</g>
<!-- Node6 -->
<g id="Node000006" class="node">
<title>Node6</title>
<g id="a_Node000006"><a xlink:href="a02501.html" target="_top" xlink:title="Controlling input and output for files.">
<polygon fill="white" stroke="#666666" points="663,-74 561,-74 561,-46 663,-46 663,-74"/>
<text text-anchor="start" x="569" y="-62.8" font-family="Helvetica,sans-Serif" font-size="9.00">std::basic_fstream</text>
<text text-anchor="middle" x="612" y="-52.8" font-family="Helvetica,sans-Serif" font-size="9.00">&lt; _CharT, _Traits &gt;</text>
</a>
</g>
</g>
<!-- Node1&#45;&gt;Node6 -->
<g id="edge6_Node000001_Node000006" class="edge">
<title>Node1&#45;&gt;Node6</title>
<g id="a_edge6_Node000001_Node000006"><a xlink:title=" ">
<path fill="none" stroke="#63b8ff" d="M520.41,-46.38C533.76,-48.39 547.71,-50.49 560.54,-52.41"/>
<polygon fill="#63b8ff" stroke="#63b8ff" points="521.28,-42.97 510.87,-44.95 520.24,-49.9 521.28,-42.97"/>
</a>
</g>
</g>
<!-- Node7 -->
<g id="Node000007" class="node">
<title>Node7</title>
<g id="a_Node000007"><a xlink:href="a02789.html" target="_top" xlink:title="Controlling input and output for std::string.">
<polygon fill="white" stroke="#666666" points="679,-28 545,-28 545,0 679,0 679,-28"/>
<text text-anchor="start" x="553" y="-16.8" font-family="Helvetica,sans-Serif" font-size="9.00">std::basic_stringstream</text>
<text text-anchor="middle" x="612" y="-6.8" font-family="Helvetica,sans-Serif" font-size="9.00">&lt; _CharT, _Traits, _Alloc &gt;</text>
</a>
</g>
</g>
<!-- Node1&#45;&gt;Node7 -->
<g id="edge7_Node000001_Node000007" class="edge">
<title>Node1&#45;&gt;Node7</title>
<g id="a_edge7_Node000001_Node000007"><a xlink:title=" ">
<path fill="none" stroke="#63b8ff" d="M520.71,-27.57C528.57,-26.39 536.63,-25.18 544.55,-23.99"/>
<polygon fill="#63b8ff" stroke="#63b8ff" points="520.24,-24.1 510.87,-29.05 521.28,-31.03 520.24,-24.1"/>
</a>
</g>
</g>
<!-- Node2 -->
<g id="Node000002" class="node">
<title>Node2</title>
<g id="a_Node000002"><a xlink:href="a02765.html" target="_top" xlink:title="Template class basic_istream.">
<polygon fill="white" stroke="#666666" points="369,-74 267,-74 267,-46 369,-46 369,-74"/>
<text text-anchor="start" x="275" y="-62.8" font-family="Helvetica,sans-Serif" font-size="9.00">std::basic_istream</text>
<text text-anchor="middle" x="318" y="-52.8" font-family="Helvetica,sans-Serif" font-size="9.00">&lt; _CharT, _Traits &gt;</text>
</a>
</g>
</g>
<!-- Node2&#45;&gt;Node1 -->
<g id="edge1_Node000001_Node000002" class="edge">
<title>Node2&#45;&gt;Node1</title>
<g id="a_edge1_Node000001_Node000002"><a xlink:title=" ">
<path fill="none" stroke="#63b8ff" d="M380.57,-49.66C388.69,-48.3 396.94,-46.92 404.85,-45.59"/>
<polygon fill="#63b8ff" stroke="#63b8ff" points="380.01,-46.21 370.73,-51.32 381.17,-53.11 380.01,-46.21"/>
</a>
</g>
</g>
<!-- Node3 -->
<g id="Node000003" class="node">
<title>Node3</title>
<g id="a_Node000003"><a xlink:href="a02757.html" target="_top" xlink:title="Template class basic_ios, virtual base class for all stream classes.">
<polygon fill="white" stroke="#666666" points="231,-51 110,-51 110,-23 231,-23 231,-51"/>
<text text-anchor="start" x="118" y="-39.8" font-family="Helvetica,sans-Serif" font-size="9.00">std::basic_ios&lt; _CharT,</text>
<text text-anchor="middle" x="170.5" y="-29.8" font-family="Helvetica,sans-Serif" font-size="9.00"> _Traits &gt;</text>
</a>
</g>
</g>
<!-- Node3&#45;&gt;Node2 -->
<g id="edge2_Node000002_Node000003" class="edge">
<title>Node3&#45;&gt;Node2</title>
<g id="a_edge2_Node000002_Node000003"><a xlink:title=" ">
<path fill="none" stroke="#63b8ff" d="M242.24,-48.18C250.45,-49.48 258.69,-50.78 266.55,-52.03"/>
<polygon fill="#63b8ff" stroke="#63b8ff" points="243.02,-44.76 232.6,-46.66 241.93,-51.68 243.02,-44.76"/>
</a>
</g>
</g>
<!-- Node5 -->
<g id="Node000005" class="node">
<title>Node5</title>
<g id="a_Node000005"><a xlink:href="a02769.html" target="_top" xlink:title="Template class basic_ostream.">
<polygon fill="white" stroke="#666666" points="369,-28 267,-28 267,0 369,0 369,-28"/>
<text text-anchor="start" x="275" y="-16.8" font-family="Helvetica,sans-Serif" font-size="9.00">std::basic_ostream</text>
<text text-anchor="middle" x="318" y="-6.8" font-family="Helvetica,sans-Serif" font-size="9.00">&lt; _CharT, _Traits &gt;</text>
</a>
</g>
</g>
<!-- Node3&#45;&gt;Node5 -->
<g id="edge5_Node000005_Node000003" class="edge">
<title>Node3&#45;&gt;Node5</title>
<g id="a_edge5_Node000005_Node000003"><a xlink:title=" ">
<path fill="none" stroke="#63b8ff" d="M242.24,-25.82C250.45,-24.52 258.69,-23.22 266.55,-21.97"/>
<polygon fill="#63b8ff" stroke="#63b8ff" points="241.93,-22.32 232.6,-27.34 243.02,-29.24 241.93,-22.32"/>
</a>
</g>
</g>
<!-- Node4 -->
<g id="Node000004" class="node">
<title>Node4</title>
<g id="a_Node000004"><a xlink:href="a05973.html" target="_top" xlink:title="The base of the I/O class hierarchy.">
<polygon fill="white" stroke="#666666" points="74,-46 0,-46 0,-28 74,-28 74,-46"/>
<text text-anchor="middle" x="37" y="-34.8" font-family="Helvetica,sans-Serif" font-size="9.00">std::ios_base</text>
</a>
</g>
</g>
<!-- Node4&#45;&gt;Node3 -->
<g id="edge3_Node000003_Node000004" class="edge">
<title>Node4&#45;&gt;Node3</title>
<g id="a_edge3_Node000003_Node000004"><a xlink:title=" ">
<path fill="none" stroke="#63b8ff" d="M85.72,-37C93.48,-37 101.6,-37 109.61,-37"/>
<polygon fill="#63b8ff" stroke="#63b8ff" points="85.79,-33.5 75.79,-37 85.79,-40.5 85.79,-33.5"/>
</a>
</g>
</g>
<!-- Node5&#45;&gt;Node1 -->
<g id="edge4_Node000001_Node000005" class="edge">
<title>Node5&#45;&gt;Node1</title>
<g id="a_edge4_Node000001_Node000005"><a xlink:title=" ">
<path fill="none" stroke="#63b8ff" d="M380.57,-24.34C388.69,-25.7 396.94,-27.08 404.85,-28.41"/>
<polygon fill="#63b8ff" stroke="#63b8ff" points="381.17,-20.89 370.73,-22.68 380.01,-27.79 381.17,-20.89"/>
</a>
</g>
</g>
</g>
</svg>

<g id="navigator" transform="translate(0 0)" fill="#404254">
  <rect fill="#f2f5e9" fill-opacity="0.5" stroke="#606060" stroke-width=".5" x="0" y="0" width="60" height="60"/>
  <use id="zoomplus" xlink:href="#zoomPlus" x="17" y="9" onmousedown="handleZoom(evt,'in')"/>
  <use id="zoomminus" xlink:href="#zoomMin" x="42" y="9" onmousedown="handleZoom(evt,'out')"/>
  <use id="reset" xlink:href="#resetDef" x="30" y="36" onmousedown="handleReset()"/>
  <g id="arrowUp" xlink:href="#dirArrow" transform="translate(30 24)" onmousedown="handlePan(0,-1)">
    <use xlink:href="#rim" fill="#404040">
          <set attributeName="fill" to="#808080" begin="arrowUp.mouseover" end="arrowUp.mouseout"/>
    </use>
    <path fill="none" stroke="white" stroke-width="1.5" d="M0,-3.0v7 M-2.5,-0.5L0,-3.0L2.5,-0.5"/>
  </g>
  <g id="arrowRight" xlink:href="#dirArrow" transform="rotate(90) translate(36 -43)" onmousedown="handlePan(1,0)">
    <use xlink:href="#rim" fill="#404040">
          <set attributeName="fill" to="#808080" begin="arrowRight.mouseover" end="arrowRight.mouseout"/>
    </use>
    <path fill="none" stroke="white" stroke-width="1.5" d="M0,-3.0v7 M-2.5,-0.5L0,-3.0L2.5,-0.5"/>
  </g>
  <g id="arrowDown" xlink:href="#dirArrow" transform="rotate(180) translate(-30 -48)" onmousedown="handlePan(0,1)">
    <use xlink:href="#rim" fill="#404040">
          <set attributeName="fill" to="#808080" begin="arrowDown.mouseover" end="arrowDown.mouseout"/>
    </use>
    <path fill="none" stroke="white" stroke-width="1.5" d="M0,-3.0v7 M-2.5,-0.5L0,-3.0L2.5,-0.5"/>
  </g>
  <g id="arrowLeft" xlink:href="#dirArrow" transform="rotate(270) translate(-36 17)" onmousedown="handlePan(-1,0)">
    <use xlink:href="#rim" fill="#404040">
          <set attributeName="fill" to="#808080" begin="arrowLeft.mouseover" end="arrowLeft.mouseout"/>
    </use>
    <path fill="none" stroke="white" stroke-width="1.5" d="M0,-3.0v7 M-2.5,-0.5L0,-3.0L2.5,-0.5"/>
  </g>
</g>
<svg viewBox="0 0 15 15" width="100%" height="30px" preserveAspectRatio="xMaxYMin meet">
 <g id="arrow_out" transform="scale(0.3 0.3)">
  <a xlink:href="a02772_org.svg" target="_base">
   <rect id="button" ry="5" rx="5" y="6" x="6" height="38" width="38"
        fill="#f2f5e9" fill-opacity="0.5" stroke="#606060" stroke-width="1.0"/>
   <path id="arrow"
     d="M 11.500037,31.436501 C 11.940474,20.09759 22.043105,11.32322 32.158766,21.979434 L 37.068811,17.246167 C 37.068811,17.246167 37.088388,32 37.088388,32 L 22.160133,31.978069 C 22.160133,31.978069 26.997745,27.140456 26.997745,27.140456 C 18.528582,18.264221 13.291696,25.230495 11.500037,31.436501 z"
     style="fill:#404040;"/>
  </a>
 </g>
</svg>

<style type='text/css'>
<![CDATA[
[data-mouse-over-selected='false'] { opacity: 0.7; }
[data-mouse-over-selected='true']  { opacity: 1.0; }
]]>
</style>
<script><![CDATA[
document.addEventListener('DOMContentLoaded', (event) => {
  highlightEdges();
  highlightAdjacentNodes();
});
]]></script>
</svg>
