<?xml version="1.0" encoding="UTF-8" standalone="no"?>
<!DOCTYPE svg PUBLIC "-//W3C//DTD SVG 1.1//EN"
 "http://www.w3.org/Graphics/SVG/1.1/DTD/svg11.dtd">
<!-- Generated by graphviz version 7.1.0 (0)
 -->
<!-- Title: std::basic_iostream&lt; _CharT, _Traits &gt; Pages: 1 -->
<svg width="687pt" height="82pt"
 viewBox="0.00 0.00 687.00 82.00" xmlns="http://www.w3.org/2000/svg" xmlns:xlink="http://www.w3.org/1999/xlink">
<g id="graph0" class="graph" transform="scale(1 1) rotate(0) translate(4 78)">
<title>std::basic_iostream&lt; _CharT, _Traits &gt;</title>
<!-- Node1 -->
<g id="Node000001" class="node">
<title>Node1</title>
<g id="a_Node000001"><a xlink:title="Template class basic_iostream.">
<polygon fill="#999999" stroke="#666666" points="509,-51 405,-51 405,-23 509,-23 509,-51"/>
<text text-anchor="start" x="413" y="-39.8" font-family="Helvetica,sans-Serif" font-size="9.00">std::basic_iostream</text>
<text text-anchor="middle" x="457" y="-29.8" font-family="Helvetica,sans-Serif" font-size="9.00">&lt; _CharT, _Traits &gt;</text>
</a>
</g>
</g>
<!-- Node6 -->
<g id="Node000006" class="node">
<title>Node6</title>
<g id="a_Node000006"><a xlink:href="a02501.html" target="_top" xlink:title="Controlling input and output for files.">
<polygon fill="white" stroke="#666666" points="663,-74 561,-74 561,-46 663,-46 663,-74"/>
<text text-anchor="start" x="569" y="-62.8" font-family="Helvetica,sans-Serif" font-size="9.00">std::basic_fstream</text>
<text text-anchor="middle" x="612" y="-52.8" font-family="Helvetica,sans-Serif" font-size="9.00">&lt; _CharT, _Traits &gt;</text>
</a>
</g>
</g>
<!-- Node1&#45;&gt;Node6 -->
<g id="edge6_Node000001_Node000006" class="edge">
<title>Node1&#45;&gt;Node6</title>
<g id="a_edge6_Node000001_Node000006"><a xlink:title=" ">
<path fill="none" stroke="#63b8ff" d="M520.41,-46.38C533.76,-48.39 547.71,-50.49 560.54,-52.41"/>
<polygon fill="#63b8ff" stroke="#63b8ff" points="521.28,-42.97 510.87,-44.95 520.24,-49.9 521.28,-42.97"/>
</a>
</g>
</g>
<!-- Node7 -->
<g id="Node000007" class="node">
<title>Node7</title>
<g id="a_Node000007"><a xlink:href="a02789.html" target="_top" xlink:title="Controlling input and output for std::string.">
<polygon fill="white" stroke="#666666" points="679,-28 545,-28 545,0 679,0 679,-28"/>
<text text-anchor="start" x="553" y="-16.8" font-family="Helvetica,sans-Serif" font-size="9.00">std::basic_stringstream</text>
<text text-anchor="middle" x="612" y="-6.8" font-family="Helvetica,sans-Serif" font-size="9.00">&lt; _CharT, _Traits, _Alloc &gt;</text>
</a>
</g>
</g>
<!-- Node1&#45;&gt;Node7 -->
<g id="edge7_Node000001_Node000007" class="edge">
<title>Node1&#45;&gt;Node7</title>
<g id="a_edge7_Node000001_Node000007"><a xlink:title=" ">
<path fill="none" stroke="#63b8ff" d="M520.71,-27.57C528.57,-26.39 536.63,-25.18 544.55,-23.99"/>
<polygon fill="#63b8ff" stroke="#63b8ff" points="520.24,-24.1 510.87,-29.05 521.28,-31.03 520.24,-24.1"/>
</a>
</g>
</g>
<!-- Node2 -->
<g id="Node000002" class="node">
<title>Node2</title>
<g id="a_Node000002"><a xlink:href="a02765.html" target="_top" xlink:title="Template class basic_istream.">
<polygon fill="white" stroke="#666666" points="369,-74 267,-74 267,-46 369,-46 369,-74"/>
<text text-anchor="start" x="275" y="-62.8" font-family="Helvetica,sans-Serif" font-size="9.00">std::basic_istream</text>
<text text-anchor="middle" x="318" y="-52.8" font-family="Helvetica,sans-Serif" font-size="9.00">&lt; _CharT, _Traits &gt;</text>
</a>
</g>
</g>
<!-- Node2&#45;&gt;Node1 -->
<g id="edge1_Node000001_Node000002" class="edge">
<title>Node2&#45;&gt;Node1</title>
<g id="a_edge1_Node000001_Node000002"><a xlink:title=" ">
<path fill="none" stroke="#63b8ff" d="M380.57,-49.66C388.69,-48.3 396.94,-46.92 404.85,-45.59"/>
<polygon fill="#63b8ff" stroke="#63b8ff" points="380.01,-46.21 370.73,-51.32 381.17,-53.11 380.01,-46.21"/>
</a>
</g>
</g>
<!-- Node3 -->
<g id="Node000003" class="node">
<title>Node3</title>
<g id="a_Node000003"><a xlink:href="a02757.html" target="_top" xlink:title="Template class basic_ios, virtual base class for all stream classes.">
<polygon fill="white" stroke="#666666" points="231,-51 110,-51 110,-23 231,-23 231,-51"/>
<text text-anchor="start" x="118" y="-39.8" font-family="Helvetica,sans-Serif" font-size="9.00">std::basic_ios&lt; _CharT,</text>
<text text-anchor="middle" x="170.5" y="-29.8" font-family="Helvetica,sans-Serif" font-size="9.00"> _Traits &gt;</text>
</a>
</g>
</g>
<!-- Node3&#45;&gt;Node2 -->
<g id="edge2_Node000002_Node000003" class="edge">
<title>Node3&#45;&gt;Node2</title>
<g id="a_edge2_Node000002_Node000003"><a xlink:title=" ">
<path fill="none" stroke="#63b8ff" d="M242.24,-48.18C250.45,-49.48 258.69,-50.78 266.55,-52.03"/>
<polygon fill="#63b8ff" stroke="#63b8ff" points="243.02,-44.76 232.6,-46.66 241.93,-51.68 243.02,-44.76"/>
</a>
</g>
</g>
<!-- Node5 -->
<g id="Node000005" class="node">
<title>Node5</title>
<g id="a_Node000005"><a xlink:href="a02769.html" target="_top" xlink:title="Template class basic_ostream.">
<polygon fill="white" stroke="#666666" points="369,-28 267,-28 267,0 369,0 369,-28"/>
<text text-anchor="start" x="275" y="-16.8" font-family="Helvetica,sans-Serif" font-size="9.00">std::basic_ostream</text>
<text text-anchor="middle" x="318" y="-6.8" font-family="Helvetica,sans-Serif" font-size="9.00">&lt; _CharT, _Traits &gt;</text>
</a>
</g>
</g>
<!-- Node3&#45;&gt;Node5 -->
<g id="edge5_Node000005_Node000003" class="edge">
<title>Node3&#45;&gt;Node5</title>
<g id="a_edge5_Node000005_Node000003"><a xlink:title=" ">
<path fill="none" stroke="#63b8ff" d="M242.24,-25.82C250.45,-24.52 258.69,-23.22 266.55,-21.97"/>
<polygon fill="#63b8ff" stroke="#63b8ff" points="241.93,-22.32 232.6,-27.34 243.02,-29.24 241.93,-22.32"/>
</a>
</g>
</g>
<!-- Node4 -->
<g id="Node000004" class="node">
<title>Node4</title>
<g id="a_Node000004"><a xlink:href="a05973.html" target="_top" xlink:title="The base of the I/O class hierarchy.">
<polygon fill="white" stroke="#666666" points="74,-46 0,-46 0,-28 74,-28 74,-46"/>
<text text-anchor="middle" x="37" y="-34.8" font-family="Helvetica,sans-Serif" font-size="9.00">std::ios_base</text>
</a>
</g>
</g>
<!-- Node4&#45;&gt;Node3 -->
<g id="edge3_Node000003_Node000004" class="edge">
<title>Node4&#45;&gt;Node3</title>
<g id="a_edge3_Node000003_Node000004"><a xlink:title=" ">
<path fill="none" stroke="#63b8ff" d="M85.72,-37C93.48,-37 101.6,-37 109.61,-37"/>
<polygon fill="#63b8ff" stroke="#63b8ff" points="85.79,-33.5 75.79,-37 85.79,-40.5 85.79,-33.5"/>
</a>
</g>
</g>
<!-- Node5&#45;&gt;Node1 -->
<g id="edge4_Node000001_Node000005" class="edge">
<title>Node5&#45;&gt;Node1</title>
<g id="a_edge4_Node000001_Node000005"><a xlink:title=" ">
<path fill="none" stroke="#63b8ff" d="M380.57,-24.34C388.69,-25.7 396.94,-27.08 404.85,-28.41"/>
<polygon fill="#63b8ff" stroke="#63b8ff" points="381.17,-20.89 370.73,-22.68 380.01,-27.79 381.17,-20.89"/>
</a>
</g>
</g>
</g>
</svg>
