<?xml version="1.0" encoding="UTF-8" standalone="no"?>
<!DOCTYPE svg PUBLIC "-//W3C//DTD SVG 1.1//EN"
 "http://www.w3.org/Graphics/SVG/1.1/DTD/svg11.dtd">
<!-- Generated by graphviz version 7.1.0 (0)
 -->
<!-- Title: std::basic_streambuf&lt; _CharT, _Traits &gt; Pages: 1 -->
<svg width="449pt" height="342pt"
 viewBox="0.00 0.00 449.00 342.00" xmlns="http://www.w3.org/2000/svg" xmlns:xlink="http://www.w3.org/1999/xlink">

<svg id="main" version="1.1" xmlns="http://www.w3.org/2000/svg" xmlns:xlink="http://www.w3.org/1999/xlink" xml:space="preserve" onload="init(evt)">
<style type="text/css"><![CDATA[
.node, .edge {opacity: 0.7;}
.node.selected, .edge.selected {opacity: 1;}
.edge:hover path { stroke: red; }
.edge:hover polygon { stroke: red; fill: red; }
]]></style>
<script xlink:href="svg.min.js"/>
<svg id="graph" class="graph">
<g id="graph0" class="graph" transform="scale(1 1) rotate(0) translate(4 338)">
<title>std::basic_streambuf&lt; _CharT, _Traits &gt;</title>
<!-- Node1 -->
<g id="Node000001" class="node">
<title>Node1</title>
<g id="a_Node000001"><a xlink:title="The actual work of input and output (interface).">
<polygon fill="#999999" stroke="#666666" points="111,-166 0,-166 0,-138 111,-138 111,-166"/>
<text text-anchor="start" x="8" y="-154.8" font-family="Helvetica,sans-Serif" font-size="9.00">std::basic_streambuf</text>
<text text-anchor="middle" x="55.5" y="-144.8" font-family="Helvetica,sans-Serif" font-size="9.00">&lt; _CharT, _Traits &gt;</text>
</a>
</g>
</g>
<!-- Node2 -->
<g id="Node000002" class="node">
<title>Node2</title>
<g id="a_Node000002"><a xlink:href="a02489.html" target="_top" xlink:title=" ">
<polygon fill="white" stroke="#666666" points="279.5,-334 148.5,-334 148.5,-296 279.5,-296 279.5,-334"/>
<text text-anchor="start" x="156.5" y="-322.8" font-family="Helvetica,sans-Serif" font-size="9.00">std::basic_filebuf</text>
<text text-anchor="start" x="156.5" y="-312.8" font-family="Helvetica,sans-Serif" font-size="9.00">&lt; _CharT, encoding_char</text>
<text text-anchor="middle" x="214" y="-302.8" font-family="Helvetica,sans-Serif" font-size="9.00">_traits&lt; _CharT &gt; &gt;</text>
</a>
</g>
</g>
<!-- Node1&#45;&gt;Node2 -->
<g id="edge1_Node000001_Node000002" class="edge">
<title>Node1&#45;&gt;Node2</title>
<g id="a_edge1_Node000001_Node000002"><a xlink:title=" ">
<path fill="none" stroke="#63b8ff" d="M67.47,-176.53C81.88,-206.27 109.78,-256.24 147,-287 150.84,-290.17 155.09,-293.04 159.53,-295.61"/>
<polygon fill="#63b8ff" stroke="#63b8ff" points="70.68,-175.13 63.26,-167.57 64.35,-178.11 70.68,-175.13"/>
</a>
</g>
</g>
<!-- Node4 -->
<g id="Node000004" class="node">
<title>Node4</title>
<g id="a_Node000004"><a xlink:href="a02489.html" target="_top" xlink:title=" ">
<polygon fill="white" stroke="#666666" points="267.5,-278 160.5,-278 160.5,-240 267.5,-240 267.5,-278"/>
<text text-anchor="start" x="168.5" y="-266.8" font-family="Helvetica,sans-Serif" font-size="9.00">std::basic_filebuf</text>
<text text-anchor="start" x="168.5" y="-256.8" font-family="Helvetica,sans-Serif" font-size="9.00">&lt; _CharT, std::char</text>
<text text-anchor="middle" x="214" y="-246.8" font-family="Helvetica,sans-Serif" font-size="9.00">_traits&lt; _CharT &gt; &gt;</text>
</a>
</g>
</g>
<!-- Node1&#45;&gt;Node4 -->
<g id="edge3_Node000001_Node000004" class="edge">
<title>Node1&#45;&gt;Node4</title>
<g id="a_edge3_Node000001_Node000004"><a xlink:title=" ">
<path fill="none" stroke="#63b8ff" d="M77.94,-174.24C95.35,-191.39 121.18,-214.83 147,-231 151.85,-234.04 157.09,-236.89 162.42,-239.52"/>
<polygon fill="#63b8ff" stroke="#63b8ff" points="80.71,-172.06 71.17,-167.46 75.76,-177.01 80.71,-172.06"/>
</a>
</g>
</g>
<!-- Node5 -->
<g id="Node000005" class="node">
<title>Node5</title>
<g id="a_Node000005"><a xlink:href="a02489.html" target="_top" xlink:title=" ">
<polygon fill="white" stroke="#666666" points="264.5,-222 163.5,-222 163.5,-184 264.5,-184 264.5,-222"/>
<text text-anchor="start" x="171.5" y="-210.8" font-family="Helvetica,sans-Serif" font-size="9.00">std::basic_filebuf</text>
<text text-anchor="start" x="171.5" y="-200.8" font-family="Helvetica,sans-Serif" font-size="9.00">&lt; char_type, traits</text>
<text text-anchor="middle" x="214" y="-190.8" font-family="Helvetica,sans-Serif" font-size="9.00">_type &gt;</text>
</a>
</g>
</g>
<!-- Node1&#45;&gt;Node5 -->
<g id="edge4_Node000001_Node000005" class="edge">
<title>Node1&#45;&gt;Node5</title>
<g id="a_edge4_Node000001_Node000005"><a xlink:title=" ">
<path fill="none" stroke="#63b8ff" d="M111.7,-169.99C128.48,-175.46 146.82,-181.43 163.23,-186.78"/>
<polygon fill="#63b8ff" stroke="#63b8ff" points="112.96,-166.72 102.37,-166.95 110.79,-173.37 112.96,-166.72"/>
</a>
</g>
</g>
<!-- Node6 -->
<g id="Node000006" class="node">
<title>Node6</title>
<g id="a_Node000006"><a xlink:href="a12273.html" target="_top" xlink:title="Provides a layer of compatibility for C.">
<polygon fill="white" stroke="#666666" points="281,-166 147,-166 147,-138 281,-138 281,-166"/>
<text text-anchor="start" x="155" y="-154.8" font-family="Helvetica,sans-Serif" font-size="9.00">__gnu_cxx::stdio_sync</text>
<text text-anchor="middle" x="214" y="-144.8" font-family="Helvetica,sans-Serif" font-size="9.00">_filebuf&lt; _CharT, _Traits &gt;</text>
</a>
</g>
</g>
<!-- Node1&#45;&gt;Node6 -->
<g id="edge5_Node000001_Node000006" class="edge">
<title>Node1&#45;&gt;Node6</title>
<g id="a_edge5_Node000001_Node000006"><a xlink:title=" ">
<path fill="none" stroke="#63b8ff" d="M122.72,-152C130.66,-152 138.78,-152 146.72,-152"/>
<polygon fill="#63b8ff" stroke="#63b8ff" points="122.75,-148.5 112.75,-152 122.75,-155.5 122.75,-148.5"/>
</a>
</g>
</g>
<!-- Node7 -->
<g id="Node000007" class="node">
<title>Node7</title>
<g id="a_Node000007"><a xlink:href="a02489.html" target="_top" xlink:title="The actual work of input and output (for files).">
<polygon fill="white" stroke="#666666" points="265,-120 163,-120 163,-92 265,-92 265,-120"/>
<text text-anchor="start" x="171" y="-108.8" font-family="Helvetica,sans-Serif" font-size="9.00">std::basic_filebuf</text>
<text text-anchor="middle" x="214" y="-98.8" font-family="Helvetica,sans-Serif" font-size="9.00">&lt; _CharT, _Traits &gt;</text>
</a>
</g>
</g>
<!-- Node1&#45;&gt;Node7 -->
<g id="edge6_Node000001_Node000007" class="edge">
<title>Node1&#45;&gt;Node7</title>
<g id="a_edge6_Node000001_Node000007"><a xlink:title=" ">
<path fill="none" stroke="#63b8ff" d="M116.26,-134.43C131.97,-129.82 148.73,-124.89 163.82,-120.46"/>
<polygon fill="#63b8ff" stroke="#63b8ff" points="115.65,-130.97 107.04,-137.14 117.62,-137.68 115.65,-130.97"/>
</a>
</g>
</g>
<!-- Node9 -->
<g id="Node000009" class="node">
<title>Node9</title>
<g id="a_Node000009"><a xlink:href="a02777.html" target="_top" xlink:title="The actual work of input and output (for std::string).">
<polygon fill="white" stroke="#666666" points="281,-74 147,-74 147,-46 281,-46 281,-74"/>
<text text-anchor="start" x="155" y="-62.8" font-family="Helvetica,sans-Serif" font-size="9.00">std::basic_stringbuf</text>
<text text-anchor="middle" x="214" y="-52.8" font-family="Helvetica,sans-Serif" font-size="9.00">&lt; _CharT, _Traits, _Alloc &gt;</text>
</a>
</g>
</g>
<!-- Node1&#45;&gt;Node9 -->
<g id="edge8_Node000001_Node000009" class="edge">
<title>Node1&#45;&gt;Node9</title>
<g id="a_edge8_Node000001_Node000009"><a xlink:title=" ">
<path fill="none" stroke="#63b8ff" d="M80.53,-130.3C97.98,-115.41 122.7,-96.07 147,-83 152.88,-79.84 159.28,-76.98 165.7,-74.43"/>
<polygon fill="#63b8ff" stroke="#63b8ff" points="78.5,-127.42 73.25,-136.62 83.09,-132.71 78.5,-127.42"/>
</a>
</g>
</g>
<!-- Node10 -->
<g id="Node000010" class="node">
<title>Node10</title>
<g id="a_Node000010"><a xlink:href="a06169.html" target="_top" xlink:title="Buffer conversions.">
<polygon fill="white" stroke="#666666" points="279,-28 149,-28 149,0 279,0 279,-28"/>
<text text-anchor="start" x="157" y="-16.8" font-family="Helvetica,sans-Serif" font-size="9.00">std::wbuffer_convert</text>
<text text-anchor="middle" x="214" y="-6.8" font-family="Helvetica,sans-Serif" font-size="9.00">&lt; _Codecvt, _Elem, _Tr &gt;</text>
</a>
</g>
</g>
<!-- Node1&#45;&gt;Node10 -->
<g id="edge9_Node000001_Node000010" class="edge">
<title>Node1&#45;&gt;Node10</title>
<g id="a_edge9_Node000001_Node000010"><a xlink:title=" ">
<path fill="none" stroke="#63b8ff" d="M69.67,-128.08C85.06,-102.2 112.83,-61.38 147,-37 151.54,-33.76 156.59,-30.94 161.8,-28.49"/>
<polygon fill="#63b8ff" stroke="#63b8ff" points="66.76,-126.12 64.79,-136.53 72.82,-129.62 66.76,-126.12"/>
</a>
</g>
</g>
<!-- Node3 -->
<g id="Node000003" class="node">
<title>Node3</title>
<g id="a_Node000003"><a xlink:href="a11973.html" target="_top" xlink:title="class enc_filebuf.">
<polygon fill="white" stroke="#666666" points="438.5,-329 319.5,-329 319.5,-301 438.5,-301 438.5,-329"/>
<text text-anchor="start" x="327.5" y="-317.8" font-family="Helvetica,sans-Serif" font-size="9.00">__gnu_cxx::enc_filebuf</text>
<text text-anchor="middle" x="379" y="-307.8" font-family="Helvetica,sans-Serif" font-size="9.00">&lt; _CharT &gt;</text>
</a>
</g>
</g>
<!-- Node2&#45;&gt;Node3 -->
<g id="edge2_Node000002_Node000003" class="edge">
<title>Node2&#45;&gt;Node3</title>
<g id="a_edge2_Node000002_Node000003"><a xlink:title=" ">
<path fill="none" stroke="#63b8ff" d="M291.24,-315C300.62,-315 310.08,-315 319.14,-315"/>
<polygon fill="#63b8ff" stroke="#63b8ff" points="291.4,-311.5 281.4,-315 291.4,-318.5 291.4,-311.5"/>
</a>
</g>
</g>
<!-- Node8 -->
<g id="Node000008" class="node">
<title>Node8</title>
<g id="a_Node000008"><a xlink:href="a12269.html" target="_top" xlink:title="Provides a layer of compatibility for C/POSIX.">
<polygon fill="white" stroke="#666666" points="441,-120 317,-120 317,-92 441,-92 441,-120"/>
<text text-anchor="start" x="325" y="-108.8" font-family="Helvetica,sans-Serif" font-size="9.00">__gnu_cxx::stdio_filebuf</text>
<text text-anchor="middle" x="379" y="-98.8" font-family="Helvetica,sans-Serif" font-size="9.00">&lt; _CharT, _Traits &gt;</text>
</a>
</g>
</g>
<!-- Node7&#45;&gt;Node8 -->
<g id="edge7_Node000007_Node000008" class="edge">
<title>Node7&#45;&gt;Node8</title>
<g id="a_edge7_Node000007_Node000008"><a xlink:title=" ">
<path fill="none" stroke="#63b8ff" d="M276.56,-106C289.71,-106 303.6,-106 316.73,-106"/>
<polygon fill="#63b8ff" stroke="#63b8ff" points="276.75,-102.5 266.75,-106 276.75,-109.5 276.75,-102.5"/>
</a>
</g>
</g>
</g>
</svg>

<style type='text/css'>
<![CDATA[
[data-mouse-over-selected='false'] { opacity: 0.7; }
[data-mouse-over-selected='true']  { opacity: 1.0; }
]]>
</style>
<script><![CDATA[
document.addEventListener('DOMContentLoaded', (event) => {
  highlightEdges();
  highlightAdjacentNodes();
});
]]></script>
</svg>
