<?xml version="1.0" encoding="UTF-8" standalone="no"?>
<!DOCTYPE svg PUBLIC "-//W3C//DTD SVG 1.1//EN"
 "http://www.w3.org/Graphics/SVG/1.1/DTD/svg11.dtd">
<!-- Generated by graphviz version 7.1.0 (0)
 -->
<!-- Title: std::_Optional_base&lt; _Tp, bool, bool &gt; Pages: 1 -->
<svg width="285pt" height="128pt"
 viewBox="0.00 0.00 285.00 128.00" xmlns="http://www.w3.org/2000/svg" xmlns:xlink="http://www.w3.org/1999/xlink">
<g id="graph0" class="graph" transform="scale(1 1) rotate(0) translate(4 124)">
<title>std::_Optional_base&lt; _Tp, bool, bool &gt;</title>
<!-- Node1 -->
<g id="Node000001" class="node">
<title>Node1</title>
<g id="a_Node000001"><a xlink:title="Class template that provides copy/move constructors of optional.">
<polygon fill="#999999" stroke="#666666" points="104,-69 0,-69 0,-41 104,-41 104,-69"/>
<text text-anchor="start" x="8" y="-57.8" font-family="Helvetica,sans-Serif" font-size="9.00">std::_Optional_base</text>
<text text-anchor="middle" x="52" y="-47.8" font-family="Helvetica,sans-Serif" font-size="9.00">&lt; _Tp, bool, bool &gt;</text>
</a>
</g>
</g>
<!-- Node2 -->
<g id="Node000002" class="node">
<title>Node2</title>
<g id="a_Node000002"><a xlink:href="a02953.html" target="_top" xlink:title=" ">
<polygon fill="white" stroke="#666666" points="264.5,-120 152.5,-120 152.5,-92 264.5,-92 264.5,-120"/>
<text text-anchor="start" x="160.5" y="-108.8" font-family="Helvetica,sans-Serif" font-size="9.00">std::optional&lt; _Inner</text>
<text text-anchor="middle" x="208.5" y="-98.8" font-family="Helvetica,sans-Serif" font-size="9.00">_iter &gt;</text>
</a>
</g>
</g>
<!-- Node1&#45;&gt;Node2 -->
<g id="edge1_Node000001_Node000002" class="edge">
<title>Node1&#45;&gt;Node2</title>
<g id="a_edge1_Node000001_Node000002"><a xlink:title=" ">
<path fill="none" stroke="#8b1a1a" d="M107.73,-73.07C126.12,-79.14 146.37,-85.82 163.8,-91.57"/>
<polygon fill="#8b1a1a" stroke="#8b1a1a" points="108.89,-69.76 98.3,-69.95 106.7,-76.41 108.89,-69.76"/>
</a>
</g>
</g>
<!-- Node3 -->
<g id="Node000003" class="node">
<title>Node3</title>
<g id="a_Node000003"><a xlink:href="a11689.html" target="_top" xlink:title="Class template for optional values.">
<polygon fill="white" stroke="#666666" points="277,-74 140,-74 140,-36 277,-36 277,-74"/>
<text text-anchor="start" x="148" y="-62.8" font-family="Helvetica,sans-Serif" font-size="9.00">std::experimental::</text>
<text text-anchor="start" x="148" y="-52.8" font-family="Helvetica,sans-Serif" font-size="9.00">fundamentals_v1::optional</text>
<text text-anchor="middle" x="208.5" y="-42.8" font-family="Helvetica,sans-Serif" font-size="9.00">&lt; _Tp &gt;</text>
</a>
</g>
</g>
<!-- Node1&#45;&gt;Node3 -->
<g id="edge2_Node000001_Node000003" class="edge">
<title>Node1&#45;&gt;Node3</title>
<g id="a_edge2_Node000001_Node000003"><a xlink:title=" ">
<path fill="none" stroke="#8b1a1a" d="M115.73,-55C123.56,-55 131.6,-55 139.51,-55"/>
<polygon fill="#8b1a1a" stroke="#8b1a1a" points="115.96,-51.5 105.96,-55 115.96,-58.5 115.96,-51.5"/>
</a>
</g>
</g>
<!-- Node4 -->
<g id="Node000004" class="node">
<title>Node4</title>
<g id="a_Node000004"><a xlink:href="a02953.html" target="_top" xlink:title="Class template for optional values.">
<polygon fill="white" stroke="#666666" points="263.5,-18 153.5,-18 153.5,0 263.5,0 263.5,-18"/>
<text text-anchor="middle" x="208.5" y="-6.8" font-family="Helvetica,sans-Serif" font-size="9.00">std::optional&lt; _Tp &gt;</text>
</a>
</g>
</g>
<!-- Node1&#45;&gt;Node4 -->
<g id="edge3_Node000001_Node000004" class="edge">
<title>Node1&#45;&gt;Node4</title>
<g id="a_edge3_Node000001_Node000004"><a xlink:title=" ">
<path fill="none" stroke="#8b1a1a" d="M106.94,-37.17C117.85,-33.7 129.27,-30.16 140,-27 149.89,-24.09 160.65,-21.13 170.62,-18.47"/>
<polygon fill="#8b1a1a" stroke="#8b1a1a" points="106.13,-33.76 97.67,-40.15 108.27,-40.42 106.13,-33.76"/>
</a>
</g>
</g>
</g>
</svg>
