<?xml version="1.0" encoding="UTF-8" standalone="no"?>
<!DOCTYPE svg PUBLIC "-//W3C//DTD SVG 1.1//EN"
 "http://www.w3.org/Graphics/SVG/1.1/DTD/svg11.dtd">
<!-- Generated by graphviz version 7.1.0 (0)
 -->
<!-- Title: std::logic_error Pages: 1 -->
<svg width="518pt" height="313pt"
 viewBox="0.00 0.00 518.00 313.00" xmlns="http://www.w3.org/2000/svg" xmlns:xlink="http://www.w3.org/1999/xlink">
<g id="graph0" class="graph" transform="scale(1 1) rotate(0) translate(4 309)">
<title>std::logic_error</title>
<!-- Node1 -->
<g id="Node000001" class="node">
<title>Node1</title>
<g id="a_Node000001"><a xlink:title="One of two subclasses of exception.">
<polygon fill="#999999" stroke="#666666" points="200,-126 116,-126 116,-108 200,-108 200,-126"/>
<text text-anchor="middle" x="158" y="-114.8" font-family="Helvetica,sans-Serif" font-size="9.00">std::logic_error</text>
</a>
</g>
</g>
<!-- Node3 -->
<g id="Node000003" class="node">
<title>Node3</title>
<g id="a_Node000003"><a xlink:href="a12729.html" target="_top" xlink:title="Base class for exceptions.">
<polygon fill="white" stroke="#666666" points="355,-264 236,-264 236,-236 355,-236 355,-264"/>
<text text-anchor="start" x="244" y="-252.8" font-family="Helvetica,sans-Serif" font-size="9.00">__gnu_pbds::container</text>
<text text-anchor="middle" x="295.5" y="-242.8" font-family="Helvetica,sans-Serif" font-size="9.00">_error</text>
</a>
</g>
</g>
<!-- Node1&#45;&gt;Node3 -->
<g id="edge2_Node000001_Node000003" class="edge">
<title>Node1&#45;&gt;Node3</title>
<g id="a_edge2_Node000001_Node000003"><a xlink:title=" ">
<path fill="none" stroke="#63b8ff" d="M168.12,-136.46C180.39,-160.75 204.39,-202.09 236,-227 240.11,-230.24 244.74,-233.08 249.55,-235.54"/>
<polygon fill="#63b8ff" stroke="#63b8ff" points="171.38,-135.16 163.85,-127.71 165.08,-138.23 171.38,-135.16"/>
</a>
</g>
</g>
<!-- Node7 -->
<g id="Node000007" class="node">
<title>Node7</title>
<g id="a_Node000007"><a xlink:href="a03465.html" target="_top" xlink:title=" ">
<polygon fill="white" stroke="#666666" points="344,-218 247,-218 247,-200 344,-200 344,-218"/>
<text text-anchor="middle" x="295.5" y="-206.8" font-family="Helvetica,sans-Serif" font-size="9.00">std::domain_error</text>
</a>
</g>
</g>
<!-- Node1&#45;&gt;Node7 -->
<g id="edge6_Node000001_Node000007" class="edge">
<title>Node1&#45;&gt;Node7</title>
<g id="a_edge6_Node000001_Node000007"><a xlink:title=" ">
<path fill="none" stroke="#63b8ff" d="M173.57,-135.23C187.84,-151.96 211.02,-176.3 236,-191 241.77,-194.4 248.24,-197.21 254.72,-199.52"/>
<polygon fill="#63b8ff" stroke="#63b8ff" points="176.29,-133.03 167.22,-127.56 170.9,-137.5 176.29,-133.03"/>
</a>
</g>
</g>
<!-- Node8 -->
<g id="Node000008" class="node">
<title>Node8</title>
<g id="a_Node000008"><a xlink:href="a11701.html" target="_top" xlink:title="Exception class thrown when a disengaged optional object is dereferenced.">
<polygon fill="white" stroke="#666666" points="354.5,-182 236.5,-182 236.5,-144 354.5,-144 354.5,-182"/>
<text text-anchor="start" x="244.5" y="-170.8" font-family="Helvetica,sans-Serif" font-size="9.00">std::experimental::</text>
<text text-anchor="start" x="244.5" y="-160.8" font-family="Helvetica,sans-Serif" font-size="9.00">fundamentals_v1::bad</text>
<text text-anchor="middle" x="295.5" y="-150.8" font-family="Helvetica,sans-Serif" font-size="9.00">_optional_access</text>
</a>
</g>
</g>
<!-- Node1&#45;&gt;Node8 -->
<g id="edge7_Node000001_Node000008" class="edge">
<title>Node1&#45;&gt;Node8</title>
<g id="a_edge7_Node000001_Node000008"><a xlink:title=" ">
<path fill="none" stroke="#63b8ff" d="M197.55,-130.09C209.87,-134.27 223.79,-138.99 237.15,-143.53"/>
<polygon fill="#63b8ff" stroke="#63b8ff" points="198.77,-126.81 188.18,-126.91 196.52,-133.44 198.77,-126.81"/>
</a>
</g>
</g>
<!-- Node9 -->
<g id="Node000009" class="node">
<title>Node9</title>
<g id="a_Node000009"><a xlink:href="a02657.html" target="_top" xlink:title="Exception type thrown by futures.">
<polygon fill="white" stroke="#666666" points="341,-126 250,-126 250,-108 341,-108 341,-126"/>
<text text-anchor="middle" x="295.5" y="-114.8" font-family="Helvetica,sans-Serif" font-size="9.00">std::future_error</text>
</a>
</g>
</g>
<!-- Node1&#45;&gt;Node9 -->
<g id="edge8_Node000001_Node000009" class="edge">
<title>Node1&#45;&gt;Node9</title>
<g id="a_edge8_Node000001_Node000009"><a xlink:title=" ">
<path fill="none" stroke="#63b8ff" d="M211.65,-117C224.18,-117 237.44,-117 249.59,-117"/>
<polygon fill="#63b8ff" stroke="#63b8ff" points="211.9,-113.5 201.9,-117 211.9,-120.5 211.9,-113.5"/>
</a>
</g>
</g>
<!-- Node10 -->
<g id="Node000010" class="node">
<title>Node10</title>
<g id="a_Node000010"><a xlink:href="a03469.html" target="_top" xlink:title=" ">
<polygon fill="white" stroke="#666666" points="353.5,-90 237.5,-90 237.5,-72 353.5,-72 353.5,-90"/>
<text text-anchor="middle" x="295.5" y="-78.8" font-family="Helvetica,sans-Serif" font-size="9.00">std::invalid_argument</text>
</a>
</g>
</g>
<!-- Node1&#45;&gt;Node10 -->
<g id="edge9_Node000001_Node000010" class="edge">
<title>Node1&#45;&gt;Node10</title>
<g id="a_edge9_Node000001_Node000010"><a xlink:title=" ">
<path fill="none" stroke="#63b8ff" d="M205.25,-104.71C222.88,-100.03 242.68,-94.77 259.14,-90.4"/>
<polygon fill="#63b8ff" stroke="#63b8ff" points="204.83,-101.2 196.06,-107.15 206.63,-107.97 204.83,-101.2"/>
</a>
</g>
</g>
<!-- Node11 -->
<g id="Node000011" class="node">
<title>Node11</title>
<g id="a_Node000011"><a xlink:href="a03473.html" target="_top" xlink:title=" ">
<polygon fill="white" stroke="#666666" points="341.5,-54 249.5,-54 249.5,-36 341.5,-36 341.5,-54"/>
<text text-anchor="middle" x="295.5" y="-42.8" font-family="Helvetica,sans-Serif" font-size="9.00">std::length_error</text>
</a>
</g>
</g>
<!-- Node1&#45;&gt;Node11 -->
<g id="edge10_Node000001_Node000011" class="edge">
<title>Node1&#45;&gt;Node11</title>
<g id="a_edge10_Node000001_Node000011"><a xlink:title=" ">
<path fill="none" stroke="#63b8ff" d="M178.59,-100.66C193.54,-88.85 215.07,-73.24 236,-63 242.78,-59.68 250.29,-56.82 257.62,-54.42"/>
<polygon fill="#63b8ff" stroke="#63b8ff" points="176.54,-97.81 170.96,-106.82 180.94,-103.26 176.54,-97.81"/>
</a>
</g>
</g>
<!-- Node12 -->
<g id="Node000012" class="node">
<title>Node12</title>
<g id="a_Node000012"><a xlink:href="a03477.html" target="_top" xlink:title=" ">
<polygon fill="white" stroke="#666666" points="343,-18 248,-18 248,0 343,0 343,-18"/>
<text text-anchor="middle" x="295.5" y="-6.8" font-family="Helvetica,sans-Serif" font-size="9.00">std::out_of_range</text>
</a>
</g>
</g>
<!-- Node1&#45;&gt;Node12 -->
<g id="edge11_Node000001_Node000012" class="edge">
<title>Node1&#45;&gt;Node12</title>
<g id="a_edge11_Node000001_Node000012"><a xlink:title=" ">
<path fill="none" stroke="#63b8ff" d="M170.47,-98.1C183.79,-77.7 207.6,-45.64 236,-27 241.24,-23.56 247.17,-20.75 253.2,-18.46"/>
<polygon fill="#63b8ff" stroke="#63b8ff" points="167.68,-95.97 165.3,-106.29 173.6,-99.7 167.68,-95.97"/>
</a>
</g>
</g>
<!-- Node2 -->
<g id="Node000002" class="node">
<title>Node2</title>
<g id="a_Node000002"><a xlink:href="a05761.html" target="_top" xlink:title="Base class for all library exceptions.">
<polygon fill="white" stroke="#666666" points="80,-126 0,-126 0,-108 80,-108 80,-126"/>
<text text-anchor="middle" x="40" y="-114.8" font-family="Helvetica,sans-Serif" font-size="9.00">std::exception</text>
</a>
</g>
</g>
<!-- Node2&#45;&gt;Node1 -->
<g id="edge1_Node000001_Node000002" class="edge">
<title>Node2&#45;&gt;Node1</title>
<g id="a_edge1_Node000001_Node000002"><a xlink:title=" ">
<path fill="none" stroke="#63b8ff" d="M91.53,-117C99.63,-117 107.93,-117 115.79,-117"/>
<polygon fill="#63b8ff" stroke="#63b8ff" points="91.79,-113.5 81.79,-117 91.79,-120.5 91.79,-113.5"/>
</a>
</g>
</g>
<!-- Node4 -->
<g id="Node000004" class="node">
<title>Node4</title>
<g id="a_Node000004"><a xlink:href="a12733.html" target="_top" xlink:title="An entry cannot be inserted into a container object for logical reasons (not, e.g....">
<polygon fill="white" stroke="#666666" points="501.5,-305 399.5,-305 399.5,-277 501.5,-277 501.5,-305"/>
<text text-anchor="start" x="407.5" y="-293.8" font-family="Helvetica,sans-Serif" font-size="9.00">__gnu_pbds::insert</text>
<text text-anchor="middle" x="450.5" y="-283.8" font-family="Helvetica,sans-Serif" font-size="9.00">_error</text>
</a>
</g>
</g>
<!-- Node3&#45;&gt;Node4 -->
<g id="edge3_Node000003_Node000004" class="edge">
<title>Node3&#45;&gt;Node4</title>
<g id="a_edge3_Node000003_Node000004"><a xlink:title=" ">
<path fill="none" stroke="#63b8ff" d="M361.38,-267.39C374,-270.77 387.05,-274.27 399.12,-277.5"/>
<polygon fill="#63b8ff" stroke="#63b8ff" points="362.47,-264.05 351.9,-264.85 360.66,-270.82 362.47,-264.05"/>
</a>
</g>
</g>
<!-- Node5 -->
<g id="Node000005" class="node">
<title>Node5</title>
<g id="a_Node000005"><a xlink:href="a12737.html" target="_top" xlink:title="A join cannot be performed logical reasons (i.e., the ranges of the two container objects being joine...">
<polygon fill="white" stroke="#666666" points="510,-259 391,-259 391,-241 510,-241 510,-259"/>
<text text-anchor="middle" x="450.5" y="-247.8" font-family="Helvetica,sans-Serif" font-size="9.00">__gnu_pbds::join_error</text>
</a>
</g>
</g>
<!-- Node3&#45;&gt;Node5 -->
<g id="edge4_Node000003_Node000005" class="edge">
<title>Node3&#45;&gt;Node5</title>
<g id="a_edge4_Node000003_Node000005"><a xlink:title=" ">
<path fill="none" stroke="#63b8ff" d="M366.53,-250C374.61,-250 382.78,-250 390.69,-250"/>
<polygon fill="#63b8ff" stroke="#63b8ff" points="366.73,-246.5 356.73,-250 366.73,-253.5 366.73,-246.5"/>
</a>
</g>
</g>
<!-- Node6 -->
<g id="Node000006" class="node">
<title>Node6</title>
<g id="a_Node000006"><a xlink:href="a12741.html" target="_top" xlink:title="A container cannot be resized.">
<polygon fill="white" stroke="#666666" points="501.5,-223 399.5,-223 399.5,-195 501.5,-195 501.5,-223"/>
<text text-anchor="start" x="407.5" y="-211.8" font-family="Helvetica,sans-Serif" font-size="9.00">__gnu_pbds::resize</text>
<text text-anchor="middle" x="450.5" y="-201.8" font-family="Helvetica,sans-Serif" font-size="9.00">_error</text>
</a>
</g>
</g>
<!-- Node3&#45;&gt;Node6 -->
<g id="edge5_Node000003_Node000006" class="edge">
<title>Node3&#45;&gt;Node6</title>
<g id="a_edge5_Node000003_Node000006"><a xlink:title=" ">
<path fill="none" stroke="#63b8ff" d="M361.38,-232.61C374,-229.23 387.05,-225.73 399.12,-222.5"/>
<polygon fill="#63b8ff" stroke="#63b8ff" points="360.66,-229.18 351.9,-235.15 362.47,-235.95 360.66,-229.18"/>
</a>
</g>
</g>
</g>
</svg>
