<?xml version="1.0" encoding="UTF-8" standalone="no"?>
<!DOCTYPE svg PUBLIC "-//W3C//DTD SVG 1.1//EN"
 "http://www.w3.org/Graphics/SVG/1.1/DTD/svg11.dtd">
<!-- Generated by graphviz version 7.1.0 (0)
 -->
<!-- Title: std::runtime_error Pages: 1 -->
<svg width="559pt" height="170pt"
 viewBox="0.00 0.00 559.00 170.00" xmlns="http://www.w3.org/2000/svg" xmlns:xlink="http://www.w3.org/1999/xlink">
<g id="graph0" class="graph" transform="scale(1 1) rotate(0) translate(4 166)">
<title>std::runtime_error</title>
<!-- Node1 -->
<g id="Node000001" class="node">
<title>Node1</title>
<g id="a_Node000001"><a xlink:title="One of two subclasses of exception.">
<polygon fill="#999999" stroke="#666666" points="215,-90 116,-90 116,-72 215,-72 215,-90"/>
<text text-anchor="middle" x="165.5" y="-78.8" font-family="Helvetica,sans-Serif" font-size="9.00">std::runtime_error</text>
</a>
</g>
</g>
<!-- Node3 -->
<g id="Node000003" class="node">
<title>Node3</title>
<g id="a_Node000003"><a xlink:href="a03489.html" target="_top" xlink:title=" ">
<polygon fill="white" stroke="#666666" points="355.5,-162 254.5,-162 254.5,-144 355.5,-144 355.5,-162"/>
<text text-anchor="middle" x="305" y="-150.8" font-family="Helvetica,sans-Serif" font-size="9.00">std::overflow_error</text>
</a>
</g>
</g>
<!-- Node1&#45;&gt;Node3 -->
<g id="edge2_Node000001_Node000003" class="edge">
<title>Node1&#45;&gt;Node3</title>
<g id="a_edge2_Node000001_Node000003"><a xlink:title=" ">
<path fill="none" stroke="#63b8ff" d="M188.44,-97.11C205.01,-108.75 228.65,-124.26 251,-135 257.66,-138.2 265.03,-141.09 272.11,-143.56"/>
<polygon fill="#63b8ff" stroke="#63b8ff" points="190.51,-94.29 180.34,-91.32 186.44,-99.98 190.51,-94.29"/>
</a>
</g>
</g>
<!-- Node4 -->
<g id="Node000004" class="node">
<title>Node4</title>
<g id="a_Node000004"><a xlink:href="a03485.html" target="_top" xlink:title=" ">
<polygon fill="white" stroke="#666666" points="349.5,-126 260.5,-126 260.5,-108 349.5,-108 349.5,-126"/>
<text text-anchor="middle" x="305" y="-114.8" font-family="Helvetica,sans-Serif" font-size="9.00">std::range_error</text>
</a>
</g>
</g>
<!-- Node1&#45;&gt;Node4 -->
<g id="edge3_Node000001_Node000004" class="edge">
<title>Node1&#45;&gt;Node4</title>
<g id="a_edge3_Node000001_Node000004"><a xlink:title=" ">
<path fill="none" stroke="#63b8ff" d="M213.68,-93.35C231.51,-98.02 251.49,-103.25 268.11,-107.6"/>
<polygon fill="#63b8ff" stroke="#63b8ff" points="214.65,-89.99 204.09,-90.84 212.88,-96.76 214.65,-89.99"/>
</a>
</g>
</g>
<!-- Node5 -->
<g id="Node000005" class="node">
<title>Node5</title>
<g id="a_Node000005"><a xlink:href="a07461.html" target="_top" xlink:title="A regular expression exception class.">
<polygon fill="white" stroke="#666666" points="349.5,-90 260.5,-90 260.5,-72 349.5,-72 349.5,-90"/>
<text text-anchor="middle" x="305" y="-78.8" font-family="Helvetica,sans-Serif" font-size="9.00">std::regex_error</text>
</a>
</g>
</g>
<!-- Node1&#45;&gt;Node5 -->
<g id="edge4_Node000001_Node000005" class="edge">
<title>Node1&#45;&gt;Node5</title>
<g id="a_edge4_Node000001_Node000005"><a xlink:title=" ">
<path fill="none" stroke="#63b8ff" d="M226.56,-81C237.92,-81 249.59,-81 260.33,-81"/>
<polygon fill="#63b8ff" stroke="#63b8ff" points="226.88,-77.5 216.88,-81 226.88,-84.5 226.88,-77.5"/>
</a>
</g>
</g>
<!-- Node6 -->
<g id="Node000006" class="node">
<title>Node6</title>
<g id="a_Node000006"><a xlink:href="a03593.html" target="_top" xlink:title="An exception type that includes an error_code value.">
<polygon fill="white" stroke="#666666" points="352.5,-54 257.5,-54 257.5,-36 352.5,-36 352.5,-54"/>
<text text-anchor="middle" x="305" y="-42.8" font-family="Helvetica,sans-Serif" font-size="9.00">std::system_error</text>
</a>
</g>
</g>
<!-- Node1&#45;&gt;Node6 -->
<g id="edge5_Node000001_Node000006" class="edge">
<title>Node1&#45;&gt;Node6</title>
<g id="a_edge5_Node000001_Node000006"><a xlink:title=" ">
<path fill="none" stroke="#63b8ff" d="M213.68,-68.65C231.51,-63.98 251.49,-58.75 268.11,-54.4"/>
<polygon fill="#63b8ff" stroke="#63b8ff" points="212.88,-65.24 204.09,-71.16 214.65,-72.01 212.88,-65.24"/>
</a>
</g>
</g>
<!-- Node9 -->
<g id="Node000009" class="node">
<title>Node9</title>
<g id="a_Node000009"><a xlink:href="a03493.html" target="_top" xlink:title=" ">
<polygon fill="white" stroke="#666666" points="359,-18 251,-18 251,0 359,0 359,-18"/>
<text text-anchor="middle" x="305" y="-6.8" font-family="Helvetica,sans-Serif" font-size="9.00">std::underflow_error</text>
</a>
</g>
</g>
<!-- Node1&#45;&gt;Node9 -->
<g id="edge8_Node000001_Node000009" class="edge">
<title>Node1&#45;&gt;Node9</title>
<g id="a_edge8_Node000001_Node000009"><a xlink:title=" ">
<path fill="none" stroke="#63b8ff" d="M188.44,-64.89C205.01,-53.25 228.65,-37.74 251,-27 257.66,-23.8 265.03,-20.91 272.11,-18.44"/>
<polygon fill="#63b8ff" stroke="#63b8ff" points="186.44,-62.02 180.34,-70.68 190.51,-67.71 186.44,-62.02"/>
</a>
</g>
</g>
<!-- Node2 -->
<g id="Node000002" class="node">
<title>Node2</title>
<g id="a_Node000002"><a xlink:href="a05761.html" target="_top" xlink:title="Base class for all library exceptions.">
<polygon fill="white" stroke="#666666" points="80,-90 0,-90 0,-72 80,-72 80,-90"/>
<text text-anchor="middle" x="40" y="-78.8" font-family="Helvetica,sans-Serif" font-size="9.00">std::exception</text>
</a>
</g>
</g>
<!-- Node2&#45;&gt;Node1 -->
<g id="edge1_Node000001_Node000002" class="edge">
<title>Node2&#45;&gt;Node1</title>
<g id="a_edge1_Node000001_Node000002"><a xlink:title=" ">
<path fill="none" stroke="#63b8ff" d="M91.84,-81C99.81,-81 108.02,-81 115.93,-81"/>
<polygon fill="#63b8ff" stroke="#63b8ff" points="91.93,-77.5 81.93,-81 91.93,-84.5 91.93,-77.5"/>
</a>
</g>
</g>
<!-- Node7 -->
<g id="Node000007" class="node">
<title>Node7</title>
<g id="a_Node000007"><a xlink:href="a10421.html" target="_top" xlink:title="Exception type thrown by the Filesystem TS library.">
<polygon fill="white" stroke="#666666" points="551,-82 395,-82 395,-54 551,-54 551,-82"/>
<text text-anchor="start" x="403" y="-70.8" font-family="Helvetica,sans-Serif" font-size="9.00">std::experimental::</text>
<text text-anchor="middle" x="473" y="-60.8" font-family="Helvetica,sans-Serif" font-size="9.00">filesystem::v1::filesystem_error</text>
</a>
</g>
</g>
<!-- Node6&#45;&gt;Node7 -->
<g id="edge6_Node000006_Node000007" class="edge">
<title>Node6&#45;&gt;Node7</title>
<g id="a_edge6_Node000006_Node000007"><a xlink:title=" ">
<path fill="none" stroke="#63b8ff" d="M364,-53.04C373.88,-54.41 384.28,-55.85 394.57,-57.27"/>
<polygon fill="#63b8ff" stroke="#63b8ff" points="364.57,-49.58 354.18,-51.68 363.61,-56.52 364.57,-49.58"/>
</a>
</g>
</g>
<!-- Node8 -->
<g id="Node000008" class="node">
<title>Node8</title>
<g id="a_Node000008"><a xlink:href="a05833.html" target="_top" xlink:title="Exception type thrown by the Filesystem library.">
<polygon fill="white" stroke="#666666" points="539.5,-36 406.5,-36 406.5,-8 539.5,-8 539.5,-36"/>
<text text-anchor="start" x="414.5" y="-24.8" font-family="Helvetica,sans-Serif" font-size="9.00">std::filesystem::filesystem</text>
<text text-anchor="middle" x="473" y="-14.8" font-family="Helvetica,sans-Serif" font-size="9.00">_error</text>
</a>
</g>
</g>
<!-- Node6&#45;&gt;Node8 -->
<g id="edge7_Node000006_Node000008" class="edge">
<title>Node6&#45;&gt;Node8</title>
<g id="a_edge7_Node000006_Node000008"><a xlink:title=" ">
<path fill="none" stroke="#63b8ff" d="M363.88,-36.98C377.53,-35.09 392.19,-33.06 406.16,-31.12"/>
<polygon fill="#63b8ff" stroke="#63b8ff" points="363.61,-33.48 354.18,-38.32 364.57,-40.42 363.61,-33.48"/>
</a>
</g>
</g>
</g>
</svg>
