<?xml version="1.0" encoding="UTF-8" standalone="no"?>
<!DOCTYPE svg PUBLIC "-//W3C//DTD SVG 1.1//EN"
 "http://www.w3.org/Graphics/SVG/1.1/DTD/svg11.dtd">
<!-- Generated by graphviz version 7.1.0 (0)
 -->
<!-- Title: std::range_error Pages: 1 -->
<svg width="107pt" height="134pt"
 viewBox="0.00 0.00 107.00 134.00" xmlns="http://www.w3.org/2000/svg" xmlns:xlink="http://www.w3.org/1999/xlink">
<g id="graph0" class="graph" transform="scale(1 1) rotate(0) translate(4 130)">
<title>std::range_error</title>
<!-- Node1 -->
<g id="Node000001" class="node">
<title>Node1</title>
<g id="a_Node000001"><a xlink:title=" ">
<polygon fill="#999999" stroke="#666666" points="94,-18 5,-18 5,0 94,0 94,-18"/>
<text text-anchor="middle" x="49.5" y="-6.8" font-family="Helvetica,sans-Serif" font-size="9.00">std::range_error</text>
</a>
</g>
</g>
<!-- Node2 -->
<g id="Node000002" class="node">
<title>Node2</title>
<g id="a_Node000002"><a xlink:href="a03481.html" target="_top" xlink:title="One of two subclasses of exception.">
<polygon fill="white" stroke="#666666" points="99,-72 0,-72 0,-54 99,-54 99,-72"/>
<text text-anchor="middle" x="49.5" y="-60.8" font-family="Helvetica,sans-Serif" font-size="9.00">std::runtime_error</text>
</a>
</g>
</g>
<!-- Node2&#45;&gt;Node1 -->
<g id="edge1_Node000001_Node000002" class="edge">
<title>Node2&#45;&gt;Node1</title>
<g id="a_edge1_Node000001_Node000002"><a xlink:title=" ">
<path fill="none" stroke="#63b8ff" d="M49.5,-42.39C49.5,-34.03 49.5,-24.72 49.5,-18.24"/>
<polygon fill="#63b8ff" stroke="#63b8ff" points="46,-42.36 49.5,-52.36 53,-42.36 46,-42.36"/>
</a>
</g>
</g>
<!-- Node3 -->
<g id="Node000003" class="node">
<title>Node3</title>
<g id="a_Node000003"><a xlink:href="a05761.html" target="_top" xlink:title="Base class for all library exceptions.">
<polygon fill="white" stroke="#666666" points="89.5,-126 9.5,-126 9.5,-108 89.5,-108 89.5,-126"/>
<text text-anchor="middle" x="49.5" y="-114.8" font-family="Helvetica,sans-Serif" font-size="9.00">std::exception</text>
</a>
</g>
</g>
<!-- Node3&#45;&gt;Node2 -->
<g id="edge2_Node000002_Node000003" class="edge">
<title>Node3&#45;&gt;Node2</title>
<g id="a_edge2_Node000002_Node000003"><a xlink:title=" ">
<path fill="none" stroke="#63b8ff" d="M49.5,-96.39C49.5,-88.03 49.5,-78.72 49.5,-72.24"/>
<polygon fill="#63b8ff" stroke="#63b8ff" points="46,-96.36 49.5,-106.36 53,-96.36 46,-96.36"/>
</a>
</g>
</g>
</g>
</svg>
