<?xml version="1.0" encoding="UTF-8" standalone="no"?>
<!DOCTYPE svg PUBLIC "-//W3C//DTD SVG 1.1//EN"
 "http://www.w3.org/Graphics/SVG/1.1/DTD/svg11.dtd">
<!-- Generated by graphviz version 7.1.0 (0)
 -->
<!-- Title: std::system_error Pages: 1 -->
<svg width="546pt" height="82pt"
 viewBox="0.00 0.00 546.00 82.00" xmlns="http://www.w3.org/2000/svg" xmlns:xlink="http://www.w3.org/1999/xlink">
<g id="graph0" class="graph" transform="scale(1 1) rotate(0) translate(4 78)">
<title>std::system_error</title>
<!-- Node1 -->
<g id="Node000001" class="node">
<title>Node1</title>
<g id="a_Node000001"><a xlink:title="An exception type that includes an error_code value.">
<polygon fill="#999999" stroke="#666666" points="346,-46 251,-46 251,-28 346,-28 346,-46"/>
<text text-anchor="middle" x="298.5" y="-34.8" font-family="Helvetica,sans-Serif" font-size="9.00">std::system_error</text>
</a>
</g>
</g>
<!-- Node4 -->
<g id="Node000004" class="node">
<title>Node4</title>
<g id="a_Node000004"><a xlink:href="a10421.html" target="_top" xlink:title="Exception type thrown by the Filesystem TS library.">
<polygon fill="white" stroke="#666666" points="538,-74 382,-74 382,-46 538,-46 538,-74"/>
<text text-anchor="start" x="390" y="-62.8" font-family="Helvetica,sans-Serif" font-size="9.00">std::experimental::</text>
<text text-anchor="middle" x="460" y="-52.8" font-family="Helvetica,sans-Serif" font-size="9.00">filesystem::v1::filesystem_error</text>
</a>
</g>
</g>
<!-- Node1&#45;&gt;Node4 -->
<g id="edge3_Node000001_Node000004" class="edge">
<title>Node1&#45;&gt;Node4</title>
<g id="a_edge3_Node000001_Node000004"><a xlink:title=" ">
<path fill="none" stroke="#63b8ff" d="M357.64,-45.38C365.41,-46.5 373.49,-47.67 381.53,-48.83"/>
<polygon fill="#63b8ff" stroke="#63b8ff" points="358.39,-41.96 347.99,-43.99 357.39,-48.88 358.39,-41.96"/>
</a>
</g>
</g>
<!-- Node5 -->
<g id="Node000005" class="node">
<title>Node5</title>
<g id="a_Node000005"><a xlink:href="a05833.html" target="_top" xlink:title="Exception type thrown by the Filesystem library.">
<polygon fill="white" stroke="#666666" points="526.5,-28 393.5,-28 393.5,0 526.5,0 526.5,-28"/>
<text text-anchor="start" x="401.5" y="-16.8" font-family="Helvetica,sans-Serif" font-size="9.00">std::filesystem::filesystem</text>
<text text-anchor="middle" x="460" y="-6.8" font-family="Helvetica,sans-Serif" font-size="9.00">_error</text>
</a>
</g>
</g>
<!-- Node1&#45;&gt;Node5 -->
<g id="edge4_Node000001_Node000005" class="edge">
<title>Node1&#45;&gt;Node5</title>
<g id="a_edge4_Node000001_Node000005"><a xlink:title=" ">
<path fill="none" stroke="#63b8ff" d="M357.74,-28.6C369.25,-26.94 381.4,-25.19 393.14,-23.5"/>
<polygon fill="#63b8ff" stroke="#63b8ff" points="357.39,-25.12 347.99,-30.01 358.39,-32.04 357.39,-25.12"/>
</a>
</g>
</g>
<!-- Node2 -->
<g id="Node000002" class="node">
<title>Node2</title>
<g id="a_Node000002"><a xlink:href="a03481.html" target="_top" xlink:title="One of two subclasses of exception.">
<polygon fill="white" stroke="#666666" points="215,-46 116,-46 116,-28 215,-28 215,-46"/>
<text text-anchor="middle" x="165.5" y="-34.8" font-family="Helvetica,sans-Serif" font-size="9.00">std::runtime_error</text>
</a>
</g>
</g>
<!-- Node2&#45;&gt;Node1 -->
<g id="edge1_Node000001_Node000002" class="edge">
<title>Node2&#45;&gt;Node1</title>
<g id="a_edge1_Node000001_Node000002"><a xlink:title=" ">
<path fill="none" stroke="#63b8ff" d="M226.64,-37C234.77,-37 243.01,-37 250.85,-37"/>
<polygon fill="#63b8ff" stroke="#63b8ff" points="226.79,-33.5 216.79,-37 226.79,-40.5 226.79,-33.5"/>
</a>
</g>
</g>
<!-- Node3 -->
<g id="Node000003" class="node">
<title>Node3</title>
<g id="a_Node000003"><a xlink:href="a05761.html" target="_top" xlink:title="Base class for all library exceptions.">
<polygon fill="white" stroke="#666666" points="80,-46 0,-46 0,-28 80,-28 80,-46"/>
<text text-anchor="middle" x="40" y="-34.8" font-family="Helvetica,sans-Serif" font-size="9.00">std::exception</text>
</a>
</g>
</g>
<!-- Node3&#45;&gt;Node2 -->
<g id="edge2_Node000002_Node000003" class="edge">
<title>Node3&#45;&gt;Node2</title>
<g id="a_edge2_Node000002_Node000003"><a xlink:title=" ">
<path fill="none" stroke="#63b8ff" d="M91.84,-37C99.81,-37 108.02,-37 115.93,-37"/>
<polygon fill="#63b8ff" stroke="#63b8ff" points="91.93,-33.5 81.93,-37 91.93,-40.5 91.93,-33.5"/>
</a>
</g>
</g>
</g>
</svg>
