<?xml version="1.0" encoding="UTF-8" standalone="no"?>
<!DOCTYPE svg PUBLIC "-//W3C//DTD SVG 1.1//EN"
 "http://www.w3.org/Graphics/SVG/1.1/DTD/svg11.dtd">
<!-- Generated by graphviz version 7.1.0 (0)
 -->
<!-- Title: std::integral_constant&lt; _Tp, __v &gt; Pages: 1 -->
<!--zoomable 1686 -->

<svg id="main" version="1.1" xmlns="http://www.w3.org/2000/svg" xmlns:xlink="http://www.w3.org/1999/xlink" xml:space="preserve" onload="init(evt)">
<style type="text/css"><![CDATA[
.node, .edge {opacity: 0.7;}
.node.selected, .edge.selected {opacity: 1;}
.edge:hover path { stroke: red; }
.edge:hover polygon { stroke: red; fill: red; }
]]></style>

<defs>
  <circle id="rim" cx="0" cy="0" r="7"/>
  <circle id="rim2" cx="0" cy="0" r="3.5"/>
  <g id="zoomPlus">
    <use xlink:href="#rim" fill="#404040"><set attributeName="fill" to="#808080" begin="zoomplus.mouseover" end="zoomplus.mouseout"/></use>
    <path d="M-4,0h8M0,-4v8" fill="none" stroke="white" stroke-width="1.5" pointer-events="none"/>
  </g>
  <g id="zoomMin">
    <use xlink:href="#rim" fill="#404040"><set attributeName="fill" to="#808080" begin="zoomminus.mouseover" end="zoomminus.mouseout"/></use>
    <path d="M-4,0h8" fill="none" stroke="white" stroke-width="1.5" pointer-events="none"/>
  </g>
  <g id="dirArrow">
    <path fill="none" stroke="white" stroke-width="1.5" d="M0,-3.0v7 M-2.5,-0.5L0,-3.0L2.5,-0.5"/>
  </g>
 <g id="resetDef">
    <use xlink:href="#rim2" fill="#404040"><set attributeName="fill" to="#808080" begin="reset.mouseover" end="reset.mouseout"/></use>
 </g>
</defs>
<script type="text/javascript">
var viewWidth = 458;
var viewHeight = 1686;
var sectionId = 'dynsection-0';
</script>
<script xlink:href="svg.min.js"/>
<svg id="graph" class="graph">
<g id="viewport">
<title>std::integral_constant&lt; _Tp, __v &gt;</title>
<!-- Node1 -->
<g id="Node000001" class="node">
<title>Node1</title>
<g id="a_Node000001"><a xlink:title="integral_constant">
<polygon fill="#999999" stroke="#666666" points="116,-810 0,-810 0,-782 116,-782 116,-810"/>
<text text-anchor="start" x="8" y="-798.8" font-family="Helvetica,sans-Serif" font-size="9.00">std::integral_constant</text>
<text text-anchor="middle" x="58" y="-788.8" font-family="Helvetica,sans-Serif" font-size="9.00">&lt; _Tp, __v &gt;</text>
</a>
</g>
</g>
<!-- Node2 -->
<g id="Node000002" class="node">
<title>Node2</title>
<g id="a_Node000002"><a xlink:href="a05953.html" target="_top" xlink:title=" ">
<polygon fill="white" stroke="#666666" points="302.5,-1678 168.5,-1678 168.5,-1640 302.5,-1640 302.5,-1678"/>
<text text-anchor="start" x="176.5" y="-1666.8" font-family="Helvetica,sans-Serif" font-size="9.00">std::__is_fast_hash</text>
<text text-anchor="start" x="176.5" y="-1656.8" font-family="Helvetica,sans-Serif" font-size="9.00">&lt; hash&lt; std::basic_string</text>
<text text-anchor="middle" x="235.5" y="-1646.8" font-family="Helvetica,sans-Serif" font-size="9.00">&lt; _CharT &gt; &gt; &gt;</text>
</a>
</g>
</g>
<!-- Node1&#45;&gt;Node2 -->
<g id="edge1_Node000001_Node000002" class="edge">
<title>Node1&#45;&gt;Node2</title>
<g id="a_edge1_Node000001_Node000002"><a xlink:title=" ">
<path fill="none" stroke="#63b8ff" d="M60.23,-821.63C66.86,-955.04 99.92,-1566.24 152,-1631 156.45,-1636.54 162.05,-1640.99 168.23,-1644.56"/>
<polygon fill="#63b8ff" stroke="#63b8ff" points="63.73,-821.58 59.75,-811.76 56.74,-821.92 63.73,-821.58"/>
</a>
</g>
</g>
<!-- Node3 -->
<g id="Node000003" class="node">
<title>Node3</title>
<g id="a_Node000003"><a xlink:href="a05953.html" target="_top" xlink:title=" ">
<polygon fill="white" stroke="#666666" points="285.5,-1622 185.5,-1622 185.5,-1594 285.5,-1594 285.5,-1622"/>
<text text-anchor="start" x="193.5" y="-1610.8" font-family="Helvetica,sans-Serif" font-size="9.00">std::__is_fast_hash</text>
<text text-anchor="middle" x="235.5" y="-1600.8" font-family="Helvetica,sans-Serif" font-size="9.00">&lt; hash&lt; _Tp &gt; &gt;</text>
</a>
</g>
</g>
<!-- Node1&#45;&gt;Node3 -->
<g id="edge2_Node000001_Node000003" class="edge">
<title>Node1&#45;&gt;Node3</title>
<g id="a_edge2_Node000001_Node000003"><a xlink:title=" ">
<path fill="none" stroke="#63b8ff" d="M60.36,-821.89C67.36,-951.45 101.1,-1525.56 152,-1585 160.41,-1594.83 172.64,-1600.63 185.11,-1604.01"/>
<polygon fill="#63b8ff" stroke="#63b8ff" points="63.85,-821.77 59.83,-811.97 56.86,-822.14 63.85,-821.77"/>
</a>
</g>
</g>
<!-- Node4 -->
<g id="Node000004" class="node">
<title>Node4</title>
<g id="a_Node000004"><a xlink:href="a04153.html" target="_top" xlink:title=" ">
<polygon fill="white" stroke="#666666" points="299.5,-1576 171.5,-1576 171.5,-1528 299.5,-1528 299.5,-1576"/>
<text text-anchor="start" x="179.5" y="-1564.8" font-family="Helvetica,sans-Serif" font-size="9.00">std::is_base_of&lt; random</text>
<text text-anchor="start" x="179.5" y="-1554.8" font-family="Helvetica,sans-Serif" font-size="9.00">_access_iterator_tag,</text>
<text text-anchor="start" x="179.5" y="-1544.8" font-family="Helvetica,sans-Serif" font-size="9.00"> __iterator_category_t</text>
<text text-anchor="middle" x="235.5" y="-1534.8" font-family="Helvetica,sans-Serif" font-size="9.00">&lt; _It &gt; &gt;</text>
</a>
</g>
</g>
<!-- Node1&#45;&gt;Node4 -->
<g id="edge3_Node000001_Node000004" class="edge">
<title>Node1&#45;&gt;Node4</title>
<g id="a_edge3_Node000001_Node000004"><a xlink:title=" ">
<path fill="none" stroke="#63b8ff" d="M58.93,-821.66C59.09,-937.02 65.16,-1406.9 152,-1519 157.2,-1525.71 163.97,-1531.06 171.4,-1535.32"/>
<polygon fill="#63b8ff" stroke="#63b8ff" points="62.43,-821.73 58.93,-811.73 55.43,-821.73 62.43,-821.73"/>
</a>
</g>
</g>
<!-- Node5 -->
<g id="Node000005" class="node">
<title>Node5</title>
<g id="a_Node000005"><a xlink:href="a05953.html" target="_top" xlink:title=" ">
<polygon fill="white" stroke="#666666" points="285.5,-1510 185.5,-1510 185.5,-1482 285.5,-1482 285.5,-1510"/>
<text text-anchor="start" x="193.5" y="-1498.8" font-family="Helvetica,sans-Serif" font-size="9.00">std::__is_fast_hash</text>
<text text-anchor="middle" x="235.5" y="-1488.8" font-family="Helvetica,sans-Serif" font-size="9.00">&lt; _Hash &gt;</text>
</a>
</g>
</g>
<!-- Node1&#45;&gt;Node5 -->
<g id="edge4_Node000001_Node000005" class="edge">
<title>Node1&#45;&gt;Node5</title>
<g id="a_edge4_Node000001_Node000005"><a xlink:title=" ">
<path fill="none" stroke="#63b8ff" d="M58.9,-821.66C58.99,-933.01 64.94,-1373.28 152,-1473 160.51,-1482.74 172.76,-1488.52 185.23,-1491.9"/>
<polygon fill="#63b8ff" stroke="#63b8ff" points="62.4,-821.8 58.91,-811.8 55.4,-821.8 62.4,-821.8"/>
</a>
</g>
</g>
<!-- Node6 -->
<g id="Node000006" class="node">
<title>Node6</title>
<g id="a_Node000006"><a xlink:href="a04373.html" target="_top" xlink:title="has_unique_object_representations">
<polygon fill="white" stroke="#666666" points="299.5,-1464 171.5,-1464 171.5,-1436 299.5,-1436 299.5,-1464"/>
<text text-anchor="start" x="179.5" y="-1452.8" font-family="Helvetica,sans-Serif" font-size="9.00">std::has_unique_object</text>
<text text-anchor="middle" x="235.5" y="-1442.8" font-family="Helvetica,sans-Serif" font-size="9.00">_representations&lt; _Tp &gt;</text>
</a>
</g>
</g>
<!-- Node1&#45;&gt;Node6 -->
<g id="edge5_Node000001_Node000006" class="edge">
<title>Node1&#45;&gt;Node6</title>
<g id="a_edge5_Node000001_Node000006"><a xlink:title=" ">
<path fill="none" stroke="#63b8ff" d="M59.18,-821.61C60.47,-928.13 70.73,-1334.82 152,-1427 157.31,-1433.02 164.05,-1437.53 171.38,-1440.89"/>
<polygon fill="#63b8ff" stroke="#63b8ff" points="62.69,-821.89 59.09,-811.92 55.69,-821.96 62.69,-821.89"/>
</a>
</g>
</g>
<!-- Node7 -->
<g id="Node000007" class="node">
<title>Node7</title>
<g id="a_Node000007"><a xlink:href="a04377.html" target="_top" xlink:title="is_aggregate &#45; true if the type is an aggregate.">
<polygon fill="white" stroke="#666666" points="286.5,-1418 184.5,-1418 184.5,-1390 286.5,-1390 286.5,-1418"/>
<text text-anchor="start" x="192.5" y="-1406.8" font-family="Helvetica,sans-Serif" font-size="9.00">std::is_aggregate&lt;</text>
<text text-anchor="middle" x="235.5" y="-1396.8" font-family="Helvetica,sans-Serif" font-size="9.00"> _Tp &gt;</text>
</a>
</g>
</g>
<!-- Node1&#45;&gt;Node7 -->
<g id="edge6_Node000001_Node000007" class="edge">
<title>Node1&#45;&gt;Node7</title>
<g id="a_edge6_Node000001_Node000007"><a xlink:title=" ">
<path fill="none" stroke="#63b8ff" d="M59.51,-821.68C62.07,-923.36 76.52,-1296.36 152,-1381 160.31,-1390.32 172.05,-1396 184.08,-1399.43"/>
<polygon fill="#63b8ff" stroke="#63b8ff" points="63.02,-821.84 59.29,-811.92 56.02,-822 63.02,-821.84"/>
</a>
</g>
</g>
<!-- Node8 -->
<g id="Node000008" class="node">
<title>Node8</title>
<g id="a_Node000008"><a xlink:href="a03793.html" target="_top" xlink:title="is_array">
<polygon fill="white" stroke="#666666" points="304.5,-1372 166.5,-1372 166.5,-1354 304.5,-1354 304.5,-1372"/>
<text text-anchor="middle" x="235.5" y="-1360.8" font-family="Helvetica,sans-Serif" font-size="9.00">std::is_array&lt; typename &gt;</text>
</a>
</g>
</g>
<!-- Node1&#45;&gt;Node8 -->
<g id="edge7_Node000001_Node000008" class="edge">
<title>Node1&#45;&gt;Node8</title>
<g id="a_edge7_Node000001_Node000008"><a xlink:title=" ">
<path fill="none" stroke="#63b8ff" d="M59.67,-821.77C62.76,-919.87 78.8,-1268.28 152,-1345 156.05,-1349.24 160.84,-1352.6 166.06,-1355.24"/>
<polygon fill="#63b8ff" stroke="#63b8ff" points="63.17,-821.77 59.38,-811.87 56.18,-821.97 63.17,-821.77"/>
</a>
</g>
</g>
<!-- Node9 -->
<g id="Node000009" class="node">
<title>Node9</title>
<g id="a_Node000009"><a xlink:href="a02509.html" target="_top" xlink:title="Trait that identifies a bind expression.">
<polygon fill="white" stroke="#666666" points="296,-1336 175,-1336 175,-1308 296,-1308 296,-1336"/>
<text text-anchor="start" x="183" y="-1324.8" font-family="Helvetica,sans-Serif" font-size="9.00">std::is_bind_expression</text>
<text text-anchor="middle" x="235.5" y="-1314.8" font-family="Helvetica,sans-Serif" font-size="9.00">&lt; _Tp &gt;</text>
</a>
</g>
</g>
<!-- Node1&#45;&gt;Node9 -->
<g id="edge8_Node000001_Node000009" class="edge">
<title>Node1&#45;&gt;Node9</title>
<g id="a_edge8_Node000001_Node000009"><a xlink:title=" ">
<path fill="none" stroke="#63b8ff" d="M60.24,-821.54C65.21,-913.74 86.74,-1227.65 152,-1299 158.22,-1305.8 166.27,-1310.66 174.89,-1314.11"/>
<polygon fill="#63b8ff" stroke="#63b8ff" points="63.73,-821.37 59.72,-811.57 56.74,-821.73 63.73,-821.37"/>
</a>
</g>
</g>
<!-- Node10 -->
<g id="Node000010" class="node">
<title>Node10</title>
<g id="a_Node000010"><a xlink:href="a02541.html" target="_top" xlink:title="Class template _Bind is always a bind expression.">
<polygon fill="white" stroke="#666666" points="301.5,-1290 169.5,-1290 169.5,-1262 301.5,-1262 301.5,-1290"/>
<text text-anchor="start" x="177.5" y="-1278.8" font-family="Helvetica,sans-Serif" font-size="9.00">std::is_bind_expression</text>
<text text-anchor="middle" x="235.5" y="-1268.8" font-family="Helvetica,sans-Serif" font-size="9.00">&lt; _Bind&lt; _Signature &gt; &gt;</text>
</a>
</g>
</g>
<!-- Node1&#45;&gt;Node10 -->
<g id="edge9_Node000001_Node000010" class="edge">
<title>Node1&#45;&gt;Node10</title>
<g id="a_edge9_Node000001_Node000010"><a xlink:title=" ">
<path fill="none" stroke="#63b8ff" d="M60.75,-821.44C67.2,-907.96 92.44,-1189.04 152,-1253 156.86,-1258.22 162.8,-1262.3 169.25,-1265.47"/>
<polygon fill="#63b8ff" stroke="#63b8ff" points="64.25,-821.37 60.04,-811.64 57.27,-821.87 64.25,-821.37"/>
</a>
</g>
</g>
<!-- Node11 -->
<g id="Node000011" class="node">
<title>Node11</title>
<g id="a_Node000011"><a xlink:href="a02557.html" target="_top" xlink:title="Class template _Bind_result is always a bind expression.">
<polygon fill="white" stroke="#666666" points="299.5,-1244 171.5,-1244 171.5,-1206 299.5,-1206 299.5,-1244"/>
<text text-anchor="start" x="179.5" y="-1232.8" font-family="Helvetica,sans-Serif" font-size="9.00">std::is_bind_expression</text>
<text text-anchor="start" x="179.5" y="-1222.8" font-family="Helvetica,sans-Serif" font-size="9.00">&lt; _Bind_result&lt; _Result,</text>
<text text-anchor="middle" x="235.5" y="-1212.8" font-family="Helvetica,sans-Serif" font-size="9.00"> _Signature &gt; &gt;</text>
</a>
</g>
</g>
<!-- Node1&#45;&gt;Node11 -->
<g id="edge10_Node000001_Node000011" class="edge">
<title>Node1&#45;&gt;Node11</title>
<g id="a_edge10_Node000001_Node000011"><a xlink:title=" ">
<path fill="none" stroke="#63b8ff" d="M61.71,-821.78C70.57,-901.29 101.01,-1140.68 152,-1197 157.38,-1202.94 164.07,-1207.63 171.29,-1211.31"/>
<polygon fill="#63b8ff" stroke="#63b8ff" points="65.2,-821.52 60.64,-811.95 58.25,-822.27 65.2,-821.52"/>
</a>
</g>
</g>
<!-- Node12 -->
<g id="Node000012" class="node">
<title>Node12</title>
<g id="a_Node000012"><a xlink:href="a02545.html" target="_top" xlink:title="Class template _Bind is always a bind expression.">
<polygon fill="white" stroke="#666666" points="315.5,-1188 155.5,-1188 155.5,-1160 315.5,-1160 315.5,-1188"/>
<text text-anchor="start" x="163.5" y="-1176.8" font-family="Helvetica,sans-Serif" font-size="9.00">std::is_bind_expression</text>
<text text-anchor="middle" x="235.5" y="-1166.8" font-family="Helvetica,sans-Serif" font-size="9.00">&lt; const _Bind&lt; _Signature &gt; &gt;</text>
</a>
</g>
</g>
<!-- Node1&#45;&gt;Node12 -->
<g id="edge11_Node000001_Node000012" class="edge">
<title>Node1&#45;&gt;Node12</title>
<g id="a_edge11_Node000001_Node000012"><a xlink:title=" ">
<path fill="none" stroke="#63b8ff" d="M62.4,-821.8C72.6,-895.26 105.1,-1103.36 152,-1151 155.23,-1154.28 158.89,-1157.11 162.83,-1159.54"/>
<polygon fill="#63b8ff" stroke="#63b8ff" points="65.88,-821.39 61.06,-811.96 58.94,-822.34 65.88,-821.39"/>
</a>
</g>
</g>
<!-- Node13 -->
<g id="Node000013" class="node">
<title>Node13</title>
<g id="a_Node000013"><a xlink:href="a02561.html" target="_top" xlink:title="Class template _Bind_result is always a bind expression.">
<polygon fill="white" stroke="#666666" points="299.5,-1142 171.5,-1142 171.5,-1104 299.5,-1104 299.5,-1142"/>
<text text-anchor="start" x="179.5" y="-1130.8" font-family="Helvetica,sans-Serif" font-size="9.00">std::is_bind_expression</text>
<text text-anchor="start" x="179.5" y="-1120.8" font-family="Helvetica,sans-Serif" font-size="9.00">&lt; const _Bind_result&lt;</text>
<text text-anchor="middle" x="235.5" y="-1110.8" font-family="Helvetica,sans-Serif" font-size="9.00"> _Result, _Signature &gt; &gt;</text>
</a>
</g>
</g>
<!-- Node1&#45;&gt;Node13 -->
<g id="edge12_Node000001_Node000013" class="edge">
<title>Node1&#45;&gt;Node13</title>
<g id="a_edge12_Node000001_Node000013"><a xlink:title=" ">
<path fill="none" stroke="#63b8ff" d="M59.52,-821.63C62.06,-878.67 76.17,-1017.2 152,-1095 157.49,-1100.63 164.15,-1105.13 171.29,-1108.73"/>
<polygon fill="#63b8ff" stroke="#63b8ff" points="63.02,-821.83 59.18,-811.95 56.03,-822.07 63.02,-821.83"/>
</a>
</g>
</g>
<!-- Node14 -->
<g id="Node000014" class="node">
<title>Node14</title>
<g id="a_Node000014"><a xlink:href="a02553.html" target="_top" xlink:title="Class template _Bind is always a bind expression.">
<polygon fill="white" stroke="#666666" points="296,-1086 175,-1086 175,-1048 296,-1048 296,-1086"/>
<text text-anchor="start" x="183" y="-1074.8" font-family="Helvetica,sans-Serif" font-size="9.00">std::is_bind_expression</text>
<text text-anchor="start" x="183" y="-1064.8" font-family="Helvetica,sans-Serif" font-size="9.00">&lt; const volatile _Bind</text>
<text text-anchor="middle" x="235.5" y="-1054.8" font-family="Helvetica,sans-Serif" font-size="9.00">&lt; _Signature &gt; &gt;</text>
</a>
</g>
</g>
<!-- Node1&#45;&gt;Node14 -->
<g id="edge13_Node000001_Node000014" class="edge">
<title>Node1&#45;&gt;Node14</title>
<g id="a_edge13_Node000001_Node000014"><a xlink:title=" ">
<path fill="none" stroke="#63b8ff" d="M61.65,-821.47C68.1,-870.47 88.99,-978.36 152,-1039 158.43,-1045.19 166.28,-1050.01 174.55,-1053.77"/>
<polygon fill="#63b8ff" stroke="#63b8ff" points="65.16,-821.36 60.49,-811.85 58.21,-822.2 65.16,-821.36"/>
</a>
</g>
</g>
<!-- Node15 -->
<g id="Node000015" class="node">
<title>Node15</title>
<g id="a_Node000015"><a xlink:href="a02569.html" target="_top" xlink:title="Class template _Bind_result is always a bind expression.">
<polygon fill="white" stroke="#666666" points="318,-1030 153,-1030 153,-992 318,-992 318,-1030"/>
<text text-anchor="start" x="161" y="-1018.8" font-family="Helvetica,sans-Serif" font-size="9.00">std::is_bind_expression</text>
<text text-anchor="start" x="161" y="-1008.8" font-family="Helvetica,sans-Serif" font-size="9.00">&lt; const volatile _Bind</text>
<text text-anchor="middle" x="235.5" y="-998.8" font-family="Helvetica,sans-Serif" font-size="9.00">_result&lt; _Result, _Signature &gt; &gt;</text>
</a>
</g>
</g>
<!-- Node1&#45;&gt;Node15 -->
<g id="edge14_Node000001_Node000015" class="edge">
<title>Node1&#45;&gt;Node15</title>
<g id="a_edge14_Node000001_Node000015"><a xlink:title=" ">
<path fill="none" stroke="#63b8ff" d="M65.02,-821.66C75.71,-861.73 101.77,-939.1 152,-983 155.64,-986.19 159.67,-989.01 163.92,-991.52"/>
<polygon fill="#63b8ff" stroke="#63b8ff" points="68.41,-820.8 62.55,-811.97 61.62,-822.52 68.41,-820.8"/>
</a>
</g>
</g>
<!-- Node16 -->
<g id="Node000016" class="node">
<title>Node16</title>
<g id="a_Node000016"><a xlink:href="a02549.html" target="_top" xlink:title="Class template _Bind is always a bind expression.">
<polygon fill="white" stroke="#666666" points="319,-974 152,-974 152,-946 319,-946 319,-974"/>
<text text-anchor="start" x="160" y="-962.8" font-family="Helvetica,sans-Serif" font-size="9.00">std::is_bind_expression</text>
<text text-anchor="middle" x="235.5" y="-952.8" font-family="Helvetica,sans-Serif" font-size="9.00">&lt; volatile _Bind&lt; _Signature &gt; &gt;</text>
</a>
</g>
</g>
<!-- Node1&#45;&gt;Node16 -->
<g id="edge15_Node000001_Node000016" class="edge">
<title>Node1&#45;&gt;Node16</title>
<g id="a_edge15_Node000001_Node000016"><a xlink:title=" ">
<path fill="none" stroke="#63b8ff" d="M68.9,-821.06C82.73,-852.81 110.84,-907 152,-937 156.57,-940.33 161.59,-943.17 166.85,-945.61"/>
<polygon fill="#63b8ff" stroke="#63b8ff" points="72.13,-819.73 65.04,-811.86 65.68,-822.44 72.13,-819.73"/>
</a>
</g>
</g>
<!-- Node17 -->
<g id="Node000017" class="node">
<title>Node17</title>
<g id="a_Node000017"><a xlink:href="a02565.html" target="_top" xlink:title="Class template _Bind_result is always a bind expression.">
<polygon fill="white" stroke="#666666" points="303,-928 168,-928 168,-890 303,-890 303,-928"/>
<text text-anchor="start" x="176" y="-916.8" font-family="Helvetica,sans-Serif" font-size="9.00">std::is_bind_expression</text>
<text text-anchor="start" x="176" y="-906.8" font-family="Helvetica,sans-Serif" font-size="9.00">&lt; volatile _Bind_result</text>
<text text-anchor="middle" x="235.5" y="-896.8" font-family="Helvetica,sans-Serif" font-size="9.00">&lt; _Result, _Signature &gt; &gt;</text>
</a>
</g>
</g>
<!-- Node1&#45;&gt;Node17 -->
<g id="edge16_Node000001_Node000017" class="edge">
<title>Node1&#45;&gt;Node17</title>
<g id="a_edge16_Node000001_Node000017"><a xlink:title=" ">
<path fill="none" stroke="#63b8ff" d="M78.73,-818.66C96.29,-837.61 123.55,-864.19 152,-881 157.34,-884.16 163.08,-887.02 168.97,-889.6"/>
<polygon fill="#63b8ff" stroke="#63b8ff" points="81.47,-816.47 72.16,-811.42 76.28,-821.17 81.47,-816.47"/>
</a>
</g>
</g>
<!-- Node18 -->
<g id="Node000018" class="node">
<title>Node18</title>
<g id="a_Node000018"><a xlink:href="a04401.html" target="_top" xlink:title="True for a type that is an array of known bound.">
<polygon fill="white" stroke="#666666" points="293.5,-872 177.5,-872 177.5,-844 293.5,-844 293.5,-872"/>
<text text-anchor="start" x="185.5" y="-860.8" font-family="Helvetica,sans-Serif" font-size="9.00">std::is_bounded_array</text>
<text text-anchor="middle" x="235.5" y="-850.8" font-family="Helvetica,sans-Serif" font-size="9.00">&lt; _Tp &gt;</text>
</a>
</g>
</g>
<!-- Node1&#45;&gt;Node18 -->
<g id="edge17_Node000001_Node000018" class="edge">
<title>Node1&#45;&gt;Node18</title>
<g id="a_edge17_Node000001_Node000018"><a xlink:title=" ">
<path fill="none" stroke="#63b8ff" d="M100.99,-814.92C116.81,-821.7 135.07,-829.12 152,-835 160.71,-838.03 170.04,-840.94 179.18,-843.61"/>
<polygon fill="#63b8ff" stroke="#63b8ff" points="102.42,-811.73 91.86,-810.96 99.64,-818.15 102.42,-811.73"/>
</a>
</g>
</g>
<!-- Node19 -->
<g id="Node000019" class="node">
<title>Node19</title>
<g id="a_Node000019"><a xlink:href="a03765.html" target="_top" xlink:title="is_const">
<polygon fill="white" stroke="#666666" points="305.5,-826 165.5,-826 165.5,-808 305.5,-808 305.5,-826"/>
<text text-anchor="middle" x="235.5" y="-814.8" font-family="Helvetica,sans-Serif" font-size="9.00">std::is_const&lt; typename &gt;</text>
</a>
</g>
</g>
<!-- Node1&#45;&gt;Node19 -->
<g id="edge18_Node000001_Node000019" class="edge">
<title>Node1&#45;&gt;Node19</title>
<g id="a_edge18_Node000001_Node000019"><a xlink:title=" ">
<path fill="none" stroke="#63b8ff" d="M127.64,-804.21C140,-805.69 152.9,-807.24 165.28,-808.72"/>
<polygon fill="#63b8ff" stroke="#63b8ff" points="128.31,-800.77 117.97,-803.06 127.48,-807.72 128.31,-800.77"/>
</a>
</g>
</g>
<!-- Node20 -->
<g id="Node000020" class="node">
<title>Node20</title>
<g id="a_Node000020"><a xlink:href="a03569.html" target="_top" xlink:title="is_error_code_enum">
<polygon fill="white" stroke="#666666" points="283.5,-790 187.5,-790 187.5,-762 283.5,-762 283.5,-790"/>
<text text-anchor="start" x="195.5" y="-778.8" font-family="Helvetica,sans-Serif" font-size="9.00">std::is_error_code</text>
<text text-anchor="middle" x="235.5" y="-768.8" font-family="Helvetica,sans-Serif" font-size="9.00">_enum&lt; _Tp &gt;</text>
</a>
</g>
</g>
<!-- Node1&#45;&gt;Node20 -->
<g id="edge19_Node000001_Node000020" class="edge">
<title>Node1&#45;&gt;Node20</title>
<g id="a_edge19_Node000001_Node000020"><a xlink:title=" ">
<path fill="none" stroke="#63b8ff" d="M127.68,-788.17C147.59,-785.9 168.87,-783.48 187.16,-781.39"/>
<polygon fill="#63b8ff" stroke="#63b8ff" points="127.51,-784.67 117.97,-789.28 128.3,-791.63 127.51,-784.67"/>
</a>
</g>
</g>
<!-- Node21 -->
<g id="Node000021" class="node">
<title>Node21</title>
<g id="a_Node000021"><a xlink:href="a02653.html" target="_top" xlink:title="Specialization that allows future_errc to convert to error_code.">
<polygon fill="white" stroke="#666666" points="294.5,-744 176.5,-744 176.5,-716 294.5,-716 294.5,-744"/>
<text text-anchor="start" x="184.5" y="-732.8" font-family="Helvetica,sans-Serif" font-size="9.00">std::is_error_code</text>
<text text-anchor="middle" x="235.5" y="-722.8" font-family="Helvetica,sans-Serif" font-size="9.00">_enum&lt; future_errc &gt;</text>
</a>
</g>
</g>
<!-- Node1&#45;&gt;Node21 -->
<g id="edge20_Node000001_Node000021" class="edge">
<title>Node1&#45;&gt;Node21</title>
<g id="a_edge20_Node000001_Node000021"><a xlink:title=" ">
<path fill="none" stroke="#63b8ff" d="M96.89,-776.8C113.53,-768.8 133.47,-759.81 152,-753 160.37,-749.92 169.35,-747.02 178.2,-744.39"/>
<polygon fill="#63b8ff" stroke="#63b8ff" points="95.81,-773.43 88.35,-780.95 98.87,-779.72 95.81,-773.43"/>
</a>
</g>
</g>
<!-- Node22 -->
<g id="Node000022" class="node">
<title>Node22</title>
<g id="a_Node000022"><a xlink:href="a03573.html" target="_top" xlink:title="is_error_condition_enum">
<polygon fill="white" stroke="#666666" points="293.5,-698 177.5,-698 177.5,-670 293.5,-670 293.5,-698"/>
<text text-anchor="start" x="185.5" y="-686.8" font-family="Helvetica,sans-Serif" font-size="9.00">std::is_error_condition</text>
<text text-anchor="middle" x="235.5" y="-676.8" font-family="Helvetica,sans-Serif" font-size="9.00">_enum&lt; _Tp &gt;</text>
</a>
</g>
</g>
<!-- Node1&#45;&gt;Node22 -->
<g id="edge21_Node000001_Node000022" class="edge">
<title>Node1&#45;&gt;Node22</title>
<g id="a_edge21_Node000001_Node000022"><a xlink:title=" ">
<path fill="none" stroke="#63b8ff" d="M77.16,-773.12C94.38,-752.91 122.02,-724.07 152,-707 159.75,-702.59 168.4,-698.98 177.1,-696.04"/>
<polygon fill="#63b8ff" stroke="#63b8ff" points="74.68,-770.64 70.98,-780.57 80.06,-775.11 74.68,-770.64"/>
</a>
</g>
</g>
<!-- Node23 -->
<g id="Node000023" class="node">
<title>Node23</title>
<g id="a_Node000023"><a xlink:href="a04409.html" target="_top" xlink:title=" ">
<polygon fill="white" stroke="#666666" points="301,-652 170,-652 170,-624 301,-624 301,-652"/>
<text text-anchor="start" x="178" y="-640.8" font-family="Helvetica,sans-Serif" font-size="9.00">std::is_layout_compatible</text>
<text text-anchor="middle" x="235.5" y="-630.8" font-family="Helvetica,sans-Serif" font-size="9.00">&lt; _Tp, _Up &gt;</text>
</a>
</g>
</g>
<!-- Node1&#45;&gt;Node23 -->
<g id="edge22_Node000001_Node000023" class="edge">
<title>Node1&#45;&gt;Node23</title>
<g id="a_edge22_Node000001_Node000023"><a xlink:title=" ">
<path fill="none" stroke="#63b8ff" d="M69.4,-771.53C83.61,-741.06 111.97,-689.56 152,-661 157.45,-657.11 163.53,-653.88 169.85,-651.2"/>
<polygon fill="#63b8ff" stroke="#63b8ff" points="66.35,-769.79 65.44,-780.34 72.73,-772.66 66.35,-769.79"/>
</a>
</g>
</g>
<!-- Node24 -->
<g id="Node000024" class="node">
<title>Node24</title>
<g id="a_Node000024"><a xlink:href="a03817.html" target="_top" xlink:title="is_lvalue_reference">
<polygon fill="white" stroke="#666666" points="296.5,-606 174.5,-606 174.5,-578 296.5,-578 296.5,-606"/>
<text text-anchor="start" x="182.5" y="-594.8" font-family="Helvetica,sans-Serif" font-size="9.00">std::is_lvalue_reference</text>
<text text-anchor="middle" x="235.5" y="-584.8" font-family="Helvetica,sans-Serif" font-size="9.00">&lt; typename &gt;</text>
</a>
</g>
</g>
<!-- Node1&#45;&gt;Node24 -->
<g id="edge23_Node000001_Node000024" class="edge">
<title>Node1&#45;&gt;Node24</title>
<g id="a_edge23_Node000001_Node000024"><a xlink:title=" ">
<path fill="none" stroke="#63b8ff" d="M65.06,-770.54C75.75,-731.21 101.75,-655.97 152,-615 158.57,-609.64 166.3,-605.53 174.36,-602.38"/>
<polygon fill="#63b8ff" stroke="#63b8ff" points="61.72,-769.49 62.6,-780.05 68.49,-771.24 61.72,-769.49"/>
</a>
</g>
</g>
<!-- Node25 -->
<g id="Node000025" class="node">
<title>Node25</title>
<g id="a_Node000025"><a xlink:href="a03853.html" target="_top" xlink:title="is_member_function_pointer">
<polygon fill="white" stroke="#666666" points="299.5,-560 171.5,-560 171.5,-532 299.5,-532 299.5,-560"/>
<text text-anchor="start" x="179.5" y="-548.8" font-family="Helvetica,sans-Serif" font-size="9.00">std::is_member_function</text>
<text text-anchor="middle" x="235.5" y="-538.8" font-family="Helvetica,sans-Serif" font-size="9.00">_pointer&lt; _Tp &gt;</text>
</a>
</g>
</g>
<!-- Node1&#45;&gt;Node25 -->
<g id="edge24_Node000001_Node000025" class="edge">
<title>Node1&#45;&gt;Node25</title>
<g id="a_edge24_Node000001_Node000025"><a xlink:title=" ">
<path fill="none" stroke="#63b8ff" d="M62.14,-770.28C69.27,-723.23 91.09,-623.17 152,-569 157.56,-564.06 164.09,-560.17 171,-557.11"/>
<polygon fill="#63b8ff" stroke="#63b8ff" points="58.69,-769.66 60.77,-780.05 65.63,-770.63 58.69,-769.66"/>
</a>
</g>
</g>
<!-- Node26 -->
<g id="Node000026" class="node">
<title>Node26</title>
<g id="a_Node000026"><a xlink:href="a03841.html" target="_top" xlink:title="is_member_object_pointer">
<polygon fill="white" stroke="#666666" points="295,-514 176,-514 176,-486 295,-486 295,-514"/>
<text text-anchor="start" x="184" y="-502.8" font-family="Helvetica,sans-Serif" font-size="9.00">std::is_member_object</text>
<text text-anchor="middle" x="235.5" y="-492.8" font-family="Helvetica,sans-Serif" font-size="9.00">_pointer&lt; _Tp &gt;</text>
</a>
</g>
</g>
<!-- Node1&#45;&gt;Node26 -->
<g id="edge25_Node000001_Node000026" class="edge">
<title>Node1&#45;&gt;Node26</title>
<g id="a_edge25_Node000001_Node000026"><a xlink:title=" ">
<path fill="none" stroke="#63b8ff" d="M60.08,-770.48C63.78,-716.67 80.09,-590.96 152,-523 158.7,-516.67 166.99,-512.05 175.72,-508.7"/>
<polygon fill="#63b8ff" stroke="#63b8ff" points="56.61,-769.98 59.52,-780.17 63.6,-770.39 56.61,-769.98"/>
</a>
</g>
</g>
<!-- Node27 -->
<g id="Node000027" class="node">
<title>Node27</title>
<g id="a_Node000027"><a xlink:href="a04161.html" target="_top" xlink:title="is_nothrow_convertible">
<polygon fill="white" stroke="#666666" points="305.5,-468 165.5,-468 165.5,-440 305.5,-440 305.5,-468"/>
<text text-anchor="start" x="173.5" y="-456.8" font-family="Helvetica,sans-Serif" font-size="9.00">std::is_nothrow_convertible</text>
<text text-anchor="middle" x="235.5" y="-446.8" font-family="Helvetica,sans-Serif" font-size="9.00">&lt; _From, _To &gt;</text>
</a>
</g>
</g>
<!-- Node1&#45;&gt;Node27 -->
<g id="edge26_Node000001_Node000027" class="edge">
<title>Node1&#45;&gt;Node27</title>
<g id="a_edge26_Node000001_Node000027"><a xlink:title=" ">
<path fill="none" stroke="#63b8ff" d="M58.6,-770.45C59.12,-710.36 69.07,-558.96 152,-477 155.91,-473.13 160.42,-469.9 165.26,-467.21"/>
<polygon fill="#63b8ff" stroke="#63b8ff" points="55.1,-770.32 58.61,-780.32 62.1,-770.31 55.1,-770.32"/>
</a>
</g>
</g>
<!-- Node28 -->
<g id="Node000028" class="node">
<title>Node28</title>
<g id="a_Node000028"><a xlink:href="a03877.html" target="_top" xlink:title="is_null_pointer (LWG 2247).">
<polygon fill="white" stroke="#666666" points="286,-422 185,-422 185,-394 286,-394 286,-422"/>
<text text-anchor="start" x="193" y="-410.8" font-family="Helvetica,sans-Serif" font-size="9.00">std::is_null_pointer</text>
<text text-anchor="middle" x="235.5" y="-400.8" font-family="Helvetica,sans-Serif" font-size="9.00">&lt; _Tp &gt;</text>
</a>
</g>
</g>
<!-- Node1&#45;&gt;Node28 -->
<g id="edge27_Node000001_Node000028" class="edge">
<title>Node1&#45;&gt;Node28</title>
<g id="a_edge27_Node000001_Node000028"><a xlink:title=" ">
<path fill="none" stroke="#63b8ff" d="M62.17,-770.46C71.94,-695.82 103.82,-480.27 152,-431 160.73,-422.07 172.62,-416.52 184.64,-413.1"/>
<polygon fill="#63b8ff" stroke="#63b8ff" points="58.74,-769.69 60.94,-780.06 65.68,-770.58 58.74,-769.69"/>
</a>
</g>
</g>
<!-- Node30 -->
<g id="Node000030" class="node">
<title>Node30</title>
<g id="a_Node000030"><a xlink:href="a03813.html" target="_top" xlink:title="is_pointer">
<polygon fill="white" stroke="#666666" points="294,-376 177,-376 177,-358 294,-358 294,-376"/>
<text text-anchor="middle" x="235.5" y="-364.8" font-family="Helvetica,sans-Serif" font-size="9.00">std::is_pointer&lt; _Tp &gt;</text>
</a>
</g>
</g>
<!-- Node1&#45;&gt;Node30 -->
<g id="edge29_Node000001_Node000030" class="edge">
<title>Node1&#45;&gt;Node30</title>
<g id="a_edge29_Node000001_Node000030"><a xlink:title=" ">
<path fill="none" stroke="#63b8ff" d="M61.2,-770.91C68.78,-690.33 96.43,-440.14 152,-385 158.76,-378.29 167.41,-373.82 176.55,-370.9"/>
<polygon fill="#63b8ff" stroke="#63b8ff" points="57.76,-770.14 60.33,-780.42 64.73,-770.78 57.76,-770.14"/>
</a>
</g>
</g>
<!-- Node31 -->
<g id="Node000031" class="node">
<title>Node31</title>
<g id="a_Node000031"><a xlink:href="a04413.html" target="_top" xlink:title="True if _Derived is standard&#45;layout and has a base class of type _Base">
<polygon fill="white" stroke="#666666" points="313,-340 158,-340 158,-312 313,-312 313,-340"/>
<text text-anchor="start" x="166" y="-328.8" font-family="Helvetica,sans-Serif" font-size="9.00">std::is_pointer_interconvertible</text>
<text text-anchor="middle" x="235.5" y="-318.8" font-family="Helvetica,sans-Serif" font-size="9.00">_base_of&lt; _Base, _Derived &gt;</text>
</a>
</g>
</g>
<!-- Node1&#45;&gt;Node31 -->
<g id="edge30_Node000001_Node000031" class="edge">
<title>Node1&#45;&gt;Node31</title>
<g id="a_edge30_Node000001_Node000031"><a xlink:title=" ">
<path fill="none" stroke="#63b8ff" d="M60.9,-770.29C67.71,-684.69 93.74,-411.28 152,-349 155.15,-345.63 158.74,-342.75 162.63,-340.27"/>
<polygon fill="#63b8ff" stroke="#63b8ff" points="57.41,-769.97 60.13,-780.21 64.39,-770.51 57.41,-769.97"/>
</a>
</g>
</g>
<!-- Node32 -->
<g id="Node000032" class="node">
<title>Node32</title>
<g id="a_Node000032"><a xlink:href="a03749.html" target="_top" xlink:title="is_reference">
<polygon fill="white" stroke="#666666" points="284.5,-294 186.5,-294 186.5,-266 284.5,-266 284.5,-294"/>
<text text-anchor="start" x="194.5" y="-282.8" font-family="Helvetica,sans-Serif" font-size="9.00">std::is_reference&lt;</text>
<text text-anchor="middle" x="235.5" y="-272.8" font-family="Helvetica,sans-Serif" font-size="9.00"> _Tp &gt;</text>
</a>
</g>
</g>
<!-- Node1&#45;&gt;Node32 -->
<g id="edge31_Node000001_Node000032" class="edge">
<title>Node1&#45;&gt;Node32</title>
<g id="a_edge31_Node000001_Node000032"><a xlink:title=" ">
<path fill="none" stroke="#63b8ff" d="M60.35,-770.36C65.65,-679.23 88.01,-372.71 152,-303 160.95,-293.25 173.65,-287.5 186.41,-284.15"/>
<polygon fill="#63b8ff" stroke="#63b8ff" points="56.86,-770.05 59.79,-780.23 63.85,-770.44 56.86,-770.05"/>
</a>
</g>
</g>
<!-- Node33 -->
<g id="Node000033" class="node">
<title>Node33</title>
<g id="a_Node000033"><a xlink:href="a03825.html" target="_top" xlink:title="is_rvalue_reference">
<polygon fill="white" stroke="#666666" points="297,-248 174,-248 174,-220 297,-220 297,-248"/>
<text text-anchor="start" x="182" y="-236.8" font-family="Helvetica,sans-Serif" font-size="9.00">std::is_rvalue_reference</text>
<text text-anchor="middle" x="235.5" y="-226.8" font-family="Helvetica,sans-Serif" font-size="9.00">&lt; typename &gt;</text>
</a>
</g>
</g>
<!-- Node1&#45;&gt;Node33 -->
<g id="edge32_Node000001_Node000033" class="edge">
<title>Node1&#45;&gt;Node33</title>
<g id="a_edge32_Node000001_Node000033"><a xlink:title=" ">
<path fill="none" stroke="#63b8ff" d="M59.89,-770.5C63.76,-674.2 82.24,-334.19 152,-257 157.88,-250.49 165.44,-245.76 173.58,-242.34"/>
<polygon fill="#63b8ff" stroke="#63b8ff" points="56.4,-770.08 59.52,-780.21 63.4,-770.35 56.4,-770.08"/>
</a>
</g>
</g>
<!-- Node34 -->
<g id="Node000034" class="node">
<title>Node34</title>
<g id="a_Node000034"><a xlink:href="a03933.html" target="_top" xlink:title="is_same">
<polygon fill="white" stroke="#666666" points="286,-202 185,-202 185,-174 286,-174 286,-202"/>
<text text-anchor="start" x="193" y="-190.8" font-family="Helvetica,sans-Serif" font-size="9.00">std::is_same&lt; _Tp,</text>
<text text-anchor="middle" x="235.5" y="-180.8" font-family="Helvetica,sans-Serif" font-size="9.00"> _Up &gt;</text>
</a>
</g>
</g>
<!-- Node1&#45;&gt;Node34 -->
<g id="edge33_Node000001_Node000034" class="edge">
<title>Node1&#45;&gt;Node34</title>
<g id="a_edge33_Node000001_Node000034"><a xlink:title=" ">
<path fill="none" stroke="#63b8ff" d="M59.51,-770.32C62.07,-668.64 76.52,-295.64 152,-211 160.41,-201.57 172.33,-195.86 184.51,-192.45"/>
<polygon fill="#63b8ff" stroke="#63b8ff" points="56.02,-770 59.29,-780.08 63.02,-770.16 56.02,-770"/>
</a>
</g>
</g>
<!-- Node35 -->
<g id="Node000035" class="node">
<title>Node35</title>
<g id="a_Node000035"><a xlink:href="a04405.html" target="_top" xlink:title="True for a type that is an array of unknown bound.">
<polygon fill="white" stroke="#666666" points="299.5,-156 171.5,-156 171.5,-128 299.5,-128 299.5,-156"/>
<text text-anchor="start" x="179.5" y="-144.8" font-family="Helvetica,sans-Serif" font-size="9.00">std::is_unbounded_array</text>
<text text-anchor="middle" x="235.5" y="-134.8" font-family="Helvetica,sans-Serif" font-size="9.00">&lt; _Tp &gt;</text>
</a>
</g>
</g>
<!-- Node1&#45;&gt;Node35 -->
<g id="edge34_Node000001_Node000035" class="edge">
<title>Node1&#45;&gt;Node35</title>
<g id="a_edge34_Node000001_Node000035"><a xlink:title=" ">
<path fill="none" stroke="#63b8ff" d="M59.18,-770.39C60.47,-663.87 70.73,-257.18 152,-165 157.31,-158.98 164.05,-154.47 171.38,-151.11"/>
<polygon fill="#63b8ff" stroke="#63b8ff" points="55.69,-770.04 59.09,-780.08 62.69,-770.11 55.69,-770.04"/>
</a>
</g>
</g>
<!-- Node36 -->
<g id="Node000036" class="node">
<title>Node36</title>
<g id="a_Node000036"><a xlink:href="a03757.html" target="_top" xlink:title="is_void">
<polygon fill="white" stroke="#666666" points="287.5,-110 183.5,-110 183.5,-92 287.5,-92 287.5,-110"/>
<text text-anchor="middle" x="235.5" y="-98.8" font-family="Helvetica,sans-Serif" font-size="9.00">std::is_void&lt; _Tp &gt;</text>
</a>
</g>
</g>
<!-- Node1&#45;&gt;Node36 -->
<g id="edge35_Node000001_Node000036" class="edge">
<title>Node1&#45;&gt;Node36</title>
<g id="a_edge35_Node000001_Node000036"><a xlink:title=" ">
<path fill="none" stroke="#63b8ff" d="M58.76,-770.22C58.27,-658.34 62.13,-216.19 152,-119 160.16,-110.17 171.56,-105.15 183.28,-102.41"/>
<polygon fill="#63b8ff" stroke="#63b8ff" points="55.26,-770.15 58.82,-780.13 62.26,-770.11 55.26,-770.15"/>
</a>
</g>
</g>
<!-- Node37 -->
<g id="Node000037" class="node">
<title>Node37</title>
<g id="a_Node000037"><a xlink:href="a03941.html" target="_top" xlink:title="is_volatile">
<polygon fill="white" stroke="#666666" points="308.5,-74 162.5,-74 162.5,-56 308.5,-56 308.5,-74"/>
<text text-anchor="middle" x="235.5" y="-62.8" font-family="Helvetica,sans-Serif" font-size="9.00">std::is_volatile&lt; typename &gt;</text>
</a>
</g>
</g>
<!-- Node1&#45;&gt;Node37 -->
<g id="edge36_Node000001_Node000037" class="edge">
<title>Node1&#45;&gt;Node37</title>
<g id="a_edge36_Node000001_Node000037"><a xlink:title=" ">
<path fill="none" stroke="#63b8ff" d="M58.57,-770.34C57.15,-655.05 57.39,-186.02 152,-83 155.17,-79.54 158.84,-76.67 162.83,-74.29"/>
<polygon fill="#63b8ff" stroke="#63b8ff" points="55.06,-770.32 58.7,-780.27 62.06,-770.22 55.06,-770.32"/>
</a>
</g>
</g>
<!-- Node38 -->
<g id="Node000038" class="node">
<title>Node38</title>
<g id="a_Node000038"><a xlink:href="a03693.html" target="_top" xlink:title="Partial specialization for tuples.">
<polygon fill="white" stroke="#666666" points="290.5,-38 180.5,-38 180.5,0 290.5,0 290.5,-38"/>
<text text-anchor="start" x="188.5" y="-26.8" font-family="Helvetica,sans-Serif" font-size="9.00">std::uses_allocator</text>
<text text-anchor="start" x="188.5" y="-16.8" font-family="Helvetica,sans-Serif" font-size="9.00">&lt; tuple&lt; _Types... &gt;</text>
<text text-anchor="middle" x="235.5" y="-6.8" font-family="Helvetica,sans-Serif" font-size="9.00">, _Alloc &gt;</text>
</a>
</g>
</g>
<!-- Node1&#45;&gt;Node38 -->
<g id="edge37_Node000001_Node000038" class="edge">
<title>Node1&#45;&gt;Node38</title>
<g id="a_edge37_Node000001_Node000038"><a xlink:title=" ">
<path fill="none" stroke="#63b8ff" d="M58.66,-770.06C57.62,-651.37 59.08,-161.07 152,-47 159.26,-38.09 169.48,-32 180.26,-27.84"/>
<polygon fill="#63b8ff" stroke="#63b8ff" points="55.16,-770.04 58.76,-780 62.16,-769.96 55.16,-770.04"/>
</a>
</g>
</g>
<!-- Node29 -->
<g id="Node000029" class="node">
<title>Node29</title>
<g id="a_Node000029"><a xlink:href="a03897.html" target="_top" xlink:title="__is_nullptr_t (deprecated extension).">
<polygon fill="white" stroke="#666666" points="450,-422 355,-422 355,-394 450,-394 450,-422"/>
<text text-anchor="start" x="363" y="-410.8" font-family="Helvetica,sans-Serif" font-size="9.00">std::__is_nullptr_t</text>
<text text-anchor="middle" x="402.5" y="-400.8" font-family="Helvetica,sans-Serif" font-size="9.00">&lt; _Tp &gt;</text>
</a>
</g>
</g>
<!-- Node28&#45;&gt;Node29 -->
<g id="edge28_Node000028_Node000029" class="edge">
<title>Node28&#45;&gt;Node29</title>
<g id="a_edge28_Node000028_Node000029"><a xlink:title=" ">
<path fill="none" stroke="#63b8ff" d="M297.88,-408C316.62,-408 336.92,-408 354.54,-408"/>
<polygon fill="#63b8ff" stroke="#63b8ff" points="297.97,-404.5 287.97,-408 297.97,-411.5 297.97,-404.5"/>
</a>
</g>
</g>
</g>
</svg>

<g id="navigator" transform="translate(0 0)" fill="#404254">
  <rect fill="#f2f5e9" fill-opacity="0.5" stroke="#606060" stroke-width=".5" x="0" y="0" width="60" height="60"/>
  <use id="zoomplus" xlink:href="#zoomPlus" x="17" y="9" onmousedown="handleZoom(evt,'in')"/>
  <use id="zoomminus" xlink:href="#zoomMin" x="42" y="9" onmousedown="handleZoom(evt,'out')"/>
  <use id="reset" xlink:href="#resetDef" x="30" y="36" onmousedown="handleReset()"/>
  <g id="arrowUp" xlink:href="#dirArrow" transform="translate(30 24)" onmousedown="handlePan(0,-1)">
    <use xlink:href="#rim" fill="#404040">
          <set attributeName="fill" to="#808080" begin="arrowUp.mouseover" end="arrowUp.mouseout"/>
    </use>
    <path fill="none" stroke="white" stroke-width="1.5" d="M0,-3.0v7 M-2.5,-0.5L0,-3.0L2.5,-0.5"/>
  </g>
  <g id="arrowRight" xlink:href="#dirArrow" transform="rotate(90) translate(36 -43)" onmousedown="handlePan(1,0)">
    <use xlink:href="#rim" fill="#404040">
          <set attributeName="fill" to="#808080" begin="arrowRight.mouseover" end="arrowRight.mouseout"/>
    </use>
    <path fill="none" stroke="white" stroke-width="1.5" d="M0,-3.0v7 M-2.5,-0.5L0,-3.0L2.5,-0.5"/>
  </g>
  <g id="arrowDown" xlink:href="#dirArrow" transform="rotate(180) translate(-30 -48)" onmousedown="handlePan(0,1)">
    <use xlink:href="#rim" fill="#404040">
          <set attributeName="fill" to="#808080" begin="arrowDown.mouseover" end="arrowDown.mouseout"/>
    </use>
    <path fill="none" stroke="white" stroke-width="1.5" d="M0,-3.0v7 M-2.5,-0.5L0,-3.0L2.5,-0.5"/>
  </g>
  <g id="arrowLeft" xlink:href="#dirArrow" transform="rotate(270) translate(-36 17)" onmousedown="handlePan(-1,0)">
    <use xlink:href="#rim" fill="#404040">
          <set attributeName="fill" to="#808080" begin="arrowLeft.mouseover" end="arrowLeft.mouseout"/>
    </use>
    <path fill="none" stroke="white" stroke-width="1.5" d="M0,-3.0v7 M-2.5,-0.5L0,-3.0L2.5,-0.5"/>
  </g>
</g>
<svg viewBox="0 0 15 15" width="100%" height="30px" preserveAspectRatio="xMaxYMin meet">
 <g id="arrow_out" transform="scale(0.3 0.3)">
  <a xlink:href="a03708_org.svg" target="_base">
   <rect id="button" ry="5" rx="5" y="6" x="6" height="38" width="38"
        fill="#f2f5e9" fill-opacity="0.5" stroke="#606060" stroke-width="1.0"/>
   <path id="arrow"
     d="M 11.500037,31.436501 C 11.940474,20.09759 22.043105,11.32322 32.158766,21.979434 L 37.068811,17.246167 C 37.068811,17.246167 37.088388,32 37.088388,32 L 22.160133,31.978069 C 22.160133,31.978069 26.997745,27.140456 26.997745,27.140456 C 18.528582,18.264221 13.291696,25.230495 11.500037,31.436501 z"
     style="fill:#404040;"/>
  </a>
 </g>
</svg>

<style type='text/css'>
<![CDATA[
[data-mouse-over-selected='false'] { opacity: 0.7; }
[data-mouse-over-selected='true']  { opacity: 1.0; }
]]>
</style>
<script><![CDATA[
document.addEventListener('DOMContentLoaded', (event) => {
  highlightEdges();
  highlightAdjacentNodes();
});
]]></script>
</svg>
