<?xml version="1.0" encoding="UTF-8" standalone="no"?>
<!DOCTYPE svg PUBLIC "-//W3C//DTD SVG 1.1//EN"
 "http://www.w3.org/Graphics/SVG/1.1/DTD/svg11.dtd">
<!-- Generated by graphviz version 7.1.0 (0)
 -->
<!-- Title: std::__codecvt_abstract_base&lt; _InternT, _ExternT, _StateT &gt; Pages: 1 -->
<svg width="591pt" height="87pt"
 viewBox="0.00 0.00 591.00 87.00" xmlns="http://www.w3.org/2000/svg" xmlns:xlink="http://www.w3.org/1999/xlink">
<g id="graph0" class="graph" transform="scale(1 1) rotate(0) translate(4 83)">
<title>std::__codecvt_abstract_base&lt; _InternT, _ExternT, _StateT &gt;</title>
<!-- Node1 -->
<g id="Node000001" class="node">
<title>Node1</title>
<g id="a_Node000001"><a xlink:title="Common base for codecvt functions.">
<polygon fill="#999999" stroke="#666666" points="273,-61 134,-61 134,-23 273,-23 273,-61"/>
<text text-anchor="start" x="142" y="-49.8" font-family="Helvetica,sans-Serif" font-size="9.00">std::__codecvt_abstract</text>
<text text-anchor="start" x="142" y="-39.8" font-family="Helvetica,sans-Serif" font-size="9.00">_base&lt; _InternT, _ExternT,</text>
<text text-anchor="middle" x="203.5" y="-29.8" font-family="Helvetica,sans-Serif" font-size="9.00"> _StateT &gt;</text>
</a>
</g>
</g>
<!-- Node4 -->
<g id="Node000004" class="node">
<title>Node4</title>
<g id="a_Node000004"><a xlink:href="a05473.html" target="_top" xlink:title=" ">
<polygon fill="white" stroke="#666666" points="427.5,-79 314.5,-79 314.5,-51 427.5,-51 427.5,-79"/>
<text text-anchor="start" x="322.5" y="-67.8" font-family="Helvetica,sans-Serif" font-size="9.00">std::codecvt&lt; _Elem,</text>
<text text-anchor="middle" x="371" y="-57.8" font-family="Helvetica,sans-Serif" font-size="9.00"> char, mbstate_t &gt;</text>
</a>
</g>
</g>
<!-- Node1&#45;&gt;Node4 -->
<g id="edge3_Node000001_Node000004" class="edge">
<title>Node1&#45;&gt;Node4</title>
<g id="a_edge3_Node000001_Node000004"><a xlink:title=" ">
<path fill="none" stroke="#63b8ff" d="M284.48,-53.12C294.48,-54.5 304.53,-55.9 314.05,-57.22"/>
<polygon fill="#63b8ff" stroke="#63b8ff" points="285.13,-49.67 274.75,-51.76 284.17,-56.61 285.13,-49.67"/>
</a>
</g>
</g>
<!-- Node5 -->
<g id="Node000005" class="node">
<title>Node5</title>
<g id="a_Node000005"><a xlink:href="a05473.html" target="_top" xlink:title="Primary class template codecvt.">
<polygon fill="white" stroke="#666666" points="433,-33 309,-33 309,-5 433,-5 433,-33"/>
<text text-anchor="start" x="317" y="-21.8" font-family="Helvetica,sans-Serif" font-size="9.00">std::codecvt&lt; _InternT,</text>
<text text-anchor="middle" x="371" y="-11.8" font-family="Helvetica,sans-Serif" font-size="9.00"> _ExternT, _StateT &gt;</text>
</a>
</g>
</g>
<!-- Node1&#45;&gt;Node5 -->
<g id="edge4_Node000001_Node000005" class="edge">
<title>Node1&#45;&gt;Node5</title>
<g id="a_edge4_Node000001_Node000005"><a xlink:title=" ">
<path fill="none" stroke="#63b8ff" d="M284.6,-30.87C292.67,-29.75 300.77,-28.62 308.6,-27.53"/>
<polygon fill="#63b8ff" stroke="#63b8ff" points="284.17,-27.39 274.75,-32.24 285.13,-34.33 284.17,-27.39"/>
</a>
</g>
</g>
<!-- Node2 -->
<g id="Node000002" class="node">
<title>Node2</title>
<g id="a_Node000002"><a xlink:href="a06141.html" target="_top" xlink:title="Localization functionality base class.">
<polygon fill="white" stroke="#666666" points="94.5,-69 3.5,-69 3.5,-51 94.5,-51 94.5,-69"/>
<text text-anchor="middle" x="49" y="-57.8" font-family="Helvetica,sans-Serif" font-size="9.00">std::locale::facet</text>
</a>
</g>
</g>
<!-- Node2&#45;&gt;Node1 -->
<g id="edge1_Node000001_Node000002" class="edge">
<title>Node2&#45;&gt;Node1</title>
<g id="a_edge1_Node000001_Node000002"><a xlink:title=" ">
<path fill="none" stroke="#63b8ff" d="M106.32,-53.35C115.2,-52.3 124.45,-51.21 133.57,-50.14"/>
<polygon fill="#63b8ff" stroke="#63b8ff" points="105.95,-49.87 96.43,-54.52 106.77,-56.82 105.95,-49.87"/>
</a>
</g>
</g>
<!-- Node3 -->
<g id="Node000003" class="node">
<title>Node3</title>
<g id="a_Node000003"><a xlink:href="a05465.html" target="_top" xlink:title="Empty base class for codecvt facet [22.2.1.5].">
<polygon fill="white" stroke="#666666" points="98,-33 0,-33 0,-15 98,-15 98,-33"/>
<text text-anchor="middle" x="49" y="-21.8" font-family="Helvetica,sans-Serif" font-size="9.00">std::codecvt_base</text>
</a>
</g>
</g>
<!-- Node3&#45;&gt;Node1 -->
<g id="edge2_Node000001_Node000003" class="edge">
<title>Node3&#45;&gt;Node1</title>
<g id="a_edge2_Node000001_Node000003"><a xlink:title=" ">
<path fill="none" stroke="#63b8ff" d="M109.6,-31.03C117.49,-31.97 125.63,-32.93 133.67,-33.88"/>
<polygon fill="#63b8ff" stroke="#63b8ff" points="110.1,-27.57 99.76,-29.87 109.28,-34.52 110.1,-27.57"/>
</a>
</g>
</g>
<!-- Node6 -->
<g id="Node000006" class="node">
<title>Node6</title>
<g id="a_Node000006"><a xlink:href="a05493.html" target="_top" xlink:title="class codecvt_byname [22.2.1.6].">
<polygon fill="white" stroke="#666666" points="583,-38 469,-38 469,0 583,0 583,-38"/>
<text text-anchor="start" x="477" y="-26.8" font-family="Helvetica,sans-Serif" font-size="9.00">std::codecvt_byname</text>
<text text-anchor="start" x="477" y="-16.8" font-family="Helvetica,sans-Serif" font-size="9.00">&lt; _InternT, _ExternT,</text>
<text text-anchor="middle" x="526" y="-6.8" font-family="Helvetica,sans-Serif" font-size="9.00"> _StateT &gt;</text>
</a>
</g>
</g>
<!-- Node5&#45;&gt;Node6 -->
<g id="edge5_Node000005_Node000006" class="edge">
<title>Node5&#45;&gt;Node6</title>
<g id="a_edge5_Node000005_Node000006"><a xlink:title=" ">
<path fill="none" stroke="#63b8ff" d="M444.65,-19C452.69,-19 460.79,-19 468.59,-19"/>
<polygon fill="#63b8ff" stroke="#63b8ff" points="444.86,-15.5 434.86,-19 444.86,-22.5 444.86,-15.5"/>
</a>
</g>
</g>
</g>
</svg>
