<?xml version="1.0" encoding="UTF-8" standalone="no"?>
<!DOCTYPE svg PUBLIC "-//W3C//DTD SVG 1.1//EN"
 "http://www.w3.org/Graphics/SVG/1.1/DTD/svg11.dtd">
<!-- Generated by graphviz version 7.1.0 (0)
 -->
<!-- Title: std::codecvt_base Pages: 1 -->
<svg width="641pt" height="385pt"
 viewBox="0.00 0.00 641.00 385.00" xmlns="http://www.w3.org/2000/svg" xmlns:xlink="http://www.w3.org/1999/xlink">
<g id="graph0" class="graph" transform="scale(1 1) rotate(0) translate(4 381)">
<title>std::codecvt_base</title>
<!-- Node1 -->
<g id="Node000001" class="node">
<title>Node1</title>
<g id="a_Node000001"><a xlink:title="Empty base class for codecvt facet [22.2.1.5].">
<polygon fill="#999999" stroke="#666666" points="98,-209 0,-209 0,-191 98,-191 98,-209"/>
<text text-anchor="middle" x="49" y="-197.8" font-family="Helvetica,sans-Serif" font-size="9.00">std::codecvt_base</text>
</a>
</g>
</g>
<!-- Node2 -->
<g id="Node000002" class="node">
<title>Node2</title>
<g id="a_Node000002"><a xlink:href="a05469.html" target="_top" xlink:title=" ">
<polygon fill="white" stroke="#666666" points="287.5,-377 148.5,-377 148.5,-339 287.5,-339 287.5,-377"/>
<text text-anchor="start" x="156.5" y="-365.8" font-family="Helvetica,sans-Serif" font-size="9.00">std::__codecvt_abstract</text>
<text text-anchor="start" x="156.5" y="-355.8" font-family="Helvetica,sans-Serif" font-size="9.00">_base&lt; _InternT, _ExternT,</text>
<text text-anchor="middle" x="218" y="-345.8" font-family="Helvetica,sans-Serif" font-size="9.00"> encoding_state &gt;</text>
</a>
</g>
</g>
<!-- Node1&#45;&gt;Node2 -->
<g id="edge1_Node000001_Node000002" class="edge">
<title>Node1&#45;&gt;Node2</title>
<g id="a_edge1_Node000001_Node000002"><a xlink:title=" ">
<path fill="none" stroke="#63b8ff" d="M57.85,-220.01C69.99,-248.46 95.96,-300.4 134,-330 138.32,-333.36 143.07,-336.33 148.04,-338.95"/>
<polygon fill="#63b8ff" stroke="#63b8ff" points="61.1,-218.72 54.07,-210.8 54.62,-221.38 61.1,-218.72"/>
</a>
</g>
</g>
<!-- Node4 -->
<g id="Node000004" class="node">
<title>Node4</title>
<g id="a_Node000004"><a xlink:href="a05469.html" target="_top" xlink:title=" ">
<polygon fill="white" stroke="#666666" points="298.5,-321 137.5,-321 137.5,-293 298.5,-293 298.5,-321"/>
<text text-anchor="start" x="145.5" y="-309.8" font-family="Helvetica,sans-Serif" font-size="9.00">std::__codecvt_abstract</text>
<text text-anchor="middle" x="218" y="-299.8" font-family="Helvetica,sans-Serif" font-size="9.00">_base&lt; char, char, mbstate_t &gt;</text>
</a>
</g>
</g>
<!-- Node1&#45;&gt;Node4 -->
<g id="edge3_Node000001_Node000004" class="edge">
<title>Node1&#45;&gt;Node4</title>
<g id="a_edge3_Node000001_Node000004"><a xlink:title=" ">
<path fill="none" stroke="#63b8ff" d="M63.57,-218.32C78.69,-237.46 104.87,-267.02 134,-284 139.68,-287.31 145.87,-290.17 152.21,-292.62"/>
<polygon fill="#63b8ff" stroke="#63b8ff" points="66.5,-216.39 57.63,-210.59 60.94,-220.65 66.5,-216.39"/>
</a>
</g>
</g>
<!-- Node6 -->
<g id="Node000006" class="node">
<title>Node6</title>
<g id="a_Node000006"><a xlink:href="a05469.html" target="_top" xlink:title=" ">
<polygon fill="white" stroke="#666666" points="280,-275 156,-275 156,-237 280,-237 280,-275"/>
<text text-anchor="start" x="164" y="-263.8" font-family="Helvetica,sans-Serif" font-size="9.00">std::__codecvt_abstract</text>
<text text-anchor="start" x="164" y="-253.8" font-family="Helvetica,sans-Serif" font-size="9.00">_base&lt; char16_t, char,</text>
<text text-anchor="middle" x="218" y="-243.8" font-family="Helvetica,sans-Serif" font-size="9.00"> mbstate_t &gt;</text>
</a>
</g>
</g>
<!-- Node1&#45;&gt;Node6 -->
<g id="edge5_Node000001_Node000006" class="edge">
<title>Node1&#45;&gt;Node6</title>
<g id="a_edge5_Node000001_Node000006"><a xlink:title=" ">
<path fill="none" stroke="#63b8ff" d="M89.01,-213.08C109.84,-220.07 135.89,-228.8 159.05,-236.57"/>
<polygon fill="#63b8ff" stroke="#63b8ff" points="90.36,-209.84 79.76,-209.98 88.13,-216.48 90.36,-209.84"/>
</a>
</g>
</g>
<!-- Node8 -->
<g id="Node000008" class="node">
<title>Node8</title>
<g id="a_Node000008"><a xlink:href="a05469.html" target="_top" xlink:title=" ">
<polygon fill="white" stroke="#666666" points="280,-219 156,-219 156,-181 280,-181 280,-219"/>
<text text-anchor="start" x="164" y="-207.8" font-family="Helvetica,sans-Serif" font-size="9.00">std::__codecvt_abstract</text>
<text text-anchor="start" x="164" y="-197.8" font-family="Helvetica,sans-Serif" font-size="9.00">_base&lt; char32_t, char,</text>
<text text-anchor="middle" x="218" y="-187.8" font-family="Helvetica,sans-Serif" font-size="9.00"> mbstate_t &gt;</text>
</a>
</g>
</g>
<!-- Node1&#45;&gt;Node8 -->
<g id="edge7_Node000001_Node000008" class="edge">
<title>Node1&#45;&gt;Node8</title>
<g id="a_edge7_Node000001_Node000008"><a xlink:title=" ">
<path fill="none" stroke="#63b8ff" d="M109.51,-200C124.51,-200 140.63,-200 155.71,-200"/>
<polygon fill="#63b8ff" stroke="#63b8ff" points="109.82,-196.5 99.82,-200 109.82,-203.5 109.82,-196.5"/>
</a>
</g>
</g>
<!-- Node10 -->
<g id="Node000010" class="node">
<title>Node10</title>
<g id="a_Node000010"><a xlink:href="a05469.html" target="_top" xlink:title=" ">
<polygon fill="white" stroke="#666666" points="280,-163 156,-163 156,-125 280,-125 280,-163"/>
<text text-anchor="start" x="164" y="-151.8" font-family="Helvetica,sans-Serif" font-size="9.00">std::__codecvt_abstract</text>
<text text-anchor="start" x="164" y="-141.8" font-family="Helvetica,sans-Serif" font-size="9.00">_base&lt; wchar_t, char,</text>
<text text-anchor="middle" x="218" y="-131.8" font-family="Helvetica,sans-Serif" font-size="9.00"> mbstate_t &gt;</text>
</a>
</g>
</g>
<!-- Node1&#45;&gt;Node10 -->
<g id="edge9_Node000001_Node000010" class="edge">
<title>Node1&#45;&gt;Node10</title>
<g id="a_edge9_Node000001_Node000010"><a xlink:title=" ">
<path fill="none" stroke="#63b8ff" d="M89.01,-186.92C109.84,-179.93 135.89,-171.2 159.05,-163.43"/>
<polygon fill="#63b8ff" stroke="#63b8ff" points="88.13,-183.52 79.76,-190.02 90.36,-190.16 88.13,-183.52"/>
</a>
</g>
</g>
<!-- Node12 -->
<g id="Node000012" class="node">
<title>Node12</title>
<g id="a_Node000012"><a xlink:href="a05469.html" target="_top" xlink:title=" ">
<polygon fill="white" stroke="#666666" points="302,-107 134,-107 134,-79 302,-79 302,-107"/>
<text text-anchor="start" x="142" y="-95.8" font-family="Helvetica,sans-Serif" font-size="9.00">std::__codecvt_abstract</text>
<text text-anchor="middle" x="218" y="-85.8" font-family="Helvetica,sans-Serif" font-size="9.00">_base&lt; _Elem, char, mbstate_t &gt;</text>
</a>
</g>
</g>
<!-- Node1&#45;&gt;Node12 -->
<g id="edge11_Node000001_Node000012" class="edge">
<title>Node1&#45;&gt;Node12</title>
<g id="a_edge11_Node000001_Node000012"><a xlink:title=" ">
<path fill="none" stroke="#63b8ff" d="M63.57,-181.68C78.69,-162.54 104.87,-132.98 134,-116 139.68,-112.69 145.87,-109.83 152.21,-107.38"/>
<polygon fill="#63b8ff" stroke="#63b8ff" points="60.94,-179.35 57.63,-189.41 66.5,-183.61 60.94,-179.35"/>
</a>
</g>
</g>
<!-- Node13 -->
<g id="Node000013" class="node">
<title>Node13</title>
<g id="a_Node000013"><a xlink:href="a05469.html" target="_top" xlink:title="Common base for codecvt functions.">
<polygon fill="white" stroke="#666666" points="287.5,-61 148.5,-61 148.5,-23 287.5,-23 287.5,-61"/>
<text text-anchor="start" x="156.5" y="-49.8" font-family="Helvetica,sans-Serif" font-size="9.00">std::__codecvt_abstract</text>
<text text-anchor="start" x="156.5" y="-39.8" font-family="Helvetica,sans-Serif" font-size="9.00">_base&lt; _InternT, _ExternT,</text>
<text text-anchor="middle" x="218" y="-29.8" font-family="Helvetica,sans-Serif" font-size="9.00"> _StateT &gt;</text>
</a>
</g>
</g>
<!-- Node1&#45;&gt;Node13 -->
<g id="edge12_Node000001_Node000013" class="edge">
<title>Node1&#45;&gt;Node13</title>
<g id="a_edge12_Node000001_Node000013"><a xlink:title=" ">
<path fill="none" stroke="#63b8ff" d="M57.85,-179.99C69.99,-151.54 95.96,-99.6 134,-70 138.32,-66.64 143.07,-63.67 148.04,-61.05"/>
<polygon fill="#63b8ff" stroke="#63b8ff" points="54.62,-178.62 54.07,-189.2 61.1,-181.28 54.62,-178.62"/>
</a>
</g>
</g>
<!-- Node3 -->
<g id="Node000003" class="node">
<title>Node3</title>
<g id="a_Node000003"><a xlink:href="a11925.html" target="_top" xlink:title="codecvt&lt;InternT, _ExternT, encoding_state&gt; specialization.">
<polygon fill="white" stroke="#666666" points="483,-372 338,-372 338,-344 483,-344 483,-372"/>
<text text-anchor="start" x="346" y="-360.8" font-family="Helvetica,sans-Serif" font-size="9.00">std::codecvt&lt; _InternT,</text>
<text text-anchor="middle" x="410.5" y="-350.8" font-family="Helvetica,sans-Serif" font-size="9.00"> _ExternT, encoding_state &gt;</text>
</a>
</g>
</g>
<!-- Node2&#45;&gt;Node3 -->
<g id="edge2_Node000002_Node000003" class="edge">
<title>Node2&#45;&gt;Node3</title>
<g id="a_edge2_Node000002_Node000003"><a xlink:title=" ">
<path fill="none" stroke="#63b8ff" d="M298.93,-358C311.77,-358 324.98,-358 337.62,-358"/>
<polygon fill="#63b8ff" stroke="#63b8ff" points="299.29,-354.5 289.29,-358 299.29,-361.5 299.29,-354.5"/>
</a>
</g>
</g>
<!-- Node5 -->
<g id="Node000005" class="node">
<title>Node5</title>
<g id="a_Node000005"><a xlink:href="a05477.html" target="_top" xlink:title="class codecvt&lt;char, char, mbstate_t&gt; specialization.">
<polygon fill="white" stroke="#666666" points="464,-321 357,-321 357,-293 464,-293 464,-321"/>
<text text-anchor="start" x="365" y="-309.8" font-family="Helvetica,sans-Serif" font-size="9.00">std::codecvt&lt; char,</text>
<text text-anchor="middle" x="410.5" y="-299.8" font-family="Helvetica,sans-Serif" font-size="9.00"> char, mbstate_t &gt;</text>
</a>
</g>
</g>
<!-- Node4&#45;&gt;Node5 -->
<g id="edge4_Node000004_Node000005" class="edge">
<title>Node4&#45;&gt;Node5</title>
<g id="a_edge4_Node000004_Node000005"><a xlink:title=" ">
<path fill="none" stroke="#63b8ff" d="M310.43,-307C326.25,-307 342.21,-307 356.57,-307"/>
<polygon fill="#63b8ff" stroke="#63b8ff" points="310.47,-303.5 300.47,-307 310.47,-310.5 310.47,-303.5"/>
</a>
</g>
</g>
<!-- Node7 -->
<g id="Node000007" class="node">
<title>Node7</title>
<g id="a_Node000007"><a xlink:href="a05485.html" target="_top" xlink:title="Class codecvt&lt;char16_t, char, mbstate_t&gt; specialization.">
<polygon fill="white" stroke="#666666" points="468.5,-270 352.5,-270 352.5,-242 468.5,-242 468.5,-270"/>
<text text-anchor="start" x="360.5" y="-258.8" font-family="Helvetica,sans-Serif" font-size="9.00">std::codecvt&lt; char16</text>
<text text-anchor="middle" x="410.5" y="-248.8" font-family="Helvetica,sans-Serif" font-size="9.00">_t, char, mbstate_t &gt;</text>
</a>
</g>
</g>
<!-- Node6&#45;&gt;Node7 -->
<g id="edge6_Node000006_Node000007" class="edge">
<title>Node6&#45;&gt;Node7</title>
<g id="a_edge6_Node000006_Node000007"><a xlink:title=" ">
<path fill="none" stroke="#63b8ff" d="M291.61,-256C311.66,-256 333.13,-256 352.17,-256"/>
<polygon fill="#63b8ff" stroke="#63b8ff" points="291.84,-252.5 281.84,-256 291.84,-259.5 291.84,-252.5"/>
</a>
</g>
</g>
<!-- Node9 -->
<g id="Node000009" class="node">
<title>Node9</title>
<g id="a_Node000009"><a xlink:href="a05489.html" target="_top" xlink:title="Class codecvt&lt;char32_t, char, mbstate_t&gt; specialization.">
<polygon fill="white" stroke="#666666" points="468.5,-214 352.5,-214 352.5,-186 468.5,-186 468.5,-214"/>
<text text-anchor="start" x="360.5" y="-202.8" font-family="Helvetica,sans-Serif" font-size="9.00">std::codecvt&lt; char32</text>
<text text-anchor="middle" x="410.5" y="-192.8" font-family="Helvetica,sans-Serif" font-size="9.00">_t, char, mbstate_t &gt;</text>
</a>
</g>
</g>
<!-- Node8&#45;&gt;Node9 -->
<g id="edge8_Node000008_Node000009" class="edge">
<title>Node8&#45;&gt;Node9</title>
<g id="a_edge8_Node000008_Node000009"><a xlink:title=" ">
<path fill="none" stroke="#63b8ff" d="M291.61,-200C311.66,-200 333.13,-200 352.17,-200"/>
<polygon fill="#63b8ff" stroke="#63b8ff" points="291.84,-196.5 281.84,-200 291.84,-203.5 291.84,-196.5"/>
</a>
</g>
</g>
<!-- Node11 -->
<g id="Node000011" class="node">
<title>Node11</title>
<g id="a_Node000011"><a xlink:href="a05481.html" target="_top" xlink:title="Class codecvt&lt;wchar_t, char, mbstate_t&gt; specialization.">
<polygon fill="white" stroke="#666666" points="467,-158 354,-158 354,-130 467,-130 467,-158"/>
<text text-anchor="start" x="362" y="-146.8" font-family="Helvetica,sans-Serif" font-size="9.00">std::codecvt&lt; wchar</text>
<text text-anchor="middle" x="410.5" y="-136.8" font-family="Helvetica,sans-Serif" font-size="9.00">_t, char, mbstate_t &gt;</text>
</a>
</g>
</g>
<!-- Node10&#45;&gt;Node11 -->
<g id="edge10_Node000010_Node000011" class="edge">
<title>Node10&#45;&gt;Node11</title>
<g id="a_edge10_Node000010_Node000011"><a xlink:title=" ">
<path fill="none" stroke="#63b8ff" d="M291.6,-144C312.21,-144 334.33,-144 353.77,-144"/>
<polygon fill="#63b8ff" stroke="#63b8ff" points="291.84,-140.5 281.84,-144 291.84,-147.5 291.84,-140.5"/>
</a>
</g>
</g>
<!-- Node14 -->
<g id="Node000014" class="node">
<title>Node14</title>
<g id="a_Node000014"><a xlink:href="a05473.html" target="_top" xlink:title=" ">
<polygon fill="white" stroke="#666666" points="467,-79 354,-79 354,-51 467,-51 467,-79"/>
<text text-anchor="start" x="362" y="-67.8" font-family="Helvetica,sans-Serif" font-size="9.00">std::codecvt&lt; _Elem,</text>
<text text-anchor="middle" x="410.5" y="-57.8" font-family="Helvetica,sans-Serif" font-size="9.00"> char, mbstate_t &gt;</text>
</a>
</g>
</g>
<!-- Node13&#45;&gt;Node14 -->
<g id="edge13_Node000013_Node000014" class="edge">
<title>Node13&#45;&gt;Node14</title>
<g id="a_edge13_Node000013_Node000014"><a xlink:title=" ">
<path fill="none" stroke="#63b8ff" d="M299.08,-51.67C317.44,-53.88 336.57,-56.19 353.65,-58.26"/>
<polygon fill="#63b8ff" stroke="#63b8ff" points="299.62,-48.21 289.28,-50.48 298.79,-55.16 299.62,-48.21"/>
</a>
</g>
</g>
<!-- Node15 -->
<g id="Node000015" class="node">
<title>Node15</title>
<g id="a_Node000015"><a xlink:href="a05473.html" target="_top" xlink:title="Primary class template codecvt.">
<polygon fill="white" stroke="#666666" points="472.5,-33 348.5,-33 348.5,-5 472.5,-5 472.5,-33"/>
<text text-anchor="start" x="356.5" y="-21.8" font-family="Helvetica,sans-Serif" font-size="9.00">std::codecvt&lt; _InternT,</text>
<text text-anchor="middle" x="410.5" y="-11.8" font-family="Helvetica,sans-Serif" font-size="9.00"> _ExternT, _StateT &gt;</text>
</a>
</g>
</g>
<!-- Node13&#45;&gt;Node15 -->
<g id="edge14_Node000013_Node000015" class="edge">
<title>Node13&#45;&gt;Node15</title>
<g id="a_edge14_Node000013_Node000015"><a xlink:title=" ">
<path fill="none" stroke="#63b8ff" d="M299.01,-32.34C315.43,-30.36 332.46,-28.3 348.09,-26.41"/>
<polygon fill="#63b8ff" stroke="#63b8ff" points="298.79,-28.84 289.28,-33.52 299.62,-35.79 298.79,-28.84"/>
</a>
</g>
</g>
<!-- Node16 -->
<g id="Node000016" class="node">
<title>Node16</title>
<g id="a_Node000016"><a xlink:href="a05493.html" target="_top" xlink:title="class codecvt_byname [22.2.1.6].">
<polygon fill="white" stroke="#666666" points="633,-38 519,-38 519,0 633,0 633,-38"/>
<text text-anchor="start" x="527" y="-26.8" font-family="Helvetica,sans-Serif" font-size="9.00">std::codecvt_byname</text>
<text text-anchor="start" x="527" y="-16.8" font-family="Helvetica,sans-Serif" font-size="9.00">&lt; _InternT, _ExternT,</text>
<text text-anchor="middle" x="576" y="-6.8" font-family="Helvetica,sans-Serif" font-size="9.00"> _StateT &gt;</text>
</a>
</g>
</g>
<!-- Node15&#45;&gt;Node16 -->
<g id="edge15_Node000015_Node000016" class="edge">
<title>Node15&#45;&gt;Node16</title>
<g id="a_edge15_Node000015_Node000016"><a xlink:title=" ">
<path fill="none" stroke="#63b8ff" d="M484.28,-19C495.82,-19 507.61,-19 518.71,-19"/>
<polygon fill="#63b8ff" stroke="#63b8ff" points="484.36,-15.5 474.36,-19 484.36,-22.5 484.36,-15.5"/>
</a>
</g>
</g>
</g>
</svg>
