<?xml version="1.0" encoding="UTF-8" standalone="no"?>
<!DOCTYPE svg PUBLIC "-//W3C//DTD SVG 1.1//EN"
 "http://www.w3.org/Graphics/SVG/1.1/DTD/svg11.dtd">
<!-- Generated by graphviz version 7.1.0 (0)
 -->
<!-- Title: std::codecvt_byname&lt; _InternT, _ExternT, _StateT &gt; Pages: 1 -->
<svg width="216pt" height="238pt"
 viewBox="0.00 0.00 215.50 238.00" xmlns="http://www.w3.org/2000/svg" xmlns:xlink="http://www.w3.org/1999/xlink">
<g id="graph0" class="graph" transform="scale(1 1) rotate(0) translate(4 234)">
<title>std::codecvt_byname&lt; _InternT, _ExternT, _StateT &gt;</title>
<!-- Node1 -->
<g id="Node000001" class="node">
<title>Node1</title>
<g id="a_Node000001"><a xlink:title="class codecvt_byname [22.2.1.6].">
<polygon fill="#999999" stroke="#666666" points="158.5,-38 44.5,-38 44.5,0 158.5,0 158.5,-38"/>
<text text-anchor="start" x="52.5" y="-26.8" font-family="Helvetica,sans-Serif" font-size="9.00">std::codecvt_byname</text>
<text text-anchor="start" x="52.5" y="-16.8" font-family="Helvetica,sans-Serif" font-size="9.00">&lt; _InternT, _ExternT,</text>
<text text-anchor="middle" x="101.5" y="-6.8" font-family="Helvetica,sans-Serif" font-size="9.00"> _StateT &gt;</text>
</a>
</g>
</g>
<!-- Node2 -->
<g id="Node000002" class="node">
<title>Node2</title>
<g id="a_Node000002"><a xlink:href="a05473.html" target="_top" xlink:title="Primary class template codecvt.">
<polygon fill="white" stroke="#666666" points="163.5,-102 39.5,-102 39.5,-74 163.5,-74 163.5,-102"/>
<text text-anchor="start" x="47.5" y="-90.8" font-family="Helvetica,sans-Serif" font-size="9.00">std::codecvt&lt; _InternT,</text>
<text text-anchor="middle" x="101.5" y="-80.8" font-family="Helvetica,sans-Serif" font-size="9.00"> _ExternT, _StateT &gt;</text>
</a>
</g>
</g>
<!-- Node2&#45;&gt;Node1 -->
<g id="edge1_Node000001_Node000002" class="edge">
<title>Node2&#45;&gt;Node1</title>
<g id="a_edge1_Node000001_Node000002"><a xlink:title=" ">
<path fill="none" stroke="#63b8ff" d="M101.5,-62.46C101.5,-54.46 101.5,-45.73 101.5,-38.28"/>
<polygon fill="#63b8ff" stroke="#63b8ff" points="98,-62.25 101.5,-72.25 105,-62.25 98,-62.25"/>
</a>
</g>
</g>
<!-- Node3 -->
<g id="Node000003" class="node">
<title>Node3</title>
<g id="a_Node000003"><a xlink:href="a05469.html" target="_top" xlink:title="Common base for codecvt functions.">
<polygon fill="white" stroke="#666666" points="171,-176 32,-176 32,-138 171,-138 171,-176"/>
<text text-anchor="start" x="40" y="-164.8" font-family="Helvetica,sans-Serif" font-size="9.00">std::__codecvt_abstract</text>
<text text-anchor="start" x="40" y="-154.8" font-family="Helvetica,sans-Serif" font-size="9.00">_base&lt; _InternT, _ExternT,</text>
<text text-anchor="middle" x="101.5" y="-144.8" font-family="Helvetica,sans-Serif" font-size="9.00"> _StateT &gt;</text>
</a>
</g>
</g>
<!-- Node3&#45;&gt;Node2 -->
<g id="edge2_Node000002_Node000003" class="edge">
<title>Node3&#45;&gt;Node2</title>
<g id="a_edge2_Node000002_Node000003"><a xlink:title=" ">
<path fill="none" stroke="#63b8ff" d="M101.5,-126.31C101.5,-117.96 101.5,-109.28 101.5,-102.4"/>
<polygon fill="#63b8ff" stroke="#63b8ff" points="98,-126.18 101.5,-136.18 105,-126.18 98,-126.18"/>
</a>
</g>
</g>
<!-- Node4 -->
<g id="Node000004" class="node">
<title>Node4</title>
<g id="a_Node000004"><a xlink:href="a06141.html" target="_top" xlink:title="Localization functionality base class.">
<polygon fill="white" stroke="#666666" points="91,-230 0,-230 0,-212 91,-212 91,-230"/>
<text text-anchor="middle" x="45.5" y="-218.8" font-family="Helvetica,sans-Serif" font-size="9.00">std::locale::facet</text>
</a>
</g>
</g>
<!-- Node4&#45;&gt;Node3 -->
<g id="edge3_Node000003_Node000004" class="edge">
<title>Node4&#45;&gt;Node3</title>
<g id="a_edge3_Node000003_Node000004"><a xlink:title=" ">
<path fill="none" stroke="#63b8ff" d="M60.69,-203.18C68.18,-194.89 77.23,-184.88 84.9,-176.38"/>
<polygon fill="#63b8ff" stroke="#63b8ff" points="58.17,-200.75 54.07,-210.52 63.37,-205.44 58.17,-200.75"/>
</a>
</g>
</g>
<!-- Node5 -->
<g id="Node000005" class="node">
<title>Node5</title>
<g id="a_Node000005"><a xlink:href="a05465.html" target="_top" xlink:title="Empty base class for codecvt facet [22.2.1.5].">
<polygon fill="white" stroke="#666666" points="207.5,-230 109.5,-230 109.5,-212 207.5,-212 207.5,-230"/>
<text text-anchor="middle" x="158.5" y="-218.8" font-family="Helvetica,sans-Serif" font-size="9.00">std::codecvt_base</text>
</a>
</g>
</g>
<!-- Node5&#45;&gt;Node3 -->
<g id="edge4_Node000003_Node000005" class="edge">
<title>Node5&#45;&gt;Node3</title>
<g id="a_edge4_Node000003_Node000005"><a xlink:title=" ">
<path fill="none" stroke="#63b8ff" d="M143.04,-203.18C135.42,-194.89 126.21,-184.88 118.4,-176.38"/>
<polygon fill="#63b8ff" stroke="#63b8ff" points="140.44,-205.53 149.79,-210.52 145.6,-200.79 140.44,-205.53"/>
</a>
</g>
</g>
</g>
</svg>
