<?xml version="1.0" encoding="UTF-8" standalone="no"?>
<!DOCTYPE svg PUBLIC "-//W3C//DTD SVG 1.1//EN"
 "http://www.w3.org/Graphics/SVG/1.1/DTD/svg11.dtd">
<!-- Generated by graphviz version 7.1.0 (0)
 -->
<!-- Title: std::exception Pages: 1 -->
<!--zoomable 655 -->

<svg id="main" version="1.1" xmlns="http://www.w3.org/2000/svg" xmlns:xlink="http://www.w3.org/1999/xlink" xml:space="preserve" onload="init(evt)">
<style type="text/css"><![CDATA[
.node, .edge {opacity: 0.7;}
.node.selected, .edge.selected {opacity: 1;}
.edge:hover path { stroke: red; }
.edge:hover polygon { stroke: red; fill: red; }
]]></style>

<defs>
  <circle id="rim" cx="0" cy="0" r="7"/>
  <circle id="rim2" cx="0" cy="0" r="3.5"/>
  <g id="zoomPlus">
    <use xlink:href="#rim" fill="#404040"><set attributeName="fill" to="#808080" begin="zoomplus.mouseover" end="zoomplus.mouseout"/></use>
    <path d="M-4,0h8M0,-4v8" fill="none" stroke="white" stroke-width="1.5" pointer-events="none"/>
  </g>
  <g id="zoomMin">
    <use xlink:href="#rim" fill="#404040"><set attributeName="fill" to="#808080" begin="zoomminus.mouseover" end="zoomminus.mouseout"/></use>
    <path d="M-4,0h8" fill="none" stroke="white" stroke-width="1.5" pointer-events="none"/>
  </g>
  <g id="dirArrow">
    <path fill="none" stroke="white" stroke-width="1.5" d="M0,-3.0v7 M-2.5,-0.5L0,-3.0L2.5,-0.5"/>
  </g>
 <g id="resetDef">
    <use xlink:href="#rim2" fill="#404040"><set attributeName="fill" to="#808080" begin="reset.mouseover" end="reset.mouseout"/></use>
 </g>
</defs>
<script type="text/javascript">
var viewWidth = 600;
var viewHeight = 655;
var sectionId = 'dynsection-0';
</script>
<script xlink:href="svg.min.js"/>
<svg id="graph" class="graph">
<g id="viewport">
<title>std::exception</title>
<!-- Node1 -->
<g id="Node000001" class="node">
<title>Node1</title>
<g id="a_Node000001"><a xlink:title="Base class for all library exceptions.">
<polygon fill="#999999" stroke="#666666" points="80,-439 0,-439 0,-421 80,-421 80,-439"/>
<text text-anchor="middle" x="40" y="-427.8" font-family="Helvetica,sans-Serif" font-size="9.00">std::exception</text>
</a>
</g>
</g>
<!-- Node2 -->
<g id="Node000002" class="node">
<title>Node2</title>
<g id="a_Node000002"><a xlink:href="a12277.html" target="_top" xlink:title="Thrown by utilities for testing exception safety.">
<polygon fill="white" stroke="#666666" points="242.5,-647 118.5,-647 118.5,-629 242.5,-629 242.5,-647"/>
<text text-anchor="middle" x="180.5" y="-635.8" font-family="Helvetica,sans-Serif" font-size="9.00">__gnu_cxx::forced_error</text>
</a>
</g>
</g>
<!-- Node1&#45;&gt;Node2 -->
<g id="edge1_Node000001_Node000002" class="edge">
<title>Node1&#45;&gt;Node2</title>
<g id="a_edge1_Node000001_Node000002"><a xlink:title=" ">
<path fill="none" stroke="#63b8ff" d="M43.16,-450.41C48.37,-489.26 65.21,-574.04 116,-620 119.82,-623.46 124.26,-626.26 128.99,-628.52"/>
<polygon fill="#63b8ff" stroke="#63b8ff" points="46.65,-450.14 41.98,-440.63 39.7,-450.97 46.65,-450.14"/>
</a>
</g>
</g>
<!-- Node3 -->
<g id="Node000003" class="node">
<title>Node3</title>
<g id="a_Node000003"><a xlink:href="a01877.html" target="_top" xlink:title="Exception thrown by __cxa_guard_acquire.">
<polygon fill="white" stroke="#666666" points="236,-611 125,-611 125,-583 236,-583 236,-611"/>
<text text-anchor="start" x="133" y="-599.8" font-family="Helvetica,sans-Serif" font-size="9.00">__gnu_cxx::recursive</text>
<text text-anchor="middle" x="180.5" y="-589.8" font-family="Helvetica,sans-Serif" font-size="9.00">_init_error</text>
</a>
</g>
</g>
<!-- Node1&#45;&gt;Node3 -->
<g id="edge2_Node000001_Node000003" class="edge">
<title>Node1&#45;&gt;Node3</title>
<g id="a_edge2_Node000001_Node000003"><a xlink:title=" ">
<path fill="none" stroke="#63b8ff" d="M46.38,-450.26C55.58,-481.16 77.23,-540.06 116,-574 119.79,-577.32 124.1,-580.18 128.65,-582.63"/>
<polygon fill="#63b8ff" stroke="#63b8ff" points="49.76,-449.35 43.68,-440.67 43.02,-451.25 49.76,-449.35"/>
</a>
</g>
</g>
<!-- Node4 -->
<g id="Node000004" class="node">
<title>Node4</title>
<g id="a_Node000004"><a xlink:href="a01889.html" target="_top" xlink:title="Exception possibly thrown by new.">
<polygon fill="white" stroke="#666666" points="220,-565 141,-565 141,-547 220,-547 220,-565"/>
<text text-anchor="middle" x="180.5" y="-553.8" font-family="Helvetica,sans-Serif" font-size="9.00">std::bad_alloc</text>
</a>
</g>
</g>
<!-- Node1&#45;&gt;Node4 -->
<g id="edge3_Node000001_Node000004" class="edge">
<title>Node1&#45;&gt;Node4</title>
<g id="a_edge3_Node000001_Node000004"><a xlink:title=" ">
<path fill="none" stroke="#63b8ff" d="M49.47,-449.61C61,-473.96 83.92,-515.1 116,-538 123.27,-543.19 132.01,-546.89 140.64,-549.53"/>
<polygon fill="#63b8ff" stroke="#63b8ff" points="52.8,-448.48 45.49,-440.81 46.43,-451.37 52.8,-448.48"/>
</a>
</g>
</g>
<!-- Node5 -->
<g id="Node000005" class="node">
<title>Node5</title>
<g id="a_Node000005"><a xlink:href="a01909.html" target="_top" xlink:title="Thrown during incorrect typecasting.">
<polygon fill="white" stroke="#666666" points="219,-529 142,-529 142,-511 219,-511 219,-529"/>
<text text-anchor="middle" x="180.5" y="-517.8" font-family="Helvetica,sans-Serif" font-size="9.00">std::bad_cast</text>
</a>
</g>
</g>
<!-- Node1&#45;&gt;Node5 -->
<g id="edge4_Node000001_Node000005" class="edge">
<title>Node1&#45;&gt;Node5</title>
<g id="a_edge4_Node000001_Node000005"><a xlink:title=" ">
<path fill="none" stroke="#63b8ff" d="M55.35,-448.13C69.21,-464.48 91.65,-488.04 116,-502 123.85,-506.5 132.91,-509.94 141.67,-512.54"/>
<polygon fill="#63b8ff" stroke="#63b8ff" points="58.24,-446.13 49.18,-440.63 52.83,-450.58 58.24,-446.13"/>
</a>
</g>
</g>
<!-- Node8 -->
<g id="Node000008" class="node">
<title>Node8</title>
<g id="a_Node000008"><a xlink:href="a01881.html" target="_top" xlink:title=" ">
<polygon fill="white" stroke="#666666" points="231.5,-493 129.5,-493 129.5,-475 231.5,-475 231.5,-493"/>
<text text-anchor="middle" x="180.5" y="-481.8" font-family="Helvetica,sans-Serif" font-size="9.00">std::bad_exception</text>
</a>
</g>
</g>
<!-- Node1&#45;&gt;Node8 -->
<g id="edge7_Node000001_Node000008" class="edge">
<title>Node1&#45;&gt;Node8</title>
<g id="a_edge7_Node000001_Node000008"><a xlink:title=" ">
<path fill="none" stroke="#63b8ff" d="M68.45,-444.57C82.43,-451.64 99.85,-459.89 116,-466 124.36,-469.16 133.52,-472.07 142.22,-474.58"/>
<polygon fill="#63b8ff" stroke="#63b8ff" points="70.35,-441.61 59.85,-440.15 67.15,-447.84 70.35,-441.61"/>
</a>
</g>
</g>
<!-- Node9 -->
<g id="Node000009" class="node">
<title>Node9</title>
<g id="a_Node000009"><a xlink:href="a07765.html" target="_top" xlink:title="Exception class thrown when class template function&#39;s operator() is called with an empty target.">
<polygon fill="white" stroke="#666666" points="238.5,-457 122.5,-457 122.5,-439 238.5,-439 238.5,-457"/>
<text text-anchor="middle" x="180.5" y="-445.8" font-family="Helvetica,sans-Serif" font-size="9.00">std::bad_function_call</text>
</a>
</g>
</g>
<!-- Node1&#45;&gt;Node9 -->
<g id="edge8_Node000001_Node000009" class="edge">
<title>Node1&#45;&gt;Node9</title>
<g id="a_edge8_Node000001_Node000009"><a xlink:title=" ">
<path fill="none" stroke="#63b8ff" d="M91.68,-436.59C101.62,-437.88 112.11,-439.24 122.25,-440.56"/>
<polygon fill="#63b8ff" stroke="#63b8ff" points="92.19,-433.12 81.82,-435.31 91.28,-440.06 92.19,-433.12"/>
</a>
</g>
</g>
<!-- Node10 -->
<g id="Node000010" class="node">
<title>Node10</title>
<g id="a_Node000010"><a xlink:href="a02965.html" target="_top" xlink:title="Exception class thrown when a disengaged optional object is dereferenced.">
<polygon fill="white" stroke="#666666" points="245,-421 116,-421 116,-403 245,-403 245,-421"/>
<text text-anchor="middle" x="180.5" y="-409.8" font-family="Helvetica,sans-Serif" font-size="9.00">std::bad_optional_access</text>
</a>
</g>
</g>
<!-- Node1&#45;&gt;Node10 -->
<g id="edge9_Node000001_Node000010" class="edge">
<title>Node1&#45;&gt;Node10</title>
<g id="a_edge9_Node000001_Node000010"><a xlink:title=" ">
<path fill="none" stroke="#63b8ff" d="M91.54,-423.43C99.4,-422.41 107.61,-421.34 115.72,-420.29"/>
<polygon fill="#63b8ff" stroke="#63b8ff" points="91.28,-419.94 81.82,-424.69 92.19,-426.88 91.28,-419.94"/>
</a>
</g>
</g>
<!-- Node11 -->
<g id="Node000011" class="node">
<title>Node11</title>
<g id="a_Node000011"><a xlink:href="a01913.html" target="_top" xlink:title="Thrown when a NULL pointer in a typeid expression is used.">
<polygon fill="white" stroke="#666666" points="224,-385 137,-385 137,-367 224,-367 224,-385"/>
<text text-anchor="middle" x="180.5" y="-373.8" font-family="Helvetica,sans-Serif" font-size="9.00">std::bad_typeid</text>
</a>
</g>
</g>
<!-- Node1&#45;&gt;Node11 -->
<g id="edge10_Node000001_Node000011" class="edge">
<title>Node1&#45;&gt;Node11</title>
<g id="a_edge10_Node000001_Node000011"><a xlink:title=" ">
<path fill="none" stroke="#63b8ff" d="M68.45,-415.43C82.43,-408.36 99.85,-400.11 116,-394 124.36,-390.84 133.52,-387.93 142.22,-385.42"/>
<polygon fill="#63b8ff" stroke="#63b8ff" points="67.15,-412.16 59.85,-419.85 70.35,-418.39 67.15,-412.16"/>
</a>
</g>
</g>
<!-- Node12 -->
<g id="Node000012" class="node">
<title>Node12</title>
<g id="a_Node000012"><a xlink:href="a07557.html" target="_top" xlink:title="Exception possibly thrown by shared_ptr.">
<polygon fill="white" stroke="#666666" points="230.5,-349 130.5,-349 130.5,-331 230.5,-331 230.5,-349"/>
<text text-anchor="middle" x="180.5" y="-337.8" font-family="Helvetica,sans-Serif" font-size="9.00">std::bad_weak_ptr</text>
</a>
</g>
</g>
<!-- Node1&#45;&gt;Node12 -->
<g id="edge11_Node000001_Node000012" class="edge">
<title>Node1&#45;&gt;Node12</title>
<g id="a_edge11_Node000001_Node000012"><a xlink:title=" ">
<path fill="none" stroke="#63b8ff" d="M55.35,-411.87C69.21,-395.52 91.65,-371.96 116,-358 121.96,-354.58 128.62,-351.77 135.32,-349.48"/>
<polygon fill="#63b8ff" stroke="#63b8ff" points="52.83,-409.42 49.18,-419.37 58.24,-413.87 52.83,-409.42"/>
</a>
</g>
</g>
<!-- Node13 -->
<g id="Node000013" class="node">
<title>Node13</title>
<g id="a_Node000013"><a xlink:href="a05977.html" target="_top" xlink:title="These are thrown to indicate problems with io.">
<polygon fill="white" stroke="#666666" points="234.5,-313 126.5,-313 126.5,-295 234.5,-295 234.5,-313"/>
<text text-anchor="middle" x="180.5" y="-301.8" font-family="Helvetica,sans-Serif" font-size="9.00">std::ios_base::failure</text>
</a>
</g>
</g>
<!-- Node1&#45;&gt;Node13 -->
<g id="edge12_Node000001_Node000013" class="edge">
<title>Node1&#45;&gt;Node13</title>
<g id="a_edge12_Node000001_Node000013"><a xlink:title=" ">
<path fill="none" stroke="#63b8ff" d="M49.47,-410.39C61,-386.04 83.92,-344.9 116,-322 120.85,-318.54 126.35,-315.74 132.03,-313.48"/>
<polygon fill="#63b8ff" stroke="#63b8ff" points="46.43,-408.63 45.49,-419.19 52.8,-411.52 46.43,-408.63"/>
</a>
</g>
</g>
<!-- Node14 -->
<g id="Node000014" class="node">
<title>Node14</title>
<g id="a_Node000014"><a xlink:href="a03461.html" target="_top" xlink:title="One of two subclasses of exception.">
<polygon fill="white" stroke="#666666" points="222.5,-277 138.5,-277 138.5,-259 222.5,-259 222.5,-277"/>
<text text-anchor="middle" x="180.5" y="-265.8" font-family="Helvetica,sans-Serif" font-size="9.00">std::logic_error</text>
</a>
</g>
</g>
<!-- Node1&#45;&gt;Node14 -->
<g id="edge13_Node000001_Node000014" class="edge">
<title>Node1&#45;&gt;Node14</title>
<g id="a_edge13_Node000001_Node000014"><a xlink:title=" ">
<path fill="none" stroke="#63b8ff" d="M45.97,-409.82C54.72,-378.57 75.86,-318.68 116,-286 122.4,-280.79 130.22,-277.09 138.16,-274.46"/>
<polygon fill="#63b8ff" stroke="#63b8ff" points="42.67,-408.59 43.51,-419.15 49.44,-410.37 42.67,-408.59"/>
</a>
</g>
</g>
<!-- Node25 -->
<g id="Node000025" class="node">
<title>Node25</title>
<g id="a_Node000025"><a xlink:href="a03481.html" target="_top" xlink:title="One of two subclasses of exception.">
<polygon fill="white" stroke="#666666" points="230,-108 131,-108 131,-90 230,-90 230,-108"/>
<text text-anchor="middle" x="180.5" y="-96.8" font-family="Helvetica,sans-Serif" font-size="9.00">std::runtime_error</text>
</a>
</g>
</g>
<!-- Node1&#45;&gt;Node25 -->
<g id="edge24_Node000001_Node000025" class="edge">
<title>Node1&#45;&gt;Node25</title>
<g id="a_edge24_Node000001_Node000025"><a xlink:title=" ">
<path fill="none" stroke="#63b8ff" d="M49.27,-410.09C63.07,-376.89 91.67,-308.13 116,-250 138.51,-196.22 165.69,-131.74 175.62,-108.19"/>
<polygon fill="#63b8ff" stroke="#63b8ff" points="46.08,-408.65 45.47,-419.23 52.54,-411.34 46.08,-408.65"/>
</a>
</g>
</g>
<!-- Node6 -->
<g id="Node000006" class="node">
<title>Node6</title>
<g id="a_Node000006"><a xlink:href="a01917.html" target="_top" xlink:title="Exception class thrown by a failed any_cast.">
<polygon fill="white" stroke="#666666" points="389.5,-555 291.5,-555 291.5,-537 389.5,-537 389.5,-555"/>
<text text-anchor="middle" x="340.5" y="-543.8" font-family="Helvetica,sans-Serif" font-size="9.00">std::bad_any_cast</text>
</a>
</g>
</g>
<!-- Node5&#45;&gt;Node6 -->
<g id="edge5_Node000005_Node000006" class="edge">
<title>Node5&#45;&gt;Node6</title>
<g id="a_edge5_Node000005_Node000006"><a xlink:title=" ">
<path fill="none" stroke="#63b8ff" d="M230.64,-528.09C249.92,-531.26 271.98,-534.89 291.18,-538.05"/>
<polygon fill="#63b8ff" stroke="#63b8ff" points="231.27,-524.64 220.84,-526.47 230.14,-531.55 231.27,-524.64"/>
</a>
</g>
</g>
<!-- Node7 -->
<g id="Node000007" class="node">
<title>Node7</title>
<g id="a_Node000007"><a xlink:href="a11593.html" target="_top" xlink:title="Exception class thrown by a failed any_cast.">
<polygon fill="white" stroke="#666666" points="399.5,-519 281.5,-519 281.5,-481 399.5,-481 399.5,-519"/>
<text text-anchor="start" x="289.5" y="-507.8" font-family="Helvetica,sans-Serif" font-size="9.00">std::experimental::</text>
<text text-anchor="start" x="289.5" y="-497.8" font-family="Helvetica,sans-Serif" font-size="9.00">fundamentals_v1::bad</text>
<text text-anchor="middle" x="340.5" y="-487.8" font-family="Helvetica,sans-Serif" font-size="9.00">_any_cast</text>
</a>
</g>
</g>
<!-- Node5&#45;&gt;Node7 -->
<g id="edge6_Node000005_Node000007" class="edge">
<title>Node5&#45;&gt;Node7</title>
<g id="a_edge6_Node000005_Node000007"><a xlink:title=" ">
<path fill="none" stroke="#63b8ff" d="M230.64,-513.78C246.68,-511.75 264.64,-509.48 281.28,-507.37"/>
<polygon fill="#63b8ff" stroke="#63b8ff" points="230.33,-510.29 220.85,-515.02 231.21,-517.24 230.33,-510.29"/>
</a>
</g>
</g>
<!-- Node15 -->
<g id="Node000015" class="node">
<title>Node15</title>
<g id="a_Node000015"><a xlink:href="a12729.html" target="_top" xlink:title="Base class for exceptions.">
<polygon fill="white" stroke="#666666" points="400,-444 281,-444 281,-416 400,-416 400,-444"/>
<text text-anchor="start" x="289" y="-432.8" font-family="Helvetica,sans-Serif" font-size="9.00">__gnu_pbds::container</text>
<text text-anchor="middle" x="340.5" y="-422.8" font-family="Helvetica,sans-Serif" font-size="9.00">_error</text>
</a>
</g>
</g>
<!-- Node14&#45;&gt;Node15 -->
<g id="edge14_Node000014_Node000015" class="edge">
<title>Node14&#45;&gt;Node15</title>
<g id="a_edge14_Node000014_Node000015"><a xlink:title=" ">
<path fill="none" stroke="#63b8ff" d="M233.37,-277.68C237.64,-279.91 241.61,-282.65 245,-286 284.93,-325.42 243.06,-365.67 281,-407 284.03,-410.3 287.58,-413.13 291.42,-415.56"/>
<polygon fill="#63b8ff" stroke="#63b8ff" points="234.97,-274.55 224.4,-273.91 232.26,-281.01 234.97,-274.55"/>
</a>
</g>
</g>
<!-- Node19 -->
<g id="Node000019" class="node">
<title>Node19</title>
<g id="a_Node000019"><a xlink:href="a03465.html" target="_top" xlink:title=" ">
<polygon fill="white" stroke="#666666" points="389,-398 292,-398 292,-380 389,-380 389,-398"/>
<text text-anchor="middle" x="340.5" y="-386.8" font-family="Helvetica,sans-Serif" font-size="9.00">std::domain_error</text>
</a>
</g>
</g>
<!-- Node14&#45;&gt;Node19 -->
<g id="edge18_Node000014_Node000019" class="edge">
<title>Node14&#45;&gt;Node19</title>
<g id="a_edge18_Node000014_Node000019"><a xlink:title=" ">
<path fill="none" stroke="#63b8ff" d="M233.16,-278.17C237.44,-280.31 241.47,-282.89 245,-286 275.76,-313.15 250.55,-343.51 281,-371 284.86,-374.49 289.39,-377.3 294.19,-379.57"/>
<polygon fill="#63b8ff" stroke="#63b8ff" points="234.82,-275.07 224.24,-274.53 232.18,-281.55 234.82,-275.07"/>
</a>
</g>
</g>
<!-- Node20 -->
<g id="Node000020" class="node">
<title>Node20</title>
<g id="a_Node000020"><a xlink:href="a11701.html" target="_top" xlink:title="Exception class thrown when a disengaged optional object is dereferenced.">
<polygon fill="white" stroke="#666666" points="399.5,-362 281.5,-362 281.5,-324 399.5,-324 399.5,-362"/>
<text text-anchor="start" x="289.5" y="-350.8" font-family="Helvetica,sans-Serif" font-size="9.00">std::experimental::</text>
<text text-anchor="start" x="289.5" y="-340.8" font-family="Helvetica,sans-Serif" font-size="9.00">fundamentals_v1::bad</text>
<text text-anchor="middle" x="340.5" y="-330.8" font-family="Helvetica,sans-Serif" font-size="9.00">_optional_access</text>
</a>
</g>
</g>
<!-- Node14&#45;&gt;Node20 -->
<g id="edge19_Node000014_Node000020" class="edge">
<title>Node14&#45;&gt;Node20</title>
<g id="a_edge19_Node000014_Node000020"><a xlink:title=" ">
<path fill="none" stroke="#63b8ff" d="M233.43,-280.82C237.42,-282.38 241.32,-284.1 245,-286 263.25,-295.44 263.62,-304.05 281,-315 285.76,-318 290.9,-320.9 296.08,-323.62"/>
<polygon fill="#63b8ff" stroke="#63b8ff" points="234.76,-277.58 224.17,-277.58 232.45,-284.19 234.76,-277.58"/>
</a>
</g>
</g>
<!-- Node21 -->
<g id="Node000021" class="node">
<title>Node21</title>
<g id="a_Node000021"><a xlink:href="a02657.html" target="_top" xlink:title="Exception type thrown by futures.">
<polygon fill="white" stroke="#666666" points="386,-306 295,-306 295,-288 386,-288 386,-306"/>
<text text-anchor="middle" x="340.5" y="-294.8" font-family="Helvetica,sans-Serif" font-size="9.00">std::future_error</text>
</a>
</g>
</g>
<!-- Node14&#45;&gt;Node21 -->
<g id="edge20_Node000014_Node000021" class="edge">
<title>Node14&#45;&gt;Node21</title>
<g id="a_edge20_Node000014_Node000021"><a xlink:title=" ">
<path fill="none" stroke="#63b8ff" d="M233.87,-277.61C253.57,-281.23 275.77,-285.3 294.72,-288.78"/>
<polygon fill="#63b8ff" stroke="#63b8ff" points="234.56,-274.18 224.09,-275.82 233.29,-281.06 234.56,-274.18"/>
</a>
</g>
</g>
<!-- Node22 -->
<g id="Node000022" class="node">
<title>Node22</title>
<g id="a_Node000022"><a xlink:href="a03469.html" target="_top" xlink:title=" ">
<polygon fill="white" stroke="#666666" points="398.5,-270 282.5,-270 282.5,-252 398.5,-252 398.5,-270"/>
<text text-anchor="middle" x="340.5" y="-258.8" font-family="Helvetica,sans-Serif" font-size="9.00">std::invalid_argument</text>
</a>
</g>
</g>
<!-- Node14&#45;&gt;Node22 -->
<g id="edge21_Node000014_Node000022" class="edge">
<title>Node14&#45;&gt;Node22</title>
<g id="a_edge21_Node000014_Node000022"><a xlink:title=" ">
<path fill="none" stroke="#63b8ff" d="M234.08,-265.67C249.53,-264.99 266.52,-264.23 282.25,-263.54"/>
<polygon fill="#63b8ff" stroke="#63b8ff" points="233.95,-262.17 224.11,-266.11 234.26,-269.17 233.95,-262.17"/>
</a>
</g>
</g>
<!-- Node23 -->
<g id="Node000023" class="node">
<title>Node23</title>
<g id="a_Node000023"><a xlink:href="a03473.html" target="_top" xlink:title=" ">
<polygon fill="white" stroke="#666666" points="386.5,-234 294.5,-234 294.5,-216 386.5,-216 386.5,-234"/>
<text text-anchor="middle" x="340.5" y="-222.8" font-family="Helvetica,sans-Serif" font-size="9.00">std::length_error</text>
</a>
</g>
</g>
<!-- Node14&#45;&gt;Node23 -->
<g id="edge22_Node000014_Node000023" class="edge">
<title>Node14&#45;&gt;Node23</title>
<g id="a_edge22_Node000014_Node000023"><a xlink:title=" ">
<path fill="none" stroke="#63b8ff" d="M227.1,-255.59C251.8,-248.87 281.83,-240.7 304.63,-234.49"/>
<polygon fill="#63b8ff" stroke="#63b8ff" points="226.36,-252.16 217.63,-258.17 228.2,-258.92 226.36,-252.16"/>
</a>
</g>
</g>
<!-- Node24 -->
<g id="Node000024" class="node">
<title>Node24</title>
<g id="a_Node000024"><a xlink:href="a03477.html" target="_top" xlink:title=" ">
<polygon fill="white" stroke="#666666" points="388,-198 293,-198 293,-180 388,-180 388,-198"/>
<text text-anchor="middle" x="340.5" y="-186.8" font-family="Helvetica,sans-Serif" font-size="9.00">std::out_of_range</text>
</a>
</g>
</g>
<!-- Node14&#45;&gt;Node24 -->
<g id="edge23_Node000014_Node000024" class="edge">
<title>Node14&#45;&gt;Node24</title>
<g id="a_edge23_Node000014_Node000024"><a xlink:title=" ">
<path fill="none" stroke="#63b8ff" d="M203.69,-252.14C223.28,-238.7 253.01,-219.64 281,-207 288.17,-203.76 296.08,-200.89 303.7,-198.45"/>
<polygon fill="#63b8ff" stroke="#63b8ff" points="201.87,-249.14 195.67,-257.73 205.87,-254.88 201.87,-249.14"/>
</a>
</g>
</g>
<!-- Node16 -->
<g id="Node000016" class="node">
<title>Node16</title>
<g id="a_Node000016"><a xlink:href="a12733.html" target="_top" xlink:title="An entry cannot be inserted into a container object for logical reasons (not, e.g....">
<polygon fill="white" stroke="#666666" points="565,-485 463,-485 463,-457 565,-457 565,-485"/>
<text text-anchor="start" x="471" y="-473.8" font-family="Helvetica,sans-Serif" font-size="9.00">__gnu_pbds::insert</text>
<text text-anchor="middle" x="514" y="-463.8" font-family="Helvetica,sans-Serif" font-size="9.00">_error</text>
</a>
</g>
</g>
<!-- Node15&#45;&gt;Node16 -->
<g id="edge15_Node000015_Node000016" class="edge">
<title>Node15&#45;&gt;Node16</title>
<g id="a_edge15_Node000015_Node000016"><a xlink:title=" ">
<path fill="none" stroke="#63b8ff" d="M411.22,-446.67C428.47,-450.79 446.61,-455.13 462.73,-458.98"/>
<polygon fill="#63b8ff" stroke="#63b8ff" points="412.05,-443.27 401.51,-444.35 410.43,-450.08 412.05,-443.27"/>
</a>
</g>
</g>
<!-- Node17 -->
<g id="Node000017" class="node">
<title>Node17</title>
<g id="a_Node000017"><a xlink:href="a12737.html" target="_top" xlink:title="A join cannot be performed logical reasons (i.e., the ranges of the two container objects being joine...">
<polygon fill="white" stroke="#666666" points="573.5,-439 454.5,-439 454.5,-421 573.5,-421 573.5,-439"/>
<text text-anchor="middle" x="514" y="-427.8" font-family="Helvetica,sans-Serif" font-size="9.00">__gnu_pbds::join_error</text>
</a>
</g>
</g>
<!-- Node15&#45;&gt;Node17 -->
<g id="edge16_Node000015_Node000017" class="edge">
<title>Node15&#45;&gt;Node17</title>
<g id="a_edge16_Node000015_Node000017"><a xlink:title=" ">
<path fill="none" stroke="#63b8ff" d="M411.29,-430C425.51,-430 440.34,-430 454.14,-430"/>
<polygon fill="#63b8ff" stroke="#63b8ff" points="411.55,-426.5 401.55,-430 411.55,-433.5 411.55,-426.5"/>
</a>
</g>
</g>
<!-- Node18 -->
<g id="Node000018" class="node">
<title>Node18</title>
<g id="a_Node000018"><a xlink:href="a12741.html" target="_top" xlink:title="A container cannot be resized.">
<polygon fill="white" stroke="#666666" points="565,-403 463,-403 463,-375 565,-375 565,-403"/>
<text text-anchor="start" x="471" y="-391.8" font-family="Helvetica,sans-Serif" font-size="9.00">__gnu_pbds::resize</text>
<text text-anchor="middle" x="514" y="-381.8" font-family="Helvetica,sans-Serif" font-size="9.00">_error</text>
</a>
</g>
</g>
<!-- Node15&#45;&gt;Node18 -->
<g id="edge17_Node000015_Node000018" class="edge">
<title>Node15&#45;&gt;Node18</title>
<g id="a_edge17_Node000015_Node000018"><a xlink:title=" ">
<path fill="none" stroke="#63b8ff" d="M411.22,-413.33C428.47,-409.21 446.61,-404.87 462.73,-401.02"/>
<polygon fill="#63b8ff" stroke="#63b8ff" points="410.43,-409.92 401.51,-415.65 412.05,-416.73 410.43,-409.92"/>
</a>
</g>
</g>
<!-- Node26 -->
<g id="Node000026" class="node">
<title>Node26</title>
<g id="a_Node000026"><a xlink:href="a03489.html" target="_top" xlink:title=" ">
<polygon fill="white" stroke="#666666" points="391,-162 290,-162 290,-144 391,-144 391,-162"/>
<text text-anchor="middle" x="340.5" y="-150.8" font-family="Helvetica,sans-Serif" font-size="9.00">std::overflow_error</text>
</a>
</g>
</g>
<!-- Node25&#45;&gt;Node26 -->
<g id="edge25_Node000025_Node000026" class="edge">
<title>Node25&#45;&gt;Node26</title>
<g id="a_edge25_Node000025_Node000026"><a xlink:title=" ">
<path fill="none" stroke="#63b8ff" d="M216.87,-112.27C235.81,-119.26 259.59,-127.84 281,-135 289.67,-137.9 299.11,-140.88 307.84,-143.56"/>
<polygon fill="#63b8ff" stroke="#63b8ff" points="218.34,-109.08 207.75,-108.89 215.91,-115.65 218.34,-109.08"/>
</a>
</g>
</g>
<!-- Node27 -->
<g id="Node000027" class="node">
<title>Node27</title>
<g id="a_Node000027"><a xlink:href="a03485.html" target="_top" xlink:title=" ">
<polygon fill="white" stroke="#666666" points="385,-126 296,-126 296,-108 385,-108 385,-126"/>
<text text-anchor="middle" x="340.5" y="-114.8" font-family="Helvetica,sans-Serif" font-size="9.00">std::range_error</text>
</a>
</g>
</g>
<!-- Node25&#45;&gt;Node27 -->
<g id="edge26_Node000025_Node000027" class="edge">
<title>Node25&#45;&gt;Node27</title>
<g id="a_edge26_Node000025_Node000027"><a xlink:title=" ">
<path fill="none" stroke="#63b8ff" d="M241.46,-105.83C259.43,-107.88 278.79,-110.08 295.53,-111.99"/>
<polygon fill="#63b8ff" stroke="#63b8ff" points="242.03,-102.37 231.7,-104.72 241.24,-109.33 242.03,-102.37"/>
</a>
</g>
</g>
<!-- Node28 -->
<g id="Node000028" class="node">
<title>Node28</title>
<g id="a_Node000028"><a xlink:href="a07461.html" target="_top" xlink:title="A regular expression exception class.">
<polygon fill="white" stroke="#666666" points="385,-90 296,-90 296,-72 385,-72 385,-90"/>
<text text-anchor="middle" x="340.5" y="-78.8" font-family="Helvetica,sans-Serif" font-size="9.00">std::regex_error</text>
</a>
</g>
</g>
<!-- Node25&#45;&gt;Node28 -->
<g id="edge27_Node000025_Node000028" class="edge">
<title>Node25&#45;&gt;Node28</title>
<g id="a_edge27_Node000025_Node000028"><a xlink:title=" ">
<path fill="none" stroke="#63b8ff" d="M241.46,-92.17C259.43,-90.12 278.79,-87.92 295.53,-86.01"/>
<polygon fill="#63b8ff" stroke="#63b8ff" points="241.24,-88.67 231.7,-93.28 242.03,-95.63 241.24,-88.67"/>
</a>
</g>
</g>
<!-- Node29 -->
<g id="Node000029" class="node">
<title>Node29</title>
<g id="a_Node000029"><a xlink:href="a03593.html" target="_top" xlink:title="An exception type that includes an error_code value.">
<polygon fill="white" stroke="#666666" points="388,-54 293,-54 293,-36 388,-36 388,-54"/>
<text text-anchor="middle" x="340.5" y="-42.8" font-family="Helvetica,sans-Serif" font-size="9.00">std::system_error</text>
</a>
</g>
</g>
<!-- Node25&#45;&gt;Node29 -->
<g id="edge28_Node000025_Node000029" class="edge">
<title>Node25&#45;&gt;Node29</title>
<g id="a_edge28_Node000025_Node000029"><a xlink:title=" ">
<path fill="none" stroke="#63b8ff" d="M216.87,-85.73C235.81,-78.74 259.59,-70.16 281,-63 289.67,-60.1 299.11,-57.12 307.84,-54.44"/>
<polygon fill="#63b8ff" stroke="#63b8ff" points="215.91,-82.35 207.75,-89.11 218.34,-88.92 215.91,-82.35"/>
</a>
</g>
</g>
<!-- Node32 -->
<g id="Node000032" class="node">
<title>Node32</title>
<g id="a_Node000032"><a xlink:href="a03493.html" target="_top" xlink:title=" ">
<polygon fill="white" stroke="#666666" points="394.5,-18 286.5,-18 286.5,0 394.5,0 394.5,-18"/>
<text text-anchor="middle" x="340.5" y="-6.8" font-family="Helvetica,sans-Serif" font-size="9.00">std::underflow_error</text>
</a>
</g>
</g>
<!-- Node25&#45;&gt;Node32 -->
<g id="edge31_Node000025_Node000032" class="edge">
<title>Node25&#45;&gt;Node32</title>
<g id="a_edge31_Node000025_Node000032"><a xlink:title=" ">
<path fill="none" stroke="#63b8ff" d="M200.73,-82.11C219.91,-66.01 250.8,-42.06 281,-27 287.66,-23.68 295.05,-20.83 302.27,-18.44"/>
<polygon fill="#63b8ff" stroke="#63b8ff" points="198.54,-79.38 193.22,-88.53 203.09,-84.7 198.54,-79.38"/>
</a>
</g>
</g>
<!-- Node30 -->
<g id="Node000030" class="node">
<title>Node30</title>
<g id="a_Node000030"><a xlink:href="a10421.html" target="_top" xlink:title="Exception type thrown by the Filesystem TS library.">
<polygon fill="white" stroke="#666666" points="592,-82 436,-82 436,-54 592,-54 592,-82"/>
<text text-anchor="start" x="444" y="-70.8" font-family="Helvetica,sans-Serif" font-size="9.00">std::experimental::</text>
<text text-anchor="middle" x="514" y="-60.8" font-family="Helvetica,sans-Serif" font-size="9.00">filesystem::v1::filesystem_error</text>
</a>
</g>
</g>
<!-- Node29&#45;&gt;Node30 -->
<g id="edge29_Node000029_Node000030" class="edge">
<title>Node29&#45;&gt;Node30</title>
<g id="a_edge29_Node000029_Node000030"><a xlink:title=" ">
<path fill="none" stroke="#63b8ff" d="M399.62,-52.79C411.16,-54.34 423.45,-55.99 435.51,-57.61"/>
<polygon fill="#63b8ff" stroke="#63b8ff" points="400.24,-49.35 389.86,-51.49 399.31,-56.28 400.24,-49.35"/>
</a>
</g>
</g>
<!-- Node31 -->
<g id="Node000031" class="node">
<title>Node31</title>
<g id="a_Node000031"><a xlink:href="a05833.html" target="_top" xlink:title="Exception type thrown by the Filesystem library.">
<polygon fill="white" stroke="#666666" points="580.5,-36 447.5,-36 447.5,-8 580.5,-8 580.5,-36"/>
<text text-anchor="start" x="455.5" y="-24.8" font-family="Helvetica,sans-Serif" font-size="9.00">std::filesystem::filesystem</text>
<text text-anchor="middle" x="514" y="-14.8" font-family="Helvetica,sans-Serif" font-size="9.00">_error</text>
</a>
</g>
</g>
<!-- Node29&#45;&gt;Node31 -->
<g id="edge30_Node000029_Node000031" class="edge">
<title>Node29&#45;&gt;Node31</title>
<g id="a_edge30_Node000029_Node000031"><a xlink:title=" ">
<path fill="none" stroke="#63b8ff" d="M399.75,-37.19C415.02,-35.14 431.6,-32.92 447.23,-30.82"/>
<polygon fill="#63b8ff" stroke="#63b8ff" points="399.31,-33.72 389.86,-38.51 400.24,-40.65 399.31,-33.72"/>
</a>
</g>
</g>
</g>
</svg>

<g id="navigator" transform="translate(0 0)" fill="#404254">
  <rect fill="#f2f5e9" fill-opacity="0.5" stroke="#606060" stroke-width=".5" x="0" y="0" width="60" height="60"/>
  <use id="zoomplus" xlink:href="#zoomPlus" x="17" y="9" onmousedown="handleZoom(evt,'in')"/>
  <use id="zoomminus" xlink:href="#zoomMin" x="42" y="9" onmousedown="handleZoom(evt,'out')"/>
  <use id="reset" xlink:href="#resetDef" x="30" y="36" onmousedown="handleReset()"/>
  <g id="arrowUp" xlink:href="#dirArrow" transform="translate(30 24)" onmousedown="handlePan(0,-1)">
    <use xlink:href="#rim" fill="#404040">
          <set attributeName="fill" to="#808080" begin="arrowUp.mouseover" end="arrowUp.mouseout"/>
    </use>
    <path fill="none" stroke="white" stroke-width="1.5" d="M0,-3.0v7 M-2.5,-0.5L0,-3.0L2.5,-0.5"/>
  </g>
  <g id="arrowRight" xlink:href="#dirArrow" transform="rotate(90) translate(36 -43)" onmousedown="handlePan(1,0)">
    <use xlink:href="#rim" fill="#404040">
          <set attributeName="fill" to="#808080" begin="arrowRight.mouseover" end="arrowRight.mouseout"/>
    </use>
    <path fill="none" stroke="white" stroke-width="1.5" d="M0,-3.0v7 M-2.5,-0.5L0,-3.0L2.5,-0.5"/>
  </g>
  <g id="arrowDown" xlink:href="#dirArrow" transform="rotate(180) translate(-30 -48)" onmousedown="handlePan(0,1)">
    <use xlink:href="#rim" fill="#404040">
          <set attributeName="fill" to="#808080" begin="arrowDown.mouseover" end="arrowDown.mouseout"/>
    </use>
    <path fill="none" stroke="white" stroke-width="1.5" d="M0,-3.0v7 M-2.5,-0.5L0,-3.0L2.5,-0.5"/>
  </g>
  <g id="arrowLeft" xlink:href="#dirArrow" transform="rotate(270) translate(-36 17)" onmousedown="handlePan(-1,0)">
    <use xlink:href="#rim" fill="#404040">
          <set attributeName="fill" to="#808080" begin="arrowLeft.mouseover" end="arrowLeft.mouseout"/>
    </use>
    <path fill="none" stroke="white" stroke-width="1.5" d="M0,-3.0v7 M-2.5,-0.5L0,-3.0L2.5,-0.5"/>
  </g>
</g>
<svg viewBox="0 0 15 15" width="100%" height="30px" preserveAspectRatio="xMaxYMin meet">
 <g id="arrow_out" transform="scale(0.3 0.3)">
  <a xlink:href="a05760_org.svg" target="_base">
   <rect id="button" ry="5" rx="5" y="6" x="6" height="38" width="38"
        fill="#f2f5e9" fill-opacity="0.5" stroke="#606060" stroke-width="1.0"/>
   <path id="arrow"
     d="M 11.500037,31.436501 C 11.940474,20.09759 22.043105,11.32322 32.158766,21.979434 L 37.068811,17.246167 C 37.068811,17.246167 37.088388,32 37.088388,32 L 22.160133,31.978069 C 22.160133,31.978069 26.997745,27.140456 26.997745,27.140456 C 18.528582,18.264221 13.291696,25.230495 11.500037,31.436501 z"
     style="fill:#404040;"/>
  </a>
 </g>
</svg>

<style type='text/css'>
<![CDATA[
[data-mouse-over-selected='false'] { opacity: 0.7; }
[data-mouse-over-selected='true']  { opacity: 1.0; }
]]>
</style>
<script><![CDATA[
document.addEventListener('DOMContentLoaded', (event) => {
  highlightEdges();
  highlightAdjacentNodes();
});
]]></script>
</svg>
