<?xml version="1.0" encoding="UTF-8" standalone="no"?>
<!DOCTYPE svg PUBLIC "-//W3C//DTD SVG 1.1//EN"
 "http://www.w3.org/Graphics/SVG/1.1/DTD/svg11.dtd">
<!-- Generated by graphviz version 7.1.0 (0)
 -->
<!-- Title: std::ctype&lt; wchar_t &gt; Pages: 1 -->
<svg width="206pt" height="144pt"
 viewBox="0.00 0.00 205.50 144.00" xmlns="http://www.w3.org/2000/svg" xmlns:xlink="http://www.w3.org/1999/xlink">

<svg id="main" version="1.1" xmlns="http://www.w3.org/2000/svg" xmlns:xlink="http://www.w3.org/1999/xlink" xml:space="preserve" onload="init(evt)">
<style type="text/css"><![CDATA[
.node, .edge {opacity: 0.7;}
.node.selected, .edge.selected {opacity: 1;}
.edge:hover path { stroke: red; }
.edge:hover polygon { stroke: red; fill: red; }
]]></style>
<script xlink:href="svg.min.js"/>
<svg id="graph" class="graph">
<g id="graph0" class="graph" transform="scale(1 1) rotate(0) translate(4 140)">
<title>std::ctype&lt; wchar_t &gt;</title>
<!-- Node1 -->
<g id="Node000001" class="node">
<title>Node1</title>
<g id="a_Node000001"><a xlink:title="The ctype&lt;wchar_t&gt; specialization.">
<polygon fill="#999999" stroke="#666666" points="159,-18 40,-18 40,0 159,0 159,-18"/>
<text text-anchor="middle" x="99.5" y="-6.8" font-family="Helvetica,sans-Serif" font-size="9.00">std::ctype&lt; wchar_t &gt;</text>
</a>
</g>
</g>
<!-- Node2 -->
<g id="Node000002" class="node">
<title>Node2</title>
<g id="a_Node000002"><a xlink:href="a06177.html" target="_top" xlink:title=" ">
<polygon fill="white" stroke="#666666" points="156,-82 43,-82 43,-54 156,-54 156,-82"/>
<text text-anchor="start" x="51" y="-70.8" font-family="Helvetica,sans-Serif" font-size="9.00">std::__ctype_abstract</text>
<text text-anchor="middle" x="99.5" y="-60.8" font-family="Helvetica,sans-Serif" font-size="9.00">_base&lt; wchar_t &gt;</text>
</a>
</g>
</g>
<!-- Node2&#45;&gt;Node1 -->
<g id="edge1_Node000001_Node000002" class="edge">
<title>Node2&#45;&gt;Node1</title>
<g id="a_edge1_Node000001_Node000002"><a xlink:title=" ">
<path fill="none" stroke="#63b8ff" d="M99.5,-42.31C99.5,-33.75 99.5,-24.71 99.5,-18.38"/>
<polygon fill="#63b8ff" stroke="#63b8ff" points="96,-42.27 99.5,-52.27 103,-42.27 96,-42.27"/>
</a>
</g>
</g>
<!-- Node3 -->
<g id="Node000003" class="node">
<title>Node3</title>
<g id="a_Node000003"><a xlink:href="a06141.html" target="_top" xlink:title="Localization functionality base class.">
<polygon fill="white" stroke="#666666" points="91,-136 0,-136 0,-118 91,-118 91,-136"/>
<text text-anchor="middle" x="45.5" y="-124.8" font-family="Helvetica,sans-Serif" font-size="9.00">std::locale::facet</text>
</a>
</g>
</g>
<!-- Node3&#45;&gt;Node2 -->
<g id="edge2_Node000002_Node000003" class="edge">
<title>Node3&#45;&gt;Node2</title>
<g id="a_edge2_Node000002_Node000003"><a xlink:title=" ">
<path fill="none" stroke="#63b8ff" d="M61.21,-109.42C69.37,-100.8 79.22,-90.4 86.89,-82.31"/>
<polygon fill="#63b8ff" stroke="#63b8ff" points="58.85,-106.82 54.51,-116.49 63.93,-111.64 58.85,-106.82"/>
</a>
</g>
</g>
<!-- Node4 -->
<g id="Node000004" class="node">
<title>Node4</title>
<g id="a_Node000004"><a xlink:href="a09257.html" target="_top" xlink:title="Base class for ctype.">
<polygon fill="white" stroke="#666666" points="197.5,-136 109.5,-136 109.5,-118 197.5,-118 197.5,-136"/>
<text text-anchor="middle" x="153.5" y="-124.8" font-family="Helvetica,sans-Serif" font-size="9.00">std::ctype_base</text>
</a>
</g>
</g>
<!-- Node4&#45;&gt;Node2 -->
<g id="edge3_Node000002_Node000004" class="edge">
<title>Node4&#45;&gt;Node2</title>
<g id="a_edge3_Node000002_Node000004"><a xlink:title=" ">
<path fill="none" stroke="#63b8ff" d="M137.79,-109.42C129.63,-100.8 119.78,-90.4 112.11,-82.31"/>
<polygon fill="#63b8ff" stroke="#63b8ff" points="135.07,-111.64 144.49,-116.49 140.15,-106.82 135.07,-111.64"/>
</a>
</g>
</g>
</g>
</svg>

<style type='text/css'>
<![CDATA[
[data-mouse-over-selected='false'] { opacity: 0.7; }
[data-mouse-over-selected='true']  { opacity: 1.0; }
]]>
</style>
<script><![CDATA[
document.addEventListener('DOMContentLoaded', (event) => {
  highlightEdges();
  highlightAdjacentNodes();
});
]]></script>
</svg>
