<?xml version="1.0" encoding="UTF-8" standalone="no"?>
<!DOCTYPE svg PUBLIC "-//W3C//DTD SVG 1.1//EN"
 "http://www.w3.org/Graphics/SVG/1.1/DTD/svg11.dtd">
<!-- Generated by graphviz version 7.1.0 (0)
 -->
<!-- Title: std::ctype_byname&lt; _CharT &gt; Pages: 1 -->
<svg width="206pt" height="208pt"
 viewBox="0.00 0.00 205.50 208.00" xmlns="http://www.w3.org/2000/svg" xmlns:xlink="http://www.w3.org/1999/xlink">
<g id="graph0" class="graph" transform="scale(1 1) rotate(0) translate(4 204)">
<title>std::ctype_byname&lt; _CharT &gt;</title>
<!-- Node1 -->
<g id="Node000001" class="node">
<title>Node1</title>
<g id="a_Node000001"><a xlink:title="class ctype_byname [22.2.1.2].">
<polygon fill="#999999" stroke="#666666" points="155,-28 44,-28 44,0 155,0 155,-28"/>
<text text-anchor="start" x="52" y="-16.8" font-family="Helvetica,sans-Serif" font-size="9.00">std::ctype_byname&lt;</text>
<text text-anchor="middle" x="99.5" y="-6.8" font-family="Helvetica,sans-Serif" font-size="9.00"> _CharT &gt;</text>
</a>
</g>
</g>
<!-- Node2 -->
<g id="Node000002" class="node">
<title>Node2</title>
<g id="a_Node000002"><a xlink:href="a06181.html" target="_top" xlink:title="Primary class template ctype facet.">
<polygon fill="white" stroke="#666666" points="156.5,-82 42.5,-82 42.5,-64 156.5,-64 156.5,-82"/>
<text text-anchor="middle" x="99.5" y="-70.8" font-family="Helvetica,sans-Serif" font-size="9.00">std::ctype&lt; _CharT &gt;</text>
</a>
</g>
</g>
<!-- Node2&#45;&gt;Node1 -->
<g id="edge1_Node000001_Node000002" class="edge">
<title>Node2&#45;&gt;Node1</title>
<g id="a_edge1_Node000001_Node000002"><a xlink:title=" ">
<path fill="none" stroke="#63b8ff" d="M99.5,-52.08C99.5,-44.21 99.5,-35.38 99.5,-28.31"/>
<polygon fill="#63b8ff" stroke="#63b8ff" points="96,-52.08 99.5,-62.08 103,-52.08 96,-52.08"/>
</a>
</g>
</g>
<!-- Node3 -->
<g id="Node000003" class="node">
<title>Node3</title>
<g id="a_Node000003"><a xlink:href="a06177.html" target="_top" xlink:title="Common base for ctype facet.">
<polygon fill="white" stroke="#666666" points="156,-146 43,-146 43,-118 156,-118 156,-146"/>
<text text-anchor="start" x="51" y="-134.8" font-family="Helvetica,sans-Serif" font-size="9.00">std::__ctype_abstract</text>
<text text-anchor="middle" x="99.5" y="-124.8" font-family="Helvetica,sans-Serif" font-size="9.00">_base&lt; _CharT &gt;</text>
</a>
</g>
</g>
<!-- Node3&#45;&gt;Node2 -->
<g id="edge2_Node000002_Node000003" class="edge">
<title>Node3&#45;&gt;Node2</title>
<g id="a_edge2_Node000002_Node000003"><a xlink:title=" ">
<path fill="none" stroke="#63b8ff" d="M99.5,-106.31C99.5,-97.75 99.5,-88.71 99.5,-82.38"/>
<polygon fill="#63b8ff" stroke="#63b8ff" points="96,-106.27 99.5,-116.27 103,-106.27 96,-106.27"/>
</a>
</g>
</g>
<!-- Node4 -->
<g id="Node000004" class="node">
<title>Node4</title>
<g id="a_Node000004"><a xlink:href="a06141.html" target="_top" xlink:title="Localization functionality base class.">
<polygon fill="white" stroke="#666666" points="91,-200 0,-200 0,-182 91,-182 91,-200"/>
<text text-anchor="middle" x="45.5" y="-188.8" font-family="Helvetica,sans-Serif" font-size="9.00">std::locale::facet</text>
</a>
</g>
</g>
<!-- Node4&#45;&gt;Node3 -->
<g id="edge3_Node000003_Node000004" class="edge">
<title>Node4&#45;&gt;Node3</title>
<g id="a_edge3_Node000003_Node000004"><a xlink:title=" ">
<path fill="none" stroke="#63b8ff" d="M61.21,-173.42C69.37,-164.8 79.22,-154.4 86.89,-146.31"/>
<polygon fill="#63b8ff" stroke="#63b8ff" points="58.85,-170.82 54.51,-180.49 63.93,-175.64 58.85,-170.82"/>
</a>
</g>
</g>
<!-- Node5 -->
<g id="Node000005" class="node">
<title>Node5</title>
<g id="a_Node000005"><a xlink:href="a09257.html" target="_top" xlink:title="Base class for ctype.">
<polygon fill="white" stroke="#666666" points="197.5,-200 109.5,-200 109.5,-182 197.5,-182 197.5,-200"/>
<text text-anchor="middle" x="153.5" y="-188.8" font-family="Helvetica,sans-Serif" font-size="9.00">std::ctype_base</text>
</a>
</g>
</g>
<!-- Node5&#45;&gt;Node3 -->
<g id="edge4_Node000003_Node000005" class="edge">
<title>Node5&#45;&gt;Node3</title>
<g id="a_edge4_Node000003_Node000005"><a xlink:title=" ">
<path fill="none" stroke="#63b8ff" d="M137.79,-173.42C129.63,-164.8 119.78,-154.4 112.11,-146.31"/>
<polygon fill="#63b8ff" stroke="#63b8ff" points="135.07,-175.64 144.49,-180.49 140.15,-170.82 135.07,-175.64"/>
</a>
</g>
</g>
</g>
</svg>
