<?xml version="1.0" encoding="UTF-8" standalone="no"?>
<!DOCTYPE svg PUBLIC "-//W3C//DTD SVG 1.1//EN"
 "http://www.w3.org/Graphics/SVG/1.1/DTD/svg11.dtd">
<!-- Generated by graphviz version 7.1.0 (0)
 -->
<!-- Title: std::locale::facet Pages: 1 -->
<svg width="634pt" height="920pt"
 viewBox="0.00 0.00 634.00 920.00" xmlns="http://www.w3.org/2000/svg" xmlns:xlink="http://www.w3.org/1999/xlink">
<g id="graph0" class="graph" transform="scale(1 1) rotate(0) translate(4 916)">
<title>std::locale::facet</title>
<!-- Node1 -->
<g id="Node000001" class="node">
<title>Node1</title>
<g id="a_Node000001"><a xlink:title="Localization functionality base class.">
<polygon fill="#999999" stroke="#666666" points="91,-430 0,-430 0,-412 91,-412 91,-430"/>
<text text-anchor="middle" x="45.5" y="-418.8" font-family="Helvetica,sans-Serif" font-size="9.00">std::locale::facet</text>
</a>
</g>
</g>
<!-- Node2 -->
<g id="Node000002" class="node">
<title>Node2</title>
<g id="a_Node000002"><a xlink:href="a05469.html" target="_top" xlink:title=" ">
<polygon fill="white" stroke="#666666" points="280.5,-912 141.5,-912 141.5,-874 280.5,-874 280.5,-912"/>
<text text-anchor="start" x="149.5" y="-900.8" font-family="Helvetica,sans-Serif" font-size="9.00">std::__codecvt_abstract</text>
<text text-anchor="start" x="149.5" y="-890.8" font-family="Helvetica,sans-Serif" font-size="9.00">_base&lt; _InternT, _ExternT,</text>
<text text-anchor="middle" x="211" y="-880.8" font-family="Helvetica,sans-Serif" font-size="9.00"> encoding_state &gt;</text>
</a>
</g>
</g>
<!-- Node1&#45;&gt;Node2 -->
<g id="edge1_Node000001_Node000002" class="edge">
<title>Node1&#45;&gt;Node2</title>
<g id="a_edge1_Node000001_Node000002"><a xlink:title=" ">
<path fill="none" stroke="#63b8ff" d="M47.5,-441.25C51.75,-519.35 70.73,-799.85 127,-865 131.08,-869.72 135.97,-873.64 141.33,-876.91"/>
<polygon fill="#63b8ff" stroke="#63b8ff" points="51.02,-441.48 47,-431.67 44.03,-441.84 51.02,-441.48"/>
</a>
</g>
</g>
<!-- Node4 -->
<g id="Node000004" class="node">
<title>Node4</title>
<g id="a_Node000004"><a xlink:href="a05469.html" target="_top" xlink:title=" ">
<polygon fill="white" stroke="#666666" points="291.5,-856 130.5,-856 130.5,-828 291.5,-828 291.5,-856"/>
<text text-anchor="start" x="138.5" y="-844.8" font-family="Helvetica,sans-Serif" font-size="9.00">std::__codecvt_abstract</text>
<text text-anchor="middle" x="211" y="-834.8" font-family="Helvetica,sans-Serif" font-size="9.00">_base&lt; char, char, mbstate_t &gt;</text>
</a>
</g>
</g>
<!-- Node1&#45;&gt;Node4 -->
<g id="edge3_Node000001_Node000004" class="edge">
<title>Node1&#45;&gt;Node4</title>
<g id="a_edge3_Node000001_Node000004"><a xlink:title=" ">
<path fill="none" stroke="#63b8ff" d="M47.87,-441.55C53.18,-514.96 74.75,-762.92 127,-819 130.06,-822.28 133.54,-825.11 137.3,-827.55"/>
<polygon fill="#63b8ff" stroke="#63b8ff" points="51.38,-441.53 47.19,-431.8 44.4,-442.02 51.38,-441.53"/>
</a>
</g>
</g>
<!-- Node6 -->
<g id="Node000006" class="node">
<title>Node6</title>
<g id="a_Node000006"><a xlink:href="a05469.html" target="_top" xlink:title=" ">
<polygon fill="white" stroke="#666666" points="273,-810 149,-810 149,-772 273,-772 273,-810"/>
<text text-anchor="start" x="157" y="-798.8" font-family="Helvetica,sans-Serif" font-size="9.00">std::__codecvt_abstract</text>
<text text-anchor="start" x="157" y="-788.8" font-family="Helvetica,sans-Serif" font-size="9.00">_base&lt; char16_t, char,</text>
<text text-anchor="middle" x="211" y="-778.8" font-family="Helvetica,sans-Serif" font-size="9.00"> mbstate_t &gt;</text>
</a>
</g>
</g>
<!-- Node1&#45;&gt;Node6 -->
<g id="edge5_Node000001_Node000006" class="edge">
<title>Node1&#45;&gt;Node6</title>
<g id="a_edge5_Node000001_Node000006"><a xlink:title=" ">
<path fill="none" stroke="#63b8ff" d="M48.72,-441.49C56.28,-507.75 83.03,-714.68 127,-763 132.94,-769.52 140.44,-774.53 148.5,-778.37"/>
<polygon fill="#63b8ff" stroke="#63b8ff" points="52.22,-441.26 47.63,-431.71 45.26,-442.04 52.22,-441.26"/>
</a>
</g>
</g>
<!-- Node8 -->
<g id="Node000008" class="node">
<title>Node8</title>
<g id="a_Node000008"><a xlink:href="a05469.html" target="_top" xlink:title=" ">
<polygon fill="white" stroke="#666666" points="273,-754 149,-754 149,-716 273,-716 273,-754"/>
<text text-anchor="start" x="157" y="-742.8" font-family="Helvetica,sans-Serif" font-size="9.00">std::__codecvt_abstract</text>
<text text-anchor="start" x="157" y="-732.8" font-family="Helvetica,sans-Serif" font-size="9.00">_base&lt; char32_t, char,</text>
<text text-anchor="middle" x="211" y="-722.8" font-family="Helvetica,sans-Serif" font-size="9.00"> mbstate_t &gt;</text>
</a>
</g>
</g>
<!-- Node1&#45;&gt;Node8 -->
<g id="edge7_Node000001_Node000008" class="edge">
<title>Node1&#45;&gt;Node8</title>
<g id="a_edge7_Node000001_Node000008"><a xlink:title=" ">
<path fill="none" stroke="#63b8ff" d="M46.14,-441.66C46.38,-493.52 54.28,-630.47 127,-707 133.08,-713.39 140.66,-718.33 148.75,-722.14"/>
<polygon fill="#63b8ff" stroke="#63b8ff" points="49.64,-441.94 46.2,-431.92 42.64,-441.89 49.64,-441.94"/>
</a>
</g>
</g>
<!-- Node10 -->
<g id="Node000010" class="node">
<title>Node10</title>
<g id="a_Node000010"><a xlink:href="a05469.html" target="_top" xlink:title=" ">
<polygon fill="white" stroke="#666666" points="273,-698 149,-698 149,-660 273,-660 273,-698"/>
<text text-anchor="start" x="157" y="-686.8" font-family="Helvetica,sans-Serif" font-size="9.00">std::__codecvt_abstract</text>
<text text-anchor="start" x="157" y="-676.8" font-family="Helvetica,sans-Serif" font-size="9.00">_base&lt; wchar_t, char,</text>
<text text-anchor="middle" x="211" y="-666.8" font-family="Helvetica,sans-Serif" font-size="9.00"> mbstate_t &gt;</text>
</a>
</g>
</g>
<!-- Node1&#45;&gt;Node10 -->
<g id="edge9_Node000001_Node000010" class="edge">
<title>Node1&#45;&gt;Node10</title>
<g id="a_edge9_Node000001_Node000010"><a xlink:title=" ">
<path fill="none" stroke="#63b8ff" d="M47.83,-441.72C51.79,-486.29 67.31,-591.98 127,-651 133.16,-657.09 140.7,-661.86 148.69,-665.59"/>
<polygon fill="#63b8ff" stroke="#63b8ff" points="51.33,-441.62 47.08,-431.92 44.35,-442.16 51.33,-441.62"/>
</a>
</g>
</g>
<!-- Node12 -->
<g id="Node000012" class="node">
<title>Node12</title>
<g id="a_Node000012"><a xlink:href="a05469.html" target="_top" xlink:title=" ">
<polygon fill="white" stroke="#666666" points="295,-642 127,-642 127,-614 295,-614 295,-642"/>
<text text-anchor="start" x="135" y="-630.8" font-family="Helvetica,sans-Serif" font-size="9.00">std::__codecvt_abstract</text>
<text text-anchor="middle" x="211" y="-620.8" font-family="Helvetica,sans-Serif" font-size="9.00">_base&lt; _Elem, char, mbstate_t &gt;</text>
</a>
</g>
</g>
<!-- Node1&#45;&gt;Node12 -->
<g id="edge11_Node000001_Node000012" class="edge">
<title>Node1&#45;&gt;Node12</title>
<g id="a_edge11_Node000001_Node000012"><a xlink:title=" ">
<path fill="none" stroke="#63b8ff" d="M49.57,-441.37C56.37,-479.34 76.35,-561.08 127,-605 130.84,-608.33 135.13,-611.18 139.67,-613.62"/>
<polygon fill="#63b8ff" stroke="#63b8ff" points="53.07,-441.08 47.98,-431.78 46.16,-442.22 53.07,-441.08"/>
</a>
</g>
</g>
<!-- Node13 -->
<g id="Node000013" class="node">
<title>Node13</title>
<g id="a_Node000013"><a xlink:href="a06177.html" target="_top" xlink:title=" ">
<polygon fill="white" stroke="#666666" points="267.5,-596 154.5,-596 154.5,-568 267.5,-568 267.5,-596"/>
<text text-anchor="start" x="162.5" y="-584.8" font-family="Helvetica,sans-Serif" font-size="9.00">std::__ctype_abstract</text>
<text text-anchor="middle" x="211" y="-574.8" font-family="Helvetica,sans-Serif" font-size="9.00">_base&lt; wchar_t &gt;</text>
</a>
</g>
</g>
<!-- Node1&#45;&gt;Node13 -->
<g id="edge12_Node000001_Node000013" class="edge">
<title>Node1&#45;&gt;Node13</title>
<g id="a_edge12_Node000001_Node000013"><a xlink:title=" ">
<path fill="none" stroke="#63b8ff" d="M52.78,-441.24C63.21,-471.48 87.03,-528.2 127,-559 134.94,-565.11 144.4,-569.6 154.06,-572.9"/>
<polygon fill="#63b8ff" stroke="#63b8ff" points="56.13,-440.23 49.69,-431.82 49.48,-442.41 56.13,-440.23"/>
</a>
</g>
</g>
<!-- Node15 -->
<g id="Node000015" class="node">
<title>Node15</title>
<g id="a_Node000015"><a xlink:href="a05469.html" target="_top" xlink:title="Common base for codecvt functions.">
<polygon fill="white" stroke="#666666" points="280.5,-550 141.5,-550 141.5,-512 280.5,-512 280.5,-550"/>
<text text-anchor="start" x="149.5" y="-538.8" font-family="Helvetica,sans-Serif" font-size="9.00">std::__codecvt_abstract</text>
<text text-anchor="start" x="149.5" y="-528.8" font-family="Helvetica,sans-Serif" font-size="9.00">_base&lt; _InternT, _ExternT,</text>
<text text-anchor="middle" x="211" y="-518.8" font-family="Helvetica,sans-Serif" font-size="9.00"> _StateT &gt;</text>
</a>
</g>
</g>
<!-- Node1&#45;&gt;Node15 -->
<g id="edge14_Node000001_Node000015" class="edge">
<title>Node1&#45;&gt;Node15</title>
<g id="a_edge14_Node000001_Node000015"><a xlink:title=" ">
<path fill="none" stroke="#63b8ff" d="M60.04,-439.14C74.69,-457.59 99.63,-485.84 127,-503 132.03,-506.15 137.45,-508.99 143.02,-511.54"/>
<polygon fill="#63b8ff" stroke="#63b8ff" points="62.99,-437.24 54.11,-431.46 57.45,-441.51 62.99,-437.24"/>
</a>
</g>
</g>
<!-- Node19 -->
<g id="Node000019" class="node">
<title>Node19</title>
<g id="a_Node000019"><a xlink:href="a06177.html" target="_top" xlink:title="Common base for ctype facet.">
<polygon fill="white" stroke="#666666" points="267.5,-494 154.5,-494 154.5,-466 267.5,-466 267.5,-494"/>
<text text-anchor="start" x="162.5" y="-482.8" font-family="Helvetica,sans-Serif" font-size="9.00">std::__ctype_abstract</text>
<text text-anchor="middle" x="211" y="-472.8" font-family="Helvetica,sans-Serif" font-size="9.00">_base&lt; _CharT &gt;</text>
</a>
</g>
</g>
<!-- Node1&#45;&gt;Node19 -->
<g id="edge18_Node000001_Node000019" class="edge">
<title>Node1&#45;&gt;Node19</title>
<g id="a_edge18_Node000001_Node000019"><a xlink:title=" ">
<path fill="none" stroke="#63b8ff" d="M75.62,-435.29C90.73,-442.38 109.61,-450.74 127,-457 135.72,-460.14 145.09,-463.11 154.28,-465.8"/>
<polygon fill="#63b8ff" stroke="#63b8ff" points="77.26,-432.2 66.73,-431.06 74.25,-438.52 77.26,-432.2"/>
</a>
</g>
</g>
<!-- Node22 -->
<g id="Node000022" class="node">
<title>Node22</title>
<g id="a_Node000022"><a xlink:href="a06153.html" target="_top" xlink:title="Facet for localized string comparison.">
<polygon fill="white" stroke="#666666" points="270,-448 152,-448 152,-430 270,-430 270,-448"/>
<text text-anchor="middle" x="211" y="-436.8" font-family="Helvetica,sans-Serif" font-size="9.00">std::collate&lt; _CharT &gt;</text>
</a>
</g>
</g>
<!-- Node1&#45;&gt;Node22 -->
<g id="edge21_Node000001_Node000022" class="edge">
<title>Node1&#45;&gt;Node22</title>
<g id="a_edge21_Node000001_Node000022"><a xlink:title=" ">
<path fill="none" stroke="#63b8ff" d="M102.42,-427.16C118.28,-428.9 135.57,-430.81 151.56,-432.57"/>
<polygon fill="#63b8ff" stroke="#63b8ff" points="103,-423.7 92.68,-426.08 102.24,-430.66 103,-423.7"/>
</a>
</g>
</g>
<!-- Node24 -->
<g id="Node000024" class="node">
<title>Node24</title>
<g id="a_Node000024"><a xlink:href="a06185.html" target="_top" xlink:title="The ctype&lt;char&gt; specialization.">
<polygon fill="white" stroke="#666666" points="263,-412 159,-412 159,-394 263,-394 263,-412"/>
<text text-anchor="middle" x="211" y="-400.8" font-family="Helvetica,sans-Serif" font-size="9.00">std::ctype&lt; char &gt;</text>
</a>
</g>
</g>
<!-- Node1&#45;&gt;Node24 -->
<g id="edge23_Node000001_Node000024" class="edge">
<title>Node1&#45;&gt;Node24</title>
<g id="a_edge23_Node000001_Node000024"><a xlink:title=" ">
<path fill="none" stroke="#63b8ff" d="M102.54,-414.83C120.76,-412.82 140.88,-410.61 158.73,-408.64"/>
<polygon fill="#63b8ff" stroke="#63b8ff" points="102.24,-411.34 92.68,-415.92 103,-418.3 102.24,-411.34"/>
</a>
</g>
</g>
<!-- Node26 -->
<g id="Node000026" class="node">
<title>Node26</title>
<g id="a_Node000026"><a xlink:href="a06301.html" target="_top" xlink:title="Primary class template messages.">
<polygon fill="white" stroke="#666666" points="277.5,-376 144.5,-376 144.5,-358 277.5,-358 277.5,-376"/>
<text text-anchor="middle" x="211" y="-364.8" font-family="Helvetica,sans-Serif" font-size="9.00">std::messages&lt; _CharT &gt;</text>
</a>
</g>
</g>
<!-- Node1&#45;&gt;Node26 -->
<g id="edge25_Node000001_Node000026" class="edge">
<title>Node1&#45;&gt;Node26</title>
<g id="a_edge25_Node000001_Node000026"><a xlink:title=" ">
<path fill="none" stroke="#63b8ff" d="M74.87,-406.58C90.04,-399.32 109.21,-390.84 127,-385 137.09,-381.69 148.07,-378.82 158.64,-376.4"/>
<polygon fill="#63b8ff" stroke="#63b8ff" points="73.42,-403.39 65.97,-410.93 76.5,-409.68 73.42,-403.39"/>
</a>
</g>
</g>
<!-- Node28 -->
<g id="Node000028" class="node">
<title>Node28</title>
<g id="a_Node000028"><a xlink:href="a06289.html" target="_top" xlink:title="Primary class template money_get.">
<polygon fill="white" stroke="#666666" points="276.5,-340 145.5,-340 145.5,-312 276.5,-312 276.5,-340"/>
<text text-anchor="start" x="153.5" y="-328.8" font-family="Helvetica,sans-Serif" font-size="9.00">std::money_get&lt; _CharT,</text>
<text text-anchor="middle" x="211" y="-318.8" font-family="Helvetica,sans-Serif" font-size="9.00"> _InIter &gt;</text>
</a>
</g>
</g>
<!-- Node1&#45;&gt;Node28 -->
<g id="edge27_Node000001_Node000028" class="edge">
<title>Node1&#45;&gt;Node28</title>
<g id="a_edge27_Node000001_Node000028"><a xlink:title=" ">
<path fill="none" stroke="#63b8ff" d="M61.73,-403.34C76.76,-386.98 101.18,-363.11 127,-349 133.04,-345.7 139.58,-342.85 146.26,-340.38"/>
<polygon fill="#63b8ff" stroke="#63b8ff" points="59.46,-400.63 55.41,-410.42 64.68,-405.29 59.46,-400.63"/>
</a>
</g>
</g>
<!-- Node29 -->
<g id="Node000029" class="node">
<title>Node29</title>
<g id="a_Node000029"><a xlink:href="a06293.html" target="_top" xlink:title="Primary class template money_put.">
<polygon fill="white" stroke="#666666" points="277,-294 145,-294 145,-266 277,-266 277,-294"/>
<text text-anchor="start" x="153" y="-282.8" font-family="Helvetica,sans-Serif" font-size="9.00">std::money_put&lt; _CharT,</text>
<text text-anchor="middle" x="211" y="-272.8" font-family="Helvetica,sans-Serif" font-size="9.00"> _OutIter &gt;</text>
</a>
</g>
</g>
<!-- Node1&#45;&gt;Node29 -->
<g id="edge28_Node000001_Node000029" class="edge">
<title>Node1&#45;&gt;Node29</title>
<g id="a_edge28_Node000001_Node000029"><a xlink:title=" ">
<path fill="none" stroke="#63b8ff" d="M54.6,-401.45C66.53,-375.09 91.34,-328.52 127,-303 132.35,-299.17 138.31,-295.98 144.52,-293.32"/>
<polygon fill="#63b8ff" stroke="#63b8ff" points="51.53,-399.73 50.76,-410.3 57.95,-402.52 51.53,-399.73"/>
</a>
</g>
</g>
<!-- Node30 -->
<g id="Node000030" class="node">
<title>Node30</title>
<g id="a_Node000030"><a xlink:href="a06281.html" target="_top" xlink:title="Primary class template moneypunct.">
<polygon fill="white" stroke="#666666" points="280.5,-248 141.5,-248 141.5,-220 280.5,-220 280.5,-248"/>
<text text-anchor="start" x="149.5" y="-236.8" font-family="Helvetica,sans-Serif" font-size="9.00">std::moneypunct&lt; _CharT,</text>
<text text-anchor="middle" x="211" y="-226.8" font-family="Helvetica,sans-Serif" font-size="9.00"> _Intl &gt;</text>
</a>
</g>
</g>
<!-- Node1&#45;&gt;Node30 -->
<g id="edge29_Node000001_Node000030" class="edge">
<title>Node1&#45;&gt;Node30</title>
<g id="a_edge29_Node000001_Node000030"><a xlink:title=" ">
<path fill="none" stroke="#63b8ff" d="M50.82,-400.45C59.22,-365.61 81.12,-295.05 127,-257 131.26,-253.47 136.02,-250.48 141.05,-247.94"/>
<polygon fill="#63b8ff" stroke="#63b8ff" points="47.43,-399.54 48.65,-410.06 54.26,-401.08 47.43,-399.54"/>
</a>
</g>
</g>
<!-- Node32 -->
<g id="Node000032" class="node">
<title>Node32</title>
<g id="a_Node000032"><a xlink:href="a06221.html" target="_top" xlink:title="Primary class template num_get.">
<polygon fill="white" stroke="#666666" points="272,-202 150,-202 150,-174 272,-174 272,-202"/>
<text text-anchor="start" x="158" y="-190.8" font-family="Helvetica,sans-Serif" font-size="9.00">std::num_get&lt; _CharT,</text>
<text text-anchor="middle" x="211" y="-180.8" font-family="Helvetica,sans-Serif" font-size="9.00"> _InIter &gt;</text>
</a>
</g>
</g>
<!-- Node1&#45;&gt;Node32 -->
<g id="edge31_Node000001_Node000032" class="edge">
<title>Node1&#45;&gt;Node32</title>
<g id="a_edge31_Node000001_Node000032"><a xlink:title=" ">
<path fill="none" stroke="#63b8ff" d="M48.34,-400.43C53.22,-358.45 70.29,-262.52 127,-211 133.53,-205.07 141.46,-200.65 149.79,-197.36"/>
<polygon fill="#63b8ff" stroke="#63b8ff" points="44.87,-400.02 47.32,-410.33 51.83,-400.74 44.87,-400.02"/>
</a>
</g>
</g>
<!-- Node33 -->
<g id="Node000033" class="node">
<title>Node33</title>
<g id="a_Node000033"><a xlink:href="a06225.html" target="_top" xlink:title="Primary class template num_put.">
<polygon fill="white" stroke="#666666" points="272,-156 150,-156 150,-128 272,-128 272,-156"/>
<text text-anchor="start" x="158" y="-144.8" font-family="Helvetica,sans-Serif" font-size="9.00">std::num_put&lt; _CharT,</text>
<text text-anchor="middle" x="211" y="-134.8" font-family="Helvetica,sans-Serif" font-size="9.00"> _OutIter &gt;</text>
</a>
</g>
</g>
<!-- Node1&#45;&gt;Node33 -->
<g id="edge32_Node000001_Node000033" class="edge">
<title>Node1&#45;&gt;Node33</title>
<g id="a_edge32_Node000001_Node000033"><a xlink:title=" ">
<path fill="none" stroke="#63b8ff" d="M46.69,-400.68C48.28,-352.51 59.17,-230.54 127,-165 133.45,-158.77 141.44,-154.19 149.89,-150.84"/>
<polygon fill="#63b8ff" stroke="#63b8ff" points="43.2,-400.38 46.48,-410.45 50.19,-400.53 43.2,-400.38"/>
</a>
</g>
</g>
<!-- Node34 -->
<g id="Node000034" class="node">
<title>Node34</title>
<g id="a_Node000034"><a xlink:href="a06213.html" target="_top" xlink:title="Primary class template numpunct.">
<polygon fill="white" stroke="#666666" points="279.5,-110 142.5,-110 142.5,-92 279.5,-92 279.5,-110"/>
<text text-anchor="middle" x="211" y="-98.8" font-family="Helvetica,sans-Serif" font-size="9.00">std::numpunct&lt; _CharT &gt;</text>
</a>
</g>
</g>
<!-- Node1&#45;&gt;Node34 -->
<g id="edge33_Node000001_Node000034" class="edge">
<title>Node1&#45;&gt;Node34</title>
<g id="a_edge33_Node000001_Node000034"><a xlink:title=" ">
<path fill="none" stroke="#63b8ff" d="M49.19,-400.35C57.63,-338.83 85.49,-158.6 127,-119 131.48,-114.73 136.72,-111.37 142.36,-108.74"/>
<polygon fill="#63b8ff" stroke="#63b8ff" points="45.75,-399.71 47.89,-410.08 52.69,-400.64 45.75,-399.71"/>
</a>
</g>
</g>
<!-- Node36 -->
<g id="Node000036" class="node">
<title>Node36</title>
<g id="a_Node000036"><a xlink:href="a06253.html" target="_top" xlink:title="Primary class template time_get.">
<polygon fill="white" stroke="#666666" points="271.5,-74 150.5,-74 150.5,-46 271.5,-46 271.5,-74"/>
<text text-anchor="start" x="158.5" y="-62.8" font-family="Helvetica,sans-Serif" font-size="9.00">std::time_get&lt; _CharT,</text>
<text text-anchor="middle" x="211" y="-52.8" font-family="Helvetica,sans-Serif" font-size="9.00"> _InIter &gt;</text>
</a>
</g>
</g>
<!-- Node1&#45;&gt;Node36 -->
<g id="edge35_Node000001_Node000036" class="edge">
<title>Node1&#45;&gt;Node36</title>
<g id="a_edge35_Node000001_Node000036"><a xlink:title=" ">
<path fill="none" stroke="#63b8ff" d="M48.7,-400.21C56.11,-333.96 82.25,-129.41 127,-83 133.43,-76.33 141.62,-71.54 150.33,-68.11"/>
<polygon fill="#63b8ff" stroke="#63b8ff" points="45.23,-399.71 47.63,-410.03 52.19,-400.46 45.23,-399.71"/>
</a>
</g>
</g>
<!-- Node38 -->
<g id="Node000038" class="node">
<title>Node38</title>
<g id="a_Node000038"><a xlink:href="a06261.html" target="_top" xlink:title="Primary class template time_put.">
<polygon fill="white" stroke="#666666" points="272,-28 150,-28 150,0 272,0 272,-28"/>
<text text-anchor="start" x="158" y="-16.8" font-family="Helvetica,sans-Serif" font-size="9.00">std::time_put&lt; _CharT,</text>
<text text-anchor="middle" x="211" y="-6.8" font-family="Helvetica,sans-Serif" font-size="9.00"> _OutIter &gt;</text>
</a>
</g>
</g>
<!-- Node1&#45;&gt;Node38 -->
<g id="edge37_Node000001_Node000038" class="edge">
<title>Node1&#45;&gt;Node38</title>
<g id="a_edge37_Node000001_Node000038"><a xlink:title=" ">
<path fill="none" stroke="#63b8ff" d="M48.05,-400.26C53.85,-328.29 76.54,-90.78 127,-37 133.24,-30.35 141.22,-25.56 149.76,-22.13"/>
<polygon fill="#63b8ff" stroke="#63b8ff" points="44.57,-399.94 47.28,-410.18 51.55,-400.48 44.57,-399.94"/>
</a>
</g>
</g>
<!-- Node3 -->
<g id="Node000003" class="node">
<title>Node3</title>
<g id="a_Node000003"><a xlink:href="a11925.html" target="_top" xlink:title="codecvt&lt;InternT, _ExternT, encoding_state&gt; specialization.">
<polygon fill="white" stroke="#666666" points="476,-907 331,-907 331,-879 476,-879 476,-907"/>
<text text-anchor="start" x="339" y="-895.8" font-family="Helvetica,sans-Serif" font-size="9.00">std::codecvt&lt; _InternT,</text>
<text text-anchor="middle" x="403.5" y="-885.8" font-family="Helvetica,sans-Serif" font-size="9.00"> _ExternT, encoding_state &gt;</text>
</a>
</g>
</g>
<!-- Node2&#45;&gt;Node3 -->
<g id="edge2_Node000002_Node000003" class="edge">
<title>Node2&#45;&gt;Node3</title>
<g id="a_edge2_Node000002_Node000003"><a xlink:title=" ">
<path fill="none" stroke="#63b8ff" d="M291.93,-893C304.77,-893 317.98,-893 330.62,-893"/>
<polygon fill="#63b8ff" stroke="#63b8ff" points="292.29,-889.5 282.29,-893 292.29,-896.5 292.29,-889.5"/>
</a>
</g>
</g>
<!-- Node5 -->
<g id="Node000005" class="node">
<title>Node5</title>
<g id="a_Node000005"><a xlink:href="a05477.html" target="_top" xlink:title="class codecvt&lt;char, char, mbstate_t&gt; specialization.">
<polygon fill="white" stroke="#666666" points="457,-856 350,-856 350,-828 457,-828 457,-856"/>
<text text-anchor="start" x="358" y="-844.8" font-family="Helvetica,sans-Serif" font-size="9.00">std::codecvt&lt; char,</text>
<text text-anchor="middle" x="403.5" y="-834.8" font-family="Helvetica,sans-Serif" font-size="9.00"> char, mbstate_t &gt;</text>
</a>
</g>
</g>
<!-- Node4&#45;&gt;Node5 -->
<g id="edge4_Node000004_Node000005" class="edge">
<title>Node4&#45;&gt;Node5</title>
<g id="a_edge4_Node000004_Node000005"><a xlink:title=" ">
<path fill="none" stroke="#63b8ff" d="M303.43,-842C319.25,-842 335.21,-842 349.57,-842"/>
<polygon fill="#63b8ff" stroke="#63b8ff" points="303.47,-838.5 293.47,-842 303.47,-845.5 303.47,-838.5"/>
</a>
</g>
</g>
<!-- Node7 -->
<g id="Node000007" class="node">
<title>Node7</title>
<g id="a_Node000007"><a xlink:href="a05485.html" target="_top" xlink:title="Class codecvt&lt;char16_t, char, mbstate_t&gt; specialization.">
<polygon fill="white" stroke="#666666" points="461.5,-805 345.5,-805 345.5,-777 461.5,-777 461.5,-805"/>
<text text-anchor="start" x="353.5" y="-793.8" font-family="Helvetica,sans-Serif" font-size="9.00">std::codecvt&lt; char16</text>
<text text-anchor="middle" x="403.5" y="-783.8" font-family="Helvetica,sans-Serif" font-size="9.00">_t, char, mbstate_t &gt;</text>
</a>
</g>
</g>
<!-- Node6&#45;&gt;Node7 -->
<g id="edge6_Node000006_Node000007" class="edge">
<title>Node6&#45;&gt;Node7</title>
<g id="a_edge6_Node000006_Node000007"><a xlink:title=" ">
<path fill="none" stroke="#63b8ff" d="M284.61,-791C304.66,-791 326.13,-791 345.17,-791"/>
<polygon fill="#63b8ff" stroke="#63b8ff" points="284.84,-787.5 274.84,-791 284.84,-794.5 284.84,-787.5"/>
</a>
</g>
</g>
<!-- Node9 -->
<g id="Node000009" class="node">
<title>Node9</title>
<g id="a_Node000009"><a xlink:href="a05489.html" target="_top" xlink:title="Class codecvt&lt;char32_t, char, mbstate_t&gt; specialization.">
<polygon fill="white" stroke="#666666" points="461.5,-749 345.5,-749 345.5,-721 461.5,-721 461.5,-749"/>
<text text-anchor="start" x="353.5" y="-737.8" font-family="Helvetica,sans-Serif" font-size="9.00">std::codecvt&lt; char32</text>
<text text-anchor="middle" x="403.5" y="-727.8" font-family="Helvetica,sans-Serif" font-size="9.00">_t, char, mbstate_t &gt;</text>
</a>
</g>
</g>
<!-- Node8&#45;&gt;Node9 -->
<g id="edge8_Node000008_Node000009" class="edge">
<title>Node8&#45;&gt;Node9</title>
<g id="a_edge8_Node000008_Node000009"><a xlink:title=" ">
<path fill="none" stroke="#63b8ff" d="M284.61,-735C304.66,-735 326.13,-735 345.17,-735"/>
<polygon fill="#63b8ff" stroke="#63b8ff" points="284.84,-731.5 274.84,-735 284.84,-738.5 284.84,-731.5"/>
</a>
</g>
</g>
<!-- Node11 -->
<g id="Node000011" class="node">
<title>Node11</title>
<g id="a_Node000011"><a xlink:href="a05481.html" target="_top" xlink:title="Class codecvt&lt;wchar_t, char, mbstate_t&gt; specialization.">
<polygon fill="white" stroke="#666666" points="460,-693 347,-693 347,-665 460,-665 460,-693"/>
<text text-anchor="start" x="355" y="-681.8" font-family="Helvetica,sans-Serif" font-size="9.00">std::codecvt&lt; wchar</text>
<text text-anchor="middle" x="403.5" y="-671.8" font-family="Helvetica,sans-Serif" font-size="9.00">_t, char, mbstate_t &gt;</text>
</a>
</g>
</g>
<!-- Node10&#45;&gt;Node11 -->
<g id="edge10_Node000010_Node000011" class="edge">
<title>Node10&#45;&gt;Node11</title>
<g id="a_edge10_Node000010_Node000011"><a xlink:title=" ">
<path fill="none" stroke="#63b8ff" d="M284.6,-679C305.21,-679 327.33,-679 346.77,-679"/>
<polygon fill="#63b8ff" stroke="#63b8ff" points="284.84,-675.5 274.84,-679 284.84,-682.5 284.84,-675.5"/>
</a>
</g>
</g>
<!-- Node14 -->
<g id="Node000014" class="node">
<title>Node14</title>
<g id="a_Node000014"><a xlink:href="a06189.html" target="_top" xlink:title="The ctype&lt;wchar_t&gt; specialization.">
<polygon fill="white" stroke="#666666" points="463,-622 344,-622 344,-604 463,-604 463,-622"/>
<text text-anchor="middle" x="403.5" y="-610.8" font-family="Helvetica,sans-Serif" font-size="9.00">std::ctype&lt; wchar_t &gt;</text>
</a>
</g>
</g>
<!-- Node13&#45;&gt;Node14 -->
<g id="edge13_Node000013_Node000014" class="edge">
<title>Node13&#45;&gt;Node14</title>
<g id="a_edge13_Node000013_Node000014"><a xlink:title=" ">
<path fill="none" stroke="#63b8ff" d="M279.11,-592.92C300.39,-596.38 323.72,-600.18 344.31,-603.53"/>
<polygon fill="#63b8ff" stroke="#63b8ff" points="279.8,-589.49 269.36,-591.33 278.67,-596.4 279.8,-589.49"/>
</a>
</g>
</g>
<!-- Node16 -->
<g id="Node000016" class="node">
<title>Node16</title>
<g id="a_Node000016"><a xlink:href="a05473.html" target="_top" xlink:title=" ">
<polygon fill="white" stroke="#666666" points="460,-586 347,-586 347,-558 460,-558 460,-586"/>
<text text-anchor="start" x="355" y="-574.8" font-family="Helvetica,sans-Serif" font-size="9.00">std::codecvt&lt; _Elem,</text>
<text text-anchor="middle" x="403.5" y="-564.8" font-family="Helvetica,sans-Serif" font-size="9.00"> char, mbstate_t &gt;</text>
</a>
</g>
</g>
<!-- Node15&#45;&gt;Node16 -->
<g id="edge15_Node000015_Node000016" class="edge">
<title>Node15&#45;&gt;Node16</title>
<g id="a_edge15_Node000015_Node000016"><a xlink:title=" ">
<path fill="none" stroke="#63b8ff" d="M291.82,-548.18C310.26,-552.15 329.49,-556.29 346.65,-559.98"/>
<polygon fill="#63b8ff" stroke="#63b8ff" points="292.77,-544.8 282.25,-546.12 291.29,-551.65 292.77,-544.8"/>
</a>
</g>
</g>
<!-- Node17 -->
<g id="Node000017" class="node">
<title>Node17</title>
<g id="a_Node000017"><a xlink:href="a05473.html" target="_top" xlink:title="Primary class template codecvt.">
<polygon fill="white" stroke="#666666" points="465.5,-540 341.5,-540 341.5,-512 465.5,-512 465.5,-540"/>
<text text-anchor="start" x="349.5" y="-528.8" font-family="Helvetica,sans-Serif" font-size="9.00">std::codecvt&lt; _InternT,</text>
<text text-anchor="middle" x="403.5" y="-518.8" font-family="Helvetica,sans-Serif" font-size="9.00"> _ExternT, _StateT &gt;</text>
</a>
</g>
</g>
<!-- Node15&#45;&gt;Node17 -->
<g id="edge16_Node000015_Node000017" class="edge">
<title>Node15&#45;&gt;Node17</title>
<g id="a_edge16_Node000015_Node000017"><a xlink:title=" ">
<path fill="none" stroke="#63b8ff" d="M292.01,-528.9C308.43,-528.47 325.46,-528.02 341.09,-527.61"/>
<polygon fill="#63b8ff" stroke="#63b8ff" points="292.19,-525.39 282.29,-529.16 292.38,-532.39 292.19,-525.39"/>
</a>
</g>
</g>
<!-- Node18 -->
<g id="Node000018" class="node">
<title>Node18</title>
<g id="a_Node000018"><a xlink:href="a05493.html" target="_top" xlink:title="class codecvt_byname [22.2.1.6].">
<polygon fill="white" stroke="#666666" points="626,-547 512,-547 512,-509 626,-509 626,-547"/>
<text text-anchor="start" x="520" y="-535.8" font-family="Helvetica,sans-Serif" font-size="9.00">std::codecvt_byname</text>
<text text-anchor="start" x="520" y="-525.8" font-family="Helvetica,sans-Serif" font-size="9.00">&lt; _InternT, _ExternT,</text>
<text text-anchor="middle" x="569" y="-515.8" font-family="Helvetica,sans-Serif" font-size="9.00"> _StateT &gt;</text>
</a>
</g>
</g>
<!-- Node17&#45;&gt;Node18 -->
<g id="edge17_Node000017_Node000018" class="edge">
<title>Node17&#45;&gt;Node18</title>
<g id="a_edge17_Node000017_Node000018"><a xlink:title=" ">
<path fill="none" stroke="#63b8ff" d="M477.28,-526.89C488.82,-527.03 500.61,-527.18 511.71,-527.31"/>
<polygon fill="#63b8ff" stroke="#63b8ff" points="477.4,-523.39 467.36,-526.77 477.32,-530.39 477.4,-523.39"/>
</a>
</g>
</g>
<!-- Node20 -->
<g id="Node000020" class="node">
<title>Node20</title>
<g id="a_Node000020"><a xlink:href="a06181.html" target="_top" xlink:title="Primary class template ctype facet.">
<polygon fill="white" stroke="#666666" points="460.5,-489 346.5,-489 346.5,-471 460.5,-471 460.5,-489"/>
<text text-anchor="middle" x="403.5" y="-477.8" font-family="Helvetica,sans-Serif" font-size="9.00">std::ctype&lt; _CharT &gt;</text>
</a>
</g>
</g>
<!-- Node19&#45;&gt;Node20 -->
<g id="edge19_Node000019_Node000020" class="edge">
<title>Node19&#45;&gt;Node20</title>
<g id="a_edge19_Node000019_Node000020"><a xlink:title=" ">
<path fill="none" stroke="#63b8ff" d="M279.12,-480C301.08,-480 325.23,-480 346.3,-480"/>
<polygon fill="#63b8ff" stroke="#63b8ff" points="279.38,-476.5 269.38,-480 279.38,-483.5 279.38,-476.5"/>
</a>
</g>
</g>
<!-- Node21 -->
<g id="Node000021" class="node">
<title>Node21</title>
<g id="a_Node000021"><a xlink:href="a06193.html" target="_top" xlink:title="class ctype_byname [22.2.1.2].">
<polygon fill="white" stroke="#666666" points="624.5,-491 513.5,-491 513.5,-463 624.5,-463 624.5,-491"/>
<text text-anchor="start" x="521.5" y="-479.8" font-family="Helvetica,sans-Serif" font-size="9.00">std::ctype_byname&lt;</text>
<text text-anchor="middle" x="569" y="-469.8" font-family="Helvetica,sans-Serif" font-size="9.00"> _CharT &gt;</text>
</a>
</g>
</g>
<!-- Node20&#45;&gt;Node21 -->
<g id="edge20_Node000020_Node000021" class="edge">
<title>Node20&#45;&gt;Node21</title>
<g id="a_edge20_Node000020_Node000021"><a xlink:title=" ">
<path fill="none" stroke="#63b8ff" d="M472.06,-478.76C485.69,-478.51 499.87,-478.25 513.01,-478.01"/>
<polygon fill="#63b8ff" stroke="#63b8ff" points="472.21,-475.26 462.28,-478.94 472.34,-482.26 472.21,-475.26"/>
</a>
</g>
</g>
<!-- Node23 -->
<g id="Node000023" class="node">
<title>Node23</title>
<g id="a_Node000023"><a xlink:href="a06157.html" target="_top" xlink:title="class collate_byname [22.2.4.2].">
<polygon fill="white" stroke="#666666" points="457,-453 350,-453 350,-425 457,-425 457,-453"/>
<text text-anchor="start" x="358" y="-441.8" font-family="Helvetica,sans-Serif" font-size="9.00">std::collate_byname</text>
<text text-anchor="middle" x="403.5" y="-431.8" font-family="Helvetica,sans-Serif" font-size="9.00">&lt; _CharT &gt;</text>
</a>
</g>
</g>
<!-- Node22&#45;&gt;Node23 -->
<g id="edge22_Node000022_Node000023" class="edge">
<title>Node22&#45;&gt;Node23</title>
<g id="a_edge22_Node000022_Node000023"><a xlink:title=" ">
<path fill="none" stroke="#63b8ff" d="M281.94,-439C304.32,-439 328.71,-439 349.66,-439"/>
<polygon fill="#63b8ff" stroke="#63b8ff" points="281.96,-435.5 271.96,-439 281.96,-442.5 281.96,-435.5"/>
</a>
</g>
</g>
<!-- Node25 -->
<g id="Node000025" class="node">
<title>Node25</title>
<g id="a_Node000025"><a xlink:href="a06197.html" target="_top" xlink:title="22.2.1.4 Class ctype_byname specializations.">
<polygon fill="white" stroke="#666666" points="459,-407 348,-407 348,-379 459,-379 459,-407"/>
<text text-anchor="start" x="356" y="-395.8" font-family="Helvetica,sans-Serif" font-size="9.00">std::ctype_byname&lt;</text>
<text text-anchor="middle" x="403.5" y="-385.8" font-family="Helvetica,sans-Serif" font-size="9.00"> char &gt;</text>
</a>
</g>
</g>
<!-- Node24&#45;&gt;Node25 -->
<g id="edge24_Node000024_Node000025" class="edge">
<title>Node24&#45;&gt;Node25</title>
<g id="a_edge24_Node000024_Node000025"><a xlink:title=" ">
<path fill="none" stroke="#63b8ff" d="M274.62,-399.71C298.25,-398.47 324.92,-397.07 347.77,-395.87"/>
<polygon fill="#63b8ff" stroke="#63b8ff" points="274.62,-396.21 264.81,-400.23 274.98,-403.2 274.62,-396.21"/>
</a>
</g>
</g>
<!-- Node27 -->
<g id="Node000027" class="node">
<title>Node27</title>
<g id="a_Node000027"><a xlink:href="a06305.html" target="_top" xlink:title="class messages_byname [22.2.7.2].">
<polygon fill="white" stroke="#666666" points="464.5,-361 342.5,-361 342.5,-333 464.5,-333 464.5,-361"/>
<text text-anchor="start" x="350.5" y="-349.8" font-family="Helvetica,sans-Serif" font-size="9.00">std::messages_byname</text>
<text text-anchor="middle" x="403.5" y="-339.8" font-family="Helvetica,sans-Serif" font-size="9.00">&lt; _CharT &gt;</text>
</a>
</g>
</g>
<!-- Node26&#45;&gt;Node27 -->
<g id="edge26_Node000026_Node000027" class="edge">
<title>Node26&#45;&gt;Node27</title>
<g id="a_edge26_Node000026_Node000027"><a xlink:title=" ">
<path fill="none" stroke="#63b8ff" d="M289.25,-358.89C306.86,-357.04 325.32,-355.1 342.11,-353.34"/>
<polygon fill="#63b8ff" stroke="#63b8ff" points="288.91,-355.41 279.33,-359.93 289.64,-362.37 288.91,-355.41"/>
</a>
</g>
</g>
<!-- Node31 -->
<g id="Node000031" class="node">
<title>Node31</title>
<g id="a_Node000031"><a xlink:href="a06285.html" target="_top" xlink:title="class moneypunct_byname [22.2.6.4].">
<polygon fill="white" stroke="#666666" points="471.5,-248 335.5,-248 335.5,-220 471.5,-220 471.5,-248"/>
<text text-anchor="start" x="343.5" y="-236.8" font-family="Helvetica,sans-Serif" font-size="9.00">std::moneypunct_byname</text>
<text text-anchor="middle" x="403.5" y="-226.8" font-family="Helvetica,sans-Serif" font-size="9.00">&lt; _CharT, _Intl &gt;</text>
</a>
</g>
</g>
<!-- Node30&#45;&gt;Node31 -->
<g id="edge30_Node000030_Node000031" class="edge">
<title>Node30&#45;&gt;Node31</title>
<g id="a_edge30_Node000030_Node000031"><a xlink:title=" ">
<path fill="none" stroke="#63b8ff" d="M292.12,-234C306.43,-234 321.2,-234 335.1,-234"/>
<polygon fill="#63b8ff" stroke="#63b8ff" points="292.29,-230.5 282.29,-234 292.29,-237.5 292.29,-230.5"/>
</a>
</g>
</g>
<!-- Node35 -->
<g id="Node000035" class="node">
<title>Node35</title>
<g id="a_Node000035"><a xlink:href="a06217.html" target="_top" xlink:title="class numpunct_byname [22.2.3.2].">
<polygon fill="white" stroke="#666666" points="466.5,-120 340.5,-120 340.5,-92 466.5,-92 466.5,-120"/>
<text text-anchor="start" x="348.5" y="-108.8" font-family="Helvetica,sans-Serif" font-size="9.00">std::numpunct_byname</text>
<text text-anchor="middle" x="403.5" y="-98.8" font-family="Helvetica,sans-Serif" font-size="9.00">&lt; _CharT &gt;</text>
</a>
</g>
</g>
<!-- Node34&#45;&gt;Node35 -->
<g id="edge34_Node000034_Node000035" class="edge">
<title>Node34&#45;&gt;Node35</title>
<g id="a_edge34_Node000034_Node000035"><a xlink:title=" ">
<path fill="none" stroke="#63b8ff" d="M291.18,-103.08C307.56,-103.51 324.6,-103.96 340.28,-104.37"/>
<polygon fill="#63b8ff" stroke="#63b8ff" points="291.57,-99.59 281.48,-102.82 291.39,-106.58 291.57,-99.59"/>
</a>
</g>
</g>
<!-- Node37 -->
<g id="Node000037" class="node">
<title>Node37</title>
<g id="a_Node000037"><a xlink:href="a06257.html" target="_top" xlink:title="class time_get_byname [22.2.5.2].">
<polygon fill="white" stroke="#666666" points="462.5,-74 344.5,-74 344.5,-46 462.5,-46 462.5,-74"/>
<text text-anchor="start" x="352.5" y="-62.8" font-family="Helvetica,sans-Serif" font-size="9.00">std::time_get_byname</text>
<text text-anchor="middle" x="403.5" y="-52.8" font-family="Helvetica,sans-Serif" font-size="9.00">&lt; _CharT, _InIter &gt;</text>
</a>
</g>
</g>
<!-- Node36&#45;&gt;Node37 -->
<g id="edge36_Node000036_Node000037" class="edge">
<title>Node36&#45;&gt;Node37</title>
<g id="a_edge36_Node000036_Node000037"><a xlink:title=" ">
<path fill="none" stroke="#63b8ff" d="M283.09,-60C303.25,-60 324.96,-60 344.26,-60"/>
<polygon fill="#63b8ff" stroke="#63b8ff" points="283.27,-56.5 273.27,-60 283.27,-63.5 283.27,-56.5"/>
</a>
</g>
</g>
<!-- Node39 -->
<g id="Node000039" class="node">
<title>Node39</title>
<g id="a_Node000039"><a xlink:href="a06265.html" target="_top" xlink:title="class time_put_byname [22.2.5.4].">
<polygon fill="white" stroke="#666666" points="463,-28 344,-28 344,0 463,0 463,-28"/>
<text text-anchor="start" x="352" y="-16.8" font-family="Helvetica,sans-Serif" font-size="9.00">std::time_put_byname</text>
<text text-anchor="middle" x="403.5" y="-6.8" font-family="Helvetica,sans-Serif" font-size="9.00">&lt; _CharT, _OutIter &gt;</text>
</a>
</g>
</g>
<!-- Node38&#45;&gt;Node39 -->
<g id="edge38_Node000038_Node000039" class="edge">
<title>Node38&#45;&gt;Node39</title>
<g id="a_edge38_Node000038_Node000039"><a xlink:title=" ">
<path fill="none" stroke="#63b8ff" d="M283.71,-14C303.46,-14 324.66,-14 343.59,-14"/>
<polygon fill="#63b8ff" stroke="#63b8ff" points="283.79,-10.5 273.79,-14 283.79,-17.5 283.79,-10.5"/>
</a>
</g>
</g>
</g>
</svg>
