<?xml version="1.0" encoding="UTF-8" standalone="no"?>
<!DOCTYPE svg PUBLIC "-//W3C//DTD SVG 1.1//EN"
 "http://www.w3.org/Graphics/SVG/1.1/DTD/svg11.dtd">
<!-- Generated by graphviz version 7.1.0 (0)
 -->
<!-- Title: std::time_base Pages: 1 -->
<svg width="129pt" height="154pt"
 viewBox="0.00 0.00 129.00 154.00" xmlns="http://www.w3.org/2000/svg" xmlns:xlink="http://www.w3.org/1999/xlink">
<g id="graph0" class="graph" transform="scale(1 1) rotate(0) translate(4 150)">
<title>std::time_base</title>
<!-- Node1 -->
<g id="Node000001" class="node">
<title>Node1</title>
<g id="a_Node000001"><a xlink:title="Time format ordering data.">
<polygon fill="#999999" stroke="#666666" points="102,-146 19,-146 19,-128 102,-128 102,-146"/>
<text text-anchor="middle" x="60.5" y="-134.8" font-family="Helvetica,sans-Serif" font-size="9.00">std::time_base</text>
</a>
</g>
</g>
<!-- Node2 -->
<g id="Node000002" class="node">
<title>Node2</title>
<g id="a_Node000002"><a xlink:href="a06253.html" target="_top" xlink:title="Primary class template time_get.">
<polygon fill="white" stroke="#666666" points="121,-92 0,-92 0,-64 121,-64 121,-92"/>
<text text-anchor="start" x="8" y="-80.8" font-family="Helvetica,sans-Serif" font-size="9.00">std::time_get&lt; _CharT,</text>
<text text-anchor="middle" x="60.5" y="-70.8" font-family="Helvetica,sans-Serif" font-size="9.00"> _InIter &gt;</text>
</a>
</g>
</g>
<!-- Node1&#45;&gt;Node2 -->
<g id="edge1_Node000001_Node000002" class="edge">
<title>Node1&#45;&gt;Node2</title>
<g id="a_edge1_Node000001_Node000002"><a xlink:title=" ">
<path fill="none" stroke="#63b8ff" d="M60.5,-116.08C60.5,-108.21 60.5,-99.38 60.5,-92.31"/>
<polygon fill="#63b8ff" stroke="#63b8ff" points="57,-116.08 60.5,-126.08 64,-116.08 57,-116.08"/>
</a>
</g>
</g>
<!-- Node3 -->
<g id="Node000003" class="node">
<title>Node3</title>
<g id="a_Node000003"><a xlink:href="a06257.html" target="_top" xlink:title="class time_get_byname [22.2.5.2].">
<polygon fill="white" stroke="#666666" points="119.5,-28 1.5,-28 1.5,0 119.5,0 119.5,-28"/>
<text text-anchor="start" x="9.5" y="-16.8" font-family="Helvetica,sans-Serif" font-size="9.00">std::time_get_byname</text>
<text text-anchor="middle" x="60.5" y="-6.8" font-family="Helvetica,sans-Serif" font-size="9.00">&lt; _CharT, _InIter &gt;</text>
</a>
</g>
</g>
<!-- Node2&#45;&gt;Node3 -->
<g id="edge2_Node000002_Node000003" class="edge">
<title>Node2&#45;&gt;Node3</title>
<g id="a_edge2_Node000002_Node000003"><a xlink:title=" ">
<path fill="none" stroke="#63b8ff" d="M60.5,-52.03C60.5,-43.97 60.5,-35.33 60.5,-28.43"/>
<polygon fill="#63b8ff" stroke="#63b8ff" points="57,-52.03 60.5,-62.03 64,-52.03 57,-52.03"/>
</a>
</g>
</g>
</g>
</svg>
