<?xml version="1.0" encoding="UTF-8" standalone="no"?>
<!DOCTYPE svg PUBLIC "-//W3C//DTD SVG 1.1//EN"
 "http://www.w3.org/Graphics/SVG/1.1/DTD/svg11.dtd">
<!-- Generated by graphviz version 7.1.0 (0)
 -->
<!-- Title: std::__new_allocator&lt; _Tp &gt; Pages: 1 -->
<svg width="398pt" height="100pt"
 viewBox="0.00 0.00 398.00 100.00" xmlns="http://www.w3.org/2000/svg" xmlns:xlink="http://www.w3.org/1999/xlink">
<g id="graph0" class="graph" transform="scale(1 1) rotate(0) translate(4 96)">
<title>std::__new_allocator&lt; _Tp &gt;</title>
<!-- Node1 -->
<g id="Node000001" class="node">
<title>Node1</title>
<g id="a_Node000001"><a xlink:title="An allocator that uses global new, as per C++03 [20.4.1].">
<polygon fill="#999999" stroke="#666666" points="247.5,-92 140.5,-92 140.5,-64 247.5,-64 247.5,-92"/>
<text text-anchor="start" x="148.5" y="-80.8" font-family="Helvetica,sans-Serif" font-size="9.00">std::__new_allocator</text>
<text text-anchor="middle" x="194" y="-70.8" font-family="Helvetica,sans-Serif" font-size="9.00">&lt; _Tp &gt;</text>
</a>
</g>
</g>
<!-- Node2 -->
<g id="Node000002" class="node">
<title>Node2</title>
<g id="a_Node000002"><a xlink:href="a04849.html" target="_top" xlink:title=" ">
<polygon fill="white" stroke="#666666" points="110,-28 0,-28 0,0 110,0 110,-28"/>
<text text-anchor="start" x="8" y="-16.8" font-family="Helvetica,sans-Serif" font-size="9.00">std::allocator&lt; value</text>
<text text-anchor="middle" x="55" y="-6.8" font-family="Helvetica,sans-Serif" font-size="9.00">_type &gt;</text>
</a>
</g>
</g>
<!-- Node1&#45;&gt;Node2 -->
<g id="edge1_Node000001_Node000002" class="edge">
<title>Node1&#45;&gt;Node2</title>
<g id="a_edge1_Node000001_Node000002"><a xlink:title=" ">
<path fill="none" stroke="#63b8ff" d="M153.53,-58.95C131.66,-49.2 105.13,-37.36 85.1,-28.43"/>
<polygon fill="#63b8ff" stroke="#63b8ff" points="151.9,-62.05 162.46,-62.93 154.75,-55.66 151.9,-62.05"/>
</a>
</g>
</g>
<!-- Node3 -->
<g id="Node000003" class="node">
<title>Node3</title>
<g id="a_Node000003"><a xlink:href="a12097.html" target="_top" xlink:title="An allocator that uses global new, as per C++03 [20.4.1].">
<polygon fill="white" stroke="#666666" points="259.5,-28 128.5,-28 128.5,0 259.5,0 259.5,-28"/>
<text text-anchor="start" x="136.5" y="-16.8" font-family="Helvetica,sans-Serif" font-size="9.00">__gnu_cxx::new_allocator</text>
<text text-anchor="middle" x="194" y="-6.8" font-family="Helvetica,sans-Serif" font-size="9.00">&lt; _Tp &gt;</text>
</a>
</g>
</g>
<!-- Node1&#45;&gt;Node3 -->
<g id="edge2_Node000001_Node000003" class="edge">
<title>Node1&#45;&gt;Node3</title>
<g id="a_edge2_Node000001_Node000003"><a xlink:title=" ">
<path fill="none" stroke="#63b8ff" d="M194,-52.03C194,-43.97 194,-35.33 194,-28.43"/>
<polygon fill="#63b8ff" stroke="#63b8ff" points="190.5,-52.03 194,-62.03 197.5,-52.03 190.5,-52.03"/>
</a>
</g>
</g>
<!-- Node4 -->
<g id="Node000004" class="node">
<title>Node4</title>
<g id="a_Node000004"><a xlink:href="a04849.html" target="_top" xlink:title="The standard allocator, as per C++03 [20.4.1].">
<polygon fill="white" stroke="#666666" points="390,-23 278,-23 278,-5 390,-5 390,-23"/>
<text text-anchor="middle" x="334" y="-11.8" font-family="Helvetica,sans-Serif" font-size="9.00">std::allocator&lt; _Tp &gt;</text>
</a>
</g>
</g>
<!-- Node1&#45;&gt;Node4 -->
<g id="edge3_Node000001_Node000004" class="edge">
<title>Node1&#45;&gt;Node4</title>
<g id="a_edge3_Node000001_Node000004"><a xlink:title=" ">
<path fill="none" stroke="#63b8ff" d="M234.85,-58.91C261.25,-47.22 294.38,-32.55 314.87,-23.47"/>
<polygon fill="#63b8ff" stroke="#63b8ff" points="233.49,-55.68 225.76,-62.93 236.32,-62.08 233.49,-55.68"/>
</a>
</g>
</g>
</g>
</svg>
