<?xml version="1.0" encoding="UTF-8" standalone="no"?>
<!DOCTYPE svg PUBLIC "-//W3C//DTD SVG 1.1//EN"
 "http://www.w3.org/Graphics/SVG/1.1/DTD/svg11.dtd">
<!-- Generated by graphviz version 7.1.0 (0)
 -->
<!-- Title: std::pmr::memory_resource Pages: 1 -->
<svg width="320pt" height="128pt"
 viewBox="0.00 0.00 320.00 128.00" xmlns="http://www.w3.org/2000/svg" xmlns:xlink="http://www.w3.org/1999/xlink">
<g id="graph0" class="graph" transform="scale(1 1) rotate(0) translate(4 124)">
<title>std::pmr::memory_resource</title>
<!-- Node1 -->
<g id="Node000001" class="node">
<title>Node1</title>
<g id="a_Node000001"><a xlink:title="Class memory_resource.">
<polygon fill="#999999" stroke="#666666" points="142,-69 0,-69 0,-51 142,-51 142,-69"/>
<text text-anchor="middle" x="71" y="-57.8" font-family="Helvetica,sans-Serif" font-size="9.00">std::pmr::memory_resource</text>
</a>
</g>
</g>
<!-- Node2 -->
<g id="Node000002" class="node">
<title>Node2</title>
<g id="a_Node000002"><a xlink:href="a02921.html" target="_top" xlink:title="A memory resource that allocates from a fixed&#45;size buffer.">
<polygon fill="white" stroke="#666666" points="300,-120 190,-120 190,-92 300,-92 300,-120"/>
<text text-anchor="start" x="198" y="-108.8" font-family="Helvetica,sans-Serif" font-size="9.00">std::pmr::monotonic</text>
<text text-anchor="middle" x="245" y="-98.8" font-family="Helvetica,sans-Serif" font-size="9.00">_buffer_resource</text>
</a>
</g>
</g>
<!-- Node1&#45;&gt;Node2 -->
<g id="edge1_Node000001_Node000002" class="edge">
<title>Node1&#45;&gt;Node2</title>
<g id="a_edge1_Node000001_Node000002"><a xlink:title=" ">
<path fill="none" stroke="#63b8ff" d="M118.3,-72.38C140.36,-78.28 166.87,-85.37 189.85,-91.52"/>
<polygon fill="#63b8ff" stroke="#63b8ff" points="119.25,-69.01 108.68,-69.81 117.44,-75.78 119.25,-69.01"/>
</a>
</g>
</g>
<!-- Node3 -->
<g id="Node000003" class="node">
<title>Node3</title>
<g id="a_Node000003"><a xlink:href="a02913.html" target="_top" xlink:title="A thread&#45;safe memory resource that manages pools of fixed&#45;size blocks.">
<polygon fill="white" stroke="#666666" points="306,-74 184,-74 184,-46 306,-46 306,-74"/>
<text text-anchor="start" x="192" y="-62.8" font-family="Helvetica,sans-Serif" font-size="9.00">std::pmr::synchronized</text>
<text text-anchor="middle" x="245" y="-52.8" font-family="Helvetica,sans-Serif" font-size="9.00">_pool_resource</text>
</a>
</g>
</g>
<!-- Node1&#45;&gt;Node3 -->
<g id="edge2_Node000001_Node000003" class="edge">
<title>Node1&#45;&gt;Node3</title>
<g id="a_edge2_Node000001_Node000003"><a xlink:title=" ">
<path fill="none" stroke="#63b8ff" d="M153.73,-60C163.78,-60 173.9,-60 183.55,-60"/>
<polygon fill="#63b8ff" stroke="#63b8ff" points="153.97,-56.5 143.97,-60 153.97,-63.5 153.97,-56.5"/>
</a>
</g>
</g>
<!-- Node4 -->
<g id="Node000004" class="node">
<title>Node4</title>
<g id="a_Node000004"><a xlink:href="a02917.html" target="_top" xlink:title="A non&#45;thread&#45;safe memory resource that manages pools of fixed&#45;size blocks.">
<polygon fill="white" stroke="#666666" points="312,-28 178,-28 178,0 312,0 312,-28"/>
<text text-anchor="start" x="186" y="-16.8" font-family="Helvetica,sans-Serif" font-size="9.00">std::pmr::unsynchronized</text>
<text text-anchor="middle" x="245" y="-6.8" font-family="Helvetica,sans-Serif" font-size="9.00">_pool_resource</text>
</a>
</g>
</g>
<!-- Node1&#45;&gt;Node4 -->
<g id="edge3_Node000001_Node000004" class="edge">
<title>Node1&#45;&gt;Node4</title>
<g id="a_edge3_Node000001_Node000004"><a xlink:title=" ">
<path fill="none" stroke="#63b8ff" d="M118.3,-47.62C140.36,-41.72 166.87,-34.63 189.85,-28.48"/>
<polygon fill="#63b8ff" stroke="#63b8ff" points="117.44,-44.22 108.68,-50.19 119.25,-50.99 117.44,-44.22"/>
</a>
</g>
</g>
</g>
</svg>
