<?xml version="1.0" encoding="UTF-8" standalone="no"?>
<!DOCTYPE svg PUBLIC "-//W3C//DTD SVG 1.1//EN"
 "http://www.w3.org/Graphics/SVG/1.1/DTD/svg11.dtd">
<!-- Generated by graphviz version 7.1.0 (0)
 -->
<!-- Title: std::binary_function&lt; _Arg1, _Arg2, _Result &gt; Pages: 1 -->
<svg width="312pt" height="256pt"
 viewBox="0.00 0.00 312.00 256.00" xmlns="http://www.w3.org/2000/svg" xmlns:xlink="http://www.w3.org/1999/xlink">
<g id="graph0" class="graph" transform="scale(1 1) rotate(0) translate(4 252)">
<title>std::binary_function&lt; _Arg1, _Arg2, _Result &gt;</title>
<!-- Node1 -->
<g id="Node000001" class="node">
<title>Node1</title>
<g id="a_Node000001"><a xlink:title=" ">
<polygon fill="#999999" stroke="#666666" points="134,-153 0,-153 0,-125 134,-125 134,-153"/>
<text text-anchor="start" x="8" y="-141.8" font-family="Helvetica,sans-Serif" font-size="9.00">std::binary_function</text>
<text text-anchor="middle" x="67" y="-131.8" font-family="Helvetica,sans-Serif" font-size="9.00">&lt; _Arg1, _Arg2, _Result &gt;</text>
</a>
</g>
</g>
<!-- Node2 -->
<g id="Node000002" class="node">
<title>Node2</title>
<g id="a_Node000002"><a xlink:href="a08093.html" target="_top" xlink:title=" ">
<polygon fill="white" stroke="#666666" points="295.5,-248 178.5,-248 178.5,-230 295.5,-230 295.5,-248"/>
<text text-anchor="middle" x="237" y="-236.8" font-family="Helvetica,sans-Serif" font-size="9.00">std::equal_to&lt; _Key &gt;</text>
</a>
</g>
</g>
<!-- Node1&#45;&gt;Node2 -->
<g id="edge1_Node000001_Node000002" class="edge">
<title>Node1&#45;&gt;Node2</title>
<g id="a_edge1_Node000001_Node000002"><a xlink:title=" ">
<path fill="none" stroke="#63b8ff" d="M90.02,-161.24C109.49,-179.72 139.46,-205.42 170,-221 176.67,-224.4 184.05,-227.22 191.39,-229.53"/>
<polygon fill="#63b8ff" stroke="#63b8ff" points="92.55,-158.82 82.94,-154.37 87.68,-163.85 92.55,-158.82"/>
</a>
</g>
</g>
<!-- Node3 -->
<g id="Node000003" class="node">
<title>Node3</title>
<g id="a_Node000003"><a xlink:href="a08093.html" target="_top" xlink:title=" ">
<polygon fill="white" stroke="#666666" points="299.5,-212 174.5,-212 174.5,-194 299.5,-194 299.5,-212"/>
<text text-anchor="middle" x="237" y="-200.8" font-family="Helvetica,sans-Serif" font-size="9.00">std::equal_to&lt; _Value &gt;</text>
</a>
</g>
</g>
<!-- Node1&#45;&gt;Node3 -->
<g id="edge2_Node000001_Node000003" class="edge">
<title>Node1&#45;&gt;Node3</title>
<g id="a_edge2_Node000001_Node000003"><a xlink:title=" ">
<path fill="none" stroke="#63b8ff" d="M106.77,-158.22C125.57,-167.09 148.66,-177.33 170,-185 178.72,-188.13 188.25,-191.03 197.29,-193.54"/>
<polygon fill="#63b8ff" stroke="#63b8ff" points="108.42,-155.13 97.88,-153.97 105.4,-161.44 108.42,-155.13"/>
</a>
</g>
</g>
<!-- Node4 -->
<g id="Node000004" class="node">
<title>Node4</title>
<g id="a_Node000004"><a xlink:href="a08105.html" target="_top" xlink:title=" ">
<polygon fill="white" stroke="#666666" points="304,-176 170,-176 170,-148 304,-148 304,-176"/>
<text text-anchor="start" x="178" y="-164.8" font-family="Helvetica,sans-Serif" font-size="9.00">std::less&lt; typename</text>
<text text-anchor="middle" x="237" y="-154.8" font-family="Helvetica,sans-Serif" font-size="9.00"> _Sequence::value_type &gt;</text>
</a>
</g>
</g>
<!-- Node1&#45;&gt;Node4 -->
<g id="edge3_Node000001_Node000004" class="edge">
<title>Node1&#45;&gt;Node4</title>
<g id="a_edge3_Node000001_Node000004"><a xlink:title=" ">
<path fill="none" stroke="#63b8ff" d="M145.62,-149.63C153.61,-150.72 161.68,-151.82 169.53,-152.9"/>
<polygon fill="#63b8ff" stroke="#63b8ff" points="146.28,-146.18 135.9,-148.3 145.33,-153.12 146.28,-146.18"/>
</a>
</g>
</g>
<!-- Node5 -->
<g id="Node000005" class="node">
<title>Node5</title>
<g id="a_Node000005"><a xlink:href="a09941.html" target="_top" xlink:title="Similar to std::multiplies, but allows two different types.">
<polygon fill="white" stroke="#666666" points="303.5,-130 170.5,-130 170.5,-102 303.5,-102 303.5,-130"/>
<text text-anchor="start" x="178.5" y="-118.8" font-family="Helvetica,sans-Serif" font-size="9.00">__gnu_parallel::_Multiplies</text>
<text text-anchor="middle" x="237" y="-108.8" font-family="Helvetica,sans-Serif" font-size="9.00">&lt; _Tp1, _Tp2, _Result &gt;</text>
</a>
</g>
</g>
<!-- Node1&#45;&gt;Node5 -->
<g id="edge4_Node000001_Node000005" class="edge">
<title>Node1&#45;&gt;Node5</title>
<g id="a_edge4_Node000001_Node000005"><a xlink:title=" ">
<path fill="none" stroke="#63b8ff" d="M145.8,-128.35C153.92,-127.24 162.11,-126.12 170.08,-125.02"/>
<polygon fill="#63b8ff" stroke="#63b8ff" points="145.33,-124.88 135.9,-129.7 146.28,-131.82 145.33,-124.88"/>
</a>
</g>
</g>
<!-- Node6 -->
<g id="Node000006" class="node">
<title>Node6</title>
<g id="a_Node000006"><a xlink:href="a09933.html" target="_top" xlink:title="Similar to std::plus, but allows two different types.">
<polygon fill="white" stroke="#666666" points="299.5,-84 174.5,-84 174.5,-56 299.5,-56 299.5,-84"/>
<text text-anchor="start" x="182.5" y="-72.8" font-family="Helvetica,sans-Serif" font-size="9.00">__gnu_parallel::_Plus</text>
<text text-anchor="middle" x="237" y="-62.8" font-family="Helvetica,sans-Serif" font-size="9.00">&lt; _Tp1, _Tp2, _Result &gt;</text>
</a>
</g>
</g>
<!-- Node1&#45;&gt;Node6 -->
<g id="edge5_Node000001_Node000006" class="edge">
<title>Node1&#45;&gt;Node6</title>
<g id="a_edge5_Node000001_Node000006"><a xlink:title=" ">
<path fill="none" stroke="#63b8ff" d="M108.24,-119.86C126.87,-111.26 149.39,-101.22 170,-93 177.33,-90.08 185.19,-87.16 192.84,-84.43"/>
<polygon fill="#63b8ff" stroke="#63b8ff" points="107.01,-116.57 99.42,-123.97 109.96,-122.92 107.01,-116.57"/>
</a>
</g>
</g>
<!-- Node7 -->
<g id="Node000007" class="node">
<title>Node7</title>
<g id="a_Node000007"><a xlink:href="a08289.html" target="_top" xlink:title="One of the adaptors for function pointers.">
<polygon fill="white" stroke="#666666" points="302.5,-38 171.5,-38 171.5,0 302.5,0 302.5,-38"/>
<text text-anchor="start" x="179.5" y="-26.8" font-family="Helvetica,sans-Serif" font-size="9.00">std::pointer_to_binary</text>
<text text-anchor="start" x="179.5" y="-16.8" font-family="Helvetica,sans-Serif" font-size="9.00">_function&lt; _Arg1, _Arg2,</text>
<text text-anchor="middle" x="237" y="-6.8" font-family="Helvetica,sans-Serif" font-size="9.00"> _Result &gt;</text>
</a>
</g>
</g>
<!-- Node1&#45;&gt;Node7 -->
<g id="edge6_Node000001_Node000007" class="edge">
<title>Node1&#45;&gt;Node7</title>
<g id="a_edge6_Node000001_Node000007"><a xlink:title=" ">
<path fill="none" stroke="#63b8ff" d="M88.86,-116.3C108.34,-96.09 139,-66.77 170,-47 174.83,-43.92 180.05,-41.05 185.37,-38.4"/>
<polygon fill="#63b8ff" stroke="#63b8ff" points="86.36,-113.84 82.02,-123.51 91.44,-118.66 86.36,-113.84"/>
</a>
</g>
</g>
</g>
</svg>
