<?xml version="1.0" encoding="UTF-8" standalone="no"?>
<!DOCTYPE svg PUBLIC "-//W3C//DTD SVG 1.1//EN"
 "http://www.w3.org/Graphics/SVG/1.1/DTD/svg11.dtd">
<!-- Generated by graphviz version 7.1.0 (0)
 -->
<!-- Title: std::_Vector_base&lt; _Tp, _Alloc &gt; Pages: 1 -->
<!--zoomable 1060 -->

<svg id="main" version="1.1" xmlns="http://www.w3.org/2000/svg" xmlns:xlink="http://www.w3.org/1999/xlink" xml:space="preserve" onload="init(evt)">
<style type="text/css"><![CDATA[
.node, .edge {opacity: 0.7;}
.node.selected, .edge.selected {opacity: 1;}
.edge:hover path { stroke: red; }
.edge:hover polygon { stroke: red; fill: red; }
]]></style>

<defs>
  <circle id="rim" cx="0" cy="0" r="7"/>
  <circle id="rim2" cx="0" cy="0" r="3.5"/>
  <g id="zoomPlus">
    <use xlink:href="#rim" fill="#404040"><set attributeName="fill" to="#808080" begin="zoomplus.mouseover" end="zoomplus.mouseout"/></use>
    <path d="M-4,0h8M0,-4v8" fill="none" stroke="white" stroke-width="1.5" pointer-events="none"/>
  </g>
  <g id="zoomMin">
    <use xlink:href="#rim" fill="#404040"><set attributeName="fill" to="#808080" begin="zoomminus.mouseover" end="zoomminus.mouseout"/></use>
    <path d="M-4,0h8" fill="none" stroke="white" stroke-width="1.5" pointer-events="none"/>
  </g>
  <g id="dirArrow">
    <path fill="none" stroke="white" stroke-width="1.5" d="M0,-3.0v7 M-2.5,-0.5L0,-3.0L2.5,-0.5"/>
  </g>
 <g id="resetDef">
    <use xlink:href="#rim2" fill="#404040"><set attributeName="fill" to="#808080" begin="reset.mouseover" end="reset.mouseout"/></use>
 </g>
</defs>
<script type="text/javascript">
var viewWidth = 448;
var viewHeight = 1060;
var sectionId = 'dynsection-0';
</script>
<script xlink:href="svg.min.js"/>
<svg id="graph" class="graph">
<g id="viewport">
<title>std::_Vector_base&lt; _Tp, _Alloc &gt;</title>
<!-- Node1 -->
<g id="Node000001" class="node">
<title>Node1</title>
<g id="a_Node000001"><a xlink:title="See bits/stl_deque.h&#39;s _Deque_base for an explanation.">
<polygon fill="#999999" stroke="#666666" points="104,-505 0,-505 0,-477 104,-477 104,-505"/>
<text text-anchor="start" x="8" y="-493.8" font-family="Helvetica,sans-Serif" font-size="9.00">std::_Vector_base&lt;</text>
<text text-anchor="middle" x="52" y="-483.8" font-family="Helvetica,sans-Serif" font-size="9.00"> _Tp, _Alloc &gt;</text>
</a>
</g>
</g>
<!-- Node2 -->
<g id="Node000002" class="node">
<title>Node2</title>
<g id="a_Node000002"><a xlink:href="a08705.html" target="_top" xlink:title=" ">
<polygon fill="white" stroke="#666666" points="287,-1052 156,-1052 156,-1024 287,-1024 287,-1052"/>
<text text-anchor="start" x="164" y="-1040.8" font-family="Helvetica,sans-Serif" font-size="9.00">std::vector&lt; _State</text>
<text text-anchor="middle" x="221.5" y="-1030.8" font-family="Helvetica,sans-Serif" font-size="9.00">&lt; _TraitsT::char_type &gt; &gt;</text>
</a>
</g>
</g>
<!-- Node1&#45;&gt;Node2 -->
<g id="edge1_Node000001_Node000002" class="edge">
<title>Node1&#45;&gt;Node2</title>
<g id="a_edge1_Node000001_Node000002"><a xlink:title=" ">
<path fill="none" stroke="darkgreen" d="M53.73,-516.36C56.94,-610.7 72.87,-939.76 140,-1015 144.45,-1019.99 149.9,-1023.93 155.85,-1027.03"/>
<polygon fill="darkgreen" stroke="darkgreen" points="57.23,-516.52 53.42,-506.63 50.24,-516.74 57.23,-516.52"/>
</a>
</g>
</g>
<!-- Node3 -->
<g id="Node000003" class="node">
<title>Node3</title>
<g id="a_Node000003"><a xlink:href="a08705.html" target="_top" xlink:title=" ">
<polygon fill="white" stroke="#666666" points="297.5,-1006 145.5,-1006 145.5,-968 297.5,-968 297.5,-1006"/>
<text text-anchor="start" x="153.5" y="-994.8" font-family="Helvetica,sans-Serif" font-size="9.00">std::vector&lt; sub_match</text>
<text text-anchor="start" x="153.5" y="-984.8" font-family="Helvetica,sans-Serif" font-size="9.00">&lt; _Bi_iter &gt;, allocator</text>
<text text-anchor="middle" x="221.5" y="-974.8" font-family="Helvetica,sans-Serif" font-size="9.00">&lt; sub_match&lt; _Bi_iter &gt; &gt; &gt;</text>
</a>
</g>
</g>
<!-- Node1&#45;&gt;Node3 -->
<g id="edge2_Node000001_Node000003" class="edge">
<title>Node1&#45;&gt;Node3</title>
<g id="a_edge2_Node000001_Node000003"><a xlink:title=" ">
<path fill="none" stroke="darkgreen" d="M54.44,-516.62C59.86,-604.39 81.8,-891.28 140,-959 142.8,-962.25 145.99,-965.13 149.46,-967.67"/>
<polygon fill="darkgreen" stroke="darkgreen" points="57.95,-516.67 53.86,-506.89 50.96,-517.09 57.95,-516.67"/>
</a>
</g>
</g>
<!-- Node4 -->
<g id="Node000004" class="node">
<title>Node4</title>
<g id="a_Node000004"><a xlink:href="a08705.html" target="_top" xlink:title=" ">
<polygon fill="white" stroke="#666666" points="282,-950 161,-950 161,-922 282,-922 282,-950"/>
<text text-anchor="start" x="169" y="-938.8" font-family="Helvetica,sans-Serif" font-size="9.00">std::vector&lt; block</text>
<text text-anchor="middle" x="221.5" y="-928.8" font-family="Helvetica,sans-Serif" font-size="9.00">_type, allocator_type &gt;</text>
</a>
</g>
</g>
<!-- Node1&#45;&gt;Node4 -->
<g id="edge3_Node000001_Node000004" class="edge">
<title>Node1&#45;&gt;Node4</title>
<g id="a_edge3_Node000001_Node000004"><a xlink:title=" ">
<path fill="none" stroke="darkgreen" d="M54.86,-516.6C61.34,-598.82 85.56,-854.32 140,-913 145.73,-919.18 153,-923.74 160.81,-927.1"/>
<polygon fill="darkgreen" stroke="darkgreen" points="58.37,-516.56 54.12,-506.86 51.39,-517.1 58.37,-516.56"/>
</a>
</g>
</g>
<!-- Node5 -->
<g id="Node000005" class="node">
<title>Node5</title>
<g id="a_Node000005"><a xlink:href="a08705.html" target="_top" xlink:title=" ">
<polygon fill="white" stroke="#666666" points="275,-904 168,-904 168,-876 275,-876 275,-904"/>
<text text-anchor="start" x="176" y="-892.8" font-family="Helvetica,sans-Serif" font-size="9.00">std::vector&lt; _Node</text>
<text text-anchor="middle" x="221.5" y="-882.8" font-family="Helvetica,sans-Serif" font-size="9.00"> *, _Nodeptr_Alloc &gt;</text>
</a>
</g>
</g>
<!-- Node1&#45;&gt;Node5 -->
<g id="edge4_Node000001_Node000005" class="edge">
<title>Node1&#45;&gt;Node5</title>
<g id="a_edge4_Node000001_Node000005"><a xlink:title=" ">
<path fill="none" stroke="darkgreen" d="M55.58,-516.76C63.72,-593.05 91.25,-815.7 140,-867 147.41,-874.8 157.26,-880.01 167.53,-883.48"/>
<polygon fill="darkgreen" stroke="darkgreen" points="59.07,-516.52 54.56,-506.94 52.11,-517.25 59.07,-516.52"/>
</a>
</g>
</g>
<!-- Node6 -->
<g id="Node000006" class="node">
<title>Node6</title>
<g id="a_Node000006"><a xlink:href="a08705.html" target="_top" xlink:title=" ">
<polygon fill="white" stroke="#666666" points="275.5,-858 167.5,-858 167.5,-820 275.5,-820 275.5,-858"/>
<text text-anchor="start" x="175.5" y="-846.8" font-family="Helvetica,sans-Serif" font-size="9.00">std::vector&lt; __gnu</text>
<text text-anchor="start" x="175.5" y="-836.8" font-family="Helvetica,sans-Serif" font-size="9.00">_parallel::_Piece&lt; </text>
<text text-anchor="middle" x="221.5" y="-826.8" font-family="Helvetica,sans-Serif" font-size="9.00">_DifferenceType &gt; &gt;</text>
</a>
</g>
</g>
<!-- Node1&#45;&gt;Node6 -->
<g id="edge5_Node000001_Node000006" class="edge">
<title>Node1&#45;&gt;Node6</title>
<g id="a_edge5_Node000001_Node000006"><a xlink:title=" ">
<path fill="none" stroke="darkgreen" d="M52.39,-516.66C52.39,-576.4 60.8,-726.11 140,-811 147.37,-818.9 157.08,-824.57 167.2,-828.64"/>
<polygon fill="darkgreen" stroke="darkgreen" points="55.89,-516.88 52.48,-506.85 48.89,-516.82 55.89,-516.88"/>
</a>
</g>
</g>
<!-- Node7 -->
<g id="Node000007" class="node">
<title>Node7</title>
<g id="a_Node000007"><a xlink:href="a08705.html" target="_top" xlink:title=" ">
<polygon fill="white" stroke="#666666" points="276.5,-802 166.5,-802 166.5,-774 276.5,-774 276.5,-802"/>
<text text-anchor="start" x="174.5" y="-790.8" font-family="Helvetica,sans-Serif" font-size="9.00">std::vector&lt; Catalog</text>
<text text-anchor="middle" x="221.5" y="-780.8" font-family="Helvetica,sans-Serif" font-size="9.00">_info * &gt;</text>
</a>
</g>
</g>
<!-- Node1&#45;&gt;Node7 -->
<g id="edge6_Node000001_Node000007" class="edge">
<title>Node1&#45;&gt;Node7</title>
<g id="a_edge6_Node000001_Node000007"><a xlink:title=" ">
<path fill="none" stroke="darkgreen" d="M53.47,-516.54C55.89,-570.39 69.25,-696.29 140,-765 147.3,-772.09 156.62,-777.02 166.32,-780.44"/>
<polygon fill="darkgreen" stroke="darkgreen" points="56.98,-516.71 53.14,-506.84 49.98,-516.95 56.98,-516.71"/>
</a>
</g>
</g>
<!-- Node8 -->
<g id="Node000008" class="node">
<title>Node8</title>
<g id="a_Node000008"><a xlink:href="a08705.html" target="_top" xlink:title=" ">
<polygon fill="white" stroke="#666666" points="280,-756 163,-756 163,-738 280,-738 280,-756"/>
<text text-anchor="middle" x="221.5" y="-744.8" font-family="Helvetica,sans-Serif" font-size="9.00">std::vector&lt; _CharT &gt;</text>
</a>
</g>
</g>
<!-- Node1&#45;&gt;Node8 -->
<g id="edge7_Node000001_Node000008" class="edge">
<title>Node1&#45;&gt;Node8</title>
<g id="a_edge7_Node000001_Node000008"><a xlink:title=" ">
<path fill="none" stroke="darkgreen" d="M54.6,-516.83C59.11,-565.96 76.11,-672.95 140,-729 146.46,-734.67 154.31,-738.67 162.55,-741.47"/>
<polygon fill="darkgreen" stroke="darkgreen" points="58.1,-516.59 53.81,-506.9 51.12,-517.15 58.1,-516.59"/>
</a>
</g>
</g>
<!-- Node9 -->
<g id="Node000009" class="node">
<title>Node9</title>
<g id="a_Node000009"><a xlink:href="a08705.html" target="_top" xlink:title=" ">
<polygon fill="white" stroke="#666666" points="283.5,-720 159.5,-720 159.5,-702 283.5,-702 283.5,-720"/>
<text text-anchor="middle" x="221.5" y="-708.8" font-family="Helvetica,sans-Serif" font-size="9.00">std::vector&lt; _StringT &gt;</text>
</a>
</g>
</g>
<!-- Node1&#45;&gt;Node9 -->
<g id="edge8_Node000001_Node000009" class="edge">
<title>Node1&#45;&gt;Node9</title>
<g id="a_edge8_Node000001_Node000009"><a xlink:title=" ">
<path fill="none" stroke="darkgreen" d="M56.47,-516.56C63.74,-559.82 84.76,-647.22 140,-693 145.62,-697.66 152.2,-701.18 159.13,-703.82"/>
<polygon fill="darkgreen" stroke="darkgreen" points="59.95,-516.2 54.96,-506.86 53.04,-517.28 59.95,-516.2"/>
</a>
</g>
</g>
<!-- Node10 -->
<g id="Node000010" class="node">
<title>Node10</title>
<g id="a_Node000010"><a xlink:href="a08705.html" target="_top" xlink:title=" ">
<polygon fill="white" stroke="#666666" points="295,-684 148,-684 148,-656 295,-656 295,-684"/>
<text text-anchor="start" x="156" y="-672.8" font-family="Helvetica,sans-Serif" font-size="9.00">std::vector&lt; std::pair</text>
<text text-anchor="middle" x="221.5" y="-662.8" font-family="Helvetica,sans-Serif" font-size="9.00">&lt; _StrTransT, _StrTransT &gt; &gt;</text>
</a>
</g>
</g>
<!-- Node1&#45;&gt;Node10 -->
<g id="edge9_Node000001_Node000010" class="edge">
<title>Node1&#45;&gt;Node10</title>
<g id="a_edge9_Node000001_Node000010"><a xlink:title=" ">
<path fill="none" stroke="darkgreen" d="M60.11,-515.61C71.36,-550.14 96.55,-612.56 140,-647 144.21,-650.34 148.89,-653.2 153.81,-655.64"/>
<polygon fill="darkgreen" stroke="darkgreen" points="63.59,-515.01 57.28,-506.5 56.9,-517.09 63.59,-515.01"/>
</a>
</g>
</g>
<!-- Node11 -->
<g id="Node000011" class="node">
<title>Node11</title>
<g id="a_Node000011"><a xlink:href="a08705.html" target="_top" xlink:title=" ">
<polygon fill="white" stroke="#666666" points="291.5,-638 151.5,-638 151.5,-620 291.5,-620 291.5,-638"/>
<text text-anchor="middle" x="221.5" y="-626.8" font-family="Helvetica,sans-Serif" font-size="9.00">std::vector&lt; _CharClassT &gt;</text>
</a>
</g>
</g>
<!-- Node1&#45;&gt;Node11 -->
<g id="edge10_Node000001_Node000011" class="edge">
<title>Node1&#45;&gt;Node11</title>
<g id="a_edge10_Node000001_Node000011"><a xlink:title=" ">
<path fill="none" stroke="darkgreen" d="M64.03,-515.5C77.78,-543.13 103.94,-587.28 140,-611 145.26,-614.46 151.1,-617.27 157.15,-619.54"/>
<polygon fill="darkgreen" stroke="darkgreen" points="67.35,-514.33 59.87,-506.82 61.04,-517.35 67.35,-514.33"/>
</a>
</g>
</g>
<!-- Node12 -->
<g id="Node000012" class="node">
<title>Node12</title>
<g id="a_Node000012"><a xlink:href="a08705.html" target="_top" xlink:title=" ">
<polygon fill="white" stroke="#666666" points="284.5,-602 158.5,-602 158.5,-574 284.5,-574 284.5,-602"/>
<text text-anchor="start" x="166.5" y="-590.8" font-family="Helvetica,sans-Serif" font-size="9.00">std::vector&lt; sub_match</text>
<text text-anchor="middle" x="221.5" y="-580.8" font-family="Helvetica,sans-Serif" font-size="9.00">&lt; _BiIter &gt;, _Alloc &gt;</text>
</a>
</g>
</g>
<!-- Node1&#45;&gt;Node12 -->
<g id="edge11_Node000001_Node000012" class="edge">
<title>Node1&#45;&gt;Node12</title>
<g id="a_edge11_Node000001_Node000012"><a xlink:title=" ">
<path fill="none" stroke="darkgreen" d="M73.96,-513.39C90.48,-529.82 114.84,-551.53 140,-565 146.15,-568.29 152.82,-571.16 159.61,-573.64"/>
<polygon fill="darkgreen" stroke="darkgreen" points="76.64,-511.12 67.14,-506.43 71.64,-516.02 76.64,-511.12"/>
</a>
</g>
</g>
<!-- Node13 -->
<g id="Node000013" class="node">
<title>Node13</title>
<g id="a_Node000013"><a xlink:href="a08705.html" target="_top" xlink:title=" ">
<polygon fill="white" stroke="#666666" points="278,-556 165,-556 165,-528 278,-528 278,-556"/>
<text text-anchor="start" x="173" y="-544.8" font-family="Helvetica,sans-Serif" font-size="9.00">std::vector&lt; std::pair</text>
<text text-anchor="middle" x="221.5" y="-534.8" font-family="Helvetica,sans-Serif" font-size="9.00">&lt; _BiIter, int &gt; &gt;</text>
</a>
</g>
</g>
<!-- Node1&#45;&gt;Node13 -->
<g id="edge12_Node000001_Node000013" class="edge">
<title>Node1&#45;&gt;Node13</title>
<g id="a_edge12_Node000001_Node000013"><a xlink:title=" ">
<path fill="none" stroke="darkgreen" d="M107.67,-508.9C118.37,-512.32 129.52,-515.82 140,-519 149.32,-521.83 159.27,-524.75 168.89,-527.53"/>
<polygon fill="darkgreen" stroke="darkgreen" points="108.76,-505.57 98.17,-505.85 106.62,-512.24 108.76,-505.57"/>
</a>
</g>
</g>
<!-- Node14 -->
<g id="Node000014" class="node">
<title>Node14</title>
<g id="a_Node000014"><a xlink:href="a08705.html" target="_top" xlink:title=" ">
<polygon fill="white" stroke="#666666" points="303,-510 140,-510 140,-472 303,-472 303,-510"/>
<text text-anchor="start" x="148" y="-498.8" font-family="Helvetica,sans-Serif" font-size="9.00">std::vector&lt; std::pair</text>
<text text-anchor="start" x="148" y="-488.8" font-family="Helvetica,sans-Serif" font-size="9.00">&lt; _StateIdT, vector&lt; sub</text>
<text text-anchor="middle" x="221.5" y="-478.8" font-family="Helvetica,sans-Serif" font-size="9.00">_match&lt; _BiIter &gt;, _Alloc &gt; &gt; &gt;</text>
</a>
</g>
</g>
<!-- Node1&#45;&gt;Node14 -->
<g id="edge13_Node000001_Node000014" class="edge">
<title>Node1&#45;&gt;Node14</title>
<g id="a_edge13_Node000001_Node000014"><a xlink:title=" ">
<path fill="none" stroke="darkgreen" d="M115.51,-491C123.41,-491 131.58,-491 139.71,-491"/>
<polygon fill="darkgreen" stroke="darkgreen" points="115.68,-487.5 105.68,-491 115.68,-494.5 115.68,-487.5"/>
</a>
</g>
</g>
<!-- Node15 -->
<g id="Node000015" class="node">
<title>Node15</title>
<g id="a_Node000015"><a xlink:href="a08705.html" target="_top" xlink:title=" ">
<polygon fill="white" stroke="#666666" points="277,-454 166,-454 166,-436 277,-436 277,-454"/>
<text text-anchor="middle" x="221.5" y="-442.8" font-family="Helvetica,sans-Serif" font-size="9.00">std::vector&lt; size_t &gt;</text>
</a>
</g>
</g>
<!-- Node1&#45;&gt;Node15 -->
<g id="edge14_Node000001_Node000015" class="edge">
<title>Node1&#45;&gt;Node15</title>
<g id="a_edge14_Node000001_Node000015"><a xlink:title=" ">
<path fill="none" stroke="darkgreen" d="M106.14,-473.05C117.27,-469.53 128.98,-466 140,-463 151.19,-459.95 163.36,-457.03 174.77,-454.46"/>
<polygon fill="darkgreen" stroke="darkgreen" points="105.14,-469.69 96.69,-476.08 107.28,-476.36 105.14,-469.69"/>
</a>
</g>
</g>
<!-- Node16 -->
<g id="Node000016" class="node">
<title>Node16</title>
<g id="a_Node000016"><a xlink:href="a08705.html" target="_top" xlink:title=" ">
<polygon fill="white" stroke="#666666" points="271,-418 172,-418 172,-390 271,-390 271,-418"/>
<text text-anchor="start" x="180" y="-406.8" font-family="Helvetica,sans-Serif" font-size="9.00">std::vector&lt; __diff</text>
<text text-anchor="middle" x="221.5" y="-396.8" font-family="Helvetica,sans-Serif" font-size="9.00">_type &gt;</text>
</a>
</g>
</g>
<!-- Node1&#45;&gt;Node16 -->
<g id="edge15_Node000001_Node000016" class="edge">
<title>Node1&#45;&gt;Node16</title>
<g id="a_edge15_Node000001_Node000016"><a xlink:title=" ">
<path fill="none" stroke="darkgreen" d="M77.39,-469.35C94.04,-455.56 117.13,-438.22 140,-427 149.92,-422.13 161.04,-418.13 171.78,-414.9"/>
<polygon fill="darkgreen" stroke="darkgreen" points="75.37,-466.48 70.01,-475.62 79.9,-471.82 75.37,-466.48"/>
</a>
</g>
</g>
<!-- Node17 -->
<g id="Node000017" class="node">
<title>Node17</title>
<g id="a_Node000017"><a xlink:href="a08705.html" target="_top" xlink:title=" ">
<polygon fill="white" stroke="#666666" points="287.5,-372 155.5,-372 155.5,-354 287.5,-354 287.5,-372"/>
<text text-anchor="middle" x="221.5" y="-360.8" font-family="Helvetica,sans-Serif" font-size="9.00">std::vector&lt; time_zone &gt;</text>
</a>
</g>
</g>
<!-- Node1&#45;&gt;Node17 -->
<g id="edge16_Node000001_Node000017" class="edge">
<title>Node1&#45;&gt;Node17</title>
<g id="a_edge16_Node000001_Node000017"><a xlink:title=" ">
<path fill="none" stroke="darkgreen" d="M65.63,-466.65C80.11,-441.23 106.26,-402.19 140,-381 145.58,-377.5 151.75,-374.67 158.12,-372.39"/>
<polygon fill="darkgreen" stroke="darkgreen" points="62.63,-464.84 60.88,-475.29 68.76,-468.21 62.63,-464.84"/>
</a>
</g>
</g>
<!-- Node18 -->
<g id="Node000018" class="node">
<title>Node18</title>
<g id="a_Node000018"><a xlink:href="a08705.html" target="_top" xlink:title=" ">
<polygon fill="white" stroke="#666666" points="282.5,-336 160.5,-336 160.5,-308 282.5,-308 282.5,-336"/>
<text text-anchor="start" x="168.5" y="-324.8" font-family="Helvetica,sans-Serif" font-size="9.00">std::vector&lt; time_zone</text>
<text text-anchor="middle" x="221.5" y="-314.8" font-family="Helvetica,sans-Serif" font-size="9.00">_link &gt;</text>
</a>
</g>
</g>
<!-- Node1&#45;&gt;Node18 -->
<g id="edge17_Node000001_Node000018" class="edge">
<title>Node1&#45;&gt;Node18</title>
<g id="a_edge17_Node000001_Node000018"><a xlink:title=" ">
<path fill="none" stroke="darkgreen" d="M61.26,-466.04C73.35,-433.37 99,-376.55 140,-345 145.99,-340.39 152.87,-336.71 160.03,-333.76"/>
<polygon fill="darkgreen" stroke="darkgreen" points="58.1,-464.49 58.05,-475.08 64.69,-466.83 58.1,-464.49"/>
</a>
</g>
</g>
<!-- Node19 -->
<g id="Node000019" class="node">
<title>Node19</title>
<g id="a_Node000019"><a xlink:href="a08705.html" target="_top" xlink:title=" ">
<polygon fill="white" stroke="#666666" points="292.5,-290 150.5,-290 150.5,-272 292.5,-272 292.5,-290"/>
<text text-anchor="middle" x="221.5" y="-278.8" font-family="Helvetica,sans-Serif" font-size="9.00">std::vector&lt; leap_second &gt;</text>
</a>
</g>
</g>
<!-- Node1&#45;&gt;Node19 -->
<g id="edge18_Node000001_Node000019" class="edge">
<title>Node1&#45;&gt;Node19</title>
<g id="a_edge18_Node000001_Node000019"><a xlink:title=" ">
<path fill="none" stroke="darkgreen" d="M57.15,-465.23C65.26,-423.6 87.26,-341.88 140,-299 144.22,-295.57 148.96,-292.76 153.98,-290.46"/>
<polygon fill="darkgreen" stroke="darkgreen" points="53.71,-464.59 55.37,-475.06 60.59,-465.84 53.71,-464.59"/>
</a>
</g>
</g>
<!-- Node20 -->
<g id="Node000020" class="node">
<title>Node20</title>
<g id="a_Node000020"><a xlink:href="a08705.html" target="_top" xlink:title=" ">
<polygon fill="white" stroke="#666666" points="280,-254 163,-254 163,-236 280,-236 280,-254"/>
<text text-anchor="middle" x="221.5" y="-242.8" font-family="Helvetica,sans-Serif" font-size="9.00">std::vector&lt; double &gt;</text>
</a>
</g>
</g>
<!-- Node1&#45;&gt;Node20 -->
<g id="edge19_Node000001_Node000020" class="edge">
<title>Node1&#45;&gt;Node20</title>
<g id="a_edge19_Node000001_Node000020"><a xlink:title=" ">
<path fill="none" stroke="darkgreen" d="M55.07,-465.25C60.33,-417.71 78.52,-316.18 140,-263 146.5,-257.38 154.37,-253.4 162.62,-250.61"/>
<polygon fill="darkgreen" stroke="darkgreen" points="51.59,-464.82 54.1,-475.12 58.56,-465.51 51.59,-464.82"/>
</a>
</g>
</g>
<!-- Node21 -->
<g id="Node000021" class="node">
<title>Node21</title>
<g id="a_Node000021"><a xlink:href="a08705.html" target="_top" xlink:title=" ">
<polygon fill="white" stroke="#666666" points="279.5,-218 163.5,-218 163.5,-200 279.5,-200 279.5,-218"/>
<text text-anchor="middle" x="221.5" y="-206.8" font-family="Helvetica,sans-Serif" font-size="9.00">std::vector&lt; _Cmpt &gt;</text>
</a>
</g>
</g>
<!-- Node1&#45;&gt;Node21 -->
<g id="edge20_Node000001_Node000021" class="edge">
<title>Node1&#45;&gt;Node21</title>
<g id="a_edge20_Node000001_Node000021"><a xlink:title=" ">
<path fill="none" stroke="darkgreen" d="M53.52,-465.35C56.05,-412.42 69.65,-290.75 140,-227 146.58,-221.04 154.69,-216.91 163.21,-214.07"/>
<polygon fill="darkgreen" stroke="darkgreen" points="50.03,-465.05 53.16,-475.17 57.02,-465.31 50.03,-465.05"/>
</a>
</g>
</g>
<!-- Node22 -->
<g id="Node000022" class="node">
<title>Node22</title>
<g id="a_Node000022"><a xlink:href="a08705.html" target="_top" xlink:title=" ">
<polygon fill="white" stroke="#666666" points="286.5,-182 156.5,-182 156.5,-164 286.5,-164 286.5,-182"/>
<text text-anchor="middle" x="221.5" y="-170.8" font-family="Helvetica,sans-Serif" font-size="9.00">std::vector&lt; _RealType &gt;</text>
</a>
</g>
</g>
<!-- Node1&#45;&gt;Node22 -->
<g id="edge21_Node000001_Node000022" class="edge">
<title>Node1&#45;&gt;Node22</title>
<g id="a_edge21_Node000001_Node000022"><a xlink:title=" ">
<path fill="none" stroke="darkgreen" d="M52.32,-465.14C52.29,-407.03 60.84,-265.38 140,-191 144.7,-186.59 150.23,-183.17 156.16,-180.53"/>
<polygon fill="darkgreen" stroke="darkgreen" points="48.82,-465.05 52.43,-475.01 55.82,-464.97 48.82,-465.05"/>
</a>
</g>
</g>
<!-- Node23 -->
<g id="Node000023" class="node">
<title>Node23</title>
<g id="a_Node000023"><a xlink:href="a08705.html" target="_top" xlink:title=" ">
<polygon fill="white" stroke="#666666" points="286,-146 157,-146 157,-128 286,-128 286,-146"/>
<text text-anchor="middle" x="221.5" y="-134.8" font-family="Helvetica,sans-Serif" font-size="9.00">std::vector&lt; _BigBlock &gt;</text>
</a>
</g>
</g>
<!-- Node1&#45;&gt;Node23 -->
<g id="edge22_Node000001_Node000023" class="edge">
<title>Node1&#45;&gt;Node23</title>
<g id="a_edge22_Node000001_Node000023"><a xlink:title=" ">
<path fill="none" stroke="darkgreen" d="M56.15,-465.56C65.41,-394.94 94.75,-198.77 140,-155 144.84,-150.32 150.61,-146.75 156.82,-144.05"/>
<polygon fill="darkgreen" stroke="darkgreen" points="52.69,-465 54.89,-475.36 59.64,-465.89 52.69,-465"/>
</a>
</g>
</g>
<!-- Node24 -->
<g id="Node000024" class="node">
<title>Node24</title>
<g id="a_Node000024"><a xlink:href="a08705.html" target="_top" xlink:title=" ">
<polygon fill="white" stroke="#666666" points="270.5,-110 172.5,-110 172.5,-92 270.5,-92 270.5,-110"/>
<text text-anchor="middle" x="221.5" y="-98.8" font-family="Helvetica,sans-Serif" font-size="9.00">std::vector&lt; int &gt;</text>
</a>
</g>
</g>
<!-- Node1&#45;&gt;Node24 -->
<g id="edge23_Node000001_Node000024" class="edge">
<title>Node1&#45;&gt;Node24</title>
<g id="a_edge23_Node000001_Node000024"><a xlink:title=" ">
<path fill="none" stroke="darkgreen" d="M55.48,-465.38C63.36,-389.53 90.22,-168.29 140,-119 148.65,-110.43 160.43,-105.57 172.31,-102.9"/>
<polygon fill="darkgreen" stroke="darkgreen" points="52.02,-464.84 54.5,-475.14 58.99,-465.54 52.02,-464.84"/>
</a>
</g>
</g>
<!-- Node25 -->
<g id="Node000025" class="node">
<title>Node25</title>
<g id="a_Node000025"><a xlink:href="a08705.html" target="_top" xlink:title=" ">
<polygon fill="white" stroke="#666666" points="272,-74 171,-74 171,-46 272,-46 272,-74"/>
<text text-anchor="start" x="179" y="-62.8" font-family="Helvetica,sans-Serif" font-size="9.00">std::vector&lt; result</text>
<text text-anchor="middle" x="221.5" y="-52.8" font-family="Helvetica,sans-Serif" font-size="9.00">_type &gt;</text>
</a>
</g>
</g>
<!-- Node1&#45;&gt;Node25 -->
<g id="edge24_Node000001_Node000025" class="edge">
<title>Node1&#45;&gt;Node25</title>
<g id="a_edge24_Node000001_Node000025"><a xlink:title=" ">
<path fill="none" stroke="darkgreen" d="M55.07,-465.22C62.06,-384.61 87.33,-139.4 140,-83 148.14,-74.29 159.32,-68.8 170.76,-65.36"/>
<polygon fill="darkgreen" stroke="darkgreen" points="51.59,-464.92 54.23,-475.18 58.56,-465.51 51.59,-464.92"/>
</a>
</g>
</g>
<!-- Node26 -->
<g id="Node000026" class="node">
<title>Node26</title>
<g id="a_Node000026"><a xlink:href="a08705.html" target="_top" xlink:title="A standard container which offers fixed time access to individual elements in any order.">
<polygon fill="white" stroke="#666666" points="270.5,-28 172.5,-28 172.5,0 270.5,0 270.5,-28"/>
<text text-anchor="start" x="180.5" y="-16.8" font-family="Helvetica,sans-Serif" font-size="9.00">std::vector&lt; _Tp, </text>
<text text-anchor="middle" x="221.5" y="-6.8" font-family="Helvetica,sans-Serif" font-size="9.00">_Alloc &gt;</text>
</a>
</g>
</g>
<!-- Node1&#45;&gt;Node26 -->
<g id="edge25_Node000001_Node000026" class="edge">
<title>Node1&#45;&gt;Node26</title>
<g id="a_edge25_Node000001_Node000026"><a xlink:title=" ">
<path fill="none" stroke="darkgreen" d="M54.47,-465.18C59.9,-378.66 81.66,-100.78 140,-37 148.44,-27.78 160.29,-22.15 172.31,-18.76"/>
<polygon fill="darkgreen" stroke="darkgreen" points="50.98,-464.81 53.87,-475 57.97,-465.23 50.98,-464.81"/>
</a>
</g>
</g>
<!-- Node27 -->
<g id="Node000027" class="node">
<title>Node27</title>
<g id="a_Node000027"><a xlink:href="a07337.html" target="_top" xlink:title="The results of a match or search operation.">
<polygon fill="white" stroke="#666666" points="440,-28 339,-28 339,0 440,0 440,-28"/>
<text text-anchor="start" x="347" y="-16.8" font-family="Helvetica,sans-Serif" font-size="9.00">std::match_results</text>
<text text-anchor="middle" x="389.5" y="-6.8" font-family="Helvetica,sans-Serif" font-size="9.00">&lt; _Bi_iter, _Alloc &gt;</text>
</a>
</g>
</g>
<!-- Node26&#45;&gt;Node27 -->
<g id="edge26_Node000026_Node000027" class="edge">
<title>Node26&#45;&gt;Node27</title>
<g id="a_edge26_Node000026_Node000027"><a xlink:title=" ">
<path fill="none" stroke="#8b1a1a" d="M282.47,-14C300.86,-14 320.89,-14 338.54,-14"/>
<polygon fill="#8b1a1a" stroke="#8b1a1a" points="282.47,-10.5 272.47,-14 282.47,-17.5 282.47,-10.5"/>
</a>
</g>
</g>
</g>
</svg>

<g id="navigator" transform="translate(0 0)" fill="#404254">
  <rect fill="#f2f5e9" fill-opacity="0.5" stroke="#606060" stroke-width=".5" x="0" y="0" width="60" height="60"/>
  <use id="zoomplus" xlink:href="#zoomPlus" x="17" y="9" onmousedown="handleZoom(evt,'in')"/>
  <use id="zoomminus" xlink:href="#zoomMin" x="42" y="9" onmousedown="handleZoom(evt,'out')"/>
  <use id="reset" xlink:href="#resetDef" x="30" y="36" onmousedown="handleReset()"/>
  <g id="arrowUp" xlink:href="#dirArrow" transform="translate(30 24)" onmousedown="handlePan(0,-1)">
    <use xlink:href="#rim" fill="#404040">
          <set attributeName="fill" to="#808080" begin="arrowUp.mouseover" end="arrowUp.mouseout"/>
    </use>
    <path fill="none" stroke="white" stroke-width="1.5" d="M0,-3.0v7 M-2.5,-0.5L0,-3.0L2.5,-0.5"/>
  </g>
  <g id="arrowRight" xlink:href="#dirArrow" transform="rotate(90) translate(36 -43)" onmousedown="handlePan(1,0)">
    <use xlink:href="#rim" fill="#404040">
          <set attributeName="fill" to="#808080" begin="arrowRight.mouseover" end="arrowRight.mouseout"/>
    </use>
    <path fill="none" stroke="white" stroke-width="1.5" d="M0,-3.0v7 M-2.5,-0.5L0,-3.0L2.5,-0.5"/>
  </g>
  <g id="arrowDown" xlink:href="#dirArrow" transform="rotate(180) translate(-30 -48)" onmousedown="handlePan(0,1)">
    <use xlink:href="#rim" fill="#404040">
          <set attributeName="fill" to="#808080" begin="arrowDown.mouseover" end="arrowDown.mouseout"/>
    </use>
    <path fill="none" stroke="white" stroke-width="1.5" d="M0,-3.0v7 M-2.5,-0.5L0,-3.0L2.5,-0.5"/>
  </g>
  <g id="arrowLeft" xlink:href="#dirArrow" transform="rotate(270) translate(-36 17)" onmousedown="handlePan(-1,0)">
    <use xlink:href="#rim" fill="#404040">
          <set attributeName="fill" to="#808080" begin="arrowLeft.mouseover" end="arrowLeft.mouseout"/>
    </use>
    <path fill="none" stroke="white" stroke-width="1.5" d="M0,-3.0v7 M-2.5,-0.5L0,-3.0L2.5,-0.5"/>
  </g>
</g>
<svg viewBox="0 0 15 15" width="100%" height="30px" preserveAspectRatio="xMaxYMin meet">
 <g id="arrow_out" transform="scale(0.3 0.3)">
  <a xlink:href="a08692_org.svg" target="_base">
   <rect id="button" ry="5" rx="5" y="6" x="6" height="38" width="38"
        fill="#f2f5e9" fill-opacity="0.5" stroke="#606060" stroke-width="1.0"/>
   <path id="arrow"
     d="M 11.500037,31.436501 C 11.940474,20.09759 22.043105,11.32322 32.158766,21.979434 L 37.068811,17.246167 C 37.068811,17.246167 37.088388,32 37.088388,32 L 22.160133,31.978069 C 22.160133,31.978069 26.997745,27.140456 26.997745,27.140456 C 18.528582,18.264221 13.291696,25.230495 11.500037,31.436501 z"
     style="fill:#404040;"/>
  </a>
 </g>
</svg>

<style type='text/css'>
<![CDATA[
[data-mouse-over-selected='false'] { opacity: 0.7; }
[data-mouse-over-selected='true']  { opacity: 1.0; }
]]>
</style>
<script><![CDATA[
document.addEventListener('DOMContentLoaded', (event) => {
  highlightEdges();
  highlightAdjacentNodes();
});
]]></script>
</svg>
