<?xml version="1.0" encoding="UTF-8" standalone="no"?>
<!DOCTYPE svg PUBLIC "-//W3C//DTD SVG 1.1//EN"
 "http://www.w3.org/Graphics/SVG/1.1/DTD/svg11.dtd">
<!-- Generated by graphviz version 7.1.0 (0)
 -->
<!-- Title: std::ctype_base Pages: 1 -->
<svg width="547pt" height="123pt"
 viewBox="0.00 0.00 547.00 123.00" xmlns="http://www.w3.org/2000/svg" xmlns:xlink="http://www.w3.org/1999/xlink">
<g id="graph0" class="graph" transform="scale(1 1) rotate(0) translate(4 119)">
<title>std::ctype_base</title>
<!-- Node1 -->
<g id="Node000001" class="node">
<title>Node1</title>
<g id="a_Node000001"><a xlink:title="Base class for ctype.">
<polygon fill="#999999" stroke="#666666" points="88,-64 0,-64 0,-46 88,-46 88,-64"/>
<text text-anchor="middle" x="44" y="-52.8" font-family="Helvetica,sans-Serif" font-size="9.00">std::ctype_base</text>
</a>
</g>
</g>
<!-- Node2 -->
<g id="Node000002" class="node">
<title>Node2</title>
<g id="a_Node000002"><a xlink:href="a06177.html" target="_top" xlink:title=" ">
<polygon fill="white" stroke="#666666" points="237,-115 124,-115 124,-87 237,-87 237,-115"/>
<text text-anchor="start" x="132" y="-103.8" font-family="Helvetica,sans-Serif" font-size="9.00">std::__ctype_abstract</text>
<text text-anchor="middle" x="180.5" y="-93.8" font-family="Helvetica,sans-Serif" font-size="9.00">_base&lt; wchar_t &gt;</text>
</a>
</g>
</g>
<!-- Node1&#45;&gt;Node2 -->
<g id="edge1_Node000001_Node000002" class="edge">
<title>Node1&#45;&gt;Node2</title>
<g id="a_edge1_Node000001_Node000002"><a xlink:title=" ">
<path fill="none" stroke="#63b8ff" d="M83.12,-68.04C99.97,-73.8 119.85,-80.6 137.16,-86.52"/>
<polygon fill="#63b8ff" stroke="#63b8ff" points="84.57,-64.83 73.97,-64.91 82.3,-71.46 84.57,-64.83"/>
</a>
</g>
</g>
<!-- Node4 -->
<g id="Node000004" class="node">
<title>Node4</title>
<g id="a_Node000004"><a xlink:href="a06177.html" target="_top" xlink:title="Common base for ctype facet.">
<polygon fill="white" stroke="#666666" points="237,-69 124,-69 124,-41 237,-41 237,-69"/>
<text text-anchor="start" x="132" y="-57.8" font-family="Helvetica,sans-Serif" font-size="9.00">std::__ctype_abstract</text>
<text text-anchor="middle" x="180.5" y="-47.8" font-family="Helvetica,sans-Serif" font-size="9.00">_base&lt; _CharT &gt;</text>
</a>
</g>
</g>
<!-- Node1&#45;&gt;Node4 -->
<g id="edge3_Node000001_Node000004" class="edge">
<title>Node1&#45;&gt;Node4</title>
<g id="a_edge3_Node000001_Node000004"><a xlink:title=" ">
<path fill="none" stroke="#63b8ff" d="M99.61,-55C107.49,-55 115.6,-55 123.5,-55"/>
<polygon fill="#63b8ff" stroke="#63b8ff" points="99.81,-51.5 89.81,-55 99.81,-58.5 99.81,-51.5"/>
</a>
</g>
</g>
<!-- Node7 -->
<g id="Node000007" class="node">
<title>Node7</title>
<g id="a_Node000007"><a xlink:href="a06185.html" target="_top" xlink:title="The ctype&lt;char&gt; specialization.">
<polygon fill="white" stroke="#666666" points="232.5,-23 128.5,-23 128.5,-5 232.5,-5 232.5,-23"/>
<text text-anchor="middle" x="180.5" y="-11.8" font-family="Helvetica,sans-Serif" font-size="9.00">std::ctype&lt; char &gt;</text>
</a>
</g>
</g>
<!-- Node1&#45;&gt;Node7 -->
<g id="edge6_Node000001_Node000007" class="edge">
<title>Node1&#45;&gt;Node7</title>
<g id="a_edge6_Node000001_Node000007"><a xlink:title=" ">
<path fill="none" stroke="#63b8ff" d="M86.59,-42.32C106.68,-36.2 130.36,-28.98 148.79,-23.36"/>
<polygon fill="#63b8ff" stroke="#63b8ff" points="85.85,-38.89 77.3,-45.15 87.89,-45.58 85.85,-38.89"/>
</a>
</g>
</g>
<!-- Node3 -->
<g id="Node000003" class="node">
<title>Node3</title>
<g id="a_Node000003"><a xlink:href="a06189.html" target="_top" xlink:title="The ctype&lt;wchar_t&gt; specialization.">
<polygon fill="white" stroke="#666666" points="392,-110 273,-110 273,-92 392,-92 392,-110"/>
<text text-anchor="middle" x="332.5" y="-98.8" font-family="Helvetica,sans-Serif" font-size="9.00">std::ctype&lt; wchar_t &gt;</text>
</a>
</g>
</g>
<!-- Node2&#45;&gt;Node3 -->
<g id="edge2_Node000002_Node000003" class="edge">
<title>Node2&#45;&gt;Node3</title>
<g id="a_edge2_Node000002_Node000003"><a xlink:title=" ">
<path fill="none" stroke="#63b8ff" d="M248.84,-101C256.76,-101 264.79,-101 272.59,-101"/>
<polygon fill="#63b8ff" stroke="#63b8ff" points="248.87,-97.5 238.87,-101 248.87,-104.5 248.87,-97.5"/>
</a>
</g>
</g>
<!-- Node5 -->
<g id="Node000005" class="node">
<title>Node5</title>
<g id="a_Node000005"><a xlink:href="a06181.html" target="_top" xlink:title="Primary class template ctype facet.">
<polygon fill="white" stroke="#666666" points="389.5,-64 275.5,-64 275.5,-46 389.5,-46 389.5,-64"/>
<text text-anchor="middle" x="332.5" y="-52.8" font-family="Helvetica,sans-Serif" font-size="9.00">std::ctype&lt; _CharT &gt;</text>
</a>
</g>
</g>
<!-- Node4&#45;&gt;Node5 -->
<g id="edge4_Node000004_Node000005" class="edge">
<title>Node4&#45;&gt;Node5</title>
<g id="a_edge4_Node000004_Node000005"><a xlink:title=" ">
<path fill="none" stroke="#63b8ff" d="M248.79,-55C257.58,-55 266.51,-55 275.1,-55"/>
<polygon fill="#63b8ff" stroke="#63b8ff" points="248.87,-51.5 238.87,-55 248.87,-58.5 248.87,-51.5"/>
</a>
</g>
</g>
<!-- Node6 -->
<g id="Node000006" class="node">
<title>Node6</title>
<g id="a_Node000006"><a xlink:href="a06193.html" target="_top" xlink:title="class ctype_byname [22.2.1.2].">
<polygon fill="white" stroke="#666666" points="539,-69 428,-69 428,-41 539,-41 539,-69"/>
<text text-anchor="start" x="436" y="-57.8" font-family="Helvetica,sans-Serif" font-size="9.00">std::ctype_byname&lt;</text>
<text text-anchor="middle" x="483.5" y="-47.8" font-family="Helvetica,sans-Serif" font-size="9.00"> _CharT &gt;</text>
</a>
</g>
</g>
<!-- Node5&#45;&gt;Node6 -->
<g id="edge5_Node000005_Node000006" class="edge">
<title>Node5&#45;&gt;Node6</title>
<g id="a_edge5_Node000005_Node000006"><a xlink:title=" ">
<path fill="none" stroke="#63b8ff" d="M401.29,-55C410.09,-55 419.01,-55 427.57,-55"/>
<polygon fill="#63b8ff" stroke="#63b8ff" points="401.34,-51.5 391.34,-55 401.34,-58.5 401.34,-51.5"/>
</a>
</g>
</g>
<!-- Node8 -->
<g id="Node000008" class="node">
<title>Node8</title>
<g id="a_Node000008"><a xlink:href="a06197.html" target="_top" xlink:title="22.2.1.4 Class ctype_byname specializations.">
<polygon fill="white" stroke="#666666" points="388,-28 277,-28 277,0 388,0 388,-28"/>
<text text-anchor="start" x="285" y="-16.8" font-family="Helvetica,sans-Serif" font-size="9.00">std::ctype_byname&lt;</text>
<text text-anchor="middle" x="332.5" y="-6.8" font-family="Helvetica,sans-Serif" font-size="9.00"> char &gt;</text>
</a>
</g>
</g>
<!-- Node7&#45;&gt;Node8 -->
<g id="edge7_Node000007_Node000008" class="edge">
<title>Node7&#45;&gt;Node8</title>
<g id="a_edge7_Node000007_Node000008"><a xlink:title=" ">
<path fill="none" stroke="#63b8ff" d="M243.88,-14C254.76,-14 266.02,-14 276.68,-14"/>
<polygon fill="#63b8ff" stroke="#63b8ff" points="244.22,-10.5 234.22,-14 244.22,-17.5 244.22,-10.5"/>
</a>
</g>
</g>
</g>
</svg>
