<?xml version="1.0" encoding="UTF-8" standalone="no"?>
<!DOCTYPE svg PUBLIC "-//W3C//DTD SVG 1.1//EN"
 "http://www.w3.org/Graphics/SVG/1.1/DTD/svg11.dtd">
<!-- Generated by graphviz version 7.1.0 (0)
 -->
<!-- Title: __gnu_debug::_Safe_iterator_base Pages: 1 -->
<svg width="469pt" height="229pt"
 viewBox="0.00 0.00 469.00 229.00" xmlns="http://www.w3.org/2000/svg" xmlns:xlink="http://www.w3.org/1999/xlink">
<g id="graph0" class="graph" transform="scale(1 1) rotate(0) translate(4 225)">
<title>__gnu_debug::_Safe_iterator_base</title>
<!-- Node1 -->
<g id="Node000001" class="node">
<title>Node1</title>
<g id="a_Node000001"><a xlink:title="Basic functionality for a safe iterator.">
<polygon fill="#999999" stroke="#666666" points="107,-114 0,-114 0,-86 107,-86 107,-114"/>
<text text-anchor="start" x="8" y="-102.8" font-family="Helvetica,sans-Serif" font-size="9.00">__gnu_debug::_Safe</text>
<text text-anchor="middle" x="53.5" y="-92.8" font-family="Helvetica,sans-Serif" font-size="9.00">_iterator_base</text>
</a>
</g>
</g>
<!-- Node2 -->
<g id="Node000002" class="node">
<title>Node2</title>
<g id="a_Node000002"><a xlink:href="a04937.html" target="_top" xlink:title=" ">
<polygon fill="white" stroke="#666666" points="283.5,-221 153.5,-221 153.5,-173 283.5,-173 283.5,-221"/>
<text text-anchor="start" x="161.5" y="-209.8" font-family="Helvetica,sans-Serif" font-size="9.00">__gnu_debug::_Safe</text>
<text text-anchor="start" x="161.5" y="-199.8" font-family="Helvetica,sans-Serif" font-size="9.00">_iterator&lt; _Iterator,</text>
<text text-anchor="start" x="161.5" y="-189.8" font-family="Helvetica,sans-Serif" font-size="9.00"> _Sequence, std::forward</text>
<text text-anchor="middle" x="218.5" y="-179.8" font-family="Helvetica,sans-Serif" font-size="9.00">_iterator_tag &gt;</text>
</a>
</g>
</g>
<!-- Node1&#45;&gt;Node2 -->
<g id="edge1_Node000001_Node000002" class="edge">
<title>Node1&#45;&gt;Node2</title>
<g id="a_edge1_Node000001_Node000002"><a xlink:title=" ">
<path fill="none" stroke="#63b8ff" d="M80.9,-121.33C97.99,-134.57 121.08,-151.41 143,-164 148.15,-166.96 153.62,-169.84 159.16,-172.58"/>
<polygon fill="#63b8ff" stroke="#63b8ff" points="83.28,-118.75 73.25,-115.33 78.95,-124.26 83.28,-118.75"/>
</a>
</g>
</g>
<!-- Node3 -->
<g id="Node000003" class="node">
<title>Node3</title>
<g id="a_Node000003"><a xlink:href="a04937.html" target="_top" xlink:title=" ">
<polygon fill="white" stroke="#666666" points="294,-155 143,-155 143,-107 294,-107 294,-155"/>
<text text-anchor="start" x="151" y="-143.8" font-family="Helvetica,sans-Serif" font-size="9.00">__gnu_debug::_Safe</text>
<text text-anchor="start" x="151" y="-133.8" font-family="Helvetica,sans-Serif" font-size="9.00">_iterator&lt; _Iterator,</text>
<text text-anchor="start" x="151" y="-123.8" font-family="Helvetica,sans-Serif" font-size="9.00"> _Sequence, std::bidirectional</text>
<text text-anchor="middle" x="218.5" y="-113.8" font-family="Helvetica,sans-Serif" font-size="9.00">_iterator_tag &gt;</text>
</a>
</g>
</g>
<!-- Node1&#45;&gt;Node3 -->
<g id="edge2_Node000001_Node000003" class="edge">
<title>Node1&#45;&gt;Node3</title>
<g id="a_edge2_Node000001_Node000003"><a xlink:title=" ">
<path fill="none" stroke="#63b8ff" d="M118.73,-112.21C126.58,-113.71 134.65,-115.24 142.64,-116.76"/>
<polygon fill="#63b8ff" stroke="#63b8ff" points="119.39,-108.78 108.91,-110.35 118.08,-115.65 119.39,-108.78"/>
</a>
</g>
</g>
<!-- Node4 -->
<g id="Node000004" class="node">
<title>Node4</title>
<g id="a_Node000004"><a xlink:href="a04937.html" target="_top" xlink:title="Safe iterator wrapper.">
<polygon fill="white" stroke="#666666" points="284,-89 153,-89 153,-51 284,-51 284,-89"/>
<text text-anchor="start" x="161" y="-77.8" font-family="Helvetica,sans-Serif" font-size="9.00">__gnu_debug::_Safe</text>
<text text-anchor="start" x="161" y="-67.8" font-family="Helvetica,sans-Serif" font-size="9.00">_iterator&lt; _Iterator,</text>
<text text-anchor="middle" x="218.5" y="-57.8" font-family="Helvetica,sans-Serif" font-size="9.00"> _Sequence, _Category &gt;</text>
</a>
</g>
</g>
<!-- Node1&#45;&gt;Node4 -->
<g id="edge3_Node000001_Node000004" class="edge">
<title>Node1&#45;&gt;Node4</title>
<g id="a_edge3_Node000001_Node000004"><a xlink:title=" ">
<path fill="none" stroke="#63b8ff" d="M118.45,-88.23C129.67,-86.17 141.35,-84.02 152.59,-81.95"/>
<polygon fill="#63b8ff" stroke="#63b8ff" points="118.11,-84.73 108.91,-89.99 119.38,-91.62 118.11,-84.73"/>
</a>
</g>
</g>
<!-- Node5 -->
<g id="Node000005" class="node">
<title>Node5</title>
<g id="a_Node000005"><a xlink:href="a09545.html" target="_top" xlink:title="Basic functionality for a safe iterator.">
<polygon fill="white" stroke="#666666" points="272,-33 165,-33 165,-5 272,-5 272,-33"/>
<text text-anchor="start" x="173" y="-21.8" font-family="Helvetica,sans-Serif" font-size="9.00">__gnu_debug::_Safe</text>
<text text-anchor="middle" x="218.5" y="-11.8" font-family="Helvetica,sans-Serif" font-size="9.00">_local_iterator_base</text>
</a>
</g>
</g>
<!-- Node1&#45;&gt;Node5 -->
<g id="edge4_Node000001_Node000005" class="edge">
<title>Node1&#45;&gt;Node5</title>
<g id="a_edge4_Node000001_Node000005"><a xlink:title=" ">
<path fill="none" stroke="#63b8ff" d="M82.18,-78.95C99.06,-66.87 121.46,-52.13 143,-42 149.86,-38.77 157.28,-35.86 164.69,-33.27"/>
<polygon fill="#63b8ff" stroke="#63b8ff" points="80.16,-76.09 74.15,-84.81 84.29,-81.74 80.16,-76.09"/>
</a>
</g>
</g>
<!-- Node6 -->
<g id="Node000006" class="node">
<title>Node6</title>
<g id="a_Node000006"><a xlink:href="a09393.html" target="_top" xlink:title="Safe iterator wrapper.">
<polygon fill="white" stroke="#666666" points="461,-38 330,-38 330,0 461,0 461,-38"/>
<text text-anchor="start" x="338" y="-26.8" font-family="Helvetica,sans-Serif" font-size="9.00">__gnu_debug::_Safe</text>
<text text-anchor="start" x="338" y="-16.8" font-family="Helvetica,sans-Serif" font-size="9.00">_local_iterator&lt; _Iterator,</text>
<text text-anchor="middle" x="395.5" y="-6.8" font-family="Helvetica,sans-Serif" font-size="9.00"> _Sequence &gt;</text>
</a>
</g>
</g>
<!-- Node5&#45;&gt;Node6 -->
<g id="edge5_Node000005_Node000006" class="edge">
<title>Node5&#45;&gt;Node6</title>
<g id="a_edge5_Node000005_Node000006"><a xlink:title=" ">
<path fill="none" stroke="#63b8ff" d="M283.71,-19C298.69,-19 314.64,-19 329.65,-19"/>
<polygon fill="#63b8ff" stroke="#63b8ff" points="283.99,-15.5 273.99,-19 283.99,-22.5 283.99,-15.5"/>
</a>
</g>
</g>
</g>
</svg>
