<?xml version="1.0" encoding="UTF-8" standalone="no"?>
<!DOCTYPE svg PUBLIC "-//W3C//DTD SVG 1.1//EN"
 "http://www.w3.org/Graphics/SVG/1.1/DTD/svg11.dtd">
<!-- Generated by graphviz version 7.1.0 (0)
 -->
<!-- Title: __gnu_debug::_Safe_unordered_container_base Pages: 1 -->
<svg width="149pt" height="174pt"
 viewBox="0.00 0.00 149.00 174.00" xmlns="http://www.w3.org/2000/svg" xmlns:xlink="http://www.w3.org/1999/xlink">
<g id="graph0" class="graph" transform="scale(1 1) rotate(0) translate(4 170)">
<title>__gnu_debug::_Safe_unordered_container_base</title>
<!-- Node1 -->
<g id="Node000001" class="node">
<title>Node1</title>
<g id="a_Node000001"><a xlink:title="Base class that supports tracking of local iterators that reference an unordered container.">
<polygon fill="#999999" stroke="#666666" points="141,-102 0,-102 0,-74 141,-74 141,-102"/>
<text text-anchor="start" x="8" y="-90.8" font-family="Helvetica,sans-Serif" font-size="9.00">__gnu_debug::_Safe</text>
<text text-anchor="middle" x="70.5" y="-80.8" font-family="Helvetica,sans-Serif" font-size="9.00">_unordered_container_base</text>
</a>
</g>
</g>
<!-- Node3 -->
<g id="Node000003" class="node">
<title>Node3</title>
<g id="a_Node000003"><a xlink:href="a09553.html" target="_top" xlink:title="Base class for constructing a safe unordered container type that tracks iterators that reference it.">
<polygon fill="white" stroke="#666666" points="128.5,-38 12.5,-38 12.5,0 128.5,0 128.5,-38"/>
<text text-anchor="start" x="20.5" y="-26.8" font-family="Helvetica,sans-Serif" font-size="9.00">__gnu_debug::_Safe</text>
<text text-anchor="start" x="20.5" y="-16.8" font-family="Helvetica,sans-Serif" font-size="9.00">_unordered_container</text>
<text text-anchor="middle" x="70.5" y="-6.8" font-family="Helvetica,sans-Serif" font-size="9.00">&lt; _Container &gt;</text>
</a>
</g>
</g>
<!-- Node1&#45;&gt;Node3 -->
<g id="edge2_Node000001_Node000003" class="edge">
<title>Node1&#45;&gt;Node3</title>
<g id="a_edge2_Node000001_Node000003"><a xlink:title=" ">
<path fill="none" stroke="#63b8ff" d="M70.5,-62.46C70.5,-54.46 70.5,-45.73 70.5,-38.28"/>
<polygon fill="#63b8ff" stroke="#63b8ff" points="67,-62.25 70.5,-72.25 74,-62.25 67,-62.25"/>
</a>
</g>
</g>
<!-- Node2 -->
<g id="Node000002" class="node">
<title>Node2</title>
<g id="a_Node000002"><a xlink:href="a09497.html" target="_top" xlink:title="Base class that supports tracking of iterators that reference a sequence.">
<polygon fill="white" stroke="#666666" points="124,-166 17,-166 17,-138 124,-138 124,-166"/>
<text text-anchor="start" x="25" y="-154.8" font-family="Helvetica,sans-Serif" font-size="9.00">__gnu_debug::_Safe</text>
<text text-anchor="middle" x="70.5" y="-144.8" font-family="Helvetica,sans-Serif" font-size="9.00">_sequence_base</text>
</a>
</g>
</g>
<!-- Node2&#45;&gt;Node1 -->
<g id="edge1_Node000001_Node000002" class="edge">
<title>Node2&#45;&gt;Node1</title>
<g id="a_edge1_Node000001_Node000002"><a xlink:title=" ">
<path fill="none" stroke="#63b8ff" d="M70.5,-126.03C70.5,-117.97 70.5,-109.33 70.5,-102.43"/>
<polygon fill="#63b8ff" stroke="#63b8ff" points="67,-126.03 70.5,-136.03 74,-126.03 67,-126.03"/>
</a>
</g>
</g>
</g>
</svg>
