<?xml version="1.0" encoding="UTF-8" standalone="no"?>
<!DOCTYPE svg PUBLIC "-//W3C//DTD SVG 1.1//EN"
 "http://www.w3.org/Graphics/SVG/1.1/DTD/svg11.dtd">
<!-- Generated by graphviz version 7.1.0 (0)
 -->
<!-- Title: __gnu_debug::_Safe_container&lt; _SafeContainer, _Alloc, _SafeBase, _IsCxx11AllocatorAware &gt; Pages: 1 -->
<!--zoomable 658 -->

<svg id="main" version="1.1" xmlns="http://www.w3.org/2000/svg" xmlns:xlink="http://www.w3.org/1999/xlink" xml:space="preserve" onload="init(evt)">
<style type="text/css"><![CDATA[
.node, .edge {opacity: 0.7;}
.node.selected, .edge.selected {opacity: 1;}
.edge:hover path { stroke: red; }
.edge:hover polygon { stroke: red; fill: red; }
]]></style>

<defs>
  <circle id="rim" cx="0" cy="0" r="7"/>
  <circle id="rim2" cx="0" cy="0" r="3.5"/>
  <g id="zoomPlus">
    <use xlink:href="#rim" fill="#404040"><set attributeName="fill" to="#808080" begin="zoomplus.mouseover" end="zoomplus.mouseout"/></use>
    <path d="M-4,0h8M0,-4v8" fill="none" stroke="white" stroke-width="1.5" pointer-events="none"/>
  </g>
  <g id="zoomMin">
    <use xlink:href="#rim" fill="#404040"><set attributeName="fill" to="#808080" begin="zoomminus.mouseover" end="zoomminus.mouseout"/></use>
    <path d="M-4,0h8" fill="none" stroke="white" stroke-width="1.5" pointer-events="none"/>
  </g>
  <g id="dirArrow">
    <path fill="none" stroke="white" stroke-width="1.5" d="M0,-3.0v7 M-2.5,-0.5L0,-3.0L2.5,-0.5"/>
  </g>
 <g id="resetDef">
    <use xlink:href="#rim2" fill="#404040"><set attributeName="fill" to="#808080" begin="reset.mouseover" end="reset.mouseout"/></use>
 </g>
</defs>
<script type="text/javascript">
var viewWidth = 385;
var viewHeight = 658;
var sectionId = 'dynsection-0';
</script>
<script xlink:href="svg.min.js"/>
<svg id="graph" class="graph">
<g id="viewport">
<title>__gnu_debug::_Safe_container&lt; _SafeContainer, _Alloc, _SafeBase, _IsCxx11AllocatorAware &gt;</title>
<!-- Node1 -->
<g id="Node000001" class="node">
<title>Node1</title>
<g id="a_Node000001"><a xlink:title="Safe class dealing with some allocator dependent operations.">
<polygon fill="#999999" stroke="#666666" points="182,-354 0,-354 0,-306 182,-306 182,-354"/>
<text text-anchor="start" x="8" y="-342.8" font-family="Helvetica,sans-Serif" font-size="9.00">__gnu_debug::_Safe</text>
<text text-anchor="start" x="8" y="-332.8" font-family="Helvetica,sans-Serif" font-size="9.00">_container&lt; _SafeContainer,</text>
<text text-anchor="start" x="8" y="-322.8" font-family="Helvetica,sans-Serif" font-size="9.00"> _Alloc, _SafeBase, _IsCxx11Allocator</text>
<text text-anchor="middle" x="91" y="-312.8" font-family="Helvetica,sans-Serif" font-size="9.00">Aware &gt;</text>
</a>
</g>
</g>
<!-- Node2 -->
<g id="Node000002" class="node">
<title>Node2</title>
<g id="a_Node000002"><a xlink:href="a09633.html" target="_top" xlink:title="Class std::basic_string with safety/checking/debug instrumentation.">
<polygon fill="white" stroke="#666666" points="360,-650 235,-650 235,-612 360,-612 360,-650"/>
<text text-anchor="start" x="243" y="-638.8" font-family="Helvetica,sans-Serif" font-size="9.00">__gnu_debug::basic</text>
<text text-anchor="start" x="243" y="-628.8" font-family="Helvetica,sans-Serif" font-size="9.00">_string&lt; _CharT, _Traits,</text>
<text text-anchor="middle" x="297.5" y="-618.8" font-family="Helvetica,sans-Serif" font-size="9.00"> _Allocator &gt;</text>
</a>
</g>
</g>
<!-- Node1&#45;&gt;Node2 -->
<g id="edge1_Node000001_Node000002" class="edge">
<title>Node1&#45;&gt;Node2</title>
<g id="a_edge1_Node000001_Node000002"><a xlink:title=" ">
<path fill="none" stroke="#63b8ff" d="M99,-365.22C112.23,-422.85 146.27,-537.43 218,-603 222.91,-607.49 228.59,-611.27 234.61,-614.45"/>
<polygon fill="#63b8ff" stroke="#63b8ff" points="102.45,-364.64 96.88,-355.63 95.62,-366.15 102.45,-364.64"/>
</a>
</g>
</g>
<!-- Node3 -->
<g id="Node000003" class="node">
<title>Node3</title>
<g id="a_Node000003"><a xlink:href="a09585.html" target="_top" xlink:title="Class std::deque with safety/checking/debug instrumentation.">
<polygon fill="white" stroke="#666666" points="352.5,-594 242.5,-594 242.5,-566 352.5,-566 352.5,-594"/>
<text text-anchor="start" x="250.5" y="-582.8" font-family="Helvetica,sans-Serif" font-size="9.00">std::__debug::deque</text>
<text text-anchor="middle" x="297.5" y="-572.8" font-family="Helvetica,sans-Serif" font-size="9.00">&lt; _Tp, _Allocator &gt;</text>
</a>
</g>
</g>
<!-- Node1&#45;&gt;Node3 -->
<g id="edge2_Node000001_Node000003" class="edge">
<title>Node1&#45;&gt;Node3</title>
<g id="a_edge2_Node000001_Node000003"><a xlink:title=" ">
<path fill="none" stroke="#63b8ff" d="M102.1,-365.15C118.28,-415.18 154.81,-506.47 218,-557 225.1,-562.68 233.55,-566.95 242.24,-570.17"/>
<polygon fill="#63b8ff" stroke="#63b8ff" points="105.46,-364.19 99.14,-355.69 98.78,-366.28 105.46,-364.19"/>
</a>
</g>
</g>
<!-- Node4 -->
<g id="Node000004" class="node">
<title>Node4</title>
<g id="a_Node000004"><a xlink:href="a09593.html" target="_top" xlink:title="Class std::forward_list with safety/checking/debug instrumentation.">
<polygon fill="white" stroke="#666666" points="355.5,-548 239.5,-548 239.5,-520 355.5,-520 355.5,-548"/>
<text text-anchor="start" x="247.5" y="-536.8" font-family="Helvetica,sans-Serif" font-size="9.00">std::__debug::forward</text>
<text text-anchor="middle" x="297.5" y="-526.8" font-family="Helvetica,sans-Serif" font-size="9.00">_list&lt; _Tp, _Alloc &gt;</text>
</a>
</g>
</g>
<!-- Node1&#45;&gt;Node4 -->
<g id="edge3_Node000001_Node000004" class="edge">
<title>Node1&#45;&gt;Node4</title>
<g id="a_edge3_Node000001_Node000004"><a xlink:title=" ">
<path fill="none" stroke="#63b8ff" d="M107.28,-364.81C127.02,-405.78 165.23,-473.02 218,-511 224.34,-515.56 231.58,-519.23 239.04,-522.17"/>
<polygon fill="#63b8ff" stroke="#63b8ff" points="110.5,-363.43 103.08,-355.87 104.16,-366.41 110.5,-363.43"/>
</a>
</g>
</g>
<!-- Node5 -->
<g id="Node000005" class="node">
<title>Node5</title>
<g id="a_Node000005"><a xlink:href="a09617.html" target="_top" xlink:title="Class std::list with safety/checking/debug instrumentation.">
<polygon fill="white" stroke="#666666" points="349,-502 246,-502 246,-474 349,-474 349,-502"/>
<text text-anchor="start" x="254" y="-490.8" font-family="Helvetica,sans-Serif" font-size="9.00">std::__debug::list</text>
<text text-anchor="middle" x="297.5" y="-480.8" font-family="Helvetica,sans-Serif" font-size="9.00">&lt; _Tp, _Allocator &gt;</text>
</a>
</g>
</g>
<!-- Node1&#45;&gt;Node5 -->
<g id="edge4_Node000001_Node000005" class="edge">
<title>Node1&#45;&gt;Node5</title>
<g id="a_edge4_Node000001_Node000005"><a xlink:title=" ">
<path fill="none" stroke="#63b8ff" d="M115.03,-363.5C137.79,-394.18 175.34,-438.7 218,-465 226.46,-470.22 236.17,-474.3 245.8,-477.48"/>
<polygon fill="#63b8ff" stroke="#63b8ff" points="118.05,-361.7 109.34,-355.68 112.39,-365.82 118.05,-361.7"/>
</a>
</g>
</g>
<!-- Node6 -->
<g id="Node000006" class="node">
<title>Node6</title>
<g id="a_Node000006"><a xlink:href="a09469.html" target="_top" xlink:title="Class std::map with safety/checking/debug instrumentation.">
<polygon fill="white" stroke="#666666" points="355.5,-456 239.5,-456 239.5,-418 355.5,-418 355.5,-456"/>
<text text-anchor="start" x="247.5" y="-444.8" font-family="Helvetica,sans-Serif" font-size="9.00">std::__debug::map&lt;</text>
<text text-anchor="start" x="247.5" y="-434.8" font-family="Helvetica,sans-Serif" font-size="9.00"> _Key, _Tp, _Compare,</text>
<text text-anchor="middle" x="297.5" y="-424.8" font-family="Helvetica,sans-Serif" font-size="9.00"> _Allocator &gt;</text>
</a>
</g>
</g>
<!-- Node1&#45;&gt;Node6 -->
<g id="edge5_Node000001_Node000006" class="edge">
<title>Node1&#45;&gt;Node6</title>
<g id="a_edge5_Node000001_Node000006"><a xlink:title=" ">
<path fill="none" stroke="#63b8ff" d="M135.78,-360.75C159.41,-376.49 189.51,-395.19 218,-409 224.77,-412.28 232.03,-415.39 239.3,-418.25"/>
<polygon fill="#63b8ff" stroke="#63b8ff" points="137.9,-357.96 127.65,-355.28 133.99,-363.77 137.9,-357.96"/>
</a>
</g>
</g>
<!-- Node7 -->
<g id="Node000007" class="node">
<title>Node7</title>
<g id="a_Node000007"><a xlink:href="a09477.html" target="_top" xlink:title="Class std::multimap with safety/checking/debug instrumentation.">
<polygon fill="white" stroke="#666666" points="360,-400 235,-400 235,-362 360,-362 360,-400"/>
<text text-anchor="start" x="243" y="-388.8" font-family="Helvetica,sans-Serif" font-size="9.00">std::__debug::multimap</text>
<text text-anchor="start" x="243" y="-378.8" font-family="Helvetica,sans-Serif" font-size="9.00">&lt; _Key, _Tp, _Compare,</text>
<text text-anchor="middle" x="297.5" y="-368.8" font-family="Helvetica,sans-Serif" font-size="9.00"> _Allocator &gt;</text>
</a>
</g>
</g>
<!-- Node1&#45;&gt;Node7 -->
<g id="edge6_Node000001_Node000007" class="edge">
<title>Node1&#45;&gt;Node7</title>
<g id="a_edge6_Node000001_Node000007"><a xlink:title=" ">
<path fill="none" stroke="#63b8ff" d="M193.09,-355.21C207.25,-358.74 221.43,-362.28 234.56,-365.55"/>
<polygon fill="#63b8ff" stroke="#63b8ff" points="194.31,-351.91 183.76,-352.88 192.62,-358.7 194.31,-351.91"/>
</a>
</g>
</g>
<!-- Node8 -->
<g id="Node000008" class="node">
<title>Node8</title>
<g id="a_Node000008"><a xlink:href="a09485.html" target="_top" xlink:title="Class std::multiset with safety/checking/debug instrumentation.">
<polygon fill="white" stroke="#666666" points="377,-344 218,-344 218,-316 377,-316 377,-344"/>
<text text-anchor="start" x="226" y="-332.8" font-family="Helvetica,sans-Serif" font-size="9.00">std::__debug::multiset</text>
<text text-anchor="middle" x="297.5" y="-322.8" font-family="Helvetica,sans-Serif" font-size="9.00">&lt; _Key, _Compare, _Allocator &gt;</text>
</a>
</g>
</g>
<!-- Node1&#45;&gt;Node8 -->
<g id="edge7_Node000001_Node000008" class="edge">
<title>Node1&#45;&gt;Node8</title>
<g id="a_edge7_Node000001_Node000008"><a xlink:title=" ">
<path fill="none" stroke="#63b8ff" d="M193.65,-330C201.7,-330 209.75,-330 217.61,-330"/>
<polygon fill="#63b8ff" stroke="#63b8ff" points="193.81,-326.5 183.81,-330 193.81,-333.5 193.81,-326.5"/>
</a>
</g>
</g>
<!-- Node9 -->
<g id="Node000009" class="node">
<title>Node9</title>
<g id="a_Node000009"><a xlink:href="a09569.html" target="_top" xlink:title="Class std::set with safety/checking/debug instrumentation.">
<polygon fill="white" stroke="#666666" points="373.5,-298 221.5,-298 221.5,-270 373.5,-270 373.5,-298"/>
<text text-anchor="start" x="229.5" y="-286.8" font-family="Helvetica,sans-Serif" font-size="9.00">std::__debug::set&lt;</text>
<text text-anchor="middle" x="297.5" y="-276.8" font-family="Helvetica,sans-Serif" font-size="9.00"> _Key, _Compare, _Allocator &gt;</text>
</a>
</g>
</g>
<!-- Node1&#45;&gt;Node9 -->
<g id="edge8_Node000001_Node000009" class="edge">
<title>Node1&#45;&gt;Node9</title>
<g id="a_edge8_Node000001_Node000009"><a xlink:title=" ">
<path fill="none" stroke="#63b8ff" d="M193.36,-307.2C206.56,-304.23 219.79,-301.26 232.15,-298.47"/>
<polygon fill="#63b8ff" stroke="#63b8ff" points="192.76,-303.75 183.77,-309.36 194.29,-310.58 192.76,-303.75"/>
</a>
</g>
</g>
<!-- Node10 -->
<g id="Node000010" class="node">
<title>Node10</title>
<g id="a_Node000010"><a xlink:href="a09649.html" target="_top" xlink:title="Class std::unordered_map with safety/checking/debug instrumentation.">
<polygon fill="white" stroke="#666666" points="363,-252 232,-252 232,-214 363,-214 363,-252"/>
<text text-anchor="start" x="240" y="-240.8" font-family="Helvetica,sans-Serif" font-size="9.00">std::__debug::unordered</text>
<text text-anchor="start" x="240" y="-230.8" font-family="Helvetica,sans-Serif" font-size="9.00">_map&lt; _Key, _Tp, _Hash,</text>
<text text-anchor="middle" x="297.5" y="-220.8" font-family="Helvetica,sans-Serif" font-size="9.00"> _Pred, _Alloc &gt;</text>
</a>
</g>
</g>
<!-- Node1&#45;&gt;Node10 -->
<g id="edge9_Node000001_Node000010" class="edge">
<title>Node1&#45;&gt;Node10</title>
<g id="a_edge9_Node000001_Node000010"><a xlink:title=" ">
<path fill="none" stroke="#63b8ff" d="M142.34,-300.05C165.03,-287.17 192.43,-272.47 218,-261 224.6,-258.04 231.62,-255.16 238.64,-252.46"/>
<polygon fill="#63b8ff" stroke="#63b8ff" points="140.84,-296.87 133.9,-304.88 144.32,-302.94 140.84,-296.87"/>
</a>
</g>
</g>
<!-- Node11 -->
<g id="Node000011" class="node">
<title>Node11</title>
<g id="a_Node000011"><a xlink:href="a09653.html" target="_top" xlink:title="Class std::unordered_multimap with safety/checking/debug instrumentation.">
<polygon fill="white" stroke="#666666" points="361.5,-196 233.5,-196 233.5,-158 361.5,-158 361.5,-196"/>
<text text-anchor="start" x="241.5" y="-184.8" font-family="Helvetica,sans-Serif" font-size="9.00">std::__debug::unordered</text>
<text text-anchor="start" x="241.5" y="-174.8" font-family="Helvetica,sans-Serif" font-size="9.00">_multimap&lt; _Key, _Tp,</text>
<text text-anchor="middle" x="297.5" y="-164.8" font-family="Helvetica,sans-Serif" font-size="9.00"> _Hash, _Pred, _Alloc &gt;</text>
</a>
</g>
</g>
<!-- Node1&#45;&gt;Node11 -->
<g id="edge10_Node000001_Node000011" class="edge">
<title>Node1&#45;&gt;Node11</title>
<g id="a_edge10_Node000001_Node000011"><a xlink:title=" ">
<path fill="none" stroke="#63b8ff" d="M118.06,-297.01C141.58,-269.14 178.47,-229.89 218,-205 223.02,-201.84 228.45,-198.97 234.02,-196.39"/>
<polygon fill="#63b8ff" stroke="#63b8ff" points="115.56,-294.53 111.87,-304.46 120.95,-299 115.56,-294.53"/>
</a>
</g>
</g>
<!-- Node12 -->
<g id="Node000012" class="node">
<title>Node12</title>
<g id="a_Node000012"><a xlink:href="a09669.html" target="_top" xlink:title="Class std::unordered_multiset with safety/checking/debug instrumentation.">
<polygon fill="white" stroke="#666666" points="364.5,-140 230.5,-140 230.5,-102 364.5,-102 364.5,-140"/>
<text text-anchor="start" x="238.5" y="-128.8" font-family="Helvetica,sans-Serif" font-size="9.00">std::__debug::unordered</text>
<text text-anchor="start" x="238.5" y="-118.8" font-family="Helvetica,sans-Serif" font-size="9.00">_multiset&lt; _Value, _Hash,</text>
<text text-anchor="middle" x="297.5" y="-108.8" font-family="Helvetica,sans-Serif" font-size="9.00"> _Pred, _Alloc &gt;</text>
</a>
</g>
</g>
<!-- Node1&#45;&gt;Node12 -->
<g id="edge11_Node000001_Node000012" class="edge">
<title>Node1&#45;&gt;Node12</title>
<g id="a_edge11_Node000001_Node000012"><a xlink:title=" ">
<path fill="none" stroke="#63b8ff" d="M107.82,-295.37C127.98,-254.88 166.48,-188.38 218,-149 222.14,-145.84 226.67,-143.01 231.39,-140.49"/>
<polygon fill="#63b8ff" stroke="#63b8ff" points="104.75,-293.68 103.52,-304.21 111.05,-296.75 104.75,-293.68"/>
</a>
</g>
</g>
<!-- Node13 -->
<g id="Node000013" class="node">
<title>Node13</title>
<g id="a_Node000013"><a xlink:href="a09665.html" target="_top" xlink:title="Class std::unordered_set with safety/checking/debug instrumentation.">
<polygon fill="white" stroke="#666666" points="361.5,-84 233.5,-84 233.5,-46 361.5,-46 361.5,-84"/>
<text text-anchor="start" x="241.5" y="-72.8" font-family="Helvetica,sans-Serif" font-size="9.00">std::__debug::unordered</text>
<text text-anchor="start" x="241.5" y="-62.8" font-family="Helvetica,sans-Serif" font-size="9.00">_set&lt; _Value, _Hash, </text>
<text text-anchor="middle" x="297.5" y="-52.8" font-family="Helvetica,sans-Serif" font-size="9.00">_Pred, _Alloc &gt;</text>
</a>
</g>
</g>
<!-- Node1&#45;&gt;Node13 -->
<g id="edge12_Node000001_Node000013" class="edge">
<title>Node1&#45;&gt;Node13</title>
<g id="a_edge12_Node000001_Node000013"><a xlink:title=" ">
<path fill="none" stroke="#63b8ff" d="M101.72,-294.94C117.68,-243.59 154.23,-148.08 218,-93 222.6,-89.03 227.8,-85.61 233.29,-82.66"/>
<polygon fill="#63b8ff" stroke="#63b8ff" points="98.42,-293.76 98.88,-304.35 105.12,-295.78 98.42,-293.76"/>
</a>
</g>
</g>
<!-- Node14 -->
<g id="Node000014" class="node">
<title>Node14</title>
<g id="a_Node000014"><a xlink:href="a09681.html" target="_top" xlink:title="Class std::vector with safety/checking/debug instrumentation.">
<polygon fill="white" stroke="#666666" points="352.5,-28 242.5,-28 242.5,0 352.5,0 352.5,-28"/>
<text text-anchor="start" x="250.5" y="-16.8" font-family="Helvetica,sans-Serif" font-size="9.00">std::__debug::vector</text>
<text text-anchor="middle" x="297.5" y="-6.8" font-family="Helvetica,sans-Serif" font-size="9.00">&lt; _Tp, _Allocator &gt;</text>
</a>
</g>
</g>
<!-- Node1&#45;&gt;Node14 -->
<g id="edge13_Node000001_Node000014" class="edge">
<title>Node1&#45;&gt;Node14</title>
<g id="a_edge13_Node000001_Node000014"><a xlink:title=" ">
<path fill="none" stroke="#63b8ff" d="M97.22,-294.85C108.22,-233.42 139.53,-106.5 218,-37 224.91,-30.88 233.37,-26.38 242.15,-23.08"/>
<polygon fill="#63b8ff" stroke="#63b8ff" points="93.83,-293.94 95.6,-304.38 100.73,-295.11 93.83,-293.94"/>
</a>
</g>
</g>
</g>
</svg>

<g id="navigator" transform="translate(0 0)" fill="#404254">
  <rect fill="#f2f5e9" fill-opacity="0.5" stroke="#606060" stroke-width=".5" x="0" y="0" width="60" height="60"/>
  <use id="zoomplus" xlink:href="#zoomPlus" x="17" y="9" onmousedown="handleZoom(evt,'in')"/>
  <use id="zoomminus" xlink:href="#zoomMin" x="42" y="9" onmousedown="handleZoom(evt,'out')"/>
  <use id="reset" xlink:href="#resetDef" x="30" y="36" onmousedown="handleReset()"/>
  <g id="arrowUp" xlink:href="#dirArrow" transform="translate(30 24)" onmousedown="handlePan(0,-1)">
    <use xlink:href="#rim" fill="#404040">
          <set attributeName="fill" to="#808080" begin="arrowUp.mouseover" end="arrowUp.mouseout"/>
    </use>
    <path fill="none" stroke="white" stroke-width="1.5" d="M0,-3.0v7 M-2.5,-0.5L0,-3.0L2.5,-0.5"/>
  </g>
  <g id="arrowRight" xlink:href="#dirArrow" transform="rotate(90) translate(36 -43)" onmousedown="handlePan(1,0)">
    <use xlink:href="#rim" fill="#404040">
          <set attributeName="fill" to="#808080" begin="arrowRight.mouseover" end="arrowRight.mouseout"/>
    </use>
    <path fill="none" stroke="white" stroke-width="1.5" d="M0,-3.0v7 M-2.5,-0.5L0,-3.0L2.5,-0.5"/>
  </g>
  <g id="arrowDown" xlink:href="#dirArrow" transform="rotate(180) translate(-30 -48)" onmousedown="handlePan(0,1)">
    <use xlink:href="#rim" fill="#404040">
          <set attributeName="fill" to="#808080" begin="arrowDown.mouseover" end="arrowDown.mouseout"/>
    </use>
    <path fill="none" stroke="white" stroke-width="1.5" d="M0,-3.0v7 M-2.5,-0.5L0,-3.0L2.5,-0.5"/>
  </g>
  <g id="arrowLeft" xlink:href="#dirArrow" transform="rotate(270) translate(-36 17)" onmousedown="handlePan(-1,0)">
    <use xlink:href="#rim" fill="#404040">
          <set attributeName="fill" to="#808080" begin="arrowLeft.mouseover" end="arrowLeft.mouseout"/>
    </use>
    <path fill="none" stroke="white" stroke-width="1.5" d="M0,-3.0v7 M-2.5,-0.5L0,-3.0L2.5,-0.5"/>
  </g>
</g>
<svg viewBox="0 0 15 15" width="100%" height="30px" preserveAspectRatio="xMaxYMin meet">
 <g id="arrow_out" transform="scale(0.3 0.3)">
  <a xlink:href="a09500_org.svg" target="_base">
   <rect id="button" ry="5" rx="5" y="6" x="6" height="38" width="38"
        fill="#f2f5e9" fill-opacity="0.5" stroke="#606060" stroke-width="1.0"/>
   <path id="arrow"
     d="M 11.500037,31.436501 C 11.940474,20.09759 22.043105,11.32322 32.158766,21.979434 L 37.068811,17.246167 C 37.068811,17.246167 37.088388,32 37.088388,32 L 22.160133,31.978069 C 22.160133,31.978069 26.997745,27.140456 26.997745,27.140456 C 18.528582,18.264221 13.291696,25.230495 11.500037,31.436501 z"
     style="fill:#404040;"/>
  </a>
 </g>
</svg>

<style type='text/css'>
<![CDATA[
[data-mouse-over-selected='false'] { opacity: 0.7; }
[data-mouse-over-selected='true']  { opacity: 1.0; }
]]>
</style>
<script><![CDATA[
document.addEventListener('DOMContentLoaded', (event) => {
  highlightEdges();
  highlightAdjacentNodes();
});
]]></script>
</svg>
