<?xml version="1.0" encoding="UTF-8" standalone="no"?>
<!DOCTYPE svg PUBLIC "-//W3C//DTD SVG 1.1//EN"
 "http://www.w3.org/Graphics/SVG/1.1/DTD/svg11.dtd">
<!-- Generated by graphviz version 7.1.0 (0)
 -->
<!-- Title: std::__debug::vector&lt; _Tp, _Allocator &gt; Pages: 1 -->
<svg width="336pt" height="112pt"
 viewBox="0.00 0.00 336.00 112.00" xmlns="http://www.w3.org/2000/svg" xmlns:xlink="http://www.w3.org/1999/xlink">
<g id="graph0" class="graph" transform="scale(1 1) rotate(0) translate(4 108)">
<title>std::__debug::vector&lt; _Tp, _Allocator &gt;</title>
<!-- Node1 -->
<g id="Node000001" class="node">
<title>Node1</title>
<g id="a_Node000001"><a xlink:title="Class std::vector with safety/checking/debug instrumentation.">
<polygon fill="#999999" stroke="#666666" points="328,-63 218,-63 218,-35 328,-35 328,-63"/>
<text text-anchor="start" x="226" y="-51.8" font-family="Helvetica,sans-Serif" font-size="9.00">std::__debug::vector</text>
<text text-anchor="middle" x="273" y="-41.8" font-family="Helvetica,sans-Serif" font-size="9.00">&lt; _Tp, _Allocator &gt;</text>
</a>
</g>
</g>
<!-- Node2 -->
<g id="Node000002" class="node">
<title>Node2</title>
<g id="a_Node000002"><a xlink:href="a09501.html" target="_top" xlink:title="Safe class dealing with some allocator dependent operations.">
<polygon fill="white" stroke="#666666" points="182,-104 0,-104 0,-56 182,-56 182,-104"/>
<text text-anchor="start" x="8" y="-92.8" font-family="Helvetica,sans-Serif" font-size="9.00">__gnu_debug::_Safe</text>
<text text-anchor="start" x="8" y="-82.8" font-family="Helvetica,sans-Serif" font-size="9.00">_container&lt; _SafeContainer,</text>
<text text-anchor="start" x="8" y="-72.8" font-family="Helvetica,sans-Serif" font-size="9.00"> _Alloc, _SafeBase, _IsCxx11Allocator</text>
<text text-anchor="middle" x="91" y="-62.8" font-family="Helvetica,sans-Serif" font-size="9.00">Aware &gt;</text>
</a>
</g>
</g>
<!-- Node2&#45;&gt;Node1 -->
<g id="edge1_Node000001_Node000002" class="edge">
<title>Node2&#45;&gt;Node1</title>
<g id="a_edge1_Node000001_Node000002"><a xlink:title=" ">
<path fill="none" stroke="#63b8ff" d="M193.58,-62.51C201.84,-61.08 209.97,-59.68 217.68,-58.35"/>
<polygon fill="#63b8ff" stroke="#63b8ff" points="193.02,-59.05 183.76,-64.2 194.2,-65.95 193.02,-59.05"/>
</a>
</g>
</g>
<!-- Node3 -->
<g id="Node000003" class="node">
<title>Node3</title>
<g id="a_Node000003"><a xlink:href="a09685.html" target="_top" xlink:title="Base class for Debug Mode vector.">
<polygon fill="white" stroke="#666666" points="157,-38 25,-38 25,0 157,0 157,-38"/>
<text text-anchor="start" x="33" y="-26.8" font-family="Helvetica,sans-Serif" font-size="9.00">__gnu_debug::_Safe</text>
<text text-anchor="start" x="33" y="-16.8" font-family="Helvetica,sans-Serif" font-size="9.00">_vector&lt; _SafeSequence,</text>
<text text-anchor="middle" x="91" y="-6.8" font-family="Helvetica,sans-Serif" font-size="9.00"> _BaseSequence &gt;</text>
</a>
</g>
</g>
<!-- Node3&#45;&gt;Node1 -->
<g id="edge2_Node000001_Node000003" class="edge">
<title>Node3&#45;&gt;Node1</title>
<g id="a_edge2_Node000001_Node000003"><a xlink:title=" ">
<path fill="none" stroke="#63b8ff" d="M168.73,-31.79C185.13,-34.52 202.14,-37.36 217.5,-39.92"/>
<polygon fill="#63b8ff" stroke="#63b8ff" points="169.43,-28.36 158.99,-30.16 168.27,-35.26 169.43,-28.36"/>
</a>
</g>
</g>
</g>
</svg>
