<?xml version="1.0" encoding="UTF-8" standalone="no"?>
<!DOCTYPE svg PUBLIC "-//W3C//DTD SVG 1.1//EN"
 "http://www.w3.org/Graphics/SVG/1.1/DTD/svg11.dtd">
<!-- Generated by graphviz version 7.1.0 (0)
 -->
<!-- Title: __gnu_parallel::__generic_for_each_selector&lt; _It &gt; Pages: 1 -->
<!--zoomable 598 -->

<svg id="main" version="1.1" xmlns="http://www.w3.org/2000/svg" xmlns:xlink="http://www.w3.org/1999/xlink" xml:space="preserve" onload="init(evt)">
<style type="text/css"><![CDATA[
.node, .edge {opacity: 0.7;}
.node.selected, .edge.selected {opacity: 1;}
.edge:hover path { stroke: red; }
.edge:hover polygon { stroke: red; fill: red; }
]]></style>

<defs>
  <circle id="rim" cx="0" cy="0" r="7"/>
  <circle id="rim2" cx="0" cy="0" r="3.5"/>
  <g id="zoomPlus">
    <use xlink:href="#rim" fill="#404040"><set attributeName="fill" to="#808080" begin="zoomplus.mouseover" end="zoomplus.mouseout"/></use>
    <path d="M-4,0h8M0,-4v8" fill="none" stroke="white" stroke-width="1.5" pointer-events="none"/>
  </g>
  <g id="zoomMin">
    <use xlink:href="#rim" fill="#404040"><set attributeName="fill" to="#808080" begin="zoomminus.mouseover" end="zoomminus.mouseout"/></use>
    <path d="M-4,0h8" fill="none" stroke="white" stroke-width="1.5" pointer-events="none"/>
  </g>
  <g id="dirArrow">
    <path fill="none" stroke="white" stroke-width="1.5" d="M0,-3.0v7 M-2.5,-0.5L0,-3.0L2.5,-0.5"/>
  </g>
 <g id="resetDef">
    <use xlink:href="#rim2" fill="#404040"><set attributeName="fill" to="#808080" begin="reset.mouseover" end="reset.mouseout"/></use>
 </g>
</defs>
<script type="text/javascript">
var viewWidth = 324;
var viewHeight = 598;
var sectionId = 'dynsection-0';
</script>
<script xlink:href="svg.min.js"/>
<svg id="graph" class="graph">
<g id="viewport">
<title>__gnu_parallel::__generic_for_each_selector&lt; _It &gt;</title>
<!-- Node1 -->
<g id="Node000001" class="node">
<title>Node1</title>
<g id="a_Node000001"><a xlink:title="Generic __selector for embarrassingly parallel functions.">
<polygon fill="#999999" stroke="#666666" points="131,-314 0,-314 0,-286 131,-286 131,-314"/>
<text text-anchor="start" x="8" y="-302.8" font-family="Helvetica,sans-Serif" font-size="9.00">__gnu_parallel::__generic</text>
<text text-anchor="middle" x="65.5" y="-292.8" font-family="Helvetica,sans-Serif" font-size="9.00">_for_each_selector&lt; _It &gt;</text>
</a>
</g>
</g>
<!-- Node2 -->
<g id="Node000002" class="node">
<title>Node2</title>
<g id="a_Node000002"><a xlink:href="a10017.html" target="_top" xlink:title="std::accumulate() selector.">
<polygon fill="white" stroke="#666666" points="316,-590 167,-590 167,-562 316,-562 316,-590"/>
<text text-anchor="start" x="175" y="-578.8" font-family="Helvetica,sans-Serif" font-size="9.00">__gnu_parallel::__accumulate</text>
<text text-anchor="middle" x="241.5" y="-568.8" font-family="Helvetica,sans-Serif" font-size="9.00">_selector&lt; _It &gt;</text>
</a>
</g>
</g>
<!-- Node1&#45;&gt;Node2 -->
<g id="edge1_Node000001_Node000002" class="edge">
<title>Node1&#45;&gt;Node2</title>
<g id="a_edge1_Node000001_Node000002"><a xlink:title=" ">
<path fill="none" stroke="#63b8ff" d="M69.4,-325.63C76.51,-376.42 99.46,-490.34 167,-553 170.63,-556.36 174.74,-559.24 179.12,-561.69"/>
<polygon fill="#63b8ff" stroke="#63b8ff" points="72.9,-325.39 68.14,-315.92 65.96,-326.28 72.9,-325.39"/>
</a>
</g>
</g>
<!-- Node3 -->
<g id="Node000003" class="node">
<title>Node3</title>
<g id="a_Node000003"><a xlink:href="a10029.html" target="_top" xlink:title="Selector that returns the difference between two adjacent __elements.">
<polygon fill="white" stroke="#666666" points="310.5,-544 172.5,-544 172.5,-516 310.5,-516 310.5,-544"/>
<text text-anchor="start" x="180.5" y="-532.8" font-family="Helvetica,sans-Serif" font-size="9.00">__gnu_parallel::__adjacent</text>
<text text-anchor="middle" x="241.5" y="-522.8" font-family="Helvetica,sans-Serif" font-size="9.00">_difference_selector&lt; _It &gt;</text>
</a>
</g>
</g>
<!-- Node1&#45;&gt;Node3 -->
<g id="edge2_Node000001_Node000003" class="edge">
<title>Node1&#45;&gt;Node3</title>
<g id="a_edge2_Node000001_Node000003"><a xlink:title=" ">
<path fill="none" stroke="#63b8ff" d="M71.91,-325.48C82.48,-369.04 110,-457.91 167,-507 170.85,-510.32 175.18,-513.15 179.75,-515.58"/>
<polygon fill="#63b8ff" stroke="#63b8ff" points="75.37,-324.89 69.71,-315.93 68.55,-326.46 75.37,-324.89"/>
</a>
</g>
</g>
<!-- Node4 -->
<g id="Node000004" class="node">
<title>Node4</title>
<g id="a_Node000004"><a xlink:href="a10013.html" target="_top" xlink:title="std::count_if () selector.">
<polygon fill="white" stroke="#666666" points="303.5,-498 179.5,-498 179.5,-470 303.5,-470 303.5,-498"/>
<text text-anchor="start" x="187.5" y="-486.8" font-family="Helvetica,sans-Serif" font-size="9.00">__gnu_parallel::__count</text>
<text text-anchor="middle" x="241.5" y="-476.8" font-family="Helvetica,sans-Serif" font-size="9.00">_if_selector&lt; _It, _Diff &gt;</text>
</a>
</g>
</g>
<!-- Node1&#45;&gt;Node4 -->
<g id="edge3_Node000001_Node000004" class="edge">
<title>Node1&#45;&gt;Node4</title>
<g id="a_edge3_Node000001_Node000004"><a xlink:title=" ">
<path fill="none" stroke="#63b8ff" d="M75.51,-324.81C89.6,-360.18 120.19,-424.82 167,-461 171.34,-464.35 176.17,-467.22 181.23,-469.67"/>
<polygon fill="#63b8ff" stroke="#63b8ff" points="78.91,-323.92 72.06,-315.84 72.38,-326.43 78.91,-323.92"/>
</a>
</g>
</g>
<!-- Node5 -->
<g id="Node000005" class="node">
<title>Node5</title>
<g id="a_Node000005"><a xlink:href="a10009.html" target="_top" xlink:title="std::count() selector.">
<polygon fill="white" stroke="#666666" points="302.5,-452 180.5,-452 180.5,-424 302.5,-424 302.5,-452"/>
<text text-anchor="start" x="188.5" y="-440.8" font-family="Helvetica,sans-Serif" font-size="9.00">__gnu_parallel::__count</text>
<text text-anchor="middle" x="241.5" y="-430.8" font-family="Helvetica,sans-Serif" font-size="9.00">_selector&lt; _It, _Diff &gt;</text>
</a>
</g>
</g>
<!-- Node1&#45;&gt;Node5 -->
<g id="edge4_Node000001_Node000005" class="edge">
<title>Node1&#45;&gt;Node5</title>
<g id="a_edge4_Node000001_Node000005"><a xlink:title=" ">
<path fill="none" stroke="#63b8ff" d="M81.37,-323.75C98.83,-349.75 130.14,-390.96 167,-415 172.04,-418.29 177.58,-421.13 183.29,-423.58"/>
<polygon fill="#63b8ff" stroke="#63b8ff" points="84.4,-321.99 76,-315.53 78.54,-325.82 84.4,-321.99"/>
</a>
</g>
</g>
<!-- Node6 -->
<g id="Node000006" class="node">
<title>Node6</title>
<g id="a_Node000006"><a xlink:href="a09989.html" target="_top" xlink:title="std::fill() selector.">
<polygon fill="white" stroke="#666666" points="294,-406 189,-406 189,-378 294,-378 294,-406"/>
<text text-anchor="start" x="197" y="-394.8" font-family="Helvetica,sans-Serif" font-size="9.00">__gnu_parallel::__fill</text>
<text text-anchor="middle" x="241.5" y="-384.8" font-family="Helvetica,sans-Serif" font-size="9.00">_selector&lt; _It &gt;</text>
</a>
</g>
</g>
<!-- Node1&#45;&gt;Node6 -->
<g id="edge5_Node000001_Node000006" class="edge">
<title>Node1&#45;&gt;Node6</title>
<g id="a_edge5_Node000001_Node000006"><a xlink:title=" ">
<path fill="none" stroke="#63b8ff" d="M92.9,-321.38C112.42,-336.36 140.17,-355.96 167,-369 173.85,-372.33 181.3,-375.32 188.73,-377.95"/>
<polygon fill="#63b8ff" stroke="#63b8ff" points="95.24,-318.77 85.21,-315.38 90.94,-324.29 95.24,-318.77"/>
</a>
</g>
</g>
<!-- Node7 -->
<g id="Node000007" class="node">
<title>Node7</title>
<g id="a_Node000007"><a xlink:href="a09981.html" target="_top" xlink:title="std::for_each() selector.">
<polygon fill="white" stroke="#666666" points="299,-360 184,-360 184,-332 299,-332 299,-360"/>
<text text-anchor="start" x="192" y="-348.8" font-family="Helvetica,sans-Serif" font-size="9.00">__gnu_parallel::__for</text>
<text text-anchor="middle" x="241.5" y="-338.8" font-family="Helvetica,sans-Serif" font-size="9.00">_each_selector&lt; _It &gt;</text>
</a>
</g>
</g>
<!-- Node1&#45;&gt;Node7 -->
<g id="edge6_Node000001_Node000007" class="edge">
<title>Node1&#45;&gt;Node7</title>
<g id="a_edge6_Node000001_Node000007"><a xlink:title=" ">
<path fill="none" stroke="#63b8ff" d="M132.19,-317.37C149.87,-322.04 168.81,-327.05 185.82,-331.54"/>
<polygon fill="#63b8ff" stroke="#63b8ff" points="133.1,-313.99 122.54,-314.82 131.31,-320.76 133.1,-313.99"/>
</a>
</g>
</g>
<!-- Node8 -->
<g id="Node000008" class="node">
<title>Node8</title>
<g id="a_Node000008"><a xlink:href="a09985.html" target="_top" xlink:title="std::generate() selector.">
<polygon fill="white" stroke="#666666" points="309.5,-314 173.5,-314 173.5,-286 309.5,-286 309.5,-314"/>
<text text-anchor="start" x="181.5" y="-302.8" font-family="Helvetica,sans-Serif" font-size="9.00">__gnu_parallel::__generate</text>
<text text-anchor="middle" x="241.5" y="-292.8" font-family="Helvetica,sans-Serif" font-size="9.00">_selector&lt; _It &gt;</text>
</a>
</g>
</g>
<!-- Node1&#45;&gt;Node8 -->
<g id="edge7_Node000001_Node000008" class="edge">
<title>Node1&#45;&gt;Node8</title>
<g id="a_edge7_Node000001_Node000008"><a xlink:title=" ">
<path fill="none" stroke="#63b8ff" d="M142.61,-300C152.74,-300 163.07,-300 173.04,-300"/>
<polygon fill="#63b8ff" stroke="#63b8ff" points="142.8,-296.5 132.8,-300 142.8,-303.5 142.8,-296.5"/>
</a>
</g>
</g>
<!-- Node9 -->
<g id="Node000009" class="node">
<title>Node9</title>
<g id="a_Node000009"><a xlink:href="a10025.html" target="_top" xlink:title="Selector that just returns the passed iterator.">
<polygon fill="white" stroke="#666666" points="306.5,-268 176.5,-268 176.5,-240 306.5,-240 306.5,-268"/>
<text text-anchor="start" x="184.5" y="-256.8" font-family="Helvetica,sans-Serif" font-size="9.00">__gnu_parallel::__identity</text>
<text text-anchor="middle" x="241.5" y="-246.8" font-family="Helvetica,sans-Serif" font-size="9.00">_selector&lt; _It &gt;</text>
</a>
</g>
</g>
<!-- Node1&#45;&gt;Node9 -->
<g id="edge8_Node000001_Node000009" class="edge">
<title>Node1&#45;&gt;Node9</title>
<g id="a_edge8_Node000001_Node000009"><a xlink:title=" ">
<path fill="none" stroke="#63b8ff" d="M132.19,-282.63C149.87,-277.96 168.81,-272.95 185.82,-268.46"/>
<polygon fill="#63b8ff" stroke="#63b8ff" points="131.31,-279.24 122.54,-285.18 133.1,-286.01 131.31,-279.24"/>
</a>
</g>
</g>
<!-- Node10 -->
<g id="Node000010" class="node">
<title>Node10</title>
<g id="a_Node000010"><a xlink:href="a10021.html" target="_top" xlink:title="std::inner_product() selector.">
<polygon fill="white" stroke="#666666" points="302.5,-222 180.5,-222 180.5,-184 302.5,-184 302.5,-222"/>
<text text-anchor="start" x="188.5" y="-210.8" font-family="Helvetica,sans-Serif" font-size="9.00">__gnu_parallel::__inner</text>
<text text-anchor="start" x="188.5" y="-200.8" font-family="Helvetica,sans-Serif" font-size="9.00">_product_selector&lt; _It,</text>
<text text-anchor="middle" x="241.5" y="-190.8" font-family="Helvetica,sans-Serif" font-size="9.00"> _It2, _Tp &gt;</text>
</a>
</g>
</g>
<!-- Node1&#45;&gt;Node10 -->
<g id="edge9_Node000001_Node000010" class="edge">
<title>Node1&#45;&gt;Node10</title>
<g id="a_edge9_Node000001_Node000010"><a xlink:title=" ">
<path fill="none" stroke="#63b8ff" d="M93.51,-278.84C113.13,-264.12 140.74,-244.76 167,-231 172.81,-227.96 179.02,-225.07 185.28,-222.39"/>
<polygon fill="#63b8ff" stroke="#63b8ff" points="91.6,-275.89 85.76,-284.72 95.84,-281.46 91.6,-275.89"/>
</a>
</g>
</g>
<!-- Node11 -->
<g id="Node000011" class="node">
<title>Node11</title>
<g id="a_Node000011"><a xlink:href="a10005.html" target="_top" xlink:title="std::replace() selector.">
<polygon fill="white" stroke="#666666" points="313,-166 170,-166 170,-138 313,-138 313,-166"/>
<text text-anchor="start" x="178" y="-154.8" font-family="Helvetica,sans-Serif" font-size="9.00">__gnu_parallel::__replace</text>
<text text-anchor="middle" x="241.5" y="-144.8" font-family="Helvetica,sans-Serif" font-size="9.00">_if_selector&lt; _It, _Op, _Tp &gt;</text>
</a>
</g>
</g>
<!-- Node1&#45;&gt;Node11 -->
<g id="edge10_Node000001_Node000011" class="edge">
<title>Node1&#45;&gt;Node11</title>
<g id="a_edge10_Node000001_Node000011"><a xlink:title=" ">
<path fill="none" stroke="#63b8ff" d="M79.85,-275.87C96.64,-247.69 128.04,-201.57 167,-175 171.86,-171.69 177.22,-168.83 182.77,-166.38"/>
<polygon fill="#63b8ff" stroke="#63b8ff" points="76.89,-273.99 74.91,-284.4 82.95,-277.51 76.89,-273.99"/>
</a>
</g>
</g>
<!-- Node12 -->
<g id="Node000012" class="node">
<title>Node12</title>
<g id="a_Node000012"><a xlink:href="a10001.html" target="_top" xlink:title="std::replace() selector.">
<polygon fill="white" stroke="#666666" points="305.5,-120 177.5,-120 177.5,-92 305.5,-92 305.5,-120"/>
<text text-anchor="start" x="185.5" y="-108.8" font-family="Helvetica,sans-Serif" font-size="9.00">__gnu_parallel::__replace</text>
<text text-anchor="middle" x="241.5" y="-98.8" font-family="Helvetica,sans-Serif" font-size="9.00">_selector&lt; _It, _Tp &gt;</text>
</a>
</g>
</g>
<!-- Node1&#45;&gt;Node12 -->
<g id="edge11_Node000001_Node000012" class="edge">
<title>Node1&#45;&gt;Node12</title>
<g id="a_edge11_Node000001_Node000012"><a xlink:title=" ">
<path fill="none" stroke="#63b8ff" d="M74.5,-275.26C87.78,-238.09 117.89,-168.02 167,-129 171.19,-125.67 175.86,-122.82 180.77,-120.39"/>
<polygon fill="#63b8ff" stroke="#63b8ff" points="71.36,-273.65 71.41,-284.24 77.98,-275.93 71.36,-273.65"/>
</a>
</g>
</g>
<!-- Node13 -->
<g id="Node000013" class="node">
<title>Node13</title>
<g id="a_Node000013"><a xlink:href="a09993.html" target="_top" xlink:title="std::transform() __selector, one input sequence variant.">
<polygon fill="white" stroke="#666666" points="314.5,-74 168.5,-74 168.5,-46 314.5,-46 314.5,-74"/>
<text text-anchor="start" x="176.5" y="-62.8" font-family="Helvetica,sans-Serif" font-size="9.00">__gnu_parallel::__transform1</text>
<text text-anchor="middle" x="241.5" y="-52.8" font-family="Helvetica,sans-Serif" font-size="9.00">_selector&lt; _It &gt;</text>
</a>
</g>
</g>
<!-- Node1&#45;&gt;Node13 -->
<g id="edge12_Node000001_Node000013" class="edge">
<title>Node1&#45;&gt;Node13</title>
<g id="a_edge12_Node000001_Node000013"><a xlink:title=" ">
<path fill="none" stroke="#63b8ff" d="M71.26,-274.59C81.05,-229.43 107.68,-135.05 167,-83 170.82,-79.65 175.12,-76.79 179.69,-74.34"/>
<polygon fill="#63b8ff" stroke="#63b8ff" points="67.87,-273.72 69.29,-284.22 74.72,-275.13 67.87,-273.72"/>
</a>
</g>
</g>
<!-- Node14 -->
<g id="Node000014" class="node">
<title>Node14</title>
<g id="a_Node000014"><a xlink:href="a09997.html" target="_top" xlink:title="std::transform() __selector, two input sequences variant.">
<polygon fill="white" stroke="#666666" points="314.5,-28 168.5,-28 168.5,0 314.5,0 314.5,-28"/>
<text text-anchor="start" x="176.5" y="-16.8" font-family="Helvetica,sans-Serif" font-size="9.00">__gnu_parallel::__transform2</text>
<text text-anchor="middle" x="241.5" y="-6.8" font-family="Helvetica,sans-Serif" font-size="9.00">_selector&lt; _It &gt;</text>
</a>
</g>
</g>
<!-- Node1&#45;&gt;Node14 -->
<g id="edge13_Node000001_Node000014" class="edge">
<title>Node1&#45;&gt;Node14</title>
<g id="a_edge13_Node000001_Node000014"><a xlink:title=" ">
<path fill="none" stroke="#63b8ff" d="M68.95,-274.46C75.31,-222.25 97.1,-102.71 167,-37 170.51,-33.7 174.48,-30.88 178.72,-28.46"/>
<polygon fill="#63b8ff" stroke="#63b8ff" points="65.49,-273.82 67.86,-284.15 72.45,-274.6 65.49,-273.82"/>
</a>
</g>
</g>
</g>
</svg>

<g id="navigator" transform="translate(0 0)" fill="#404254">
  <rect fill="#f2f5e9" fill-opacity="0.5" stroke="#606060" stroke-width=".5" x="0" y="0" width="60" height="60"/>
  <use id="zoomplus" xlink:href="#zoomPlus" x="17" y="9" onmousedown="handleZoom(evt,'in')"/>
  <use id="zoomminus" xlink:href="#zoomMin" x="42" y="9" onmousedown="handleZoom(evt,'out')"/>
  <use id="reset" xlink:href="#resetDef" x="30" y="36" onmousedown="handleReset()"/>
  <g id="arrowUp" xlink:href="#dirArrow" transform="translate(30 24)" onmousedown="handlePan(0,-1)">
    <use xlink:href="#rim" fill="#404040">
          <set attributeName="fill" to="#808080" begin="arrowUp.mouseover" end="arrowUp.mouseout"/>
    </use>
    <path fill="none" stroke="white" stroke-width="1.5" d="M0,-3.0v7 M-2.5,-0.5L0,-3.0L2.5,-0.5"/>
  </g>
  <g id="arrowRight" xlink:href="#dirArrow" transform="rotate(90) translate(36 -43)" onmousedown="handlePan(1,0)">
    <use xlink:href="#rim" fill="#404040">
          <set attributeName="fill" to="#808080" begin="arrowRight.mouseover" end="arrowRight.mouseout"/>
    </use>
    <path fill="none" stroke="white" stroke-width="1.5" d="M0,-3.0v7 M-2.5,-0.5L0,-3.0L2.5,-0.5"/>
  </g>
  <g id="arrowDown" xlink:href="#dirArrow" transform="rotate(180) translate(-30 -48)" onmousedown="handlePan(0,1)">
    <use xlink:href="#rim" fill="#404040">
          <set attributeName="fill" to="#808080" begin="arrowDown.mouseover" end="arrowDown.mouseout"/>
    </use>
    <path fill="none" stroke="white" stroke-width="1.5" d="M0,-3.0v7 M-2.5,-0.5L0,-3.0L2.5,-0.5"/>
  </g>
  <g id="arrowLeft" xlink:href="#dirArrow" transform="rotate(270) translate(-36 17)" onmousedown="handlePan(-1,0)">
    <use xlink:href="#rim" fill="#404040">
          <set attributeName="fill" to="#808080" begin="arrowLeft.mouseover" end="arrowLeft.mouseout"/>
    </use>
    <path fill="none" stroke="white" stroke-width="1.5" d="M0,-3.0v7 M-2.5,-0.5L0,-3.0L2.5,-0.5"/>
  </g>
</g>
<svg viewBox="0 0 15 15" width="100%" height="30px" preserveAspectRatio="xMaxYMin meet">
 <g id="arrow_out" transform="scale(0.3 0.3)">
  <a xlink:href="a09976_org.svg" target="_base">
   <rect id="button" ry="5" rx="5" y="6" x="6" height="38" width="38"
        fill="#f2f5e9" fill-opacity="0.5" stroke="#606060" stroke-width="1.0"/>
   <path id="arrow"
     d="M 11.500037,31.436501 C 11.940474,20.09759 22.043105,11.32322 32.158766,21.979434 L 37.068811,17.246167 C 37.068811,17.246167 37.088388,32 37.088388,32 L 22.160133,31.978069 C 22.160133,31.978069 26.997745,27.140456 26.997745,27.140456 C 18.528582,18.264221 13.291696,25.230495 11.500037,31.436501 z"
     style="fill:#404040;"/>
  </a>
 </g>
</svg>

<style type='text/css'>
<![CDATA[
[data-mouse-over-selected='false'] { opacity: 0.7; }
[data-mouse-over-selected='true']  { opacity: 1.0; }
]]>
</style>
<script><![CDATA[
document.addEventListener('DOMContentLoaded', (event) => {
  highlightEdges();
  highlightAdjacentNodes();
});
]]></script>
</svg>
