<?xml version="1.0" encoding="UTF-8" standalone="no"?>
<!DOCTYPE svg PUBLIC "-//W3C//DTD SVG 1.1//EN"
 "http://www.w3.org/Graphics/SVG/1.1/DTD/svg11.dtd">
<!-- Generated by graphviz version 7.1.0 (0)
 -->
<!-- Title: __gnu_parallel::parallel_tag Pages: 1 -->
<svg width="341pt" height="492pt"
 viewBox="0.00 0.00 341.00 492.00" xmlns="http://www.w3.org/2000/svg" xmlns:xlink="http://www.w3.org/1999/xlink">
<g id="graph0" class="graph" transform="scale(1 1) rotate(0) translate(4 488)">
<title>__gnu_parallel::parallel_tag</title>
<!-- Node1 -->
<g id="Node000001" class="node">
<title>Node1</title>
<g id="a_Node000001"><a xlink:title="Recommends parallel execution at compile time, optionally using a user&#45;specified number of threads.">
<polygon fill="#999999" stroke="#666666" points="138,-246 0,-246 0,-228 138,-228 138,-246"/>
<text text-anchor="middle" x="69" y="-234.8" font-family="Helvetica,sans-Serif" font-size="9.00">__gnu_parallel::parallel_tag</text>
</a>
</g>
</g>
<!-- Node2 -->
<g id="Node000002" class="node">
<title>Node2</title>
<g id="a_Node000002"><a xlink:href="a10313.html" target="_top" xlink:title="Forces parallel sorting using balanced quicksort at compile time.">
<polygon fill="white" stroke="#666666" points="317.5,-484 189.5,-484 189.5,-456 317.5,-456 317.5,-484"/>
<text text-anchor="start" x="197.5" y="-472.8" font-family="Helvetica,sans-Serif" font-size="9.00">__gnu_parallel::balanced</text>
<text text-anchor="middle" x="253.5" y="-462.8" font-family="Helvetica,sans-Serif" font-size="9.00">_quicksort_tag</text>
</a>
</g>
</g>
<!-- Node1&#45;&gt;Node2 -->
<g id="edge1_Node000001_Node000002" class="edge">
<title>Node1&#45;&gt;Node2</title>
<g id="a_edge1_Node000001_Node000002"><a xlink:title=" ">
<path fill="none" stroke="#63b8ff" d="M74.29,-257.33C84.21,-299.24 112.7,-395.58 174,-447 178.57,-450.83 183.75,-454.03 189.23,-456.69"/>
<polygon fill="#63b8ff" stroke="#63b8ff" points="77.73,-256.66 72.13,-247.66 70.9,-258.19 77.73,-256.66"/>
</a>
</g>
</g>
<!-- Node3 -->
<g id="Node000003" class="node">
<title>Node3</title>
<g id="a_Node000003"><a xlink:href="a10269.html" target="_top" xlink:title="Recommends parallel execution using dynamic load&#45;balancing at compile time.">
<polygon fill="white" stroke="#666666" points="327,-438 180,-438 180,-420 327,-420 327,-438"/>
<text text-anchor="middle" x="253.5" y="-426.8" font-family="Helvetica,sans-Serif" font-size="9.00">__gnu_parallel::balanced_tag</text>
</a>
</g>
</g>
<!-- Node1&#45;&gt;Node3 -->
<g id="edge2_Node000001_Node000003" class="edge">
<title>Node1&#45;&gt;Node3</title>
<g id="a_edge2_Node000001_Node000003"><a xlink:title=" ">
<path fill="none" stroke="#63b8ff" d="M76.12,-257.1C88.38,-293.77 119.53,-371.39 174,-411 178.75,-414.45 184.05,-417.26 189.6,-419.53"/>
<polygon fill="#63b8ff" stroke="#63b8ff" points="79.53,-256.25 73.15,-247.79 72.86,-258.38 79.53,-256.25"/>
</a>
</g>
</g>
<!-- Node4 -->
<g id="Node000004" class="node">
<title>Node4</title>
<g id="a_Node000004"><a xlink:href="a10265.html" target="_top" xlink:title="Recommends parallel execution using the default parallel algorithm.">
<polygon fill="white" stroke="#666666" points="312.5,-402 194.5,-402 194.5,-374 312.5,-374 312.5,-402"/>
<text text-anchor="start" x="202.5" y="-390.8" font-family="Helvetica,sans-Serif" font-size="9.00">__gnu_parallel::default</text>
<text text-anchor="middle" x="253.5" y="-380.8" font-family="Helvetica,sans-Serif" font-size="9.00">_parallel_tag</text>
</a>
</g>
</g>
<!-- Node1&#45;&gt;Node4 -->
<g id="edge3_Node000001_Node000004" class="edge">
<title>Node1&#45;&gt;Node4</title>
<g id="a_edge3_Node000001_Node000004"><a xlink:title=" ">
<path fill="none" stroke="#63b8ff" d="M80.44,-256.14C96.73,-284.21 130.85,-336.31 174,-365 180.15,-369.09 187.04,-372.47 194.12,-375.25"/>
<polygon fill="#63b8ff" stroke="#63b8ff" points="83.62,-254.66 75.66,-247.67 77.52,-258.1 83.62,-254.66"/>
</a>
</g>
</g>
<!-- Node5 -->
<g id="Node000005" class="node">
<title>Node5</title>
<g id="a_Node000005"><a xlink:href="a10289.html" target="_top" xlink:title="Forces parallel merging with exact splitting, at compile time.">
<polygon fill="white" stroke="#666666" points="319,-356 188,-356 188,-338 319,-338 319,-356"/>
<text text-anchor="middle" x="253.5" y="-344.8" font-family="Helvetica,sans-Serif" font-size="9.00">__gnu_parallel::exact_tag</text>
</a>
</g>
</g>
<!-- Node1&#45;&gt;Node5 -->
<g id="edge4_Node000001_Node000005" class="edge">
<title>Node1&#45;&gt;Node5</title>
<g id="a_edge4_Node000001_Node000005"><a xlink:title=" ">
<path fill="none" stroke="#63b8ff" d="M85,-254.84C103.66,-275.85 137.56,-310.27 174,-329 180.72,-332.45 188.09,-335.25 195.55,-337.51"/>
<polygon fill="#63b8ff" stroke="#63b8ff" points="87.72,-252.64 78.53,-247.38 82.43,-257.23 87.72,-252.64"/>
</a>
</g>
</g>
<!-- Node6 -->
<g id="Node000006" class="node">
<title>Node6</title>
<g id="a_Node000006"><a xlink:href="a10301.html" target="_top" xlink:title="Forces parallel sorting using multiway mergesort with exact splitting at compile time.">
<polygon fill="white" stroke="#666666" points="317.5,-320 189.5,-320 189.5,-292 317.5,-292 317.5,-320"/>
<text text-anchor="start" x="197.5" y="-308.8" font-family="Helvetica,sans-Serif" font-size="9.00">__gnu_parallel::multiway</text>
<text text-anchor="middle" x="253.5" y="-298.8" font-family="Helvetica,sans-Serif" font-size="9.00">_mergesort_exact_tag</text>
</a>
</g>
</g>
<!-- Node1&#45;&gt;Node6 -->
<g id="edge5_Node000001_Node000006" class="edge">
<title>Node1&#45;&gt;Node6</title>
<g id="a_edge5_Node000001_Node000006"><a xlink:title=" ">
<path fill="none" stroke="#63b8ff" d="M99.53,-251.31C120.12,-260.97 148.38,-273.63 174,-283 182.27,-286.03 191.14,-288.93 199.83,-291.61"/>
<polygon fill="#63b8ff" stroke="#63b8ff" points="101.14,-248.2 90.61,-247.07 98.14,-254.52 101.14,-248.2"/>
</a>
</g>
</g>
<!-- Node7 -->
<g id="Node000007" class="node">
<title>Node7</title>
<g id="a_Node000007"><a xlink:href="a10305.html" target="_top" xlink:title="Forces parallel sorting using multiway mergesort with splitting by sampling at compile time.">
<polygon fill="white" stroke="#666666" points="320,-274 187,-274 187,-246 320,-246 320,-274"/>
<text text-anchor="start" x="195" y="-262.8" font-family="Helvetica,sans-Serif" font-size="9.00">__gnu_parallel::multiway</text>
<text text-anchor="middle" x="253.5" y="-252.8" font-family="Helvetica,sans-Serif" font-size="9.00">_mergesort_sampling_tag</text>
</a>
</g>
</g>
<!-- Node1&#45;&gt;Node7 -->
<g id="edge6_Node000001_Node000007" class="edge">
<title>Node1&#45;&gt;Node7</title>
<g id="a_edge6_Node000001_Node000007"><a xlink:title=" ">
<path fill="none" stroke="#63b8ff" d="M149.7,-247.04C162.05,-248.6 174.67,-250.19 186.67,-251.7"/>
<polygon fill="#63b8ff" stroke="#63b8ff" points="150.34,-243.6 139.98,-245.82 149.46,-250.54 150.34,-243.6"/>
</a>
</g>
</g>
<!-- Node8 -->
<g id="Node000008" class="node">
<title>Node8</title>
<g id="a_Node000008"><a xlink:href="a10297.html" target="_top" xlink:title="Forces parallel sorting using multiway mergesort at compile time.">
<polygon fill="white" stroke="#666666" points="317.5,-228 189.5,-228 189.5,-200 317.5,-200 317.5,-228"/>
<text text-anchor="start" x="197.5" y="-216.8" font-family="Helvetica,sans-Serif" font-size="9.00">__gnu_parallel::multiway</text>
<text text-anchor="middle" x="253.5" y="-206.8" font-family="Helvetica,sans-Serif" font-size="9.00">_mergesort_tag</text>
</a>
</g>
</g>
<!-- Node1&#45;&gt;Node8 -->
<g id="edge7_Node000001_Node000008" class="edge">
<title>Node1&#45;&gt;Node8</title>
<g id="a_edge7_Node000001_Node000008"><a xlink:title=" ">
<path fill="none" stroke="#63b8ff" d="M149.89,-226.93C163,-225.28 176.43,-223.59 189.07,-221.99"/>
<polygon fill="#63b8ff" stroke="#63b8ff" points="149.46,-223.46 139.98,-228.18 150.34,-230.4 149.46,-223.46"/>
</a>
</g>
</g>
<!-- Node9 -->
<g id="Node000009" class="node">
<title>Node9</title>
<g id="a_Node000009"><a xlink:href="a10281.html" target="_top" xlink:title="Recommends parallel execution using OpenMP static load&#45;balancing at compile time.">
<polygon fill="white" stroke="#666666" points="307,-182 200,-182 200,-154 307,-154 307,-182"/>
<text text-anchor="start" x="208" y="-170.8" font-family="Helvetica,sans-Serif" font-size="9.00">__gnu_parallel::omp</text>
<text text-anchor="middle" x="253.5" y="-160.8" font-family="Helvetica,sans-Serif" font-size="9.00">_loop_static_tag</text>
</a>
</g>
</g>
<!-- Node1&#45;&gt;Node9 -->
<g id="edge8_Node000001_Node000009" class="edge">
<title>Node1&#45;&gt;Node9</title>
<g id="a_edge8_Node000001_Node000009"><a xlink:title=" ">
<path fill="none" stroke="#63b8ff" d="M99.53,-222.69C120.12,-213.03 148.38,-200.37 174,-191 182.27,-187.97 191.14,-185.07 199.83,-182.39"/>
<polygon fill="#63b8ff" stroke="#63b8ff" points="98.14,-219.48 90.61,-226.93 101.14,-225.8 98.14,-219.48"/>
</a>
</g>
</g>
<!-- Node10 -->
<g id="Node000010" class="node">
<title>Node10</title>
<g id="a_Node000010"><a xlink:href="a10277.html" target="_top" xlink:title="Recommends parallel execution using OpenMP dynamic load&#45;balancing at compile time.">
<polygon fill="white" stroke="#666666" points="307,-136 200,-136 200,-108 307,-108 307,-136"/>
<text text-anchor="start" x="208" y="-124.8" font-family="Helvetica,sans-Serif" font-size="9.00">__gnu_parallel::omp</text>
<text text-anchor="middle" x="253.5" y="-114.8" font-family="Helvetica,sans-Serif" font-size="9.00">_loop_tag</text>
</a>
</g>
</g>
<!-- Node1&#45;&gt;Node10 -->
<g id="edge9_Node000001_Node000010" class="edge">
<title>Node1&#45;&gt;Node10</title>
<g id="a_edge9_Node000001_Node000010"><a xlink:title=" ">
<path fill="none" stroke="#63b8ff" d="M85.48,-219.21C104.4,-198.52 138.32,-164.71 174,-145 181.96,-140.61 190.84,-136.97 199.69,-133.99"/>
<polygon fill="#63b8ff" stroke="#63b8ff" points="82.96,-216.78 78.9,-226.56 88.18,-221.44 82.96,-216.78"/>
</a>
</g>
</g>
<!-- Node11 -->
<g id="Node000011" class="node">
<title>Node11</title>
<g id="a_Node000011"><a xlink:href="a10309.html" target="_top" xlink:title="Forces parallel sorting using unbalanced quicksort at compile time.">
<polygon fill="white" stroke="#666666" points="327.5,-90 179.5,-90 179.5,-72 327.5,-72 327.5,-90"/>
<text text-anchor="middle" x="253.5" y="-78.8" font-family="Helvetica,sans-Serif" font-size="9.00">__gnu_parallel::quicksort_tag</text>
</a>
</g>
</g>
<!-- Node1&#45;&gt;Node11 -->
<g id="edge10_Node000001_Node000011" class="edge">
<title>Node1&#45;&gt;Node11</title>
<g id="a_edge10_Node000001_Node000011"><a xlink:title=" ">
<path fill="none" stroke="#63b8ff" d="M78.95,-217.73C94.06,-187.46 127.57,-129.1 174,-99 179.4,-95.5 185.39,-92.68 191.59,-90.4"/>
<polygon fill="#63b8ff" stroke="#63b8ff" points="75.93,-215.95 74.73,-226.48 82.23,-219 75.93,-215.95"/>
</a>
</g>
</g>
<!-- Node12 -->
<g id="Node000012" class="node">
<title>Node12</title>
<g id="a_Node000012"><a xlink:href="a10293.html" target="_top" xlink:title="Forces parallel merging with exact splitting, at compile time.">
<polygon fill="white" stroke="#666666" points="327,-54 180,-54 180,-36 327,-36 327,-54"/>
<text text-anchor="middle" x="253.5" y="-42.8" font-family="Helvetica,sans-Serif" font-size="9.00">__gnu_parallel::sampling_tag</text>
</a>
</g>
</g>
<!-- Node1&#45;&gt;Node12 -->
<g id="edge11_Node000001_Node000012" class="edge">
<title>Node1&#45;&gt;Node12</title>
<g id="a_edge11_Node000001_Node000012"><a xlink:title=" ">
<path fill="none" stroke="#63b8ff" d="M76.12,-216.9C88.38,-180.23 119.53,-102.61 174,-63 178.75,-59.55 184.05,-56.74 189.6,-54.47"/>
<polygon fill="#63b8ff" stroke="#63b8ff" points="72.86,-215.62 73.15,-226.21 79.53,-217.75 72.86,-215.62"/>
</a>
</g>
</g>
<!-- Node13 -->
<g id="Node000013" class="node">
<title>Node13</title>
<g id="a_Node000013"><a xlink:href="a10273.html" target="_top" xlink:title="Recommends parallel execution using static load&#45;balancing at compile time.">
<polygon fill="white" stroke="#666666" points="333,-18 174,-18 174,0 333,0 333,-18"/>
<text text-anchor="middle" x="253.5" y="-6.8" font-family="Helvetica,sans-Serif" font-size="9.00">__gnu_parallel::unbalanced_tag</text>
</a>
</g>
</g>
<!-- Node1&#45;&gt;Node13 -->
<g id="edge12_Node000001_Node000013" class="edge">
<title>Node1&#45;&gt;Node13</title>
<g id="a_edge12_Node000001_Node000013"><a xlink:title=" ">
<path fill="none" stroke="#63b8ff" d="M73.99,-216.64C83.39,-174.33 111.06,-76.68 174,-27 178.39,-23.53 183.32,-20.71 188.53,-18.42"/>
<polygon fill="#63b8ff" stroke="#63b8ff" points="70.61,-215.69 71.99,-226.19 77.47,-217.12 70.61,-215.69"/>
</a>
</g>
</g>
</g>
</svg>
