<?xml version="1.0" encoding="UTF-8" standalone="no"?>
<!DOCTYPE svg PUBLIC "-//W3C//DTD SVG 1.1//EN"
 "http://www.w3.org/Graphics/SVG/1.1/DTD/svg11.dtd">
<!-- Generated by graphviz version 7.1.0 (0)
 -->
<!-- Title: std::experimental::filesystem::v1::filesystem_error Pages: 1 -->
<svg width="164pt" height="198pt"
 viewBox="0.00 0.00 164.00 198.00" xmlns="http://www.w3.org/2000/svg" xmlns:xlink="http://www.w3.org/1999/xlink">
<g id="graph0" class="graph" transform="scale(1 1) rotate(0) translate(4 194)">
<title>std::experimental::filesystem::v1::filesystem_error</title>
<!-- Node1 -->
<g id="Node000001" class="node">
<title>Node1</title>
<g id="a_Node000001"><a xlink:title="Exception type thrown by the Filesystem TS library.">
<polygon fill="#999999" stroke="#666666" points="156,-28 0,-28 0,0 156,0 156,-28"/>
<text text-anchor="start" x="8" y="-16.8" font-family="Helvetica,sans-Serif" font-size="9.00">std::experimental::</text>
<text text-anchor="middle" x="78" y="-6.8" font-family="Helvetica,sans-Serif" font-size="9.00">filesystem::v1::filesystem_error</text>
</a>
</g>
</g>
<!-- Node2 -->
<g id="Node000002" class="node">
<title>Node2</title>
<g id="a_Node000002"><a xlink:href="a03593.html" target="_top" xlink:title="An exception type that includes an error_code value.">
<polygon fill="white" stroke="#666666" points="125.5,-82 30.5,-82 30.5,-64 125.5,-64 125.5,-82"/>
<text text-anchor="middle" x="78" y="-70.8" font-family="Helvetica,sans-Serif" font-size="9.00">std::system_error</text>
</a>
</g>
</g>
<!-- Node2&#45;&gt;Node1 -->
<g id="edge1_Node000001_Node000002" class="edge">
<title>Node2&#45;&gt;Node1</title>
<g id="a_edge1_Node000001_Node000002"><a xlink:title=" ">
<path fill="none" stroke="#63b8ff" d="M78,-52.08C78,-44.21 78,-35.38 78,-28.31"/>
<polygon fill="#63b8ff" stroke="#63b8ff" points="74.5,-52.08 78,-62.08 81.5,-52.08 74.5,-52.08"/>
</a>
</g>
</g>
<!-- Node3 -->
<g id="Node000003" class="node">
<title>Node3</title>
<g id="a_Node000003"><a xlink:href="a03481.html" target="_top" xlink:title="One of two subclasses of exception.">
<polygon fill="white" stroke="#666666" points="127.5,-136 28.5,-136 28.5,-118 127.5,-118 127.5,-136"/>
<text text-anchor="middle" x="78" y="-124.8" font-family="Helvetica,sans-Serif" font-size="9.00">std::runtime_error</text>
</a>
</g>
</g>
<!-- Node3&#45;&gt;Node2 -->
<g id="edge2_Node000002_Node000003" class="edge">
<title>Node3&#45;&gt;Node2</title>
<g id="a_edge2_Node000002_Node000003"><a xlink:title=" ">
<path fill="none" stroke="#63b8ff" d="M78,-106.39C78,-98.03 78,-88.72 78,-82.24"/>
<polygon fill="#63b8ff" stroke="#63b8ff" points="74.5,-106.36 78,-116.36 81.5,-106.36 74.5,-106.36"/>
</a>
</g>
</g>
<!-- Node4 -->
<g id="Node000004" class="node">
<title>Node4</title>
<g id="a_Node000004"><a xlink:href="a05761.html" target="_top" xlink:title="Base class for all library exceptions.">
<polygon fill="white" stroke="#666666" points="118,-190 38,-190 38,-172 118,-172 118,-190"/>
<text text-anchor="middle" x="78" y="-178.8" font-family="Helvetica,sans-Serif" font-size="9.00">std::exception</text>
</a>
</g>
</g>
<!-- Node4&#45;&gt;Node3 -->
<g id="edge3_Node000003_Node000004" class="edge">
<title>Node4&#45;&gt;Node3</title>
<g id="a_edge3_Node000003_Node000004"><a xlink:title=" ">
<path fill="none" stroke="#63b8ff" d="M78,-160.39C78,-152.03 78,-142.72 78,-136.24"/>
<polygon fill="#63b8ff" stroke="#63b8ff" points="74.5,-160.36 78,-170.36 81.5,-160.36 74.5,-160.36"/>
</a>
</g>
</g>
</g>
</svg>
