<?xml version="1.0" encoding="UTF-8" standalone="no"?>
<!DOCTYPE svg PUBLIC "-//W3C//DTD SVG 1.1//EN"
 "http://www.w3.org/Graphics/SVG/1.1/DTD/svg11.dtd">
<!-- Generated by graphviz version 7.1.0 (0)
 -->
<!-- Title: __gnu_cxx::stdio_filebuf&lt; _CharT, _Traits &gt; Pages: 1 -->
<svg width="132pt" height="164pt"
 viewBox="0.00 0.00 132.00 164.00" xmlns="http://www.w3.org/2000/svg" xmlns:xlink="http://www.w3.org/1999/xlink">
<g id="graph0" class="graph" transform="scale(1 1) rotate(0) translate(4 160)">
<title>__gnu_cxx::stdio_filebuf&lt; _CharT, _Traits &gt;</title>
<!-- Node1 -->
<g id="Node000001" class="node">
<title>Node1</title>
<g id="a_Node000001"><a xlink:title="Provides a layer of compatibility for C/POSIX.">
<polygon fill="#999999" stroke="#666666" points="124,-28 0,-28 0,0 124,0 124,-28"/>
<text text-anchor="start" x="8" y="-16.8" font-family="Helvetica,sans-Serif" font-size="9.00">__gnu_cxx::stdio_filebuf</text>
<text text-anchor="middle" x="62" y="-6.8" font-family="Helvetica,sans-Serif" font-size="9.00">&lt; _CharT, _Traits &gt;</text>
</a>
</g>
</g>
<!-- Node2 -->
<g id="Node000002" class="node">
<title>Node2</title>
<g id="a_Node000002"><a xlink:href="a02489.html" target="_top" xlink:title="The actual work of input and output (for files).">
<polygon fill="white" stroke="#666666" points="113,-92 11,-92 11,-64 113,-64 113,-92"/>
<text text-anchor="start" x="19" y="-80.8" font-family="Helvetica,sans-Serif" font-size="9.00">std::basic_filebuf</text>
<text text-anchor="middle" x="62" y="-70.8" font-family="Helvetica,sans-Serif" font-size="9.00">&lt; _CharT, _Traits &gt;</text>
</a>
</g>
</g>
<!-- Node2&#45;&gt;Node1 -->
<g id="edge1_Node000001_Node000002" class="edge">
<title>Node2&#45;&gt;Node1</title>
<g id="a_edge1_Node000001_Node000002"><a xlink:title=" ">
<path fill="none" stroke="#63b8ff" d="M62,-52.03C62,-43.97 62,-35.33 62,-28.43"/>
<polygon fill="#63b8ff" stroke="#63b8ff" points="58.5,-52.03 62,-62.03 65.5,-52.03 58.5,-52.03"/>
</a>
</g>
</g>
<!-- Node3 -->
<g id="Node000003" class="node">
<title>Node3</title>
<g id="a_Node000003"><a xlink:href="a02761.html" target="_top" xlink:title="The actual work of input and output (interface).">
<polygon fill="white" stroke="#666666" points="117.5,-156 6.5,-156 6.5,-128 117.5,-128 117.5,-156"/>
<text text-anchor="start" x="14.5" y="-144.8" font-family="Helvetica,sans-Serif" font-size="9.00">std::basic_streambuf</text>
<text text-anchor="middle" x="62" y="-134.8" font-family="Helvetica,sans-Serif" font-size="9.00">&lt; _CharT, _Traits &gt;</text>
</a>
</g>
</g>
<!-- Node3&#45;&gt;Node2 -->
<g id="edge2_Node000002_Node000003" class="edge">
<title>Node3&#45;&gt;Node2</title>
<g id="a_edge2_Node000002_Node000003"><a xlink:title=" ">
<path fill="none" stroke="#63b8ff" d="M62,-116.03C62,-107.97 62,-99.33 62,-92.43"/>
<polygon fill="#63b8ff" stroke="#63b8ff" points="58.5,-116.03 62,-126.03 65.5,-116.03 58.5,-116.03"/>
</a>
</g>
</g>
</g>
</svg>
