<?xml version="1.0" encoding="UTF-8" standalone="no"?>
<!DOCTYPE svg PUBLIC "-//W3C//DTD SVG 1.1//EN"
 "http://www.w3.org/Graphics/SVG/1.1/DTD/svg11.dtd">
<!-- Generated by graphviz version 7.1.0 (0)
 -->
<!-- Title: __gnu_cxx::annotate_base Pages: 1 -->
<svg width="522pt" height="128pt"
 viewBox="0.00 0.00 522.00 128.00" xmlns="http://www.w3.org/2000/svg" xmlns:xlink="http://www.w3.org/1999/xlink">
<g id="graph0" class="graph" transform="scale(1 1) rotate(0) translate(4 124)">
<title>__gnu_cxx::annotate_base</title>
<!-- Node1 -->
<g id="Node000001" class="node">
<title>Node1</title>
<g id="a_Node000001"><a xlink:title="Base class for checking address and label information about allocations. Create a std::map between th...">
<polygon fill="#999999" stroke="#666666" points="136,-69 0,-69 0,-51 136,-51 136,-69"/>
<text text-anchor="middle" x="68" y="-57.8" font-family="Helvetica,sans-Serif" font-size="9.00">__gnu_cxx::annotate_base</text>
</a>
</g>
</g>
<!-- Node2 -->
<g id="Node000002" class="node">
<title>Node2</title>
<g id="a_Node000002"><a xlink:href="a12341.html" target="_top" xlink:title=" ">
<polygon fill="white" stroke="#666666" points="331,-120 180,-120 180,-92 331,-92 331,-120"/>
<text text-anchor="start" x="188" y="-108.8" font-family="Helvetica,sans-Serif" font-size="9.00">__gnu_cxx::throw_allocator</text>
<text text-anchor="middle" x="255.5" y="-98.8" font-family="Helvetica,sans-Serif" font-size="9.00">_base&lt; _Tp, limit_condition &gt;</text>
</a>
</g>
</g>
<!-- Node1&#45;&gt;Node2 -->
<g id="edge1_Node000001_Node000002" class="edge">
<title>Node1&#45;&gt;Node2</title>
<g id="a_edge1_Node000001_Node000002"><a xlink:title=" ">
<path fill="none" stroke="#63b8ff" d="M117.96,-72.14C141.93,-78.09 170.97,-85.29 196.1,-91.52"/>
<polygon fill="#63b8ff" stroke="#63b8ff" points="119,-68.79 108.46,-69.78 117.32,-75.59 119,-68.79"/>
</a>
</g>
</g>
<!-- Node4 -->
<g id="Node000004" class="node">
<title>Node4</title>
<g id="a_Node000004"><a xlink:href="a12341.html" target="_top" xlink:title=" ">
<polygon fill="white" stroke="#666666" points="339,-74 172,-74 172,-46 339,-46 339,-74"/>
<text text-anchor="start" x="180" y="-62.8" font-family="Helvetica,sans-Serif" font-size="9.00">__gnu_cxx::throw_allocator</text>
<text text-anchor="middle" x="255.5" y="-52.8" font-family="Helvetica,sans-Serif" font-size="9.00">_base&lt; _Tp, random_condition &gt;</text>
</a>
</g>
</g>
<!-- Node1&#45;&gt;Node4 -->
<g id="edge3_Node000001_Node000004" class="edge">
<title>Node1&#45;&gt;Node4</title>
<g id="a_edge3_Node000001_Node000004"><a xlink:title=" ">
<path fill="none" stroke="#63b8ff" d="M147.86,-60C155.71,-60 163.69,-60 171.57,-60"/>
<polygon fill="#63b8ff" stroke="#63b8ff" points="148.01,-56.5 138.01,-60 148.01,-63.5 148.01,-56.5"/>
</a>
</g>
</g>
<!-- Node6 -->
<g id="Node000006" class="node">
<title>Node6</title>
<g id="a_Node000006"><a xlink:href="a12341.html" target="_top" xlink:title="Allocator class with logging and exception generation control. Intended to be used as an allocator_ty...">
<polygon fill="white" stroke="#666666" points="325,-28 186,-28 186,0 325,0 325,-28"/>
<text text-anchor="start" x="194" y="-16.8" font-family="Helvetica,sans-Serif" font-size="9.00">__gnu_cxx::throw_allocator</text>
<text text-anchor="middle" x="255.5" y="-6.8" font-family="Helvetica,sans-Serif" font-size="9.00">_base&lt; _Tp, _Cond &gt;</text>
</a>
</g>
</g>
<!-- Node1&#45;&gt;Node6 -->
<g id="edge5_Node000001_Node000006" class="edge">
<title>Node1&#45;&gt;Node6</title>
<g id="a_edge5_Node000001_Node000006"><a xlink:title=" ">
<path fill="none" stroke="#63b8ff" d="M117.96,-47.86C141.93,-41.91 170.97,-34.71 196.1,-28.48"/>
<polygon fill="#63b8ff" stroke="#63b8ff" points="117.32,-44.41 108.46,-50.22 119,-51.21 117.32,-44.41"/>
</a>
</g>
</g>
<!-- Node3 -->
<g id="Node000003" class="node">
<title>Node3</title>
<g id="a_Node000003"><a xlink:href="a12345.html" target="_top" xlink:title="Allocator throwing via limit condition.">
<polygon fill="white" stroke="#666666" points="514,-120 375,-120 375,-92 514,-92 514,-120"/>
<text text-anchor="start" x="383" y="-108.8" font-family="Helvetica,sans-Serif" font-size="9.00">__gnu_cxx::throw_allocator</text>
<text text-anchor="middle" x="444.5" y="-98.8" font-family="Helvetica,sans-Serif" font-size="9.00">_limit&lt; _Tp &gt;</text>
</a>
</g>
</g>
<!-- Node2&#45;&gt;Node3 -->
<g id="edge2_Node000002_Node000003" class="edge">
<title>Node2&#45;&gt;Node3</title>
<g id="a_edge2_Node000002_Node000003"><a xlink:title=" ">
<path fill="none" stroke="#63b8ff" d="M342.92,-106C353.53,-106 364.26,-106 374.56,-106"/>
<polygon fill="#63b8ff" stroke="#63b8ff" points="343,-102.5 333,-106 343,-109.5 343,-102.5"/>
</a>
</g>
</g>
<!-- Node5 -->
<g id="Node000005" class="node">
<title>Node5</title>
<g id="a_Node000005"><a xlink:href="a12353.html" target="_top" xlink:title="Allocator throwing via random condition.">
<polygon fill="white" stroke="#666666" points="514,-74 375,-74 375,-46 514,-46 514,-74"/>
<text text-anchor="start" x="383" y="-62.8" font-family="Helvetica,sans-Serif" font-size="9.00">__gnu_cxx::throw_allocator</text>
<text text-anchor="middle" x="444.5" y="-52.8" font-family="Helvetica,sans-Serif" font-size="9.00">_random&lt; _Tp &gt;</text>
</a>
</g>
</g>
<!-- Node4&#45;&gt;Node5 -->
<g id="edge4_Node000004_Node000005" class="edge">
<title>Node4&#45;&gt;Node5</title>
<g id="a_edge4_Node000004_Node000005"><a xlink:title=" ">
<path fill="none" stroke="#63b8ff" d="M350.74,-60C358.82,-60 366.9,-60 374.72,-60"/>
<polygon fill="#63b8ff" stroke="#63b8ff" points="350.85,-56.5 340.85,-60 350.85,-63.5 350.85,-56.5"/>
</a>
</g>
</g>
</g>
</svg>
