<?xml version="1.0" encoding="UTF-8" standalone="no"?>
<!DOCTYPE svg PUBLIC "-//W3C//DTD SVG 1.1//EN"
 "http://www.w3.org/Graphics/SVG/1.1/DTD/svg11.dtd">
<!-- Generated by graphviz version 7.1.0 (0)
 -->
<!-- Title: __gnu_cxx::annotate_base Pages: 1 -->
<!--zoomable 128 -->

<svg id="main" version="1.1" xmlns="http://www.w3.org/2000/svg" xmlns:xlink="http://www.w3.org/1999/xlink" xml:space="preserve" onload="init(evt)">
<style type="text/css"><![CDATA[
.node, .edge {opacity: 0.7;}
.node.selected, .edge.selected {opacity: 1;}
.edge:hover path { stroke: red; }
.edge:hover polygon { stroke: red; fill: red; }
]]></style>

<defs>
  <circle id="rim" cx="0" cy="0" r="7"/>
  <circle id="rim2" cx="0" cy="0" r="3.5"/>
  <g id="zoomPlus">
    <use xlink:href="#rim" fill="#404040"><set attributeName="fill" to="#808080" begin="zoomplus.mouseover" end="zoomplus.mouseout"/></use>
    <path d="M-4,0h8M0,-4v8" fill="none" stroke="white" stroke-width="1.5" pointer-events="none"/>
  </g>
  <g id="zoomMin">
    <use xlink:href="#rim" fill="#404040"><set attributeName="fill" to="#808080" begin="zoomminus.mouseover" end="zoomminus.mouseout"/></use>
    <path d="M-4,0h8" fill="none" stroke="white" stroke-width="1.5" pointer-events="none"/>
  </g>
  <g id="dirArrow">
    <path fill="none" stroke="white" stroke-width="1.5" d="M0,-3.0v7 M-2.5,-0.5L0,-3.0L2.5,-0.5"/>
  </g>
 <g id="resetDef">
    <use xlink:href="#rim2" fill="#404040"><set attributeName="fill" to="#808080" begin="reset.mouseover" end="reset.mouseout"/></use>
 </g>
</defs>
<script type="text/javascript">
var viewWidth = 522;
var viewHeight = 128;
var sectionId = 'dynsection-0';
</script>
<script xlink:href="svg.min.js"/>
<svg id="graph" class="graph">
<g id="viewport">
<title>__gnu_cxx::annotate_base</title>
<!-- Node1 -->
<g id="Node000001" class="node">
<title>Node1</title>
<g id="a_Node000001"><a xlink:title="Base class for checking address and label information about allocations. Create a std::map between th...">
<polygon fill="#999999" stroke="#666666" points="136,-69 0,-69 0,-51 136,-51 136,-69"/>
<text text-anchor="middle" x="68" y="-57.8" font-family="Helvetica,sans-Serif" font-size="9.00">__gnu_cxx::annotate_base</text>
</a>
</g>
</g>
<!-- Node2 -->
<g id="Node000002" class="node">
<title>Node2</title>
<g id="a_Node000002"><a xlink:href="a12341.html" target="_top" xlink:title=" ">
<polygon fill="white" stroke="#666666" points="331,-120 180,-120 180,-92 331,-92 331,-120"/>
<text text-anchor="start" x="188" y="-108.8" font-family="Helvetica,sans-Serif" font-size="9.00">__gnu_cxx::throw_allocator</text>
<text text-anchor="middle" x="255.5" y="-98.8" font-family="Helvetica,sans-Serif" font-size="9.00">_base&lt; _Tp, limit_condition &gt;</text>
</a>
</g>
</g>
<!-- Node1&#45;&gt;Node2 -->
<g id="edge1_Node000001_Node000002" class="edge">
<title>Node1&#45;&gt;Node2</title>
<g id="a_edge1_Node000001_Node000002"><a xlink:title=" ">
<path fill="none" stroke="#63b8ff" d="M117.96,-72.14C141.93,-78.09 170.97,-85.29 196.1,-91.52"/>
<polygon fill="#63b8ff" stroke="#63b8ff" points="119,-68.79 108.46,-69.78 117.32,-75.59 119,-68.79"/>
</a>
</g>
</g>
<!-- Node4 -->
<g id="Node000004" class="node">
<title>Node4</title>
<g id="a_Node000004"><a xlink:href="a12341.html" target="_top" xlink:title=" ">
<polygon fill="white" stroke="#666666" points="339,-74 172,-74 172,-46 339,-46 339,-74"/>
<text text-anchor="start" x="180" y="-62.8" font-family="Helvetica,sans-Serif" font-size="9.00">__gnu_cxx::throw_allocator</text>
<text text-anchor="middle" x="255.5" y="-52.8" font-family="Helvetica,sans-Serif" font-size="9.00">_base&lt; _Tp, random_condition &gt;</text>
</a>
</g>
</g>
<!-- Node1&#45;&gt;Node4 -->
<g id="edge3_Node000001_Node000004" class="edge">
<title>Node1&#45;&gt;Node4</title>
<g id="a_edge3_Node000001_Node000004"><a xlink:title=" ">
<path fill="none" stroke="#63b8ff" d="M147.86,-60C155.71,-60 163.69,-60 171.57,-60"/>
<polygon fill="#63b8ff" stroke="#63b8ff" points="148.01,-56.5 138.01,-60 148.01,-63.5 148.01,-56.5"/>
</a>
</g>
</g>
<!-- Node6 -->
<g id="Node000006" class="node">
<title>Node6</title>
<g id="a_Node000006"><a xlink:href="a12341.html" target="_top" xlink:title="Allocator class with logging and exception generation control. Intended to be used as an allocator_ty...">
<polygon fill="white" stroke="#666666" points="325,-28 186,-28 186,0 325,0 325,-28"/>
<text text-anchor="start" x="194" y="-16.8" font-family="Helvetica,sans-Serif" font-size="9.00">__gnu_cxx::throw_allocator</text>
<text text-anchor="middle" x="255.5" y="-6.8" font-family="Helvetica,sans-Serif" font-size="9.00">_base&lt; _Tp, _Cond &gt;</text>
</a>
</g>
</g>
<!-- Node1&#45;&gt;Node6 -->
<g id="edge5_Node000001_Node000006" class="edge">
<title>Node1&#45;&gt;Node6</title>
<g id="a_edge5_Node000001_Node000006"><a xlink:title=" ">
<path fill="none" stroke="#63b8ff" d="M117.96,-47.86C141.93,-41.91 170.97,-34.71 196.1,-28.48"/>
<polygon fill="#63b8ff" stroke="#63b8ff" points="117.32,-44.41 108.46,-50.22 119,-51.21 117.32,-44.41"/>
</a>
</g>
</g>
<!-- Node3 -->
<g id="Node000003" class="node">
<title>Node3</title>
<g id="a_Node000003"><a xlink:href="a12345.html" target="_top" xlink:title="Allocator throwing via limit condition.">
<polygon fill="white" stroke="#666666" points="514,-120 375,-120 375,-92 514,-92 514,-120"/>
<text text-anchor="start" x="383" y="-108.8" font-family="Helvetica,sans-Serif" font-size="9.00">__gnu_cxx::throw_allocator</text>
<text text-anchor="middle" x="444.5" y="-98.8" font-family="Helvetica,sans-Serif" font-size="9.00">_limit&lt; _Tp &gt;</text>
</a>
</g>
</g>
<!-- Node2&#45;&gt;Node3 -->
<g id="edge2_Node000002_Node000003" class="edge">
<title>Node2&#45;&gt;Node3</title>
<g id="a_edge2_Node000002_Node000003"><a xlink:title=" ">
<path fill="none" stroke="#63b8ff" d="M342.92,-106C353.53,-106 364.26,-106 374.56,-106"/>
<polygon fill="#63b8ff" stroke="#63b8ff" points="343,-102.5 333,-106 343,-109.5 343,-102.5"/>
</a>
</g>
</g>
<!-- Node5 -->
<g id="Node000005" class="node">
<title>Node5</title>
<g id="a_Node000005"><a xlink:href="a12353.html" target="_top" xlink:title="Allocator throwing via random condition.">
<polygon fill="white" stroke="#666666" points="514,-74 375,-74 375,-46 514,-46 514,-74"/>
<text text-anchor="start" x="383" y="-62.8" font-family="Helvetica,sans-Serif" font-size="9.00">__gnu_cxx::throw_allocator</text>
<text text-anchor="middle" x="444.5" y="-52.8" font-family="Helvetica,sans-Serif" font-size="9.00">_random&lt; _Tp &gt;</text>
</a>
</g>
</g>
<!-- Node4&#45;&gt;Node5 -->
<g id="edge4_Node000004_Node000005" class="edge">
<title>Node4&#45;&gt;Node5</title>
<g id="a_edge4_Node000004_Node000005"><a xlink:title=" ">
<path fill="none" stroke="#63b8ff" d="M350.74,-60C358.82,-60 366.9,-60 374.72,-60"/>
<polygon fill="#63b8ff" stroke="#63b8ff" points="350.85,-56.5 340.85,-60 350.85,-63.5 350.85,-56.5"/>
</a>
</g>
</g>
</g>
</svg>

<g id="navigator" transform="translate(0 0)" fill="#404254">
  <rect fill="#f2f5e9" fill-opacity="0.5" stroke="#606060" stroke-width=".5" x="0" y="0" width="60" height="60"/>
  <use id="zoomplus" xlink:href="#zoomPlus" x="17" y="9" onmousedown="handleZoom(evt,'in')"/>
  <use id="zoomminus" xlink:href="#zoomMin" x="42" y="9" onmousedown="handleZoom(evt,'out')"/>
  <use id="reset" xlink:href="#resetDef" x="30" y="36" onmousedown="handleReset()"/>
  <g id="arrowUp" xlink:href="#dirArrow" transform="translate(30 24)" onmousedown="handlePan(0,-1)">
    <use xlink:href="#rim" fill="#404040">
          <set attributeName="fill" to="#808080" begin="arrowUp.mouseover" end="arrowUp.mouseout"/>
    </use>
    <path fill="none" stroke="white" stroke-width="1.5" d="M0,-3.0v7 M-2.5,-0.5L0,-3.0L2.5,-0.5"/>
  </g>
  <g id="arrowRight" xlink:href="#dirArrow" transform="rotate(90) translate(36 -43)" onmousedown="handlePan(1,0)">
    <use xlink:href="#rim" fill="#404040">
          <set attributeName="fill" to="#808080" begin="arrowRight.mouseover" end="arrowRight.mouseout"/>
    </use>
    <path fill="none" stroke="white" stroke-width="1.5" d="M0,-3.0v7 M-2.5,-0.5L0,-3.0L2.5,-0.5"/>
  </g>
  <g id="arrowDown" xlink:href="#dirArrow" transform="rotate(180) translate(-30 -48)" onmousedown="handlePan(0,1)">
    <use xlink:href="#rim" fill="#404040">
          <set attributeName="fill" to="#808080" begin="arrowDown.mouseover" end="arrowDown.mouseout"/>
    </use>
    <path fill="none" stroke="white" stroke-width="1.5" d="M0,-3.0v7 M-2.5,-0.5L0,-3.0L2.5,-0.5"/>
  </g>
  <g id="arrowLeft" xlink:href="#dirArrow" transform="rotate(270) translate(-36 17)" onmousedown="handlePan(-1,0)">
    <use xlink:href="#rim" fill="#404040">
          <set attributeName="fill" to="#808080" begin="arrowLeft.mouseover" end="arrowLeft.mouseout"/>
    </use>
    <path fill="none" stroke="white" stroke-width="1.5" d="M0,-3.0v7 M-2.5,-0.5L0,-3.0L2.5,-0.5"/>
  </g>
</g>
<svg viewBox="0 0 15 15" width="100%" height="30px" preserveAspectRatio="xMaxYMin meet">
 <g id="arrow_out" transform="scale(0.3 0.3)">
  <a xlink:href="a12280_org.svg" target="_base">
   <rect id="button" ry="5" rx="5" y="6" x="6" height="38" width="38"
        fill="#f2f5e9" fill-opacity="0.5" stroke="#606060" stroke-width="1.0"/>
   <path id="arrow"
     d="M 11.500037,31.436501 C 11.940474,20.09759 22.043105,11.32322 32.158766,21.979434 L 37.068811,17.246167 C 37.068811,17.246167 37.088388,32 37.088388,32 L 22.160133,31.978069 C 22.160133,31.978069 26.997745,27.140456 26.997745,27.140456 C 18.528582,18.264221 13.291696,25.230495 11.500037,31.436501 z"
     style="fill:#404040;"/>
  </a>
 </g>
</svg>

<style type='text/css'>
<![CDATA[
[data-mouse-over-selected='false'] { opacity: 0.7; }
[data-mouse-over-selected='true']  { opacity: 1.0; }
]]>
</style>
<script><![CDATA[
document.addEventListener('DOMContentLoaded', (event) => {
  highlightEdges();
  highlightAdjacentNodes();
});
]]></script>
</svg>
