<?xml version="1.0" encoding="UTF-8" standalone="no"?>
<!DOCTYPE svg PUBLIC "-//W3C//DTD SVG 1.1//EN"
 "http://www.w3.org/Graphics/SVG/1.1/DTD/svg11.dtd">
<!-- Generated by graphviz version 7.1.0 (0)
 -->
<!-- Title: __gnu_cxx::limit_condition Pages: 1 -->
<!--zoomable 82 -->

<svg id="main" version="1.1" xmlns="http://www.w3.org/2000/svg" xmlns:xlink="http://www.w3.org/1999/xlink" xml:space="preserve" onload="init(evt)">
<style type="text/css"><![CDATA[
.node, .edge {opacity: 0.7;}
.node.selected, .edge.selected {opacity: 1;}
.edge:hover path { stroke: red; }
.edge:hover polygon { stroke: red; fill: red; }
]]></style>

<defs>
  <circle id="rim" cx="0" cy="0" r="7"/>
  <circle id="rim2" cx="0" cy="0" r="3.5"/>
  <g id="zoomPlus">
    <use xlink:href="#rim" fill="#404040"><set attributeName="fill" to="#808080" begin="zoomplus.mouseover" end="zoomplus.mouseout"/></use>
    <path d="M-4,0h8M0,-4v8" fill="none" stroke="white" stroke-width="1.5" pointer-events="none"/>
  </g>
  <g id="zoomMin">
    <use xlink:href="#rim" fill="#404040"><set attributeName="fill" to="#808080" begin="zoomminus.mouseover" end="zoomminus.mouseout"/></use>
    <path d="M-4,0h8" fill="none" stroke="white" stroke-width="1.5" pointer-events="none"/>
  </g>
  <g id="dirArrow">
    <path fill="none" stroke="white" stroke-width="1.5" d="M0,-3.0v7 M-2.5,-0.5L0,-3.0L2.5,-0.5"/>
  </g>
 <g id="resetDef">
    <use xlink:href="#rim2" fill="#404040"><set attributeName="fill" to="#808080" begin="reset.mouseover" end="reset.mouseout"/></use>
 </g>
</defs>
<script type="text/javascript">
var viewWidth = 679;
var viewHeight = 82;
var sectionId = 'dynsection-0';
</script>
<script xlink:href="svg.min.js"/>
<svg id="graph" class="graph">
<g id="viewport">
<title>__gnu_cxx::limit_condition</title>
<!-- Node1 -->
<g id="Node000001" class="node">
<title>Node1</title>
<g id="a_Node000001"><a xlink:title="Base class for incremental control and throw.">
<polygon fill="#999999" stroke="#666666" points="309,-46 173,-46 173,-28 309,-28 309,-46"/>
<text text-anchor="middle" x="241" y="-34.8" font-family="Helvetica,sans-Serif" font-size="9.00">__gnu_cxx::limit_condition</text>
</a>
</g>
</g>
<!-- Node3 -->
<g id="Node000003" class="node">
<title>Node3</title>
<g id="a_Node000003"><a xlink:href="a12341.html" target="_top" xlink:title=" ">
<polygon fill="white" stroke="#666666" points="496,-74 345,-74 345,-46 496,-46 496,-74"/>
<text text-anchor="start" x="353" y="-62.8" font-family="Helvetica,sans-Serif" font-size="9.00">__gnu_cxx::throw_allocator</text>
<text text-anchor="middle" x="420.5" y="-52.8" font-family="Helvetica,sans-Serif" font-size="9.00">_base&lt; _Tp, limit_condition &gt;</text>
</a>
</g>
</g>
<!-- Node1&#45;&gt;Node3 -->
<g id="edge2_Node000001_Node000003" class="edge">
<title>Node1&#45;&gt;Node3</title>
<g id="a_edge2_Node000001_Node000003"><a xlink:title=" ">
<path fill="none" stroke="#63b8ff" d="M320.61,-47.19C328.64,-48.23 336.78,-49.28 344.77,-50.32"/>
<polygon fill="#63b8ff" stroke="#63b8ff" points="321.23,-43.74 310.86,-45.92 320.33,-50.68 321.23,-43.74"/>
</a>
</g>
</g>
<!-- Node5 -->
<g id="Node000005" class="node">
<title>Node5</title>
<g id="a_Node000005"><a xlink:href="a12329.html" target="_top" xlink:title=" ">
<polygon fill="white" stroke="#666666" points="485,-28 356,-28 356,0 485,0 485,-28"/>
<text text-anchor="start" x="364" y="-16.8" font-family="Helvetica,sans-Serif" font-size="9.00">__gnu_cxx::throw_value</text>
<text text-anchor="middle" x="420.5" y="-6.8" font-family="Helvetica,sans-Serif" font-size="9.00">_base&lt; limit_condition &gt;</text>
</a>
</g>
</g>
<!-- Node1&#45;&gt;Node5 -->
<g id="edge4_Node000001_Node000005" class="edge">
<title>Node1&#45;&gt;Node5</title>
<g id="a_edge4_Node000001_Node000005"><a xlink:title=" ">
<path fill="none" stroke="#63b8ff" d="M320.53,-26.82C332.29,-25.3 344.3,-23.74 355.7,-22.27"/>
<polygon fill="#63b8ff" stroke="#63b8ff" points="320.33,-23.32 310.86,-28.08 321.23,-30.26 320.33,-23.32"/>
</a>
</g>
</g>
<!-- Node2 -->
<g id="Node000002" class="node">
<title>Node2</title>
<g id="a_Node000002"><a xlink:href="a12285.html" target="_top" xlink:title="Base struct for condition policy.">
<polygon fill="white" stroke="#666666" points="137,-46 0,-46 0,-28 137,-28 137,-46"/>
<text text-anchor="middle" x="68.5" y="-34.8" font-family="Helvetica,sans-Serif" font-size="9.00">__gnu_cxx::condition_base</text>
</a>
</g>
</g>
<!-- Node2&#45;&gt;Node1 -->
<g id="edge1_Node000001_Node000002" class="edge">
<title>Node2&#45;&gt;Node1</title>
<g id="a_edge1_Node000001_Node000002"><a xlink:title=" ">
<path fill="none" stroke="#63b8ff" d="M148.64,-37C156.66,-37 164.76,-37 172.64,-37"/>
<polygon fill="#63b8ff" stroke="#63b8ff" points="148.89,-33.5 138.89,-37 148.89,-40.5 148.89,-33.5"/>
</a>
</g>
</g>
<!-- Node4 -->
<g id="Node000004" class="node">
<title>Node4</title>
<g id="a_Node000004"><a xlink:href="a12345.html" target="_top" xlink:title="Allocator throwing via limit condition.">
<polygon fill="white" stroke="#666666" points="671,-74 532,-74 532,-46 671,-46 671,-74"/>
<text text-anchor="start" x="540" y="-62.8" font-family="Helvetica,sans-Serif" font-size="9.00">__gnu_cxx::throw_allocator</text>
<text text-anchor="middle" x="601.5" y="-52.8" font-family="Helvetica,sans-Serif" font-size="9.00">_limit&lt; _Tp &gt;</text>
</a>
</g>
</g>
<!-- Node3&#45;&gt;Node4 -->
<g id="edge3_Node000003_Node000004" class="edge">
<title>Node3&#45;&gt;Node4</title>
<g id="a_edge3_Node000003_Node000004"><a xlink:title=" ">
<path fill="none" stroke="#63b8ff" d="M507.68,-60C515.72,-60 523.79,-60 531.64,-60"/>
<polygon fill="#63b8ff" stroke="#63b8ff" points="507.89,-56.5 497.89,-60 507.89,-63.5 507.89,-56.5"/>
</a>
</g>
</g>
<!-- Node6 -->
<g id="Node000006" class="node">
<title>Node6</title>
<g id="a_Node000006"><a xlink:href="a12333.html" target="_top" xlink:title="Type throwing via limit condition.">
<polygon fill="white" stroke="#666666" points="664,-28 539,-28 539,0 664,0 664,-28"/>
<text text-anchor="start" x="547" y="-16.8" font-family="Helvetica,sans-Serif" font-size="9.00">__gnu_cxx::throw_value</text>
<text text-anchor="middle" x="601.5" y="-6.8" font-family="Helvetica,sans-Serif" font-size="9.00">_limit</text>
</a>
</g>
</g>
<!-- Node5&#45;&gt;Node6 -->
<g id="edge5_Node000005_Node000006" class="edge">
<title>Node5&#45;&gt;Node6</title>
<g id="a_edge5_Node000005_Node000006"><a xlink:title=" ">
<path fill="none" stroke="#63b8ff" d="M496.52,-14C510.59,-14 525.15,-14 538.76,-14"/>
<polygon fill="#63b8ff" stroke="#63b8ff" points="496.88,-10.5 486.88,-14 496.88,-17.5 496.88,-10.5"/>
</a>
</g>
</g>
</g>
</svg>

<g id="navigator" transform="translate(0 0)" fill="#404254">
  <rect fill="#f2f5e9" fill-opacity="0.5" stroke="#606060" stroke-width=".5" x="0" y="0" width="60" height="60"/>
  <use id="zoomplus" xlink:href="#zoomPlus" x="17" y="9" onmousedown="handleZoom(evt,'in')"/>
  <use id="zoomminus" xlink:href="#zoomMin" x="42" y="9" onmousedown="handleZoom(evt,'out')"/>
  <use id="reset" xlink:href="#resetDef" x="30" y="36" onmousedown="handleReset()"/>
  <g id="arrowUp" xlink:href="#dirArrow" transform="translate(30 24)" onmousedown="handlePan(0,-1)">
    <use xlink:href="#rim" fill="#404040">
          <set attributeName="fill" to="#808080" begin="arrowUp.mouseover" end="arrowUp.mouseout"/>
    </use>
    <path fill="none" stroke="white" stroke-width="1.5" d="M0,-3.0v7 M-2.5,-0.5L0,-3.0L2.5,-0.5"/>
  </g>
  <g id="arrowRight" xlink:href="#dirArrow" transform="rotate(90) translate(36 -43)" onmousedown="handlePan(1,0)">
    <use xlink:href="#rim" fill="#404040">
          <set attributeName="fill" to="#808080" begin="arrowRight.mouseover" end="arrowRight.mouseout"/>
    </use>
    <path fill="none" stroke="white" stroke-width="1.5" d="M0,-3.0v7 M-2.5,-0.5L0,-3.0L2.5,-0.5"/>
  </g>
  <g id="arrowDown" xlink:href="#dirArrow" transform="rotate(180) translate(-30 -48)" onmousedown="handlePan(0,1)">
    <use xlink:href="#rim" fill="#404040">
          <set attributeName="fill" to="#808080" begin="arrowDown.mouseover" end="arrowDown.mouseout"/>
    </use>
    <path fill="none" stroke="white" stroke-width="1.5" d="M0,-3.0v7 M-2.5,-0.5L0,-3.0L2.5,-0.5"/>
  </g>
  <g id="arrowLeft" xlink:href="#dirArrow" transform="rotate(270) translate(-36 17)" onmousedown="handlePan(-1,0)">
    <use xlink:href="#rim" fill="#404040">
          <set attributeName="fill" to="#808080" begin="arrowLeft.mouseover" end="arrowLeft.mouseout"/>
    </use>
    <path fill="none" stroke="white" stroke-width="1.5" d="M0,-3.0v7 M-2.5,-0.5L0,-3.0L2.5,-0.5"/>
  </g>
</g>
<svg viewBox="0 0 15 15" width="100%" height="30px" preserveAspectRatio="xMaxYMin meet">
 <g id="arrow_out" transform="scale(0.3 0.3)">
  <a xlink:href="a12288_org.svg" target="_base">
   <rect id="button" ry="5" rx="5" y="6" x="6" height="38" width="38"
        fill="#f2f5e9" fill-opacity="0.5" stroke="#606060" stroke-width="1.0"/>
   <path id="arrow"
     d="M 11.500037,31.436501 C 11.940474,20.09759 22.043105,11.32322 32.158766,21.979434 L 37.068811,17.246167 C 37.068811,17.246167 37.088388,32 37.088388,32 L 22.160133,31.978069 C 22.160133,31.978069 26.997745,27.140456 26.997745,27.140456 C 18.528582,18.264221 13.291696,25.230495 11.500037,31.436501 z"
     style="fill:#404040;"/>
  </a>
 </g>
</svg>

<style type='text/css'>
<![CDATA[
[data-mouse-over-selected='false'] { opacity: 0.7; }
[data-mouse-over-selected='true']  { opacity: 1.0; }
]]>
</style>
<script><![CDATA[
document.addEventListener('DOMContentLoaded', (event) => {
  highlightEdges();
  highlightAdjacentNodes();
});
]]></script>
</svg>
