<?xml version="1.0" encoding="UTF-8" standalone="no"?>
<!DOCTYPE svg PUBLIC "-//W3C//DTD SVG 1.1//EN"
 "http://www.w3.org/Graphics/SVG/1.1/DTD/svg11.dtd">
<!-- Generated by graphviz version 7.1.0 (0)
 -->
<!-- Title: __gnu_cxx::condition_base Pages: 1 -->
<svg width="711pt" height="174pt"
 viewBox="0.00 0.00 711.00 174.00" xmlns="http://www.w3.org/2000/svg" xmlns:xlink="http://www.w3.org/1999/xlink">
<g id="graph0" class="graph" transform="scale(1 1) rotate(0) translate(4 170)">
<title>__gnu_cxx::condition_base</title>
<!-- Node1 -->
<g id="Node000001" class="node">
<title>Node1</title>
<g id="a_Node000001"><a xlink:title="Base struct for condition policy.">
<polygon fill="#999999" stroke="#666666" points="137,-92 0,-92 0,-74 137,-74 137,-92"/>
<text text-anchor="middle" x="68.5" y="-80.8" font-family="Helvetica,sans-Serif" font-size="9.00">__gnu_cxx::condition_base</text>
</a>
</g>
</g>
<!-- Node2 -->
<g id="Node000002" class="node">
<title>Node2</title>
<g id="a_Node000002"><a xlink:href="a12289.html" target="_top" xlink:title="Base class for incremental control and throw.">
<polygon fill="white" stroke="#666666" points="317,-115 181,-115 181,-97 317,-97 317,-115"/>
<text text-anchor="middle" x="249" y="-103.8" font-family="Helvetica,sans-Serif" font-size="9.00">__gnu_cxx::limit_condition</text>
</a>
</g>
</g>
<!-- Node1&#45;&gt;Node2 -->
<g id="edge1_Node000001_Node000002" class="edge">
<title>Node1&#45;&gt;Node2</title>
<g id="a_edge1_Node000001_Node000002"><a xlink:title=" ">
<path fill="none" stroke="#63b8ff" d="M148.59,-93.19C159.34,-94.58 170.28,-95.99 180.79,-97.34"/>
<polygon fill="#63b8ff" stroke="#63b8ff" points="149.36,-89.76 138.99,-91.95 148.46,-96.7 149.36,-89.76"/>
</a>
</g>
</g>
<!-- Node7 -->
<g id="Node000007" class="node">
<title>Node7</title>
<g id="a_Node000007"><a xlink:href="a12309.html" target="_top" xlink:title="Base class for random probability control and throw.">
<polygon fill="white" stroke="#666666" points="325,-69 173,-69 173,-51 325,-51 325,-69"/>
<text text-anchor="middle" x="249" y="-57.8" font-family="Helvetica,sans-Serif" font-size="9.00">__gnu_cxx::random_condition</text>
</a>
</g>
</g>
<!-- Node1&#45;&gt;Node7 -->
<g id="edge6_Node000001_Node000007" class="edge">
<title>Node1&#45;&gt;Node7</title>
<g id="a_edge6_Node000001_Node000007"><a xlink:title=" ">
<path fill="none" stroke="#63b8ff" d="M148.7,-72.8C157.3,-71.69 166.02,-70.56 174.55,-69.46"/>
<polygon fill="#63b8ff" stroke="#63b8ff" points="148.46,-69.3 138.99,-74.05 149.36,-76.24 148.46,-69.3"/>
</a>
</g>
</g>
<!-- Node3 -->
<g id="Node000003" class="node">
<title>Node3</title>
<g id="a_Node000003"><a xlink:href="a12341.html" target="_top" xlink:title=" ">
<polygon fill="white" stroke="#666666" points="520,-166 369,-166 369,-138 520,-138 520,-166"/>
<text text-anchor="start" x="377" y="-154.8" font-family="Helvetica,sans-Serif" font-size="9.00">__gnu_cxx::throw_allocator</text>
<text text-anchor="middle" x="444.5" y="-144.8" font-family="Helvetica,sans-Serif" font-size="9.00">_base&lt; _Tp, limit_condition &gt;</text>
</a>
</g>
</g>
<!-- Node2&#45;&gt;Node3 -->
<g id="edge2_Node000002_Node000003" class="edge">
<title>Node2&#45;&gt;Node3</title>
<g id="a_edge2_Node000002_Node000003"><a xlink:title=" ">
<path fill="none" stroke="#63b8ff" d="M300.73,-118.06C325.81,-124.02 356.25,-131.26 382.58,-137.52"/>
<polygon fill="#63b8ff" stroke="#63b8ff" points="301.64,-114.68 291.1,-115.77 300.02,-121.49 301.64,-114.68"/>
</a>
</g>
</g>
<!-- Node5 -->
<g id="Node000005" class="node">
<title>Node5</title>
<g id="a_Node000005"><a xlink:href="a12329.html" target="_top" xlink:title=" ">
<polygon fill="white" stroke="#666666" points="509,-120 380,-120 380,-92 509,-92 509,-120"/>
<text text-anchor="start" x="388" y="-108.8" font-family="Helvetica,sans-Serif" font-size="9.00">__gnu_cxx::throw_value</text>
<text text-anchor="middle" x="444.5" y="-98.8" font-family="Helvetica,sans-Serif" font-size="9.00">_base&lt; limit_condition &gt;</text>
</a>
</g>
</g>
<!-- Node2&#45;&gt;Node5 -->
<g id="edge4_Node000002_Node000005" class="edge">
<title>Node2&#45;&gt;Node5</title>
<g id="a_edge4_Node000002_Node000005"><a xlink:title=" ">
<path fill="none" stroke="#63b8ff" d="M328.44,-106C345.44,-106 363.23,-106 379.59,-106"/>
<polygon fill="#63b8ff" stroke="#63b8ff" points="328.92,-102.5 318.92,-106 328.92,-109.5 328.92,-102.5"/>
</a>
</g>
</g>
<!-- Node4 -->
<g id="Node000004" class="node">
<title>Node4</title>
<g id="a_Node000004"><a xlink:href="a12345.html" target="_top" xlink:title="Allocator throwing via limit condition.">
<polygon fill="white" stroke="#666666" points="703,-166 564,-166 564,-138 703,-138 703,-166"/>
<text text-anchor="start" x="572" y="-154.8" font-family="Helvetica,sans-Serif" font-size="9.00">__gnu_cxx::throw_allocator</text>
<text text-anchor="middle" x="633.5" y="-144.8" font-family="Helvetica,sans-Serif" font-size="9.00">_limit&lt; _Tp &gt;</text>
</a>
</g>
</g>
<!-- Node3&#45;&gt;Node4 -->
<g id="edge3_Node000003_Node000004" class="edge">
<title>Node3&#45;&gt;Node4</title>
<g id="a_edge3_Node000003_Node000004"><a xlink:title=" ">
<path fill="none" stroke="#63b8ff" d="M531.92,-152C542.53,-152 553.26,-152 563.56,-152"/>
<polygon fill="#63b8ff" stroke="#63b8ff" points="532,-148.5 522,-152 532,-155.5 532,-148.5"/>
</a>
</g>
</g>
<!-- Node6 -->
<g id="Node000006" class="node">
<title>Node6</title>
<g id="a_Node000006"><a xlink:href="a12333.html" target="_top" xlink:title="Type throwing via limit condition.">
<polygon fill="white" stroke="#666666" points="696,-120 571,-120 571,-92 696,-92 696,-120"/>
<text text-anchor="start" x="579" y="-108.8" font-family="Helvetica,sans-Serif" font-size="9.00">__gnu_cxx::throw_value</text>
<text text-anchor="middle" x="633.5" y="-98.8" font-family="Helvetica,sans-Serif" font-size="9.00">_limit</text>
</a>
</g>
</g>
<!-- Node5&#45;&gt;Node6 -->
<g id="edge5_Node000005_Node000006" class="edge">
<title>Node5&#45;&gt;Node6</title>
<g id="a_edge5_Node000005_Node000006"><a xlink:title=" ">
<path fill="none" stroke="#63b8ff" d="M520.64,-106C537.2,-106 554.57,-106 570.54,-106"/>
<polygon fill="#63b8ff" stroke="#63b8ff" points="520.85,-102.5 510.85,-106 520.85,-109.5 520.85,-102.5"/>
</a>
</g>
</g>
<!-- Node8 -->
<g id="Node000008" class="node">
<title>Node8</title>
<g id="a_Node000008"><a xlink:href="a12341.html" target="_top" xlink:title=" ">
<polygon fill="white" stroke="#666666" points="528,-74 361,-74 361,-46 528,-46 528,-74"/>
<text text-anchor="start" x="369" y="-62.8" font-family="Helvetica,sans-Serif" font-size="9.00">__gnu_cxx::throw_allocator</text>
<text text-anchor="middle" x="444.5" y="-52.8" font-family="Helvetica,sans-Serif" font-size="9.00">_base&lt; _Tp, random_condition &gt;</text>
</a>
</g>
</g>
<!-- Node7&#45;&gt;Node8 -->
<g id="edge7_Node000007_Node000008" class="edge">
<title>Node7&#45;&gt;Node8</title>
<g id="a_edge7_Node000007_Node000008"><a xlink:title=" ">
<path fill="none" stroke="#63b8ff" d="M336.87,-60C344.78,-60 352.77,-60 360.65,-60"/>
<polygon fill="#63b8ff" stroke="#63b8ff" points="336.88,-56.5 326.88,-60 336.88,-63.5 336.88,-56.5"/>
</a>
</g>
</g>
<!-- Node10 -->
<g id="Node000010" class="node">
<title>Node10</title>
<g id="a_Node000010"><a xlink:href="a12329.html" target="_top" xlink:title=" ">
<polygon fill="white" stroke="#666666" points="517,-28 372,-28 372,0 517,0 517,-28"/>
<text text-anchor="start" x="380" y="-16.8" font-family="Helvetica,sans-Serif" font-size="9.00">__gnu_cxx::throw_value</text>
<text text-anchor="middle" x="444.5" y="-6.8" font-family="Helvetica,sans-Serif" font-size="9.00">_base&lt; random_condition &gt;</text>
</a>
</g>
</g>
<!-- Node7&#45;&gt;Node10 -->
<g id="edge9_Node000007_Node000010" class="edge">
<title>Node7&#45;&gt;Node10</title>
<g id="a_edge9_Node000007_Node000010"><a xlink:title=" ">
<path fill="none" stroke="#63b8ff" d="M300.73,-47.94C325.81,-41.98 356.25,-34.74 382.58,-28.48"/>
<polygon fill="#63b8ff" stroke="#63b8ff" points="300.02,-44.51 291.1,-50.23 301.64,-51.32 300.02,-44.51"/>
</a>
</g>
</g>
<!-- Node9 -->
<g id="Node000009" class="node">
<title>Node9</title>
<g id="a_Node000009"><a xlink:href="a12353.html" target="_top" xlink:title="Allocator throwing via random condition.">
<polygon fill="white" stroke="#666666" points="703,-74 564,-74 564,-46 703,-46 703,-74"/>
<text text-anchor="start" x="572" y="-62.8" font-family="Helvetica,sans-Serif" font-size="9.00">__gnu_cxx::throw_allocator</text>
<text text-anchor="middle" x="633.5" y="-52.8" font-family="Helvetica,sans-Serif" font-size="9.00">_random&lt; _Tp &gt;</text>
</a>
</g>
</g>
<!-- Node8&#45;&gt;Node9 -->
<g id="edge8_Node000008_Node000009" class="edge">
<title>Node8&#45;&gt;Node9</title>
<g id="a_edge8_Node000008_Node000009"><a xlink:title=" ">
<path fill="none" stroke="#63b8ff" d="M539.74,-60C547.82,-60 555.9,-60 563.72,-60"/>
<polygon fill="#63b8ff" stroke="#63b8ff" points="539.85,-56.5 529.85,-60 539.85,-63.5 539.85,-56.5"/>
</a>
</g>
</g>
<!-- Node11 -->
<g id="Node000011" class="node">
<title>Node11</title>
<g id="a_Node000011"><a xlink:href="a12337.html" target="_top" xlink:title="Type throwing via random condition.">
<polygon fill="white" stroke="#666666" points="696,-28 571,-28 571,0 696,0 696,-28"/>
<text text-anchor="start" x="579" y="-16.8" font-family="Helvetica,sans-Serif" font-size="9.00">__gnu_cxx::throw_value</text>
<text text-anchor="middle" x="633.5" y="-6.8" font-family="Helvetica,sans-Serif" font-size="9.00">_random</text>
</a>
</g>
</g>
<!-- Node10&#45;&gt;Node11 -->
<g id="edge10_Node000010_Node000011" class="edge">
<title>Node10&#45;&gt;Node11</title>
<g id="a_edge10_Node000010_Node000011"><a xlink:title=" ">
<path fill="none" stroke="#63b8ff" d="M528.53,-14C542.7,-14 557.19,-14 570.68,-14"/>
<polygon fill="#63b8ff" stroke="#63b8ff" points="528.78,-10.5 518.78,-14 528.78,-17.5 528.78,-10.5"/>
</a>
</g>
</g>
</g>
</svg>
