<?xml version="1.0" encoding="UTF-8" standalone="no"?>
<!DOCTYPE svg PUBLIC "-//W3C//DTD SVG 1.1//EN"
 "http://www.w3.org/Graphics/SVG/1.1/DTD/svg11.dtd">
<!-- Generated by graphviz version 7.1.0 (0)
 -->
<!-- Title: __gnu_pbds::join_error Pages: 1 -->
<svg width="127pt" height="198pt"
 viewBox="0.00 0.00 127.00 198.00" xmlns="http://www.w3.org/2000/svg" xmlns:xlink="http://www.w3.org/1999/xlink">
<g id="graph0" class="graph" transform="scale(1 1) rotate(0) translate(4 194)">
<title>__gnu_pbds::join_error</title>
<!-- Node1 -->
<g id="Node000001" class="node">
<title>Node1</title>
<g id="a_Node000001"><a xlink:title="A join cannot be performed logical reasons (i.e., the ranges of the two container objects being joine...">
<polygon fill="#999999" stroke="#666666" points="119,-18 0,-18 0,0 119,0 119,-18"/>
<text text-anchor="middle" x="59.5" y="-6.8" font-family="Helvetica,sans-Serif" font-size="9.00">__gnu_pbds::join_error</text>
</a>
</g>
</g>
<!-- Node2 -->
<g id="Node000002" class="node">
<title>Node2</title>
<g id="a_Node000002"><a xlink:href="a12729.html" target="_top" xlink:title="Base class for exceptions.">
<polygon fill="white" stroke="#666666" points="119,-82 0,-82 0,-54 119,-54 119,-82"/>
<text text-anchor="start" x="8" y="-70.8" font-family="Helvetica,sans-Serif" font-size="9.00">__gnu_pbds::container</text>
<text text-anchor="middle" x="59.5" y="-60.8" font-family="Helvetica,sans-Serif" font-size="9.00">_error</text>
</a>
</g>
</g>
<!-- Node2&#45;&gt;Node1 -->
<g id="edge1_Node000001_Node000002" class="edge">
<title>Node2&#45;&gt;Node1</title>
<g id="a_edge1_Node000001_Node000002"><a xlink:title=" ">
<path fill="none" stroke="#63b8ff" d="M59.5,-42.31C59.5,-33.75 59.5,-24.71 59.5,-18.38"/>
<polygon fill="#63b8ff" stroke="#63b8ff" points="56,-42.27 59.5,-52.27 63,-42.27 56,-42.27"/>
</a>
</g>
</g>
<!-- Node3 -->
<g id="Node000003" class="node">
<title>Node3</title>
<g id="a_Node000003"><a xlink:href="a03461.html" target="_top" xlink:title="One of two subclasses of exception.">
<polygon fill="white" stroke="#666666" points="101.5,-136 17.5,-136 17.5,-118 101.5,-118 101.5,-136"/>
<text text-anchor="middle" x="59.5" y="-124.8" font-family="Helvetica,sans-Serif" font-size="9.00">std::logic_error</text>
</a>
</g>
</g>
<!-- Node3&#45;&gt;Node2 -->
<g id="edge2_Node000002_Node000003" class="edge">
<title>Node3&#45;&gt;Node2</title>
<g id="a_edge2_Node000002_Node000003"><a xlink:title=" ">
<path fill="none" stroke="#63b8ff" d="M59.5,-106.08C59.5,-98.21 59.5,-89.38 59.5,-82.31"/>
<polygon fill="#63b8ff" stroke="#63b8ff" points="56,-106.08 59.5,-116.08 63,-106.08 56,-106.08"/>
</a>
</g>
</g>
<!-- Node4 -->
<g id="Node000004" class="node">
<title>Node4</title>
<g id="a_Node000004"><a xlink:href="a05761.html" target="_top" xlink:title="Base class for all library exceptions.">
<polygon fill="white" stroke="#666666" points="99.5,-190 19.5,-190 19.5,-172 99.5,-172 99.5,-190"/>
<text text-anchor="middle" x="59.5" y="-178.8" font-family="Helvetica,sans-Serif" font-size="9.00">std::exception</text>
</a>
</g>
</g>
<!-- Node4&#45;&gt;Node3 -->
<g id="edge3_Node000003_Node000004" class="edge">
<title>Node4&#45;&gt;Node3</title>
<g id="a_edge3_Node000003_Node000004"><a xlink:title=" ">
<path fill="none" stroke="#63b8ff" d="M59.5,-160.39C59.5,-152.03 59.5,-142.72 59.5,-136.24"/>
<polygon fill="#63b8ff" stroke="#63b8ff" points="56,-160.36 59.5,-170.36 63,-160.36 56,-160.36"/>
</a>
</g>
</g>
</g>
</svg>
