<?xml version="1.0" encoding="UTF-8" standalone="no"?>
<!DOCTYPE svg PUBLIC "-//W3C//DTD SVG 1.1//EN"
 "http://www.w3.org/Graphics/SVG/1.1/DTD/svg11.dtd">
<!-- Generated by graphviz version 7.1.0 (0)
 -->
<!-- Title: __gnu_pbds::insert_error Pages: 1 -->
<svg width="127pt" height="208pt"
 viewBox="0.00 0.00 127.00 208.00" xmlns="http://www.w3.org/2000/svg" xmlns:xlink="http://www.w3.org/1999/xlink">
<g id="graph0" class="graph" transform="scale(1 1) rotate(0) translate(4 204)">
<title>__gnu_pbds::insert_error</title>
<!-- Node1 -->
<g id="Node000001" class="node">
<title>Node1</title>
<g id="a_Node000001"><a xlink:title="An entry cannot be inserted into a container object for logical reasons (not, e.g....">
<polygon fill="#999999" stroke="#666666" points="110.5,-28 8.5,-28 8.5,0 110.5,0 110.5,-28"/>
<text text-anchor="start" x="16.5" y="-16.8" font-family="Helvetica,sans-Serif" font-size="9.00">__gnu_pbds::insert</text>
<text text-anchor="middle" x="59.5" y="-6.8" font-family="Helvetica,sans-Serif" font-size="9.00">_error</text>
</a>
</g>
</g>
<!-- Node2 -->
<g id="Node000002" class="node">
<title>Node2</title>
<g id="a_Node000002"><a xlink:href="a12729.html" target="_top" xlink:title="Base class for exceptions.">
<polygon fill="white" stroke="#666666" points="119,-92 0,-92 0,-64 119,-64 119,-92"/>
<text text-anchor="start" x="8" y="-80.8" font-family="Helvetica,sans-Serif" font-size="9.00">__gnu_pbds::container</text>
<text text-anchor="middle" x="59.5" y="-70.8" font-family="Helvetica,sans-Serif" font-size="9.00">_error</text>
</a>
</g>
</g>
<!-- Node2&#45;&gt;Node1 -->
<g id="edge1_Node000001_Node000002" class="edge">
<title>Node2&#45;&gt;Node1</title>
<g id="a_edge1_Node000001_Node000002"><a xlink:title=" ">
<path fill="none" stroke="#63b8ff" d="M59.5,-52.03C59.5,-43.97 59.5,-35.33 59.5,-28.43"/>
<polygon fill="#63b8ff" stroke="#63b8ff" points="56,-52.03 59.5,-62.03 63,-52.03 56,-52.03"/>
</a>
</g>
</g>
<!-- Node3 -->
<g id="Node000003" class="node">
<title>Node3</title>
<g id="a_Node000003"><a xlink:href="a03461.html" target="_top" xlink:title="One of two subclasses of exception.">
<polygon fill="white" stroke="#666666" points="101.5,-146 17.5,-146 17.5,-128 101.5,-128 101.5,-146"/>
<text text-anchor="middle" x="59.5" y="-134.8" font-family="Helvetica,sans-Serif" font-size="9.00">std::logic_error</text>
</a>
</g>
</g>
<!-- Node3&#45;&gt;Node2 -->
<g id="edge2_Node000002_Node000003" class="edge">
<title>Node3&#45;&gt;Node2</title>
<g id="a_edge2_Node000002_Node000003"><a xlink:title=" ">
<path fill="none" stroke="#63b8ff" d="M59.5,-116.08C59.5,-108.21 59.5,-99.38 59.5,-92.31"/>
<polygon fill="#63b8ff" stroke="#63b8ff" points="56,-116.08 59.5,-126.08 63,-116.08 56,-116.08"/>
</a>
</g>
</g>
<!-- Node4 -->
<g id="Node000004" class="node">
<title>Node4</title>
<g id="a_Node000004"><a xlink:href="a05761.html" target="_top" xlink:title="Base class for all library exceptions.">
<polygon fill="white" stroke="#666666" points="99.5,-200 19.5,-200 19.5,-182 99.5,-182 99.5,-200"/>
<text text-anchor="middle" x="59.5" y="-188.8" font-family="Helvetica,sans-Serif" font-size="9.00">std::exception</text>
</a>
</g>
</g>
<!-- Node4&#45;&gt;Node3 -->
<g id="edge3_Node000003_Node000004" class="edge">
<title>Node4&#45;&gt;Node3</title>
<g id="a_edge3_Node000003_Node000004"><a xlink:title=" ">
<path fill="none" stroke="#63b8ff" d="M59.5,-170.39C59.5,-162.03 59.5,-152.72 59.5,-146.24"/>
<polygon fill="#63b8ff" stroke="#63b8ff" points="56,-170.36 59.5,-180.36 63,-170.36 56,-170.36"/>
</a>
</g>
</g>
</g>
</svg>
