<?xml version="1.0" encoding="UTF-8" standalone="no"?>
<!DOCTYPE svg PUBLIC "-//W3C//DTD SVG 1.1//EN"
 "http://www.w3.org/Graphics/SVG/1.1/DTD/svg11.dtd">
<!-- Generated by graphviz version 7.1.0 (0)
 -->
<!-- Title: __gnu_pbds::container_tag Pages: 1 -->
<svg width="868pt" height="453pt"
 viewBox="0.00 0.00 868.00 453.00" xmlns="http://www.w3.org/2000/svg" xmlns:xlink="http://www.w3.org/1999/xlink">
<g id="graph0" class="graph" transform="scale(1 1) rotate(0) translate(4 449)">
<title>__gnu_pbds::container_tag</title>
<!-- Node1 -->
<g id="Node000001" class="node">
<title>Node1</title>
<g id="a_Node000001"><a xlink:title="Base data structure tag.">
<polygon fill="#999999" stroke="#666666" points="139,-141 0,-141 0,-123 139,-123 139,-141"/>
<text text-anchor="middle" x="69.5" y="-129.8" font-family="Helvetica,sans-Serif" font-size="9.00">__gnu_pbds::container_tag</text>
</a>
</g>
</g>
<!-- Node2 -->
<g id="Node000002" class="node">
<title>Node2</title>
<g id="a_Node000002"><a xlink:href="a12821.html" target="_top" xlink:title="Basic associative&#45;container.">
<polygon fill="white" stroke="#666666" points="320,-292 175,-292 175,-274 320,-274 320,-292"/>
<text text-anchor="middle" x="247.5" y="-280.8" font-family="Helvetica,sans-Serif" font-size="9.00">__gnu_pbds::associative_tag</text>
</a>
</g>
</g>
<!-- Node1&#45;&gt;Node2 -->
<g id="edge1_Node000001_Node000002" class="edge">
<title>Node1&#45;&gt;Node2</title>
<g id="a_edge1_Node000001_Node000002"><a xlink:title=" ">
<path fill="none" stroke="#63b8ff" d="M89.94,-148.68C126.94,-180.42 206.36,-248.56 235.49,-273.56"/>
<polygon fill="#63b8ff" stroke="#63b8ff" points="92.53,-146.29 82.66,-142.43 87.97,-151.6 92.53,-146.29"/>
</a>
</g>
</g>
<!-- Node14 -->
<g id="Node000014" class="node">
<title>Node14</title>
<g id="a_Node000014"><a xlink:href="a12869.html" target="_top" xlink:title="Basic priority&#45;queue.">
<polygon fill="white" stroke="#666666" points="302,-146 193,-146 193,-118 302,-118 302,-146"/>
<text text-anchor="start" x="201" y="-134.8" font-family="Helvetica,sans-Serif" font-size="9.00">__gnu_pbds::priority</text>
<text text-anchor="middle" x="247.5" y="-124.8" font-family="Helvetica,sans-Serif" font-size="9.00">_queue_tag</text>
</a>
</g>
</g>
<!-- Node1&#45;&gt;Node14 -->
<g id="edge13_Node000001_Node000014" class="edge">
<title>Node1&#45;&gt;Node14</title>
<g id="a_edge13_Node000001_Node000014"><a xlink:title=" ">
<path fill="none" stroke="#63b8ff" d="M150.65,-132C164.9,-132 179.43,-132 192.73,-132"/>
<polygon fill="#63b8ff" stroke="#63b8ff" points="150.82,-128.5 140.82,-132 150.82,-135.5 150.82,-128.5"/>
</a>
</g>
</g>
<!-- Node20 -->
<g id="Node000020" class="node">
<title>Node20</title>
<g id="a_Node000020"><a xlink:href="a12813.html" target="_top" xlink:title="Basic sequence.">
<polygon fill="white" stroke="#666666" points="317.5,-59 177.5,-59 177.5,-41 317.5,-41 317.5,-59"/>
<text text-anchor="middle" x="247.5" y="-47.8" font-family="Helvetica,sans-Serif" font-size="9.00">__gnu_pbds::sequence_tag</text>
</a>
</g>
</g>
<!-- Node1&#45;&gt;Node20 -->
<g id="edge19_Node000001_Node000020" class="edge">
<title>Node1&#45;&gt;Node20</title>
<g id="a_edge19_Node000001_Node000020"><a xlink:title=" ">
<path fill="none" stroke="#63b8ff" d="M101.05,-117.77C136.97,-101.03 195.57,-73.73 226.28,-59.42"/>
<polygon fill="#63b8ff" stroke="#63b8ff" points="99.65,-114.56 92.06,-121.95 102.6,-120.9 99.65,-114.56"/>
</a>
</g>
</g>
<!-- Node3 -->
<g id="Node000003" class="node">
<title>Node3</title>
<g id="a_Node000003"><a xlink:href="a12837.html" target="_top" xlink:title="Basic branch structure.">
<polygon fill="white" stroke="#666666" points="512,-346 356,-346 356,-328 512,-328 512,-346"/>
<text text-anchor="middle" x="434" y="-334.8" font-family="Helvetica,sans-Serif" font-size="9.00">__gnu_pbds::basic_branch_tag</text>
</a>
</g>
</g>
<!-- Node2&#45;&gt;Node3 -->
<g id="edge2_Node000002_Node000003" class="edge">
<title>Node2&#45;&gt;Node3</title>
<g id="a_edge2_Node000002_Node000003"><a xlink:title=" ">
<path fill="none" stroke="#63b8ff" d="M285.19,-296.23C305.85,-303.45 332.2,-312.25 356,-319 366.7,-322.03 378.33,-324.95 389.25,-327.52"/>
<polygon fill="#63b8ff" stroke="#63b8ff" points="286.38,-292.94 275.78,-292.92 284.05,-299.54 286.38,-292.94"/>
</a>
</g>
</g>
<!-- Node10 -->
<g id="Node000010" class="node">
<title>Node10</title>
<g id="a_Node000010"><a xlink:href="a12825.html" target="_top" xlink:title="Basic hash structure.">
<polygon fill="white" stroke="#666666" points="507,-310 361,-310 361,-292 507,-292 507,-310"/>
<text text-anchor="middle" x="434" y="-298.8" font-family="Helvetica,sans-Serif" font-size="9.00">__gnu_pbds::basic_hash_tag</text>
</a>
</g>
</g>
<!-- Node2&#45;&gt;Node10 -->
<g id="edge9_Node000002_Node000010" class="edge">
<title>Node2&#45;&gt;Node10</title>
<g id="a_edge9_Node000002_Node000010"><a xlink:title=" ">
<path fill="none" stroke="#63b8ff" d="M331.66,-291.11C341.36,-292.06 351.19,-293.02 360.73,-293.95"/>
<polygon fill="#63b8ff" stroke="#63b8ff" points="332.16,-287.65 321.87,-290.16 331.48,-294.61 332.16,-287.65"/>
</a>
</g>
</g>
<!-- Node13 -->
<g id="Node000013" class="node">
<title>Node13</title>
<g id="a_Node000013"><a xlink:href="a12865.html" target="_top" xlink:title="List&#45;update.">
<polygon fill="white" stroke="#666666" points="507,-274 361,-274 361,-256 507,-256 507,-274"/>
<text text-anchor="middle" x="434" y="-262.8" font-family="Helvetica,sans-Serif" font-size="9.00">__gnu_pbds::list_update_tag</text>
</a>
</g>
</g>
<!-- Node2&#45;&gt;Node13 -->
<g id="edge12_Node000002_Node000013" class="edge">
<title>Node2&#45;&gt;Node13</title>
<g id="a_edge12_Node000002_Node000013"><a xlink:title=" ">
<path fill="none" stroke="#63b8ff" d="M331.66,-274.89C341.36,-273.94 351.19,-272.98 360.73,-272.05"/>
<polygon fill="#63b8ff" stroke="#63b8ff" points="331.48,-271.39 321.87,-275.84 332.16,-278.35 331.48,-271.39"/>
</a>
</g>
</g>
<!-- Node4 -->
<g id="Node000004" class="node">
<title>Node4</title>
<g id="a_Node000004"><a xlink:href="a12841.html" target="_top" xlink:title="Basic tree structure.">
<polygon fill="white" stroke="#666666" points="672,-400 558,-400 558,-382 672,-382 672,-400"/>
<text text-anchor="middle" x="615" y="-388.8" font-family="Helvetica,sans-Serif" font-size="9.00">__gnu_pbds::tree_tag</text>
</a>
</g>
</g>
<!-- Node3&#45;&gt;Node4 -->
<g id="edge3_Node000003_Node000004" class="edge">
<title>Node3&#45;&gt;Node4</title>
<g id="a_edge3_Node000003_Node000004"><a xlink:title=" ">
<path fill="none" stroke="#63b8ff" d="M477.08,-349.69C509.39,-359.44 553.29,-372.68 582.58,-381.52"/>
<polygon fill="#63b8ff" stroke="#63b8ff" points="478.21,-346.38 467.63,-346.84 476.19,-353.08 478.21,-346.38"/>
</a>
</g>
</g>
<!-- Node8 -->
<g id="Node000008" class="node">
<title>Node8</title>
<g id="a_Node000008"><a xlink:href="a12857.html" target="_top" xlink:title="Basic trie structure.">
<polygon fill="white" stroke="#666666" points="670.5,-346 559.5,-346 559.5,-328 670.5,-328 670.5,-346"/>
<text text-anchor="middle" x="615" y="-334.8" font-family="Helvetica,sans-Serif" font-size="9.00">__gnu_pbds::trie_tag</text>
</a>
</g>
</g>
<!-- Node3&#45;&gt;Node8 -->
<g id="edge7_Node000003_Node000008" class="edge">
<title>Node3&#45;&gt;Node8</title>
<g id="a_edge7_Node000003_Node000008"><a xlink:title=" ">
<path fill="none" stroke="#63b8ff" d="M523.93,-337C535.91,-337 547.91,-337 559.06,-337"/>
<polygon fill="#63b8ff" stroke="#63b8ff" points="523.98,-333.5 513.98,-337 523.98,-340.5 523.98,-333.5"/>
</a>
</g>
</g>
<!-- Node5 -->
<g id="Node000005" class="node">
<title>Node5</title>
<g id="a_Node000005"><a xlink:href="a12853.html" target="_top" xlink:title="Ordered&#45;vector tree.">
<polygon fill="white" stroke="#666666" points="853.5,-445 724.5,-445 724.5,-427 853.5,-427 853.5,-445"/>
<text text-anchor="middle" x="789" y="-433.8" font-family="Helvetica,sans-Serif" font-size="9.00">__gnu_pbds::ov_tree_tag</text>
</a>
</g>
</g>
<!-- Node4&#45;&gt;Node5 -->
<g id="edge4_Node000004_Node000005" class="edge">
<title>Node4&#45;&gt;Node5</title>
<g id="a_edge4_Node000004_Node000005"><a xlink:title=" ">
<path fill="none" stroke="#63b8ff" d="M662.42,-403.36C679.85,-407.98 699.83,-413.26 718,-418 728.68,-420.79 740.3,-423.79 750.93,-426.52"/>
<polygon fill="#63b8ff" stroke="#63b8ff" points="663.41,-400 652.85,-400.82 661.62,-406.77 663.41,-400"/>
</a>
</g>
</g>
<!-- Node6 -->
<g id="Node000006" class="node">
<title>Node6</title>
<g id="a_Node000006"><a xlink:href="a12845.html" target="_top" xlink:title="Red&#45;black tree.">
<polygon fill="white" stroke="#666666" points="853,-409 725,-409 725,-391 853,-391 853,-409"/>
<text text-anchor="middle" x="789" y="-397.8" font-family="Helvetica,sans-Serif" font-size="9.00">__gnu_pbds::rb_tree_tag</text>
</a>
</g>
</g>
<!-- Node4&#45;&gt;Node6 -->
<g id="edge5_Node000004_Node000006" class="edge">
<title>Node4&#45;&gt;Node6</title>
<g id="a_edge5_Node000004_Node000006"><a xlink:title=" ">
<path fill="none" stroke="#63b8ff" d="M683.53,-394.53C697.09,-395.24 711.29,-395.99 724.71,-396.69"/>
<polygon fill="#63b8ff" stroke="#63b8ff" points="684,-391.05 673.83,-394.03 683.63,-398.04 684,-391.05"/>
</a>
</g>
</g>
<!-- Node7 -->
<g id="Node000007" class="node">
<title>Node7</title>
<g id="a_Node000007"><a xlink:href="a12849.html" target="_top" xlink:title="Splay tree.">
<polygon fill="white" stroke="#666666" points="860,-373 718,-373 718,-355 860,-355 860,-373"/>
<text text-anchor="middle" x="789" y="-361.8" font-family="Helvetica,sans-Serif" font-size="9.00">__gnu_pbds::splay_tree_tag</text>
</a>
</g>
</g>
<!-- Node4&#45;&gt;Node7 -->
<g id="edge6_Node000004_Node000007" class="edge">
<title>Node4&#45;&gt;Node7</title>
<g id="a_edge6_Node000004_Node000007"><a xlink:title=" ">
<path fill="none" stroke="#63b8ff" d="M683.33,-380.43C697.97,-378.13 713.36,-375.72 727.7,-373.47"/>
<polygon fill="#63b8ff" stroke="#63b8ff" points="683.15,-376.92 673.81,-381.92 684.24,-383.83 683.15,-376.92"/>
</a>
</g>
</g>
<!-- Node9 -->
<g id="Node000009" class="node">
<title>Node9</title>
<g id="a_Node000009"><a xlink:href="a12861.html" target="_top" xlink:title="PATRICIA trie.">
<polygon fill="white" stroke="#666666" points="854.5,-337 723.5,-337 723.5,-319 854.5,-319 854.5,-337"/>
<text text-anchor="middle" x="789" y="-325.8" font-family="Helvetica,sans-Serif" font-size="9.00">__gnu_pbds::pat_trie_tag</text>
</a>
</g>
</g>
<!-- Node8&#45;&gt;Node9 -->
<g id="edge8_Node000008_Node000009" class="edge">
<title>Node8&#45;&gt;Node9</title>
<g id="a_edge8_Node000008_Node000009"><a xlink:title=" ">
<path fill="none" stroke="#63b8ff" d="M682.02,-333.55C695.5,-332.84 709.68,-332.1 723.12,-331.39"/>
<polygon fill="#63b8ff" stroke="#63b8ff" points="682.21,-330.03 672.41,-334.05 682.58,-337.02 682.21,-330.03"/>
</a>
</g>
</g>
<!-- Node11 -->
<g id="Node000011" class="node">
<title>Node11</title>
<g id="a_Node000011"><a xlink:href="a12829.html" target="_top" xlink:title="Collision&#45;chaining hash.">
<polygon fill="white" stroke="#666666" points="681.5,-310 548.5,-310 548.5,-292 681.5,-292 681.5,-310"/>
<text text-anchor="middle" x="615" y="-298.8" font-family="Helvetica,sans-Serif" font-size="9.00">__gnu_pbds::cc_hash_tag</text>
</a>
</g>
</g>
<!-- Node10&#45;&gt;Node11 -->
<g id="edge10_Node000010_Node000011" class="edge">
<title>Node10&#45;&gt;Node11</title>
<g id="a_edge10_Node000010_Node000011"><a xlink:title=" ">
<path fill="none" stroke="#63b8ff" d="M518.77,-301C528.61,-301 538.54,-301 548.09,-301"/>
<polygon fill="#63b8ff" stroke="#63b8ff" points="518.8,-297.5 508.8,-301 518.8,-304.5 518.8,-297.5"/>
</a>
</g>
</g>
<!-- Node12 -->
<g id="Node000012" class="node">
<title>Node12</title>
<g id="a_Node000012"><a xlink:href="a12833.html" target="_top" xlink:title="General&#45;probing hash.">
<polygon fill="white" stroke="#666666" points="682,-274 548,-274 548,-256 682,-256 682,-274"/>
<text text-anchor="middle" x="615" y="-262.8" font-family="Helvetica,sans-Serif" font-size="9.00">__gnu_pbds::gp_hash_tag</text>
</a>
</g>
</g>
<!-- Node10&#45;&gt;Node12 -->
<g id="edge11_Node000010_Node000012" class="edge">
<title>Node10&#45;&gt;Node12</title>
<g id="a_edge11_Node000010_Node000012"><a xlink:title=" ">
<path fill="none" stroke="#63b8ff" d="M493.1,-289.31C517.01,-284.51 544.35,-279.01 566.97,-274.46"/>
<polygon fill="#63b8ff" stroke="#63b8ff" points="492.63,-285.84 483.51,-291.24 494.01,-292.7 492.63,-285.84"/>
</a>
</g>
</g>
<!-- Node15 -->
<g id="Node000015" class="node">
<title>Node15</title>
<g id="a_Node000015"><a xlink:href="a12885.html" target="_top" xlink:title="Binary&#45;heap (array&#45;based).">
<polygon fill="white" stroke="#666666" points="486.5,-238 381.5,-238 381.5,-210 486.5,-210 486.5,-238"/>
<text text-anchor="start" x="389.5" y="-226.8" font-family="Helvetica,sans-Serif" font-size="9.00">__gnu_pbds::binary</text>
<text text-anchor="middle" x="434" y="-216.8" font-family="Helvetica,sans-Serif" font-size="9.00">_heap_tag</text>
</a>
</g>
</g>
<!-- Node14&#45;&gt;Node15 -->
<g id="edge14_Node000014_Node000015" class="edge">
<title>Node14&#45;&gt;Node15</title>
<g id="a_edge14_Node000014_Node000015"><a xlink:title=" ">
<path fill="none" stroke="#63b8ff" d="M276.63,-153.18C297.61,-168.18 327.47,-187.9 356,-201 363.99,-204.67 372.71,-207.92 381.31,-210.75"/>
<polygon fill="#63b8ff" stroke="#63b8ff" points="278.74,-150.39 268.59,-147.34 274.62,-156.05 278.74,-150.39"/>
</a>
</g>
</g>
<!-- Node16 -->
<g id="Node000016" class="node">
<title>Node16</title>
<g id="a_Node000016"><a xlink:href="a12877.html" target="_top" xlink:title="Binomial&#45;heap.">
<polygon fill="white" stroke="#666666" points="491.5,-192 376.5,-192 376.5,-164 491.5,-164 491.5,-192"/>
<text text-anchor="start" x="384.5" y="-180.8" font-family="Helvetica,sans-Serif" font-size="9.00">__gnu_pbds::binomial</text>
<text text-anchor="middle" x="434" y="-170.8" font-family="Helvetica,sans-Serif" font-size="9.00">_heap_tag</text>
</a>
</g>
</g>
<!-- Node14&#45;&gt;Node16 -->
<g id="edge15_Node000014_Node000016" class="edge">
<title>Node14&#45;&gt;Node16</title>
<g id="a_edge15_Node000014_Node000016"><a xlink:title=" ">
<path fill="none" stroke="#63b8ff" d="M313.49,-148.2C333.94,-153.3 356.35,-158.89 376.18,-163.83"/>
<polygon fill="#63b8ff" stroke="#63b8ff" points="314.38,-144.82 303.83,-145.79 312.69,-151.61 314.38,-144.82"/>
</a>
</g>
</g>
<!-- Node17 -->
<g id="Node000017" class="node">
<title>Node17</title>
<g id="a_Node000017"><a xlink:href="a12873.html" target="_top" xlink:title="Pairing&#45;heap.">
<polygon fill="white" stroke="#666666" points="488,-146 380,-146 380,-118 488,-118 488,-146"/>
<text text-anchor="start" x="388" y="-134.8" font-family="Helvetica,sans-Serif" font-size="9.00">__gnu_pbds::pairing</text>
<text text-anchor="middle" x="434" y="-124.8" font-family="Helvetica,sans-Serif" font-size="9.00">_heap_tag</text>
</a>
</g>
</g>
<!-- Node14&#45;&gt;Node17 -->
<g id="edge16_Node000014_Node000017" class="edge">
<title>Node14&#45;&gt;Node17</title>
<g id="a_edge16_Node000014_Node000017"><a xlink:title=" ">
<path fill="none" stroke="#63b8ff" d="M313.76,-132C335.36,-132 359.12,-132 379.71,-132"/>
<polygon fill="#63b8ff" stroke="#63b8ff" points="313.87,-128.5 303.87,-132 313.87,-135.5 313.87,-128.5"/>
</a>
</g>
</g>
<!-- Node18 -->
<g id="Node000018" class="node">
<title>Node18</title>
<g id="a_Node000018"><a xlink:href="a12881.html" target="_top" xlink:title="Redundant&#45;counter binomial&#45;heap.">
<polygon fill="white" stroke="#666666" points="498,-100 370,-100 370,-72 498,-72 498,-100"/>
<text text-anchor="start" x="378" y="-88.8" font-family="Helvetica,sans-Serif" font-size="9.00">__gnu_pbds::rc_binomial</text>
<text text-anchor="middle" x="434" y="-78.8" font-family="Helvetica,sans-Serif" font-size="9.00">_heap_tag</text>
</a>
</g>
</g>
<!-- Node14&#45;&gt;Node18 -->
<g id="edge17_Node000014_Node000018" class="edge">
<title>Node14&#45;&gt;Node18</title>
<g id="a_edge17_Node000014_Node000018"><a xlink:title=" ">
<path fill="none" stroke="#63b8ff" d="M313.28,-115.85C333.34,-110.85 355.3,-105.37 374.88,-100.49"/>
<polygon fill="#63b8ff" stroke="#63b8ff" points="312.69,-112.39 303.83,-118.21 314.38,-119.18 312.69,-112.39"/>
</a>
</g>
</g>
<!-- Node19 -->
<g id="Node000019" class="node">
<title>Node19</title>
<g id="a_Node000019"><a xlink:href="a12889.html" target="_top" xlink:title="Thin heap.">
<polygon fill="white" stroke="#666666" points="504.5,-54 363.5,-54 363.5,-36 504.5,-36 504.5,-54"/>
<text text-anchor="middle" x="434" y="-42.8" font-family="Helvetica,sans-Serif" font-size="9.00">__gnu_pbds::thin_heap_tag</text>
</a>
</g>
</g>
<!-- Node14&#45;&gt;Node19 -->
<g id="edge18_Node000014_Node000019" class="edge">
<title>Node14&#45;&gt;Node19</title>
<g id="a_edge18_Node000014_Node000019"><a xlink:title=" ">
<path fill="none" stroke="#63b8ff" d="M275.64,-110.86C296.54,-95.52 326.73,-75.38 356,-63 364.09,-59.58 372.95,-56.74 381.69,-54.41"/>
<polygon fill="#63b8ff" stroke="#63b8ff" points="273.57,-108.03 267.66,-116.82 277.76,-113.64 273.57,-108.03"/>
</a>
</g>
</g>
<!-- Node21 -->
<g id="Node000021" class="node">
<title>Node21</title>
<g id="a_Node000021"><a xlink:href="a12817.html" target="_top" xlink:title="Basic string container, inclusive of strings, ropes, etc.">
<polygon fill="white" stroke="#666666" points="495,-18 373,-18 373,0 495,0 495,-18"/>
<text text-anchor="middle" x="434" y="-6.8" font-family="Helvetica,sans-Serif" font-size="9.00">__gnu_pbds::string_tag</text>
</a>
</g>
</g>
<!-- Node20&#45;&gt;Node21 -->
<g id="edge20_Node000020_Node000021" class="edge">
<title>Node20&#45;&gt;Node21</title>
<g id="a_edge20_Node000020_Node000021"><a xlink:title=" ">
<path fill="none" stroke="#63b8ff" d="M301.72,-38.17C329.94,-31.9 364.13,-24.3 390.55,-18.43"/>
<polygon fill="#63b8ff" stroke="#63b8ff" points="301.31,-34.68 292.31,-40.27 302.83,-41.51 301.31,-34.68"/>
</a>
</g>
</g>
</g>
</svg>
