<?xml version="1.0" encoding="UTF-8" standalone="no"?>
<!DOCTYPE svg PUBLIC "-//W3C//DTD SVG 1.1//EN"
 "http://www.w3.org/Graphics/SVG/1.1/DTD/svg11.dtd">
<!-- Generated by graphviz version 7.1.0 (0)
 -->
<!-- Title: __gnu_pbds::associative_tag Pages: 1 -->
<svg width="868pt" height="197pt"
 viewBox="0.00 0.00 868.00 197.00" xmlns="http://www.w3.org/2000/svg" xmlns:xlink="http://www.w3.org/1999/xlink">
<g id="graph0" class="graph" transform="scale(1 1) rotate(0) translate(4 193)">
<title>__gnu_pbds::associative_tag</title>
<!-- Node1 -->
<g id="Node000001" class="node">
<title>Node1</title>
<g id="a_Node000001"><a xlink:title="Basic associative&#45;container.">
<polygon fill="#999999" stroke="#666666" points="320,-54 175,-54 175,-36 320,-36 320,-54"/>
<text text-anchor="middle" x="247.5" y="-42.8" font-family="Helvetica,sans-Serif" font-size="9.00">__gnu_pbds::associative_tag</text>
</a>
</g>
</g>
<!-- Node3 -->
<g id="Node000003" class="node">
<title>Node3</title>
<g id="a_Node000003"><a xlink:href="a12837.html" target="_top" xlink:title="Basic branch structure.">
<polygon fill="white" stroke="#666666" points="512,-90 356,-90 356,-72 512,-72 512,-90"/>
<text text-anchor="middle" x="434" y="-78.8" font-family="Helvetica,sans-Serif" font-size="9.00">__gnu_pbds::basic_branch_tag</text>
</a>
</g>
</g>
<!-- Node1&#45;&gt;Node3 -->
<g id="edge2_Node000001_Node000003" class="edge">
<title>Node1&#45;&gt;Node3</title>
<g id="a_edge2_Node000001_Node000003"><a xlink:title=" ">
<path fill="none" stroke="#63b8ff" d="M308.05,-56.62C332.78,-61.44 361.1,-66.97 384.53,-71.54"/>
<polygon fill="#63b8ff" stroke="#63b8ff" points="308.95,-53.23 298.46,-54.75 307.61,-60.1 308.95,-53.23"/>
</a>
</g>
</g>
<!-- Node10 -->
<g id="Node000010" class="node">
<title>Node10</title>
<g id="a_Node000010"><a xlink:href="a12825.html" target="_top" xlink:title="Basic hash structure.">
<polygon fill="white" stroke="#666666" points="507,-54 361,-54 361,-36 507,-36 507,-54"/>
<text text-anchor="middle" x="434" y="-42.8" font-family="Helvetica,sans-Serif" font-size="9.00">__gnu_pbds::basic_hash_tag</text>
</a>
</g>
</g>
<!-- Node1&#45;&gt;Node10 -->
<g id="edge9_Node000001_Node000010" class="edge">
<title>Node1&#45;&gt;Node10</title>
<g id="a_edge9_Node000001_Node000010"><a xlink:title=" ">
<path fill="none" stroke="#63b8ff" d="M331.66,-45C341.36,-45 351.19,-45 360.73,-45"/>
<polygon fill="#63b8ff" stroke="#63b8ff" points="331.87,-41.5 321.87,-45 331.87,-48.5 331.87,-41.5"/>
</a>
</g>
</g>
<!-- Node13 -->
<g id="Node000013" class="node">
<title>Node13</title>
<g id="a_Node000013"><a xlink:href="a12865.html" target="_top" xlink:title="List&#45;update.">
<polygon fill="white" stroke="#666666" points="507,-18 361,-18 361,0 507,0 507,-18"/>
<text text-anchor="middle" x="434" y="-6.8" font-family="Helvetica,sans-Serif" font-size="9.00">__gnu_pbds::list_update_tag</text>
</a>
</g>
</g>
<!-- Node1&#45;&gt;Node13 -->
<g id="edge12_Node000001_Node000013" class="edge">
<title>Node1&#45;&gt;Node13</title>
<g id="a_edge12_Node000001_Node000013"><a xlink:title=" ">
<path fill="none" stroke="#63b8ff" d="M308.05,-33.38C332.78,-28.56 361.1,-23.03 384.53,-18.46"/>
<polygon fill="#63b8ff" stroke="#63b8ff" points="307.61,-29.9 298.46,-35.25 308.95,-36.77 307.61,-29.9"/>
</a>
</g>
</g>
<!-- Node2 -->
<g id="Node000002" class="node">
<title>Node2</title>
<g id="a_Node000002"><a xlink:href="a12809.html" target="_top" xlink:title="Base data structure tag.">
<polygon fill="white" stroke="#666666" points="139,-54 0,-54 0,-36 139,-36 139,-54"/>
<text text-anchor="middle" x="69.5" y="-42.8" font-family="Helvetica,sans-Serif" font-size="9.00">__gnu_pbds::container_tag</text>
</a>
</g>
</g>
<!-- Node2&#45;&gt;Node1 -->
<g id="edge1_Node000001_Node000002" class="edge">
<title>Node2&#45;&gt;Node1</title>
<g id="a_edge1_Node000001_Node000002"><a xlink:title=" ">
<path fill="none" stroke="#63b8ff" d="M150.81,-45C158.73,-45 166.73,-45 174.55,-45"/>
<polygon fill="#63b8ff" stroke="#63b8ff" points="150.82,-41.5 140.82,-45 150.82,-48.5 150.82,-41.5"/>
</a>
</g>
</g>
<!-- Node4 -->
<g id="Node000004" class="node">
<title>Node4</title>
<g id="a_Node000004"><a xlink:href="a12841.html" target="_top" xlink:title="Basic tree structure.">
<polygon fill="white" stroke="#666666" points="672,-144 558,-144 558,-126 672,-126 672,-144"/>
<text text-anchor="middle" x="615" y="-132.8" font-family="Helvetica,sans-Serif" font-size="9.00">__gnu_pbds::tree_tag</text>
</a>
</g>
</g>
<!-- Node3&#45;&gt;Node4 -->
<g id="edge3_Node000003_Node000004" class="edge">
<title>Node3&#45;&gt;Node4</title>
<g id="a_edge3_Node000003_Node000004"><a xlink:title=" ">
<path fill="none" stroke="#63b8ff" d="M477.08,-93.69C509.39,-103.44 553.29,-116.68 582.58,-125.52"/>
<polygon fill="#63b8ff" stroke="#63b8ff" points="478.21,-90.38 467.63,-90.84 476.19,-97.08 478.21,-90.38"/>
</a>
</g>
</g>
<!-- Node8 -->
<g id="Node000008" class="node">
<title>Node8</title>
<g id="a_Node000008"><a xlink:href="a12857.html" target="_top" xlink:title="Basic trie structure.">
<polygon fill="white" stroke="#666666" points="670.5,-90 559.5,-90 559.5,-72 670.5,-72 670.5,-90"/>
<text text-anchor="middle" x="615" y="-78.8" font-family="Helvetica,sans-Serif" font-size="9.00">__gnu_pbds::trie_tag</text>
</a>
</g>
</g>
<!-- Node3&#45;&gt;Node8 -->
<g id="edge7_Node000003_Node000008" class="edge">
<title>Node3&#45;&gt;Node8</title>
<g id="a_edge7_Node000003_Node000008"><a xlink:title=" ">
<path fill="none" stroke="#63b8ff" d="M523.93,-81C535.91,-81 547.91,-81 559.06,-81"/>
<polygon fill="#63b8ff" stroke="#63b8ff" points="523.98,-77.5 513.98,-81 523.98,-84.5 523.98,-77.5"/>
</a>
</g>
</g>
<!-- Node5 -->
<g id="Node000005" class="node">
<title>Node5</title>
<g id="a_Node000005"><a xlink:href="a12853.html" target="_top" xlink:title="Ordered&#45;vector tree.">
<polygon fill="white" stroke="#666666" points="853.5,-189 724.5,-189 724.5,-171 853.5,-171 853.5,-189"/>
<text text-anchor="middle" x="789" y="-177.8" font-family="Helvetica,sans-Serif" font-size="9.00">__gnu_pbds::ov_tree_tag</text>
</a>
</g>
</g>
<!-- Node4&#45;&gt;Node5 -->
<g id="edge4_Node000004_Node000005" class="edge">
<title>Node4&#45;&gt;Node5</title>
<g id="a_edge4_Node000004_Node000005"><a xlink:title=" ">
<path fill="none" stroke="#63b8ff" d="M662.42,-147.36C679.85,-151.98 699.83,-157.26 718,-162 728.68,-164.79 740.3,-167.79 750.93,-170.52"/>
<polygon fill="#63b8ff" stroke="#63b8ff" points="663.41,-144 652.85,-144.82 661.62,-150.77 663.41,-144"/>
</a>
</g>
</g>
<!-- Node6 -->
<g id="Node000006" class="node">
<title>Node6</title>
<g id="a_Node000006"><a xlink:href="a12845.html" target="_top" xlink:title="Red&#45;black tree.">
<polygon fill="white" stroke="#666666" points="853,-153 725,-153 725,-135 853,-135 853,-153"/>
<text text-anchor="middle" x="789" y="-141.8" font-family="Helvetica,sans-Serif" font-size="9.00">__gnu_pbds::rb_tree_tag</text>
</a>
</g>
</g>
<!-- Node4&#45;&gt;Node6 -->
<g id="edge5_Node000004_Node000006" class="edge">
<title>Node4&#45;&gt;Node6</title>
<g id="a_edge5_Node000004_Node000006"><a xlink:title=" ">
<path fill="none" stroke="#63b8ff" d="M683.53,-138.53C697.09,-139.24 711.29,-139.99 724.71,-140.69"/>
<polygon fill="#63b8ff" stroke="#63b8ff" points="684,-135.05 673.83,-138.03 683.63,-142.04 684,-135.05"/>
</a>
</g>
</g>
<!-- Node7 -->
<g id="Node000007" class="node">
<title>Node7</title>
<g id="a_Node000007"><a xlink:href="a12849.html" target="_top" xlink:title="Splay tree.">
<polygon fill="white" stroke="#666666" points="860,-117 718,-117 718,-99 860,-99 860,-117"/>
<text text-anchor="middle" x="789" y="-105.8" font-family="Helvetica,sans-Serif" font-size="9.00">__gnu_pbds::splay_tree_tag</text>
</a>
</g>
</g>
<!-- Node4&#45;&gt;Node7 -->
<g id="edge6_Node000004_Node000007" class="edge">
<title>Node4&#45;&gt;Node7</title>
<g id="a_edge6_Node000004_Node000007"><a xlink:title=" ">
<path fill="none" stroke="#63b8ff" d="M683.33,-124.43C697.97,-122.13 713.36,-119.72 727.7,-117.47"/>
<polygon fill="#63b8ff" stroke="#63b8ff" points="683.15,-120.92 673.81,-125.92 684.24,-127.83 683.15,-120.92"/>
</a>
</g>
</g>
<!-- Node9 -->
<g id="Node000009" class="node">
<title>Node9</title>
<g id="a_Node000009"><a xlink:href="a12861.html" target="_top" xlink:title="PATRICIA trie.">
<polygon fill="white" stroke="#666666" points="854.5,-81 723.5,-81 723.5,-63 854.5,-63 854.5,-81"/>
<text text-anchor="middle" x="789" y="-69.8" font-family="Helvetica,sans-Serif" font-size="9.00">__gnu_pbds::pat_trie_tag</text>
</a>
</g>
</g>
<!-- Node8&#45;&gt;Node9 -->
<g id="edge8_Node000008_Node000009" class="edge">
<title>Node8&#45;&gt;Node9</title>
<g id="a_edge8_Node000008_Node000009"><a xlink:title=" ">
<path fill="none" stroke="#63b8ff" d="M682.02,-77.55C695.5,-76.84 709.68,-76.1 723.12,-75.39"/>
<polygon fill="#63b8ff" stroke="#63b8ff" points="682.21,-74.03 672.41,-78.05 682.58,-81.02 682.21,-74.03"/>
</a>
</g>
</g>
<!-- Node11 -->
<g id="Node000011" class="node">
<title>Node11</title>
<g id="a_Node000011"><a xlink:href="a12829.html" target="_top" xlink:title="Collision&#45;chaining hash.">
<polygon fill="white" stroke="#666666" points="681.5,-54 548.5,-54 548.5,-36 681.5,-36 681.5,-54"/>
<text text-anchor="middle" x="615" y="-42.8" font-family="Helvetica,sans-Serif" font-size="9.00">__gnu_pbds::cc_hash_tag</text>
</a>
</g>
</g>
<!-- Node10&#45;&gt;Node11 -->
<g id="edge10_Node000010_Node000011" class="edge">
<title>Node10&#45;&gt;Node11</title>
<g id="a_edge10_Node000010_Node000011"><a xlink:title=" ">
<path fill="none" stroke="#63b8ff" d="M518.77,-45C528.61,-45 538.54,-45 548.09,-45"/>
<polygon fill="#63b8ff" stroke="#63b8ff" points="518.8,-41.5 508.8,-45 518.8,-48.5 518.8,-41.5"/>
</a>
</g>
</g>
<!-- Node12 -->
<g id="Node000012" class="node">
<title>Node12</title>
<g id="a_Node000012"><a xlink:href="a12833.html" target="_top" xlink:title="General&#45;probing hash.">
<polygon fill="white" stroke="#666666" points="682,-18 548,-18 548,0 682,0 682,-18"/>
<text text-anchor="middle" x="615" y="-6.8" font-family="Helvetica,sans-Serif" font-size="9.00">__gnu_pbds::gp_hash_tag</text>
</a>
</g>
</g>
<!-- Node10&#45;&gt;Node12 -->
<g id="edge11_Node000010_Node000012" class="edge">
<title>Node10&#45;&gt;Node12</title>
<g id="a_edge11_Node000010_Node000012"><a xlink:title=" ">
<path fill="none" stroke="#63b8ff" d="M493.1,-33.31C517.01,-28.51 544.35,-23.01 566.97,-18.46"/>
<polygon fill="#63b8ff" stroke="#63b8ff" points="492.63,-29.84 483.51,-35.24 494.01,-36.7 492.63,-29.84"/>
</a>
</g>
</g>
</g>
</svg>
