<?xml version="1.0" encoding="UTF-8" standalone="no"?>
<!DOCTYPE svg PUBLIC "-//W3C//DTD SVG 1.1//EN"
 "http://www.w3.org/Graphics/SVG/1.1/DTD/svg11.dtd">
<!-- Generated by graphviz version 7.1.0 (0)
 -->
<!-- Title: __gnu_pbds::tree_tag Pages: 1 -->
<svg width="444pt" height="242pt"
 viewBox="0.00 0.00 443.50 242.00" xmlns="http://www.w3.org/2000/svg" xmlns:xlink="http://www.w3.org/1999/xlink">
<g id="graph0" class="graph" transform="scale(1 1) rotate(0) translate(4 238)">
<title>__gnu_pbds::tree_tag</title>
<!-- Node1 -->
<g id="Node000001" class="node">
<title>Node1</title>
<g id="a_Node000001"><a xlink:title="Basic tree structure.">
<polygon fill="#999999" stroke="#666666" points="268.5,-72 154.5,-72 154.5,-54 268.5,-54 268.5,-72"/>
<text text-anchor="middle" x="211.5" y="-60.8" font-family="Helvetica,sans-Serif" font-size="9.00">__gnu_pbds::tree_tag</text>
</a>
</g>
</g>
<!-- Node5 -->
<g id="Node000005" class="node">
<title>Node5</title>
<g id="a_Node000005"><a xlink:href="a12853.html" target="_top" xlink:title="Ordered&#45;vector tree.">
<polygon fill="white" stroke="#666666" points="129,-18 0,-18 0,0 129,0 129,-18"/>
<text text-anchor="middle" x="64.5" y="-6.8" font-family="Helvetica,sans-Serif" font-size="9.00">__gnu_pbds::ov_tree_tag</text>
</a>
</g>
</g>
<!-- Node1&#45;&gt;Node5 -->
<g id="edge4_Node000001_Node000005" class="edge">
<title>Node1&#45;&gt;Node5</title>
<g id="a_edge4_Node000001_Node000005"><a xlink:title=" ">
<path fill="none" stroke="#63b8ff" d="M176.93,-49.77C149.7,-40.14 112.46,-26.96 88.44,-18.47"/>
<polygon fill="#63b8ff" stroke="#63b8ff" points="175.53,-52.99 186.13,-53.02 177.87,-46.39 175.53,-52.99"/>
</a>
</g>
</g>
<!-- Node6 -->
<g id="Node000006" class="node">
<title>Node6</title>
<g id="a_Node000006"><a xlink:href="a12845.html" target="_top" xlink:title="Red&#45;black tree.">
<polygon fill="white" stroke="#666666" points="275.5,-18 147.5,-18 147.5,0 275.5,0 275.5,-18"/>
<text text-anchor="middle" x="211.5" y="-6.8" font-family="Helvetica,sans-Serif" font-size="9.00">__gnu_pbds::rb_tree_tag</text>
</a>
</g>
</g>
<!-- Node1&#45;&gt;Node6 -->
<g id="edge5_Node000001_Node000006" class="edge">
<title>Node1&#45;&gt;Node6</title>
<g id="a_edge5_Node000001_Node000006"><a xlink:title=" ">
<path fill="none" stroke="#63b8ff" d="M211.5,-42.39C211.5,-34.03 211.5,-24.72 211.5,-18.24"/>
<polygon fill="#63b8ff" stroke="#63b8ff" points="208,-42.36 211.5,-52.36 215,-42.36 208,-42.36"/>
</a>
</g>
</g>
<!-- Node7 -->
<g id="Node000007" class="node">
<title>Node7</title>
<g id="a_Node000007"><a xlink:href="a12849.html" target="_top" xlink:title="Splay tree.">
<polygon fill="white" stroke="#666666" points="435.5,-18 293.5,-18 293.5,0 435.5,0 435.5,-18"/>
<text text-anchor="middle" x="364.5" y="-6.8" font-family="Helvetica,sans-Serif" font-size="9.00">__gnu_pbds::splay_tree_tag</text>
</a>
</g>
</g>
<!-- Node1&#45;&gt;Node7 -->
<g id="edge6_Node000001_Node000007" class="edge">
<title>Node1&#45;&gt;Node7</title>
<g id="a_edge6_Node000001_Node000007"><a xlink:title=" ">
<path fill="none" stroke="#63b8ff" d="M247.1,-49.9C275.47,-40.26 314.47,-27 339.59,-18.47"/>
<polygon fill="#63b8ff" stroke="#63b8ff" points="246.2,-46.51 237.86,-53.04 248.45,-53.14 246.2,-46.51"/>
</a>
</g>
</g>
<!-- Node2 -->
<g id="Node000002" class="node">
<title>Node2</title>
<g id="a_Node000002"><a xlink:href="a12837.html" target="_top" xlink:title="Basic branch structure.">
<polygon fill="white" stroke="#666666" points="289.5,-126 133.5,-126 133.5,-108 289.5,-108 289.5,-126"/>
<text text-anchor="middle" x="211.5" y="-114.8" font-family="Helvetica,sans-Serif" font-size="9.00">__gnu_pbds::basic_branch_tag</text>
</a>
</g>
</g>
<!-- Node2&#45;&gt;Node1 -->
<g id="edge1_Node000001_Node000002" class="edge">
<title>Node2&#45;&gt;Node1</title>
<g id="a_edge1_Node000001_Node000002"><a xlink:title=" ">
<path fill="none" stroke="#63b8ff" d="M211.5,-96.39C211.5,-88.03 211.5,-78.72 211.5,-72.24"/>
<polygon fill="#63b8ff" stroke="#63b8ff" points="208,-96.36 211.5,-106.36 215,-96.36 208,-96.36"/>
</a>
</g>
</g>
<!-- Node3 -->
<g id="Node000003" class="node">
<title>Node3</title>
<g id="a_Node000003"><a xlink:href="a12821.html" target="_top" xlink:title="Basic associative&#45;container.">
<polygon fill="white" stroke="#666666" points="284,-180 139,-180 139,-162 284,-162 284,-180"/>
<text text-anchor="middle" x="211.5" y="-168.8" font-family="Helvetica,sans-Serif" font-size="9.00">__gnu_pbds::associative_tag</text>
</a>
</g>
</g>
<!-- Node3&#45;&gt;Node2 -->
<g id="edge2_Node000002_Node000003" class="edge">
<title>Node3&#45;&gt;Node2</title>
<g id="a_edge2_Node000002_Node000003"><a xlink:title=" ">
<path fill="none" stroke="#63b8ff" d="M211.5,-150.39C211.5,-142.03 211.5,-132.72 211.5,-126.24"/>
<polygon fill="#63b8ff" stroke="#63b8ff" points="208,-150.36 211.5,-160.36 215,-150.36 208,-150.36"/>
</a>
</g>
</g>
<!-- Node4 -->
<g id="Node000004" class="node">
<title>Node4</title>
<g id="a_Node000004"><a xlink:href="a12809.html" target="_top" xlink:title="Base data structure tag.">
<polygon fill="white" stroke="#666666" points="281,-234 142,-234 142,-216 281,-216 281,-234"/>
<text text-anchor="middle" x="211.5" y="-222.8" font-family="Helvetica,sans-Serif" font-size="9.00">__gnu_pbds::container_tag</text>
</a>
</g>
</g>
<!-- Node4&#45;&gt;Node3 -->
<g id="edge3_Node000003_Node000004" class="edge">
<title>Node4&#45;&gt;Node3</title>
<g id="a_edge3_Node000003_Node000004"><a xlink:title=" ">
<path fill="none" stroke="#63b8ff" d="M211.5,-204.39C211.5,-196.03 211.5,-186.72 211.5,-180.24"/>
<polygon fill="#63b8ff" stroke="#63b8ff" points="208,-204.36 211.5,-214.36 215,-204.36 208,-204.36"/>
</a>
</g>
</g>
</g>
</svg>
