<?xml version="1.0" encoding="UTF-8" standalone="no"?>
<!DOCTYPE svg PUBLIC "-//W3C//DTD SVG 1.1//EN"
 "http://www.w3.org/Graphics/SVG/1.1/DTD/svg11.dtd">
<!-- Generated by graphviz version 7.1.0 (0)
 -->
<!-- Title: __gnu_pbds::basic_hash_tag Pages: 1 -->
<svg width="294pt" height="188pt"
 viewBox="0.00 0.00 293.50 188.00" xmlns="http://www.w3.org/2000/svg" xmlns:xlink="http://www.w3.org/1999/xlink">
<g id="graph0" class="graph" transform="scale(1 1) rotate(0) translate(4 184)">
<title>__gnu_pbds::basic_hash_tag</title>
<!-- Node1 -->
<g id="Node000001" class="node">
<title>Node1</title>
<g id="a_Node000001"><a xlink:title="Basic hash structure.">
<polygon fill="#999999" stroke="#666666" points="215.5,-72 69.5,-72 69.5,-54 215.5,-54 215.5,-72"/>
<text text-anchor="middle" x="142.5" y="-60.8" font-family="Helvetica,sans-Serif" font-size="9.00">__gnu_pbds::basic_hash_tag</text>
</a>
</g>
</g>
<!-- Node4 -->
<g id="Node000004" class="node">
<title>Node4</title>
<g id="a_Node000004"><a xlink:href="a12829.html" target="_top" xlink:title="Collision&#45;chaining hash.">
<polygon fill="white" stroke="#666666" points="133,-18 0,-18 0,0 133,0 133,-18"/>
<text text-anchor="middle" x="66.5" y="-6.8" font-family="Helvetica,sans-Serif" font-size="9.00">__gnu_pbds::cc_hash_tag</text>
</a>
</g>
</g>
<!-- Node1&#45;&gt;Node4 -->
<g id="edge3_Node000001_Node000004" class="edge">
<title>Node1&#45;&gt;Node4</title>
<g id="a_edge3_Node000001_Node000004"><a xlink:title=" ">
<path fill="none" stroke="#63b8ff" d="M121.02,-47.3C107.22,-37.86 89.81,-25.95 78.43,-18.16"/>
<polygon fill="#63b8ff" stroke="#63b8ff" points="118.81,-50.03 129.04,-52.79 122.76,-44.26 118.81,-50.03"/>
</a>
</g>
</g>
<!-- Node5 -->
<g id="Node000005" class="node">
<title>Node5</title>
<g id="a_Node000005"><a xlink:href="a12833.html" target="_top" xlink:title="General&#45;probing hash.">
<polygon fill="white" stroke="#666666" points="285.5,-18 151.5,-18 151.5,0 285.5,0 285.5,-18"/>
<text text-anchor="middle" x="218.5" y="-6.8" font-family="Helvetica,sans-Serif" font-size="9.00">__gnu_pbds::gp_hash_tag</text>
</a>
</g>
</g>
<!-- Node1&#45;&gt;Node5 -->
<g id="edge4_Node000001_Node000005" class="edge">
<title>Node1&#45;&gt;Node5</title>
<g id="a_edge4_Node000001_Node000005"><a xlink:title=" ">
<path fill="none" stroke="#63b8ff" d="M163.98,-47.3C177.78,-37.86 195.19,-25.95 206.57,-18.16"/>
<polygon fill="#63b8ff" stroke="#63b8ff" points="162.24,-44.26 155.96,-52.79 166.19,-50.03 162.24,-44.26"/>
</a>
</g>
</g>
<!-- Node2 -->
<g id="Node000002" class="node">
<title>Node2</title>
<g id="a_Node000002"><a xlink:href="a12821.html" target="_top" xlink:title="Basic associative&#45;container.">
<polygon fill="white" stroke="#666666" points="215,-126 70,-126 70,-108 215,-108 215,-126"/>
<text text-anchor="middle" x="142.5" y="-114.8" font-family="Helvetica,sans-Serif" font-size="9.00">__gnu_pbds::associative_tag</text>
</a>
</g>
</g>
<!-- Node2&#45;&gt;Node1 -->
<g id="edge1_Node000001_Node000002" class="edge">
<title>Node2&#45;&gt;Node1</title>
<g id="a_edge1_Node000001_Node000002"><a xlink:title=" ">
<path fill="none" stroke="#63b8ff" d="M142.5,-96.39C142.5,-88.03 142.5,-78.72 142.5,-72.24"/>
<polygon fill="#63b8ff" stroke="#63b8ff" points="139,-96.36 142.5,-106.36 146,-96.36 139,-96.36"/>
</a>
</g>
</g>
<!-- Node3 -->
<g id="Node000003" class="node">
<title>Node3</title>
<g id="a_Node000003"><a xlink:href="a12809.html" target="_top" xlink:title="Base data structure tag.">
<polygon fill="white" stroke="#666666" points="212,-180 73,-180 73,-162 212,-162 212,-180"/>
<text text-anchor="middle" x="142.5" y="-168.8" font-family="Helvetica,sans-Serif" font-size="9.00">__gnu_pbds::container_tag</text>
</a>
</g>
</g>
<!-- Node3&#45;&gt;Node2 -->
<g id="edge2_Node000002_Node000003" class="edge">
<title>Node3&#45;&gt;Node2</title>
<g id="a_edge2_Node000002_Node000003"><a xlink:title=" ">
<path fill="none" stroke="#63b8ff" d="M142.5,-150.39C142.5,-142.03 142.5,-132.72 142.5,-126.24"/>
<polygon fill="#63b8ff" stroke="#63b8ff" points="139,-150.36 142.5,-160.36 146,-150.36 139,-150.36"/>
</a>
</g>
</g>
</g>
</svg>
