<?xml version="1.0" encoding="UTF-8" standalone="no"?>
<!DOCTYPE svg PUBLIC "-//W3C//DTD SVG 1.1//EN"
 "http://www.w3.org/Graphics/SVG/1.1/DTD/svg11.dtd">
<!-- Generated by graphviz version 7.1.0 (0)
 -->
<!-- Title: __gnu_pbds::priority_queue_tag Pages: 1 -->
<svg width="469pt" height="210pt"
 viewBox="0.00 0.00 469.00 210.00" xmlns="http://www.w3.org/2000/svg" xmlns:xlink="http://www.w3.org/1999/xlink">

<svg id="main" version="1.1" xmlns="http://www.w3.org/2000/svg" xmlns:xlink="http://www.w3.org/1999/xlink" xml:space="preserve" onload="init(evt)">
<style type="text/css"><![CDATA[
.node, .edge {opacity: 0.7;}
.node.selected, .edge.selected {opacity: 1;}
.edge:hover path { stroke: red; }
.edge:hover polygon { stroke: red; fill: red; }
]]></style>
<script xlink:href="svg.min.js"/>
<svg id="graph" class="graph">
<g id="graph0" class="graph" transform="scale(1 1) rotate(0) translate(4 206)">
<title>__gnu_pbds::priority_queue_tag</title>
<!-- Node1 -->
<g id="Node000001" class="node">
<title>Node1</title>
<g id="a_Node000001"><a xlink:title="Basic priority&#45;queue.">
<polygon fill="#999999" stroke="#666666" points="284,-110 175,-110 175,-82 284,-82 284,-110"/>
<text text-anchor="start" x="183" y="-98.8" font-family="Helvetica,sans-Serif" font-size="9.00">__gnu_pbds::priority</text>
<text text-anchor="middle" x="229.5" y="-88.8" font-family="Helvetica,sans-Serif" font-size="9.00">_queue_tag</text>
</a>
</g>
</g>
<!-- Node3 -->
<g id="Node000003" class="node">
<title>Node3</title>
<g id="a_Node000003"><a xlink:href="a12885.html" target="_top" xlink:title="Binary&#45;heap (array&#45;based).">
<polygon fill="white" stroke="#666666" points="443,-202 338,-202 338,-174 443,-174 443,-202"/>
<text text-anchor="start" x="346" y="-190.8" font-family="Helvetica,sans-Serif" font-size="9.00">__gnu_pbds::binary</text>
<text text-anchor="middle" x="390.5" y="-180.8" font-family="Helvetica,sans-Serif" font-size="9.00">_heap_tag</text>
</a>
</g>
</g>
<!-- Node1&#45;&gt;Node3 -->
<g id="edge2_Node000001_Node000003" class="edge">
<title>Node1&#45;&gt;Node3</title>
<g id="a_edge2_Node000001_Node000003"><a xlink:title=" ">
<path fill="none" stroke="#63b8ff" d="M254.16,-117.84C271.37,-132.78 295.8,-152.15 320,-165 325.95,-168.16 332.41,-171 338.93,-173.51"/>
<polygon fill="#63b8ff" stroke="#63b8ff" points="256.8,-115.5 246.99,-111.49 252.15,-120.74 256.8,-115.5"/>
</a>
</g>
</g>
<!-- Node4 -->
<g id="Node000004" class="node">
<title>Node4</title>
<g id="a_Node000004"><a xlink:href="a12877.html" target="_top" xlink:title="Binomial&#45;heap.">
<polygon fill="white" stroke="#666666" points="448,-156 333,-156 333,-128 448,-128 448,-156"/>
<text text-anchor="start" x="341" y="-144.8" font-family="Helvetica,sans-Serif" font-size="9.00">__gnu_pbds::binomial</text>
<text text-anchor="middle" x="390.5" y="-134.8" font-family="Helvetica,sans-Serif" font-size="9.00">_heap_tag</text>
</a>
</g>
</g>
<!-- Node1&#45;&gt;Node4 -->
<g id="edge3_Node000001_Node000004" class="edge">
<title>Node1&#45;&gt;Node4</title>
<g id="a_edge3_Node000001_Node000004"><a xlink:title=" ">
<path fill="none" stroke="#63b8ff" d="M291.22,-113.57C307.18,-118.18 324.21,-123.11 339.53,-127.54"/>
<polygon fill="#63b8ff" stroke="#63b8ff" points="292.41,-110.27 281.83,-110.85 290.46,-116.99 292.41,-110.27"/>
</a>
</g>
</g>
<!-- Node5 -->
<g id="Node000005" class="node">
<title>Node5</title>
<g id="a_Node000005"><a xlink:href="a12873.html" target="_top" xlink:title="Pairing&#45;heap.">
<polygon fill="white" stroke="#666666" points="444.5,-110 336.5,-110 336.5,-82 444.5,-82 444.5,-110"/>
<text text-anchor="start" x="344.5" y="-98.8" font-family="Helvetica,sans-Serif" font-size="9.00">__gnu_pbds::pairing</text>
<text text-anchor="middle" x="390.5" y="-88.8" font-family="Helvetica,sans-Serif" font-size="9.00">_heap_tag</text>
</a>
</g>
</g>
<!-- Node1&#45;&gt;Node5 -->
<g id="edge4_Node000001_Node000005" class="edge">
<title>Node1&#45;&gt;Node5</title>
<g id="a_edge4_Node000001_Node000005"><a xlink:title=" ">
<path fill="none" stroke="#63b8ff" d="M295.54,-96C309.08,-96 323.21,-96 336.27,-96"/>
<polygon fill="#63b8ff" stroke="#63b8ff" points="295.84,-92.5 285.84,-96 295.84,-99.5 295.84,-92.5"/>
</a>
</g>
</g>
<!-- Node6 -->
<g id="Node000006" class="node">
<title>Node6</title>
<g id="a_Node000006"><a xlink:href="a12881.html" target="_top" xlink:title="Redundant&#45;counter binomial&#45;heap.">
<polygon fill="white" stroke="#666666" points="454.5,-64 326.5,-64 326.5,-36 454.5,-36 454.5,-64"/>
<text text-anchor="start" x="334.5" y="-52.8" font-family="Helvetica,sans-Serif" font-size="9.00">__gnu_pbds::rc_binomial</text>
<text text-anchor="middle" x="390.5" y="-42.8" font-family="Helvetica,sans-Serif" font-size="9.00">_heap_tag</text>
</a>
</g>
</g>
<!-- Node1&#45;&gt;Node6 -->
<g id="edge5_Node000001_Node000006" class="edge">
<title>Node1&#45;&gt;Node6</title>
<g id="a_edge5_Node000001_Node000006"><a xlink:title=" ">
<path fill="none" stroke="#63b8ff" d="M291.22,-78.43C307.18,-73.82 324.21,-68.89 339.53,-64.46"/>
<polygon fill="#63b8ff" stroke="#63b8ff" points="290.46,-75.01 281.83,-81.15 292.41,-81.73 290.46,-75.01"/>
</a>
</g>
</g>
<!-- Node7 -->
<g id="Node000007" class="node">
<title>Node7</title>
<g id="a_Node000007"><a xlink:href="a12889.html" target="_top" xlink:title="Thin heap.">
<polygon fill="white" stroke="#666666" points="461,-18 320,-18 320,0 461,0 461,-18"/>
<text text-anchor="middle" x="390.5" y="-6.8" font-family="Helvetica,sans-Serif" font-size="9.00">__gnu_pbds::thin_heap_tag</text>
</a>
</g>
</g>
<!-- Node1&#45;&gt;Node7 -->
<g id="edge6_Node000001_Node000007" class="edge">
<title>Node1&#45;&gt;Node7</title>
<g id="a_edge6_Node000001_Node000007"><a xlink:title=" ">
<path fill="none" stroke="#63b8ff" d="M253.28,-74.22C270.4,-58.96 295.09,-39.19 320,-27 326.94,-23.6 334.6,-20.8 342.21,-18.49"/>
<polygon fill="#63b8ff" stroke="#63b8ff" points="251.21,-71.37 246.18,-80.7 255.92,-76.54 251.21,-71.37"/>
</a>
</g>
</g>
<!-- Node2 -->
<g id="Node000002" class="node">
<title>Node2</title>
<g id="a_Node000002"><a xlink:href="a12809.html" target="_top" xlink:title="Base data structure tag.">
<polygon fill="white" stroke="#666666" points="139,-105 0,-105 0,-87 139,-87 139,-105"/>
<text text-anchor="middle" x="69.5" y="-93.8" font-family="Helvetica,sans-Serif" font-size="9.00">__gnu_pbds::container_tag</text>
</a>
</g>
</g>
<!-- Node2&#45;&gt;Node1 -->
<g id="edge1_Node000001_Node000002" class="edge">
<title>Node2&#45;&gt;Node1</title>
<g id="a_edge1_Node000001_Node000002"><a xlink:title=" ">
<path fill="none" stroke="#63b8ff" d="M150.75,-96C158.83,-96 166.9,-96 174.61,-96"/>
<polygon fill="#63b8ff" stroke="#63b8ff" points="150.86,-92.5 140.86,-96 150.85,-99.5 150.86,-92.5"/>
</a>
</g>
</g>
</g>
</svg>

<style type='text/css'>
<![CDATA[
[data-mouse-over-selected='false'] { opacity: 0.7; }
[data-mouse-over-selected='true']  { opacity: 1.0; }
]]>
</style>
<script><![CDATA[
document.addEventListener('DOMContentLoaded', (event) => {
  highlightEdges();
  highlightAdjacentNodes();
});
]]></script>
</svg>
