<?xml version="1.0" encoding="UTF-8" standalone="no"?>
<!DOCTYPE svg PUBLIC "-//W3C//DTD SVG 1.1//EN"
 "http://www.w3.org/Graphics/SVG/1.1/DTD/svg11.dtd">
<!-- Generated by graphviz version 7.1.0 (0)
 -->
<!-- Title: __gnu_pbds::trie_tag Pages: 1 -->
<svg width="164pt" height="242pt"
 viewBox="0.00 0.00 164.00 242.00" xmlns="http://www.w3.org/2000/svg" xmlns:xlink="http://www.w3.org/1999/xlink">

<svg id="main" version="1.1" xmlns="http://www.w3.org/2000/svg" xmlns:xlink="http://www.w3.org/1999/xlink" xml:space="preserve" onload="init(evt)">
<style type="text/css"><![CDATA[
.node, .edge {opacity: 0.7;}
.node.selected, .edge.selected {opacity: 1;}
.edge:hover path { stroke: red; }
.edge:hover polygon { stroke: red; fill: red; }
]]></style>
<script xlink:href="svg.min.js"/>
<svg id="graph" class="graph">
<g id="graph0" class="graph" transform="scale(1 1) rotate(0) translate(4 238)">
<title>__gnu_pbds::trie_tag</title>
<!-- Node1 -->
<g id="Node000001" class="node">
<title>Node1</title>
<g id="a_Node000001"><a xlink:title="Basic trie structure.">
<polygon fill="#999999" stroke="#666666" points="133.5,-72 22.5,-72 22.5,-54 133.5,-54 133.5,-72"/>
<text text-anchor="middle" x="78" y="-60.8" font-family="Helvetica,sans-Serif" font-size="9.00">__gnu_pbds::trie_tag</text>
</a>
</g>
</g>
<!-- Node5 -->
<g id="Node000005" class="node">
<title>Node5</title>
<g id="a_Node000005"><a xlink:href="a12861.html" target="_top" xlink:title="PATRICIA trie.">
<polygon fill="white" stroke="#666666" points="143.5,-18 12.5,-18 12.5,0 143.5,0 143.5,-18"/>
<text text-anchor="middle" x="78" y="-6.8" font-family="Helvetica,sans-Serif" font-size="9.00">__gnu_pbds::pat_trie_tag</text>
</a>
</g>
</g>
<!-- Node1&#45;&gt;Node5 -->
<g id="edge4_Node000001_Node000005" class="edge">
<title>Node1&#45;&gt;Node5</title>
<g id="a_edge4_Node000001_Node000005"><a xlink:title=" ">
<path fill="none" stroke="#63b8ff" d="M78,-42.39C78,-34.03 78,-24.72 78,-18.24"/>
<polygon fill="#63b8ff" stroke="#63b8ff" points="74.5,-42.36 78,-52.36 81.5,-42.36 74.5,-42.36"/>
</a>
</g>
</g>
<!-- Node2 -->
<g id="Node000002" class="node">
<title>Node2</title>
<g id="a_Node000002"><a xlink:href="a12837.html" target="_top" xlink:title="Basic branch structure.">
<polygon fill="white" stroke="#666666" points="156,-126 0,-126 0,-108 156,-108 156,-126"/>
<text text-anchor="middle" x="78" y="-114.8" font-family="Helvetica,sans-Serif" font-size="9.00">__gnu_pbds::basic_branch_tag</text>
</a>
</g>
</g>
<!-- Node2&#45;&gt;Node1 -->
<g id="edge1_Node000001_Node000002" class="edge">
<title>Node2&#45;&gt;Node1</title>
<g id="a_edge1_Node000001_Node000002"><a xlink:title=" ">
<path fill="none" stroke="#63b8ff" d="M78,-96.39C78,-88.03 78,-78.72 78,-72.24"/>
<polygon fill="#63b8ff" stroke="#63b8ff" points="74.5,-96.36 78,-106.36 81.5,-96.36 74.5,-96.36"/>
</a>
</g>
</g>
<!-- Node3 -->
<g id="Node000003" class="node">
<title>Node3</title>
<g id="a_Node000003"><a xlink:href="a12821.html" target="_top" xlink:title="Basic associative&#45;container.">
<polygon fill="white" stroke="#666666" points="150.5,-180 5.5,-180 5.5,-162 150.5,-162 150.5,-180"/>
<text text-anchor="middle" x="78" y="-168.8" font-family="Helvetica,sans-Serif" font-size="9.00">__gnu_pbds::associative_tag</text>
</a>
</g>
</g>
<!-- Node3&#45;&gt;Node2 -->
<g id="edge2_Node000002_Node000003" class="edge">
<title>Node3&#45;&gt;Node2</title>
<g id="a_edge2_Node000002_Node000003"><a xlink:title=" ">
<path fill="none" stroke="#63b8ff" d="M78,-150.39C78,-142.03 78,-132.72 78,-126.24"/>
<polygon fill="#63b8ff" stroke="#63b8ff" points="74.5,-150.36 78,-160.36 81.5,-150.36 74.5,-150.36"/>
</a>
</g>
</g>
<!-- Node4 -->
<g id="Node000004" class="node">
<title>Node4</title>
<g id="a_Node000004"><a xlink:href="a12809.html" target="_top" xlink:title="Base data structure tag.">
<polygon fill="white" stroke="#666666" points="147.5,-234 8.5,-234 8.5,-216 147.5,-216 147.5,-234"/>
<text text-anchor="middle" x="78" y="-222.8" font-family="Helvetica,sans-Serif" font-size="9.00">__gnu_pbds::container_tag</text>
</a>
</g>
</g>
<!-- Node4&#45;&gt;Node3 -->
<g id="edge3_Node000003_Node000004" class="edge">
<title>Node4&#45;&gt;Node3</title>
<g id="a_edge3_Node000003_Node000004"><a xlink:title=" ">
<path fill="none" stroke="#63b8ff" d="M78,-204.39C78,-196.03 78,-186.72 78,-180.24"/>
<polygon fill="#63b8ff" stroke="#63b8ff" points="74.5,-204.36 78,-214.36 81.5,-204.36 74.5,-204.36"/>
</a>
</g>
</g>
</g>
</svg>

<style type='text/css'>
<![CDATA[
[data-mouse-over-selected='false'] { opacity: 0.7; }
[data-mouse-over-selected='true']  { opacity: 1.0; }
]]>
</style>
<script><![CDATA[
document.addEventListener('DOMContentLoaded', (event) => {
  highlightEdges();
  highlightAdjacentNodes();
});
]]></script>
</svg>
