<?xml version="1.0" encoding="UTF-8" standalone="no"?>
<!DOCTYPE svg PUBLIC "-//W3C//DTD SVG 1.1//EN"
 "http://www.w3.org/Graphics/SVG/1.1/DTD/svg11.dtd">
<!-- Generated by graphviz version 7.1.0 (0)
 -->
<!-- Title: __gnu_pbds::detail::maybe_null_type&lt; Key, Mapped, _Alloc, Store_Hash &gt; Pages: 1 -->
<svg width="487pt" height="340pt"
 viewBox="0.00 0.00 487.00 340.00" xmlns="http://www.w3.org/2000/svg" xmlns:xlink="http://www.w3.org/1999/xlink">

<svg id="main" version="1.1" xmlns="http://www.w3.org/2000/svg" xmlns:xlink="http://www.w3.org/1999/xlink" xml:space="preserve" onload="init(evt)">
<style type="text/css"><![CDATA[
.node, .edge {opacity: 0.7;}
.node.selected, .edge.selected {opacity: 1;}
.edge:hover path { stroke: red; }
.edge:hover polygon { stroke: red; fill: red; }
]]></style>
<script xlink:href="svg.min.js"/>
<svg id="graph" class="graph">
<g id="graph0" class="graph" transform="scale(1 1) rotate(0) translate(4 336)">
<title>__gnu_pbds::detail::maybe_null_type&lt; Key, Mapped, _Alloc, Store_Hash &gt;</title>
<!-- Node1 -->
<g id="Node000001" class="node">
<title>Node1</title>
<g id="a_Node000001"><a xlink:title="Base class for conditionally defining a static data member.">
<polygon fill="#999999" stroke="#666666" points="129,-164 0,-164 0,-116 129,-116 129,-164"/>
<text text-anchor="start" x="8" y="-152.8" font-family="Helvetica,sans-Serif" font-size="9.00">__gnu_pbds::detail</text>
<text text-anchor="start" x="8" y="-142.8" font-family="Helvetica,sans-Serif" font-size="9.00">::maybe_null_type&lt; Key,</text>
<text text-anchor="start" x="8" y="-132.8" font-family="Helvetica,sans-Serif" font-size="9.00"> Mapped, _Alloc, Store</text>
<text text-anchor="middle" x="64.5" y="-122.8" font-family="Helvetica,sans-Serif" font-size="9.00">_Hash &gt;</text>
</a>
</g>
</g>
<!-- Node2 -->
<g id="Node000002" class="node">
<title>Node2</title>
<g id="a_Node000002"><a xlink:href="a13161.html" target="_top" xlink:title=" ">
<polygon fill="white" stroke="#666666" points="289,-228 165,-228 165,-190 289,-190 289,-228"/>
<text text-anchor="start" x="173" y="-216.8" font-family="Helvetica,sans-Serif" font-size="9.00">__gnu_pbds::detail</text>
<text text-anchor="start" x="173" y="-206.8" font-family="Helvetica,sans-Serif" font-size="9.00">::types_traits&lt; Key,</text>
<text text-anchor="middle" x="227" y="-196.8" font-family="Helvetica,sans-Serif" font-size="9.00"> Mapped, _Alloc, false &gt;</text>
</a>
</g>
</g>
<!-- Node1&#45;&gt;Node2 -->
<g id="edge1_Node000001_Node000002" class="edge">
<title>Node1&#45;&gt;Node2</title>
<g id="a_edge1_Node000001_Node000002"><a xlink:title=" ">
<path fill="none" stroke="#63b8ff" d="M132.61,-168.85C148.84,-175.83 165.8,-183.12 180.74,-189.54"/>
<polygon fill="#63b8ff" stroke="#63b8ff" points="134.05,-165.66 123.48,-164.92 131.28,-172.09 134.05,-165.66"/>
</a>
</g>
</g>
<!-- Node6 -->
<g id="Node000006" class="node">
<title>Node6</title>
<g id="a_Node000006"><a xlink:href="a13161.html" target="_top" xlink:title="Traits for abstract types.">
<polygon fill="white" stroke="#666666" points="285.5,-129 168.5,-129 168.5,-81 285.5,-81 285.5,-129"/>
<text text-anchor="start" x="176.5" y="-117.8" font-family="Helvetica,sans-Serif" font-size="9.00">__gnu_pbds::detail</text>
<text text-anchor="start" x="176.5" y="-107.8" font-family="Helvetica,sans-Serif" font-size="9.00">::types_traits&lt; Key,</text>
<text text-anchor="start" x="176.5" y="-97.8" font-family="Helvetica,sans-Serif" font-size="9.00"> Mapped, _Alloc, Store</text>
<text text-anchor="middle" x="227" y="-87.8" font-family="Helvetica,sans-Serif" font-size="9.00">_Hash &gt;</text>
</a>
</g>
</g>
<!-- Node1&#45;&gt;Node6 -->
<g id="edge5_Node000001_Node000006" class="edge">
<title>Node1&#45;&gt;Node6</title>
<g id="a_edge5_Node000001_Node000006"><a xlink:title=" ">
<path fill="none" stroke="#63b8ff" d="M140.57,-123.63C149.8,-121.62 159.13,-119.58 168.05,-117.64"/>
<polygon fill="#63b8ff" stroke="#63b8ff" points="139.9,-120.19 130.87,-125.74 141.39,-127.03 139.9,-120.19"/>
</a>
</g>
</g>
<!-- Node3 -->
<g id="Node000003" class="node">
<title>Node3</title>
<g id="a_Node000003"><a xlink:href="a13393.html" target="_top" xlink:title="list&#45;based (with updates) associative container. Skip to the lu, my darling.">
<polygon fill="white" stroke="#666666" points="466,-332 338,-332 338,-284 466,-284 466,-332"/>
<text text-anchor="start" x="346" y="-320.8" font-family="Helvetica,sans-Serif" font-size="9.00">__gnu_pbds::detail</text>
<text text-anchor="start" x="346" y="-310.8" font-family="Helvetica,sans-Serif" font-size="9.00">::lu_map&lt; Key, Mapped,</text>
<text text-anchor="start" x="346" y="-300.8" font-family="Helvetica,sans-Serif" font-size="9.00"> Eq_Fn, _Alloc, Update</text>
<text text-anchor="middle" x="402" y="-290.8" font-family="Helvetica,sans-Serif" font-size="9.00">_Policy &gt;</text>
</a>
</g>
</g>
<!-- Node2&#45;&gt;Node3 -->
<g id="edge2_Node000002_Node000003" class="edge">
<title>Node2&#45;&gt;Node3</title>
<g id="a_edge2_Node000002_Node000003"><a xlink:title=" ">
<path fill="none" stroke="#63b8ff" d="M262.5,-234.81C280.59,-247.73 303.43,-263.11 325,-275 330.42,-277.98 336.16,-280.9 341.96,-283.68"/>
<polygon fill="#63b8ff" stroke="#63b8ff" points="264.89,-232.21 254.73,-229.19 260.78,-237.89 264.89,-232.21"/>
</a>
</g>
</g>
<!-- Node4 -->
<g id="Node000004" class="node">
<title>Node4</title>
<g id="a_Node000004"><a xlink:href="a13421.html" target="_top" xlink:title="Ordered&#45;vector tree associative&#45;container.">
<polygon fill="white" stroke="#666666" points="466,-266 338,-266 338,-218 466,-218 466,-266"/>
<text text-anchor="start" x="346" y="-254.8" font-family="Helvetica,sans-Serif" font-size="9.00">__gnu_pbds::detail</text>
<text text-anchor="start" x="346" y="-244.8" font-family="Helvetica,sans-Serif" font-size="9.00">::ov_tree_map&lt; Key,</text>
<text text-anchor="start" x="346" y="-234.8" font-family="Helvetica,sans-Serif" font-size="9.00"> Mapped, Cmp_Fn, Node</text>
<text text-anchor="middle" x="402" y="-224.8" font-family="Helvetica,sans-Serif" font-size="9.00">_And_It_Traits, _Alloc &gt;</text>
</a>
</g>
</g>
<!-- Node2&#45;&gt;Node4 -->
<g id="edge3_Node000002_Node000004" class="edge">
<title>Node2&#45;&gt;Node4</title>
<g id="a_edge3_Node000002_Node000004"><a xlink:title=" ">
<path fill="none" stroke="#63b8ff" d="M300.64,-222.86C312.94,-225.2 325.63,-227.62 337.67,-229.92"/>
<polygon fill="#63b8ff" stroke="#63b8ff" points="301.45,-219.45 290.97,-221.01 300.13,-226.32 301.45,-219.45"/>
</a>
</g>
</g>
<!-- Node5 -->
<g id="Node000005" class="node">
<title>Node5</title>
<g id="a_Node000005"><a xlink:href="a13441.html" target="_top" xlink:title="PATRICIA trie.">
<polygon fill="white" stroke="#666666" points="461.5,-200 342.5,-200 342.5,-152 461.5,-152 461.5,-200"/>
<text text-anchor="start" x="350.5" y="-188.8" font-family="Helvetica,sans-Serif" font-size="9.00">__gnu_pbds::detail</text>
<text text-anchor="start" x="350.5" y="-178.8" font-family="Helvetica,sans-Serif" font-size="9.00">::pat_trie_map&lt; Key,</text>
<text text-anchor="start" x="350.5" y="-168.8" font-family="Helvetica,sans-Serif" font-size="9.00"> Mapped, Node_And_It</text>
<text text-anchor="middle" x="402" y="-158.8" font-family="Helvetica,sans-Serif" font-size="9.00">_Traits, _Alloc &gt;</text>
</a>
</g>
</g>
<!-- Node2&#45;&gt;Node5 -->
<g id="edge4_Node000002_Node000005" class="edge">
<title>Node2&#45;&gt;Node5</title>
<g id="a_edge4_Node000002_Node000005"><a xlink:title=" ">
<path fill="none" stroke="#63b8ff" d="M300.46,-195.18C314.32,-192.54 328.67,-189.8 342.04,-187.25"/>
<polygon fill="#63b8ff" stroke="#63b8ff" points="300.13,-191.68 290.97,-196.99 301.45,-198.55 300.13,-191.68"/>
</a>
</g>
</g>
<!-- Node7 -->
<g id="Node000007" class="node">
<title>Node7</title>
<g id="a_Node000007"><a xlink:href="a13269.html" target="_top" xlink:title=" ">
<polygon fill="white" stroke="#666666" points="476.5,-134 327.5,-134 327.5,-76 476.5,-76 476.5,-134"/>
<text text-anchor="start" x="335.5" y="-122.8" font-family="Helvetica,sans-Serif" font-size="9.00">__gnu_pbds::detail</text>
<text text-anchor="start" x="335.5" y="-112.8" font-family="Helvetica,sans-Serif" font-size="9.00">::cc_ht_map&lt; Key, Mapped,</text>
<text text-anchor="start" x="335.5" y="-102.8" font-family="Helvetica,sans-Serif" font-size="9.00"> Hash_Fn, Eq_Fn, _Alloc,</text>
<text text-anchor="start" x="335.5" y="-92.8" font-family="Helvetica,sans-Serif" font-size="9.00"> Store_Hash, Comb_Hash_Fn,</text>
<text text-anchor="middle" x="402" y="-82.8" font-family="Helvetica,sans-Serif" font-size="9.00"> Resize_Policy &gt;</text>
</a>
</g>
</g>
<!-- Node6&#45;&gt;Node7 -->
<g id="edge6_Node000006_Node000007" class="edge">
<title>Node6&#45;&gt;Node7</title>
<g id="a_edge6_Node000006_Node000007"><a xlink:title=" ">
<path fill="none" stroke="#63b8ff" d="M297.01,-105C306.88,-105 317.07,-105 327.03,-105"/>
<polygon fill="#63b8ff" stroke="#63b8ff" points="297.12,-101.5 287.12,-105 297.12,-108.5 297.12,-101.5"/>
</a>
</g>
</g>
<!-- Node8 -->
<g id="Node000008" class="node">
<title>Node8</title>
<g id="a_Node000008"><a xlink:href="a13293.html" target="_top" xlink:title=" ">
<polygon fill="white" stroke="#666666" points="479,-58 325,-58 325,0 479,0 479,-58"/>
<text text-anchor="start" x="333" y="-46.8" font-family="Helvetica,sans-Serif" font-size="9.00">__gnu_pbds::detail</text>
<text text-anchor="start" x="333" y="-36.8" font-family="Helvetica,sans-Serif" font-size="9.00">::gp_ht_map&lt; Key, Mapped,</text>
<text text-anchor="start" x="333" y="-26.8" font-family="Helvetica,sans-Serif" font-size="9.00"> Hash_Fn, Eq_Fn, _Alloc,</text>
<text text-anchor="start" x="333" y="-16.8" font-family="Helvetica,sans-Serif" font-size="9.00"> Store_Hash, Comb_Probe</text>
<text text-anchor="middle" x="402" y="-6.8" font-family="Helvetica,sans-Serif" font-size="9.00">_Fn, Probe_Fn, Resize_Policy &gt;</text>
</a>
</g>
</g>
<!-- Node6&#45;&gt;Node8 -->
<g id="edge7_Node000006_Node000008" class="edge">
<title>Node6&#45;&gt;Node8</title>
<g id="a_edge7_Node000006_Node000008"><a xlink:title=" ">
<path fill="none" stroke="#63b8ff" d="M294.01,-76C307.08,-70.26 320.82,-64.23 333.92,-58.47"/>
<polygon fill="#63b8ff" stroke="#63b8ff" points="292.82,-72.7 285.08,-79.93 295.64,-79.11 292.82,-72.7"/>
</a>
</g>
</g>
</g>
</svg>

<style type='text/css'>
<![CDATA[
[data-mouse-over-selected='false'] { opacity: 0.7; }
[data-mouse-over-selected='true']  { opacity: 1.0; }
]]>
</style>
<script><![CDATA[
document.addEventListener('DOMContentLoaded', (event) => {
  highlightEdges();
  highlightAdjacentNodes();
});
]]></script>
</svg>
