<?xml version="1.0" encoding="UTF-8" standalone="no"?>
<!DOCTYPE svg PUBLIC "-//W3C//DTD SVG 1.1//EN"
 "http://www.w3.org/Graphics/SVG/1.1/DTD/svg11.dtd">
<!-- Generated by graphviz version 7.1.0 (0)
 -->
<!-- Title: __gnu_pbds::detail::types_traits&lt; Key, Mapped, _Alloc, Store_Hash &gt; Pages: 1 -->
<svg width="480pt" height="142pt"
 viewBox="0.00 0.00 480.00 142.00" xmlns="http://www.w3.org/2000/svg" xmlns:xlink="http://www.w3.org/1999/xlink">
<g id="graph0" class="graph" transform="scale(1 1) rotate(0) translate(4 138)">
<title>__gnu_pbds::detail::types_traits&lt; Key, Mapped, _Alloc, Store_Hash &gt;</title>
<!-- Node1 -->
<g id="Node000001" class="node">
<title>Node1</title>
<g id="a_Node000001"><a xlink:title="Traits for abstract types.">
<polygon fill="#999999" stroke="#666666" points="282,-91 165,-91 165,-43 282,-43 282,-91"/>
<text text-anchor="start" x="173" y="-79.8" font-family="Helvetica,sans-Serif" font-size="9.00">__gnu_pbds::detail</text>
<text text-anchor="start" x="173" y="-69.8" font-family="Helvetica,sans-Serif" font-size="9.00">::types_traits&lt; Key,</text>
<text text-anchor="start" x="173" y="-59.8" font-family="Helvetica,sans-Serif" font-size="9.00"> Mapped, _Alloc, Store</text>
<text text-anchor="middle" x="223.5" y="-49.8" font-family="Helvetica,sans-Serif" font-size="9.00">_Hash &gt;</text>
</a>
</g>
</g>
<!-- Node3 -->
<g id="Node000003" class="node">
<title>Node3</title>
<g id="a_Node000003"><a xlink:href="a13269.html" target="_top" xlink:title=" ">
<polygon fill="white" stroke="#666666" points="469.5,-134 320.5,-134 320.5,-76 469.5,-76 469.5,-134"/>
<text text-anchor="start" x="328.5" y="-122.8" font-family="Helvetica,sans-Serif" font-size="9.00">__gnu_pbds::detail</text>
<text text-anchor="start" x="328.5" y="-112.8" font-family="Helvetica,sans-Serif" font-size="9.00">::cc_ht_map&lt; Key, Mapped,</text>
<text text-anchor="start" x="328.5" y="-102.8" font-family="Helvetica,sans-Serif" font-size="9.00"> Hash_Fn, Eq_Fn, _Alloc,</text>
<text text-anchor="start" x="328.5" y="-92.8" font-family="Helvetica,sans-Serif" font-size="9.00"> Store_Hash, Comb_Hash_Fn,</text>
<text text-anchor="middle" x="395" y="-82.8" font-family="Helvetica,sans-Serif" font-size="9.00"> Resize_Policy &gt;</text>
</a>
</g>
</g>
<!-- Node1&#45;&gt;Node3 -->
<g id="edge2_Node000001_Node000003" class="edge">
<title>Node1&#45;&gt;Node3</title>
<g id="a_edge2_Node000001_Node000003"><a xlink:title=" ">
<path fill="none" stroke="#63b8ff" d="M293.39,-82.45C302.23,-84.43 311.31,-86.46 320.22,-88.46"/>
<polygon fill="#63b8ff" stroke="#63b8ff" points="294.36,-79.07 283.84,-80.3 292.83,-85.91 294.36,-79.07"/>
</a>
</g>
</g>
<!-- Node4 -->
<g id="Node000004" class="node">
<title>Node4</title>
<g id="a_Node000004"><a xlink:href="a13293.html" target="_top" xlink:title=" ">
<polygon fill="white" stroke="#666666" points="472,-58 318,-58 318,0 472,0 472,-58"/>
<text text-anchor="start" x="326" y="-46.8" font-family="Helvetica,sans-Serif" font-size="9.00">__gnu_pbds::detail</text>
<text text-anchor="start" x="326" y="-36.8" font-family="Helvetica,sans-Serif" font-size="9.00">::gp_ht_map&lt; Key, Mapped,</text>
<text text-anchor="start" x="326" y="-26.8" font-family="Helvetica,sans-Serif" font-size="9.00"> Hash_Fn, Eq_Fn, _Alloc,</text>
<text text-anchor="start" x="326" y="-16.8" font-family="Helvetica,sans-Serif" font-size="9.00"> Store_Hash, Comb_Probe</text>
<text text-anchor="middle" x="395" y="-6.8" font-family="Helvetica,sans-Serif" font-size="9.00">_Fn, Probe_Fn, Resize_Policy &gt;</text>
</a>
</g>
</g>
<!-- Node1&#45;&gt;Node4 -->
<g id="edge3_Node000001_Node000004" class="edge">
<title>Node1&#45;&gt;Node4</title>
<g id="a_edge3_Node000001_Node000004"><a xlink:title=" ">
<path fill="none" stroke="#63b8ff" d="M293.42,-51.55C301.36,-49.77 309.49,-47.95 317.52,-46.15"/>
<polygon fill="#63b8ff" stroke="#63b8ff" points="292.83,-48.09 283.84,-53.7 294.36,-54.93 292.83,-48.09"/>
</a>
</g>
</g>
<!-- Node2 -->
<g id="Node000002" class="node">
<title>Node2</title>
<g id="a_Node000002"><a xlink:href="a13149.html" target="_top" xlink:title="Base class for conditionally defining a static data member.">
<polygon fill="white" stroke="#666666" points="129,-91 0,-91 0,-43 129,-43 129,-91"/>
<text text-anchor="start" x="8" y="-79.8" font-family="Helvetica,sans-Serif" font-size="9.00">__gnu_pbds::detail</text>
<text text-anchor="start" x="8" y="-69.8" font-family="Helvetica,sans-Serif" font-size="9.00">::maybe_null_type&lt; Key,</text>
<text text-anchor="start" x="8" y="-59.8" font-family="Helvetica,sans-Serif" font-size="9.00"> Mapped, _Alloc, Store</text>
<text text-anchor="middle" x="64.5" y="-49.8" font-family="Helvetica,sans-Serif" font-size="9.00">_Hash &gt;</text>
</a>
</g>
</g>
<!-- Node2&#45;&gt;Node1 -->
<g id="edge1_Node000001_Node000002" class="edge">
<title>Node2&#45;&gt;Node1</title>
<g id="a_edge1_Node000001_Node000002"><a xlink:title=" ">
<path fill="none" stroke="#63b8ff" d="M140.64,-67C148.66,-67 156.73,-67 164.51,-67"/>
<polygon fill="#63b8ff" stroke="#63b8ff" points="140.87,-63.5 130.87,-67 140.87,-70.5 140.87,-63.5"/>
</a>
</g>
</g>
</g>
</svg>
