<?xml version="1.0" encoding="UTF-8" standalone="no"?>
<!DOCTYPE svg PUBLIC "-//W3C//DTD SVG 1.1//EN"
 "http://www.w3.org/Graphics/SVG/1.1/DTD/svg11.dtd">
<!-- Generated by graphviz version 7.1.0 (0)
 -->
<!-- Title: __gnu_pbds::detail::binomial_heap_base&lt; Value_Type, Cmp_Fn, _Alloc &gt; Pages: 1 -->
<svg width="477pt" height="112pt"
 viewBox="0.00 0.00 477.00 112.00" xmlns="http://www.w3.org/2000/svg" xmlns:xlink="http://www.w3.org/1999/xlink">
<g id="graph0" class="graph" transform="scale(1 1) rotate(0) translate(4 108)">
<title>__gnu_pbds::detail::binomial_heap_base&lt; Value_Type, Cmp_Fn, _Alloc &gt;</title>
<!-- Node1 -->
<g id="Node000001" class="node">
<title>Node1</title>
<g id="a_Node000001"><a xlink:title="Base class for binomial heap.">
<polygon fill="#999999" stroke="#666666" points="307,-78 185,-78 185,-30 307,-30 307,-78"/>
<text text-anchor="start" x="193" y="-66.8" font-family="Helvetica,sans-Serif" font-size="9.00">__gnu_pbds::detail</text>
<text text-anchor="start" x="193" y="-56.8" font-family="Helvetica,sans-Serif" font-size="9.00">::binomial_heap_base</text>
<text text-anchor="start" x="193" y="-46.8" font-family="Helvetica,sans-Serif" font-size="9.00">&lt; Value_Type, Cmp_Fn,</text>
<text text-anchor="middle" x="246" y="-36.8" font-family="Helvetica,sans-Serif" font-size="9.00"> _Alloc &gt;</text>
</a>
</g>
</g>
<!-- Node3 -->
<g id="Node000003" class="node">
<title>Node3</title>
<g id="a_Node000003"><a xlink:href="a13213.html" target="_top" xlink:title=" ">
<polygon fill="white" stroke="#666666" points="469,-104 343,-104 343,-66 469,-66 469,-104"/>
<text text-anchor="start" x="351" y="-92.8" font-family="Helvetica,sans-Serif" font-size="9.00">__gnu_pbds::detail</text>
<text text-anchor="start" x="351" y="-82.8" font-family="Helvetica,sans-Serif" font-size="9.00">::binomial_heap&lt; Value</text>
<text text-anchor="middle" x="406" y="-72.8" font-family="Helvetica,sans-Serif" font-size="9.00">_Type, Cmp_Fn, _Alloc &gt;</text>
</a>
</g>
</g>
<!-- Node1&#45;&gt;Node3 -->
<g id="edge2_Node000001_Node000003" class="edge">
<title>Node1&#45;&gt;Node3</title>
<g id="a_edge2_Node000001_Node000003"><a xlink:title=" ">
<path fill="none" stroke="#63b8ff" d="M318.47,-68.02C326.53,-69.6 334.69,-71.21 342.62,-72.76"/>
<polygon fill="#63b8ff" stroke="#63b8ff" points="319.16,-64.59 308.67,-66.1 317.81,-71.46 319.16,-64.59"/>
</a>
</g>
</g>
<!-- Node4 -->
<g id="Node000004" class="node">
<title>Node4</title>
<g id="a_Node000004"><a xlink:href="a13541.html" target="_top" xlink:title=" ">
<polygon fill="white" stroke="#666666" points="463.5,-48 348.5,-48 348.5,0 463.5,0 463.5,-48"/>
<text text-anchor="start" x="356.5" y="-36.8" font-family="Helvetica,sans-Serif" font-size="9.00">__gnu_pbds::detail</text>
<text text-anchor="start" x="356.5" y="-26.8" font-family="Helvetica,sans-Serif" font-size="9.00">::rc_binomial_heap&lt;</text>
<text text-anchor="start" x="356.5" y="-16.8" font-family="Helvetica,sans-Serif" font-size="9.00"> Value_Type, Cmp_Fn,</text>
<text text-anchor="middle" x="406" y="-6.8" font-family="Helvetica,sans-Serif" font-size="9.00"> _Alloc &gt;</text>
</a>
</g>
</g>
<!-- Node1&#45;&gt;Node4 -->
<g id="edge3_Node000001_Node000004" class="edge">
<title>Node1&#45;&gt;Node4</title>
<g id="a_edge3_Node000001_Node000004"><a xlink:title=" ">
<path fill="none" stroke="#63b8ff" d="M318.34,-40.45C328.31,-38.56 338.45,-36.64 348.11,-34.8"/>
<polygon fill="#63b8ff" stroke="#63b8ff" points="317.84,-36.99 308.67,-42.29 319.15,-43.86 317.84,-36.99"/>
</a>
</g>
</g>
<!-- Node2 -->
<g id="Node000002" class="node">
<title>Node2</title>
<g id="a_Node000002"><a xlink:href="a13369.html" target="_top" xlink:title=" ">
<polygon fill="white" stroke="#666666" points="149,-78 0,-78 0,-30 149,-30 149,-78"/>
<text text-anchor="start" x="8" y="-66.8" font-family="Helvetica,sans-Serif" font-size="9.00">__gnu_pbds::detail</text>
<text text-anchor="start" x="8" y="-56.8" font-family="Helvetica,sans-Serif" font-size="9.00">::left_child_next_sibling</text>
<text text-anchor="start" x="8" y="-46.8" font-family="Helvetica,sans-Serif" font-size="9.00">_heap&lt; Value_Type, Cmp_Fn,</text>
<text text-anchor="middle" x="74.5" y="-36.8" font-family="Helvetica,sans-Serif" font-size="9.00"> _Alloc::size_type, _Alloc &gt;</text>
</a>
</g>
</g>
<!-- Node2&#45;&gt;Node1 -->
<g id="edge1_Node000001_Node000002" class="edge">
<title>Node2&#45;&gt;Node1</title>
<g id="a_edge1_Node000001_Node000002"><a xlink:title=" ">
<path fill="none" stroke="#63b8ff" d="M160.73,-54C168.79,-54 176.85,-54 184.61,-54"/>
<polygon fill="#63b8ff" stroke="#63b8ff" points="160.87,-50.5 150.87,-54 160.87,-57.5 160.87,-50.5"/>
</a>
</g>
</g>
</g>
</svg>
