<?xml version="1.0" encoding="UTF-8" standalone="no"?>
<!DOCTYPE svg PUBLIC "-//W3C//DTD SVG 1.1//EN"
 "http://www.w3.org/Graphics/SVG/1.1/DTD/svg11.dtd">
<!-- Generated by graphviz version 7.1.0 (0)
 -->
<!-- Title: __gnu_pbds::detail::gp_ht_map&lt; Key, Mapped, Hash_Fn, Eq_Fn, _Alloc, Store_Hash, Comb_Probe_Fn, Probe_Fn, Resize_Policy &gt; Pages: 1 -->
<svg width="540pt" height="178pt"
 viewBox="0.00 0.00 540.00 178.00" xmlns="http://www.w3.org/2000/svg" xmlns:xlink="http://www.w3.org/1999/xlink">
<g id="graph0" class="graph" transform="scale(1 1) rotate(0) translate(4 174)">
<title>__gnu_pbds::detail::gp_ht_map&lt; Key, Mapped, Hash_Fn, Eq_Fn, _Alloc, Store_Hash, Comb_Probe_Fn, Probe_Fn, Resize_Policy &gt;</title>
<!-- Node1 -->
<g id="Node000001" class="node">
<title>Node1</title>
<g id="a_Node000001"><a xlink:title=" ">
<polygon fill="#999999" stroke="#666666" points="532,-119 378,-119 378,-61 532,-61 532,-119"/>
<text text-anchor="start" x="386" y="-107.8" font-family="Helvetica,sans-Serif" font-size="9.00">__gnu_pbds::detail</text>
<text text-anchor="start" x="386" y="-97.8" font-family="Helvetica,sans-Serif" font-size="9.00">::gp_ht_map&lt; Key, Mapped,</text>
<text text-anchor="start" x="386" y="-87.8" font-family="Helvetica,sans-Serif" font-size="9.00"> Hash_Fn, Eq_Fn, _Alloc,</text>
<text text-anchor="start" x="386" y="-77.8" font-family="Helvetica,sans-Serif" font-size="9.00"> Store_Hash, Comb_Probe</text>
<text text-anchor="middle" x="455" y="-67.8" font-family="Helvetica,sans-Serif" font-size="9.00">_Fn, Probe_Fn, Resize_Policy &gt;</text>
</a>
</g>
</g>
<!-- Node2 -->
<g id="Node000002" class="node">
<title>Node2</title>
<g id="a_Node000002"><a xlink:href="a13281.html" target="_top" xlink:title="Primary template.">
<polygon fill="white" stroke="#666666" points="319,-170 188,-170 188,-132 319,-132 319,-170"/>
<text text-anchor="start" x="196" y="-158.8" font-family="Helvetica,sans-Serif" font-size="9.00">__gnu_pbds::detail</text>
<text text-anchor="start" x="196" y="-148.8" font-family="Helvetica,sans-Serif" font-size="9.00">::hash_eq_fn&lt; Key, Eq</text>
<text text-anchor="middle" x="253.5" y="-138.8" font-family="Helvetica,sans-Serif" font-size="9.00">_Fn, _Alloc, Store_Hash &gt;</text>
</a>
</g>
</g>
<!-- Node2&#45;&gt;Node1 -->
<g id="edge1_Node000001_Node000002" class="edge">
<title>Node2&#45;&gt;Node1</title>
<g id="a_edge1_Node000001_Node000002"><a xlink:title=" ">
<path fill="none" stroke="#63b8ff" d="M329.01,-128.22C344.91,-123.36 361.72,-118.22 377.68,-113.34"/>
<polygon fill="#63b8ff" stroke="#63b8ff" points="328.16,-124.82 319.62,-131.09 330.21,-131.51 328.16,-124.82"/>
</a>
</g>
</g>
<!-- Node3 -->
<g id="Node000003" class="node">
<title>Node3</title>
<g id="a_Node000003"><a xlink:href="a13333.html" target="_top" xlink:title="Primary template.">
<polygon fill="white" stroke="#666666" points="342,-114 165,-114 165,-66 342,-66 342,-114"/>
<text text-anchor="start" x="173" y="-102.8" font-family="Helvetica,sans-Serif" font-size="9.00">__gnu_pbds::detail</text>
<text text-anchor="start" x="173" y="-92.8" font-family="Helvetica,sans-Serif" font-size="9.00">::ranged_probe_fn&lt; Key,</text>
<text text-anchor="start" x="173" y="-82.8" font-family="Helvetica,sans-Serif" font-size="9.00"> Hash_Fn, _Alloc, Comb</text>
<text text-anchor="middle" x="253.5" y="-72.8" font-family="Helvetica,sans-Serif" font-size="9.00">_Probe_Fn, Probe_Fn, Store_Hash &gt;</text>
</a>
</g>
</g>
<!-- Node3&#45;&gt;Node1 -->
<g id="edge2_Node000001_Node000003" class="edge">
<title>Node3&#45;&gt;Node1</title>
<g id="a_edge2_Node000001_Node000003"><a xlink:title=" ">
<path fill="none" stroke="#63b8ff" d="M353.69,-90C361.77,-90 369.86,-90 377.74,-90"/>
<polygon fill="#63b8ff" stroke="#63b8ff" points="353.81,-86.5 343.81,-90 353.81,-93.5 353.81,-86.5"/>
</a>
</g>
</g>
<!-- Node4 -->
<g id="Node000004" class="node">
<title>Node4</title>
<g id="a_Node000004"><a xlink:href="a13161.html" target="_top" xlink:title="Traits for abstract types.">
<polygon fill="white" stroke="#666666" points="312,-48 195,-48 195,0 312,0 312,-48"/>
<text text-anchor="start" x="203" y="-36.8" font-family="Helvetica,sans-Serif" font-size="9.00">__gnu_pbds::detail</text>
<text text-anchor="start" x="203" y="-26.8" font-family="Helvetica,sans-Serif" font-size="9.00">::types_traits&lt; Key,</text>
<text text-anchor="start" x="203" y="-16.8" font-family="Helvetica,sans-Serif" font-size="9.00"> Mapped, _Alloc, Store</text>
<text text-anchor="middle" x="253.5" y="-6.8" font-family="Helvetica,sans-Serif" font-size="9.00">_Hash &gt;</text>
</a>
</g>
</g>
<!-- Node4&#45;&gt;Node1 -->
<g id="edge3_Node000001_Node000004" class="edge">
<title>Node4&#45;&gt;Node1</title>
<g id="a_edge3_Node000001_Node000004"><a xlink:title=" ">
<path fill="none" stroke="#63b8ff" d="M323.2,-46.73C340.76,-52.54 359.75,-58.82 377.67,-64.75"/>
<polygon fill="#63b8ff" stroke="#63b8ff" points="324.5,-43.47 313.91,-43.65 322.3,-50.12 324.5,-43.47"/>
</a>
</g>
</g>
<!-- Node5 -->
<g id="Node000005" class="node">
<title>Node5</title>
<g id="a_Node000005"><a xlink:href="a13149.html" target="_top" xlink:title="Base class for conditionally defining a static data member.">
<polygon fill="white" stroke="#666666" points="129,-48 0,-48 0,0 129,0 129,-48"/>
<text text-anchor="start" x="8" y="-36.8" font-family="Helvetica,sans-Serif" font-size="9.00">__gnu_pbds::detail</text>
<text text-anchor="start" x="8" y="-26.8" font-family="Helvetica,sans-Serif" font-size="9.00">::maybe_null_type&lt; Key,</text>
<text text-anchor="start" x="8" y="-16.8" font-family="Helvetica,sans-Serif" font-size="9.00"> Mapped, _Alloc, Store</text>
<text text-anchor="middle" x="64.5" y="-6.8" font-family="Helvetica,sans-Serif" font-size="9.00">_Hash &gt;</text>
</a>
</g>
</g>
<!-- Node5&#45;&gt;Node4 -->
<g id="edge4_Node000004_Node000005" class="edge">
<title>Node5&#45;&gt;Node4</title>
<g id="a_edge4_Node000004_Node000005"><a xlink:title=" ">
<path fill="none" stroke="#63b8ff" d="M140.67,-24C158.64,-24 177.55,-24 194.6,-24"/>
<polygon fill="#63b8ff" stroke="#63b8ff" points="140.85,-20.5 130.85,-24 140.85,-27.5 140.85,-20.5"/>
</a>
</g>
</g>
</g>
</svg>
