<?xml version="1.0" encoding="UTF-8" standalone="no"?>
<!DOCTYPE svg PUBLIC "-//W3C//DTD SVG 1.1//EN"
 "http://www.w3.org/Graphics/SVG/1.1/DTD/svg11.dtd">
<!-- Generated by graphviz version 7.1.0 (0)
 -->
<!-- Title: __gnu_pbds::detail::trie_policy_base&lt; Node_CItr, Node_Itr, _ATraits, _Alloc &gt; Pages: 1 -->
<svg width="463pt" height="122pt"
 viewBox="0.00 0.00 463.00 122.00" xmlns="http://www.w3.org/2000/svg" xmlns:xlink="http://www.w3.org/1999/xlink">
<g id="graph0" class="graph" transform="scale(1 1) rotate(0) translate(4 118)">
<title>__gnu_pbds::detail::trie_policy_base&lt; Node_CItr, Node_Itr, _ATraits, _Alloc &gt;</title>
<!-- Node1 -->
<g id="Node000001" class="node">
<title>Node1</title>
<g id="a_Node000001"><a xlink:title="Base class for trie policies.">
<polygon fill="#999999" stroke="#666666" points="271,-81 160,-81 160,-33 271,-33 271,-81"/>
<text text-anchor="start" x="168" y="-69.8" font-family="Helvetica,sans-Serif" font-size="9.00">__gnu_pbds::detail</text>
<text text-anchor="start" x="168" y="-59.8" font-family="Helvetica,sans-Serif" font-size="9.00">::trie_policy_base&lt;</text>
<text text-anchor="start" x="168" y="-49.8" font-family="Helvetica,sans-Serif" font-size="9.00"> Node_CItr, Node_Itr,</text>
<text text-anchor="middle" x="215.5" y="-39.8" font-family="Helvetica,sans-Serif" font-size="9.00"> _ATraits, _Alloc &gt;</text>
</a>
</g>
</g>
<!-- Node3 -->
<g id="Node000003" class="node">
<title>Node3</title>
<g id="a_Node000003"><a xlink:href="a12973.html" target="_top" xlink:title="Functor updating ranks of entrees.">
<polygon fill="white" stroke="#666666" points="443.5,-114 318.5,-114 318.5,-66 443.5,-66 443.5,-114"/>
<text text-anchor="start" x="326.5" y="-102.8" font-family="Helvetica,sans-Serif" font-size="9.00">__gnu_pbds::trie_order</text>
<text text-anchor="start" x="326.5" y="-92.8" font-family="Helvetica,sans-Serif" font-size="9.00">_statistics_node_update</text>
<text text-anchor="start" x="326.5" y="-82.8" font-family="Helvetica,sans-Serif" font-size="9.00">&lt; Node_CItr, Node_Itr, </text>
<text text-anchor="middle" x="381" y="-72.8" font-family="Helvetica,sans-Serif" font-size="9.00">_ATraits, _Alloc &gt;</text>
</a>
</g>
</g>
<!-- Node1&#45;&gt;Node3 -->
<g id="edge2_Node000001_Node000003" class="edge">
<title>Node1&#45;&gt;Node3</title>
<g id="a_edge2_Node000001_Node000003"><a xlink:title=" ">
<path fill="none" stroke="#8b1a1a" d="M282.52,-70.33C294.31,-72.7 306.54,-75.17 318.2,-77.53"/>
<polygon fill="#8b1a1a" stroke="#8b1a1a" points="283.38,-66.93 272.88,-68.38 281.99,-73.79 283.38,-66.93"/>
</a>
</g>
</g>
<!-- Node4 -->
<g id="Node000004" class="node">
<title>Node4</title>
<g id="a_Node000004"><a xlink:href="a12969.html" target="_top" xlink:title="A node updator that allows tries to be searched for the range of values that match a certain prefix.">
<polygon fill="white" stroke="#666666" points="455,-48 307,-48 307,0 455,0 455,-48"/>
<text text-anchor="start" x="315" y="-36.8" font-family="Helvetica,sans-Serif" font-size="9.00">__gnu_pbds::trie_prefix</text>
<text text-anchor="start" x="315" y="-26.8" font-family="Helvetica,sans-Serif" font-size="9.00">_search_node_update&lt; Node</text>
<text text-anchor="start" x="315" y="-16.8" font-family="Helvetica,sans-Serif" font-size="9.00">_CItr, Node_Itr, _ATraits,</text>
<text text-anchor="middle" x="381" y="-6.8" font-family="Helvetica,sans-Serif" font-size="9.00"> _Alloc &gt;</text>
</a>
</g>
</g>
<!-- Node1&#45;&gt;Node4 -->
<g id="edge3_Node000001_Node000004" class="edge">
<title>Node1&#45;&gt;Node4</title>
<g id="a_edge3_Node000001_Node000004"><a xlink:title=" ">
<path fill="none" stroke="#8b1a1a" d="M282.48,-43.68C290.44,-42.08 298.6,-40.43 306.66,-38.8"/>
<polygon fill="#8b1a1a" stroke="#8b1a1a" points="281.99,-40.21 272.88,-45.62 283.38,-47.07 281.99,-40.21"/>
</a>
</g>
</g>
<!-- Node2 -->
<g id="Node000002" class="node">
<title>Node2</title>
<g id="a_Node000002"><a xlink:href="a13249.html" target="_top" xlink:title="Primary template, base class for branch structure policies.">
<polygon fill="white" stroke="#666666" points="124,-76 0,-76 0,-38 124,-38 124,-76"/>
<text text-anchor="start" x="8" y="-64.8" font-family="Helvetica,sans-Serif" font-size="9.00">__gnu_pbds::detail</text>
<text text-anchor="start" x="8" y="-54.8" font-family="Helvetica,sans-Serif" font-size="9.00">::branch_policy&lt; Node</text>
<text text-anchor="middle" x="62" y="-44.8" font-family="Helvetica,sans-Serif" font-size="9.00">_CItr, Node_Itr, _Alloc &gt;</text>
</a>
</g>
</g>
<!-- Node2&#45;&gt;Node1 -->
<g id="edge1_Node000001_Node000002" class="edge">
<title>Node2&#45;&gt;Node1</title>
<g id="a_edge1_Node000001_Node000002"><a xlink:title=" ">
<path fill="none" stroke="#63b8ff" d="M135.66,-57C143.83,-57 152.04,-57 159.93,-57"/>
<polygon fill="#63b8ff" stroke="#63b8ff" points="135.7,-53.5 125.7,-57 135.7,-60.5 135.7,-53.5"/>
</a>
</g>
</g>
</g>
</svg>
