<?xml version="1.0" encoding="UTF-8" standalone="no"?>
<!DOCTYPE svg PUBLIC "-//W3C//DTD SVG 1.1//EN"
 "http://www.w3.org/Graphics/SVG/1.1/DTD/svg11.dtd">
<!-- Generated by graphviz version 7.1.0 (0)
 -->
<!-- Title: Graph Legend Pages: 1 -->
<svg width="516pt" height="154pt"
 viewBox="0.00 0.00 516.00 154.00" xmlns="http://www.w3.org/2000/svg" xmlns:xlink="http://www.w3.org/1999/xlink">
<g id="graph0" class="graph" transform="scale(1 1) rotate(0) translate(4 150)">
<title>Graph Legend</title>
<!-- Node9 -->
<g id="Node000009" class="node">
<title>Node9</title>
<g id="a_Node000009"><a xlink:title=" ">
<polygon fill="#999999" stroke="#666666" points="293.5,-18 235.5,-18 235.5,0 293.5,0 293.5,-18"/>
<text text-anchor="middle" x="264.5" y="-6.8" font-family="Helvetica,sans-Serif" font-size="9.00">Inherited</text>
</a>
</g>
</g>
<!-- Node10 -->
<g id="Node000010" class="node">
<title>Node10</title>
<g id="a_Node000010"><a xlink:title=" ">
<polygon fill="white" stroke="#666666" points="65,-82 0,-82 0,-64 65,-64 65,-82"/>
<text text-anchor="middle" x="32.5" y="-70.8" font-family="Helvetica,sans-Serif" font-size="9.00">PublicBase</text>
</a>
</g>
</g>
<!-- Node10&#45;&gt;Node9 -->
<g id="edge1" class="edge">
<title>Node10&#45;&gt;Node9</title>
<g id="a_edge1"><a xlink:title=" ">
<path fill="none" stroke="#63b8ff" d="M75.2,-60.59C121.74,-48.15 194.92,-28.59 235.3,-17.8"/>
<polygon fill="#63b8ff" stroke="#63b8ff" points="74.49,-57.16 65.73,-63.12 76.3,-63.92 74.49,-57.16"/>
</a>
</g>
</g>
<!-- Node11 -->
<g id="Node000011" class="node">
<title>Node11</title>
<g id="a_Node000011"><a xlink:title=" ">
<polygon fill="#fff0f0" stroke="red" points="63.5,-146 1.5,-146 1.5,-128 63.5,-128 63.5,-146"/>
<text text-anchor="middle" x="32.5" y="-134.8" font-family="Helvetica,sans-Serif" font-size="9.00">Truncated</text>
</a>
</g>
</g>
<!-- Node11&#45;&gt;Node10 -->
<g id="edge2" class="edge">
<title>Node11&#45;&gt;Node10</title>
<g id="a_edge2"><a xlink:title=" ">
<path fill="none" stroke="#63b8ff" d="M32.5,-116.45C32.5,-104.92 32.5,-90.91 32.5,-82.23"/>
<polygon fill="#63b8ff" stroke="#63b8ff" points="29,-116.12 32.5,-126.12 36,-116.12 29,-116.12"/>
</a>
</g>
</g>
<!-- Node13 -->
<g id="node4" class="node">
<title>Node13</title>
<g id="a_node4"><a xlink:title=" ">
<polygon fill="white" stroke="#666666" points="164,-82 83,-82 83,-64 164,-64 164,-82"/>
<text text-anchor="middle" x="123.5" y="-70.8" font-family="Helvetica,sans-Serif" font-size="9.00">ProtectedBase</text>
</a>
</g>
</g>
<!-- Node13&#45;&gt;Node9 -->
<g id="edge3" class="edge">
<title>Node13&#45;&gt;Node9</title>
<g id="a_edge3"><a xlink:title=" ">
<path fill="none" stroke="darkgreen" d="M153.13,-58.97C180.93,-46.75 221.7,-28.82 245.42,-18.39"/>
<polygon fill="darkgreen" stroke="darkgreen" points="151.94,-55.67 144.2,-62.9 154.76,-62.08 151.94,-55.67"/>
</a>
</g>
</g>
<!-- Node14 -->
<g id="node5" class="node">
<title>Node14</title>
<g id="a_node5"><a xlink:title=" ">
<polygon fill="white" stroke="#666666" points="250.5,-82 182.5,-82 182.5,-64 250.5,-64 250.5,-82"/>
<text text-anchor="middle" x="216.5" y="-70.8" font-family="Helvetica,sans-Serif" font-size="9.00">PrivateBase</text>
</a>
</g>
</g>
<!-- Node14&#45;&gt;Node9 -->
<g id="edge4" class="edge">
<title>Node14&#45;&gt;Node9</title>
<g id="a_edge4"><a xlink:title=" ">
<path fill="none" stroke="#8b1a1a" d="M229.95,-54.63C239.17,-42.72 250.98,-27.47 258.13,-18.23"/>
<polygon fill="#8b1a1a" stroke="#8b1a1a" points="227.25,-52.39 223.9,-62.44 232.79,-56.68 227.25,-52.39"/>
</a>
</g>
</g>
<!-- Node15 -->
<g id="Node000015" class="node">
<title>Node15</title>
<g id="a_Node000015"><a xlink:title=" ">
<polygon fill="#e0e0e0" stroke="#999999" points="356,-82 269,-82 269,-64 356,-64 356,-82"/>
<text text-anchor="middle" x="312.5" y="-70.8" font-family="Helvetica,sans-Serif" font-size="9.00">Undocumented</text>
</a>
</g>
</g>
<!-- Node15&#45;&gt;Node9 -->
<g id="edge5" class="edge">
<title>Node15&#45;&gt;Node9</title>
<g id="a_edge5"><a xlink:title=" ">
<path fill="none" stroke="#63b8ff" d="M299.05,-54.63C289.83,-42.72 278.02,-27.47 270.87,-18.23"/>
<polygon fill="#63b8ff" stroke="#63b8ff" points="296.21,-56.68 305.1,-62.44 301.75,-52.39 296.21,-56.68"/>
</a>
</g>
</g>
<!-- Node16 -->
<g id="node7" class="node">
<title>Node16</title>
<g id="a_node7"><a xlink:title=" ">
<polygon fill="white" stroke="#666666" points="450.5,-82 374.5,-82 374.5,-64 450.5,-64 450.5,-82"/>
<text text-anchor="middle" x="412.5" y="-70.8" font-family="Helvetica,sans-Serif" font-size="9.00">Templ&lt; int &gt;</text>
</a>
</g>
</g>
<!-- Node16&#45;&gt;Node9 -->
<g id="edge6" class="edge">
<title>Node16&#45;&gt;Node9</title>
<g id="a_edge6"><a xlink:title=" ">
<path fill="none" stroke="#63b8ff" d="M381.79,-59.13C352.59,-46.9 309.54,-28.87 284.52,-18.39"/>
<polygon fill="#63b8ff" stroke="#63b8ff" points="380.26,-62.29 390.84,-62.92 382.96,-55.83 380.26,-62.29"/>
</a>
</g>
</g>
<!-- Node17 -->
<g id="node8" class="node">
<title>Node17</title>
<g id="a_node8"><a xlink:title=" ">
<polygon fill="white" stroke="#666666" points="447,-146 378,-146 378,-128 447,-128 447,-146"/>
<text text-anchor="middle" x="412.5" y="-134.8" font-family="Helvetica,sans-Serif" font-size="9.00">Templ&lt; T &gt;</text>
</a>
</g>
</g>
<!-- Node17&#45;&gt;Node16 -->
<g id="edge7" class="edge">
<title>Node17&#45;&gt;Node16</title>
<g id="a_edge7"><a xlink:title=" ">
<path fill="none" stroke="orange" stroke-dasharray="5,2" d="M412.5,-116.45C412.5,-104.92 412.5,-90.91 412.5,-82.23"/>
<polygon fill="orange" stroke="orange" points="409,-116.12 412.5,-126.12 416,-116.12 409,-116.12"/>
</a>
</g>
<text text-anchor="middle" x="429.5" y="-102.8" font-family="Helvetica,sans-Serif" font-size="9.00" fill="grey">&lt; int &gt;</text>
</g>
<!-- Node18 -->
<g id="node9" class="node">
<title>Node18</title>
<g id="a_node9"><a xlink:title=" ">
<polygon fill="white" stroke="#666666" points="508,-82 469,-82 469,-64 508,-64 508,-82"/>
<text text-anchor="middle" x="488.5" y="-70.8" font-family="Helvetica,sans-Serif" font-size="9.00">Used</text>
</a>
</g>
</g>
<!-- Node18&#45;&gt;Node9 -->
<g id="edge8" class="edge">
<title>Node18&#45;&gt;Node9</title>
<g id="a_edge8"><a xlink:title=" ">
<path fill="none" stroke="#9a32cd" stroke-dasharray="5,2" d="M457.65,-63.46C414.36,-51.48 336.16,-29.83 293.75,-18.1"/>
<polygon fill="#9a32cd" stroke="#9a32cd" points="456.59,-66.8 467.16,-66.09 458.46,-60.05 456.59,-66.8"/>
</a>
</g>
<text text-anchor="middle" x="418.5" y="-38.8" font-family="Helvetica,sans-Serif" font-size="9.00" fill="grey">m_usedClass</text>
</g>
</g>
</svg>
