<?xml version="1.0" encoding="UTF-8" standalone="no"?>
<!DOCTYPE svg PUBLIC "-//W3C//DTD SVG 1.1//EN"
 "http://www.w3.org/Graphics/SVG/1.1/DTD/svg11.dtd">
<!-- Generated by graphviz version 7.1.0 (0)
 -->
<!-- Title: Graphical Class Hierarchy Pages: 1 -->
<svg width="288pt" height="62pt"
 viewBox="0.00 0.00 288.00 62.00" xmlns="http://www.w3.org/2000/svg" xmlns:xlink="http://www.w3.org/1999/xlink">
<g id="graph0" class="graph" transform="scale(1 1) rotate(0) translate(4 58)">
<title>Graphical Class Hierarchy</title>
<!-- Node0 -->
<g id="Node000000" class="node">
<title>Node0</title>
<g id="a_Node000000"><a xlink:href="a08017.html" target="_top" xlink:title=" ">
<polygon fill="white" stroke="#666666" points="107,-41 0,-41 0,-13 107,-13 107,-41"/>
<text text-anchor="start" x="8" y="-29.8" font-family="Helvetica,sans-Serif" font-size="9.00">std::_Deque_base&lt; </text>
<text text-anchor="middle" x="53.5" y="-19.8" font-family="Helvetica,sans-Serif" font-size="9.00">_Tp, _Alloc &gt;</text>
</a>
</g>
</g>
<!-- Node1 -->
<g id="Node000001" class="node">
<title>Node1</title>
<g id="a_Node000001"><a xlink:href="a08029.html" target="_top" xlink:title=" ">
<polygon fill="white" stroke="#666666" points="280,-54 143,-54 143,-36 280,-36 280,-54"/>
<text text-anchor="middle" x="211.5" y="-42.8" font-family="Helvetica,sans-Serif" font-size="9.00">std::deque&lt; _StateSeqT &gt;</text>
</a>
</g>
</g>
<!-- Node0&#45;&gt;Node1 -->
<g id="edge174_Node000000_Node000001" class="edge">
<title>Node0&#45;&gt;Node1</title>
<g id="a_edge174_Node000000_Node000001"><a xlink:title=" ">
<path fill="none" stroke="darkgreen" d="M118.67,-34.4C126.54,-35.31 134.61,-36.24 142.53,-37.16"/>
<polygon fill="darkgreen" stroke="darkgreen" points="119.15,-30.94 108.82,-33.27 118.35,-37.89 119.15,-30.94"/>
</a>
</g>
</g>
<!-- Node2 -->
<g id="Node000002" class="node">
<title>Node2</title>
<g id="a_Node000002"><a xlink:href="a08029.html" target="_top" xlink:title="A standard container using fixed&#45;size memory allocation and constant&#45;time manipulation of elements at...">
<polygon fill="white" stroke="#666666" points="278.5,-18 144.5,-18 144.5,0 278.5,0 278.5,-18"/>
<text text-anchor="middle" x="211.5" y="-6.8" font-family="Helvetica,sans-Serif" font-size="9.00">std::deque&lt; _Tp, _Alloc &gt;</text>
</a>
</g>
</g>
<!-- Node0&#45;&gt;Node2 -->
<g id="edge175_Node000000_Node000002" class="edge">
<title>Node0&#45;&gt;Node2</title>
<g id="a_edge175_Node000000_Node000002"><a xlink:title=" ">
<path fill="none" stroke="darkgreen" d="M118.63,-19.6C127.07,-18.63 135.72,-17.63 144.19,-16.65"/>
<polygon fill="darkgreen" stroke="darkgreen" points="118.35,-16.11 108.82,-20.73 119.15,-23.06 118.35,-16.11"/>
</a>
</g>
</g>
</g>
</svg>
