<?xml version="1.0" encoding="UTF-8" standalone="no"?>
<!DOCTYPE svg PUBLIC "-//W3C//DTD SVG 1.1//EN"
 "http://www.w3.org/Graphics/SVG/1.1/DTD/svg11.dtd">
<!-- Generated by graphviz version 7.1.0 (0)
 -->
<!-- Title: Graphical Class Hierarchy Pages: 1 -->
<svg width="258pt" height="82pt"
 viewBox="0.00 0.00 258.00 82.00" xmlns="http://www.w3.org/2000/svg" xmlns:xlink="http://www.w3.org/1999/xlink">
<g id="graph0" class="graph" transform="scale(1 1) rotate(0) translate(4 78)">
<title>Graphical Class Hierarchy</title>
<!-- Node0 -->
<g id="Node000000" class="node">
<title>Node0</title>
<g id="a_Node000000"><a xlink:href="a08037.html" target="_top" xlink:title=" ">
<polygon fill="white" stroke="#666666" points="105,-51 0,-51 0,-23 105,-23 105,-51"/>
<text text-anchor="start" x="8" y="-39.8" font-family="Helvetica,sans-Serif" font-size="9.00">std::unary_function</text>
<text text-anchor="middle" x="52.5" y="-29.8" font-family="Helvetica,sans-Serif" font-size="9.00">&lt; _Tp, _Ret &gt;</text>
</a>
</g>
</g>
<!-- Node1 -->
<g id="Node000001" class="node">
<title>Node1</title>
<g id="a_Node000001"><a xlink:href="a08321.html" target="_top" xlink:title="One of the adaptors for member pointers.">
<polygon fill="white" stroke="#666666" points="250,-74 141,-74 141,-46 250,-46 250,-74"/>
<text text-anchor="start" x="149" y="-62.8" font-family="Helvetica,sans-Serif" font-size="9.00">std::const_mem_fun</text>
<text text-anchor="middle" x="195.5" y="-52.8" font-family="Helvetica,sans-Serif" font-size="9.00">_ref_t&lt; _Ret, _Tp &gt;</text>
</a>
</g>
</g>
<!-- Node0&#45;&gt;Node1 -->
<g id="edge464_Node000000_Node000001" class="edge">
<title>Node0&#45;&gt;Node1</title>
<g id="a_edge464_Node000000_Node000001"><a xlink:title=" ">
<path fill="none" stroke="#63b8ff" d="M116.56,-47.29C124.69,-48.61 132.95,-49.96 140.91,-51.26"/>
<polygon fill="#63b8ff" stroke="#63b8ff" points="117.13,-43.83 106.7,-45.68 116,-50.74 117.13,-43.83"/>
</a>
</g>
</g>
<!-- Node2 -->
<g id="Node000002" class="node">
<title>Node2</title>
<g id="a_Node000002"><a xlink:href="a08317.html" target="_top" xlink:title="One of the adaptors for member pointers.">
<polygon fill="white" stroke="#666666" points="247.5,-28 143.5,-28 143.5,0 247.5,0 247.5,-28"/>
<text text-anchor="start" x="151.5" y="-16.8" font-family="Helvetica,sans-Serif" font-size="9.00">std::mem_fun_ref_t</text>
<text text-anchor="middle" x="195.5" y="-6.8" font-family="Helvetica,sans-Serif" font-size="9.00">&lt; _Ret, _Tp &gt;</text>
</a>
</g>
</g>
<!-- Node0&#45;&gt;Node2 -->
<g id="edge465_Node000000_Node000002" class="edge">
<title>Node0&#45;&gt;Node2</title>
<g id="a_edge465_Node000000_Node000002"><a xlink:title=" ">
<path fill="none" stroke="#63b8ff" d="M116.44,-26.73C125.42,-25.27 134.56,-23.78 143.27,-22.36"/>
<polygon fill="#63b8ff" stroke="#63b8ff" points="116,-23.26 106.7,-28.32 117.13,-30.17 116,-23.26"/>
</a>
</g>
</g>
</g>
</svg>
