<?xml version="1.0" encoding="UTF-8" standalone="no"?>
<!DOCTYPE svg PUBLIC "-//W3C//DTD SVG 1.1//EN"
 "http://www.w3.org/Graphics/SVG/1.1/DTD/svg11.dtd">
<!-- Generated by graphviz version 7.1.0 (0)
 -->
<!-- Title: Graphical Class Hierarchy Pages: 1 -->
<svg width="650pt" height="920pt"
 viewBox="0.00 0.00 650.00 920.00" xmlns="http://www.w3.org/2000/svg" xmlns:xlink="http://www.w3.org/1999/xlink">
<g id="graph0" class="graph" transform="scale(1 1) rotate(0) translate(4 916)">
<title>Graphical Class Hierarchy</title>
<!-- Node0 -->
<g id="Node000000" class="node">
<title>Node0</title>
<g id="a_Node000000"><a xlink:href="a05465.html" target="_top" xlink:title="Empty base class for codecvt facet [22.2.1.5].">
<polygon fill="white" stroke="#666666" points="102.5,-744 4.5,-744 4.5,-726 102.5,-726 102.5,-744"/>
<text text-anchor="middle" x="53.5" y="-732.8" font-family="Helvetica,sans-Serif" font-size="9.00">std::codecvt_base</text>
</a>
</g>
</g>
<!-- Node1 -->
<g id="Node000001" class="node">
<title>Node1</title>
<g id="a_Node000001"><a xlink:href="a05469.html" target="_top" xlink:title=" ">
<polygon fill="white" stroke="#666666" points="296.5,-642 157.5,-642 157.5,-604 296.5,-604 296.5,-642"/>
<text text-anchor="start" x="165.5" y="-630.8" font-family="Helvetica,sans-Serif" font-size="9.00">std::__codecvt_abstract</text>
<text text-anchor="start" x="165.5" y="-620.8" font-family="Helvetica,sans-Serif" font-size="9.00">_base&lt; _InternT, _ExternT,</text>
<text text-anchor="middle" x="227" y="-610.8" font-family="Helvetica,sans-Serif" font-size="9.00"> encoding_state &gt;</text>
</a>
</g>
</g>
<!-- Node0&#45;&gt;Node1 -->
<g id="edge262_Node000000_Node000001" class="edge">
<title>Node0&#45;&gt;Node1</title>
<g id="a_edge262_Node000000_Node000001"><a xlink:title=" ">
<path fill="none" stroke="#63b8ff" d="M69.23,-716.99C85.5,-698.14 113.35,-668.87 143,-651 148.21,-647.86 153.82,-645.02 159.57,-642.46"/>
<polygon fill="#63b8ff" stroke="#63b8ff" points="66.76,-714.48 62.99,-724.39 72.11,-719 66.76,-714.48"/>
</a>
</g>
</g>
<!-- Node4 -->
<g id="Node000004" class="node">
<title>Node4</title>
<g id="a_Node000004"><a xlink:href="a05469.html" target="_top" xlink:title=" ">
<polygon fill="white" stroke="#666666" points="307.5,-586 146.5,-586 146.5,-558 307.5,-558 307.5,-586"/>
<text text-anchor="start" x="154.5" y="-574.8" font-family="Helvetica,sans-Serif" font-size="9.00">std::__codecvt_abstract</text>
<text text-anchor="middle" x="227" y="-564.8" font-family="Helvetica,sans-Serif" font-size="9.00">_base&lt; char, char, mbstate_t &gt;</text>
</a>
</g>
</g>
<!-- Node0&#45;&gt;Node4 -->
<g id="edge264_Node000000_Node000004" class="edge">
<title>Node0&#45;&gt;Node4</title>
<g id="a_edge264_Node000000_Node000004"><a xlink:title=" ">
<path fill="none" stroke="#63b8ff" d="M61.56,-715.31C73.5,-684.83 100.61,-626.48 143,-595 147.44,-591.7 152.33,-588.88 157.45,-586.46"/>
<polygon fill="#63b8ff" stroke="#63b8ff" points="58.37,-713.83 58.13,-724.42 64.92,-716.29 58.37,-713.83"/>
</a>
</g>
</g>
<!-- Node6 -->
<g id="Node000006" class="node">
<title>Node6</title>
<g id="a_Node000006"><a xlink:href="a05469.html" target="_top" xlink:title=" ">
<polygon fill="white" stroke="#666666" points="289,-912 165,-912 165,-874 289,-874 289,-912"/>
<text text-anchor="start" x="173" y="-900.8" font-family="Helvetica,sans-Serif" font-size="9.00">std::__codecvt_abstract</text>
<text text-anchor="start" x="173" y="-890.8" font-family="Helvetica,sans-Serif" font-size="9.00">_base&lt; char16_t, char,</text>
<text text-anchor="middle" x="227" y="-880.8" font-family="Helvetica,sans-Serif" font-size="9.00"> mbstate_t &gt;</text>
</a>
</g>
</g>
<!-- Node0&#45;&gt;Node6 -->
<g id="edge266_Node000000_Node000006" class="edge">
<title>Node0&#45;&gt;Node6</title>
<g id="a_edge266_Node000000_Node000006"><a xlink:title=" ">
<path fill="none" stroke="#63b8ff" d="M62.88,-754.63C75.95,-782.99 103.82,-835.26 143,-865 149.54,-869.96 157.02,-874.08 164.74,-877.49"/>
<polygon fill="#63b8ff" stroke="#63b8ff" points="66.2,-753.49 58.94,-745.78 59.81,-756.34 66.2,-753.49"/>
</a>
</g>
</g>
<!-- Node8 -->
<g id="Node000008" class="node">
<title>Node8</title>
<g id="a_Node000008"><a xlink:href="a05469.html" target="_top" xlink:title=" ">
<polygon fill="white" stroke="#666666" points="289,-810 165,-810 165,-772 289,-772 289,-810"/>
<text text-anchor="start" x="173" y="-798.8" font-family="Helvetica,sans-Serif" font-size="9.00">std::__codecvt_abstract</text>
<text text-anchor="start" x="173" y="-788.8" font-family="Helvetica,sans-Serif" font-size="9.00">_base&lt; char32_t, char,</text>
<text text-anchor="middle" x="227" y="-778.8" font-family="Helvetica,sans-Serif" font-size="9.00"> mbstate_t &gt;</text>
</a>
</g>
</g>
<!-- Node0&#45;&gt;Node8 -->
<g id="edge268_Node000000_Node000008" class="edge">
<title>Node0&#45;&gt;Node8</title>
<g id="a_edge268_Node000000_Node000008"><a xlink:title=" ">
<path fill="none" stroke="#63b8ff" d="M94.26,-747.98C115.71,-754.99 142.6,-763.77 166.49,-771.57"/>
<polygon fill="#63b8ff" stroke="#63b8ff" points="95.62,-744.75 85.03,-744.97 93.45,-751.4 95.62,-744.75"/>
</a>
</g>
</g>
<!-- Node10 -->
<g id="Node000010" class="node">
<title>Node10</title>
<g id="a_Node000010"><a xlink:href="a05469.html" target="_top" xlink:title=" ">
<polygon fill="white" stroke="#666666" points="289,-754 165,-754 165,-716 289,-716 289,-754"/>
<text text-anchor="start" x="173" y="-742.8" font-family="Helvetica,sans-Serif" font-size="9.00">std::__codecvt_abstract</text>
<text text-anchor="start" x="173" y="-732.8" font-family="Helvetica,sans-Serif" font-size="9.00">_base&lt; wchar_t, char,</text>
<text text-anchor="middle" x="227" y="-722.8" font-family="Helvetica,sans-Serif" font-size="9.00"> mbstate_t &gt;</text>
</a>
</g>
</g>
<!-- Node0&#45;&gt;Node10 -->
<g id="edge270_Node000000_Node000010" class="edge">
<title>Node0&#45;&gt;Node10</title>
<g id="a_edge270_Node000000_Node000010"><a xlink:title=" ">
<path fill="none" stroke="#63b8ff" d="M113.84,-735C130.26,-735 148.12,-735 164.65,-735"/>
<polygon fill="#63b8ff" stroke="#63b8ff" points="114.24,-731.5 104.24,-735 114.24,-738.5 114.24,-731.5"/>
</a>
</g>
</g>
<!-- Node12 -->
<g id="Node000012" class="node">
<title>Node12</title>
<g id="a_Node000012"><a xlink:href="a05469.html" target="_top" xlink:title=" ">
<polygon fill="white" stroke="#666666" points="311,-856 143,-856 143,-828 311,-828 311,-856"/>
<text text-anchor="start" x="151" y="-844.8" font-family="Helvetica,sans-Serif" font-size="9.00">std::__codecvt_abstract</text>
<text text-anchor="middle" x="227" y="-834.8" font-family="Helvetica,sans-Serif" font-size="9.00">_base&lt; _Elem, char, mbstate_t &gt;</text>
</a>
</g>
</g>
<!-- Node0&#45;&gt;Node12 -->
<g id="edge272_Node000000_Node000012" class="edge">
<title>Node0&#45;&gt;Node12</title>
<g id="a_edge272_Node000000_Node000012"><a xlink:title=" ">
<path fill="none" stroke="#63b8ff" d="M68.79,-753.03C84.86,-772.14 112.72,-801.87 143,-819 148.86,-822.31 155.22,-825.17 161.73,-827.63"/>
<polygon fill="#63b8ff" stroke="#63b8ff" points="71.69,-751.06 62.65,-745.54 66.28,-755.5 71.69,-751.06"/>
</a>
</g>
</g>
<!-- Node21 -->
<g id="Node000021" class="node">
<title>Node21</title>
<g id="a_Node000021"><a xlink:href="a05469.html" target="_top" xlink:title="Common base for codecvt functions.">
<polygon fill="white" stroke="#666666" points="296.5,-698 157.5,-698 157.5,-660 296.5,-660 296.5,-698"/>
<text text-anchor="start" x="165.5" y="-686.8" font-family="Helvetica,sans-Serif" font-size="9.00">std::__codecvt_abstract</text>
<text text-anchor="start" x="165.5" y="-676.8" font-family="Helvetica,sans-Serif" font-size="9.00">_base&lt; _InternT, _ExternT,</text>
<text text-anchor="middle" x="227" y="-666.8" font-family="Helvetica,sans-Serif" font-size="9.00"> _StateT &gt;</text>
</a>
</g>
</g>
<!-- Node0&#45;&gt;Node21 -->
<g id="edge273_Node000000_Node000021" class="edge">
<title>Node0&#45;&gt;Node21</title>
<g id="a_edge273_Node000000_Node000021"><a xlink:title=" ">
<path fill="none" stroke="#63b8ff" d="M94.26,-722.02C115.71,-715.01 142.6,-706.23 166.49,-698.43"/>
<polygon fill="#63b8ff" stroke="#63b8ff" points="93.45,-718.6 85.03,-725.03 95.62,-725.25 93.45,-718.6"/>
</a>
</g>
</g>
<!-- Node2 -->
<g id="Node000002" class="node">
<title>Node2</title>
<g id="a_Node000002"><a xlink:href="a11925.html" target="_top" xlink:title="codecvt&lt;InternT, _ExternT, encoding_state&gt; specialization.">
<polygon fill="white" stroke="#666666" points="492,-629 347,-629 347,-601 492,-601 492,-629"/>
<text text-anchor="start" x="355" y="-617.8" font-family="Helvetica,sans-Serif" font-size="9.00">std::codecvt&lt; _InternT,</text>
<text text-anchor="middle" x="419.5" y="-607.8" font-family="Helvetica,sans-Serif" font-size="9.00"> _ExternT, encoding_state &gt;</text>
</a>
</g>
</g>
<!-- Node1&#45;&gt;Node2 -->
<g id="edge263_Node000001_Node000002" class="edge">
<title>Node1&#45;&gt;Node2</title>
<g id="a_edge263_Node000001_Node000002"><a xlink:title=" ">
<path fill="none" stroke="#63b8ff" d="M307.93,-619.64C320.77,-619.1 333.98,-618.55 346.62,-618.02"/>
<polygon fill="#63b8ff" stroke="#63b8ff" points="308.13,-616.13 298.29,-620.05 308.43,-623.13 308.13,-616.13"/>
</a>
</g>
</g>
<!-- Node5 -->
<g id="Node000005" class="node">
<title>Node5</title>
<g id="a_Node000005"><a xlink:href="a05477.html" target="_top" xlink:title="class codecvt&lt;char, char, mbstate_t&gt; specialization.">
<polygon fill="white" stroke="#666666" points="473,-583 366,-583 366,-555 473,-555 473,-583"/>
<text text-anchor="start" x="374" y="-571.8" font-family="Helvetica,sans-Serif" font-size="9.00">std::codecvt&lt; char,</text>
<text text-anchor="middle" x="419.5" y="-561.8" font-family="Helvetica,sans-Serif" font-size="9.00"> char, mbstate_t &gt;</text>
</a>
</g>
</g>
<!-- Node4&#45;&gt;Node5 -->
<g id="edge265_Node000004_Node000005" class="edge">
<title>Node4&#45;&gt;Node5</title>
<g id="a_edge265_Node000004_Node000005"><a xlink:title=" ">
<path fill="none" stroke="#63b8ff" d="M319.43,-570.56C335.25,-570.31 351.21,-570.06 365.57,-569.83"/>
<polygon fill="#63b8ff" stroke="#63b8ff" points="319.42,-567.06 309.47,-570.72 319.53,-574.06 319.42,-567.06"/>
</a>
</g>
</g>
<!-- Node7 -->
<g id="Node000007" class="node">
<title>Node7</title>
<g id="a_Node000007"><a xlink:href="a05485.html" target="_top" xlink:title="Class codecvt&lt;char16_t, char, mbstate_t&gt; specialization.">
<polygon fill="white" stroke="#666666" points="477.5,-907 361.5,-907 361.5,-879 477.5,-879 477.5,-907"/>
<text text-anchor="start" x="369.5" y="-895.8" font-family="Helvetica,sans-Serif" font-size="9.00">std::codecvt&lt; char16</text>
<text text-anchor="middle" x="419.5" y="-885.8" font-family="Helvetica,sans-Serif" font-size="9.00">_t, char, mbstate_t &gt;</text>
</a>
</g>
</g>
<!-- Node6&#45;&gt;Node7 -->
<g id="edge267_Node000006_Node000007" class="edge">
<title>Node6&#45;&gt;Node7</title>
<g id="a_edge267_Node000006_Node000007"><a xlink:title=" ">
<path fill="none" stroke="#63b8ff" d="M300.61,-893C320.66,-893 342.13,-893 361.17,-893"/>
<polygon fill="#63b8ff" stroke="#63b8ff" points="300.84,-889.5 290.84,-893 300.84,-896.5 300.84,-889.5"/>
</a>
</g>
</g>
<!-- Node9 -->
<g id="Node000009" class="node">
<title>Node9</title>
<g id="a_Node000009"><a xlink:href="a05489.html" target="_top" xlink:title="Class codecvt&lt;char32_t, char, mbstate_t&gt; specialization.">
<polygon fill="white" stroke="#666666" points="477.5,-813 361.5,-813 361.5,-785 477.5,-785 477.5,-813"/>
<text text-anchor="start" x="369.5" y="-801.8" font-family="Helvetica,sans-Serif" font-size="9.00">std::codecvt&lt; char32</text>
<text text-anchor="middle" x="419.5" y="-791.8" font-family="Helvetica,sans-Serif" font-size="9.00">_t, char, mbstate_t &gt;</text>
</a>
</g>
</g>
<!-- Node8&#45;&gt;Node9 -->
<g id="edge269_Node000008_Node000009" class="edge">
<title>Node8&#45;&gt;Node9</title>
<g id="a_edge269_Node000008_Node000009"><a xlink:title=" ">
<path fill="none" stroke="#63b8ff" d="M300.61,-794.05C320.66,-794.89 342.13,-795.79 361.17,-796.59"/>
<polygon fill="#63b8ff" stroke="#63b8ff" points="300.97,-790.56 290.84,-793.64 300.68,-797.56 300.97,-790.56"/>
</a>
</g>
</g>
<!-- Node11 -->
<g id="Node000011" class="node">
<title>Node11</title>
<g id="a_Node000011"><a xlink:href="a05481.html" target="_top" xlink:title="Class codecvt&lt;wchar_t, char, mbstate_t&gt; specialization.">
<polygon fill="white" stroke="#666666" points="476,-767 363,-767 363,-739 476,-739 476,-767"/>
<text text-anchor="start" x="371" y="-755.8" font-family="Helvetica,sans-Serif" font-size="9.00">std::codecvt&lt; wchar</text>
<text text-anchor="middle" x="419.5" y="-745.8" font-family="Helvetica,sans-Serif" font-size="9.00">_t, char, mbstate_t &gt;</text>
</a>
</g>
</g>
<!-- Node10&#45;&gt;Node11 -->
<g id="edge271_Node000010_Node000011" class="edge">
<title>Node10&#45;&gt;Node11</title>
<g id="a_edge271_Node000010_Node000011"><a xlink:title=" ">
<path fill="none" stroke="#63b8ff" d="M300.6,-741.86C321.21,-743.81 343.33,-745.9 362.77,-747.73"/>
<polygon fill="#63b8ff" stroke="#63b8ff" points="301.12,-738.39 290.83,-740.94 300.46,-745.36 301.12,-738.39"/>
</a>
</g>
</g>
<!-- Node22 -->
<g id="Node000022" class="node">
<title>Node22</title>
<g id="a_Node000022"><a xlink:href="a05473.html" target="_top" xlink:title=" ">
<polygon fill="white" stroke="#666666" points="476,-721 363,-721 363,-693 476,-693 476,-721"/>
<text text-anchor="start" x="371" y="-709.8" font-family="Helvetica,sans-Serif" font-size="9.00">std::codecvt&lt; _Elem,</text>
<text text-anchor="middle" x="419.5" y="-699.8" font-family="Helvetica,sans-Serif" font-size="9.00"> char, mbstate_t &gt;</text>
</a>
</g>
</g>
<!-- Node21&#45;&gt;Node22 -->
<g id="edge274_Node000021_Node000022" class="edge">
<title>Node21&#45;&gt;Node22</title>
<g id="a_edge274_Node000021_Node000022"><a xlink:title=" ">
<path fill="none" stroke="#63b8ff" d="M308.08,-690.77C326.44,-693.47 345.57,-696.28 362.65,-698.79"/>
<polygon fill="#63b8ff" stroke="#63b8ff" points="308.68,-687.32 298.27,-689.33 307.66,-694.25 308.68,-687.32"/>
</a>
</g>
</g>
<!-- Node23 -->
<g id="Node000023" class="node">
<title>Node23</title>
<g id="a_Node000023"><a xlink:href="a05473.html" target="_top" xlink:title="Primary class template codecvt.">
<polygon fill="white" stroke="#666666" points="481.5,-675 357.5,-675 357.5,-647 481.5,-647 481.5,-675"/>
<text text-anchor="start" x="365.5" y="-663.8" font-family="Helvetica,sans-Serif" font-size="9.00">std::codecvt&lt; _InternT,</text>
<text text-anchor="middle" x="419.5" y="-653.8" font-family="Helvetica,sans-Serif" font-size="9.00"> _ExternT, _StateT &gt;</text>
</a>
</g>
</g>
<!-- Node21&#45;&gt;Node23 -->
<g id="edge275_Node000021_Node000023" class="edge">
<title>Node21&#45;&gt;Node23</title>
<g id="a_edge275_Node000021_Node000023"><a xlink:title=" ">
<path fill="none" stroke="#63b8ff" d="M308.01,-671.44C324.43,-669.89 341.46,-668.28 357.09,-666.8"/>
<polygon fill="#63b8ff" stroke="#63b8ff" points="307.91,-667.93 298.28,-672.36 308.57,-674.9 307.91,-667.93"/>
</a>
</g>
</g>
<!-- Node24 -->
<g id="Node000024" class="node">
<title>Node24</title>
<g id="a_Node000024"><a xlink:href="a05493.html" target="_top" xlink:title="class codecvt_byname [22.2.1.6].">
<polygon fill="white" stroke="#666666" points="642,-680 528,-680 528,-642 642,-642 642,-680"/>
<text text-anchor="start" x="536" y="-668.8" font-family="Helvetica,sans-Serif" font-size="9.00">std::codecvt_byname</text>
<text text-anchor="start" x="536" y="-658.8" font-family="Helvetica,sans-Serif" font-size="9.00">&lt; _InternT, _ExternT,</text>
<text text-anchor="middle" x="585" y="-648.8" font-family="Helvetica,sans-Serif" font-size="9.00"> _StateT &gt;</text>
</a>
</g>
</g>
<!-- Node23&#45;&gt;Node24 -->
<g id="edge276_Node000023_Node000024" class="edge">
<title>Node23&#45;&gt;Node24</title>
<g id="a_edge276_Node000023_Node000024"><a xlink:title=" ">
<path fill="none" stroke="#63b8ff" d="M493.28,-661C504.82,-661 516.61,-661 527.71,-661"/>
<polygon fill="#63b8ff" stroke="#63b8ff" points="493.36,-657.5 483.36,-661 493.36,-664.5 493.36,-657.5"/>
</a>
</g>
</g>
<!-- Node15 -->
<g id="Node000015" class="node">
<title>Node15</title>
<g id="a_Node000015"><a xlink:href="a09257.html" target="_top" xlink:title="Base class for ctype.">
<polygon fill="white" stroke="#666666" points="97.5,-489 9.5,-489 9.5,-471 97.5,-471 97.5,-489"/>
<text text-anchor="middle" x="53.5" y="-477.8" font-family="Helvetica,sans-Serif" font-size="9.00">std::ctype_base</text>
</a>
</g>
</g>
<!-- Node13 -->
<g id="Node000013" class="node">
<title>Node13</title>
<g id="a_Node000013"><a xlink:href="a06177.html" target="_top" xlink:title=" ">
<polygon fill="white" stroke="#666666" points="283.5,-540 170.5,-540 170.5,-512 283.5,-512 283.5,-540"/>
<text text-anchor="start" x="178.5" y="-528.8" font-family="Helvetica,sans-Serif" font-size="9.00">std::__ctype_abstract</text>
<text text-anchor="middle" x="227" y="-518.8" font-family="Helvetica,sans-Serif" font-size="9.00">_base&lt; wchar_t &gt;</text>
</a>
</g>
</g>
<!-- Node15&#45;&gt;Node13 -->
<g id="edge277_Node000015_Node000013" class="edge">
<title>Node15&#45;&gt;Node13</title>
<g id="a_edge277_Node000015_Node000013"><a xlink:title=" ">
<path fill="none" stroke="#63b8ff" d="M100.67,-492.38C122.66,-498.28 149.09,-505.37 172.01,-511.52"/>
<polygon fill="#63b8ff" stroke="#63b8ff" points="101.65,-489.02 91.08,-489.81 99.83,-495.78 101.65,-489.02"/>
</a>
</g>
</g>
<!-- Node16 -->
<g id="Node000016" class="node">
<title>Node16</title>
<g id="a_Node000016"><a xlink:href="a06177.html" target="_top" xlink:title="Common base for ctype facet.">
<polygon fill="white" stroke="#666666" points="283.5,-494 170.5,-494 170.5,-466 283.5,-466 283.5,-494"/>
<text text-anchor="start" x="178.5" y="-482.8" font-family="Helvetica,sans-Serif" font-size="9.00">std::__ctype_abstract</text>
<text text-anchor="middle" x="227" y="-472.8" font-family="Helvetica,sans-Serif" font-size="9.00">_base&lt; _CharT &gt;</text>
</a>
</g>
</g>
<!-- Node15&#45;&gt;Node16 -->
<g id="edge279_Node000015_Node000016" class="edge">
<title>Node15&#45;&gt;Node16</title>
<g id="a_edge279_Node000015_Node000016"><a xlink:title=" ">
<path fill="none" stroke="#63b8ff" d="M109.21,-480C128.64,-480 150.54,-480 170.07,-480"/>
<polygon fill="#63b8ff" stroke="#63b8ff" points="109.29,-476.5 99.29,-480 109.29,-483.5 109.29,-476.5"/>
</a>
</g>
</g>
<!-- Node19 -->
<g id="Node000019" class="node">
<title>Node19</title>
<g id="a_Node000019"><a xlink:href="a06185.html" target="_top" xlink:title="The ctype&lt;char&gt; specialization.">
<polygon fill="white" stroke="#666666" points="279,-448 175,-448 175,-430 279,-430 279,-448"/>
<text text-anchor="middle" x="227" y="-436.8" font-family="Helvetica,sans-Serif" font-size="9.00">std::ctype&lt; char &gt;</text>
</a>
</g>
</g>
<!-- Node15&#45;&gt;Node19 -->
<g id="edge282_Node000015_Node000019" class="edge">
<title>Node15&#45;&gt;Node19</title>
<g id="a_edge282_Node000015_Node000019"><a xlink:title=" ">
<path fill="none" stroke="#63b8ff" d="M100.42,-467.69C114.09,-464.12 129.13,-460.31 143,-457 155.19,-454.1 168.44,-451.13 180.69,-448.48"/>
<polygon fill="#63b8ff" stroke="#63b8ff" points="99.55,-464.3 90.77,-470.22 101.33,-471.07 99.55,-464.3"/>
</a>
</g>
</g>
<!-- Node14 -->
<g id="Node000014" class="node">
<title>Node14</title>
<g id="a_Node000014"><a xlink:href="a06189.html" target="_top" xlink:title="The ctype&lt;wchar_t&gt; specialization.">
<polygon fill="white" stroke="#666666" points="479,-535 360,-535 360,-517 479,-517 479,-535"/>
<text text-anchor="middle" x="419.5" y="-523.8" font-family="Helvetica,sans-Serif" font-size="9.00">std::ctype&lt; wchar_t &gt;</text>
</a>
</g>
</g>
<!-- Node13&#45;&gt;Node14 -->
<g id="edge278_Node000013_Node000014" class="edge">
<title>Node13&#45;&gt;Node14</title>
<g id="a_edge278_Node000013_Node000014"><a xlink:title=" ">
<path fill="none" stroke="#63b8ff" d="M295.3,-526C316.29,-526 339.28,-526 359.65,-526"/>
<polygon fill="#63b8ff" stroke="#63b8ff" points="295.38,-522.5 285.38,-526 295.38,-529.5 295.38,-522.5"/>
</a>
</g>
</g>
<!-- Node17 -->
<g id="Node000017" class="node">
<title>Node17</title>
<g id="a_Node000017"><a xlink:href="a06181.html" target="_top" xlink:title="Primary class template ctype facet.">
<polygon fill="white" stroke="#666666" points="476.5,-489 362.5,-489 362.5,-471 476.5,-471 476.5,-489"/>
<text text-anchor="middle" x="419.5" y="-477.8" font-family="Helvetica,sans-Serif" font-size="9.00">std::ctype&lt; _CharT &gt;</text>
</a>
</g>
</g>
<!-- Node16&#45;&gt;Node17 -->
<g id="edge280_Node000016_Node000017" class="edge">
<title>Node16&#45;&gt;Node17</title>
<g id="a_edge280_Node000016_Node000017"><a xlink:title=" ">
<path fill="none" stroke="#63b8ff" d="M295.12,-480C317.08,-480 341.23,-480 362.3,-480"/>
<polygon fill="#63b8ff" stroke="#63b8ff" points="295.38,-476.5 285.38,-480 295.38,-483.5 295.38,-476.5"/>
</a>
</g>
</g>
<!-- Node18 -->
<g id="Node000018" class="node">
<title>Node18</title>
<g id="a_Node000018"><a xlink:href="a06193.html" target="_top" xlink:title="class ctype_byname [22.2.1.2].">
<polygon fill="white" stroke="#666666" points="640.5,-494 529.5,-494 529.5,-466 640.5,-466 640.5,-494"/>
<text text-anchor="start" x="537.5" y="-482.8" font-family="Helvetica,sans-Serif" font-size="9.00">std::ctype_byname&lt;</text>
<text text-anchor="middle" x="585" y="-472.8" font-family="Helvetica,sans-Serif" font-size="9.00"> _CharT &gt;</text>
</a>
</g>
</g>
<!-- Node17&#45;&gt;Node18 -->
<g id="edge281_Node000017_Node000018" class="edge">
<title>Node17&#45;&gt;Node18</title>
<g id="a_edge281_Node000017_Node000018"><a xlink:title=" ">
<path fill="none" stroke="#63b8ff" d="M488.06,-480C501.69,-480 515.87,-480 529.01,-480"/>
<polygon fill="#63b8ff" stroke="#63b8ff" points="488.28,-476.5 478.28,-480 488.28,-483.5 488.28,-476.5"/>
</a>
</g>
</g>
<!-- Node20 -->
<g id="Node000020" class="node">
<title>Node20</title>
<g id="a_Node000020"><a xlink:href="a06197.html" target="_top" xlink:title="22.2.1.4 Class ctype_byname specializations.">
<polygon fill="white" stroke="#666666" points="475,-453 364,-453 364,-425 475,-425 475,-453"/>
<text text-anchor="start" x="372" y="-441.8" font-family="Helvetica,sans-Serif" font-size="9.00">std::ctype_byname&lt;</text>
<text text-anchor="middle" x="419.5" y="-431.8" font-family="Helvetica,sans-Serif" font-size="9.00"> char &gt;</text>
</a>
</g>
</g>
<!-- Node19&#45;&gt;Node20 -->
<g id="edge283_Node000019_Node000020" class="edge">
<title>Node19&#45;&gt;Node20</title>
<g id="a_edge283_Node000019_Node000020"><a xlink:title=" ">
<path fill="none" stroke="#63b8ff" d="M290.62,-439C314.25,-439 340.92,-439 363.77,-439"/>
<polygon fill="#63b8ff" stroke="#63b8ff" points="290.81,-435.5 280.81,-439 290.81,-442.5 290.81,-435.5"/>
</a>
</g>
</g>
<!-- Node3 -->
<g id="Node000003" class="node">
<title>Node3</title>
<g id="a_Node000003"><a xlink:href="a06141.html" target="_top" xlink:title="Localization functionality base class.">
<polygon fill="white" stroke="#666666" points="99,-428 8,-428 8,-410 99,-410 99,-428"/>
<text text-anchor="middle" x="53.5" y="-416.8" font-family="Helvetica,sans-Serif" font-size="9.00">std::locale::facet</text>
</a>
</g>
</g>
<!-- Node3&#45;&gt;Node1 -->
<g id="edge284_Node000003_Node000001" class="edge">
<title>Node3&#45;&gt;Node1</title>
<g id="a_edge284_Node000003_Node000001"><a xlink:title=" ">
<path fill="none" stroke="#63b8ff" d="M79.92,-434.79C89.66,-442 100.09,-451.32 107,-462 140.27,-513.41 101.04,-550.4 143,-595 147.17,-599.43 152.06,-603.16 157.35,-606.3"/>
<polygon fill="#63b8ff" stroke="#63b8ff" points="82.02,-431.98 71.8,-429.17 78.04,-437.74 82.02,-431.98"/>
</a>
</g>
</g>
<!-- Node3&#45;&gt;Node4 -->
<g id="edge285_Node000003_Node000004" class="edge">
<title>Node3&#45;&gt;Node4</title>
<g id="a_edge285_Node000003_Node000004"><a xlink:title=" ">
<path fill="none" stroke="#63b8ff" d="M78.85,-434.95C88.6,-442.28 99.31,-451.64 107,-462 131.94,-495.6 111.66,-521.27 143,-549 146.81,-552.37 151.07,-555.25 155.59,-557.71"/>
<polygon fill="#63b8ff" stroke="#63b8ff" points="80.98,-432.17 70.8,-429.22 76.92,-437.87 80.98,-432.17"/>
</a>
</g>
</g>
<!-- Node3&#45;&gt;Node6 -->
<g id="edge286_Node000003_Node000006" class="edge">
<title>Node3&#45;&gt;Node6</title>
<g id="a_edge286_Node000003_Node000006"><a xlink:title=" ">
<path fill="none" stroke="#63b8ff" d="M81.5,-434.67C91.2,-441.74 101.17,-450.99 107,-462 149.06,-541.47 87.36,-794.37 143,-865 148.74,-872.29 156.46,-877.69 164.88,-881.7"/>
<polygon fill="#63b8ff" stroke="#63b8ff" points="83.57,-431.85 73.32,-429.19 79.68,-437.66 83.57,-431.85"/>
</a>
</g>
</g>
<!-- Node3&#45;&gt;Node8 -->
<g id="edge287_Node000003_Node000008" class="edge">
<title>Node3&#45;&gt;Node8</title>
<g id="a_edge287_Node000003_Node000008"><a xlink:title=" ">
<path fill="none" stroke="#63b8ff" d="M81.33,-434.76C91.01,-441.84 101.01,-451.08 107,-462 171.81,-580.12 58.05,-658.43 143,-763 148.75,-770.08 156.37,-775.38 164.66,-779.35"/>
<polygon fill="#63b8ff" stroke="#63b8ff" points="83.43,-431.95 73.18,-429.27 79.52,-437.76 83.43,-431.95"/>
</a>
</g>
</g>
<!-- Node3&#45;&gt;Node10 -->
<g id="edge288_Node000003_Node000010" class="edge">
<title>Node3&#45;&gt;Node10</title>
<g id="a_edge288_Node000003_Node000010"><a xlink:title=" ">
<path fill="none" stroke="#63b8ff" d="M81.18,-434.85C90.84,-441.94 100.86,-451.16 107,-462 161.23,-557.77 72.46,-622.52 143,-707 148.85,-714 156.51,-719.26 164.82,-723.21"/>
<polygon fill="#63b8ff" stroke="#63b8ff" points="83.3,-432.05 73.06,-429.33 79.37,-437.85 83.3,-432.05"/>
</a>
</g>
</g>
<!-- Node3&#45;&gt;Node12 -->
<g id="edge289_Node000003_Node000012" class="edge">
<title>Node3&#45;&gt;Node12</title>
<g id="a_edge289_Node000003_Node000012"><a xlink:title=" ">
<path fill="none" stroke="#63b8ff" d="M81.44,-434.7C91.13,-441.78 101.11,-451.02 107,-462 144.7,-532.26 91.6,-758.04 143,-819 145.8,-822.32 149.02,-825.17 152.55,-827.64"/>
<polygon fill="#63b8ff" stroke="#63b8ff" points="83.52,-431.89 73.27,-429.22 79.62,-437.7 83.52,-431.89"/>
</a>
</g>
</g>
<!-- Node3&#45;&gt;Node21 -->
<g id="edge291_Node000003_Node000021" class="edge">
<title>Node3&#45;&gt;Node21</title>
<g id="a_edge291_Node000003_Node000021"><a xlink:title=" ">
<path fill="none" stroke="#63b8ff" d="M80.74,-434.83C90.42,-441.96 100.59,-451.21 107,-462 150.7,-535.5 86.82,-586.53 143,-651 147.1,-655.7 152.01,-659.61 157.37,-662.87"/>
<polygon fill="#63b8ff" stroke="#63b8ff" points="82.86,-432.04 72.62,-429.29 78.91,-437.82 82.86,-432.04"/>
</a>
</g>
</g>
<!-- Node3&#45;&gt;Node13 -->
<g id="edge290_Node000003_Node000013" class="edge">
<title>Node3&#45;&gt;Node13</title>
<g id="a_edge290_Node000003_Node000013"><a xlink:title=" ">
<path fill="none" stroke="#63b8ff" d="M76.12,-435.4C85.87,-443.12 97.34,-452.67 107,-462 124.44,-478.85 122.46,-490.11 143,-503 151.23,-508.17 160.64,-512.19 170.08,-515.32"/>
<polygon fill="#63b8ff" stroke="#63b8ff" points="78.31,-432.67 68.27,-429.29 74.02,-438.19 78.31,-432.67"/>
</a>
</g>
</g>
<!-- Node3&#45;&gt;Node16 -->
<g id="edge292_Node000003_Node000016" class="edge">
<title>Node3&#45;&gt;Node16</title>
<g id="a_edge292_Node000003_Node000016"><a xlink:title=" ">
<path fill="none" stroke="#63b8ff" d="M84.61,-433.13C101.54,-440.77 123.2,-450.04 143,-457 151.75,-460.07 161.12,-463.01 170.32,-465.69"/>
<polygon fill="#63b8ff" stroke="#63b8ff" points="86.16,-429.99 75.61,-429.01 83.24,-436.36 86.16,-429.99"/>
</a>
</g>
</g>
<!-- Node3&#45;&gt;Node19 -->
<g id="edge295_Node000003_Node000019" class="edge">
<title>Node3&#45;&gt;Node19</title>
<g id="a_edge295_Node000003_Node000019"><a xlink:title=" ">
<path fill="none" stroke="#63b8ff" d="M110.3,-425.51C130.99,-427.92 154.35,-430.64 174.63,-433.01"/>
<polygon fill="#63b8ff" stroke="#63b8ff" points="110.95,-422.06 100.62,-424.38 110.14,-429.01 110.95,-422.06"/>
</a>
</g>
</g>
<!-- Node25 -->
<g id="Node000025" class="node">
<title>Node25</title>
<g id="a_Node000025"><a xlink:href="a06153.html" target="_top" xlink:title="Facet for localized string comparison.">
<polygon fill="white" stroke="#666666" points="286,-238 168,-238 168,-220 286,-220 286,-238"/>
<text text-anchor="middle" x="227" y="-226.8" font-family="Helvetica,sans-Serif" font-size="9.00">std::collate&lt; _CharT &gt;</text>
</a>
</g>
</g>
<!-- Node3&#45;&gt;Node25 -->
<g id="edge293_Node000003_Node000025" class="edge">
<title>Node3&#45;&gt;Node25</title>
<g id="a_edge293_Node000003_Node000025"><a xlink:title=" ">
<path fill="none" stroke="#63b8ff" d="M58.94,-398.65C68.01,-362.2 92.24,-285.96 143,-247 150.25,-241.43 158.86,-237.51 167.74,-234.76"/>
<polygon fill="#63b8ff" stroke="#63b8ff" points="55.56,-397.75 56.69,-408.28 62.38,-399.34 55.56,-397.75"/>
</a>
</g>
</g>
<!-- Node27 -->
<g id="Node000027" class="node">
<title>Node27</title>
<g id="a_Node000027"><a xlink:href="a06301.html" target="_top" xlink:title="Primary class template messages.">
<polygon fill="white" stroke="#666666" points="293.5,-110 160.5,-110 160.5,-92 293.5,-92 293.5,-110"/>
<text text-anchor="middle" x="227" y="-98.8" font-family="Helvetica,sans-Serif" font-size="9.00">std::messages&lt; _CharT &gt;</text>
</a>
</g>
</g>
<!-- Node3&#45;&gt;Node27 -->
<g id="edge296_Node000003_Node000027" class="edge">
<title>Node3&#45;&gt;Node27</title>
<g id="a_edge296_Node000003_Node000027"><a xlink:title=" ">
<path fill="none" stroke="#63b8ff" d="M53.93,-398.23C53.65,-343.68 60.87,-195.32 143,-119 147.97,-114.38 153.83,-110.84 160.11,-108.14"/>
<polygon fill="#63b8ff" stroke="#63b8ff" points="50.43,-398.26 54.09,-408.2 57.43,-398.15 50.43,-398.26"/>
</a>
</g>
</g>
<!-- Node30 -->
<g id="Node000030" class="node">
<title>Node30</title>
<g id="a_Node000030"><a xlink:href="a06289.html" target="_top" xlink:title="Primary class template money_get.">
<polygon fill="white" stroke="#666666" points="292.5,-202 161.5,-202 161.5,-174 292.5,-174 292.5,-202"/>
<text text-anchor="start" x="169.5" y="-190.8" font-family="Helvetica,sans-Serif" font-size="9.00">std::money_get&lt; _CharT,</text>
<text text-anchor="middle" x="227" y="-180.8" font-family="Helvetica,sans-Serif" font-size="9.00"> _InIter &gt;</text>
</a>
</g>
</g>
<!-- Node3&#45;&gt;Node30 -->
<g id="edge298_Node000003_Node000030" class="edge">
<title>Node3&#45;&gt;Node30</title>
<g id="a_edge298_Node000003_Node000030"><a xlink:title=" ">
<path fill="none" stroke="#63b8ff" d="M57.25,-398.58C63.95,-356.91 85.07,-261.75 143,-211 148.4,-206.27 154.69,-202.51 161.35,-199.51"/>
<polygon fill="#63b8ff" stroke="#63b8ff" points="53.8,-397.99 55.8,-408.4 60.72,-399.02 53.8,-397.99"/>
</a>
</g>
</g>
<!-- Node31 -->
<g id="Node000031" class="node">
<title>Node31</title>
<g id="a_Node000031"><a xlink:href="a06293.html" target="_top" xlink:title="Primary class template money_put.">
<polygon fill="white" stroke="#666666" points="293,-156 161,-156 161,-128 293,-128 293,-156"/>
<text text-anchor="start" x="169" y="-144.8" font-family="Helvetica,sans-Serif" font-size="9.00">std::money_put&lt; _CharT,</text>
<text text-anchor="middle" x="227" y="-134.8" font-family="Helvetica,sans-Serif" font-size="9.00"> _OutIter &gt;</text>
</a>
</g>
</g>
<!-- Node3&#45;&gt;Node31 -->
<g id="edge299_Node000003_Node000031" class="edge">
<title>Node3&#45;&gt;Node31</title>
<g id="a_edge299_Node000003_Node000031"><a xlink:title=" ">
<path fill="none" stroke="#63b8ff" d="M55.49,-398.13C58.93,-349.79 74.33,-229.35 143,-165 148.13,-160.19 154.17,-156.38 160.62,-153.35"/>
<polygon fill="#63b8ff" stroke="#63b8ff" points="52,-397.81 54.9,-408 58.99,-398.23 52,-397.81"/>
</a>
</g>
</g>
<!-- Node32 -->
<g id="Node000032" class="node">
<title>Node32</title>
<g id="a_Node000032"><a xlink:href="a06281.html" target="_top" xlink:title="Primary class template moneypunct.">
<polygon fill="white" stroke="#666666" points="296.5,-74 157.5,-74 157.5,-46 296.5,-46 296.5,-74"/>
<text text-anchor="start" x="165.5" y="-62.8" font-family="Helvetica,sans-Serif" font-size="9.00">std::moneypunct&lt; _CharT,</text>
<text text-anchor="middle" x="227" y="-52.8" font-family="Helvetica,sans-Serif" font-size="9.00"> _Intl &gt;</text>
</a>
</g>
</g>
<!-- Node3&#45;&gt;Node32 -->
<g id="edge300_Node000003_Node000032" class="edge">
<title>Node3&#45;&gt;Node32</title>
<g id="a_edge300_Node000003_Node000032"><a xlink:title=" ">
<path fill="none" stroke="#63b8ff" d="M57.23,-398.31C66.35,-332.39 97.71,-128.88 143,-83 147.1,-78.85 151.87,-75.43 157.02,-72.62"/>
<polygon fill="#63b8ff" stroke="#63b8ff" points="53.79,-397.7 55.91,-408.08 60.72,-398.64 53.79,-397.7"/>
</a>
</g>
</g>
<!-- Node35 -->
<g id="Node000035" class="node">
<title>Node35</title>
<g id="a_Node000035"><a xlink:href="a06221.html" target="_top" xlink:title="Primary class template num_get.">
<polygon fill="white" stroke="#666666" points="288,-412 166,-412 166,-384 288,-384 288,-412"/>
<text text-anchor="start" x="174" y="-400.8" font-family="Helvetica,sans-Serif" font-size="9.00">std::num_get&lt; _CharT,</text>
<text text-anchor="middle" x="227" y="-390.8" font-family="Helvetica,sans-Serif" font-size="9.00"> _InIter &gt;</text>
</a>
</g>
</g>
<!-- Node3&#45;&gt;Node35 -->
<g id="edge302_Node000003_Node000035" class="edge">
<title>Node3&#45;&gt;Node35</title>
<g id="a_edge302_Node000003_Node000035"><a xlink:title=" ">
<path fill="none" stroke="#63b8ff" d="M110.43,-412.15C128.15,-409.98 147.79,-407.58 165.79,-405.37"/>
<polygon fill="#63b8ff" stroke="#63b8ff" points="110.11,-408.66 100.61,-413.35 110.97,-415.61 110.11,-408.66"/>
</a>
</g>
</g>
<!-- Node36 -->
<g id="Node000036" class="node">
<title>Node36</title>
<g id="a_Node000036"><a xlink:href="a06225.html" target="_top" xlink:title="Primary class template num_put.">
<polygon fill="white" stroke="#666666" points="288,-366 166,-366 166,-338 288,-338 288,-366"/>
<text text-anchor="start" x="174" y="-354.8" font-family="Helvetica,sans-Serif" font-size="9.00">std::num_put&lt; _CharT,</text>
<text text-anchor="middle" x="227" y="-344.8" font-family="Helvetica,sans-Serif" font-size="9.00"> _OutIter &gt;</text>
</a>
</g>
</g>
<!-- Node3&#45;&gt;Node36 -->
<g id="edge303_Node000003_Node000036" class="edge">
<title>Node3&#45;&gt;Node36</title>
<g id="a_edge303_Node000003_Node000036"><a xlink:title=" ">
<path fill="none" stroke="#63b8ff" d="M80.95,-404.18C98.23,-394.92 121.5,-383.24 143,-375 151.1,-371.9 159.79,-369.02 168.38,-366.43"/>
<polygon fill="#63b8ff" stroke="#63b8ff" points="79.47,-401 72.36,-408.86 82.82,-407.15 79.47,-401"/>
</a>
</g>
</g>
<!-- Node37 -->
<g id="Node000037" class="node">
<title>Node37</title>
<g id="a_Node000037"><a xlink:href="a06213.html" target="_top" xlink:title="Primary class template numpunct.">
<polygon fill="white" stroke="#666666" points="295.5,-320 158.5,-320 158.5,-302 295.5,-302 295.5,-320"/>
<text text-anchor="middle" x="227" y="-308.8" font-family="Helvetica,sans-Serif" font-size="9.00">std::numpunct&lt; _CharT &gt;</text>
</a>
</g>
</g>
<!-- Node3&#45;&gt;Node37 -->
<g id="edge304_Node000003_Node000037" class="edge">
<title>Node3&#45;&gt;Node37</title>
<g id="a_edge304_Node000003_Node000037"><a xlink:title=" ">
<path fill="none" stroke="#63b8ff" d="M67.37,-400.55C82.86,-379.81 110.84,-346.72 143,-329 149.33,-325.51 156.27,-322.7 163.37,-320.43"/>
<polygon fill="#63b8ff" stroke="#63b8ff" points="64.72,-398.24 61.69,-408.39 70.39,-402.34 64.72,-398.24"/>
</a>
</g>
</g>
<!-- Node39 -->
<g id="Node000039" class="node">
<title>Node39</title>
<g id="a_Node000039"><a xlink:href="a06253.html" target="_top" xlink:title="Primary class template time_get.">
<polygon fill="white" stroke="#666666" points="287.5,-28 166.5,-28 166.5,0 287.5,0 287.5,-28"/>
<text text-anchor="start" x="174.5" y="-16.8" font-family="Helvetica,sans-Serif" font-size="9.00">std::time_get&lt; _CharT,</text>
<text text-anchor="middle" x="227" y="-6.8" font-family="Helvetica,sans-Serif" font-size="9.00"> _InIter &gt;</text>
</a>
</g>
</g>
<!-- Node3&#45;&gt;Node39 -->
<g id="edge306_Node000003_Node000039" class="edge">
<title>Node3&#45;&gt;Node39</title>
<g id="a_edge306_Node000003_Node000039"><a xlink:title=" ">
<path fill="none" stroke="#63b8ff" d="M58.01,-398.4C71.05,-322.83 117.29,-63.83 143,-37 149.41,-30.31 157.59,-25.51 166.3,-22.07"/>
<polygon fill="#63b8ff" stroke="#63b8ff" points="54.59,-397.66 56.34,-408.1 61.48,-398.84 54.59,-397.66"/>
</a>
</g>
</g>
<!-- Node42 -->
<g id="Node000042" class="node">
<title>Node42</title>
<g id="a_Node000042"><a xlink:href="a06261.html" target="_top" xlink:title="Primary class template time_put.">
<polygon fill="white" stroke="#666666" points="288,-284 166,-284 166,-256 288,-256 288,-284"/>
<text text-anchor="start" x="174" y="-272.8" font-family="Helvetica,sans-Serif" font-size="9.00">std::time_put&lt; _CharT,</text>
<text text-anchor="middle" x="227" y="-262.8" font-family="Helvetica,sans-Serif" font-size="9.00"> _OutIter &gt;</text>
</a>
</g>
</g>
<!-- Node3&#45;&gt;Node42 -->
<g id="edge308_Node000003_Node000042" class="edge">
<title>Node3&#45;&gt;Node42</title>
<g id="a_edge308_Node000003_Node000042"><a xlink:title=" ">
<path fill="none" stroke="#63b8ff" d="M63.01,-399.32C76.1,-371.41 103.82,-320.64 143,-293 149.84,-288.17 157.66,-284.36 165.71,-281.34"/>
<polygon fill="#63b8ff" stroke="#63b8ff" points="59.85,-397.82 58.93,-408.37 66.23,-400.69 59.85,-397.82"/>
</a>
</g>
</g>
<!-- Node26 -->
<g id="Node000026" class="node">
<title>Node26</title>
<g id="a_Node000026"><a xlink:href="a06157.html" target="_top" xlink:title="class collate_byname [22.2.4.2].">
<polygon fill="white" stroke="#666666" points="473,-238 366,-238 366,-210 473,-210 473,-238"/>
<text text-anchor="start" x="374" y="-226.8" font-family="Helvetica,sans-Serif" font-size="9.00">std::collate_byname</text>
<text text-anchor="middle" x="419.5" y="-216.8" font-family="Helvetica,sans-Serif" font-size="9.00">&lt; _CharT &gt;</text>
</a>
</g>
</g>
<!-- Node25&#45;&gt;Node26 -->
<g id="edge294_Node000025_Node000026" class="edge">
<title>Node25&#45;&gt;Node26</title>
<g id="a_edge294_Node000025_Node000026"><a xlink:title=" ">
<path fill="none" stroke="#63b8ff" d="M297.94,-227.16C320.32,-226.58 344.71,-225.94 365.66,-225.39"/>
<polygon fill="#63b8ff" stroke="#63b8ff" points="297.87,-223.66 287.96,-227.43 298.05,-230.66 297.87,-223.66"/>
</a>
</g>
</g>
<!-- Node28 -->
<g id="Node000028" class="node">
<title>Node28</title>
<g id="a_Node000028"><a xlink:href="a06305.html" target="_top" xlink:title="class messages_byname [22.2.7.2].">
<polygon fill="white" stroke="#666666" points="480.5,-120 358.5,-120 358.5,-92 480.5,-92 480.5,-120"/>
<text text-anchor="start" x="366.5" y="-108.8" font-family="Helvetica,sans-Serif" font-size="9.00">std::messages_byname</text>
<text text-anchor="middle" x="419.5" y="-98.8" font-family="Helvetica,sans-Serif" font-size="9.00">&lt; _CharT &gt;</text>
</a>
</g>
</g>
<!-- Node27&#45;&gt;Node28 -->
<g id="edge297_Node000027_Node000028" class="edge">
<title>Node27&#45;&gt;Node28</title>
<g id="a_edge297_Node000027_Node000028"><a xlink:title=" ">
<path fill="none" stroke="#63b8ff" d="M305.25,-103.03C322.86,-103.49 341.32,-103.97 358.11,-104.41"/>
<polygon fill="#63b8ff" stroke="#63b8ff" points="305.43,-99.53 295.34,-102.77 305.24,-106.53 305.43,-99.53"/>
</a>
</g>
</g>
<!-- Node33 -->
<g id="Node000033" class="node">
<title>Node33</title>
<g id="a_Node000033"><a xlink:href="a06285.html" target="_top" xlink:title="class moneypunct_byname [22.2.6.4].">
<polygon fill="white" stroke="#666666" points="487.5,-74 351.5,-74 351.5,-46 487.5,-46 487.5,-74"/>
<text text-anchor="start" x="359.5" y="-62.8" font-family="Helvetica,sans-Serif" font-size="9.00">std::moneypunct_byname</text>
<text text-anchor="middle" x="419.5" y="-52.8" font-family="Helvetica,sans-Serif" font-size="9.00">&lt; _CharT, _Intl &gt;</text>
</a>
</g>
</g>
<!-- Node32&#45;&gt;Node33 -->
<g id="edge301_Node000032_Node000033" class="edge">
<title>Node32&#45;&gt;Node33</title>
<g id="a_edge301_Node000032_Node000033"><a xlink:title=" ">
<path fill="none" stroke="#63b8ff" d="M308.12,-60C322.43,-60 337.2,-60 351.1,-60"/>
<polygon fill="#63b8ff" stroke="#63b8ff" points="308.29,-56.5 298.29,-60 308.29,-63.5 308.29,-56.5"/>
</a>
</g>
</g>
<!-- Node38 -->
<g id="Node000038" class="node">
<title>Node38</title>
<g id="a_Node000038"><a xlink:href="a06217.html" target="_top" xlink:title="class numpunct_byname [22.2.3.2].">
<polygon fill="white" stroke="#666666" points="482.5,-330 356.5,-330 356.5,-302 482.5,-302 482.5,-330"/>
<text text-anchor="start" x="364.5" y="-318.8" font-family="Helvetica,sans-Serif" font-size="9.00">std::numpunct_byname</text>
<text text-anchor="middle" x="419.5" y="-308.8" font-family="Helvetica,sans-Serif" font-size="9.00">&lt; _CharT &gt;</text>
</a>
</g>
</g>
<!-- Node37&#45;&gt;Node38 -->
<g id="edge305_Node000037_Node000038" class="edge">
<title>Node37&#45;&gt;Node38</title>
<g id="a_edge305_Node000037_Node000038"><a xlink:title=" ">
<path fill="none" stroke="#63b8ff" d="M307.18,-313.08C323.56,-313.51 340.6,-313.96 356.28,-314.37"/>
<polygon fill="#63b8ff" stroke="#63b8ff" points="307.57,-309.59 297.48,-312.82 307.39,-316.58 307.57,-309.59"/>
</a>
</g>
</g>
<!-- Node40 -->
<g id="Node000040" class="node">
<title>Node40</title>
<g id="a_Node000040"><a xlink:href="a06257.html" target="_top" xlink:title="class time_get_byname [22.2.5.2].">
<polygon fill="white" stroke="#666666" points="478.5,-28 360.5,-28 360.5,0 478.5,0 478.5,-28"/>
<text text-anchor="start" x="368.5" y="-16.8" font-family="Helvetica,sans-Serif" font-size="9.00">std::time_get_byname</text>
<text text-anchor="middle" x="419.5" y="-6.8" font-family="Helvetica,sans-Serif" font-size="9.00">&lt; _CharT, _InIter &gt;</text>
</a>
</g>
</g>
<!-- Node39&#45;&gt;Node40 -->
<g id="edge307_Node000039_Node000040" class="edge">
<title>Node39&#45;&gt;Node40</title>
<g id="a_edge307_Node000039_Node000040"><a xlink:title=" ">
<path fill="none" stroke="#63b8ff" d="M299.09,-14C319.25,-14 340.96,-14 360.26,-14"/>
<polygon fill="#63b8ff" stroke="#63b8ff" points="299.27,-10.5 289.27,-14 299.27,-17.5 299.27,-10.5"/>
</a>
</g>
</g>
<!-- Node43 -->
<g id="Node000043" class="node">
<title>Node43</title>
<g id="a_Node000043"><a xlink:href="a06265.html" target="_top" xlink:title="class time_put_byname [22.2.5.4].">
<polygon fill="white" stroke="#666666" points="479,-284 360,-284 360,-256 479,-256 479,-284"/>
<text text-anchor="start" x="368" y="-272.8" font-family="Helvetica,sans-Serif" font-size="9.00">std::time_put_byname</text>
<text text-anchor="middle" x="419.5" y="-262.8" font-family="Helvetica,sans-Serif" font-size="9.00">&lt; _CharT, _OutIter &gt;</text>
</a>
</g>
</g>
<!-- Node42&#45;&gt;Node43 -->
<g id="edge309_Node000042_Node000043" class="edge">
<title>Node42&#45;&gt;Node43</title>
<g id="a_edge309_Node000042_Node000043"><a xlink:title=" ">
<path fill="none" stroke="#63b8ff" d="M299.71,-270C319.46,-270 340.66,-270 359.59,-270"/>
<polygon fill="#63b8ff" stroke="#63b8ff" points="299.79,-266.5 289.79,-270 299.79,-273.5 299.79,-266.5"/>
</a>
</g>
</g>
<!-- Node29 -->
<g id="Node000029" class="node">
<title>Node29</title>
<g id="a_Node000029"><a xlink:href="a06297.html" target="_top" xlink:title="Messages facet base class providing catalog typedef.">
<polygon fill="white" stroke="#666666" points="107,-110 0,-110 0,-92 107,-92 107,-110"/>
<text text-anchor="middle" x="53.5" y="-98.8" font-family="Helvetica,sans-Serif" font-size="9.00">std::messages_base</text>
</a>
</g>
</g>
<!-- Node29&#45;&gt;Node27 -->
<g id="edge310_Node000029_Node000027" class="edge">
<title>Node29&#45;&gt;Node27</title>
<g id="a_edge310_Node000029_Node000027"><a xlink:title=" ">
<path fill="none" stroke="#63b8ff" d="M118.58,-101C132.21,-101 146.62,-101 160.3,-101"/>
<polygon fill="#63b8ff" stroke="#63b8ff" points="118.87,-97.5 108.87,-101 118.87,-104.5 118.87,-97.5"/>
</a>
</g>
</g>
<!-- Node34 -->
<g id="Node000034" class="node">
<title>Node34</title>
<g id="a_Node000034"><a xlink:href="a06269.html" target="_top" xlink:title="Money format ordering data.">
<polygon fill="white" stroke="#666666" points="100,-69 7,-69 7,-51 100,-51 100,-69"/>
<text text-anchor="middle" x="53.5" y="-57.8" font-family="Helvetica,sans-Serif" font-size="9.00">std::money_base</text>
</a>
</g>
</g>
<!-- Node34&#45;&gt;Node32 -->
<g id="edge311_Node000034_Node000032" class="edge">
<title>Node34&#45;&gt;Node32</title>
<g id="a_edge311_Node000034_Node000032"><a xlink:title=" ">
<path fill="none" stroke="#63b8ff" d="M111.85,-60C126.43,-60 142.24,-60 157.33,-60"/>
<polygon fill="#63b8ff" stroke="#63b8ff" points="111.97,-56.5 101.97,-60 111.97,-63.5 111.97,-56.5"/>
</a>
</g>
</g>
<!-- Node41 -->
<g id="Node000041" class="node">
<title>Node41</title>
<g id="a_Node000041"><a xlink:href="a06237.html" target="_top" xlink:title="Time format ordering data.">
<polygon fill="white" stroke="#666666" points="95,-23 12,-23 12,-5 95,-5 95,-23"/>
<text text-anchor="middle" x="53.5" y="-11.8" font-family="Helvetica,sans-Serif" font-size="9.00">std::time_base</text>
</a>
</g>
</g>
<!-- Node41&#45;&gt;Node39 -->
<g id="edge312_Node000041_Node000039" class="edge">
<title>Node41&#45;&gt;Node39</title>
<g id="a_edge312_Node000041_Node000039"><a xlink:title=" ">
<path fill="none" stroke="#63b8ff" d="M106.49,-14C125.31,-14 146.71,-14 166.16,-14"/>
<polygon fill="#63b8ff" stroke="#63b8ff" points="106.66,-10.5 96.66,-14 106.66,-17.5 106.66,-10.5"/>
</a>
</g>
</g>
</g>
</svg>
