<?xml version="1.0" encoding="UTF-8" standalone="no"?>
<!DOCTYPE svg PUBLIC "-//W3C//DTD SVG 1.1//EN"
 "http://www.w3.org/Graphics/SVG/1.1/DTD/svg11.dtd">
<!-- Generated by graphviz version 7.1.0 (0)
 -->
<!-- Title: Graphical Class Hierarchy Pages: 1 -->
<svg width="275pt" height="298pt"
 viewBox="0.00 0.00 275.00 298.00" xmlns="http://www.w3.org/2000/svg" xmlns:xlink="http://www.w3.org/1999/xlink">
<g id="graph0" class="graph" transform="scale(1 1) rotate(0) translate(4 294)">
<title>Graphical Class Hierarchy</title>
<!-- Node0 -->
<g id="Node000000" class="node">
<title>Node0</title>
<g id="a_Node000000"><a xlink:href="a08041.html" target="_top" xlink:title=" ">
<polygon fill="white" stroke="#666666" points="107,-159 0,-159 0,-131 107,-131 107,-159"/>
<text text-anchor="start" x="8" y="-147.8" font-family="Helvetica,sans-Serif" font-size="9.00">std::binary_function</text>
<text text-anchor="middle" x="53.5" y="-137.8" font-family="Helvetica,sans-Serif" font-size="9.00">&lt; _Tp, _Tp, bool &gt;</text>
</a>
</g>
</g>
<!-- Node1 -->
<g id="Node000001" class="node">
<title>Node1</title>
<g id="a_Node000001"><a xlink:href="a08093.html" target="_top" xlink:title="One of the comparison functors.">
<polygon fill="white" stroke="#666666" points="261,-290 149,-290 149,-272 261,-272 261,-290"/>
<text text-anchor="middle" x="205" y="-278.8" font-family="Helvetica,sans-Serif" font-size="9.00">std::equal_to&lt; _Tp &gt;</text>
</a>
</g>
</g>
<!-- Node0&#45;&gt;Node1 -->
<g id="edge252_Node000000_Node000001" class="edge">
<title>Node0&#45;&gt;Node1</title>
<g id="a_edge252_Node000000_Node000001"><a xlink:title=" ">
<path fill="none" stroke="#63b8ff" d="M66.65,-169.45C81.2,-196.27 108.06,-238.73 143,-263 147.99,-266.46 153.65,-269.27 159.46,-271.54"/>
<polygon fill="#63b8ff" stroke="#63b8ff" points="69.79,-167.91 62.05,-160.68 63.6,-171.16 69.79,-167.91"/>
</a>
</g>
</g>
<!-- Node2 -->
<g id="Node000002" class="node">
<title>Node2</title>
<g id="a_Node000002"><a xlink:href="a08101.html" target="_top" xlink:title="One of the comparison functors.">
<polygon fill="white" stroke="#666666" points="258.5,-254 151.5,-254 151.5,-236 258.5,-236 258.5,-254"/>
<text text-anchor="middle" x="205" y="-242.8" font-family="Helvetica,sans-Serif" font-size="9.00">std::greater&lt; _Tp &gt;</text>
</a>
</g>
</g>
<!-- Node0&#45;&gt;Node2 -->
<g id="edge253_Node000000_Node000002" class="edge">
<title>Node0&#45;&gt;Node2</title>
<g id="a_edge253_Node000000_Node000002"><a xlink:title=" ">
<path fill="none" stroke="#63b8ff" d="M73.56,-167.72C90.16,-186.14 115.77,-211.52 143,-227 149.05,-230.44 155.81,-233.28 162.58,-235.6"/>
<polygon fill="#63b8ff" stroke="#63b8ff" points="76.4,-165.64 67.17,-160.44 71.14,-170.26 76.4,-165.64"/>
</a>
</g>
</g>
<!-- Node3 -->
<g id="Node000003" class="node">
<title>Node3</title>
<g id="a_Node000003"><a xlink:href="a08109.html" target="_top" xlink:title="One of the comparison functors.">
<polygon fill="white" stroke="#666666" points="254.5,-218 155.5,-218 155.5,-190 254.5,-190 254.5,-218"/>
<text text-anchor="start" x="163.5" y="-206.8" font-family="Helvetica,sans-Serif" font-size="9.00">std::greater_equal</text>
<text text-anchor="middle" x="205" y="-196.8" font-family="Helvetica,sans-Serif" font-size="9.00">&lt; _Tp &gt;</text>
</a>
</g>
</g>
<!-- Node0&#45;&gt;Node3 -->
<g id="edge254_Node000000_Node000003" class="edge">
<title>Node0&#45;&gt;Node3</title>
<g id="a_edge254_Node000000_Node000003"><a xlink:title=" ">
<path fill="none" stroke="#63b8ff" d="M99.6,-163.61C113.49,-169.27 128.85,-175.45 143,-181 150.17,-183.81 157.83,-186.75 165.22,-189.55"/>
<polygon fill="#63b8ff" stroke="#63b8ff" points="101.29,-160.52 90.71,-159.97 98.64,-167 101.29,-160.52"/>
</a>
</g>
</g>
<!-- Node4 -->
<g id="Node000004" class="node">
<title>Node4</title>
<g id="a_Node000004"><a xlink:href="a08105.html" target="_top" xlink:title="One of the comparison functors.">
<polygon fill="white" stroke="#666666" points="250,-172 160,-172 160,-154 250,-154 250,-172"/>
<text text-anchor="middle" x="205" y="-160.8" font-family="Helvetica,sans-Serif" font-size="9.00">std::less&lt; _Tp &gt;</text>
</a>
</g>
</g>
<!-- Node0&#45;&gt;Node4 -->
<g id="edge255_Node000000_Node000004" class="edge">
<title>Node0&#45;&gt;Node4</title>
<g id="a_edge255_Node000000_Node000004"><a xlink:title=" ">
<path fill="none" stroke="#63b8ff" d="M118.25,-152.68C132.2,-154.36 146.68,-156.1 159.68,-157.66"/>
<polygon fill="#63b8ff" stroke="#63b8ff" points="119.06,-149.25 108.71,-151.53 118.22,-156.2 119.06,-149.25"/>
</a>
</g>
</g>
<!-- Node5 -->
<g id="Node000005" class="node">
<title>Node5</title>
<g id="a_Node000005"><a xlink:href="a08113.html" target="_top" xlink:title="One of the comparison functors.">
<polygon fill="white" stroke="#666666" points="264.5,-136 145.5,-136 145.5,-118 264.5,-118 264.5,-136"/>
<text text-anchor="middle" x="205" y="-124.8" font-family="Helvetica,sans-Serif" font-size="9.00">std::less_equal&lt; _Tp &gt;</text>
</a>
</g>
</g>
<!-- Node0&#45;&gt;Node5 -->
<g id="edge256_Node000000_Node000005" class="edge">
<title>Node0&#45;&gt;Node5</title>
<g id="a_edge256_Node000000_Node000005"><a xlink:title=" ">
<path fill="none" stroke="#63b8ff" d="M118.63,-137.28C127.43,-136.22 136.44,-135.13 145.15,-134.09"/>
<polygon fill="#63b8ff" stroke="#63b8ff" points="118.22,-133.8 108.71,-138.47 119.06,-140.75 118.22,-133.8"/>
</a>
</g>
</g>
<!-- Node6 -->
<g id="Node000006" class="node">
<title>Node6</title>
<g id="a_Node000006"><a xlink:href="a08221.html" target="_top" xlink:title="One of the Boolean operations functors.">
<polygon fill="white" stroke="#666666" points="267,-100 143,-100 143,-82 267,-82 267,-100"/>
<text text-anchor="middle" x="205" y="-88.8" font-family="Helvetica,sans-Serif" font-size="9.00">std::logical_and&lt; _Tp &gt;</text>
</a>
</g>
</g>
<!-- Node0&#45;&gt;Node6 -->
<g id="edge257_Node000000_Node000006" class="edge">
<title>Node0&#45;&gt;Node6</title>
<g id="a_edge257_Node000000_Node000006"><a xlink:title=" ">
<path fill="none" stroke="#63b8ff" d="M98.27,-126.19C112.43,-120.38 128.28,-114.15 143,-109 151.55,-106.01 160.88,-103.09 169.61,-100.5"/>
<polygon fill="#63b8ff" stroke="#63b8ff" points="97.11,-122.88 89.22,-129.95 99.8,-129.35 97.11,-122.88"/>
</a>
</g>
</g>
<!-- Node7 -->
<g id="Node000007" class="node">
<title>Node7</title>
<g id="a_Node000007"><a xlink:href="a08225.html" target="_top" xlink:title="One of the Boolean operations functors.">
<polygon fill="white" stroke="#666666" points="263,-64 147,-64 147,-46 263,-46 263,-64"/>
<text text-anchor="middle" x="205" y="-52.8" font-family="Helvetica,sans-Serif" font-size="9.00">std::logical_or&lt; _Tp &gt;</text>
</a>
</g>
</g>
<!-- Node0&#45;&gt;Node7 -->
<g id="edge258_Node000000_Node000007" class="edge">
<title>Node0&#45;&gt;Node7</title>
<g id="a_edge258_Node000000_Node000007"><a xlink:title=" ">
<path fill="none" stroke="#63b8ff" d="M76.64,-122.75C93.54,-106.89 118.08,-86.13 143,-73 149.45,-69.6 156.62,-66.76 163.73,-64.41"/>
<polygon fill="#63b8ff" stroke="#63b8ff" points="74.42,-120.03 69.63,-129.49 79.27,-125.08 74.42,-120.03"/>
</a>
</g>
</g>
<!-- Node8 -->
<g id="Node000008" class="node">
<title>Node8</title>
<g id="a_Node000008"><a xlink:href="a08097.html" target="_top" xlink:title="One of the comparison functors.">
<polygon fill="white" stroke="#666666" points="256,-28 154,-28 154,0 256,0 256,-28"/>
<text text-anchor="start" x="162" y="-16.8" font-family="Helvetica,sans-Serif" font-size="9.00">std::not_equal_to&lt;</text>
<text text-anchor="middle" x="205" y="-6.8" font-family="Helvetica,sans-Serif" font-size="9.00"> _Tp &gt;</text>
</a>
</g>
</g>
<!-- Node0&#45;&gt;Node8 -->
<g id="edge259_Node000000_Node000008" class="edge">
<title>Node0&#45;&gt;Node8</title>
<g id="a_edge259_Node000000_Node000008"><a xlink:title=" ">
<path fill="none" stroke="#63b8ff" d="M68.66,-121.21C84.17,-97.01 111.12,-59.88 143,-37 147.51,-33.77 152.52,-30.93 157.69,-28.45"/>
<polygon fill="#63b8ff" stroke="#63b8ff" points="65.86,-119.1 63.54,-129.44 71.8,-122.8 65.86,-119.1"/>
</a>
</g>
</g>
</g>
</svg>
