<?xml version="1.0" encoding="UTF-8" standalone="no"?>
<!DOCTYPE svg PUBLIC "-//W3C//DTD SVG 1.1//EN"
 "http://www.w3.org/Graphics/SVG/1.1/DTD/svg11.dtd">
<!-- Generated by graphviz version 7.1.0 (0)
 -->
<!-- Title: Graphical Class Hierarchy Pages: 1 -->
<svg width="741pt" height="36pt"
 viewBox="0.00 0.00 741.00 36.00" xmlns="http://www.w3.org/2000/svg" xmlns:xlink="http://www.w3.org/1999/xlink">
<g id="graph0" class="graph" transform="scale(1 1) rotate(0) translate(4 32)">
<title>Graphical Class Hierarchy</title>
<!-- Node0 -->
<g id="Node000000" class="node">
<title>Node0</title>
<g id="a_Node000000"><a xlink:href="a08469.html" target="_top" xlink:title="Marking input iterators.">
<polygon fill="white" stroke="#666666" points="118,-23 0,-23 0,-5 118,-5 118,-23"/>
<text text-anchor="middle" x="59" y="-11.8" font-family="Helvetica,sans-Serif" font-size="9.00">std::input_iterator_tag</text>
</a>
</g>
</g>
<!-- Node1 -->
<g id="Node000001" class="node">
<title>Node1</title>
<g id="a_Node000001"><a xlink:href="a08477.html" target="_top" xlink:title="Forward iterators support a superset of input iterator operations.">
<polygon fill="white" stroke="#666666" points="282,-23 154,-23 154,-5 282,-5 282,-23"/>
<text text-anchor="middle" x="218" y="-11.8" font-family="Helvetica,sans-Serif" font-size="9.00">std::forward_iterator_tag</text>
</a>
</g>
</g>
<!-- Node0&#45;&gt;Node1 -->
<g id="edge345_Node000000_Node000001" class="edge">
<title>Node0&#45;&gt;Node1</title>
<g id="a_edge345_Node000000_Node000001"><a xlink:title=" ">
<path fill="none" stroke="#63b8ff" d="M129.95,-14C137.88,-14 145.92,-14 153.75,-14"/>
<polygon fill="#63b8ff" stroke="#63b8ff" points="129.97,-10.5 119.97,-14 129.97,-17.5 129.97,-10.5"/>
</a>
</g>
</g>
<!-- Node2 -->
<g id="Node000002" class="node">
<title>Node2</title>
<g id="a_Node000002"><a xlink:href="a08481.html" target="_top" xlink:title="Bidirectional iterators support a superset of forward iterator operations.">
<polygon fill="white" stroke="#666666" points="410,-28 318,-28 318,0 410,0 410,-28"/>
<text text-anchor="start" x="326" y="-16.8" font-family="Helvetica,sans-Serif" font-size="9.00">std::bidirectional</text>
<text text-anchor="middle" x="364" y="-6.8" font-family="Helvetica,sans-Serif" font-size="9.00">_iterator_tag</text>
</a>
</g>
</g>
<!-- Node1&#45;&gt;Node2 -->
<g id="edge346_Node000001_Node000002" class="edge">
<title>Node1&#45;&gt;Node2</title>
<g id="a_edge346_Node000001_Node000002"><a xlink:title=" ">
<path fill="none" stroke="#63b8ff" d="M293.41,-14C301.67,-14 309.89,-14 317.63,-14"/>
<polygon fill="#63b8ff" stroke="#63b8ff" points="293.67,-10.5 283.67,-14 293.67,-17.5 293.67,-10.5"/>
</a>
</g>
</g>
<!-- Node3 -->
<g id="Node000003" class="node">
<title>Node3</title>
<g id="a_Node000003"><a xlink:href="a08485.html" target="_top" xlink:title="Random&#45;access iterators support a superset of bidirectional iterator operations.">
<polygon fill="white" stroke="#666666" points="553,-28 446,-28 446,0 553,0 553,-28"/>
<text text-anchor="start" x="454" y="-16.8" font-family="Helvetica,sans-Serif" font-size="9.00">std::random_access</text>
<text text-anchor="middle" x="499.5" y="-6.8" font-family="Helvetica,sans-Serif" font-size="9.00">_iterator_tag</text>
</a>
</g>
</g>
<!-- Node2&#45;&gt;Node3 -->
<g id="edge347_Node000002_Node000003" class="edge">
<title>Node2&#45;&gt;Node3</title>
<g id="a_edge347_Node000002_Node000003"><a xlink:title=" ">
<path fill="none" stroke="#63b8ff" d="M421.61,-14C429.54,-14 437.66,-14 445.51,-14"/>
<polygon fill="#63b8ff" stroke="#63b8ff" points="421.71,-10.5 411.71,-14 421.71,-17.5 421.71,-10.5"/>
</a>
</g>
</g>
<!-- Node4 -->
<g id="Node000004" class="node">
<title>Node4</title>
<g id="a_Node000004"><a xlink:href="a08489.html" target="_top" xlink:title="Contiguous iterators point to objects stored contiguously in memory.">
<polygon fill="white" stroke="#666666" points="733,-23 589,-23 589,-5 733,-5 733,-23"/>
<text text-anchor="middle" x="661" y="-11.8" font-family="Helvetica,sans-Serif" font-size="9.00">std::contiguous_iterator_tag</text>
</a>
</g>
</g>
<!-- Node3&#45;&gt;Node4 -->
<g id="edge348_Node000003_Node000004" class="edge">
<title>Node3&#45;&gt;Node4</title>
<g id="a_edge348_Node000003_Node000004"><a xlink:title=" ">
<path fill="none" stroke="#63b8ff" d="M564.56,-14C572.47,-14 580.59,-14 588.6,-14"/>
<polygon fill="#63b8ff" stroke="#63b8ff" points="564.68,-10.5 554.68,-14 564.68,-17.5 564.68,-10.5"/>
</a>
</g>
</g>
</g>
</svg>
