<?xml version="1.0" encoding="UTF-8" standalone="no"?>
<!DOCTYPE svg PUBLIC "-//W3C//DTD SVG 1.1//EN"
 "http://www.w3.org/Graphics/SVG/1.1/DTD/svg11.dtd">
<!-- Generated by graphviz version 7.1.0 (0)
 -->
<!-- Title: Graphical Class Hierarchy Pages: 1 -->
<svg width="282pt" height="118pt"
 viewBox="0.00 0.00 282.00 118.00" xmlns="http://www.w3.org/2000/svg" xmlns:xlink="http://www.w3.org/1999/xlink">
<g id="graph0" class="graph" transform="scale(1 1) rotate(0) translate(4 114)">
<title>Graphical Class Hierarchy</title>
<!-- Node0 -->
<g id="Node000000" class="node">
<title>Node0</title>
<g id="a_Node000000"><a xlink:href="a06345.html" target="_top" xlink:title="An allocator that uses global new, as per C++03 [20.4.1].">
<polygon fill="white" stroke="#666666" points="107,-64 0,-64 0,-36 107,-36 107,-64"/>
<text text-anchor="start" x="8" y="-52.8" font-family="Helvetica,sans-Serif" font-size="9.00">std::__new_allocator</text>
<text text-anchor="middle" x="53.5" y="-42.8" font-family="Helvetica,sans-Serif" font-size="9.00">&lt; _Tp &gt;</text>
</a>
</g>
</g>
<!-- Node1 -->
<g id="Node000001" class="node">
<title>Node1</title>
<g id="a_Node000001"><a xlink:href="a04849.html" target="_top" xlink:title=" ">
<polygon fill="white" stroke="#666666" points="263.5,-110 153.5,-110 153.5,-82 263.5,-82 263.5,-110"/>
<text text-anchor="start" x="161.5" y="-98.8" font-family="Helvetica,sans-Serif" font-size="9.00">std::allocator&lt; value</text>
<text text-anchor="middle" x="208.5" y="-88.8" font-family="Helvetica,sans-Serif" font-size="9.00">_type &gt;</text>
</a>
</g>
</g>
<!-- Node0&#45;&gt;Node1 -->
<g id="edge169_Node000000_Node000001" class="edge">
<title>Node0&#45;&gt;Node1</title>
<g id="a_edge169_Node000000_Node000001"><a xlink:title=" ">
<path fill="none" stroke="#63b8ff" d="M113.37,-67.7C128.6,-72.28 144.81,-77.15 159.42,-81.54"/>
<polygon fill="#63b8ff" stroke="#63b8ff" points="114.52,-64.39 103.94,-64.86 112.51,-71.1 114.52,-64.39"/>
</a>
</g>
</g>
<!-- Node2 -->
<g id="Node000002" class="node">
<title>Node2</title>
<g id="a_Node000002"><a xlink:href="a12097.html" target="_top" xlink:title="An allocator that uses global new, as per C++03 [20.4.1].">
<polygon fill="white" stroke="#666666" points="274,-64 143,-64 143,-36 274,-36 274,-64"/>
<text text-anchor="start" x="151" y="-52.8" font-family="Helvetica,sans-Serif" font-size="9.00">__gnu_cxx::new_allocator</text>
<text text-anchor="middle" x="208.5" y="-42.8" font-family="Helvetica,sans-Serif" font-size="9.00">&lt; _Tp &gt;</text>
</a>
</g>
</g>
<!-- Node0&#45;&gt;Node2 -->
<g id="edge170_Node000000_Node000002" class="edge">
<title>Node0&#45;&gt;Node2</title>
<g id="a_edge170_Node000000_Node000002"><a xlink:title=" ">
<path fill="none" stroke="#63b8ff" d="M118.6,-50C126.53,-50 134.64,-50 142.58,-50"/>
<polygon fill="#63b8ff" stroke="#63b8ff" points="118.67,-46.5 108.67,-50 118.67,-53.5 118.67,-46.5"/>
</a>
</g>
</g>
<!-- Node3 -->
<g id="Node000003" class="node">
<title>Node3</title>
<g id="a_Node000003"><a xlink:href="a04849.html" target="_top" xlink:title="The standard allocator, as per C++03 [20.4.1].">
<polygon fill="white" stroke="#666666" points="264.5,-18 152.5,-18 152.5,0 264.5,0 264.5,-18"/>
<text text-anchor="middle" x="208.5" y="-6.8" font-family="Helvetica,sans-Serif" font-size="9.00">std::allocator&lt; _Tp &gt;</text>
</a>
</g>
</g>
<!-- Node0&#45;&gt;Node3 -->
<g id="edge171_Node000000_Node000003" class="edge">
<title>Node0&#45;&gt;Node3</title>
<g id="a_edge171_Node000000_Node000003"><a xlink:title=" ">
<path fill="none" stroke="#63b8ff" d="M118.15,-32.94C136.59,-28 156.04,-22.79 172.07,-18.49"/>
<polygon fill="#63b8ff" stroke="#63b8ff" points="117.37,-29.53 108.62,-35.5 119.18,-36.29 117.37,-29.53"/>
</a>
</g>
</g>
</g>
</svg>
