<?xml version="1.0" encoding="UTF-8" standalone="no"?>
<!DOCTYPE svg PUBLIC "-//W3C//DTD SVG 1.1//EN"
 "http://www.w3.org/Graphics/SVG/1.1/DTD/svg11.dtd">
<!-- Generated by graphviz version 7.1.0 (0)
 -->
<!-- Title: Graphical Class Hierarchy Pages: 1 -->
<svg width="414pt" height="36pt"
 viewBox="0.00 0.00 414.00 36.00" xmlns="http://www.w3.org/2000/svg" xmlns:xlink="http://www.w3.org/1999/xlink">
<g id="graph0" class="graph" transform="scale(1 1) rotate(0) translate(4 32)">
<title>Graphical Class Hierarchy</title>
<!-- Node0 -->
<g id="Node000000" class="node">
<title>Node0</title>
<g id="a_Node000000"><a xlink:href="a05261.html" target="_top" xlink:title="Base class used to implement std::char_traits.">
<polygon fill="white" stroke="#666666" points="118,-28 0,-28 0,0 118,0 118,-28"/>
<text text-anchor="start" x="8" y="-16.8" font-family="Helvetica,sans-Serif" font-size="9.00">__gnu_cxx::char_traits</text>
<text text-anchor="middle" x="59" y="-6.8" font-family="Helvetica,sans-Serif" font-size="9.00">&lt; _CharT &gt;</text>
</a>
</g>
</g>
<!-- Node1 -->
<g id="Node000001" class="node">
<title>Node1</title>
<g id="a_Node000001"><a xlink:href="a05265.html" target="_top" xlink:title="Basis for explicit traits specializations.">
<polygon fill="white" stroke="#666666" points="249,-28 154,-28 154,0 249,0 249,-28"/>
<text text-anchor="start" x="162" y="-16.8" font-family="Helvetica,sans-Serif" font-size="9.00">std::char_traits&lt; </text>
<text text-anchor="middle" x="201.5" y="-6.8" font-family="Helvetica,sans-Serif" font-size="9.00">_CharT &gt;</text>
</a>
</g>
</g>
<!-- Node0&#45;&gt;Node1 -->
<g id="edge18_Node000000_Node000001" class="edge">
<title>Node0&#45;&gt;Node1</title>
<g id="a_edge18_Node000000_Node000001"><a xlink:title=" ">
<path fill="none" stroke="#63b8ff" d="M129.76,-14C137.86,-14 145.97,-14 153.65,-14"/>
<polygon fill="#63b8ff" stroke="#63b8ff" points="129.88,-10.5 119.88,-14 129.88,-17.5 129.88,-10.5"/>
</a>
</g>
</g>
<!-- Node2 -->
<g id="Node000002" class="node">
<title>Node2</title>
<g id="a_Node000002"><a xlink:href="a11921.html" target="_top" xlink:title="encoding_char_traits">
<polygon fill="white" stroke="#666666" points="406,-28 285,-28 285,0 406,0 406,-28"/>
<text text-anchor="start" x="293" y="-16.8" font-family="Helvetica,sans-Serif" font-size="9.00">__gnu_cxx::encoding</text>
<text text-anchor="middle" x="345.5" y="-6.8" font-family="Helvetica,sans-Serif" font-size="9.00">_char_traits&lt; _CharT &gt;</text>
</a>
</g>
</g>
<!-- Node1&#45;&gt;Node2 -->
<g id="edge19_Node000001_Node000002" class="edge">
<title>Node1&#45;&gt;Node2</title>
<g id="a_edge19_Node000001_Node000002"><a xlink:title=" ">
<path fill="none" stroke="#63b8ff" d="M260.77,-14C268.68,-14 276.81,-14 284.75,-14"/>
<polygon fill="#63b8ff" stroke="#63b8ff" points="260.9,-10.5 250.9,-14 260.9,-17.5 260.9,-10.5"/>
</a>
</g>
</g>
</g>
</svg>
