<?xml version="1.0" encoding="UTF-8" standalone="no"?>
<!DOCTYPE svg PUBLIC "-//W3C//DTD SVG 1.1//EN"
 "http://www.w3.org/Graphics/SVG/1.1/DTD/svg11.dtd">
<!-- Generated by graphviz version 7.1.0 (0)
 -->
<!-- Title: Graphical Class Hierarchy Pages: 1 -->
<svg width="322pt" height="282pt"
 viewBox="0.00 0.00 322.00 282.00" xmlns="http://www.w3.org/2000/svg" xmlns:xlink="http://www.w3.org/1999/xlink">
<g id="graph0" class="graph" transform="scale(1 1) rotate(0) translate(4 278)">
<title>Graphical Class Hierarchy</title>
<!-- Node0 -->
<g id="Node000000" class="node">
<title>Node0</title>
<g id="a_Node000000"><a xlink:href="a03633.html" target="_top" xlink:title=" ">
<polygon fill="white" stroke="#666666" points="108,-146 0,-146 0,-118 108,-118 108,-146"/>
<text text-anchor="start" x="8" y="-134.8" font-family="Helvetica,sans-Serif" font-size="9.00">std::_Tuple_impl&lt; 0,</text>
<text text-anchor="middle" x="54" y="-124.8" font-family="Helvetica,sans-Serif" font-size="9.00"> _Elements... &gt;</text>
</a>
</g>
</g>
<!-- Node1 -->
<g id="Node000001" class="node">
<title>Node1</title>
<g id="a_Node000001"><a xlink:href="a03609.html" target="_top" xlink:title=" ">
<polygon fill="white" stroke="#666666" points="281,-274 177,-274 177,-246 281,-246 281,-274"/>
<text text-anchor="start" x="185" y="-262.8" font-family="Helvetica,sans-Serif" font-size="9.00">std::tuple&lt; _Bound</text>
<text text-anchor="middle" x="229" y="-252.8" font-family="Helvetica,sans-Serif" font-size="9.00">_args... &gt;</text>
</a>
</g>
</g>
<!-- Node0&#45;&gt;Node1 -->
<g id="edge187_Node000000_Node000001" class="edge">
<title>Node0&#45;&gt;Node1</title>
<g id="a_edge187_Node000000_Node000001"><a xlink:title=" ">
<path fill="none" stroke="#63b8ff" d="M69.23,-156.04C84.67,-180.05 111.53,-216.3 144,-237 153.82,-243.26 165.33,-247.83 176.63,-251.17"/>
<polygon fill="#63b8ff" stroke="#63b8ff" points="72.2,-154.19 63.94,-147.55 66.26,-157.89 72.2,-154.19"/>
</a>
</g>
</g>
<!-- Node2 -->
<g id="Node000002" class="node">
<title>Node2</title>
<g id="a_Node000002"><a xlink:href="a03609.html" target="_top" xlink:title=" ">
<polygon fill="white" stroke="#666666" points="301,-228 157,-228 157,-210 301,-210 301,-228"/>
<text text-anchor="middle" x="229" y="-216.8" font-family="Helvetica,sans-Serif" font-size="9.00">std::tuple&lt; _BoundArgs... &gt;</text>
</a>
</g>
</g>
<!-- Node0&#45;&gt;Node2 -->
<g id="edge188_Node000000_Node000002" class="edge">
<title>Node0&#45;&gt;Node2</title>
<g id="a_edge188_Node000000_Node000002"><a xlink:title=" ">
<path fill="none" stroke="#63b8ff" d="M77.18,-153.83C94.12,-169.28 118.79,-189.28 144,-201 151.44,-204.46 159.56,-207.26 167.72,-209.53"/>
<polygon fill="#63b8ff" stroke="#63b8ff" points="79.85,-151.54 70.16,-147.26 75.07,-156.65 79.85,-151.54"/>
</a>
</g>
</g>
<!-- Node3 -->
<g id="Node000003" class="node">
<title>Node3</title>
<g id="a_Node000003"><a xlink:href="a03609.html" target="_top" xlink:title=" ">
<polygon fill="white" stroke="#666666" points="290,-192 168,-192 168,-164 290,-164 290,-192"/>
<text text-anchor="start" x="176" y="-180.8" font-family="Helvetica,sans-Serif" font-size="9.00">std::tuple&lt; std::array</text>
<text text-anchor="middle" x="229" y="-170.8" font-family="Helvetica,sans-Serif" font-size="9.00">&lt; _Tp, _Len &gt;, _Pred &gt;</text>
</a>
</g>
</g>
<!-- Node0&#45;&gt;Node3 -->
<g id="edge189_Node000000_Node000003" class="edge">
<title>Node0&#45;&gt;Node3</title>
<g id="a_edge189_Node000000_Node000003"><a xlink:title=" ">
<path fill="none" stroke="#63b8ff" d="M119.25,-149.08C137.15,-153.84 156.4,-158.96 173.67,-163.55"/>
<polygon fill="#63b8ff" stroke="#63b8ff" points="120.34,-145.75 109.78,-146.57 118.54,-152.52 120.34,-145.75"/>
</a>
</g>
</g>
<!-- Node4 -->
<g id="Node000004" class="node">
<title>Node4</title>
<g id="a_Node000004"><a xlink:href="a03609.html" target="_top" xlink:title=" ">
<polygon fill="white" stroke="#666666" points="314,-146 144,-146 144,-118 314,-118 314,-146"/>
<text text-anchor="start" x="152" y="-134.8" font-family="Helvetica,sans-Serif" font-size="9.00">std::tuple&lt; _ForwardIterator1,</text>
<text text-anchor="middle" x="229" y="-124.8" font-family="Helvetica,sans-Serif" font-size="9.00"> _ForwardIterator1, equal_to&lt;&gt; &gt;</text>
</a>
</g>
</g>
<!-- Node0&#45;&gt;Node4 -->
<g id="edge190_Node000000_Node000004" class="edge">
<title>Node0&#45;&gt;Node4</title>
<g id="a_edge190_Node000000_Node000004"><a xlink:title=" ">
<path fill="none" stroke="#63b8ff" d="M119.61,-132C127.47,-132 135.58,-132 143.67,-132"/>
<polygon fill="#63b8ff" stroke="#63b8ff" points="119.83,-128.5 109.83,-132 119.83,-135.5 119.83,-128.5"/>
</a>
</g>
</g>
<!-- Node5 -->
<g id="Node000005" class="node">
<title>Node5</title>
<g id="a_Node000005"><a xlink:href="a03609.html" target="_top" xlink:title=" ">
<polygon fill="white" stroke="#666666" points="286.5,-100 171.5,-100 171.5,-82 286.5,-82 286.5,-100"/>
<text text-anchor="middle" x="229" y="-88.8" font-family="Helvetica,sans-Serif" font-size="9.00">std::tuple&lt; _Args... &gt;</text>
</a>
</g>
</g>
<!-- Node0&#45;&gt;Node5 -->
<g id="edge191_Node000000_Node000005" class="edge">
<title>Node0&#45;&gt;Node5</title>
<g id="a_edge191_Node000000_Node000005"><a xlink:title=" ">
<path fill="none" stroke="#63b8ff" d="M119.02,-115.11C127.41,-113 135.9,-110.91 144,-109 156.34,-106.09 169.74,-103.12 182.15,-100.46"/>
<polygon fill="#63b8ff" stroke="#63b8ff" points="118.39,-111.66 109.56,-117.52 120.11,-118.45 118.39,-111.66"/>
</a>
</g>
</g>
<!-- Node6 -->
<g id="Node000006" class="node">
<title>Node6</title>
<g id="a_Node000006"><a xlink:href="a03609.html" target="_top" xlink:title=" ">
<polygon fill="white" stroke="#666666" points="293,-64 165,-64 165,-36 293,-36 293,-64"/>
<text text-anchor="start" x="173" y="-52.8" font-family="Helvetica,sans-Serif" font-size="9.00">std::tuple&lt; _MutexTypes</text>
<text text-anchor="middle" x="229" y="-42.8" font-family="Helvetica,sans-Serif" font-size="9.00"> &amp;... &gt;</text>
</a>
</g>
</g>
<!-- Node0&#45;&gt;Node6 -->
<g id="edge192_Node000000_Node000006" class="edge">
<title>Node0&#45;&gt;Node6</title>
<g id="a_edge192_Node000000_Node000006"><a xlink:title=" ">
<path fill="none" stroke="#63b8ff" d="M81.55,-111.14C98.59,-98.6 121.64,-83.16 144,-73 151.02,-69.81 158.58,-66.98 166.18,-64.49"/>
<polygon fill="#63b8ff" stroke="#63b8ff" points="79.85,-108.04 73.96,-116.84 84.05,-113.64 79.85,-108.04"/>
</a>
</g>
</g>
<!-- Node7 -->
<g id="Node000007" class="node">
<title>Node7</title>
<g id="a_Node000007"><a xlink:href="a03609.html" target="_top" xlink:title="Primary class template, tuple.">
<polygon fill="white" stroke="#666666" points="293,-18 165,-18 165,0 293,0 293,-18"/>
<text text-anchor="middle" x="229" y="-6.8" font-family="Helvetica,sans-Serif" font-size="9.00">std::tuple&lt; _Elements &gt;</text>
</a>
</g>
</g>
<!-- Node0&#45;&gt;Node7 -->
<g id="edge193_Node000000_Node000007" class="edge">
<title>Node0&#45;&gt;Node7</title>
<g id="a_edge193_Node000000_Node000007"><a xlink:title=" ">
<path fill="none" stroke="#63b8ff" d="M68.54,-108.31C83.72,-83.99 110.63,-46.98 144,-27 150.4,-23.17 157.5,-20.15 164.79,-17.77"/>
<polygon fill="#63b8ff" stroke="#63b8ff" points="65.73,-106.2 63.55,-116.57 71.72,-109.82 65.73,-106.2"/>
</a>
</g>
</g>
</g>
</svg>
