<?xml version="1.0" encoding="UTF-8" standalone="no"?>
<!DOCTYPE svg PUBLIC "-//W3C//DTD SVG 1.1//EN"
 "http://www.w3.org/Graphics/SVG/1.1/DTD/svg11.dtd">
<!-- Generated by graphviz version 7.1.0 (0)
 -->
<!-- Title: Graphical Class Hierarchy Pages: 1 -->
<svg width="312pt" height="174pt"
 viewBox="0.00 0.00 312.00 174.00" xmlns="http://www.w3.org/2000/svg" xmlns:xlink="http://www.w3.org/1999/xlink">
<g id="graph0" class="graph" transform="scale(1 1) rotate(0) translate(4 170)">
<title>Graphical Class Hierarchy</title>
<!-- Node0 -->
<g id="Node000000" class="node">
<title>Node0</title>
<g id="a_Node000000"><a xlink:href="a08041.html" target="_top" xlink:title=" ">
<polygon fill="white" stroke="#666666" points="107,-97 0,-97 0,-69 107,-69 107,-97"/>
<text text-anchor="start" x="8" y="-85.8" font-family="Helvetica,sans-Serif" font-size="9.00">std::binary_function</text>
<text text-anchor="middle" x="53.5" y="-75.8" font-family="Helvetica,sans-Serif" font-size="9.00">&lt; _T1, _T2, bool &gt;</text>
</a>
</g>
</g>
<!-- Node1 -->
<g id="Node000001" class="node">
<title>Node1</title>
<g id="a_Node000001"><a xlink:href="a09905.html" target="_top" xlink:title="Constructs predicate for equality from strict weak ordering predicate.">
<polygon fill="white" stroke="#666666" points="296.5,-166 150.5,-166 150.5,-138 296.5,-138 296.5,-166"/>
<text text-anchor="start" x="158.5" y="-154.8" font-family="Helvetica,sans-Serif" font-size="9.00">__gnu_parallel::_EqualFrom</text>
<text text-anchor="middle" x="223.5" y="-144.8" font-family="Helvetica,sans-Serif" font-size="9.00">Less&lt; _T1, _T2, _Compare &gt;</text>
</a>
</g>
</g>
<!-- Node0&#45;&gt;Node1 -->
<g id="edge240_Node000000_Node000001" class="edge">
<title>Node0&#45;&gt;Node1</title>
<g id="a_edge240_Node000000_Node000001"><a xlink:title=" ">
<path fill="none" stroke="#63b8ff" d="M89.05,-102.99C105.11,-111.74 124.67,-121.67 143,-129 150.74,-132.09 159.05,-134.97 167.28,-137.56"/>
<polygon fill="#63b8ff" stroke="#63b8ff" points="90.82,-99.97 80.38,-98.18 87.43,-106.09 90.82,-99.97"/>
</a>
</g>
</g>
<!-- Node2 -->
<g id="Node000002" class="node">
<title>Node2</title>
<g id="a_Node000002"><a xlink:href="a09921.html" target="_top" xlink:title="Similar to std::equal_to, but allows two different types.">
<polygon fill="white" stroke="#666666" points="286,-120 161,-120 161,-92 286,-92 286,-120"/>
<text text-anchor="start" x="169" y="-108.8" font-family="Helvetica,sans-Serif" font-size="9.00">__gnu_parallel::_EqualTo</text>
<text text-anchor="middle" x="223.5" y="-98.8" font-family="Helvetica,sans-Serif" font-size="9.00">&lt; _T1, _T2 &gt;</text>
</a>
</g>
</g>
<!-- Node0&#45;&gt;Node2 -->
<g id="edge241_Node000000_Node000002" class="edge">
<title>Node0&#45;&gt;Node2</title>
<g id="a_edge241_Node000000_Node000002"><a xlink:title=" ">
<path fill="none" stroke="#63b8ff" d="M118.56,-91.77C132.34,-93.66 146.88,-95.65 160.58,-97.52"/>
<polygon fill="#63b8ff" stroke="#63b8ff" points="119.08,-88.31 108.69,-90.42 118.13,-95.24 119.08,-88.31"/>
</a>
</g>
</g>
<!-- Node3 -->
<g id="Node000003" class="node">
<title>Node3</title>
<g id="a_Node000003"><a xlink:href="a09925.html" target="_top" xlink:title="Similar to std::less, but allows two different types.">
<polygon fill="white" stroke="#666666" points="278.5,-74 168.5,-74 168.5,-46 278.5,-46 278.5,-74"/>
<text text-anchor="start" x="176.5" y="-62.8" font-family="Helvetica,sans-Serif" font-size="9.00">__gnu_parallel::_Less</text>
<text text-anchor="middle" x="223.5" y="-52.8" font-family="Helvetica,sans-Serif" font-size="9.00">&lt; _T1, _T2 &gt;</text>
</a>
</g>
</g>
<!-- Node0&#45;&gt;Node3 -->
<g id="edge242_Node000000_Node000003" class="edge">
<title>Node0&#45;&gt;Node3</title>
<g id="a_edge242_Node000000_Node000003"><a xlink:title=" ">
<path fill="none" stroke="#63b8ff" d="M118.37,-74.26C134.81,-72 152.35,-69.6 168.25,-67.43"/>
<polygon fill="#63b8ff" stroke="#63b8ff" points="118.13,-70.76 108.69,-75.58 119.08,-77.69 118.13,-70.76"/>
</a>
</g>
</g>
<!-- Node4 -->
<g id="Node000004" class="node">
<title>Node4</title>
<g id="a_Node000004"><a xlink:href="a10129.html" target="_top" xlink:title="Compare __a pair of types lexicographically, descending.">
<polygon fill="white" stroke="#666666" points="304,-28 143,-28 143,0 304,0 304,-28"/>
<text text-anchor="start" x="151" y="-16.8" font-family="Helvetica,sans-Serif" font-size="9.00">__gnu_parallel::_Lexicographic</text>
<text text-anchor="middle" x="223.5" y="-6.8" font-family="Helvetica,sans-Serif" font-size="9.00">Reverse&lt; _T1, _T2, _Compare &gt;</text>
</a>
</g>
</g>
<!-- Node0&#45;&gt;Node4 -->
<g id="edge243_Node000000_Node000004" class="edge">
<title>Node0&#45;&gt;Node4</title>
<g id="a_edge243_Node000000_Node000004"><a xlink:title=" ">
<path fill="none" stroke="#63b8ff" d="M89.05,-63.01C105.11,-54.26 124.67,-44.33 143,-37 150.74,-33.91 159.05,-31.03 167.28,-28.44"/>
<polygon fill="#63b8ff" stroke="#63b8ff" points="87.43,-59.91 80.38,-67.82 90.82,-66.03 87.43,-59.91"/>
</a>
</g>
</g>
</g>
</svg>
