<?xml version="1.0" encoding="UTF-8" standalone="no"?>
<!DOCTYPE svg PUBLIC "-//W3C//DTD SVG 1.1//EN"
 "http://www.w3.org/Graphics/SVG/1.1/DTD/svg11.dtd">
<!-- Generated by graphviz version 7.1.0 (0)
 -->
<!-- Title: Graphical Class Hierarchy Pages: 1 -->
<svg width="298pt" height="82pt"
 viewBox="0.00 0.00 298.00 82.00" xmlns="http://www.w3.org/2000/svg" xmlns:xlink="http://www.w3.org/1999/xlink">
<g id="graph0" class="graph" transform="scale(1 1) rotate(0) translate(4 78)">
<title>Graphical Class Hierarchy</title>
<!-- Node0 -->
<g id="Node000000" class="node">
<title>Node0</title>
<g id="a_Node000000"><a xlink:href="a07193.html" target="_top" xlink:title="The ranges::view_interface class template.">
<polygon fill="white" stroke="#666666" points="138,-51 0,-51 0,-23 138,-23 138,-51"/>
<text text-anchor="start" x="8" y="-39.8" font-family="Helvetica,sans-Serif" font-size="9.00">std::ranges::view_interface</text>
<text text-anchor="middle" x="69" y="-29.8" font-family="Helvetica,sans-Serif" font-size="9.00">&lt; _Derived &gt;</text>
</a>
</g>
</g>
<!-- Node1 -->
<g id="Node000001" class="node">
<title>Node1</title>
<g id="a_Node000001"><a xlink:href="a07269.html" target="_top" xlink:title=" ">
<polygon fill="white" stroke="#666666" points="290,-74 174,-74 174,-46 290,-46 290,-74"/>
<text text-anchor="start" x="182" y="-62.8" font-family="Helvetica,sans-Serif" font-size="9.00">std::ranges::subrange</text>
<text text-anchor="middle" x="232" y="-52.8" font-family="Helvetica,sans-Serif" font-size="9.00">&lt; iterator_t&lt; _Vp &gt; &gt;</text>
</a>
</g>
</g>
<!-- Node0&#45;&gt;Node1 -->
<g id="edge448_Node000000_Node000001" class="edge">
<title>Node0&#45;&gt;Node1</title>
<g id="a_edge448_Node000000_Node000001"><a xlink:title=" ">
<path fill="none" stroke="#63b8ff" d="M149.44,-48.35C157.66,-49.52 165.89,-50.7 173.79,-51.83"/>
<polygon fill="#63b8ff" stroke="#63b8ff" points="150.17,-44.92 139.78,-46.97 149.18,-51.85 150.17,-44.92"/>
</a>
</g>
</g>
<!-- Node2 -->
<g id="Node000002" class="node">
<title>Node2</title>
<g id="a_Node000002"><a xlink:href="a07269.html" target="_top" xlink:title="The ranges::subrange class template.">
<polygon fill="white" stroke="#666666" points="290,-28 174,-28 174,0 290,0 290,-28"/>
<text text-anchor="start" x="182" y="-16.8" font-family="Helvetica,sans-Serif" font-size="9.00">std::ranges::subrange</text>
<text text-anchor="middle" x="232" y="-6.8" font-family="Helvetica,sans-Serif" font-size="9.00">&lt; _It, _Sent, _Kind &gt;</text>
</a>
</g>
</g>
<!-- Node0&#45;&gt;Node2 -->
<g id="edge449_Node000000_Node000002" class="edge">
<title>Node0&#45;&gt;Node2</title>
<g id="a_edge449_Node000000_Node000002"><a xlink:title=" ">
<path fill="none" stroke="#63b8ff" d="M149.44,-25.65C157.66,-24.48 165.89,-23.3 173.79,-22.17"/>
<polygon fill="#63b8ff" stroke="#63b8ff" points="149.18,-22.15 139.78,-27.03 150.17,-29.08 149.18,-22.15"/>
</a>
</g>
</g>
</g>
</svg>
