<?xml version="1.0" encoding="UTF-8" standalone="no"?>
<!DOCTYPE svg PUBLIC "-//W3C//DTD SVG 1.1//EN"
 "http://www.w3.org/Graphics/SVG/1.1/DTD/svg11.dtd">
<!-- Generated by graphviz version 7.1.0 (0)
 -->
<!-- Title: Graphical Class Hierarchy Pages: 1 -->
<svg width="486pt" height="137pt"
 viewBox="0.00 0.00 486.00 137.00" xmlns="http://www.w3.org/2000/svg" xmlns:xlink="http://www.w3.org/1999/xlink">
<g id="graph0" class="graph" transform="scale(1 1) rotate(0) translate(4 133)">
<title>Graphical Class Hierarchy</title>
<!-- Node0 -->
<g id="Node000000" class="node">
<title>Node0</title>
<g id="a_Node000000"><a xlink:href="a13369.html" target="_top" xlink:title=" ">
<polygon fill="white" stroke="#666666" points="149,-73 0,-73 0,-25 149,-25 149,-73"/>
<text text-anchor="start" x="8" y="-61.8" font-family="Helvetica,sans-Serif" font-size="9.00">__gnu_pbds::detail</text>
<text text-anchor="start" x="8" y="-51.8" font-family="Helvetica,sans-Serif" font-size="9.00">::left_child_next_sibling</text>
<text text-anchor="start" x="8" y="-41.8" font-family="Helvetica,sans-Serif" font-size="9.00">_heap&lt; Value_Type, Cmp_Fn,</text>
<text text-anchor="middle" x="74.5" y="-31.8" font-family="Helvetica,sans-Serif" font-size="9.00"> _Alloc::size_type, _Alloc &gt;</text>
</a>
</g>
</g>
<!-- Node1 -->
<g id="Node000001" class="node">
<title>Node1</title>
<g id="a_Node000001"><a xlink:href="a13217.html" target="_top" xlink:title="Base class for binomial heap.">
<polygon fill="white" stroke="#666666" points="311.5,-104 189.5,-104 189.5,-56 311.5,-56 311.5,-104"/>
<text text-anchor="start" x="197.5" y="-92.8" font-family="Helvetica,sans-Serif" font-size="9.00">__gnu_pbds::detail</text>
<text text-anchor="start" x="197.5" y="-82.8" font-family="Helvetica,sans-Serif" font-size="9.00">::binomial_heap_base</text>
<text text-anchor="start" x="197.5" y="-72.8" font-family="Helvetica,sans-Serif" font-size="9.00">&lt; Value_Type, Cmp_Fn,</text>
<text text-anchor="middle" x="250.5" y="-62.8" font-family="Helvetica,sans-Serif" font-size="9.00"> _Alloc &gt;</text>
</a>
</g>
</g>
<!-- Node0&#45;&gt;Node1 -->
<g id="edge137_Node000000_Node000001" class="edge">
<title>Node0&#45;&gt;Node1</title>
<g id="a_edge137_Node000000_Node000001"><a xlink:title=" ">
<path fill="none" stroke="#63b8ff" d="M160.54,-64.15C170.16,-65.86 179.8,-67.58 189.02,-69.22"/>
<polygon fill="#63b8ff" stroke="#63b8ff" points="161.24,-60.72 150.78,-62.41 160.01,-67.61 161.24,-60.72"/>
</a>
</g>
</g>
<!-- Node4 -->
<g id="Node000004" class="node">
<title>Node4</title>
<g id="a_Node000004"><a xlink:href="a13589.html" target="_top" xlink:title=" ">
<polygon fill="white" stroke="#666666" points="316,-38 185,-38 185,0 316,0 316,-38"/>
<text text-anchor="start" x="193" y="-26.8" font-family="Helvetica,sans-Serif" font-size="9.00">__gnu_pbds::detail</text>
<text text-anchor="start" x="193" y="-16.8" font-family="Helvetica,sans-Serif" font-size="9.00">::thin_heap&lt; Value_Type,</text>
<text text-anchor="middle" x="250.5" y="-6.8" font-family="Helvetica,sans-Serif" font-size="9.00"> Cmp_Fn, _Alloc &gt;</text>
</a>
</g>
</g>
<!-- Node0&#45;&gt;Node4 -->
<g id="edge140_Node000000_Node000004" class="edge">
<title>Node0&#45;&gt;Node4</title>
<g id="a_edge140_Node000000_Node000004"><a xlink:title=" ">
<path fill="none" stroke="#63b8ff" d="M160.39,-34.36C168.56,-32.96 176.75,-31.54 184.68,-30.18"/>
<polygon fill="#63b8ff" stroke="#63b8ff" points="160.04,-30.87 150.78,-36.02 161.23,-37.77 160.04,-30.87"/>
</a>
</g>
</g>
<!-- Node2 -->
<g id="Node000002" class="node">
<title>Node2</title>
<g id="a_Node000002"><a xlink:href="a13213.html" target="_top" xlink:title=" ">
<polygon fill="white" stroke="#666666" points="478,-129 352,-129 352,-91 478,-91 478,-129"/>
<text text-anchor="start" x="360" y="-117.8" font-family="Helvetica,sans-Serif" font-size="9.00">__gnu_pbds::detail</text>
<text text-anchor="start" x="360" y="-107.8" font-family="Helvetica,sans-Serif" font-size="9.00">::binomial_heap&lt; Value</text>
<text text-anchor="middle" x="415" y="-97.8" font-family="Helvetica,sans-Serif" font-size="9.00">_Type, Cmp_Fn, _Alloc &gt;</text>
</a>
</g>
</g>
<!-- Node1&#45;&gt;Node2 -->
<g id="edge138_Node000001_Node000002" class="edge">
<title>Node1&#45;&gt;Node2</title>
<g id="a_edge138_Node000001_Node000002"><a xlink:title=" ">
<path fill="none" stroke="#63b8ff" d="M322.76,-93.16C332.42,-94.94 342.27,-96.76 351.75,-98.51"/>
<polygon fill="#63b8ff" stroke="#63b8ff" points="323.5,-89.73 313.04,-91.36 322.23,-96.62 323.5,-89.73"/>
</a>
</g>
</g>
<!-- Node3 -->
<g id="Node000003" class="node">
<title>Node3</title>
<g id="a_Node000003"><a xlink:href="a13541.html" target="_top" xlink:title=" ">
<polygon fill="white" stroke="#666666" points="472.5,-73 357.5,-73 357.5,-25 472.5,-25 472.5,-73"/>
<text text-anchor="start" x="365.5" y="-61.8" font-family="Helvetica,sans-Serif" font-size="9.00">__gnu_pbds::detail</text>
<text text-anchor="start" x="365.5" y="-51.8" font-family="Helvetica,sans-Serif" font-size="9.00">::rc_binomial_heap&lt;</text>
<text text-anchor="start" x="365.5" y="-41.8" font-family="Helvetica,sans-Serif" font-size="9.00"> Value_Type, Cmp_Fn,</text>
<text text-anchor="middle" x="415" y="-31.8" font-family="Helvetica,sans-Serif" font-size="9.00"> _Alloc &gt;</text>
</a>
</g>
</g>
<!-- Node1&#45;&gt;Node3 -->
<g id="edge139_Node000001_Node000003" class="edge">
<title>Node1&#45;&gt;Node3</title>
<g id="a_edge139_Node000001_Node000003"><a xlink:title=" ">
<path fill="none" stroke="#63b8ff" d="M322.53,-66.45C334.12,-64.24 345.98,-61.98 357.17,-59.84"/>
<polygon fill="#63b8ff" stroke="#63b8ff" points="322.2,-62.95 313.03,-68.26 323.51,-69.83 322.2,-62.95"/>
</a>
</g>
</g>
</g>
</svg>
