<?xml version="1.0" encoding="UTF-8" standalone="no"?>
<!DOCTYPE svg PUBLIC "-//W3C//DTD SVG 1.1//EN"
 "http://www.w3.org/Graphics/SVG/1.1/DTD/svg11.dtd">
<!-- Generated by graphviz version 7.1.0 (0)
 -->
<!-- Title: Graphical Class Hierarchy Pages: 1 -->
<svg width="281pt" height="82pt"
 viewBox="0.00 0.00 281.00 82.00" xmlns="http://www.w3.org/2000/svg" xmlns:xlink="http://www.w3.org/1999/xlink">
<g id="graph0" class="graph" transform="scale(1 1) rotate(0) translate(4 78)">
<title>Graphical Class Hierarchy</title>
<!-- Node0 -->
<g id="Node000000" class="node">
<title>Node0</title>
<g id="a_Node000000"><a xlink:href="a08041.html" target="_top" xlink:title=" ">
<polygon fill="white" stroke="#666666" points="107,-51 0,-51 0,-23 107,-23 107,-51"/>
<text text-anchor="start" x="8" y="-39.8" font-family="Helvetica,sans-Serif" font-size="9.00">std::binary_function</text>
<text text-anchor="middle" x="53.5" y="-29.8" font-family="Helvetica,sans-Serif" font-size="9.00">&lt; _Tp, _Arg, _Ret &gt;</text>
</a>
</g>
</g>
<!-- Node1 -->
<g id="Node000001" class="node">
<title>Node1</title>
<g id="a_Node000001"><a xlink:href="a08337.html" target="_top" xlink:title="One of the adaptors for member pointers.">
<polygon fill="white" stroke="#666666" points="273,-74 143,-74 143,-46 273,-46 273,-74"/>
<text text-anchor="start" x="151" y="-62.8" font-family="Helvetica,sans-Serif" font-size="9.00">std::const_mem_fun1</text>
<text text-anchor="middle" x="208" y="-52.8" font-family="Helvetica,sans-Serif" font-size="9.00">_ref_t&lt; _Ret, _Tp, _Arg &gt;</text>
</a>
</g>
</g>
<!-- Node0&#45;&gt;Node1 -->
<g id="edge245_Node000000_Node000001" class="edge">
<title>Node0&#45;&gt;Node1</title>
<g id="a_edge245_Node000000_Node000001"><a xlink:title=" ">
<path fill="none" stroke="#63b8ff" d="M118.79,-46.7C126.68,-47.89 134.74,-49.1 142.62,-50.29"/>
<polygon fill="#63b8ff" stroke="#63b8ff" points="119.32,-43.24 108.91,-45.21 118.27,-50.16 119.32,-43.24"/>
</a>
</g>
</g>
<!-- Node2 -->
<g id="Node000002" class="node">
<title>Node2</title>
<g id="a_Node000002"><a xlink:href="a08333.html" target="_top" xlink:title="One of the adaptors for member pointers.">
<polygon fill="white" stroke="#666666" points="263,-28 153,-28 153,0 263,0 263,-28"/>
<text text-anchor="start" x="161" y="-16.8" font-family="Helvetica,sans-Serif" font-size="9.00">std::mem_fun1_ref_t</text>
<text text-anchor="middle" x="208" y="-6.8" font-family="Helvetica,sans-Serif" font-size="9.00">&lt; _Ret, _Tp, _Arg &gt;</text>
</a>
</g>
</g>
<!-- Node0&#45;&gt;Node2 -->
<g id="edge246_Node000000_Node000002" class="edge">
<title>Node0&#45;&gt;Node2</title>
<g id="a_edge246_Node000000_Node000002"><a xlink:title=" ">
<path fill="none" stroke="#63b8ff" d="M118.58,-27.34C129.91,-25.63 141.6,-23.86 152.63,-22.2"/>
<polygon fill="#63b8ff" stroke="#63b8ff" points="118.27,-23.84 108.91,-28.79 119.32,-30.76 118.27,-23.84"/>
</a>
</g>
</g>
</g>
</svg>
