<?xml version="1.0" encoding="UTF-8" standalone="no"?>
<!DOCTYPE svg PUBLIC "-//W3C//DTD SVG 1.1//EN"
 "http://www.w3.org/Graphics/SVG/1.1/DTD/svg11.dtd">
<!-- Generated by graphviz version 7.1.0 (0)
 -->
<!-- Title: Graphical Class Hierarchy Pages: 1 -->
<svg width="495pt" height="155pt"
 viewBox="0.00 0.00 495.00 155.00" xmlns="http://www.w3.org/2000/svg" xmlns:xlink="http://www.w3.org/1999/xlink">
<g id="graph0" class="graph" transform="scale(1 1) rotate(0) translate(4 151)">
<title>Graphical Class Hierarchy</title>
<!-- Node0 -->
<g id="Node000000" class="node">
<title>Node0</title>
<g id="a_Node000000"><a xlink:href="a13249.html" target="_top" xlink:title="Primary template, base class for branch structure policies.">
<polygon fill="white" stroke="#666666" points="124,-76 0,-76 0,-38 124,-38 124,-76"/>
<text text-anchor="start" x="8" y="-64.8" font-family="Helvetica,sans-Serif" font-size="9.00">__gnu_pbds::detail</text>
<text text-anchor="start" x="8" y="-54.8" font-family="Helvetica,sans-Serif" font-size="9.00">::branch_policy&lt; Node</text>
<text text-anchor="middle" x="62" y="-44.8" font-family="Helvetica,sans-Serif" font-size="9.00">_CItr, Node_Itr, _Alloc &gt;</text>
</a>
</g>
</g>
<!-- Node1 -->
<g id="Node000001" class="node">
<title>Node1</title>
<g id="a_Node000001"><a xlink:href="a13637.html" target="_top" xlink:title="Base class for trie policies.">
<polygon fill="white" stroke="#666666" points="287,-114 176,-114 176,-66 287,-66 287,-114"/>
<text text-anchor="start" x="184" y="-102.8" font-family="Helvetica,sans-Serif" font-size="9.00">__gnu_pbds::detail</text>
<text text-anchor="start" x="184" y="-92.8" font-family="Helvetica,sans-Serif" font-size="9.00">::trie_policy_base&lt;</text>
<text text-anchor="start" x="184" y="-82.8" font-family="Helvetica,sans-Serif" font-size="9.00"> Node_CItr, Node_Itr,</text>
<text text-anchor="middle" x="231.5" y="-72.8" font-family="Helvetica,sans-Serif" font-size="9.00"> _ATraits, _Alloc &gt;</text>
</a>
</g>
</g>
<!-- Node0&#45;&gt;Node1 -->
<g id="edge121_Node000000_Node000001" class="edge">
<title>Node0&#45;&gt;Node1</title>
<g id="a_edge121_Node000000_Node000001"><a xlink:title=" ">
<path fill="none" stroke="#63b8ff" d="M135.6,-71.3C149.06,-73.96 162.92,-76.68 175.73,-79.21"/>
<polygon fill="#63b8ff" stroke="#63b8ff" points="136.39,-67.89 125.9,-69.39 135.04,-74.76 136.39,-67.89"/>
</a>
</g>
</g>
<!-- Node4 -->
<g id="Node000004" class="node">
<title>Node4</title>
<g id="a_Node000004"><a xlink:href="a12961.html" target="_top" xlink:title="Functor updating ranks of entrees.">
<polygon fill="white" stroke="#666666" points="303,-48 160,-48 160,0 303,0 303,-48"/>
<text text-anchor="start" x="168" y="-36.8" font-family="Helvetica,sans-Serif" font-size="9.00">__gnu_pbds::tree_order</text>
<text text-anchor="start" x="168" y="-26.8" font-family="Helvetica,sans-Serif" font-size="9.00">_statistics_node_update</text>
<text text-anchor="start" x="168" y="-16.8" font-family="Helvetica,sans-Serif" font-size="9.00">&lt; Node_CItr, Node_Itr, Cmp</text>
<text text-anchor="middle" x="231.5" y="-6.8" font-family="Helvetica,sans-Serif" font-size="9.00">_Fn, _Alloc &gt;</text>
</a>
</g>
</g>
<!-- Node0&#45;&gt;Node4 -->
<g id="edge124_Node000000_Node000004" class="edge">
<title>Node0&#45;&gt;Node4</title>
<g id="a_edge124_Node000000_Node000004"><a xlink:title=" ">
<path fill="none" stroke="#8b1a1a" d="M135.61,-42.69C143.61,-41.12 151.75,-39.51 159.73,-37.94"/>
<polygon fill="#8b1a1a" stroke="#8b1a1a" points="135.04,-39.24 125.9,-44.61 136.39,-46.11 135.04,-39.24"/>
</a>
</g>
</g>
<!-- Node2 -->
<g id="Node000002" class="node">
<title>Node2</title>
<g id="a_Node000002"><a xlink:href="a12973.html" target="_top" xlink:title="Functor updating ranks of entrees.">
<polygon fill="white" stroke="#666666" points="475.5,-147 350.5,-147 350.5,-99 475.5,-99 475.5,-147"/>
<text text-anchor="start" x="358.5" y="-135.8" font-family="Helvetica,sans-Serif" font-size="9.00">__gnu_pbds::trie_order</text>
<text text-anchor="start" x="358.5" y="-125.8" font-family="Helvetica,sans-Serif" font-size="9.00">_statistics_node_update</text>
<text text-anchor="start" x="358.5" y="-115.8" font-family="Helvetica,sans-Serif" font-size="9.00">&lt; Node_CItr, Node_Itr, </text>
<text text-anchor="middle" x="413" y="-105.8" font-family="Helvetica,sans-Serif" font-size="9.00">_ATraits, _Alloc &gt;</text>
</a>
</g>
</g>
<!-- Node1&#45;&gt;Node2 -->
<g id="edge122_Node000001_Node000002" class="edge">
<title>Node1&#45;&gt;Node2</title>
<g id="a_edge122_Node000001_Node000002"><a xlink:title=" ">
<path fill="none" stroke="#8b1a1a" d="M298.29,-102.1C315.29,-105.22 333.52,-108.57 350.29,-111.66"/>
<polygon fill="#8b1a1a" stroke="#8b1a1a" points="299.29,-98.72 288.82,-100.35 298.02,-105.6 299.29,-98.72"/>
</a>
</g>
</g>
<!-- Node3 -->
<g id="Node000003" class="node">
<title>Node3</title>
<g id="a_Node000003"><a xlink:href="a12969.html" target="_top" xlink:title="A node updator that allows tries to be searched for the range of values that match a certain prefix.">
<polygon fill="white" stroke="#666666" points="487,-81 339,-81 339,-33 487,-33 487,-81"/>
<text text-anchor="start" x="347" y="-69.8" font-family="Helvetica,sans-Serif" font-size="9.00">__gnu_pbds::trie_prefix</text>
<text text-anchor="start" x="347" y="-59.8" font-family="Helvetica,sans-Serif" font-size="9.00">_search_node_update&lt; Node</text>
<text text-anchor="start" x="347" y="-49.8" font-family="Helvetica,sans-Serif" font-size="9.00">_CItr, Node_Itr, _ATraits,</text>
<text text-anchor="middle" x="413" y="-39.8" font-family="Helvetica,sans-Serif" font-size="9.00"> _Alloc &gt;</text>
</a>
</g>
</g>
<!-- Node1&#45;&gt;Node3 -->
<g id="edge123_Node000001_Node000003" class="edge">
<title>Node1&#45;&gt;Node3</title>
<g id="a_edge123_Node000001_Node000003"><a xlink:title=" ">
<path fill="none" stroke="#8b1a1a" d="M298.58,-77.85C311.62,-75.45 325.39,-72.92 338.65,-70.48"/>
<polygon fill="#8b1a1a" stroke="#8b1a1a" points="298.02,-74.4 288.82,-79.65 299.29,-81.28 298.02,-74.4"/>
</a>
</g>
</g>
</g>
</svg>
