<?xml version="1.0" encoding="UTF-8" standalone="no"?>
<!DOCTYPE svg PUBLIC "-//W3C//DTD SVG 1.1//EN"
 "http://www.w3.org/Graphics/SVG/1.1/DTD/svg11.dtd">
<!-- Generated by graphviz version 7.1.0 (0)
 -->
<!-- Title: Graphical Class Hierarchy Pages: 1 -->
<svg width="309pt" height="102pt"
 viewBox="0.00 0.00 309.00 102.00" xmlns="http://www.w3.org/2000/svg" xmlns:xlink="http://www.w3.org/1999/xlink">
<g id="graph0" class="graph" transform="scale(1 1) rotate(0) translate(4 98)">
<title>Graphical Class Hierarchy</title>
<!-- Node0 -->
<g id="Node000000" class="node">
<title>Node0</title>
<g id="a_Node000000"><a xlink:href="a12713.html" target="_top" xlink:title=" ">
<polygon fill="white" stroke="#666666" points="140,-66 0,-66 0,-28 140,-28 140,-66"/>
<text text-anchor="start" x="8" y="-54.8" font-family="Helvetica,sans-Serif" font-size="9.00">__gnu_pbds::basic_branch</text>
<text text-anchor="start" x="8" y="-44.8" font-family="Helvetica,sans-Serif" font-size="9.00">&lt; Key, Mapped, Tag, Node</text>
<text text-anchor="middle" x="70" y="-34.8" font-family="Helvetica,sans-Serif" font-size="9.00">_Update, Policy_Tl, _Alloc &gt;</text>
</a>
</g>
</g>
<!-- Node1 -->
<g id="Node000001" class="node">
<title>Node1</title>
<g id="a_Node000001"><a xlink:href="a12717.html" target="_top" xlink:title=" ">
<polygon fill="white" stroke="#666666" points="301,-94 176,-94 176,-56 301,-56 301,-94"/>
<text text-anchor="start" x="184" y="-82.8" font-family="Helvetica,sans-Serif" font-size="9.00">__gnu_pbds::tree&lt; Key,</text>
<text text-anchor="start" x="184" y="-72.8" font-family="Helvetica,sans-Serif" font-size="9.00"> Mapped, Cmp_Fn, Tag,</text>
<text text-anchor="middle" x="238.5" y="-62.8" font-family="Helvetica,sans-Serif" font-size="9.00"> Node_Update, _Alloc &gt;</text>
</a>
</g>
</g>
<!-- Node0&#45;&gt;Node1 -->
<g id="edge87_Node000000_Node000001" class="edge">
<title>Node0&#45;&gt;Node1</title>
<g id="a_edge87_Node000000_Node000001"><a xlink:title=" ">
<path fill="none" stroke="#63b8ff" d="M151.3,-60.5C159.51,-61.89 167.76,-63.27 175.73,-64.61"/>
<polygon fill="#63b8ff" stroke="#63b8ff" points="152.1,-57.09 141.66,-58.88 150.94,-63.99 152.1,-57.09"/>
</a>
</g>
</g>
<!-- Node2 -->
<g id="Node000002" class="node">
<title>Node2</title>
<g id="a_Node000002"><a xlink:href="a12721.html" target="_top" xlink:title=" ">
<polygon fill="white" stroke="#666666" points="299.5,-38 177.5,-38 177.5,0 299.5,0 299.5,-38"/>
<text text-anchor="start" x="185.5" y="-26.8" font-family="Helvetica,sans-Serif" font-size="9.00">__gnu_pbds::trie&lt; Key,</text>
<text text-anchor="start" x="185.5" y="-16.8" font-family="Helvetica,sans-Serif" font-size="9.00"> Mapped, _ATraits, Tag,</text>
<text text-anchor="middle" x="238.5" y="-6.8" font-family="Helvetica,sans-Serif" font-size="9.00"> Node_Update, _Alloc &gt;</text>
</a>
</g>
</g>
<!-- Node0&#45;&gt;Node2 -->
<g id="edge88_Node000000_Node000002" class="edge">
<title>Node0&#45;&gt;Node2</title>
<g id="a_edge88_Node000000_Node000002"><a xlink:title=" ">
<path fill="none" stroke="#63b8ff" d="M151.44,-33.47C160.06,-32.02 168.71,-30.57 177.04,-29.17"/>
<polygon fill="#63b8ff" stroke="#63b8ff" points="150.94,-30.01 141.66,-35.12 152.1,-36.91 150.94,-30.01"/>
</a>
</g>
</g>
</g>
</svg>
