<?xml version="1.0" encoding="UTF-8" standalone="no"?>
<!DOCTYPE svg PUBLIC "-//W3C//DTD SVG 1.1//EN"
 "http://www.w3.org/Graphics/SVG/1.1/DTD/svg11.dtd">
<!-- Generated by graphviz version 7.1.0 (0)
 -->
<!-- Title: Graphical Class Hierarchy Pages: 1 -->
<svg width="366pt" height="92pt"
 viewBox="0.00 0.00 366.00 92.00" xmlns="http://www.w3.org/2000/svg" xmlns:xlink="http://www.w3.org/1999/xlink">
<g id="graph0" class="graph" transform="scale(1 1) rotate(0) translate(4 88)">
<title>Graphical Class Hierarchy</title>
<!-- Node0 -->
<g id="Node000000" class="node">
<title>Node0</title>
<g id="a_Node000000"><a xlink:href="a08037.html" target="_top" xlink:title=" ">
<polygon fill="white" stroke="#666666" points="169,-58 0,-58 0,-20 169,-20 169,-58"/>
<text text-anchor="start" x="8" y="-46.8" font-family="Helvetica,sans-Serif" font-size="9.00">std::unary_function</text>
<text text-anchor="start" x="8" y="-36.8" font-family="Helvetica,sans-Serif" font-size="9.00">&lt; _Operation2::argument</text>
<text text-anchor="middle" x="84.5" y="-26.8" font-family="Helvetica,sans-Serif" font-size="9.00">_type, _Operation1::result_type &gt;</text>
</a>
</g>
</g>
<!-- Node1 -->
<g id="Node000001" class="node">
<title>Node1</title>
<g id="a_Node000001"><a xlink:href="a09717.html" target="_top" xlink:title="An SGI extension .">
<polygon fill="white" stroke="#666666" points="354.5,-84 208.5,-84 208.5,-46 354.5,-46 354.5,-84"/>
<text text-anchor="start" x="216.5" y="-72.8" font-family="Helvetica,sans-Serif" font-size="9.00">__gnu_cxx::binary_compose</text>
<text text-anchor="start" x="216.5" y="-62.8" font-family="Helvetica,sans-Serif" font-size="9.00">&lt; _Operation1, _Operation2,</text>
<text text-anchor="middle" x="281.5" y="-52.8" font-family="Helvetica,sans-Serif" font-size="9.00"> _Operation3 &gt;</text>
</a>
</g>
</g>
<!-- Node0&#45;&gt;Node1 -->
<g id="edge457_Node000000_Node000001" class="edge">
<title>Node0&#45;&gt;Node1</title>
<g id="a_edge457_Node000000_Node000001"><a xlink:title=" ">
<path fill="none" stroke="#63b8ff" d="M180.58,-51.68C189.83,-52.91 199.11,-54.15 208.09,-55.35"/>
<polygon fill="#63b8ff" stroke="#63b8ff" points="181.2,-48.23 170.83,-50.38 180.28,-55.17 181.2,-48.23"/>
</a>
</g>
</g>
<!-- Node2 -->
<g id="Node000002" class="node">
<title>Node2</title>
<g id="a_Node000002"><a xlink:href="a09713.html" target="_top" xlink:title="An SGI extension .">
<polygon fill="white" stroke="#666666" points="358,-28 205,-28 205,0 358,0 358,-28"/>
<text text-anchor="start" x="213" y="-16.8" font-family="Helvetica,sans-Serif" font-size="9.00">__gnu_cxx::unary_compose</text>
<text text-anchor="middle" x="281.5" y="-6.8" font-family="Helvetica,sans-Serif" font-size="9.00">&lt; _Operation1, _Operation2 &gt;</text>
</a>
</g>
</g>
<!-- Node0&#45;&gt;Node2 -->
<g id="edge458_Node000000_Node000002" class="edge">
<title>Node0&#45;&gt;Node2</title>
<g id="a_edge458_Node000000_Node000002"><a xlink:title=" ">
<path fill="none" stroke="#63b8ff" d="M180.7,-26.8C188.76,-25.76 196.85,-24.72 204.74,-23.71"/>
<polygon fill="#63b8ff" stroke="#63b8ff" points="180.3,-23.32 170.83,-28.06 181.19,-30.26 180.3,-23.32"/>
</a>
</g>
</g>
</g>
</svg>
