<?xml version="1.0" encoding="UTF-8" standalone="no"?>
<!DOCTYPE svg PUBLIC "-//W3C//DTD SVG 1.1//EN"
 "http://www.w3.org/Graphics/SVG/1.1/DTD/svg11.dtd">
<!-- Generated by graphviz version 7.1.0 (0)
 -->
<!-- Title: Graphical Class Hierarchy Pages: 1 -->
<svg width="385pt" height="663pt"
 viewBox="0.00 0.00 385.00 663.00" xmlns="http://www.w3.org/2000/svg" xmlns:xlink="http://www.w3.org/1999/xlink">
<g id="graph0" class="graph" transform="scale(1 1) rotate(0) translate(4 659)">
<title>Graphical Class Hierarchy</title>
<!-- Node0 -->
<g id="Node000000" class="node">
<title>Node0</title>
<g id="a_Node000000"><a xlink:href="a09501.html" target="_top" xlink:title="Safe class dealing with some allocator dependent operations.">
<polygon fill="white" stroke="#666666" points="182,-359 0,-359 0,-311 182,-311 182,-359"/>
<text text-anchor="start" x="8" y="-347.8" font-family="Helvetica,sans-Serif" font-size="9.00">__gnu_debug::_Safe</text>
<text text-anchor="start" x="8" y="-337.8" font-family="Helvetica,sans-Serif" font-size="9.00">_container&lt; _SafeContainer,</text>
<text text-anchor="start" x="8" y="-327.8" font-family="Helvetica,sans-Serif" font-size="9.00"> _Alloc, _SafeBase, _IsCxx11Allocator</text>
<text text-anchor="middle" x="91" y="-317.8" font-family="Helvetica,sans-Serif" font-size="9.00">Aware &gt;</text>
</a>
</g>
</g>
<!-- Node1 -->
<g id="Node000001" class="node">
<title>Node1</title>
<g id="a_Node000001"><a xlink:href="a09633.html" target="_top" xlink:title="Class std::basic_string with safety/checking/debug instrumentation.">
<polygon fill="white" stroke="#666666" points="360,-655 235,-655 235,-617 360,-617 360,-655"/>
<text text-anchor="start" x="243" y="-643.8" font-family="Helvetica,sans-Serif" font-size="9.00">__gnu_debug::basic</text>
<text text-anchor="start" x="243" y="-633.8" font-family="Helvetica,sans-Serif" font-size="9.00">_string&lt; _CharT, _Traits,</text>
<text text-anchor="middle" x="297.5" y="-623.8" font-family="Helvetica,sans-Serif" font-size="9.00"> _Allocator &gt;</text>
</a>
</g>
</g>
<!-- Node0&#45;&gt;Node1 -->
<g id="edge21_Node000000_Node000001" class="edge">
<title>Node0&#45;&gt;Node1</title>
<g id="a_edge21_Node000000_Node000001"><a xlink:title=" ">
<path fill="none" stroke="#63b8ff" d="M99,-370.22C112.23,-427.85 146.27,-542.43 218,-608 222.91,-612.49 228.59,-616.27 234.61,-619.45"/>
<polygon fill="#63b8ff" stroke="#63b8ff" points="102.45,-369.64 96.88,-360.63 95.62,-371.15 102.45,-369.64"/>
</a>
</g>
</g>
<!-- Node3 -->
<g id="Node000003" class="node">
<title>Node3</title>
<g id="a_Node000003"><a xlink:href="a09585.html" target="_top" xlink:title="Class std::deque with safety/checking/debug instrumentation.">
<polygon fill="white" stroke="#666666" points="352.5,-599 242.5,-599 242.5,-571 352.5,-571 352.5,-599"/>
<text text-anchor="start" x="250.5" y="-587.8" font-family="Helvetica,sans-Serif" font-size="9.00">std::__debug::deque</text>
<text text-anchor="middle" x="297.5" y="-577.8" font-family="Helvetica,sans-Serif" font-size="9.00">&lt; _Tp, _Allocator &gt;</text>
</a>
</g>
</g>
<!-- Node0&#45;&gt;Node3 -->
<g id="edge22_Node000000_Node000003" class="edge">
<title>Node0&#45;&gt;Node3</title>
<g id="a_edge22_Node000000_Node000003"><a xlink:title=" ">
<path fill="none" stroke="#63b8ff" d="M102.1,-370.15C118.28,-420.18 154.81,-511.47 218,-562 225.1,-567.68 233.55,-571.95 242.24,-575.17"/>
<polygon fill="#63b8ff" stroke="#63b8ff" points="105.46,-369.19 99.14,-360.69 98.78,-371.28 105.46,-369.19"/>
</a>
</g>
</g>
<!-- Node4 -->
<g id="Node000004" class="node">
<title>Node4</title>
<g id="a_Node000004"><a xlink:href="a09593.html" target="_top" xlink:title="Class std::forward_list with safety/checking/debug instrumentation.">
<polygon fill="white" stroke="#666666" points="355.5,-553 239.5,-553 239.5,-525 355.5,-525 355.5,-553"/>
<text text-anchor="start" x="247.5" y="-541.8" font-family="Helvetica,sans-Serif" font-size="9.00">std::__debug::forward</text>
<text text-anchor="middle" x="297.5" y="-531.8" font-family="Helvetica,sans-Serif" font-size="9.00">_list&lt; _Tp, _Alloc &gt;</text>
</a>
</g>
</g>
<!-- Node0&#45;&gt;Node4 -->
<g id="edge23_Node000000_Node000004" class="edge">
<title>Node0&#45;&gt;Node4</title>
<g id="a_edge23_Node000000_Node000004"><a xlink:title=" ">
<path fill="none" stroke="#63b8ff" d="M107.28,-369.81C127.02,-410.78 165.23,-478.02 218,-516 224.34,-520.56 231.58,-524.23 239.04,-527.17"/>
<polygon fill="#63b8ff" stroke="#63b8ff" points="110.5,-368.43 103.08,-360.87 104.16,-371.41 110.5,-368.43"/>
</a>
</g>
</g>
<!-- Node5 -->
<g id="Node000005" class="node">
<title>Node5</title>
<g id="a_Node000005"><a xlink:href="a09617.html" target="_top" xlink:title="Class std::list with safety/checking/debug instrumentation.">
<polygon fill="white" stroke="#666666" points="349,-507 246,-507 246,-479 349,-479 349,-507"/>
<text text-anchor="start" x="254" y="-495.8" font-family="Helvetica,sans-Serif" font-size="9.00">std::__debug::list</text>
<text text-anchor="middle" x="297.5" y="-485.8" font-family="Helvetica,sans-Serif" font-size="9.00">&lt; _Tp, _Allocator &gt;</text>
</a>
</g>
</g>
<!-- Node0&#45;&gt;Node5 -->
<g id="edge24_Node000000_Node000005" class="edge">
<title>Node0&#45;&gt;Node5</title>
<g id="a_edge24_Node000000_Node000005"><a xlink:title=" ">
<path fill="none" stroke="#63b8ff" d="M115.03,-368.5C137.79,-399.18 175.34,-443.7 218,-470 226.46,-475.22 236.17,-479.3 245.8,-482.48"/>
<polygon fill="#63b8ff" stroke="#63b8ff" points="118.05,-366.7 109.34,-360.68 112.39,-370.82 118.05,-366.7"/>
</a>
</g>
</g>
<!-- Node6 -->
<g id="Node000006" class="node">
<title>Node6</title>
<g id="a_Node000006"><a xlink:href="a09469.html" target="_top" xlink:title="Class std::map with safety/checking/debug instrumentation.">
<polygon fill="white" stroke="#666666" points="355.5,-461 239.5,-461 239.5,-423 355.5,-423 355.5,-461"/>
<text text-anchor="start" x="247.5" y="-449.8" font-family="Helvetica,sans-Serif" font-size="9.00">std::__debug::map&lt;</text>
<text text-anchor="start" x="247.5" y="-439.8" font-family="Helvetica,sans-Serif" font-size="9.00"> _Key, _Tp, _Compare,</text>
<text text-anchor="middle" x="297.5" y="-429.8" font-family="Helvetica,sans-Serif" font-size="9.00"> _Allocator &gt;</text>
</a>
</g>
</g>
<!-- Node0&#45;&gt;Node6 -->
<g id="edge25_Node000000_Node000006" class="edge">
<title>Node0&#45;&gt;Node6</title>
<g id="a_edge25_Node000000_Node000006"><a xlink:title=" ">
<path fill="none" stroke="#63b8ff" d="M135.78,-365.75C159.41,-381.49 189.51,-400.19 218,-414 224.77,-417.28 232.03,-420.39 239.3,-423.25"/>
<polygon fill="#63b8ff" stroke="#63b8ff" points="137.9,-362.96 127.65,-360.28 133.99,-368.77 137.9,-362.96"/>
</a>
</g>
</g>
<!-- Node7 -->
<g id="Node000007" class="node">
<title>Node7</title>
<g id="a_Node000007"><a xlink:href="a09477.html" target="_top" xlink:title="Class std::multimap with safety/checking/debug instrumentation.">
<polygon fill="white" stroke="#666666" points="360,-405 235,-405 235,-367 360,-367 360,-405"/>
<text text-anchor="start" x="243" y="-393.8" font-family="Helvetica,sans-Serif" font-size="9.00">std::__debug::multimap</text>
<text text-anchor="start" x="243" y="-383.8" font-family="Helvetica,sans-Serif" font-size="9.00">&lt; _Key, _Tp, _Compare,</text>
<text text-anchor="middle" x="297.5" y="-373.8" font-family="Helvetica,sans-Serif" font-size="9.00"> _Allocator &gt;</text>
</a>
</g>
</g>
<!-- Node0&#45;&gt;Node7 -->
<g id="edge26_Node000000_Node000007" class="edge">
<title>Node0&#45;&gt;Node7</title>
<g id="a_edge26_Node000000_Node000007"><a xlink:title=" ">
<path fill="none" stroke="#63b8ff" d="M193.09,-360.21C207.25,-363.74 221.43,-367.28 234.56,-370.55"/>
<polygon fill="#63b8ff" stroke="#63b8ff" points="194.31,-356.91 183.76,-357.88 192.62,-363.7 194.31,-356.91"/>
</a>
</g>
</g>
<!-- Node8 -->
<g id="Node000008" class="node">
<title>Node8</title>
<g id="a_Node000008"><a xlink:href="a09485.html" target="_top" xlink:title="Class std::multiset with safety/checking/debug instrumentation.">
<polygon fill="white" stroke="#666666" points="377,-349 218,-349 218,-321 377,-321 377,-349"/>
<text text-anchor="start" x="226" y="-337.8" font-family="Helvetica,sans-Serif" font-size="9.00">std::__debug::multiset</text>
<text text-anchor="middle" x="297.5" y="-327.8" font-family="Helvetica,sans-Serif" font-size="9.00">&lt; _Key, _Compare, _Allocator &gt;</text>
</a>
</g>
</g>
<!-- Node0&#45;&gt;Node8 -->
<g id="edge27_Node000000_Node000008" class="edge">
<title>Node0&#45;&gt;Node8</title>
<g id="a_edge27_Node000000_Node000008"><a xlink:title=" ">
<path fill="none" stroke="#63b8ff" d="M193.65,-335C201.7,-335 209.75,-335 217.61,-335"/>
<polygon fill="#63b8ff" stroke="#63b8ff" points="193.81,-331.5 183.81,-335 193.81,-338.5 193.81,-331.5"/>
</a>
</g>
</g>
<!-- Node9 -->
<g id="Node000009" class="node">
<title>Node9</title>
<g id="a_Node000009"><a xlink:href="a09569.html" target="_top" xlink:title="Class std::set with safety/checking/debug instrumentation.">
<polygon fill="white" stroke="#666666" points="373.5,-303 221.5,-303 221.5,-275 373.5,-275 373.5,-303"/>
<text text-anchor="start" x="229.5" y="-291.8" font-family="Helvetica,sans-Serif" font-size="9.00">std::__debug::set&lt;</text>
<text text-anchor="middle" x="297.5" y="-281.8" font-family="Helvetica,sans-Serif" font-size="9.00"> _Key, _Compare, _Allocator &gt;</text>
</a>
</g>
</g>
<!-- Node0&#45;&gt;Node9 -->
<g id="edge28_Node000000_Node000009" class="edge">
<title>Node0&#45;&gt;Node9</title>
<g id="a_edge28_Node000000_Node000009"><a xlink:title=" ">
<path fill="none" stroke="#63b8ff" d="M193.36,-312.2C206.56,-309.23 219.79,-306.26 232.15,-303.47"/>
<polygon fill="#63b8ff" stroke="#63b8ff" points="192.76,-308.75 183.77,-314.36 194.29,-315.58 192.76,-308.75"/>
</a>
</g>
</g>
<!-- Node10 -->
<g id="Node000010" class="node">
<title>Node10</title>
<g id="a_Node000010"><a xlink:href="a09649.html" target="_top" xlink:title="Class std::unordered_map with safety/checking/debug instrumentation.">
<polygon fill="white" stroke="#666666" points="363,-257 232,-257 232,-219 363,-219 363,-257"/>
<text text-anchor="start" x="240" y="-245.8" font-family="Helvetica,sans-Serif" font-size="9.00">std::__debug::unordered</text>
<text text-anchor="start" x="240" y="-235.8" font-family="Helvetica,sans-Serif" font-size="9.00">_map&lt; _Key, _Tp, _Hash,</text>
<text text-anchor="middle" x="297.5" y="-225.8" font-family="Helvetica,sans-Serif" font-size="9.00"> _Pred, _Alloc &gt;</text>
</a>
</g>
</g>
<!-- Node0&#45;&gt;Node10 -->
<g id="edge29_Node000000_Node000010" class="edge">
<title>Node0&#45;&gt;Node10</title>
<g id="a_edge29_Node000000_Node000010"><a xlink:title=" ">
<path fill="none" stroke="#63b8ff" d="M142.34,-305.05C165.03,-292.17 192.43,-277.47 218,-266 224.6,-263.04 231.62,-260.16 238.64,-257.46"/>
<polygon fill="#63b8ff" stroke="#63b8ff" points="140.84,-301.87 133.9,-309.88 144.32,-307.94 140.84,-301.87"/>
</a>
</g>
</g>
<!-- Node11 -->
<g id="Node000011" class="node">
<title>Node11</title>
<g id="a_Node000011"><a xlink:href="a09653.html" target="_top" xlink:title="Class std::unordered_multimap with safety/checking/debug instrumentation.">
<polygon fill="white" stroke="#666666" points="361.5,-201 233.5,-201 233.5,-163 361.5,-163 361.5,-201"/>
<text text-anchor="start" x="241.5" y="-189.8" font-family="Helvetica,sans-Serif" font-size="9.00">std::__debug::unordered</text>
<text text-anchor="start" x="241.5" y="-179.8" font-family="Helvetica,sans-Serif" font-size="9.00">_multimap&lt; _Key, _Tp,</text>
<text text-anchor="middle" x="297.5" y="-169.8" font-family="Helvetica,sans-Serif" font-size="9.00"> _Hash, _Pred, _Alloc &gt;</text>
</a>
</g>
</g>
<!-- Node0&#45;&gt;Node11 -->
<g id="edge30_Node000000_Node000011" class="edge">
<title>Node0&#45;&gt;Node11</title>
<g id="a_edge30_Node000000_Node000011"><a xlink:title=" ">
<path fill="none" stroke="#63b8ff" d="M118.06,-302.01C141.58,-274.14 178.47,-234.89 218,-210 223.02,-206.84 228.45,-203.97 234.02,-201.39"/>
<polygon fill="#63b8ff" stroke="#63b8ff" points="115.56,-299.53 111.87,-309.46 120.95,-304 115.56,-299.53"/>
</a>
</g>
</g>
<!-- Node12 -->
<g id="Node000012" class="node">
<title>Node12</title>
<g id="a_Node000012"><a xlink:href="a09669.html" target="_top" xlink:title="Class std::unordered_multiset with safety/checking/debug instrumentation.">
<polygon fill="white" stroke="#666666" points="364.5,-145 230.5,-145 230.5,-107 364.5,-107 364.5,-145"/>
<text text-anchor="start" x="238.5" y="-133.8" font-family="Helvetica,sans-Serif" font-size="9.00">std::__debug::unordered</text>
<text text-anchor="start" x="238.5" y="-123.8" font-family="Helvetica,sans-Serif" font-size="9.00">_multiset&lt; _Value, _Hash,</text>
<text text-anchor="middle" x="297.5" y="-113.8" font-family="Helvetica,sans-Serif" font-size="9.00"> _Pred, _Alloc &gt;</text>
</a>
</g>
</g>
<!-- Node0&#45;&gt;Node12 -->
<g id="edge31_Node000000_Node000012" class="edge">
<title>Node0&#45;&gt;Node12</title>
<g id="a_edge31_Node000000_Node000012"><a xlink:title=" ">
<path fill="none" stroke="#63b8ff" d="M107.82,-300.37C127.98,-259.88 166.48,-193.38 218,-154 222.14,-150.84 226.67,-148.01 231.39,-145.49"/>
<polygon fill="#63b8ff" stroke="#63b8ff" points="104.75,-298.68 103.52,-309.21 111.05,-301.75 104.75,-298.68"/>
</a>
</g>
</g>
<!-- Node13 -->
<g id="Node000013" class="node">
<title>Node13</title>
<g id="a_Node000013"><a xlink:href="a09665.html" target="_top" xlink:title="Class std::unordered_set with safety/checking/debug instrumentation.">
<polygon fill="white" stroke="#666666" points="361.5,-89 233.5,-89 233.5,-51 361.5,-51 361.5,-89"/>
<text text-anchor="start" x="241.5" y="-77.8" font-family="Helvetica,sans-Serif" font-size="9.00">std::__debug::unordered</text>
<text text-anchor="start" x="241.5" y="-67.8" font-family="Helvetica,sans-Serif" font-size="9.00">_set&lt; _Value, _Hash, </text>
<text text-anchor="middle" x="297.5" y="-57.8" font-family="Helvetica,sans-Serif" font-size="9.00">_Pred, _Alloc &gt;</text>
</a>
</g>
</g>
<!-- Node0&#45;&gt;Node13 -->
<g id="edge32_Node000000_Node000013" class="edge">
<title>Node0&#45;&gt;Node13</title>
<g id="a_edge32_Node000000_Node000013"><a xlink:title=" ">
<path fill="none" stroke="#63b8ff" d="M101.72,-299.94C117.68,-248.59 154.23,-153.08 218,-98 222.6,-94.03 227.8,-90.61 233.29,-87.66"/>
<polygon fill="#63b8ff" stroke="#63b8ff" points="98.42,-298.76 98.88,-309.35 105.12,-300.78 98.42,-298.76"/>
</a>
</g>
</g>
<!-- Node14 -->
<g id="Node000014" class="node">
<title>Node14</title>
<g id="a_Node000014"><a xlink:href="a09681.html" target="_top" xlink:title="Class std::vector with safety/checking/debug instrumentation.">
<polygon fill="white" stroke="#666666" points="352.5,-33 242.5,-33 242.5,-5 352.5,-5 352.5,-33"/>
<text text-anchor="start" x="250.5" y="-21.8" font-family="Helvetica,sans-Serif" font-size="9.00">std::__debug::vector</text>
<text text-anchor="middle" x="297.5" y="-11.8" font-family="Helvetica,sans-Serif" font-size="9.00">&lt; _Tp, _Allocator &gt;</text>
</a>
</g>
</g>
<!-- Node0&#45;&gt;Node14 -->
<g id="edge33_Node000000_Node000014" class="edge">
<title>Node0&#45;&gt;Node14</title>
<g id="a_edge33_Node000000_Node000014"><a xlink:title=" ">
<path fill="none" stroke="#63b8ff" d="M97.22,-299.85C108.22,-238.42 139.53,-111.5 218,-42 224.91,-35.88 233.37,-31.38 242.15,-28.08"/>
<polygon fill="#63b8ff" stroke="#63b8ff" points="93.83,-298.94 95.6,-309.38 100.73,-300.11 93.83,-298.94"/>
</a>
</g>
</g>
<!-- Node15 -->
<g id="Node000015" class="node">
<title>Node15</title>
<g id="a_Node000015"><a xlink:href="a09685.html" target="_top" xlink:title="Base class for Debug Mode vector.">
<polygon fill="white" stroke="#666666" points="157,-38 25,-38 25,0 157,0 157,-38"/>
<text text-anchor="start" x="33" y="-26.8" font-family="Helvetica,sans-Serif" font-size="9.00">__gnu_debug::_Safe</text>
<text text-anchor="start" x="33" y="-16.8" font-family="Helvetica,sans-Serif" font-size="9.00">_vector&lt; _SafeSequence,</text>
<text text-anchor="middle" x="91" y="-6.8" font-family="Helvetica,sans-Serif" font-size="9.00"> _BaseSequence &gt;</text>
</a>
</g>
</g>
<!-- Node15&#45;&gt;Node14 -->
<g id="edge34_Node000015_Node000014" class="edge">
<title>Node15&#45;&gt;Node14</title>
<g id="a_edge34_Node000015_Node000014"><a xlink:title=" ">
<path fill="none" stroke="#63b8ff" d="M168.69,-19C193.11,-19 219.62,-19 242.12,-19"/>
<polygon fill="#63b8ff" stroke="#63b8ff" points="168.78,-15.5 158.78,-19 168.78,-22.5 168.78,-15.5"/>
</a>
</g>
</g>
<!-- Node2 -->
<g id="Node000002" class="node">
<title>Node2</title>
<g id="a_Node000002"><a xlink:href="a05505.html" target="_top" xlink:title="Managing sequences of characters and character&#45;like objects.">
<polygon fill="white" stroke="#666666" points="154,-650 28,-650 28,-622 154,-622 154,-650"/>
<text text-anchor="start" x="36" y="-638.8" font-family="Helvetica,sans-Serif" font-size="9.00">std::basic_string&lt;</text>
<text text-anchor="middle" x="91" y="-628.8" font-family="Helvetica,sans-Serif" font-size="9.00"> _CharT, _Traits, _Alloc &gt;</text>
</a>
</g>
</g>
<!-- Node2&#45;&gt;Node1 -->
<g id="edge35_Node000002_Node000001" class="edge">
<title>Node2&#45;&gt;Node1</title>
<g id="a_edge35_Node000002_Node000001"><a xlink:title=" ">
<path fill="none" stroke="#63b8ff" d="M165.74,-636C188.37,-636 213.03,-636 234.77,-636"/>
<polygon fill="#63b8ff" stroke="#63b8ff" points="165.98,-632.5 155.98,-636 165.98,-639.5 165.98,-632.5"/>
</a>
</g>
</g>
</g>
</svg>
