<?xml version="1.0" encoding="UTF-8" standalone="no"?>
<!DOCTYPE svg PUBLIC "-//W3C//DTD SVG 1.1//EN"
 "http://www.w3.org/Graphics/SVG/1.1/DTD/svg11.dtd">
<!-- Generated by graphviz version 7.1.0 (0)
 -->
<!-- Title: Graphical Class Hierarchy Pages: 1 -->
<svg width="736pt" height="470pt"
 viewBox="0.00 0.00 736.00 470.00" xmlns="http://www.w3.org/2000/svg" xmlns:xlink="http://www.w3.org/1999/xlink">
<g id="graph0" class="graph" transform="scale(1 1) rotate(0) translate(4 466)">
<title>Graphical Class Hierarchy</title>
<!-- Node0 -->
<g id="Node000000" class="node">
<title>Node0</title>
<g id="a_Node000000"><a xlink:href="a05973.html" target="_top" xlink:title="The base of the I/O class hierarchy.">
<polygon fill="white" stroke="#666666" points="74,-332 0,-332 0,-314 74,-314 74,-332"/>
<text text-anchor="middle" x="37" y="-320.8" font-family="Helvetica,sans-Serif" font-size="9.00">std::ios_base</text>
</a>
</g>
</g>
<!-- Node1 -->
<g id="Node000001" class="node">
<title>Node1</title>
<g id="a_Node000001"><a xlink:href="a02757.html" target="_top" xlink:title=" ">
<polygon fill="white" stroke="#666666" points="230,-383 120,-383 120,-355 230,-355 230,-383"/>
<text text-anchor="start" x="128" y="-371.8" font-family="Helvetica,sans-Serif" font-size="9.00">std::basic_ios&lt; char,</text>
<text text-anchor="middle" x="175" y="-361.8" font-family="Helvetica,sans-Serif" font-size="9.00"> _Traits &gt;</text>
</a>
</g>
</g>
<!-- Node0&#45;&gt;Node1 -->
<g id="edge413_Node000000_Node000001" class="edge">
<title>Node0&#45;&gt;Node1</title>
<g id="a_edge413_Node000000_Node000001"><a xlink:title=" ">
<path fill="none" stroke="#63b8ff" d="M76.55,-336.04C93.58,-341.8 113.68,-348.6 131.18,-354.52"/>
<polygon fill="#63b8ff" stroke="#63b8ff" points="77.88,-332.79 67.28,-332.9 75.63,-339.42 77.88,-332.79"/>
</a>
</g>
</g>
<!-- Node2 -->
<g id="Node000002" class="node">
<title>Node2</title>
<g id="a_Node000002"><a xlink:href="a02757.html" target="_top" xlink:title=" ">
<polygon fill="white" stroke="#666666" points="240,-337 110,-337 110,-309 240,-309 240,-337"/>
<text text-anchor="start" x="118" y="-325.8" font-family="Helvetica,sans-Serif" font-size="9.00">std::basic_ios&lt; _CharT,</text>
<text text-anchor="middle" x="175" y="-315.8" font-family="Helvetica,sans-Serif" font-size="9.00"> char_traits&lt; _CharT &gt; &gt;</text>
</a>
</g>
</g>
<!-- Node0&#45;&gt;Node2 -->
<g id="edge414_Node000000_Node000002" class="edge">
<title>Node0&#45;&gt;Node2</title>
<g id="a_edge414_Node000000_Node000002"><a xlink:title=" ">
<path fill="none" stroke="#63b8ff" d="M85.8,-323C93.51,-323 101.6,-323 109.62,-323"/>
<polygon fill="#63b8ff" stroke="#63b8ff" points="85.96,-319.5 75.96,-323 85.96,-326.5 85.96,-319.5"/>
</a>
</g>
</g>
<!-- Node3 -->
<g id="Node000003" class="node">
<title>Node3</title>
<g id="a_Node000003"><a xlink:href="a02757.html" target="_top" xlink:title="Template class basic_ios, virtual base class for all stream classes.">
<polygon fill="white" stroke="#666666" points="235.5,-291 114.5,-291 114.5,-263 235.5,-263 235.5,-291"/>
<text text-anchor="start" x="122.5" y="-279.8" font-family="Helvetica,sans-Serif" font-size="9.00">std::basic_ios&lt; _CharT,</text>
<text text-anchor="middle" x="175" y="-269.8" font-family="Helvetica,sans-Serif" font-size="9.00"> _Traits &gt;</text>
</a>
</g>
</g>
<!-- Node0&#45;&gt;Node3 -->
<g id="edge415_Node000000_Node000003" class="edge">
<title>Node0&#45;&gt;Node3</title>
<g id="a_edge415_Node000000_Node000003"><a xlink:title=" ">
<path fill="none" stroke="#63b8ff" d="M76.55,-309.96C93.58,-304.2 113.68,-297.4 131.18,-291.48"/>
<polygon fill="#63b8ff" stroke="#63b8ff" points="75.63,-306.58 67.28,-313.1 77.88,-313.21 75.63,-306.58"/>
</a>
</g>
</g>
<!-- Node4 -->
<g id="Node000004" class="node">
<title>Node4</title>
<g id="a_Node000004"><a xlink:href="a02765.html" target="_top" xlink:title=" ">
<polygon fill="white" stroke="#666666" points="381,-462 283,-462 283,-434 381,-434 381,-462"/>
<text text-anchor="start" x="291" y="-450.8" font-family="Helvetica,sans-Serif" font-size="9.00">std::basic_istream</text>
<text text-anchor="middle" x="332" y="-440.8" font-family="Helvetica,sans-Serif" font-size="9.00">&lt; char &gt;</text>
</a>
</g>
</g>
<!-- Node3&#45;&gt;Node4 -->
<g id="edge416_Node000003_Node000004" class="edge">
<title>Node3&#45;&gt;Node4</title>
<g id="a_edge416_Node000003_Node000004"><a xlink:title=" ">
<path fill="none" stroke="#63b8ff" d="M238.17,-298.16C238.8,-298.76 239.41,-299.37 240,-300 279.54,-342.18 237.55,-381.82 276,-425 278.96,-428.32 282.48,-431.18 286.28,-433.63"/>
<polygon fill="#63b8ff" stroke="#63b8ff" points="240.48,-295.52 230.41,-292.24 236.24,-301.09 240.48,-295.52"/>
</a>
</g>
</g>
<!-- Node5 -->
<g id="Node000005" class="node">
<title>Node5</title>
<g id="a_Node000005"><a xlink:href="a02765.html" target="_top" xlink:title=" ">
<polygon fill="white" stroke="#666666" points="381,-416 283,-416 283,-388 381,-388 381,-416"/>
<text text-anchor="start" x="291" y="-404.8" font-family="Helvetica,sans-Serif" font-size="9.00">std::basic_istream</text>
<text text-anchor="middle" x="332" y="-394.8" font-family="Helvetica,sans-Serif" font-size="9.00">&lt; char, _Traits &gt;</text>
</a>
</g>
</g>
<!-- Node3&#45;&gt;Node5 -->
<g id="edge417_Node000003_Node000005" class="edge">
<title>Node3&#45;&gt;Node5</title>
<g id="a_edge417_Node000003_Node000005"><a xlink:title=" ">
<path fill="none" stroke="#63b8ff" d="M237.59,-297.91C238.42,-298.59 239.22,-299.28 240,-300 268.39,-326.13 248.29,-352.15 276,-379 279.42,-382.31 283.39,-385.18 287.59,-387.65"/>
<polygon fill="#63b8ff" stroke="#63b8ff" points="239.57,-295.02 229.32,-292.33 235.65,-300.82 239.57,-295.02"/>
</a>
</g>
</g>
<!-- Node6 -->
<g id="Node000006" class="node">
<title>Node6</title>
<g id="a_Node000006"><a xlink:href="a02765.html" target="_top" xlink:title=" ">
<polygon fill="white" stroke="#666666" points="388,-370 276,-370 276,-332 388,-332 388,-370"/>
<text text-anchor="start" x="284" y="-358.8" font-family="Helvetica,sans-Serif" font-size="9.00">std::basic_istream</text>
<text text-anchor="start" x="284" y="-348.8" font-family="Helvetica,sans-Serif" font-size="9.00">&lt; _CharT, char_traits</text>
<text text-anchor="middle" x="332" y="-338.8" font-family="Helvetica,sans-Serif" font-size="9.00">&lt; _CharT &gt; &gt;</text>
</a>
</g>
</g>
<!-- Node3&#45;&gt;Node6 -->
<g id="edge418_Node000003_Node000006" class="edge">
<title>Node3&#45;&gt;Node6</title>
<g id="a_edge418_Node000003_Node000006"><a xlink:title=" ">
<path fill="none" stroke="#63b8ff" d="M230.62,-295.68C233.82,-297.07 236.97,-298.51 240,-300 257.04,-308.37 259.52,-313.57 276,-323 281.02,-325.87 286.37,-328.78 291.69,-331.58"/>
<polygon fill="#63b8ff" stroke="#63b8ff" points="232.24,-292.57 221.66,-292.01 229.59,-299.04 232.24,-292.57"/>
</a>
</g>
</g>
<!-- Node7 -->
<g id="Node000007" class="node">
<title>Node7</title>
<g id="a_Node000007"><a xlink:href="a02769.html" target="_top" xlink:title=" ">
<polygon fill="white" stroke="#666666" points="382.5,-314 281.5,-314 281.5,-286 382.5,-286 382.5,-314"/>
<text text-anchor="start" x="289.5" y="-302.8" font-family="Helvetica,sans-Serif" font-size="9.00">std::basic_ostream</text>
<text text-anchor="middle" x="332" y="-292.8" font-family="Helvetica,sans-Serif" font-size="9.00">&lt; char, _Traits &gt;</text>
</a>
</g>
</g>
<!-- Node3&#45;&gt;Node7 -->
<g id="edge419_Node000003_Node000007" class="edge">
<title>Node3&#45;&gt;Node7</title>
<g id="a_edge419_Node000003_Node000007"><a xlink:title=" ">
<path fill="none" stroke="#63b8ff" d="M247.31,-287.58C258.79,-289.28 270.45,-291.02 281.28,-292.62"/>
<polygon fill="#63b8ff" stroke="#63b8ff" points="247.83,-284.12 237.42,-286.11 246.8,-291.04 247.83,-284.12"/>
</a>
</g>
</g>
<!-- Node8 -->
<g id="Node000008" class="node">
<title>Node8</title>
<g id="a_Node000008"><a xlink:href="a02769.html" target="_top" xlink:title=" ">
<polygon fill="white" stroke="#666666" points="382.5,-268 281.5,-268 281.5,-240 382.5,-240 382.5,-268"/>
<text text-anchor="start" x="289.5" y="-256.8" font-family="Helvetica,sans-Serif" font-size="9.00">std::basic_ostream</text>
<text text-anchor="middle" x="332" y="-246.8" font-family="Helvetica,sans-Serif" font-size="9.00">&lt; char &gt;</text>
</a>
</g>
</g>
<!-- Node3&#45;&gt;Node8 -->
<g id="edge420_Node000003_Node000008" class="edge">
<title>Node3&#45;&gt;Node8</title>
<g id="a_edge420_Node000003_Node000008"><a xlink:title=" ">
<path fill="none" stroke="#63b8ff" d="M247.31,-266.42C258.79,-264.72 270.45,-262.98 281.28,-261.38"/>
<polygon fill="#63b8ff" stroke="#63b8ff" points="246.8,-262.96 237.42,-267.89 247.83,-269.88 246.8,-262.96"/>
</a>
</g>
</g>
<!-- Node9 -->
<g id="Node000009" class="node">
<title>Node9</title>
<g id="a_Node000009"><a xlink:href="a02769.html" target="_top" xlink:title=" ">
<polygon fill="white" stroke="#666666" points="388,-222 276,-222 276,-184 388,-184 388,-222"/>
<text text-anchor="start" x="284" y="-210.8" font-family="Helvetica,sans-Serif" font-size="9.00">std::basic_ostream</text>
<text text-anchor="start" x="284" y="-200.8" font-family="Helvetica,sans-Serif" font-size="9.00">&lt; _CharT, char_traits</text>
<text text-anchor="middle" x="332" y="-190.8" font-family="Helvetica,sans-Serif" font-size="9.00">&lt; _CharT &gt; &gt;</text>
</a>
</g>
</g>
<!-- Node3&#45;&gt;Node9 -->
<g id="edge421_Node000003_Node000009" class="edge">
<title>Node3&#45;&gt;Node9</title>
<g id="a_edge421_Node000003_Node000009"><a xlink:title=" ">
<path fill="none" stroke="#63b8ff" d="M216.59,-257.62C239.3,-246.78 267.53,-233.3 290.26,-222.45"/>
<polygon fill="#63b8ff" stroke="#63b8ff" points="215.14,-254.44 207.62,-261.9 218.15,-260.75 215.14,-254.44"/>
</a>
</g>
</g>
<!-- Node10 -->
<g id="Node000010" class="node">
<title>Node10</title>
<g id="a_Node000010"><a xlink:href="a02765.html" target="_top" xlink:title="Template class basic_istream.">
<polygon fill="white" stroke="#666666" points="383,-120 281,-120 281,-92 383,-92 383,-120"/>
<text text-anchor="start" x="289" y="-108.8" font-family="Helvetica,sans-Serif" font-size="9.00">std::basic_istream</text>
<text text-anchor="middle" x="332" y="-98.8" font-family="Helvetica,sans-Serif" font-size="9.00">&lt; _CharT, _Traits &gt;</text>
</a>
</g>
</g>
<!-- Node3&#45;&gt;Node10 -->
<g id="edge422_Node000003_Node000010" class="edge">
<title>Node3&#45;&gt;Node10</title>
<g id="a_edge422_Node000003_Node000010"><a xlink:title=" ">
<path fill="none" stroke="#63b8ff" d="M187,-252.44C202.59,-220.13 233.94,-163.45 276,-129 279.92,-125.79 284.36,-122.96 288.97,-120.49"/>
<polygon fill="#63b8ff" stroke="#63b8ff" points="183.88,-250.86 182.8,-261.4 190.21,-253.83 183.88,-250.86"/>
</a>
</g>
</g>
<!-- Node12 -->
<g id="Node000012" class="node">
<title>Node12</title>
<g id="a_Node000012"><a xlink:href="a02769.html" target="_top" xlink:title="Template class basic_ostream.">
<polygon fill="white" stroke="#666666" points="383,-166 281,-166 281,-138 383,-138 383,-166"/>
<text text-anchor="start" x="289" y="-154.8" font-family="Helvetica,sans-Serif" font-size="9.00">std::basic_ostream</text>
<text text-anchor="middle" x="332" y="-144.8" font-family="Helvetica,sans-Serif" font-size="9.00">&lt; _CharT, _Traits &gt;</text>
</a>
</g>
</g>
<!-- Node3&#45;&gt;Node12 -->
<g id="edge429_Node000003_Node000012" class="edge">
<title>Node3&#45;&gt;Node12</title>
<g id="a_edge429_Node000003_Node000012"><a xlink:title=" ">
<path fill="none" stroke="#63b8ff" d="M194.05,-253.8C212.59,-231.22 243.31,-197.16 276,-175 280.71,-171.81 285.94,-168.92 291.24,-166.36"/>
<polygon fill="#63b8ff" stroke="#63b8ff" points="191.37,-251.54 187.82,-261.53 196.82,-255.94 191.37,-251.54"/>
</a>
</g>
</g>
<!-- Node11 -->
<g id="Node000011" class="node">
<title>Node11</title>
<g id="a_Node000011"><a xlink:href="a02773.html" target="_top" xlink:title=" ">
<polygon fill="white" stroke="#666666" points="543,-166 439,-166 439,-138 543,-138 543,-166"/>
<text text-anchor="start" x="447" y="-154.8" font-family="Helvetica,sans-Serif" font-size="9.00">std::basic_iostream</text>
<text text-anchor="middle" x="491" y="-144.8" font-family="Helvetica,sans-Serif" font-size="9.00">&lt; char &gt;</text>
</a>
</g>
</g>
<!-- Node10&#45;&gt;Node11 -->
<g id="edge423_Node000010_Node000011" class="edge">
<title>Node10&#45;&gt;Node11</title>
<g id="a_edge423_Node000010_Node000011"><a xlink:title=" ">
<path fill="none" stroke="#63b8ff" d="M392.95,-123.57C408.71,-128.18 425.53,-133.11 440.66,-137.54"/>
<polygon fill="#63b8ff" stroke="#63b8ff" points="394.28,-120.31 383.7,-120.85 392.31,-127.02 394.28,-120.31"/>
</a>
</g>
</g>
<!-- Node18 -->
<g id="Node000018" class="node">
<title>Node18</title>
<g id="a_Node000018"><a xlink:href="a02493.html" target="_top" xlink:title="Controlling input for files.">
<polygon fill="white" stroke="#666666" points="542,-74 440,-74 440,-46 542,-46 542,-74"/>
<text text-anchor="start" x="448" y="-62.8" font-family="Helvetica,sans-Serif" font-size="9.00">std::basic_ifstream</text>
<text text-anchor="middle" x="491" y="-52.8" font-family="Helvetica,sans-Serif" font-size="9.00">&lt; _CharT, _Traits &gt;</text>
</a>
</g>
</g>
<!-- Node10&#45;&gt;Node18 -->
<g id="edge424_Node000010_Node000018" class="edge">
<title>Node10&#45;&gt;Node18</title>
<g id="a_edge424_Node000010_Node000018"><a xlink:title=" ">
<path fill="none" stroke="#63b8ff" d="M392.95,-88.43C408.71,-83.82 425.53,-78.89 440.66,-74.46"/>
<polygon fill="#63b8ff" stroke="#63b8ff" points="392.31,-84.98 383.7,-91.15 394.28,-91.69 392.31,-84.98"/>
</a>
</g>
</g>
<!-- Node13 -->
<g id="Node000013" class="node">
<title>Node13</title>
<g id="a_Node000013"><a xlink:href="a02773.html" target="_top" xlink:title="Template class basic_iostream.">
<polygon fill="white" stroke="#666666" points="543,-120 439,-120 439,-92 543,-92 543,-120"/>
<text text-anchor="start" x="447" y="-108.8" font-family="Helvetica,sans-Serif" font-size="9.00">std::basic_iostream</text>
<text text-anchor="middle" x="491" y="-98.8" font-family="Helvetica,sans-Serif" font-size="9.00">&lt; _CharT, _Traits &gt;</text>
</a>
</g>
</g>
<!-- Node10&#45;&gt;Node13 -->
<g id="edge425_Node000010_Node000013" class="edge">
<title>Node10&#45;&gt;Node13</title>
<g id="a_edge425_Node000010_Node000013"><a xlink:title=" ">
<path fill="none" stroke="#63b8ff" d="M394.61,-106C409.22,-106 424.66,-106 438.75,-106"/>
<polygon fill="#63b8ff" stroke="#63b8ff" points="394.62,-102.5 384.62,-106 394.62,-109.5 394.62,-102.5"/>
</a>
</g>
</g>
<!-- Node19 -->
<g id="Node000019" class="node">
<title>Node19</title>
<g id="a_Node000019"><a xlink:href="a02781.html" target="_top" xlink:title="Controlling input for std::string.">
<polygon fill="white" stroke="#666666" points="558,-28 424,-28 424,0 558,0 558,-28"/>
<text text-anchor="start" x="432" y="-16.8" font-family="Helvetica,sans-Serif" font-size="9.00">std::basic_istringstream</text>
<text text-anchor="middle" x="491" y="-6.8" font-family="Helvetica,sans-Serif" font-size="9.00">&lt; _CharT, _Traits, _Alloc &gt;</text>
</a>
</g>
</g>
<!-- Node10&#45;&gt;Node19 -->
<g id="edge428_Node000010_Node000019" class="edge">
<title>Node10&#45;&gt;Node19</title>
<g id="a_edge428_Node000010_Node000019"><a xlink:title=" ">
<path fill="none" stroke="#63b8ff" d="M357.18,-84.3C374.74,-69.42 399.6,-50.08 424,-37 429.88,-33.85 436.28,-30.99 442.71,-28.44"/>
<polygon fill="#63b8ff" stroke="#63b8ff" points="355.13,-81.45 349.85,-90.63 359.71,-86.75 355.13,-81.45"/>
</a>
</g>
</g>
<!-- Node14 -->
<g id="Node000014" class="node">
<title>Node14</title>
<g id="a_Node000014"><a xlink:href="a02501.html" target="_top" xlink:title="Controlling input and output for files.">
<polygon fill="white" stroke="#666666" points="712,-143 610,-143 610,-115 712,-115 712,-143"/>
<text text-anchor="start" x="618" y="-131.8" font-family="Helvetica,sans-Serif" font-size="9.00">std::basic_fstream</text>
<text text-anchor="middle" x="661" y="-121.8" font-family="Helvetica,sans-Serif" font-size="9.00">&lt; _CharT, _Traits &gt;</text>
</a>
</g>
</g>
<!-- Node13&#45;&gt;Node14 -->
<g id="edge426_Node000013_Node000014" class="edge">
<title>Node13&#45;&gt;Node14</title>
<g id="a_edge426_Node000013_Node000014"><a xlink:title=" ">
<path fill="none" stroke="#63b8ff" d="M554.68,-114.58C572.79,-117.06 592.31,-119.73 609.57,-122.1"/>
<polygon fill="#63b8ff" stroke="#63b8ff" points="555.2,-111.12 544.82,-113.23 554.25,-118.06 555.2,-111.12"/>
</a>
</g>
</g>
<!-- Node15 -->
<g id="Node000015" class="node">
<title>Node15</title>
<g id="a_Node000015"><a xlink:href="a02789.html" target="_top" xlink:title="Controlling input and output for std::string.">
<polygon fill="white" stroke="#666666" points="728,-97 594,-97 594,-69 728,-69 728,-97"/>
<text text-anchor="start" x="602" y="-85.8" font-family="Helvetica,sans-Serif" font-size="9.00">std::basic_stringstream</text>
<text text-anchor="middle" x="661" y="-75.8" font-family="Helvetica,sans-Serif" font-size="9.00">&lt; _CharT, _Traits, _Alloc &gt;</text>
</a>
</g>
</g>
<!-- Node13&#45;&gt;Node15 -->
<g id="edge427_Node000013_Node000015" class="edge">
<title>Node13&#45;&gt;Node15</title>
<g id="a_edge427_Node000013_Node000015"><a xlink:title=" ">
<path fill="none" stroke="#63b8ff" d="M554.39,-97.46C567.24,-95.7 580.82,-93.84 593.8,-92.06"/>
<polygon fill="#63b8ff" stroke="#63b8ff" points="554.25,-93.94 544.82,-98.77 555.2,-100.88 554.25,-93.94"/>
</a>
</g>
</g>
<!-- Node12&#45;&gt;Node11 -->
<g id="edge430_Node000012_Node000011" class="edge">
<title>Node12&#45;&gt;Node11</title>
<g id="a_edge430_Node000012_Node000011"><a xlink:title=" ">
<path fill="none" stroke="#63b8ff" d="M394.61,-152C409.22,-152 424.66,-152 438.75,-152"/>
<polygon fill="#63b8ff" stroke="#63b8ff" points="394.62,-148.5 384.62,-152 394.62,-155.5 394.62,-148.5"/>
</a>
</g>
</g>
<!-- Node12&#45;&gt;Node13 -->
<g id="edge431_Node000012_Node000013" class="edge">
<title>Node12&#45;&gt;Node13</title>
<g id="a_edge431_Node000012_Node000013"><a xlink:title=" ">
<path fill="none" stroke="#63b8ff" d="M392.95,-134.43C408.71,-129.82 425.53,-124.89 440.66,-120.46"/>
<polygon fill="#63b8ff" stroke="#63b8ff" points="392.31,-130.98 383.7,-137.15 394.28,-137.69 392.31,-130.98"/>
</a>
</g>
</g>
<!-- Node16 -->
<g id="Node000016" class="node">
<title>Node16</title>
<g id="a_Node000016"><a xlink:href="a02497.html" target="_top" xlink:title="Controlling output for files.">
<polygon fill="white" stroke="#666666" points="543,-258 439,-258 439,-230 543,-230 543,-258"/>
<text text-anchor="start" x="447" y="-246.8" font-family="Helvetica,sans-Serif" font-size="9.00">std::basic_ofstream</text>
<text text-anchor="middle" x="491" y="-236.8" font-family="Helvetica,sans-Serif" font-size="9.00">&lt; _CharT, _Traits &gt;</text>
</a>
</g>
</g>
<!-- Node12&#45;&gt;Node16 -->
<g id="edge432_Node000012_Node000016" class="edge">
<title>Node12&#45;&gt;Node16</title>
<g id="a_edge432_Node000012_Node000016"><a xlink:title=" ">
<path fill="none" stroke="#63b8ff" d="M383.93,-172.11C385.33,-173.04 386.69,-174 388,-175 408.64,-190.74 402.89,-205.89 424,-221 428.54,-224.25 433.58,-227.07 438.79,-229.52"/>
<polygon fill="#63b8ff" stroke="#63b8ff" points="385.96,-169.24 375.55,-167.23 382.43,-175.29 385.96,-169.24"/>
</a>
</g>
</g>
<!-- Node17 -->
<g id="Node000017" class="node">
<title>Node17</title>
<g id="a_Node000017"><a xlink:href="a02785.html" target="_top" xlink:title="Controlling output for std::string.">
<polygon fill="white" stroke="#666666" points="558,-212 424,-212 424,-184 558,-184 558,-212"/>
<text text-anchor="start" x="432" y="-200.8" font-family="Helvetica,sans-Serif" font-size="9.00">std::basic_ostringstream</text>
<text text-anchor="middle" x="491" y="-190.8" font-family="Helvetica,sans-Serif" font-size="9.00">&lt; _CharT, _Traits, _Alloc &gt;</text>
</a>
</g>
</g>
<!-- Node12&#45;&gt;Node17 -->
<g id="edge433_Node000012_Node000017" class="edge">
<title>Node12&#45;&gt;Node17</title>
<g id="a_edge433_Node000012_Node000017"><a xlink:title=" ">
<path fill="none" stroke="#63b8ff" d="M392.95,-169.57C408.71,-174.18 425.53,-179.11 440.66,-183.54"/>
<polygon fill="#63b8ff" stroke="#63b8ff" points="394.28,-166.31 383.7,-166.85 392.31,-173.02 394.28,-166.31"/>
</a>
</g>
</g>
</g>
</svg>
