<?xml version="1.0" encoding="UTF-8" standalone="no"?>
<!DOCTYPE svg PUBLIC "-//W3C//DTD SVG 1.1//EN"
 "http://www.w3.org/Graphics/SVG/1.1/DTD/svg11.dtd">
<!-- Generated by graphviz version 7.1.0 (0)
 -->
<!-- Title: Graphical Class Hierarchy Pages: 1 -->
<svg width="285pt" height="266pt"
 viewBox="0.00 0.00 285.00 266.00" xmlns="http://www.w3.org/2000/svg" xmlns:xlink="http://www.w3.org/1999/xlink">
<g id="graph0" class="graph" transform="scale(1 1) rotate(0) translate(4 262)">
<title>Graphical Class Hierarchy</title>
<!-- Node0 -->
<g id="Node000000" class="node">
<title>Node0</title>
<g id="a_Node000000"><a xlink:href="a08493.html" target="_top" xlink:title=" ">
<polygon fill="white" stroke="#666666" points="111,-148 0,-148 0,-110 111,-110 111,-148"/>
<text text-anchor="start" x="8" y="-136.8" font-family="Helvetica,sans-Serif" font-size="9.00">std::iterator&lt; output</text>
<text text-anchor="start" x="8" y="-126.8" font-family="Helvetica,sans-Serif" font-size="9.00">_iterator_tag, void,</text>
<text text-anchor="middle" x="55.5" y="-116.8" font-family="Helvetica,sans-Serif" font-size="9.00"> void, void, void &gt;</text>
</a>
</g>
</g>
<!-- Node1 -->
<g id="Node000001" class="node">
<title>Node1</title>
<g id="a_Node000001"><a xlink:href="a08357.html" target="_top" xlink:title="Turns assignment into insertion.">
<polygon fill="white" stroke="#666666" points="275,-258 149,-258 149,-230 275,-230 275,-258"/>
<text text-anchor="start" x="157" y="-246.8" font-family="Helvetica,sans-Serif" font-size="9.00">std::back_insert_iterator</text>
<text text-anchor="middle" x="212" y="-236.8" font-family="Helvetica,sans-Serif" font-size="9.00">&lt; _Container &gt;</text>
</a>
</g>
</g>
<!-- Node0&#45;&gt;Node1 -->
<g id="edge438_Node000000_Node000001" class="edge">
<title>Node0&#45;&gt;Node1</title>
<g id="a_edge438_Node000000_Node000001"><a xlink:title=" ">
<path fill="none" stroke="#63b8ff" d="M78.34,-157.19C95.21,-177.34 120.16,-203.82 147,-221 152.07,-224.25 157.66,-227.11 163.36,-229.62"/>
<polygon fill="#63b8ff" stroke="#63b8ff" points="81.17,-155.13 72.13,-149.6 75.75,-159.56 81.17,-155.13"/>
</a>
</g>
</g>
<!-- Node2 -->
<g id="Node000002" class="node">
<title>Node2</title>
<g id="a_Node000002"><a xlink:href="a08361.html" target="_top" xlink:title="Turns assignment into insertion.">
<polygon fill="white" stroke="#666666" points="275,-212 149,-212 149,-184 275,-184 275,-212"/>
<text text-anchor="start" x="157" y="-200.8" font-family="Helvetica,sans-Serif" font-size="9.00">std::front_insert_iterator</text>
<text text-anchor="middle" x="212" y="-190.8" font-family="Helvetica,sans-Serif" font-size="9.00">&lt; _Container &gt;</text>
</a>
</g>
</g>
<!-- Node0&#45;&gt;Node2 -->
<g id="edge439_Node000000_Node000002" class="edge">
<title>Node0&#45;&gt;Node2</title>
<g id="a_edge439_Node000000_Node000002"><a xlink:title=" ">
<path fill="none" stroke="#63b8ff" d="M102.13,-153.6C116.33,-160.87 132.16,-168.59 147,-175 153.83,-177.95 161.17,-180.84 168.36,-183.52"/>
<polygon fill="#63b8ff" stroke="#63b8ff" points="103.95,-150.6 93.46,-149.1 100.73,-156.81 103.95,-150.6"/>
</a>
</g>
</g>
<!-- Node3 -->
<g id="Node000003" class="node">
<title>Node3</title>
<g id="a_Node000003"><a xlink:href="a08365.html" target="_top" xlink:title="Turns assignment into insertion.">
<polygon fill="white" stroke="#666666" points="262,-166 162,-166 162,-138 262,-138 262,-166"/>
<text text-anchor="start" x="170" y="-154.8" font-family="Helvetica,sans-Serif" font-size="9.00">std::insert_iterator</text>
<text text-anchor="middle" x="212" y="-144.8" font-family="Helvetica,sans-Serif" font-size="9.00">&lt; _Container &gt;</text>
</a>
</g>
</g>
<!-- Node0&#45;&gt;Node3 -->
<g id="edge440_Node000000_Node000003" class="edge">
<title>Node0&#45;&gt;Node3</title>
<g id="a_edge440_Node000000_Node000003"><a xlink:title=" ">
<path fill="none" stroke="#63b8ff" d="M122.74,-138.86C135.8,-140.8 149.29,-142.81 161.67,-144.66"/>
<polygon fill="#63b8ff" stroke="#63b8ff" points="123.31,-135.41 112.9,-137.4 122.28,-142.33 123.31,-135.41"/>
</a>
</g>
</g>
<!-- Node4 -->
<g id="Node000004" class="node">
<title>Node4</title>
<g id="a_Node000004"><a xlink:href="a08725.html" target="_top" xlink:title="Provides output iterator semantics for streams.">
<polygon fill="white" stroke="#666666" points="274,-120 150,-120 150,-92 274,-92 274,-120"/>
<text text-anchor="start" x="158" y="-108.8" font-family="Helvetica,sans-Serif" font-size="9.00">std::ostream_iterator</text>
<text text-anchor="middle" x="212" y="-98.8" font-family="Helvetica,sans-Serif" font-size="9.00">&lt; _Tp, _CharT, _Traits &gt;</text>
</a>
</g>
</g>
<!-- Node0&#45;&gt;Node4 -->
<g id="edge441_Node000000_Node000004" class="edge">
<title>Node0&#45;&gt;Node4</title>
<g id="a_edge441_Node000000_Node000004"><a xlink:title=" ">
<path fill="none" stroke="#63b8ff" d="M122.64,-119.15C131.62,-117.82 140.81,-116.45 149.7,-115.13"/>
<polygon fill="#63b8ff" stroke="#63b8ff" points="122.28,-115.67 112.9,-120.6 123.31,-122.59 122.28,-115.67"/>
</a>
</g>
</g>
<!-- Node5 -->
<g id="Node000005" class="node">
<title>Node5</title>
<g id="a_Node000005"><a xlink:href="a02797.html" target="_top" xlink:title="Provides output iterator semantics for streambufs.">
<polygon fill="white" stroke="#666666" points="275,-74 149,-74 149,-46 275,-46 275,-74"/>
<text text-anchor="start" x="157" y="-62.8" font-family="Helvetica,sans-Serif" font-size="9.00">std::ostreambuf_iterator</text>
<text text-anchor="middle" x="212" y="-52.8" font-family="Helvetica,sans-Serif" font-size="9.00">&lt; _CharT, _Traits &gt;</text>
</a>
</g>
</g>
<!-- Node0&#45;&gt;Node5 -->
<g id="edge442_Node000000_Node000005" class="edge">
<title>Node0&#45;&gt;Node5</title>
<g id="a_edge442_Node000000_Node000005"><a xlink:title=" ">
<path fill="none" stroke="#63b8ff" d="M102.13,-104.4C116.33,-97.13 132.16,-89.41 147,-83 153.83,-80.05 161.17,-77.16 168.36,-74.48"/>
<polygon fill="#63b8ff" stroke="#63b8ff" points="100.73,-101.19 93.46,-108.9 103.95,-107.4 100.73,-101.19"/>
</a>
</g>
</g>
<!-- Node6 -->
<g id="Node000006" class="node">
<title>Node6</title>
<g id="a_Node000006"><a xlink:href="a08613.html" target="_top" xlink:title=" ">
<polygon fill="white" stroke="#666666" points="277,-28 147,-28 147,0 277,0 277,-28"/>
<text text-anchor="start" x="155" y="-16.8" font-family="Helvetica,sans-Serif" font-size="9.00">std::raw_storage_iterator</text>
<text text-anchor="middle" x="212" y="-6.8" font-family="Helvetica,sans-Serif" font-size="9.00">&lt; _OutputIterator, _Tp &gt;</text>
</a>
</g>
</g>
<!-- Node0&#45;&gt;Node6 -->
<g id="edge443_Node000000_Node000006" class="edge">
<title>Node0&#45;&gt;Node6</title>
<g id="a_edge443_Node000000_Node000006"><a xlink:title=" ">
<path fill="none" stroke="#63b8ff" d="M78.34,-100.81C95.21,-80.66 120.16,-54.18 147,-37 152.07,-33.75 157.66,-30.89 163.36,-28.38"/>
<polygon fill="#63b8ff" stroke="#63b8ff" points="75.75,-98.44 72.13,-108.4 81.17,-102.87 75.75,-98.44"/>
</a>
</g>
</g>
</g>
</svg>
