<?xml version="1.0" encoding="UTF-8" standalone="no"?>
<!DOCTYPE svg PUBLIC "-//W3C//DTD SVG 1.1//EN"
 "http://www.w3.org/Graphics/SVG/1.1/DTD/svg11.dtd">
<!-- Generated by graphviz version 7.1.0 (0)
 -->
<!-- Title: Graphical Class Hierarchy Pages: 1 -->
<svg width="363pt" height="92pt"
 viewBox="0.00 0.00 363.00 92.00" xmlns="http://www.w3.org/2000/svg" xmlns:xlink="http://www.w3.org/1999/xlink">
<g id="graph0" class="graph" transform="scale(1 1) rotate(0) translate(4 88)">
<title>Graphical Class Hierarchy</title>
<!-- Node0 -->
<g id="Node000000" class="node">
<title>Node0</title>
<g id="a_Node000000"><a xlink:href="a10077.html" target="_top" xlink:title="Base class of _Loser Tree implementation using pointers.">
<polygon fill="white" stroke="#666666" points="157,-53 0,-53 0,-25 157,-25 157,-53"/>
<text text-anchor="start" x="8" y="-41.8" font-family="Helvetica,sans-Serif" font-size="9.00">__gnu_parallel::_LoserTree</text>
<text text-anchor="middle" x="78.5" y="-31.8" font-family="Helvetica,sans-Serif" font-size="9.00">PointerBase&lt; _Tp, _Compare &gt;</text>
</a>
</g>
</g>
<!-- Node1 -->
<g id="Node000001" class="node">
<title>Node1</title>
<g id="a_Node000001"><a xlink:href="a10085.html" target="_top" xlink:title="Stable _LoserTree implementation.">
<polygon fill="white" stroke="#666666" points="340.5,-84 207.5,-84 207.5,-46 340.5,-46 340.5,-84"/>
<text text-anchor="start" x="215.5" y="-72.8" font-family="Helvetica,sans-Serif" font-size="9.00">__gnu_parallel::_LoserTree</text>
<text text-anchor="start" x="215.5" y="-62.8" font-family="Helvetica,sans-Serif" font-size="9.00">Pointer&lt; __stable, _Tp,</text>
<text text-anchor="middle" x="274" y="-52.8" font-family="Helvetica,sans-Serif" font-size="9.00"> _Compare &gt;</text>
</a>
</g>
</g>
<!-- Node0&#45;&gt;Node1 -->
<g id="edge66_Node000000_Node000001" class="edge">
<title>Node0&#45;&gt;Node1</title>
<g id="a_edge66_Node000000_Node000001"><a xlink:title=" ">
<path fill="none" stroke="#63b8ff" d="M168.67,-50.98C181.61,-52.72 194.73,-54.48 207.1,-56.14"/>
<polygon fill="#63b8ff" stroke="#63b8ff" points="169.24,-47.53 158.87,-49.66 168.31,-54.46 169.24,-47.53"/>
</a>
</g>
</g>
<!-- Node2 -->
<g id="Node000002" class="node">
<title>Node2</title>
<g id="a_Node000002"><a xlink:href="a10089.html" target="_top" xlink:title="Unstable _LoserTree implementation.">
<polygon fill="white" stroke="#666666" points="355,-28 193,-28 193,0 355,0 355,-28"/>
<text text-anchor="start" x="201" y="-16.8" font-family="Helvetica,sans-Serif" font-size="9.00">__gnu_parallel::_LoserTree</text>
<text text-anchor="middle" x="274" y="-6.8" font-family="Helvetica,sans-Serif" font-size="9.00">Pointer&lt; false, _Tp, _Compare &gt;</text>
</a>
</g>
</g>
<!-- Node0&#45;&gt;Node2 -->
<g id="edge67_Node000000_Node000002" class="edge">
<title>Node0&#45;&gt;Node2</title>
<g id="a_edge67_Node000000_Node000002"><a xlink:title=" ">
<path fill="none" stroke="#63b8ff" d="M168.66,-27.48C176.7,-26.44 184.81,-25.39 192.77,-24.37"/>
<polygon fill="#63b8ff" stroke="#63b8ff" points="168.34,-23.99 158.87,-28.75 169.23,-30.94 168.34,-23.99"/>
</a>
</g>
</g>
</g>
</svg>
