<?xml version="1.0" encoding="UTF-8" standalone="no"?>
<!DOCTYPE svg PUBLIC "-//W3C//DTD SVG 1.1//EN"
 "http://www.w3.org/Graphics/SVG/1.1/DTD/svg11.dtd">
<!-- Generated by graphviz version 7.1.0 (0)
 -->
<!-- Title: Graphical Class Hierarchy Pages: 1 -->
<svg width="328pt" height="174pt"
 viewBox="0.00 0.00 328.00 174.00" xmlns="http://www.w3.org/2000/svg" xmlns:xlink="http://www.w3.org/1999/xlink">
<g id="graph0" class="graph" transform="scale(1 1) rotate(0) translate(4 170)">
<title>Graphical Class Hierarchy</title>
<!-- Node0 -->
<g id="Node000000" class="node">
<title>Node0</title>
<g id="a_Node000000"><a xlink:href="a09957.html" target="_top" xlink:title="Base class of all __gnu_parallel::__find_template selectors.">
<polygon fill="white" stroke="#666666" points="129,-97 0,-97 0,-69 129,-69 129,-97"/>
<text text-anchor="start" x="8" y="-85.8" font-family="Helvetica,sans-Serif" font-size="9.00">__gnu_parallel::__generic</text>
<text text-anchor="middle" x="64.5" y="-75.8" font-family="Helvetica,sans-Serif" font-size="9.00">_find_selector</text>
</a>
</g>
</g>
<!-- Node1 -->
<g id="Node000001" class="node">
<title>Node1</title>
<g id="a_Node000001"><a xlink:href="a09965.html" target="_top" xlink:title="Test predicate on two adjacent elements.">
<polygon fill="white" stroke="#666666" points="309.5,-166 175.5,-166 175.5,-138 309.5,-138 309.5,-166"/>
<text text-anchor="start" x="183.5" y="-154.8" font-family="Helvetica,sans-Serif" font-size="9.00">__gnu_parallel::__adjacent</text>
<text text-anchor="middle" x="242.5" y="-144.8" font-family="Helvetica,sans-Serif" font-size="9.00">_find_selector</text>
</a>
</g>
</g>
<!-- Node0&#45;&gt;Node1 -->
<g id="edge47_Node000000_Node000001" class="edge">
<title>Node0&#45;&gt;Node1</title>
<g id="a_edge47_Node000000_Node000001"><a xlink:title=" ">
<path fill="none" stroke="#63b8ff" d="M104.01,-102.35C122.24,-111.1 144.47,-121.21 165,-129 172.91,-132 181.39,-134.88 189.73,-137.52"/>
<polygon fill="#63b8ff" stroke="#63b8ff" points="105.67,-99.26 95.14,-98.04 102.6,-105.55 105.67,-99.26"/>
</a>
</g>
</g>
<!-- Node2 -->
<g id="Node000002" class="node">
<title>Node2</title>
<g id="a_Node000002"><a xlink:href="a09973.html" target="_top" xlink:title="Test predicate on several elements.">
<polygon fill="white" stroke="#666666" points="320,-120 165,-120 165,-92 320,-92 320,-120"/>
<text text-anchor="start" x="173" y="-108.8" font-family="Helvetica,sans-Serif" font-size="9.00">__gnu_parallel::__find</text>
<text text-anchor="middle" x="242.5" y="-98.8" font-family="Helvetica,sans-Serif" font-size="9.00">_first_of_selector&lt; _FIterator &gt;</text>
</a>
</g>
</g>
<!-- Node0&#45;&gt;Node2 -->
<g id="edge48_Node000000_Node000002" class="edge">
<title>Node0&#45;&gt;Node2</title>
<g id="a_edge48_Node000000_Node000002"><a xlink:title=" ">
<path fill="none" stroke="#63b8ff" d="M140.27,-92.77C148.3,-93.82 156.49,-94.89 164.54,-95.94"/>
<polygon fill="#63b8ff" stroke="#63b8ff" points="140.91,-89.33 130.54,-91.5 140,-96.27 140.91,-89.33"/>
</a>
</g>
</g>
<!-- Node3 -->
<g id="Node000003" class="node">
<title>Node3</title>
<g id="a_Node000003"><a xlink:href="a09961.html" target="_top" xlink:title="Test predicate on a single element, used for std::find() and std::find_if ().">
<polygon fill="white" stroke="#666666" points="299,-74 186,-74 186,-46 299,-46 299,-74"/>
<text text-anchor="start" x="194" y="-62.8" font-family="Helvetica,sans-Serif" font-size="9.00">__gnu_parallel::__find</text>
<text text-anchor="middle" x="242.5" y="-52.8" font-family="Helvetica,sans-Serif" font-size="9.00">_if_selector</text>
</a>
</g>
</g>
<!-- Node0&#45;&gt;Node3 -->
<g id="edge49_Node000000_Node000003" class="edge">
<title>Node0&#45;&gt;Node3</title>
<g id="a_edge49_Node000000_Node000003"><a xlink:title=" ">
<path fill="none" stroke="#63b8ff" d="M140.04,-73.26C155.32,-71.26 171.15,-69.19 185.63,-67.3"/>
<polygon fill="#63b8ff" stroke="#63b8ff" points="140,-69.73 130.54,-74.5 140.91,-76.67 140,-69.73"/>
</a>
</g>
</g>
<!-- Node4 -->
<g id="Node000004" class="node">
<title>Node4</title>
<g id="a_Node000004"><a xlink:href="a09969.html" target="_top" xlink:title="Test inverted predicate on a single element.">
<polygon fill="white" stroke="#666666" points="312.5,-28 172.5,-28 172.5,0 312.5,0 312.5,-28"/>
<text text-anchor="start" x="180.5" y="-16.8" font-family="Helvetica,sans-Serif" font-size="9.00">__gnu_parallel::__mismatch</text>
<text text-anchor="middle" x="242.5" y="-6.8" font-family="Helvetica,sans-Serif" font-size="9.00">_selector</text>
</a>
</g>
</g>
<!-- Node0&#45;&gt;Node4 -->
<g id="edge50_Node000000_Node000004" class="edge">
<title>Node0&#45;&gt;Node4</title>
<g id="a_edge50_Node000000_Node000004"><a xlink:title=" ">
<path fill="none" stroke="#63b8ff" d="M104.01,-63.65C122.24,-54.9 144.47,-44.79 165,-37 172.91,-34 181.39,-31.12 189.73,-28.48"/>
<polygon fill="#63b8ff" stroke="#63b8ff" points="102.6,-60.45 95.14,-67.96 105.67,-66.74 102.6,-60.45"/>
</a>
</g>
</g>
</g>
</svg>
