<?xml version="1.0" encoding="UTF-8" standalone="no"?>
<!DOCTYPE svg PUBLIC "-//W3C//DTD SVG 1.1//EN"
 "http://www.w3.org/Graphics/SVG/1.1/DTD/svg11.dtd">
<!-- Generated by graphviz version 7.1.0 (0)
 -->
<!-- Title: Graphical Class Hierarchy Pages: 1 -->
<svg width="272pt" height="82pt"
 viewBox="0.00 0.00 272.00 82.00" xmlns="http://www.w3.org/2000/svg" xmlns:xlink="http://www.w3.org/1999/xlink">
<g id="graph0" class="graph" transform="scale(1 1) rotate(0) translate(4 78)">
<title>Graphical Class Hierarchy</title>
<!-- Node0 -->
<g id="Node000000" class="node">
<title>Node0</title>
<g id="a_Node000000"><a xlink:href="a11993.html" target="_top" xlink:title="Base class for pool object.">
<polygon fill="white" stroke="#666666" points="123,-46 0,-46 0,-28 123,-28 123,-46"/>
<text text-anchor="middle" x="61.5" y="-34.8" font-family="Helvetica,sans-Serif" font-size="9.00">__gnu_cxx::__pool_base</text>
</a>
</g>
</g>
<!-- Node1 -->
<g id="Node000001" class="node">
<title>Node1</title>
<g id="a_Node000001"><a xlink:href="a12009.html" target="_top" xlink:title="Specialization for single thread.">
<polygon fill="white" stroke="#666666" points="264,-74 159,-74 159,-46 264,-46 264,-74"/>
<text text-anchor="start" x="167" y="-62.8" font-family="Helvetica,sans-Serif" font-size="9.00">__gnu_cxx::__pool&lt;</text>
<text text-anchor="middle" x="211.5" y="-52.8" font-family="Helvetica,sans-Serif" font-size="9.00"> false &gt;</text>
</a>
</g>
</g>
<!-- Node0&#45;&gt;Node1 -->
<g id="edge3_Node000000_Node000001" class="edge">
<title>Node0&#45;&gt;Node1</title>
<g id="a_edge3_Node000000_Node000001"><a xlink:title=" ">
<path fill="none" stroke="#63b8ff" d="M134.3,-48.16C142.54,-49.44 150.82,-50.72 158.72,-51.95"/>
<polygon fill="#63b8ff" stroke="#63b8ff" points="135.04,-44.73 124.62,-46.65 133.96,-51.65 135.04,-44.73"/>
</a>
</g>
</g>
<!-- Node2 -->
<g id="Node000002" class="node">
<title>Node2</title>
<g id="a_Node000002"><a xlink:href="a12021.html" target="_top" xlink:title="Specialization for thread enabled, via gthreads.h.">
<polygon fill="white" stroke="#666666" points="264,-28 159,-28 159,0 264,0 264,-28"/>
<text text-anchor="start" x="167" y="-16.8" font-family="Helvetica,sans-Serif" font-size="9.00">__gnu_cxx::__pool&lt;</text>
<text text-anchor="middle" x="211.5" y="-6.8" font-family="Helvetica,sans-Serif" font-size="9.00"> true &gt;</text>
</a>
</g>
</g>
<!-- Node0&#45;&gt;Node2 -->
<g id="edge4_Node000000_Node000002" class="edge">
<title>Node0&#45;&gt;Node2</title>
<g id="a_edge4_Node000000_Node000002"><a xlink:title=" ">
<path fill="none" stroke="#63b8ff" d="M134.3,-25.84C142.54,-24.56 150.82,-23.28 158.72,-22.05"/>
<polygon fill="#63b8ff" stroke="#63b8ff" points="133.96,-22.35 124.62,-27.35 135.04,-29.27 133.96,-22.35"/>
</a>
</g>
</g>
</g>
</svg>
