<?xml version="1.0" encoding="UTF-8" standalone="no"?>
<!DOCTYPE svg PUBLIC "-//W3C//DTD SVG 1.1//EN"
 "http://www.w3.org/Graphics/SVG/1.1/DTD/svg11.dtd">
<!-- Generated by graphviz version 7.1.0 (0)
 -->
<!-- Title: Graphical Class Hierarchy Pages: 1 -->
<svg width="711pt" height="220pt"
 viewBox="0.00 0.00 711.00 220.00" xmlns="http://www.w3.org/2000/svg" xmlns:xlink="http://www.w3.org/1999/xlink">
<g id="graph0" class="graph" transform="scale(1 1) rotate(0) translate(4 216)">
<title>Graphical Class Hierarchy</title>
<!-- Node0 -->
<g id="Node000000" class="node">
<title>Node0</title>
<g id="a_Node000000"><a xlink:href="a12281.html" target="_top" xlink:title="Base class for checking address and label information about allocations. Create a std::map between th...">
<polygon fill="white" stroke="#666666" points="317,-115 181,-115 181,-97 317,-97 317,-115"/>
<text text-anchor="middle" x="249" y="-103.8" font-family="Helvetica,sans-Serif" font-size="9.00">__gnu_cxx::annotate_base</text>
</a>
</g>
</g>
<!-- Node1 -->
<g id="Node000001" class="node">
<title>Node1</title>
<g id="a_Node000001"><a xlink:href="a12341.html" target="_top" xlink:title=" ">
<polygon fill="white" stroke="#666666" points="520,-74 369,-74 369,-46 520,-46 520,-74"/>
<text text-anchor="start" x="377" y="-62.8" font-family="Helvetica,sans-Serif" font-size="9.00">__gnu_cxx::throw_allocator</text>
<text text-anchor="middle" x="444.5" y="-52.8" font-family="Helvetica,sans-Serif" font-size="9.00">_base&lt; _Tp, limit_condition &gt;</text>
</a>
</g>
</g>
<!-- Node0&#45;&gt;Node1 -->
<g id="edge5_Node000000_Node000001" class="edge">
<title>Node0&#45;&gt;Node1</title>
<g id="a_edge5_Node000000_Node000001"><a xlink:title=" ">
<path fill="none" stroke="#63b8ff" d="M300.73,-93.94C325.81,-87.98 356.25,-80.74 382.58,-74.48"/>
<polygon fill="#63b8ff" stroke="#63b8ff" points="300.02,-90.51 291.1,-96.23 301.64,-97.32 300.02,-90.51"/>
</a>
</g>
</g>
<!-- Node8 -->
<g id="Node000008" class="node">
<title>Node8</title>
<g id="a_Node000008"><a xlink:href="a12341.html" target="_top" xlink:title=" ">
<polygon fill="white" stroke="#666666" points="528,-166 361,-166 361,-138 528,-138 528,-166"/>
<text text-anchor="start" x="369" y="-154.8" font-family="Helvetica,sans-Serif" font-size="9.00">__gnu_cxx::throw_allocator</text>
<text text-anchor="middle" x="444.5" y="-144.8" font-family="Helvetica,sans-Serif" font-size="9.00">_base&lt; _Tp, random_condition &gt;</text>
</a>
</g>
</g>
<!-- Node0&#45;&gt;Node8 -->
<g id="edge7_Node000000_Node000008" class="edge">
<title>Node0&#45;&gt;Node8</title>
<g id="a_edge7_Node000000_Node000008"><a xlink:title=" ">
<path fill="none" stroke="#63b8ff" d="M300.73,-118.06C325.81,-124.02 356.25,-131.26 382.58,-137.52"/>
<polygon fill="#63b8ff" stroke="#63b8ff" points="301.64,-114.68 291.1,-115.77 300.02,-121.49 301.64,-114.68"/>
</a>
</g>
</g>
<!-- Node12 -->
<g id="Node000012" class="node">
<title>Node12</title>
<g id="a_Node000012"><a xlink:href="a12341.html" target="_top" xlink:title="Allocator class with logging and exception generation control. Intended to be used as an allocator_ty...">
<polygon fill="white" stroke="#666666" points="514,-120 375,-120 375,-92 514,-92 514,-120"/>
<text text-anchor="start" x="383" y="-108.8" font-family="Helvetica,sans-Serif" font-size="9.00">__gnu_cxx::throw_allocator</text>
<text text-anchor="middle" x="444.5" y="-98.8" font-family="Helvetica,sans-Serif" font-size="9.00">_base&lt; _Tp, _Cond &gt;</text>
</a>
</g>
</g>
<!-- Node0&#45;&gt;Node12 -->
<g id="edge9_Node000000_Node000012" class="edge">
<title>Node0&#45;&gt;Node12</title>
<g id="a_edge9_Node000000_Node000012"><a xlink:title=" ">
<path fill="none" stroke="#63b8ff" d="M328.87,-106C344.06,-106 359.86,-106 374.7,-106"/>
<polygon fill="#63b8ff" stroke="#63b8ff" points="328.92,-102.5 318.92,-106 328.92,-109.5 328.92,-102.5"/>
</a>
</g>
</g>
<!-- Node2 -->
<g id="Node000002" class="node">
<title>Node2</title>
<g id="a_Node000002"><a xlink:href="a12345.html" target="_top" xlink:title="Allocator throwing via limit condition.">
<polygon fill="white" stroke="#666666" points="703,-74 564,-74 564,-46 703,-46 703,-74"/>
<text text-anchor="start" x="572" y="-62.8" font-family="Helvetica,sans-Serif" font-size="9.00">__gnu_cxx::throw_allocator</text>
<text text-anchor="middle" x="633.5" y="-52.8" font-family="Helvetica,sans-Serif" font-size="9.00">_limit&lt; _Tp &gt;</text>
</a>
</g>
</g>
<!-- Node1&#45;&gt;Node2 -->
<g id="edge6_Node000001_Node000002" class="edge">
<title>Node1&#45;&gt;Node2</title>
<g id="a_edge6_Node000001_Node000002"><a xlink:title=" ">
<path fill="none" stroke="#63b8ff" d="M531.92,-60C542.53,-60 553.26,-60 563.56,-60"/>
<polygon fill="#63b8ff" stroke="#63b8ff" points="532,-56.5 522,-60 532,-63.5 532,-56.5"/>
</a>
</g>
</g>
<!-- Node9 -->
<g id="Node000009" class="node">
<title>Node9</title>
<g id="a_Node000009"><a xlink:href="a12353.html" target="_top" xlink:title="Allocator throwing via random condition.">
<polygon fill="white" stroke="#666666" points="703,-166 564,-166 564,-138 703,-138 703,-166"/>
<text text-anchor="start" x="572" y="-154.8" font-family="Helvetica,sans-Serif" font-size="9.00">__gnu_cxx::throw_allocator</text>
<text text-anchor="middle" x="633.5" y="-144.8" font-family="Helvetica,sans-Serif" font-size="9.00">_random&lt; _Tp &gt;</text>
</a>
</g>
</g>
<!-- Node8&#45;&gt;Node9 -->
<g id="edge8_Node000008_Node000009" class="edge">
<title>Node8&#45;&gt;Node9</title>
<g id="a_edge8_Node000008_Node000009"><a xlink:title=" ">
<path fill="none" stroke="#63b8ff" d="M539.74,-152C547.82,-152 555.9,-152 563.72,-152"/>
<polygon fill="#63b8ff" stroke="#63b8ff" points="539.85,-148.5 529.85,-152 539.85,-155.5 539.85,-148.5"/>
</a>
</g>
</g>
<!-- Node6 -->
<g id="Node000006" class="node">
<title>Node6</title>
<g id="a_Node000006"><a xlink:href="a12285.html" target="_top" xlink:title="Base struct for condition policy.">
<polygon fill="white" stroke="#666666" points="137,-115 0,-115 0,-97 137,-97 137,-115"/>
<text text-anchor="middle" x="68.5" y="-103.8" font-family="Helvetica,sans-Serif" font-size="9.00">__gnu_cxx::condition_base</text>
</a>
</g>
</g>
<!-- Node3 -->
<g id="Node000003" class="node">
<title>Node3</title>
<g id="a_Node000003"><a xlink:href="a12289.html" target="_top" xlink:title="Base class for incremental control and throw.">
<polygon fill="white" stroke="#666666" points="317,-69 181,-69 181,-51 317,-51 317,-69"/>
<text text-anchor="middle" x="249" y="-57.8" font-family="Helvetica,sans-Serif" font-size="9.00">__gnu_cxx::limit_condition</text>
</a>
</g>
</g>
<!-- Node6&#45;&gt;Node3 -->
<g id="edge10_Node000006_Node000003" class="edge">
<title>Node6&#45;&gt;Node3</title>
<g id="a_edge10_Node000006_Node000003"><a xlink:title=" ">
<path fill="none" stroke="#63b8ff" d="M116.95,-93.77C146.48,-86.16 183.9,-76.52 211.19,-69.49"/>
<polygon fill="#63b8ff" stroke="#63b8ff" points="116.33,-90.32 107.52,-96.2 118.08,-97.1 116.33,-90.32"/>
</a>
</g>
</g>
<!-- Node7 -->
<g id="Node000007" class="node">
<title>Node7</title>
<g id="a_Node000007"><a xlink:href="a12309.html" target="_top" xlink:title="Base class for random probability control and throw.">
<polygon fill="white" stroke="#666666" points="325,-161 173,-161 173,-143 325,-143 325,-161"/>
<text text-anchor="middle" x="249" y="-149.8" font-family="Helvetica,sans-Serif" font-size="9.00">__gnu_cxx::random_condition</text>
</a>
</g>
</g>
<!-- Node6&#45;&gt;Node7 -->
<g id="edge14_Node000006_Node000007" class="edge">
<title>Node6&#45;&gt;Node7</title>
<g id="a_edge14_Node000006_Node000007"><a xlink:title=" ">
<path fill="none" stroke="#63b8ff" d="M116.95,-118.23C146.48,-125.84 183.9,-135.48 211.19,-142.51"/>
<polygon fill="#63b8ff" stroke="#63b8ff" points="118.08,-114.9 107.52,-115.8 116.33,-121.68 118.08,-114.9"/>
</a>
</g>
</g>
<!-- Node3&#45;&gt;Node1 -->
<g id="edge11_Node000003_Node000001" class="edge">
<title>Node3&#45;&gt;Node1</title>
<g id="a_edge11_Node000003_Node000001"><a xlink:title=" ">
<path fill="none" stroke="#63b8ff" d="M328.84,-60C342.02,-60 355.66,-60 368.74,-60"/>
<polygon fill="#63b8ff" stroke="#63b8ff" points="328.92,-56.5 318.92,-60 328.92,-63.5 328.92,-56.5"/>
</a>
</g>
</g>
<!-- Node4 -->
<g id="Node000004" class="node">
<title>Node4</title>
<g id="a_Node000004"><a xlink:href="a12329.html" target="_top" xlink:title=" ">
<polygon fill="white" stroke="#666666" points="509,-28 380,-28 380,0 509,0 509,-28"/>
<text text-anchor="start" x="388" y="-16.8" font-family="Helvetica,sans-Serif" font-size="9.00">__gnu_cxx::throw_value</text>
<text text-anchor="middle" x="444.5" y="-6.8" font-family="Helvetica,sans-Serif" font-size="9.00">_base&lt; limit_condition &gt;</text>
</a>
</g>
</g>
<!-- Node3&#45;&gt;Node4 -->
<g id="edge12_Node000003_Node000004" class="edge">
<title>Node3&#45;&gt;Node4</title>
<g id="a_edge12_Node000003_Node000004"><a xlink:title=" ">
<path fill="none" stroke="#63b8ff" d="M300.73,-47.94C325.81,-41.98 356.25,-34.74 382.58,-28.48"/>
<polygon fill="#63b8ff" stroke="#63b8ff" points="300.02,-44.51 291.1,-50.23 301.64,-51.32 300.02,-44.51"/>
</a>
</g>
</g>
<!-- Node5 -->
<g id="Node000005" class="node">
<title>Node5</title>
<g id="a_Node000005"><a xlink:href="a12333.html" target="_top" xlink:title="Type throwing via limit condition.">
<polygon fill="white" stroke="#666666" points="696,-28 571,-28 571,0 696,0 696,-28"/>
<text text-anchor="start" x="579" y="-16.8" font-family="Helvetica,sans-Serif" font-size="9.00">__gnu_cxx::throw_value</text>
<text text-anchor="middle" x="633.5" y="-6.8" font-family="Helvetica,sans-Serif" font-size="9.00">_limit</text>
</a>
</g>
</g>
<!-- Node4&#45;&gt;Node5 -->
<g id="edge13_Node000004_Node000005" class="edge">
<title>Node4&#45;&gt;Node5</title>
<g id="a_edge13_Node000004_Node000005"><a xlink:title=" ">
<path fill="none" stroke="#63b8ff" d="M520.64,-14C537.2,-14 554.57,-14 570.54,-14"/>
<polygon fill="#63b8ff" stroke="#63b8ff" points="520.85,-10.5 510.85,-14 520.85,-17.5 520.85,-10.5"/>
</a>
</g>
</g>
<!-- Node7&#45;&gt;Node8 -->
<g id="edge15_Node000007_Node000008" class="edge">
<title>Node7&#45;&gt;Node8</title>
<g id="a_edge15_Node000007_Node000008"><a xlink:title=" ">
<path fill="none" stroke="#63b8ff" d="M336.87,-152C344.78,-152 352.77,-152 360.65,-152"/>
<polygon fill="#63b8ff" stroke="#63b8ff" points="336.88,-148.5 326.88,-152 336.88,-155.5 336.88,-148.5"/>
</a>
</g>
</g>
<!-- Node10 -->
<g id="Node000010" class="node">
<title>Node10</title>
<g id="a_Node000010"><a xlink:href="a12329.html" target="_top" xlink:title=" ">
<polygon fill="white" stroke="#666666" points="517,-212 372,-212 372,-184 517,-184 517,-212"/>
<text text-anchor="start" x="380" y="-200.8" font-family="Helvetica,sans-Serif" font-size="9.00">__gnu_cxx::throw_value</text>
<text text-anchor="middle" x="444.5" y="-190.8" font-family="Helvetica,sans-Serif" font-size="9.00">_base&lt; random_condition &gt;</text>
</a>
</g>
</g>
<!-- Node7&#45;&gt;Node10 -->
<g id="edge16_Node000007_Node000010" class="edge">
<title>Node7&#45;&gt;Node10</title>
<g id="a_edge16_Node000007_Node000010"><a xlink:title=" ">
<path fill="none" stroke="#63b8ff" d="M300.73,-164.06C325.81,-170.02 356.25,-177.26 382.58,-183.52"/>
<polygon fill="#63b8ff" stroke="#63b8ff" points="301.64,-160.68 291.1,-161.77 300.02,-167.49 301.64,-160.68"/>
</a>
</g>
</g>
<!-- Node11 -->
<g id="Node000011" class="node">
<title>Node11</title>
<g id="a_Node000011"><a xlink:href="a12337.html" target="_top" xlink:title="Type throwing via random condition.">
<polygon fill="white" stroke="#666666" points="696,-212 571,-212 571,-184 696,-184 696,-212"/>
<text text-anchor="start" x="579" y="-200.8" font-family="Helvetica,sans-Serif" font-size="9.00">__gnu_cxx::throw_value</text>
<text text-anchor="middle" x="633.5" y="-190.8" font-family="Helvetica,sans-Serif" font-size="9.00">_random</text>
</a>
</g>
</g>
<!-- Node10&#45;&gt;Node11 -->
<g id="edge17_Node000010_Node000011" class="edge">
<title>Node10&#45;&gt;Node11</title>
<g id="a_edge17_Node000010_Node000011"><a xlink:title=" ">
<path fill="none" stroke="#63b8ff" d="M528.53,-198C542.7,-198 557.19,-198 570.68,-198"/>
<polygon fill="#63b8ff" stroke="#63b8ff" points="528.78,-194.5 518.78,-198 528.78,-201.5 528.78,-194.5"/>
</a>
</g>
</g>
</g>
</svg>
