<?xml version="1.0" encoding="UTF-8" standalone="no"?>
<!DOCTYPE svg PUBLIC "-//W3C//DTD SVG 1.1//EN"
 "http://www.w3.org/Graphics/SVG/1.1/DTD/svg11.dtd">
<!-- Generated by graphviz version 7.1.0 (0)
 -->
<!-- Title: Graphical Class Hierarchy Pages: 1 -->
<svg width="540pt" height="381pt"
 viewBox="0.00 0.00 540.00 381.00" xmlns="http://www.w3.org/2000/svg" xmlns:xlink="http://www.w3.org/1999/xlink">
<g id="graph0" class="graph" transform="scale(1 1) rotate(0) translate(4 377)">
<title>Graphical Class Hierarchy</title>
<!-- Node0 -->
<g id="Node000000" class="node">
<title>Node0</title>
<g id="a_Node000000"><a xlink:href="a13281.html" target="_top" xlink:title="Primary template.">
<polygon fill="white" stroke="#666666" points="319,-307 188,-307 188,-269 319,-269 319,-307"/>
<text text-anchor="start" x="196" y="-295.8" font-family="Helvetica,sans-Serif" font-size="9.00">__gnu_pbds::detail</text>
<text text-anchor="start" x="196" y="-285.8" font-family="Helvetica,sans-Serif" font-size="9.00">::hash_eq_fn&lt; Key, Eq</text>
<text text-anchor="middle" x="253.5" y="-275.8" font-family="Helvetica,sans-Serif" font-size="9.00">_Fn, _Alloc, Store_Hash &gt;</text>
</a>
</g>
</g>
<!-- Node1 -->
<g id="Node000001" class="node">
<title>Node1</title>
<g id="a_Node000001"><a xlink:href="a13269.html" target="_top" xlink:title=" ">
<polygon fill="white" stroke="#666666" points="529.5,-332 380.5,-332 380.5,-274 529.5,-274 529.5,-332"/>
<text text-anchor="start" x="388.5" y="-320.8" font-family="Helvetica,sans-Serif" font-size="9.00">__gnu_pbds::detail</text>
<text text-anchor="start" x="388.5" y="-310.8" font-family="Helvetica,sans-Serif" font-size="9.00">::cc_ht_map&lt; Key, Mapped,</text>
<text text-anchor="start" x="388.5" y="-300.8" font-family="Helvetica,sans-Serif" font-size="9.00"> Hash_Fn, Eq_Fn, _Alloc,</text>
<text text-anchor="start" x="388.5" y="-290.8" font-family="Helvetica,sans-Serif" font-size="9.00"> Store_Hash, Comb_Hash_Fn,</text>
<text text-anchor="middle" x="455" y="-280.8" font-family="Helvetica,sans-Serif" font-size="9.00"> Resize_Policy &gt;</text>
</a>
</g>
</g>
<!-- Node0&#45;&gt;Node1 -->
<g id="edge125_Node000000_Node000001" class="edge">
<title>Node0&#45;&gt;Node1</title>
<g id="a_edge125_Node000000_Node000001"><a xlink:title=" ">
<path fill="none" stroke="#63b8ff" d="M330.41,-293.71C346.73,-294.93 363.96,-296.23 380.21,-297.45"/>
<polygon fill="#63b8ff" stroke="#63b8ff" points="331.02,-290.24 320.78,-292.98 330.49,-297.22 331.02,-290.24"/>
</a>
</g>
</g>
<!-- Node3 -->
<g id="Node000003" class="node">
<title>Node3</title>
<g id="a_Node000003"><a xlink:href="a13293.html" target="_top" xlink:title=" ">
<polygon fill="white" stroke="#666666" points="532,-256 378,-256 378,-198 532,-198 532,-256"/>
<text text-anchor="start" x="386" y="-244.8" font-family="Helvetica,sans-Serif" font-size="9.00">__gnu_pbds::detail</text>
<text text-anchor="start" x="386" y="-234.8" font-family="Helvetica,sans-Serif" font-size="9.00">::gp_ht_map&lt; Key, Mapped,</text>
<text text-anchor="start" x="386" y="-224.8" font-family="Helvetica,sans-Serif" font-size="9.00"> Hash_Fn, Eq_Fn, _Alloc,</text>
<text text-anchor="start" x="386" y="-214.8" font-family="Helvetica,sans-Serif" font-size="9.00"> Store_Hash, Comb_Probe</text>
<text text-anchor="middle" x="455" y="-204.8" font-family="Helvetica,sans-Serif" font-size="9.00">_Fn, Probe_Fn, Resize_Policy &gt;</text>
</a>
</g>
</g>
<!-- Node0&#45;&gt;Node3 -->
<g id="edge126_Node000000_Node000003" class="edge">
<title>Node0&#45;&gt;Node3</title>
<g id="a_edge126_Node000000_Node000003"><a xlink:title=" ">
<path fill="none" stroke="#63b8ff" d="M329.01,-265.22C344.91,-260.36 361.72,-255.22 377.68,-250.34"/>
<polygon fill="#63b8ff" stroke="#63b8ff" points="328.16,-261.82 319.62,-268.09 330.21,-268.51 328.16,-261.82"/>
</a>
</g>
</g>
<!-- Node5 -->
<g id="Node000005" class="node">
<title>Node5</title>
<g id="a_Node000005"><a xlink:href="a13149.html" target="_top" xlink:title="Base class for conditionally defining a static data member.">
<polygon fill="white" stroke="#666666" points="129,-185 0,-185 0,-137 129,-137 129,-185"/>
<text text-anchor="start" x="8" y="-173.8" font-family="Helvetica,sans-Serif" font-size="9.00">__gnu_pbds::detail</text>
<text text-anchor="start" x="8" y="-163.8" font-family="Helvetica,sans-Serif" font-size="9.00">::maybe_null_type&lt; Key,</text>
<text text-anchor="start" x="8" y="-153.8" font-family="Helvetica,sans-Serif" font-size="9.00"> Mapped, _Alloc, Store</text>
<text text-anchor="middle" x="64.5" y="-143.8" font-family="Helvetica,sans-Serif" font-size="9.00">_Hash &gt;</text>
</a>
</g>
</g>
<!-- Node6 -->
<g id="Node000006" class="node">
<title>Node6</title>
<g id="a_Node000006"><a xlink:href="a13161.html" target="_top" xlink:title=" ">
<polygon fill="white" stroke="#666666" points="315.5,-114 191.5,-114 191.5,-76 315.5,-76 315.5,-114"/>
<text text-anchor="start" x="199.5" y="-102.8" font-family="Helvetica,sans-Serif" font-size="9.00">__gnu_pbds::detail</text>
<text text-anchor="start" x="199.5" y="-92.8" font-family="Helvetica,sans-Serif" font-size="9.00">::types_traits&lt; Key,</text>
<text text-anchor="middle" x="253.5" y="-82.8" font-family="Helvetica,sans-Serif" font-size="9.00"> Mapped, _Alloc, false &gt;</text>
</a>
</g>
</g>
<!-- Node5&#45;&gt;Node6 -->
<g id="edge127_Node000005_Node000006" class="edge">
<title>Node5&#45;&gt;Node6</title>
<g id="a_edge127_Node000005_Node000006"><a xlink:title=" ">
<path fill="none" stroke="#63b8ff" d="M140.12,-134.66C159.24,-127.92 179.45,-120.78 197.38,-114.45"/>
<polygon fill="#63b8ff" stroke="#63b8ff" points="139.02,-131.34 130.76,-137.97 141.35,-137.94 139.02,-131.34"/>
</a>
</g>
</g>
<!-- Node2 -->
<g id="Node000002" class="node">
<title>Node2</title>
<g id="a_Node000002"><a xlink:href="a13161.html" target="_top" xlink:title="Traits for abstract types.">
<polygon fill="white" stroke="#666666" points="312,-251 195,-251 195,-203 312,-203 312,-251"/>
<text text-anchor="start" x="203" y="-239.8" font-family="Helvetica,sans-Serif" font-size="9.00">__gnu_pbds::detail</text>
<text text-anchor="start" x="203" y="-229.8" font-family="Helvetica,sans-Serif" font-size="9.00">::types_traits&lt; Key,</text>
<text text-anchor="start" x="203" y="-219.8" font-family="Helvetica,sans-Serif" font-size="9.00"> Mapped, _Alloc, Store</text>
<text text-anchor="middle" x="253.5" y="-209.8" font-family="Helvetica,sans-Serif" font-size="9.00">_Hash &gt;</text>
</a>
</g>
</g>
<!-- Node5&#45;&gt;Node2 -->
<g id="edge131_Node000005_Node000002" class="edge">
<title>Node5&#45;&gt;Node2</title>
<g id="a_edge131_Node000005_Node000002"><a xlink:title=" ">
<path fill="none" stroke="#63b8ff" d="M140.16,-187.35C158.28,-193.75 177.39,-200.49 194.6,-206.57"/>
<polygon fill="#63b8ff" stroke="#63b8ff" points="141.35,-184.06 130.76,-184.03 139.02,-190.66 141.35,-184.06"/>
</a>
</g>
</g>
<!-- Node7 -->
<g id="Node000007" class="node">
<title>Node7</title>
<g id="a_Node000007"><a xlink:href="a13393.html" target="_top" xlink:title="list&#45;based (with updates) associative container. Skip to the lu, my darling.">
<polygon fill="white" stroke="#666666" points="519,-114 391,-114 391,-66 519,-66 519,-114"/>
<text text-anchor="start" x="399" y="-102.8" font-family="Helvetica,sans-Serif" font-size="9.00">__gnu_pbds::detail</text>
<text text-anchor="start" x="399" y="-92.8" font-family="Helvetica,sans-Serif" font-size="9.00">::lu_map&lt; Key, Mapped,</text>
<text text-anchor="start" x="399" y="-82.8" font-family="Helvetica,sans-Serif" font-size="9.00"> Eq_Fn, _Alloc, Update</text>
<text text-anchor="middle" x="455" y="-72.8" font-family="Helvetica,sans-Serif" font-size="9.00">_Policy &gt;</text>
</a>
</g>
</g>
<!-- Node6&#45;&gt;Node7 -->
<g id="edge128_Node000006_Node000007" class="edge">
<title>Node6&#45;&gt;Node7</title>
<g id="a_edge128_Node000006_Node000007"><a xlink:title=" ">
<path fill="none" stroke="#63b8ff" d="M327.32,-93.18C348.07,-92.65 370.51,-92.09 390.65,-91.59"/>
<polygon fill="#63b8ff" stroke="#63b8ff" points="327.41,-89.67 317.5,-93.42 327.58,-96.67 327.41,-89.67"/>
</a>
</g>
</g>
<!-- Node8 -->
<g id="Node000008" class="node">
<title>Node8</title>
<g id="a_Node000008"><a xlink:href="a13421.html" target="_top" xlink:title="Ordered&#45;vector tree associative&#45;container.">
<polygon fill="white" stroke="#666666" points="519,-180 391,-180 391,-132 519,-132 519,-180"/>
<text text-anchor="start" x="399" y="-168.8" font-family="Helvetica,sans-Serif" font-size="9.00">__gnu_pbds::detail</text>
<text text-anchor="start" x="399" y="-158.8" font-family="Helvetica,sans-Serif" font-size="9.00">::ov_tree_map&lt; Key,</text>
<text text-anchor="start" x="399" y="-148.8" font-family="Helvetica,sans-Serif" font-size="9.00"> Mapped, Cmp_Fn, Node</text>
<text text-anchor="middle" x="455" y="-138.8" font-family="Helvetica,sans-Serif" font-size="9.00">_And_It_Traits, _Alloc &gt;</text>
</a>
</g>
</g>
<!-- Node6&#45;&gt;Node8 -->
<g id="edge129_Node000006_Node000008" class="edge">
<title>Node6&#45;&gt;Node8</title>
<g id="a_edge129_Node000006_Node000008"><a xlink:title=" ">
<path fill="none" stroke="#63b8ff" d="M326.74,-117.09C347.66,-123.48 370.32,-130.41 390.65,-136.63"/>
<polygon fill="#63b8ff" stroke="#63b8ff" points="328.02,-113.82 317.43,-114.24 325.97,-120.51 328.02,-113.82"/>
</a>
</g>
</g>
<!-- Node9 -->
<g id="Node000009" class="node">
<title>Node9</title>
<g id="a_Node000009"><a xlink:href="a13441.html" target="_top" xlink:title="PATRICIA trie.">
<polygon fill="white" stroke="#666666" points="514.5,-48 395.5,-48 395.5,0 514.5,0 514.5,-48"/>
<text text-anchor="start" x="403.5" y="-36.8" font-family="Helvetica,sans-Serif" font-size="9.00">__gnu_pbds::detail</text>
<text text-anchor="start" x="403.5" y="-26.8" font-family="Helvetica,sans-Serif" font-size="9.00">::pat_trie_map&lt; Key,</text>
<text text-anchor="start" x="403.5" y="-16.8" font-family="Helvetica,sans-Serif" font-size="9.00"> Mapped, Node_And_It</text>
<text text-anchor="middle" x="455" y="-6.8" font-family="Helvetica,sans-Serif" font-size="9.00">_Traits, _Alloc &gt;</text>
</a>
</g>
</g>
<!-- Node6&#45;&gt;Node9 -->
<g id="edge130_Node000006_Node000009" class="edge">
<title>Node6&#45;&gt;Node9</title>
<g id="a_edge130_Node000006_Node000009"><a xlink:title=" ">
<path fill="none" stroke="#63b8ff" d="M319.83,-71.75C344.11,-63.11 371.49,-53.37 395.15,-44.94"/>
<polygon fill="#63b8ff" stroke="#63b8ff" points="318.95,-68.35 310.7,-75 321.3,-74.94 318.95,-68.35"/>
</a>
</g>
</g>
<!-- Node2&#45;&gt;Node1 -->
<g id="edge132_Node000002_Node000001" class="edge">
<title>Node2&#45;&gt;Node1</title>
<g id="a_edge132_Node000002_Node000001"><a xlink:title=" ">
<path fill="none" stroke="#63b8ff" d="M323.13,-252.84C329.51,-255.25 335.88,-257.67 342,-260 354.36,-264.7 367.48,-269.72 380.22,-274.6"/>
<polygon fill="#63b8ff" stroke="#63b8ff" points="324.42,-249.58 313.83,-249.32 321.94,-256.13 324.42,-249.58"/>
</a>
</g>
</g>
<!-- Node2&#45;&gt;Node3 -->
<g id="edge133_Node000002_Node000003" class="edge">
<title>Node2&#45;&gt;Node3</title>
<g id="a_edge133_Node000002_Node000003"><a xlink:title=" ">
<path fill="none" stroke="#63b8ff" d="M323.7,-227C341.12,-227 359.92,-227 377.67,-227"/>
<polygon fill="#63b8ff" stroke="#63b8ff" points="323.99,-223.5 313.99,-227 323.99,-230.5 323.99,-223.5"/>
</a>
</g>
</g>
<!-- Node10 -->
<g id="Node000010" class="node">
<title>Node10</title>
<g id="a_Node000010"><a xlink:href="a13453.html" target="_top" xlink:title="Base type for PATRICIA trees.">
<polygon fill="white" stroke="#666666" points="304,-38 203,-38 203,-10 304,-10 304,-38"/>
<text text-anchor="start" x="211" y="-26.8" font-family="Helvetica,sans-Serif" font-size="9.00">__gnu_pbds::detail</text>
<text text-anchor="middle" x="253.5" y="-16.8" font-family="Helvetica,sans-Serif" font-size="9.00">::pat_trie_base</text>
</a>
</g>
</g>
<!-- Node10&#45;&gt;Node9 -->
<g id="edge134_Node000010_Node000009" class="edge">
<title>Node10&#45;&gt;Node9</title>
<g id="a_edge134_Node000010_Node000009"><a xlink:title=" ">
<path fill="none" stroke="#63b8ff" d="M315.65,-24C340.96,-24 370.19,-24 395.25,-24"/>
<polygon fill="#63b8ff" stroke="#63b8ff" points="315.84,-20.5 305.84,-24 315.84,-27.5 315.84,-20.5"/>
</a>
</g>
</g>
<!-- Node11 -->
<g id="Node000011" class="node">
<title>Node11</title>
<g id="a_Node000011"><a xlink:href="a13313.html" target="_top" xlink:title="Primary template.">
<polygon fill="white" stroke="#666666" points="317,-373 190,-373 190,-325 317,-325 317,-373"/>
<text text-anchor="start" x="198" y="-361.8" font-family="Helvetica,sans-Serif" font-size="9.00">__gnu_pbds::detail</text>
<text text-anchor="start" x="198" y="-351.8" font-family="Helvetica,sans-Serif" font-size="9.00">::ranged_hash_fn&lt; Key,</text>
<text text-anchor="start" x="198" y="-341.8" font-family="Helvetica,sans-Serif" font-size="9.00"> Hash_Fn, _Alloc, Comb</text>
<text text-anchor="middle" x="253.5" y="-331.8" font-family="Helvetica,sans-Serif" font-size="9.00">_Hash_Fn, Store_Hash &gt;</text>
</a>
</g>
</g>
<!-- Node11&#45;&gt;Node1 -->
<g id="edge135_Node000011_Node000001" class="edge">
<title>Node11&#45;&gt;Node1</title>
<g id="a_edge135_Node000011_Node000001"><a xlink:title=" ">
<path fill="none" stroke="#63b8ff" d="M328.32,-331.98C345.29,-328.06 363.34,-323.9 380.31,-319.99"/>
<polygon fill="#63b8ff" stroke="#63b8ff" points="327.78,-328.51 318.82,-334.17 329.35,-335.33 327.78,-328.51"/>
</a>
</g>
</g>
<!-- Node4 -->
<g id="Node000004" class="node">
<title>Node4</title>
<g id="a_Node000004"><a xlink:href="a13333.html" target="_top" xlink:title="Primary template.">
<polygon fill="white" stroke="#666666" points="342,-185 165,-185 165,-137 342,-137 342,-185"/>
<text text-anchor="start" x="173" y="-173.8" font-family="Helvetica,sans-Serif" font-size="9.00">__gnu_pbds::detail</text>
<text text-anchor="start" x="173" y="-163.8" font-family="Helvetica,sans-Serif" font-size="9.00">::ranged_probe_fn&lt; Key,</text>
<text text-anchor="start" x="173" y="-153.8" font-family="Helvetica,sans-Serif" font-size="9.00"> Hash_Fn, _Alloc, Comb</text>
<text text-anchor="middle" x="253.5" y="-143.8" font-family="Helvetica,sans-Serif" font-size="9.00">_Probe_Fn, Probe_Fn, Store_Hash &gt;</text>
</a>
</g>
</g>
<!-- Node4&#45;&gt;Node3 -->
<g id="edge136_Node000004_Node000003" class="edge">
<title>Node4&#45;&gt;Node3</title>
<g id="a_edge136_Node000004_Node000003"><a xlink:title=" ">
<path fill="none" stroke="#63b8ff" d="M339.17,-189.01C351.99,-193.25 365.15,-197.61 377.78,-201.79"/>
<polygon fill="#63b8ff" stroke="#63b8ff" points="340.53,-185.78 329.94,-185.96 338.33,-192.42 340.53,-185.78"/>
</a>
</g>
</g>
</g>
</svg>
